<?xml version="1.0" encoding="UTF-8" standalone="no"?>
<!DOCTYPE svg PUBLIC "-//W3C//DTD SVG 1.1//EN"
 "http://www.w3.org/Graphics/SVG/1.1/DTD/svg11.dtd">
<!-- Generated by graphviz version 2.26.3 (20100126.1600)
 -->
<!-- Title: G Pages: 1 -->
<svg width="426pt" height="84pt"
 viewBox="0.00 0.00 426.00 84.00" xmlns="http://www.w3.org/2000/svg" xmlns:xlink="http://www.w3.org/1999/xlink">
<g id="graph1" class="graph" transform="scale(1 1) rotate(0) translate(4 80)">
<title>G</title>
<polygon fill="white" stroke="white" points="-4,5 -4,-80 423,-80 423,5 -4,5"/>
<!-- Node1 -->
<g id="node1" class="node"><title>Node1</title>
<polygon fill="#bfbfbf" stroke="black" points="159.5,-56.5 159.5,-75.5 228.5,-75.5 228.5,-56.5 159.5,-56.5"/>
<text text-anchor="middle" x="194" y="-62.5" font-family="FreeSans" font-size="10.00">aux_vis.hpp</text>
</g>
<!-- Node2 -->
<g id="node3" class="node"><title>Node2</title>
<polygon fill="white" stroke="#bfbfbf" points="-0.5,-0.5 -0.5,-19.5 48.5,-19.5 48.5,-0.5 -0.5,-0.5"/>
<text text-anchor="middle" x="24" y="-6.5" font-family="FreeSans" font-size="10.00">GL/gl.h</text>
</g>
<!-- Node1&#45;&gt;Node2 -->
<g id="edge2" class="edge"><title>Node1&#45;&gt;Node2</title>
<path fill="none" stroke="midnightblue" d="M164.776,-56.3733C135.223,-46.638 89.5636,-31.5974 58.3099,-21.3021"/>
<polygon fill="midnightblue" stroke="midnightblue" points="59.3004,-17.9434 48.7074,-18.1389 57.1103,-24.592 59.3004,-17.9434"/>
</g>
<!-- Node3 -->
<g id="node5" class="node"><title>Node3</title>
<polygon fill="white" stroke="#bfbfbf" points="66,-0.5 66,-19.5 120,-19.5 120,-0.5 66,-0.5"/>
<text text-anchor="middle" x="93" y="-6.5" font-family="FreeSans" font-size="10.00">GL/glu.h</text>
</g>
<!-- Node1&#45;&gt;Node3 -->
<g id="edge4" class="edge"><title>Node1&#45;&gt;Node3</title>
<path fill="none" stroke="midnightblue" d="M176.407,-56.2455C160.621,-47.4928 137.236,-34.527 119.241,-24.5496"/>
<polygon fill="midnightblue" stroke="midnightblue" points="120.834,-21.4308 110.391,-19.6427 117.44,-27.5528 120.834,-21.4308"/>
</g>
<!-- Node4 -->
<g id="node7" class="node"><title>Node4</title>
<polygon fill="white" stroke="#bfbfbf" points="137.5,-0.5 137.5,-19.5 190.5,-19.5 190.5,-0.5 137.5,-0.5"/>
<text text-anchor="middle" x="164" y="-6.5" font-family="FreeSans" font-size="10.00">GL/glx.h</text>
</g>
<!-- Node1&#45;&gt;Node4 -->
<g id="edge6" class="edge"><title>Node1&#45;&gt;Node4</title>
<path fill="none" stroke="midnightblue" d="M188.774,-56.2455C184.688,-48.617 178.887,-37.7881 173.925,-28.5267"/>
<polygon fill="midnightblue" stroke="midnightblue" points="176.973,-26.8047 169.166,-19.6427 170.803,-30.1103 176.973,-26.8047"/>
</g>
<!-- Node5 -->
<g id="node9" class="node"><title>Node5</title>
<polygon fill="white" stroke="#bfbfbf" points="207.5,-0.5 207.5,-19.5 240.5,-19.5 240.5,-0.5 207.5,-0.5"/>
<text text-anchor="middle" x="224" y="-6.5" font-family="FreeSans" font-size="10.00">tk.h</text>
</g>
<!-- Node1&#45;&gt;Node5 -->
<g id="edge8" class="edge"><title>Node1&#45;&gt;Node5</title>
<path fill="none" stroke="midnightblue" d="M199.226,-56.2455C203.312,-48.617 209.113,-37.7881 214.075,-28.5267"/>
<polygon fill="midnightblue" stroke="midnightblue" points="217.197,-30.1103 218.834,-19.6427 211.027,-26.8047 217.197,-30.1103"/>
</g>
<!-- Node6 -->
<g id="node11" class="node"><title>Node6</title>
<polygon fill="white" stroke="#bfbfbf" points="257.5,-0.5 257.5,-19.5 322.5,-19.5 322.5,-0.5 257.5,-0.5"/>
<text text-anchor="middle" x="290" y="-6.5" font-family="FreeSans" font-size="10.00">aux_gl.hpp</text>
</g>
<!-- Node1&#45;&gt;Node6 -->
<g id="edge10" class="edge"><title>Node1&#45;&gt;Node6</title>
<path fill="none" stroke="midnightblue" d="M210.722,-56.2455C225.589,-47.5731 247.547,-34.7645 264.586,-24.825"/>
<polygon fill="midnightblue" stroke="midnightblue" points="266.595,-27.7047 273.47,-19.6427 263.068,-21.6582 266.595,-27.7047"/>
</g>
<!-- Node7 -->
<g id="node13" class="node"><title>Node7</title>
<a xlink:href="openglvis_8hpp.html" target="_top" xlink:title="openglvis.hpp">
<polygon fill="white" stroke="black" points="340,-0.5 340,-19.5 418,-19.5 418,-0.5 340,-0.5"/>
<text text-anchor="middle" x="379" y="-6.5" font-family="FreeSans" font-size="10.00">openglvis.hpp</text>
</a>
</g>
<!-- Node1&#45;&gt;Node7 -->
<g id="edge12" class="edge"><title>Node1&#45;&gt;Node7</title>
<path fill="none" stroke="midnightblue" d="M225.803,-56.3733C256.832,-46.9807 304.175,-32.6496 338.015,-22.4064"/>
<polygon fill="midnightblue" stroke="midnightblue" points="339.055,-25.7483 347.612,-19.5011 337.027,-19.0485 339.055,-25.7483"/>
</g>
</g>
</svg>
