<?xml version="1.0" encoding="UTF-8" standalone="no"?>
<!DOCTYPE svg PUBLIC "-//W3C//DTD SVG 1.1//EN"
 "http://www.w3.org/Graphics/SVG/1.1/DTD/svg11.dtd">
<!-- Generated by graphviz version 2.26.3 (20100126.1600)
 -->
<!-- Title: G Pages: 1 -->
<!--zoomable 196 -->
<svg id="main" version="1.1" xmlns="http://www.w3.org/2000/svg" xmlns:xlink="http://www.w3.org/1999/xlink" xml:space="preserve" onload="init(evt)">
        <defs>
                <circle id="rim" cx="0" cy="0" r="7"/>
                <circle id="rim2" cx="0" cy="0" r="3.5"/>
                <g id="zoomPlus">
                        <use xlink:href="#rim" fill="#404040">
                                <set attributeName="fill" to="#808080" begin="zoomplus.mouseover" end="zoomplus.mouseout"/>
                        </use>
                        <path d="M-4,0h8M0,-4v8" fill="none" stroke="white" stroke-width="1.5" pointer-events="none"/>
                </g>
                <g id="zoomMin">
                        <use xlink:href="#rim" fill="#404040">
                                <set attributeName="fill" to="#808080" begin="zoomminus.mouseover" end="zoomminus.mouseout"/>
                        </use>
                        <path d="M-4,0h8" fill="none" stroke="white" stroke-width="1.5" pointer-events="none"/>
                </g>
                <g id="dirArrow">
                        <path fill="none" stroke="white" stroke-width="1.5" d="M0,-3.0v7 M-2.5,-0.5L0,-3.0L2.5,-0.5"/>
                </g>
               <g id="resetDef">
                       <use xlink:href="#rim2" fill="#404040">
                               <set attributeName="fill" to="#808080" begin="reset.mouseover" end="reset.mouseout"/>
                       </use>
               </g>
        </defs>

<script type="text/javascript">
var viewWidth = 1324;
var viewHeight = 196;
var sectionId = 'dynsection-0';
</script>
<script xlink:href="svgpan.js"/>
<svg id="graph" class="graph">
<g id="viewport">
<title>G</title>
<polygon fill="white" stroke="white" points="-4,5 -4,-192 1321,-192 1321,5 -4,5"/>
<!-- Node1 -->
<g id="node1" class="node"><title>Node1</title>
<polygon fill="#bfbfbf" stroke="black" points="348.5,-168.5 348.5,-187.5 417.5,-187.5 417.5,-168.5 348.5,-168.5"/>
<text text-anchor="middle" x="383" y="-174.5" font-family="FreeSans" font-size="10.00">aux_vis.cpp</text>
</g>
<!-- Node2 -->
<g id="node3" class="node"><title>Node2</title>
<polygon fill="white" stroke="#bfbfbf" points="-0.5,-56.5 -0.5,-75.5 54.5,-75.5 54.5,-56.5 -0.5,-56.5"/>
<text text-anchor="middle" x="27" y="-62.5" font-family="FreeSans" font-size="10.00">iostream</text>
</g>
<!-- Node1&#45;&gt;Node2 -->
<g id="edge2" class="edge"><title>Node1&#45;&gt;Node2</title>
<path fill="none" stroke="midnightblue" d="M348.497,-177.483C273.421,-175.693 98.3341,-167.696 53,-132 38.8294,-120.842 32.3631,-100.85 29.4238,-85.7837"/>
<polygon fill="midnightblue" stroke="midnightblue" points="32.8759,-85.2056 27.8471,-75.8802 25.963,-86.3061 32.8759,-85.2056"/>
</g>
<!-- Node3 -->
<g id="node5" class="node"><title>Node3</title>
<polygon fill="white" stroke="#bfbfbf" points="188,-112.5 188,-131.5 240,-131.5 240,-112.5 188,-112.5"/>
<text text-anchor="middle" x="214" y="-118.5" font-family="FreeSans" font-size="10.00">sstream</text>
</g>
<!-- Node1&#45;&gt;Node3 -->
<g id="edge4" class="edge"><title>Node1&#45;&gt;Node3</title>
<path fill="none" stroke="midnightblue" d="M353.948,-168.373C325.079,-158.807 280.752,-144.119 249.742,-133.843"/>
<polygon fill="midnightblue" stroke="midnightblue" points="250.772,-130.498 240.178,-130.674 248.57,-137.142 250.772,-130.498"/>
</g>
<!-- Node4 -->
<g id="node7" class="node"><title>Node4</title>
<polygon fill="white" stroke="#bfbfbf" points="257.5,-112.5 257.5,-131.5 304.5,-131.5 304.5,-112.5 257.5,-112.5"/>
<text text-anchor="middle" x="281" y="-118.5" font-family="FreeSans" font-size="10.00">math.h</text>
</g>
<!-- Node1&#45;&gt;Node4 -->
<g id="edge6" class="edge"><title>Node1&#45;&gt;Node4</title>
<path fill="none" stroke="midnightblue" d="M365.233,-168.246C349.29,-159.493 325.674,-146.527 307.501,-136.55"/>
<polygon fill="midnightblue" stroke="midnightblue" points="309.014,-133.387 298.563,-131.643 305.645,-139.523 309.014,-133.387"/>
</g>
<!-- Node5 -->
<g id="node9" class="node"><title>Node5</title>
<polygon fill="white" stroke="#bfbfbf" points="321.5,-112.5 321.5,-131.5 366.5,-131.5 366.5,-112.5 321.5,-112.5"/>
<text text-anchor="middle" x="344" y="-118.5" font-family="FreeSans" font-size="10.00">time.h</text>
</g>
<!-- Node1&#45;&gt;Node5 -->
<g id="edge8" class="edge"><title>Node1&#45;&gt;Node5</title>
<path fill="none" stroke="midnightblue" d="M376.207,-168.246C370.782,-160.456 363.034,-149.331 356.497,-139.944"/>
<polygon fill="midnightblue" stroke="midnightblue" points="359.303,-137.849 350.715,-131.643 353.558,-141.849 359.303,-137.849"/>
</g>
<!-- Node6 -->
<g id="node11" class="node"><title>Node6</title>
<polygon fill="white" stroke="#bfbfbf" points="383.5,-112.5 383.5,-131.5 462.5,-131.5 462.5,-112.5 383.5,-112.5"/>
<text text-anchor="middle" x="423" y="-118.5" font-family="FreeSans" font-size="10.00">X11/keysym.h</text>
</g>
<!-- Node1&#45;&gt;Node6 -->
<g id="edge10" class="edge"><title>Node1&#45;&gt;Node6</title>
<path fill="none" stroke="midnightblue" d="M389.967,-168.246C395.531,-160.456 403.478,-149.331 410.183,-139.944"/>
<polygon fill="midnightblue" stroke="midnightblue" points="413.148,-141.814 416.112,-131.643 407.452,-137.746 413.148,-141.814"/>
</g>
<!-- Node7 -->
<g id="node13" class="node"><title>Node7</title>
<polygon fill="white" stroke="#bfbfbf" points="459.5,-0.5 459.5,-19.5 520.5,-19.5 520.5,-0.5 459.5,-0.5"/>
<text text-anchor="middle" x="490" y="-6.5" font-family="FreeSans" font-size="10.00">mfem.hpp</text>
</g>
<!-- Node1&#45;&gt;Node7 -->
<g id="edge12" class="edge"><title>Node1&#45;&gt;Node7</title>
<path fill="none" stroke="midnightblue" d="M415.905,-168.483C447.829,-157.504 489.009,-137.624 471,-112 441.709,-70.3247 342.197,-98.0138 371,-56 380.323,-42.4002 419.053,-29.0601 449.831,-20.2777"/>
<polygon fill="midnightblue" stroke="midnightblue" points="450.799,-23.6413 459.497,-17.5918 448.925,-16.8969 450.799,-23.6413"/>
</g>
<!-- Node8 -->
<g id="node15" class="node"><title>Node8</title>
<a xlink:href="palettes_8hpp.html" target="_top" xlink:title="palettes.hpp">
<polygon fill="white" stroke="black" points="62,-112.5 62,-131.5 132,-131.5 132,-112.5 62,-112.5"/>
<text text-anchor="middle" x="97" y="-118.5" font-family="FreeSans" font-size="10.00">palettes.hpp</text>
</a>
</g>
<!-- Node1&#45;&gt;Node8 -->
<g id="edge14" class="edge"><title>Node1&#45;&gt;Node8</title>
<path fill="none" stroke="midnightblue" d="M348.44,-171.4C302.273,-162.559 217.937,-146.321 146,-132 144.731,-131.747 143.443,-131.49 142.144,-131.23"/>
<polygon fill="midnightblue" stroke="midnightblue" points="142.55,-127.741 132.056,-129.197 141.167,-134.603 142.55,-127.741"/>
</g>
<!-- Node9 -->
<g id="node17" class="node"><title>Node9</title>
<polygon fill="white" stroke="#bfbfbf" points="140,-56.5 140,-75.5 186,-75.5 186,-56.5 140,-56.5"/>
<text text-anchor="middle" x="163" y="-62.5" font-family="FreeSans" font-size="10.00">stdio.h</text>
</g>
<!-- Node1&#45;&gt;Node9 -->
<g id="edge24" class="edge"><title>Node1&#45;&gt;Node9</title>
<path fill="none" stroke="midnightblue" d="M348.472,-174.596C296.748,-168.795 202.678,-155.301 179,-132 166.812,-120.006 163.299,-100.419 162.543,-85.6918"/>
<polygon fill="midnightblue" stroke="midnightblue" points="166.041,-85.5343 162.404,-75.5832 159.041,-85.6303 166.041,-85.5343"/>
</g>
<!-- Node11 -->
<g id="node22" class="node"><title>Node11</title>
<polygon fill="white" stroke="#bfbfbf" points="1202,-112.5 1202,-131.5 1250,-131.5 1250,-112.5 1202,-112.5"/>
<text text-anchor="middle" x="1226" y="-118.5" font-family="FreeSans" font-size="10.00">gl2ps.h</text>
</g>
<!-- Node1&#45;&gt;Node11 -->
<g id="edge22" class="edge"><title>Node1&#45;&gt;Node11</title>
<path fill="none" stroke="midnightblue" d="M417.714,-176.943C551.816,-172.714 1036.09,-156.08 1188,-132 1189.25,-131.802 1190.52,-131.58 1191.8,-131.338"/>
<polygon fill="midnightblue" stroke="midnightblue" points="1192.61,-134.745 1201.62,-129.184 1191.11,-127.907 1192.61,-134.745"/>
</g>
<!-- Node12 -->
<g id="node25" class="node"><title>Node12</title>
<polygon fill="white" stroke="#bfbfbf" points="1268,-112.5 1268,-131.5 1316,-131.5 1316,-112.5 1268,-112.5"/>
<text text-anchor="middle" x="1292" y="-118.5" font-family="FreeSans" font-size="10.00">stdlib.h</text>
</g>
<!-- Node1&#45;&gt;Node12 -->
<g id="edge26" class="edge"><title>Node1&#45;&gt;Node12</title>
<path fill="none" stroke="midnightblue" d="M417.868,-177.294C556.996,-174.305 1073.39,-161.545 1257.57,-131.801"/>
<polygon fill="midnightblue" stroke="midnightblue" points="1258.37,-135.214 1267.65,-130.096 1257.21,-128.312 1258.37,-135.214"/>
</g>
<!-- Node13 -->
<g id="node27" class="node"><title>Node13</title>
<polygon fill="white" stroke="#bfbfbf" points="1149.5,-0.5 1149.5,-19.5 1198.5,-19.5 1198.5,-0.5 1149.5,-0.5"/>
<text text-anchor="middle" x="1174" y="-6.5" font-family="FreeSans" font-size="10.00">GL/gl.h</text>
</g>
<!-- Node1&#45;&gt;Node13 -->
<g id="edge28" class="edge"><title>Node1&#45;&gt;Node13</title>
<path fill="none" stroke="midnightblue" d="M417.733,-175.666C560.68,-165.762 1098.67,-125.439 1155,-76 1168,-64.5926 1172.37,-44.9275 1173.71,-30.0223"/>
<polygon fill="midnightblue" stroke="midnightblue" points="1177.22,-29.9357 1174.24,-19.7677 1170.23,-29.5728 1177.22,-29.9357"/>
</g>
<!-- Node14 -->
<g id="node29" class="node"><title>Node14</title>
<a xlink:href="visual_8hpp.html" target="_top" xlink:title="visual.hpp">
<polygon fill="white" stroke="black" points="714,-112.5 714,-131.5 776,-131.5 776,-112.5 714,-112.5"/>
<text text-anchor="middle" x="745" y="-118.5" font-family="FreeSans" font-size="10.00">visual.hpp</text>
</a>
</g>
<!-- Node1&#45;&gt;Node14 -->
<g id="edge30" class="edge"><title>Node1&#45;&gt;Node14</title>
<path fill="none" stroke="midnightblue" d="M417.71,-172.63C484.756,-162.259 631.789,-139.513 703.721,-128.386"/>
<polygon fill="midnightblue" stroke="midnightblue" points="704.423,-131.819 713.77,-126.831 703.352,-124.901 704.423,-131.819"/>
</g>
<!-- Node8&#45;&gt;Node2 -->
<g id="edge18" class="edge"><title>Node8&#45;&gt;Node2</title>
<path fill="none" stroke="midnightblue" d="M84.8069,-112.246C74.3679,-103.894 59.1345,-91.7076 46.926,-81.9408"/>
<polygon fill="midnightblue" stroke="midnightblue" points="49.0485,-79.1566 39.0533,-75.6427 44.6756,-84.6227 49.0485,-79.1566"/>
</g>
<!-- Node8&#45;&gt;Node9 -->
<g id="edge16" class="edge"><title>Node8&#45;&gt;Node9</title>
<path fill="none" stroke="midnightblue" d="M108.496,-112.246C118.244,-103.975 132.426,-91.9416 143.88,-82.2232"/>
<polygon fill="midnightblue" stroke="midnightblue" points="146.275,-84.7813 151.635,-75.6427 141.746,-79.4437 146.275,-84.7813"/>
</g>
<!-- Node10 -->
<g id="node20" class="node"><title>Node10</title>
<polygon fill="white" stroke="#bfbfbf" points="71.5,-56.5 71.5,-75.5 122.5,-75.5 122.5,-56.5 71.5,-56.5"/>
<text text-anchor="middle" x="97" y="-62.5" font-family="FreeSans" font-size="10.00">iomanip</text>
</g>
<!-- Node8&#45;&gt;Node10 -->
<g id="edge20" class="edge"><title>Node8&#45;&gt;Node10</title>
<path fill="none" stroke="midnightblue" d="M97,-112.246C97,-104.938 97,-94.6944 97,-85.7046"/>
<polygon fill="midnightblue" stroke="midnightblue" points="100.5,-85.6426 97,-75.6427 93.5001,-85.6427 100.5,-85.6426"/>
</g>
<!-- Node15 -->
<g id="node31" class="node"><title>Node15</title>
<a xlink:href="material_8hpp.html" target="_top" xlink:title="material.hpp">
<polygon fill="white" stroke="black" points="890,-56.5 890,-75.5 962,-75.5 962,-56.5 890,-56.5"/>
<text text-anchor="middle" x="926" y="-62.5" font-family="FreeSans" font-size="10.00">material.hpp</text>
</a>
</g>
<!-- Node14&#45;&gt;Node15 -->
<g id="edge32" class="edge"><title>Node14&#45;&gt;Node15</title>
<path fill="none" stroke="midnightblue" d="M776.115,-112.373C806.343,-103.021 852.396,-88.7725 885.474,-78.5385"/>
<polygon fill="midnightblue" stroke="midnightblue" points="886.772,-81.8005 895.291,-75.5011 884.703,-75.1133 886.772,-81.8005"/>
</g>
<!-- Node16 -->
<g id="node33" class="node"><title>Node16</title>
<a xlink:href="aux__vis_8hpp.html" target="_top" xlink:title="aux_vis.hpp">
<polygon fill="white" stroke="black" points="803.5,-56.5 803.5,-75.5 872.5,-75.5 872.5,-56.5 803.5,-56.5"/>
<text text-anchor="middle" x="838" y="-62.5" font-family="FreeSans" font-size="10.00">aux_vis.hpp</text>
</a>
</g>
<!-- Node14&#45;&gt;Node16 -->
<g id="edge34" class="edge"><title>Node14&#45;&gt;Node16</title>
<path fill="none" stroke="midnightblue" d="M761.199,-112.246C775.602,-103.573 796.873,-90.7645 813.38,-80.825"/>
<polygon fill="midnightblue" stroke="midnightblue" points="815.225,-83.7996 821.986,-75.6427 811.614,-77.8028 815.225,-83.7996"/>
</g>
<!-- Node21 -->
<g id="node44" class="node"><title>Node21</title>
<a xlink:href="openglvis_8hpp.html" target="_top" xlink:title="openglvis.hpp">
<polygon fill="white" stroke="black" points="676,-0.5 676,-19.5 754,-19.5 754,-0.5 676,-0.5"/>
<text text-anchor="middle" x="715" y="-6.5" font-family="FreeSans" font-size="10.00">openglvis.hpp</text>
</a>
</g>
<!-- Node14&#45;&gt;Node21 -->
<g id="edge48" class="edge"><title>Node14&#45;&gt;Node21</title>
<path fill="none" stroke="midnightblue" d="M749.955,-112.291C755.961,-99.1392 764.412,-75.1103 757,-56 752.614,-44.692 744.01,-34.463 735.725,-26.5381"/>
<polygon fill="midnightblue" stroke="midnightblue" points="737.824,-23.721 728.028,-19.6859 733.17,-28.9494 737.824,-23.721"/>
</g>
<!-- Node22 -->
<g id="node47" class="node"><title>Node22</title>
<a xlink:href="vsdata_8hpp.html" target="_top" xlink:title="vsdata.hpp">
<polygon fill="white" stroke="black" points="682,-56.5 682,-75.5 748,-75.5 748,-56.5 682,-56.5"/>
<text text-anchor="middle" x="715" y="-62.5" font-family="FreeSans" font-size="10.00">vsdata.hpp</text>
</a>
</g>
<!-- Node14&#45;&gt;Node22 -->
<g id="edge50" class="edge"><title>Node14&#45;&gt;Node22</title>
<path fill="none" stroke="midnightblue" d="M739.774,-112.246C735.688,-104.617 729.887,-93.7881 724.925,-84.5267"/>
<polygon fill="midnightblue" stroke="midnightblue" points="727.973,-82.8047 720.166,-75.6427 721.803,-86.1103 727.973,-82.8047"/>
</g>
<!-- Node23 -->
<g id="node51" class="node"><title>Node23</title>
<a xlink:href="vssolution_8hpp.html" target="_top" xlink:title="vssolution.hpp">
<polygon fill="white" stroke="black" points="979.5,-56.5 979.5,-75.5 1060.5,-75.5 1060.5,-56.5 979.5,-56.5"/>
<text text-anchor="middle" x="1020" y="-62.5" font-family="FreeSans" font-size="10.00">vssolution.hpp</text>
</a>
</g>
<!-- Node14&#45;&gt;Node23 -->
<g id="edge56" class="edge"><title>Node14&#45;&gt;Node23</title>
<path fill="none" stroke="midnightblue" d="M776.074,-115.68C817.77,-107.2 894.407,-91.6079 969.287,-76.3486"/>
<polygon fill="midnightblue" stroke="midnightblue" points="970.259,-79.7224 979.358,-74.2959 968.861,-72.8634 970.259,-79.7224"/>
</g>
<!-- Node24 -->
<g id="node53" class="node"><title>Node24</title>
<a xlink:href="vssolution3d_8hpp.html" target="_top" xlink:title="vssolution3d.hpp">
<polygon fill="white" stroke="black" points="380,-56.5 380,-75.5 472,-75.5 472,-56.5 380,-56.5"/>
<text text-anchor="middle" x="426" y="-62.5" font-family="FreeSans" font-size="10.00">vssolution3d.hpp</text>
</a>
</g>
<!-- Node14&#45;&gt;Node24 -->
<g id="edge58" class="edge"><title>Node14&#45;&gt;Node24</title>
<path fill="none" stroke="midnightblue" d="M713.695,-116.622C666.036,-108.418 572.154,-92.191 482.295,-76.2215"/>
<polygon fill="midnightblue" stroke="midnightblue" points="482.668,-72.7329 472.209,-74.4271 481.441,-79.6247 482.668,-72.7329"/>
</g>
<!-- Node25 -->
<g id="node55" class="node"><title>Node25</title>
<a xlink:href="vsvector_8hpp.html" target="_top" xlink:title="vsvector.hpp">
<polygon fill="white" stroke="black" points="489.5,-56.5 489.5,-75.5 562.5,-75.5 562.5,-56.5 489.5,-56.5"/>
<text text-anchor="middle" x="526" y="-62.5" font-family="FreeSans" font-size="10.00">vsvector.hpp</text>
</a>
</g>
<!-- Node14&#45;&gt;Node25 -->
<g id="edge60" class="edge"><title>Node14&#45;&gt;Node25</title>
<path fill="none" stroke="midnightblue" d="M713.623,-113.977C676.723,-104.541 615.127,-88.7905 572.633,-77.9245"/>
<polygon fill="midnightblue" stroke="midnightblue" points="573.36,-74.4977 562.804,-75.4111 571.625,-81.2795 573.36,-74.4977"/>
</g>
<!-- Node26 -->
<g id="node57" class="node"><title>Node26</title>
<a xlink:href="vsvector3d_8hpp.html" target="_top" xlink:title="vsvector3d.hpp">
<polygon fill="white" stroke="black" points="579.5,-56.5 579.5,-75.5 664.5,-75.5 664.5,-56.5 579.5,-56.5"/>
<text text-anchor="middle" x="622" y="-62.5" font-family="FreeSans" font-size="10.00">vsvector3d.hpp</text>
</a>
</g>
<!-- Node14&#45;&gt;Node26 -->
<g id="edge62" class="edge"><title>Node14&#45;&gt;Node26</title>
<path fill="none" stroke="midnightblue" d="M723.856,-112.373C704.111,-103.384 674.43,-89.8706 652.195,-79.7471"/>
<polygon fill="midnightblue" stroke="midnightblue" points="653.42,-76.4594 642.869,-75.5011 650.519,-82.8302 653.42,-76.4594"/>
</g>
<!-- Node27 -->
<g id="node59" class="node"><title>Node27</title>
<a xlink:href="threads_8hpp.html" target="_top" xlink:title="threads.hpp">
<polygon fill="white" stroke="black" points="1077.5,-56.5 1077.5,-75.5 1146.5,-75.5 1146.5,-56.5 1077.5,-56.5"/>
<text text-anchor="middle" x="1112" y="-62.5" font-family="FreeSans" font-size="10.00">threads.hpp</text>
</a>
</g>
<!-- Node14&#45;&gt;Node27 -->
<g id="edge64" class="edge"><title>Node14&#45;&gt;Node27</title>
<path fill="none" stroke="midnightblue" d="M776.426,-118.465C832.775,-111.927 954.9,-96.8535 1067.18,-76.2224"/>
<polygon fill="midnightblue" stroke="midnightblue" points="1068.13,-79.6068 1077.32,-74.3393 1066.85,-72.7245 1068.13,-79.6068"/>
</g>
<!-- Node16&#45;&gt;Node13 -->
<g id="edge36" class="edge"><title>Node16&#45;&gt;Node13</title>
<path fill="none" stroke="midnightblue" d="M872.677,-57.6504C875.486,-57.061 878.287,-56.5022 881,-56 992.573,-35.3464 1025.27,-44.4567 1139.42,-20.0921"/>
<polygon fill="midnightblue" stroke="midnightblue" points="1140.22,-23.501 1149.24,-17.9564 1138.73,-16.6608 1140.22,-23.501"/>
</g>
<!-- Node17 -->
<g id="node36" class="node"><title>Node17</title>
<polygon fill="white" stroke="#bfbfbf" points="904,-0.5 904,-19.5 958,-19.5 958,-0.5 904,-0.5"/>
<text text-anchor="middle" x="931" y="-6.5" font-family="FreeSans" font-size="10.00">GL/glu.h</text>
</g>
<!-- Node16&#45;&gt;Node17 -->
<g id="edge38" class="edge"><title>Node16&#45;&gt;Node17</title>
<path fill="none" stroke="midnightblue" d="M854.199,-56.2455C868.602,-47.5731 889.873,-34.7645 906.38,-24.825"/>
<polygon fill="midnightblue" stroke="midnightblue" points="908.225,-27.7996 914.986,-19.6427 904.614,-21.8028 908.225,-27.7996"/>
</g>
<!-- Node18 -->
<g id="node38" class="node"><title>Node18</title>
<polygon fill="white" stroke="#bfbfbf" points="975.5,-0.5 975.5,-19.5 1028.5,-19.5 1028.5,-0.5 975.5,-0.5"/>
<text text-anchor="middle" x="1002" y="-6.5" font-family="FreeSans" font-size="10.00">GL/glx.h</text>
</g>
<!-- Node16&#45;&gt;Node18 -->
<g id="edge40" class="edge"><title>Node16&#45;&gt;Node18</title>
<path fill="none" stroke="midnightblue" d="M866.193,-56.3733C893.674,-46.9892 935.593,-32.6757 965.585,-22.4343"/>
<polygon fill="midnightblue" stroke="midnightblue" points="966.929,-25.674 975.261,-19.1303 964.667,-19.0496 966.929,-25.674"/>
</g>
<!-- Node19 -->
<g id="node40" class="node"><title>Node19</title>
<polygon fill="white" stroke="#bfbfbf" points="771.5,-0.5 771.5,-19.5 804.5,-19.5 804.5,-0.5 771.5,-0.5"/>
<text text-anchor="middle" x="788" y="-6.5" font-family="FreeSans" font-size="10.00">tk.h</text>
</g>
<!-- Node16&#45;&gt;Node19 -->
<g id="edge42" class="edge"><title>Node16&#45;&gt;Node19</title>
<path fill="none" stroke="midnightblue" d="M829.291,-56.2455C822.193,-48.2958 811.992,-36.8706 803.505,-27.3656"/>
<polygon fill="midnightblue" stroke="midnightblue" points="805.881,-24.771 796.61,-19.6427 800.659,-29.4331 805.881,-24.771"/>
</g>
<!-- Node20 -->
<g id="node42" class="node"><title>Node20</title>
<polygon fill="white" stroke="#bfbfbf" points="821.5,-0.5 821.5,-19.5 886.5,-19.5 886.5,-0.5 821.5,-0.5"/>
<text text-anchor="middle" x="854" y="-6.5" font-family="FreeSans" font-size="10.00">aux_gl.hpp</text>
</g>
<!-- Node16&#45;&gt;Node20 -->
<g id="edge44" class="edge"><title>Node16&#45;&gt;Node20</title>
<path fill="none" stroke="midnightblue" d="M840.787,-56.2455C842.898,-48.8579 845.866,-38.4689 848.455,-29.4087"/>
<polygon fill="midnightblue" stroke="midnightblue" points="851.863,-30.2195 851.245,-19.6427 845.132,-28.2964 851.863,-30.2195"/>
</g>
<!-- Node16&#45;&gt;Node21 -->
<g id="edge46" class="edge"><title>Node16&#45;&gt;Node21</title>
<path fill="none" stroke="midnightblue" d="M816.856,-56.3733C797.111,-47.3838 767.43,-33.8706 745.195,-23.7471"/>
<polygon fill="midnightblue" stroke="midnightblue" points="746.42,-20.4594 735.869,-19.5011 743.519,-26.8302 746.42,-20.4594"/>
</g>
<!-- Node22&#45;&gt;Node7 -->
<g id="edge54" class="edge"><title>Node22&#45;&gt;Node7</title>
<path fill="none" stroke="midnightblue" d="M681.8,-57.737C641.626,-47.7379 573.999,-30.9064 530.716,-20.1338"/>
<polygon fill="midnightblue" stroke="midnightblue" points="531.352,-16.6853 520.802,-17.6664 529.661,-23.4781 531.352,-16.6853"/>
</g>
<!-- Node22&#45;&gt;Node21 -->
<g id="edge52" class="edge"><title>Node22&#45;&gt;Node21</title>
<path fill="none" stroke="midnightblue" d="M715,-56.2455C715,-48.9382 715,-38.6944 715,-29.7046"/>
<polygon fill="midnightblue" stroke="midnightblue" points="718.5,-29.6426 715,-19.6427 711.5,-29.6427 718.5,-29.6426"/>
</g>
<!-- Node28 -->
<g id="node61" class="node"><title>Node28</title>
<polygon fill="white" stroke="#bfbfbf" points="1074,-0.5 1074,-19.5 1132,-19.5 1132,-0.5 1074,-0.5"/>
<text text-anchor="middle" x="1103" y="-6.5" font-family="FreeSans" font-size="10.00">pthread.h</text>
</g>
<!-- Node27&#45;&gt;Node28 -->
<g id="edge66" class="edge"><title>Node27&#45;&gt;Node28</title>
<path fill="none" stroke="midnightblue" d="M1110.43,-56.2455C1109.26,-48.9382 1107.61,-38.6944 1106.17,-29.7046"/>
<polygon fill="midnightblue" stroke="midnightblue" points="1109.59,-28.9606 1104.55,-19.6427 1102.68,-30.0714 1109.59,-28.9606"/>
</g>
</g>
</svg>
        <g id="navigator" transform="translate(0 0)" fill="#404254">
                <rect fill="#f2f5e9" fill-opacity="0.5" stroke="#606060" stroke-width=".5" x="0" y="0" width="60" height="60"/>
                <use id="zoomplus" xlink:href="#zoomPlus" x="17" y="9" onmousedown="handleZoom(evt,'in')"/>
                <use id="zoomminus" xlink:href="#zoomMin" x="42" y="9" onmousedown="handleZoom(evt,'out')"/>
                <use id="reset" xlink:href="#resetDef" x="30" y="36" onmousedown="handleReset()"/>
                <g id="arrowUp" xlink:href="#dirArrow" transform="translate(30 24)" onmousedown="handlePan(0,-1)">
                  <use xlink:href="#rim" fill="#404040">
                        <set attributeName="fill" to="#808080" begin="arrowUp.mouseover" end="arrowUp.mouseout"/>
                  </use>
                  <path fill="none" stroke="white" stroke-width="1.5" d="M0,-3.0v7 M-2.5,-0.5L0,-3.0L2.5,-0.5"/>
                </g>
                <g id="arrowRight" xlink:href="#dirArrow" transform="rotate(90) translate(36 -43)" onmousedown="handlePan(1,0)">
                  <use xlink:href="#rim" fill="#404040">
                        <set attributeName="fill" to="#808080" begin="arrowRight.mouseover" end="arrowRight.mouseout"/>
                  </use>
                  <path fill="none" stroke="white" stroke-width="1.5" d="M0,-3.0v7 M-2.5,-0.5L0,-3.0L2.5,-0.5"/>
                </g>
                <g id="arrowDown" xlink:href="#dirArrow" transform="rotate(180) translate(-30 -48)" onmousedown="handlePan(0,1)">
                  <use xlink:href="#rim" fill="#404040">
                        <set attributeName="fill" to="#808080" begin="arrowDown.mouseover" end="arrowDown.mouseout"/>
                  </use>
                  <path fill="none" stroke="white" stroke-width="1.5" d="M0,-3.0v7 M-2.5,-0.5L0,-3.0L2.5,-0.5"/>
                </g>
                <g id="arrowLeft" xlink:href="#dirArrow" transform="rotate(270) translate(-36 17)" onmousedown="handlePan(-1,0)">
                  <use xlink:href="#rim" fill="#404040">
                        <set attributeName="fill" to="#808080" begin="arrowLeft.mouseover" end="arrowLeft.mouseout"/>
                  </use>
                  <path fill="none" stroke="white" stroke-width="1.5" d="M0,-3.0v7 M-2.5,-0.5L0,-3.0L2.5,-0.5"/>
                </g>
        </g>
</svg>
