<?xml version="1.0" encoding="UTF-8" standalone="no"?>
<!DOCTYPE svg PUBLIC "-//W3C//DTD SVG 1.1//EN"
 "http://www.w3.org/Graphics/SVG/1.1/DTD/svg11.dtd">
<!-- Generated by graphviz version 2.44.1 (20200629.0846)
 -->
<!-- Title: VisualizationSceneScalarData Pages: 1 -->
<!--zoomable 362 -->
<svg id="main" version="1.1" xmlns="http://www.w3.org/2000/svg" xmlns:xlink="http://www.w3.org/1999/xlink" xml:space="preserve" onload="init(evt)">
<style type="text/css"><![CDATA[
.edge:hover path { stroke: red; }
.edge:hover polygon { stroke: red; fill: red; }
]]></style>
<script type="text/javascript"><![CDATA[
var edges = document.getElementsByTagName('g');
if (edges && edges.length) {
  for (var i=0;i<edges.length;i++) {
    if (edges[i].id.substr(0,4)=='edge') {
      edges[i].setAttribute('class','edge');
    }
  }
}
]]></script>
        <defs>
                <circle id="rim" cx="0" cy="0" r="7"/>
                <circle id="rim2" cx="0" cy="0" r="3.5"/>
                <g id="zoomPlus">
                        <use xlink:href="#rim" fill="#404040">
                                <set attributeName="fill" to="#808080" begin="zoomplus.mouseover" end="zoomplus.mouseout"/>
                        </use>
                        <path d="M-4,0h8M0,-4v8" fill="none" stroke="white" stroke-width="1.5" pointer-events="none"/>
                </g>
                <g id="zoomMin">
                        <use xlink:href="#rim" fill="#404040">
                                <set attributeName="fill" to="#808080" begin="zoomminus.mouseover" end="zoomminus.mouseout"/>
                        </use>
                        <path d="M-4,0h8" fill="none" stroke="white" stroke-width="1.5" pointer-events="none"/>
                </g>
                <g id="dirArrow">
                        <path fill="none" stroke="white" stroke-width="1.5" d="M0,-3.0v7 M-2.5,-0.5L0,-3.0L2.5,-0.5"/>
                </g>
               <g id="resetDef">
                       <use xlink:href="#rim2" fill="#404040">
                               <set attributeName="fill" to="#808080" begin="reset.mouseover" end="reset.mouseout"/>
                       </use>
               </g>
        </defs>

<script type="text/javascript">
var viewWidth = 597;
var viewHeight = 362;
var sectionId = 'dynsection-1';
</script>
<script xlink:href="svgpan.js"/>
<svg id="graph" class="graph">
<g id="viewport">
<title>VisualizationSceneScalarData</title>
<polygon fill="white" stroke="transparent" points="-4,4 -4,-358 592.5,-358 592.5,4 -4,4"/>
<!-- Node1 -->
<g id="node1" class="node">
<title>Node1</title>
<g id="a_node1"><a xlink:title=" ">
<polygon fill="#bfbfbf" stroke="black" points="258,-0.5 258,-23.5 455,-23.5 455,-0.5 258,-0.5"/>
<text text-anchor="middle" x="356.5" y="-8.3" font-family="Helvetica,sans-Serif" font-size="14.00">VisualizationSceneScalarData</text>
</a>
</g>
</g>
<!-- Node2 -->
<g id="node2" class="node">
<title>Node2</title>
<g id="a_node2"><a xlink:href="classVisualizationScene.html" target="_top" xlink:title=" ">
<polygon fill="white" stroke="black" points="88,-135.5 88,-158.5 219,-158.5 219,-135.5 88,-135.5"/>
<text text-anchor="middle" x="153.5" y="-143.3" font-family="Helvetica,sans-Serif" font-size="14.00">VisualizationScene</text>
</a>
</g>
</g>
<!-- Node2&#45;&gt;Node1 -->
<g id="edge1" class="edge">
<title>Node2&#45;&gt;Node1</title>
<path fill="none" stroke="midnightblue" d="M171.4,-127.91C194.6,-105.29 237.13,-66.55 279.5,-42 292.48,-34.48 307.76,-28.25 321.28,-23.52"/>
<polygon fill="midnightblue" stroke="midnightblue" points="168.68,-125.67 164.03,-135.19 173.6,-130.65 168.68,-125.67"/>
</g>
<!-- Node3 -->
<g id="node3" class="node">
<title>Node3</title>
<g id="a_node3"><a xlink:href="classSdlWindow.html" target="_top" xlink:title=" ">
<polygon fill="white" stroke="black" points="0,-218 0,-241 85,-241 85,-218 0,-218"/>
<text text-anchor="middle" x="42.5" y="-225.8" font-family="Helvetica,sans-Serif" font-size="14.00">SdlWindow</text>
</a>
</g>
</g>
<!-- Node3&#45;&gt;Node2 -->
<g id="edge2" class="edge">
<title>Node3&#45;&gt;Node2</title>
<path fill="none" stroke="#9a32cd" stroke-dasharray="5,2" d="M52.62,-208.6C58.85,-198 67.72,-185.45 78.5,-177 88.72,-168.99 101.41,-162.97 113.43,-158.56"/>
<polygon fill="#9a32cd" stroke="#9a32cd" points="49.42,-207.16 47.65,-217.6 55.54,-210.54 49.42,-207.16"/>
<text text-anchor="middle" x="93" y="-180.8" font-family="Helvetica,sans-Serif" font-size="14.00"> wnd</text>
</g>
<!-- Node4 -->
<g id="node4" class="node">
<title>Node4</title>
<g id="a_node4"><a xlink:href="structMaterial.html" target="_top" xlink:title=" ">
<polygon fill="white" stroke="black" points="192,-218 192,-241 257,-241 257,-218 192,-218"/>
<text text-anchor="middle" x="224.5" y="-225.8" font-family="Helvetica,sans-Serif" font-size="14.00">Material</text>
</a>
</g>
</g>
<!-- Node4&#45;&gt;Node2 -->
<g id="edge3" class="edge">
<title>Node4&#45;&gt;Node2</title>
<path fill="none" stroke="#9a32cd" stroke-dasharray="5,2" d="M208.47,-210.32C194.38,-194.35 174.37,-171.67 162.78,-158.53"/>
<polygon fill="#9a32cd" stroke="#9a32cd" points="205.98,-212.79 215.22,-217.98 211.23,-208.16 205.98,-212.79"/>
<text text-anchor="middle" x="225" y="-180.8" font-family="Helvetica,sans-Serif" font-size="14.00"> BLK_MAT</text>
</g>
<!-- Node5 -->
<g id="node5" class="node">
<title>Node5</title>
<g id="a_node5"><a xlink:title=" ">
<polygon fill="white" stroke="#bfbfbf" points="69,-330.5 69,-353.5 206,-353.5 206,-330.5 69,-330.5"/>
<text text-anchor="middle" x="137.5" y="-338.3" font-family="Helvetica,sans-Serif" font-size="14.00">std::array&lt; float, 4 &gt;</text>
</a>
</g>
</g>
<!-- Node5&#45;&gt;Node2 -->
<g id="edge6" class="edge">
<title>Node5&#45;&gt;Node2</title>
<path fill="none" stroke="#9a32cd" stroke-dasharray="5,2" d="M133.47,-320.22C129.09,-294.23 123.59,-248.47 130.5,-210 133.87,-191.24 142.54,-170.74 148.22,-158.65"/>
<polygon fill="#9a32cd" stroke="#9a32cd" points="130.08,-321.15 135.29,-330.37 136.97,-319.91 130.08,-321.15"/>
<text text-anchor="middle" x="156.5" y="-225.8" font-family="Helvetica,sans-Serif" font-size="14.00"> _l0_pos</text>
</g>
<!-- Node5&#45;&gt;Node4 -->
<g id="edge4" class="edge">
<title>Node5&#45;&gt;Node4</title>
<path fill="none" stroke="#9a32cd" stroke-dasharray="5,2" d="M152.2,-322.32C170.54,-299.03 201.27,-260 216.06,-241.23"/>
<polygon fill="#9a32cd" stroke="#9a32cd" points="149.28,-320.38 145.84,-330.4 154.78,-324.71 149.28,-320.38"/>
<text text-anchor="middle" x="221" y="-300.8" font-family="Helvetica,sans-Serif" font-size="14.00"> ambient</text>
<text text-anchor="middle" x="221" y="-285.8" font-family="Helvetica,sans-Serif" font-size="14.00">diffuse</text>
<text text-anchor="middle" x="221" y="-270.8" font-family="Helvetica,sans-Serif" font-size="14.00">specular</text>
</g>
<!-- Node6 -->
<g id="node6" class="node">
<title>Node6</title>
<g id="a_node6"><a xlink:href="classCamera.html" target="_top" xlink:title=" ">
<polygon fill="white" stroke="black" points="275,-218 275,-241 340,-241 340,-218 275,-218"/>
<text text-anchor="middle" x="307.5" y="-225.8" font-family="Helvetica,sans-Serif" font-size="14.00">Camera</text>
</a>
</g>
</g>
<!-- Node6&#45;&gt;Node2 -->
<g id="edge5" class="edge">
<title>Node6&#45;&gt;Node2</title>
<path fill="none" stroke="#9a32cd" stroke-dasharray="5,2" d="M295,-209.2C286.95,-198.24 275.58,-185.13 262.5,-177 249.2,-168.73 233.56,-162.79 218.36,-158.54"/>
<polygon fill="#9a32cd" stroke="#9a32cd" points="292.35,-211.53 300.93,-217.74 298.1,-207.53 292.35,-211.53"/>
<text text-anchor="middle" x="296" y="-180.8" font-family="Helvetica,sans-Serif" font-size="14.00"> cam</text>
</g>
<!-- Node7 -->
<g id="node7" class="node">
<title>Node7</title>
<g id="a_node7"><a xlink:href="classgl3_1_1GlDrawable.html" target="_top" xlink:title=" ">
<polygon fill="white" stroke="black" points="237,-135.5 237,-158.5 350,-158.5 350,-135.5 237,-135.5"/>
<text text-anchor="middle" x="293.5" y="-143.3" font-family="Helvetica,sans-Serif" font-size="14.00">gl3::GlDrawable</text>
</a>
</g>
</g>
<!-- Node7&#45;&gt;Node1 -->
<g id="edge7" class="edge">
<title>Node7&#45;&gt;Node1</title>
<path fill="none" stroke="#9a32cd" stroke-dasharray="5,2" d="M287.68,-125.42C282.63,-103.02 278.39,-67.06 294.5,-42 299.77,-33.8 308.03,-27.88 316.81,-23.62"/>
<polygon fill="#9a32cd" stroke="#9a32cd" points="284.31,-126.37 290.14,-135.22 291.1,-124.67 284.31,-126.37"/>
<text text-anchor="middle" x="346.5" y="-105.8" font-family="Helvetica,sans-Serif" font-size="14.00"> coord_cross_buf</text>
<text text-anchor="middle" x="346.5" y="-90.8" font-family="Helvetica,sans-Serif" font-size="14.00">axes_buf</text>
<text text-anchor="middle" x="346.5" y="-75.8" font-family="Helvetica,sans-Serif" font-size="14.00">color_bar</text>
<text text-anchor="middle" x="346.5" y="-60.8" font-family="Helvetica,sans-Serif" font-size="14.00">ruler_buf</text>
<text text-anchor="middle" x="346.5" y="-45.8" font-family="Helvetica,sans-Serif" font-size="14.00">caption_buf</text>
</g>
<!-- Node8 -->
<g id="node8" class="node">
<title>Node8</title>
<g id="a_node8"><a xlink:href="classPlane.html" target="_top" xlink:title=" ">
<polygon fill="white" stroke="black" points="395,-135.5 395,-158.5 446,-158.5 446,-135.5 395,-135.5"/>
<text text-anchor="middle" x="420.5" y="-143.3" font-family="Helvetica,sans-Serif" font-size="14.00">Plane</text>
</a>
</g>
</g>
<!-- Node8&#45;&gt;Node1 -->
<g id="edge8" class="edge">
<title>Node8&#45;&gt;Node1</title>
<path fill="none" stroke="#9a32cd" stroke-dasharray="5,2" d="M420.52,-125.22C419.6,-102.9 415.3,-67.23 398.5,-42 393.49,-34.48 385.81,-28.35 378.37,-23.69"/>
<polygon fill="#9a32cd" stroke="#9a32cd" points="417.02,-125.36 420.74,-135.28 424.02,-125.2 417.02,-125.36"/>
<text text-anchor="middle" x="461.5" y="-75.8" font-family="Helvetica,sans-Serif" font-size="14.00"> CuttingPlane</text>
</g>
<!-- Node9 -->
<g id="node9" class="node">
<title>Node9</title>
<g id="a_node9"><a xlink:title="STL class.">
<polygon fill="white" stroke="#bfbfbf" points="488,-135.5 488,-158.5 563,-158.5 563,-135.5 488,-135.5"/>
<text text-anchor="middle" x="525.5" y="-143.3" font-family="Helvetica,sans-Serif" font-size="14.00">std::string</text>
</a>
</g>
</g>
<!-- Node9&#45;&gt;Node1 -->
<g id="edge9" class="edge">
<title>Node9&#45;&gt;Node1</title>
<path fill="none" stroke="#9a32cd" stroke-dasharray="5,2" d="M527.32,-125.12C528.14,-101.57 525.52,-63.72 503.5,-42 495.26,-33.87 474.98,-27.89 452.03,-23.54"/>
<polygon fill="#9a32cd" stroke="#9a32cd" points="523.81,-125.22 526.71,-135.4 530.8,-125.63 523.81,-125.22"/>
<text text-anchor="middle" x="557.5" y="-90.8" font-family="Helvetica,sans-Serif" font-size="14.00"> a_label_x</text>
<text text-anchor="middle" x="557.5" y="-75.8" font-family="Helvetica,sans-Serif" font-size="14.00">a_label_y</text>
<text text-anchor="middle" x="557.5" y="-60.8" font-family="Helvetica,sans-Serif" font-size="14.00">a_label_z</text>
</g>
<!-- Node10 -->
<g id="node10" class="node">
<title>Node10</title>
<g id="a_node10"><a xlink:title=" ">
<polygon fill="white" stroke="#bfbfbf" points="464.5,-210.5 464.5,-248.5 586.5,-248.5 586.5,-210.5 464.5,-210.5"/>
<text text-anchor="start" x="472.5" y="-233.3" font-family="Helvetica,sans-Serif" font-size="14.00">std::basic_string&lt;</text>
<text text-anchor="middle" x="525.5" y="-218.3" font-family="Helvetica,sans-Serif" font-size="14.00"> char &gt;</text>
</a>
</g>
</g>
<!-- Node10&#45;&gt;Node9 -->
<g id="edge10" class="edge">
<title>Node10&#45;&gt;Node9</title>
<path fill="none" stroke="midnightblue" d="M525.5,-199.82C525.5,-185.48 525.5,-169 525.5,-158.55"/>
<polygon fill="midnightblue" stroke="midnightblue" points="522,-200.23 525.5,-210.23 529,-200.23 522,-200.23"/>
</g>
</g>
</svg>
        <g id="navigator" transform="translate(0 0)" fill="#404254">
                <rect fill="#f2f5e9" fill-opacity="0.5" stroke="#606060" stroke-width=".5" x="0" y="0" width="60" height="60"/>
                <use id="zoomplus" xlink:href="#zoomPlus" x="17" y="9" onmousedown="handleZoom(evt,'in')"/>
                <use id="zoomminus" xlink:href="#zoomMin" x="42" y="9" onmousedown="handleZoom(evt,'out')"/>
                <use id="reset" xlink:href="#resetDef" x="30" y="36" onmousedown="handleReset()"/>
                <g id="arrowUp" xlink:href="#dirArrow" transform="translate(30 24)" onmousedown="handlePan(0,-1)">
                  <use xlink:href="#rim" fill="#404040">
                        <set attributeName="fill" to="#808080" begin="arrowUp.mouseover" end="arrowUp.mouseout"/>
                  </use>
                  <path fill="none" stroke="white" stroke-width="1.5" d="M0,-3.0v7 M-2.5,-0.5L0,-3.0L2.5,-0.5"/>
                </g>
                <g id="arrowRight" xlink:href="#dirArrow" transform="rotate(90) translate(36 -43)" onmousedown="handlePan(1,0)">
                  <use xlink:href="#rim" fill="#404040">
                        <set attributeName="fill" to="#808080" begin="arrowRight.mouseover" end="arrowRight.mouseout"/>
                  </use>
                  <path fill="none" stroke="white" stroke-width="1.5" d="M0,-3.0v7 M-2.5,-0.5L0,-3.0L2.5,-0.5"/>
                </g>
                <g id="arrowDown" xlink:href="#dirArrow" transform="rotate(180) translate(-30 -48)" onmousedown="handlePan(0,1)">
                  <use xlink:href="#rim" fill="#404040">
                        <set attributeName="fill" to="#808080" begin="arrowDown.mouseover" end="arrowDown.mouseout"/>
                  </use>
                  <path fill="none" stroke="white" stroke-width="1.5" d="M0,-3.0v7 M-2.5,-0.5L0,-3.0L2.5,-0.5"/>
                </g>
                <g id="arrowLeft" xlink:href="#dirArrow" transform="rotate(270) translate(-36 17)" onmousedown="handlePan(-1,0)">
                  <use xlink:href="#rim" fill="#404040">
                        <set attributeName="fill" to="#808080" begin="arrowLeft.mouseover" end="arrowLeft.mouseout"/>
                  </use>
                  <path fill="none" stroke="white" stroke-width="1.5" d="M0,-3.0v7 M-2.5,-0.5L0,-3.0L2.5,-0.5"/>
                </g>
        </g>
        <svg viewBox="0 0 15 15" width="100%" height="30px" preserveAspectRatio="xMaxYMin meet">
         <g id="arrow_out" transform="scale(0.3 0.3)">
          <a xlink:href="classVisualizationSceneScalarData__coll__graph_org.svg" target="_base">
           <rect id="button" ry="5" rx="5" y="6" x="6" height="38" width="38"
                fill="#f2f5e9" fill-opacity="0.5" stroke="#606060" stroke-width="1.0"/>
           <path id="arrow"
             d="M 11.500037,31.436501 C 11.940474,20.09759 22.043105,11.32322 32.158766,21.979434 L 37.068811,17.246167 C 37.068811,17.246167 37.088388,32 37.088388,32 L 22.160133,31.978069 C 22.160133,31.978069 26.997745,27.140456 26.997745,27.140456 C 18.528582,18.264221 13.291696,25.230495 11.500037,31.436501 z"
             style="fill:#404040;"/>
          </a>
         </g>
        </svg>
</svg>
