<?xml version="1.0" encoding="UTF-8" standalone="no"?>
<!DOCTYPE svg PUBLIC "-//W3C//DTD SVG 1.1//EN"
 "http://www.w3.org/Graphics/SVG/1.1/DTD/svg11.dtd">
<!-- Generated by graphviz version 2.30.1 (20140821.0912)
 -->
<!-- Title: VisualizationSceneSolution3d Pages: 1 -->
<svg width="204pt" height="212pt"
 viewBox="0.00 0.00 204.00 212.00" xmlns="http://www.w3.org/2000/svg" xmlns:xlink="http://www.w3.org/1999/xlink">
<g id="graph0" class="graph" transform="scale(1 1) rotate(0) translate(4 208)">
<title>VisualizationSceneSolution3d</title>
<polygon fill="white" stroke="white" points="-4,5 -4,-208 201,-208 201,5 -4,5"/>
<!-- Node1 -->
<g id="node1" class="node"><title>Node1</title>
<polygon fill="#bfbfbf" stroke="black" points="1,-60.5 1,-83.5 195,-83.5 195,-60.5 1,-60.5"/>
<text text-anchor="middle" x="98" y="-68.3" font-family="Helvetica,sans-Serif" font-size="14.00">VisualizationSceneSolution3d</text>
</g>
<!-- Node4 -->
<g id="node4" class="node"><title>Node4</title>
<g id="a_node4"><a xlink:href="classVisualizationSceneVector3d.html" target="_top" xlink:title="VisualizationSceneVector3d">
<polygon fill="white" stroke="black" points="5.5,-0.5 5.5,-23.5 190.5,-23.5 190.5,-0.5 5.5,-0.5"/>
<text text-anchor="middle" x="98" y="-8.3" font-family="Helvetica,sans-Serif" font-size="14.00">VisualizationSceneVector3d</text>
</a>
</g>
</g>
<!-- Node1&#45;&gt;Node4 -->
<g id="edge3" class="edge"><title>Node1&#45;&gt;Node4</title>
<path fill="none" stroke="midnightblue" d="M98,-50.1906C98,-41.1684 98,-30.9941 98,-23.5707"/>
<polygon fill="midnightblue" stroke="midnightblue" points="94.5001,-50.3619 98,-60.3619 101.5,-50.3619 94.5001,-50.3619"/>
</g>
<!-- Node2 -->
<g id="node2" class="node"><title>Node2</title>
<g id="a_node2"><a xlink:href="classVisualizationSceneScalarData.html" target="_top" xlink:title="VisualizationSceneScalarData">
<polygon fill="white" stroke="black" points="-0.5,-120.5 -0.5,-143.5 196.5,-143.5 196.5,-120.5 -0.5,-120.5"/>
<text text-anchor="middle" x="98" y="-128.3" font-family="Helvetica,sans-Serif" font-size="14.00">VisualizationSceneScalarData</text>
</a>
</g>
</g>
<!-- Node2&#45;&gt;Node1 -->
<g id="edge1" class="edge"><title>Node2&#45;&gt;Node1</title>
<path fill="none" stroke="midnightblue" d="M98,-110.191C98,-101.168 98,-90.9941 98,-83.5707"/>
<polygon fill="midnightblue" stroke="midnightblue" points="94.5001,-110.362 98,-120.362 101.5,-110.362 94.5001,-110.362"/>
</g>
<!-- Node3 -->
<g id="node3" class="node"><title>Node3</title>
<g id="a_node3"><a xlink:href="classVisualizationScene.html" target="_top" xlink:title="VisualizationScene">
<polygon fill="white" stroke="black" points="32.5,-180.5 32.5,-203.5 163.5,-203.5 163.5,-180.5 32.5,-180.5"/>
<text text-anchor="middle" x="98" y="-188.3" font-family="Helvetica,sans-Serif" font-size="14.00">VisualizationScene</text>
</a>
</g>
</g>
<!-- Node3&#45;&gt;Node2 -->
<g id="edge2" class="edge"><title>Node3&#45;&gt;Node2</title>
<path fill="none" stroke="midnightblue" d="M98,-170.191C98,-161.168 98,-150.994 98,-143.571"/>
<polygon fill="midnightblue" stroke="midnightblue" points="94.5001,-170.362 98,-180.362 101.5,-170.362 94.5001,-170.362"/>
</g>
</g>
</svg>
