<?xml version="1.0" encoding="UTF-8" standalone="no"?>
<!DOCTYPE svg PUBLIC "-//W3C//DTD SVG 1.1//EN"
 "http://www.w3.org/Graphics/SVG/1.1/DTD/svg11.dtd">
<!-- Generated by graphviz version 2.30.1 (20200304.1809)
 -->
<!-- Title: VisualizationSceneVector Pages: 1 -->
<svg width="1636pt" height="309pt"
 viewBox="0.00 0.00 1636.00 309.00" xmlns="http://www.w3.org/2000/svg" xmlns:xlink="http://www.w3.org/1999/xlink">
<g id="graph0" class="graph" transform="scale(1 1) rotate(0) translate(4 305)">
<title>VisualizationSceneVector</title>
<polygon fill="white" stroke="white" points="-4,5 -4,-305 1633,-305 1633,5 -4,5"/>
<!-- Node1 -->
<g id="node1" class="node"><title>Node1</title>
<polygon fill="#bfbfbf" stroke="black" points="1432,-0.5 1432,-23.5 1628,-23.5 1628,-0.5 1432,-0.5"/>
<text text-anchor="middle" x="1530" y="-8.3" font-family="Helvetica,sans-Serif" font-size="14.00">VisualizationSceneVector</text>
</g>
<!-- Node2 -->
<g id="node2" class="node"><title>Node2</title>
<g id="a_node2"><a xlink:href="classVisualizationSceneSolution.html" target="_top" xlink:title="VisualizationSceneSolution">
<polygon fill="white" stroke="black" points="1186,-29.5 1186,-52.5 1394,-52.5 1394,-29.5 1186,-29.5"/>
<text text-anchor="middle" x="1290" y="-37.3" font-family="Helvetica,sans-Serif" font-size="14.00">VisualizationSceneSolution</text>
</a>
</g>
</g>
<!-- Node2&#45;&gt;Node1 -->
<g id="edge1" class="edge"><title>Node2&#45;&gt;Node1</title>
<path fill="none" stroke="midnightblue" d="M1395.66,-28.2471C1408.52,-26.6797 1421.62,-25.0847 1434.32,-23.5368"/>
<polygon fill="midnightblue" stroke="midnightblue" points="1394.91,-24.8129 1385.41,-29.4968 1395.76,-31.7615 1394.91,-24.8129"/>
</g>
<!-- Node3 -->
<g id="node3" class="node"><title>Node3</title>
<g id="a_node3"><a xlink:href="classVisualizationSceneScalarData.html" target="_top" xlink:title="VisualizationSceneScalarData">
<polygon fill="white" stroke="black" points="828.5,-209.5 828.5,-232.5 1057.5,-232.5 1057.5,-209.5 828.5,-209.5"/>
<text text-anchor="middle" x="943" y="-217.3" font-family="Helvetica,sans-Serif" font-size="14.00">VisualizationSceneScalarData</text>
</a>
</g>
</g>
<!-- Node3&#45;&gt;Node2 -->
<g id="edge2" class="edge"><title>Node3&#45;&gt;Node2</title>
<path fill="none" stroke="midnightblue" d="M1023.09,-206.909C1035.02,-203.661 1047,-199.73 1058,-195 1148.33,-156.156 1241.38,-81.4283 1275.46,-52.6727"/>
<polygon fill="midnightblue" stroke="midnightblue" points="1021.91,-203.597 1013.1,-209.48 1023.66,-210.376 1021.91,-203.597"/>
</g>
<!-- Node4 -->
<g id="node4" class="node"><title>Node4</title>
<g id="a_node4"><a xlink:href="classVisualizationScene.html" target="_top" xlink:title="VisualizationScene">
<polygon fill="white" stroke="black" points="520,-149.5 520,-172.5 670,-172.5 670,-149.5 520,-149.5"/>
<text text-anchor="middle" x="595" y="-157.3" font-family="Helvetica,sans-Serif" font-size="14.00">VisualizationScene</text>
</a>
</g>
</g>
<!-- Node4&#45;&gt;Node3 -->
<g id="edge3" class="edge"><title>Node4&#45;&gt;Node3</title>
<path fill="none" stroke="midnightblue" d="M672.639,-174.29C733.425,-184.831 817.516,-199.413 875.493,-209.467"/>
<polygon fill="midnightblue" stroke="midnightblue" points="673.163,-170.829 662.712,-172.569 671.967,-177.726 673.163,-170.829"/>
</g>
<!-- Node5 -->
<g id="node5" class="node"><title>Node5</title>
<g id="a_node5"><a xlink:href="classSdlWindow.html" target="_top" xlink:title="SdlWindow">
<polygon fill="white" stroke="black" points="294.5,-217.5 294.5,-240.5 389.5,-240.5 389.5,-217.5 294.5,-217.5"/>
<text text-anchor="middle" x="342" y="-225.3" font-family="Helvetica,sans-Serif" font-size="14.00">SdlWindow</text>
</a>
</g>
</g>
<!-- Node5&#45;&gt;Node4 -->
<g id="edge4" class="edge"><title>Node5&#45;&gt;Node4</title>
<path fill="none" stroke="#9a32cd" stroke-dasharray="5,2" d="M399.851,-220.04C430.437,-214.6 468.626,-206.807 502,-197 524.709,-190.327 549.669,-180.387 567.854,-172.642"/>
<polygon fill="#9a32cd" stroke="#9a32cd" points="399.038,-216.629 389.788,-221.794 400.24,-223.525 399.038,-216.629"/>
<text text-anchor="middle" x="467" y="-217.8" font-family="Helvetica,sans-Serif" font-size="14.00"> wnd</text>
</g>
<!-- Node6 -->
<g id="node6" class="node"><title>Node6</title>
<g id="a_node6"><a xlink:href="structMaterial.html" target="_top" xlink:title="Material">
<polygon fill="white" stroke="black" points="305,-175.5 305,-198.5 379,-198.5 379,-175.5 305,-175.5"/>
<text text-anchor="middle" x="342" y="-183.3" font-family="Helvetica,sans-Serif" font-size="14.00">Material</text>
</a>
</g>
</g>
<!-- Node6&#45;&gt;Node4 -->
<g id="edge5" class="edge"><title>Node6&#45;&gt;Node4</title>
<path fill="none" stroke="#9a32cd" stroke-dasharray="5,2" d="M389.596,-182.173C426.165,-178.385 477.773,-173.039 519.982,-168.667"/>
<polygon fill="#9a32cd" stroke="#9a32cd" points="388.816,-178.735 379.229,-183.247 389.537,-185.698 388.816,-178.735"/>
<text text-anchor="middle" x="467" y="-181.8" font-family="Helvetica,sans-Serif" font-size="14.00"> BLK_MAT</text>
</g>
<!-- Node7 -->
<g id="node7" class="node"><title>Node7</title>
<polygon fill="white" stroke="#bfbfbf" points="0.5,-149.5 0.5,-172.5 169.5,-172.5 169.5,-149.5 0.5,-149.5"/>
<text text-anchor="middle" x="85" y="-157.3" font-family="Helvetica,sans-Serif" font-size="14.00">std::array&lt; float, 4 &gt;</text>
</g>
<!-- Node7&#45;&gt;Node6 -->
<g id="edge6" class="edge"><title>Node7&#45;&gt;Node6</title>
<path fill="none" stroke="#9a32cd" stroke-dasharray="5,2" d="M179.886,-170.573C223.315,-175.001 272.347,-180 304.793,-183.308"/>
<polygon fill="#9a32cd" stroke="#9a32cd" points="180.153,-167.082 169.85,-169.549 179.443,-174.046 180.153,-167.082"/>
<text text-anchor="middle" x="220" y="-211.8" font-family="Helvetica,sans-Serif" font-size="14.00"> ambient</text>
<text text-anchor="middle" x="220" y="-196.8" font-family="Helvetica,sans-Serif" font-size="14.00">diffuse</text>
<text text-anchor="middle" x="220" y="-181.8" font-family="Helvetica,sans-Serif" font-size="14.00">specular</text>
</g>
<!-- Node7&#45;&gt;Node4 -->
<g id="edge9" class="edge"><title>Node7&#45;&gt;Node4</title>
<path fill="none" stroke="#9a32cd" stroke-dasharray="5,2" d="M179.859,-154.914C208.756,-153.305 240.678,-151.796 270,-151 333.976,-149.263 350.025,-149.224 414,-151 448.728,-151.964 487.181,-153.972 519.599,-155.937"/>
<polygon fill="#9a32cd" stroke="#9a32cd" points="179.559,-151.425 169.773,-155.486 179.955,-158.414 179.559,-151.425"/>
<text text-anchor="middle" x="342" y="-154.8" font-family="Helvetica,sans-Serif" font-size="14.00"> _l0_pos</text>
</g>
<!-- Node8 -->
<g id="node8" class="node"><title>Node8</title>
<g id="a_node8"><a xlink:href="classPaletteState.html" target="_top" xlink:title="PaletteState">
<polygon fill="white" stroke="black" points="290.5,-82.5 290.5,-105.5 393.5,-105.5 393.5,-82.5 290.5,-82.5"/>
<text text-anchor="middle" x="342" y="-90.3" font-family="Helvetica,sans-Serif" font-size="14.00">PaletteState</text>
</a>
</g>
</g>
<!-- Node8&#45;&gt;Node4 -->
<g id="edge7" class="edge"><title>Node8&#45;&gt;Node4</title>
<path fill="none" stroke="#9a32cd" stroke-dasharray="5,2" d="M404.076,-96.1309C434.107,-98.4718 470.52,-103.265 502,-113 529.538,-121.516 558.591,-138.137 576.508,-149.405"/>
<polygon fill="#9a32cd" stroke="#9a32cd" points="403.961,-92.6141 393.739,-95.4011 403.468,-99.5968 403.961,-92.6141"/>
<text text-anchor="middle" x="467" y="-116.8" font-family="Helvetica,sans-Serif" font-size="14.00"> palette</text>
</g>
<!-- Node9 -->
<g id="node9" class="node"><title>Node9</title>
<g id="a_node9"><a xlink:href="classCamera.html" target="_top" xlink:title="Camera">
<polygon fill="white" stroke="black" points="305,-40.5 305,-63.5 379,-63.5 379,-40.5 305,-40.5"/>
<text text-anchor="middle" x="342" y="-48.3" font-family="Helvetica,sans-Serif" font-size="14.00">Camera</text>
</a>
</g>
</g>
<!-- Node9&#45;&gt;Node4 -->
<g id="edge8" class="edge"><title>Node9&#45;&gt;Node4</title>
<path fill="none" stroke="#9a32cd" stroke-dasharray="5,2" d="M389.324,-53.9643C422.163,-56.8719 466.515,-63.943 502,-81 536.911,-97.781 568.922,-131.451 584.34,-149.288"/>
<polygon fill="#9a32cd" stroke="#9a32cd" points="389.336,-50.4545 379.092,-53.1592 388.787,-57.4329 389.336,-50.4545"/>
<text text-anchor="middle" x="467" y="-84.8" font-family="Helvetica,sans-Serif" font-size="14.00"> cam</text>
</g>
<!-- Node10 -->
<g id="node10" class="node"><title>Node10</title>
<g id="a_node10"><a xlink:href="classgl3_1_1GlDrawable.html" target="_top" xlink:title="gl3::GlDrawable">
<polygon fill="white" stroke="black" points="529.5,-29.5 529.5,-52.5 660.5,-52.5 660.5,-29.5 529.5,-29.5"/>
<text text-anchor="middle" x="595" y="-37.3" font-family="Helvetica,sans-Serif" font-size="14.00">gl3::GlDrawable</text>
</a>
</g>
</g>
<!-- Node10&#45;&gt;Node3 -->
<g id="edge10" class="edge"><title>Node10&#45;&gt;Node3</title>
<path fill="none" stroke="#9a32cd" stroke-dasharray="5,2" d="M670.632,-52.6025C724.516,-62.5169 791.006,-78.4362 810,-99 839.454,-130.889 797.907,-163.713 828,-195 833.77,-200.999 840.615,-205.743 848.044,-209.48"/>
<polygon fill="#9a32cd" stroke="#9a32cd" points="671.193,-49.1473 660.731,-50.8213 669.953,-56.0367 671.193,-49.1473"/>
<text text-anchor="middle" x="749" y="-162.8" font-family="Helvetica,sans-Serif" font-size="14.00"> coord_cross_buf</text>
<text text-anchor="middle" x="749" y="-147.8" font-family="Helvetica,sans-Serif" font-size="14.00">axes_buf</text>
<text text-anchor="middle" x="749" y="-132.8" font-family="Helvetica,sans-Serif" font-size="14.00">color_bar</text>
<text text-anchor="middle" x="749" y="-117.8" font-family="Helvetica,sans-Serif" font-size="14.00">ruler_buf</text>
<text text-anchor="middle" x="749" y="-102.8" font-family="Helvetica,sans-Serif" font-size="14.00">caption_buf</text>
</g>
<!-- Node10&#45;&gt;Node2 -->
<g id="edge14" class="edge"><title>Node10&#45;&gt;Node2</title>
<path fill="none" stroke="#9a32cd" stroke-dasharray="5,2" d="M670.762,-41C795.159,-41 1044.87,-41 1185.9,-41"/>
<polygon fill="#9a32cd" stroke="#9a32cd" points="670.573,-37.5001 660.573,-41 670.573,-44.5001 670.573,-37.5001"/>
<text text-anchor="middle" x="943" y="-179.8" font-family="Helvetica,sans-Serif" font-size="14.00"> cp_buf</text>
<text text-anchor="middle" x="943" y="-164.8" font-family="Helvetica,sans-Serif" font-size="14.00">bdr_buf</text>
<text text-anchor="middle" x="943" y="-149.8" font-family="Helvetica,sans-Serif" font-size="14.00">order_buf</text>
<text text-anchor="middle" x="943" y="-134.8" font-family="Helvetica,sans-Serif" font-size="14.00">v_nums_buf</text>
<text text-anchor="middle" x="943" y="-119.8" font-family="Helvetica,sans-Serif" font-size="14.00">lcurve_buf</text>
<text text-anchor="start" x="889.5" y="-104.8" font-family="Helvetica,sans-Serif" font-size="14.00">order_noarrow</text>
<text text-anchor="middle" x="943" y="-89.8" font-family="Helvetica,sans-Serif" font-size="14.00">_buf</text>
<text text-anchor="middle" x="943" y="-74.8" font-family="Helvetica,sans-Serif" font-size="14.00">disp_buf</text>
<text text-anchor="middle" x="943" y="-59.8" font-family="Helvetica,sans-Serif" font-size="14.00">line_buf</text>
<text text-anchor="middle" x="943" y="-44.8" font-family="Helvetica,sans-Serif" font-size="14.00">e_nums_buf</text>
</g>
<!-- Node10&#45;&gt;Node1 -->
<g id="edge15" class="edge"><title>Node10&#45;&gt;Node1</title>
<path fill="none" stroke="#9a32cd" stroke-dasharray="5,2" d="M670.768,-34.0586C765.113,-25.679 932.411,-12.0791 1076,-7 1116.86,-5.55457 1127.11,-6.71686 1168,-7 1257.32,-7.6185 1359.05,-9.09768 1431.71,-10.2877"/>
<polygon fill="#9a32cd" stroke="#9a32cd" points="670.399,-30.5775 660.75,-34.9532 671.022,-37.5498 670.399,-30.5775"/>
<text text-anchor="middle" x="1122" y="-25.8" font-family="Helvetica,sans-Serif" font-size="14.00"> displine_buf</text>
<text text-anchor="middle" x="1122" y="-10.8" font-family="Helvetica,sans-Serif" font-size="14.00">vector_buf</text>
</g>
<!-- Node11 -->
<g id="node11" class="node"><title>Node11</title>
<g id="a_node11"><a xlink:href="classPlane.html" target="_top" xlink:title="Plane">
<polygon fill="white" stroke="black" points="567,-277.5 567,-300.5 623,-300.5 623,-277.5 567,-277.5"/>
<text text-anchor="middle" x="595" y="-285.3" font-family="Helvetica,sans-Serif" font-size="14.00">Plane</text>
</a>
</g>
</g>
<!-- Node11&#45;&gt;Node3 -->
<g id="edge11" class="edge"><title>Node11&#45;&gt;Node3</title>
<path fill="none" stroke="#9a32cd" stroke-dasharray="5,2" d="M633.014,-287.807C676.012,-285.821 748.87,-280.598 810,-267 847.311,-258.7 888.675,-243.202 914.983,-232.503"/>
<polygon fill="#9a32cd" stroke="#9a32cd" points="632.852,-284.31 623.011,-288.235 633.151,-291.304 632.852,-284.31"/>
<text text-anchor="middle" x="749" y="-288.8" font-family="Helvetica,sans-Serif" font-size="14.00"> CuttingPlane</text>
</g>
<!-- Node12 -->
<g id="node12" class="node"><title>Node12</title>
<g id="a_node12"><a xlink:title="STL class. ">
<polygon fill="white" stroke="#bfbfbf" points="551,-222.5 551,-245.5 639,-245.5 639,-222.5 551,-222.5"/>
<text text-anchor="middle" x="595" y="-230.3" font-family="Helvetica,sans-Serif" font-size="14.00">std::string</text>
</a>
</g>
</g>
<!-- Node12&#45;&gt;Node3 -->
<g id="edge12" class="edge"><title>Node12&#45;&gt;Node3</title>
<path fill="none" stroke="#9a32cd" stroke-dasharray="5,2" d="M649.344,-225.887C661.986,-224.285 675.445,-222.84 688,-222 733.869,-218.93 784.502,-218.195 828.411,-218.402"/>
<polygon fill="#9a32cd" stroke="#9a32cd" points="648.869,-222.419 639.412,-227.197 649.784,-229.359 648.869,-222.419"/>
<text text-anchor="middle" x="749" y="-255.8" font-family="Helvetica,sans-Serif" font-size="14.00"> a_label_x</text>
<text text-anchor="middle" x="749" y="-240.8" font-family="Helvetica,sans-Serif" font-size="14.00">a_label_y</text>
<text text-anchor="middle" x="749" y="-225.8" font-family="Helvetica,sans-Serif" font-size="14.00">a_label_z</text>
</g>
<!-- Node13 -->
<g id="node13" class="node"><title>Node13</title>
<polygon fill="white" stroke="#bfbfbf" points="270,-260 270,-298 414,-298 414,-260 270,-260"/>
<text text-anchor="start" x="278" y="-282.8" font-family="Helvetica,sans-Serif" font-size="14.00">std::basic_string&lt;</text>
<text text-anchor="middle" x="342" y="-267.8" font-family="Helvetica,sans-Serif" font-size="14.00"> char &gt;</text>
</g>
<!-- Node13&#45;&gt;Node12 -->
<g id="edge13" class="edge"><title>Node13&#45;&gt;Node12</title>
<path fill="none" stroke="midnightblue" d="M424.236,-264.436C466.398,-256.877 516.204,-247.947 550.923,-241.723"/>
<polygon fill="midnightblue" stroke="midnightblue" points="423.481,-261.015 414.255,-266.225 424.716,-267.905 423.481,-261.015"/>
</g>
</g>
</svg>
