<?xml version="1.0" encoding="UTF-8" standalone="no"?>
<!DOCTYPE svg PUBLIC "-//W3C//DTD SVG 1.1//EN"
 "http://www.w3.org/Graphics/SVG/1.1/DTD/svg11.dtd">
<!-- Generated by graphviz version 2.26.3 (20100126.1600)
 -->
<!-- Title: G Pages: 1 -->
<svg width="188pt" height="164pt"
 viewBox="0.00 0.00 188.00 164.00" xmlns="http://www.w3.org/2000/svg" xmlns:xlink="http://www.w3.org/1999/xlink">
<g id="graph1" class="graph" transform="scale(1 1) rotate(0) translate(4 160)">
<title>G</title>
<polygon fill="white" stroke="white" points="-4,5 -4,-160 185,-160 185,5 -4,5"/>
<!-- Node1 -->
<g id="node1" class="node"><title>Node1</title>
<polygon fill="#bfbfbf" stroke="black" points="49.5,-0.5 49.5,-19.5 138.5,-19.5 138.5,-0.5 49.5,-0.5"/>
<text text-anchor="middle" x="94" y="-6.5" font-family="FreeSans" font-size="10.00">GLVisCommand</text>
</g>
<!-- Node2 -->
<g id="node2" class="node"><title>Node2</title>
<a xlink:href="classVisualizationSceneScalarData.html" target="_top" xlink:title="VisualizationSceneScalarData">
<polygon fill="white" stroke="black" points="19,-68.5 19,-87.5 169,-87.5 169,-68.5 19,-68.5"/>
<text text-anchor="middle" x="94" y="-74.5" font-family="FreeSans" font-size="10.00">VisualizationSceneScalarData</text>
</a>
</g>
<!-- Node2&#45;&gt;Node1 -->
<g id="edge2" class="edge"><title>Node2&#45;&gt;Node1</title>
<path fill="none" stroke="#9a32cd" stroke-dasharray="5,2" d="M94,-58.1951C94,-45.5514 94,-29.7157 94,-19.7247"/>
<polygon fill="#9a32cd" stroke="#9a32cd" points="90.5001,-58.2572 94,-68.2573 97.5001,-58.2573 90.5001,-58.2572"/>
<text text-anchor="middle" x="101" y="-40.5" font-family="FreeSans" font-size="10.00"> vs</text>
</g>
<!-- Node3 -->
<g id="node4" class="node"><title>Node3</title>
<a xlink:href="classVisualizationScene.html" target="_top" xlink:title="VisualizationScene">
<polygon fill="white" stroke="black" points="0,-136.5 0,-155.5 100,-155.5 100,-136.5 0,-136.5"/>
<text text-anchor="middle" x="50" y="-142.5" font-family="FreeSans" font-size="10.00">VisualizationScene</text>
</a>
</g>
<!-- Node3&#45;&gt;Node2 -->
<g id="edge4" class="edge"><title>Node3&#45;&gt;Node2</title>
<path fill="none" stroke="midnightblue" d="M61.8338,-127.711C70.1619,-114.841 80.9816,-98.1194 87.7076,-87.7247"/>
<polygon fill="midnightblue" stroke="midnightblue" points="58.7982,-125.96 56.3041,-136.257 64.6752,-129.763 58.7982,-125.96"/>
</g>
<!-- Node4 -->
<g id="node6" class="node"><title>Node4</title>
<a xlink:href="classPlane.html" target="_top" xlink:title="Plane">
<polygon fill="white" stroke="black" points="118,-136.5 118,-155.5 160,-155.5 160,-136.5 118,-136.5"/>
<text text-anchor="middle" x="139" y="-142.5" font-family="FreeSans" font-size="10.00">Plane</text>
</a>
</g>
<!-- Node4&#45;&gt;Node2 -->
<g id="edge6" class="edge"><title>Node4&#45;&gt;Node2</title>
<path fill="none" stroke="#9a32cd" stroke-dasharray="5,2" d="M126.897,-127.711C118.38,-114.841 107.314,-98.1194 100.435,-87.7247"/>
<polygon fill="#9a32cd" stroke="#9a32cd" points="124.115,-129.849 132.553,-136.257 129.953,-125.986 124.115,-129.849"/>
<text text-anchor="middle" x="149.5" y="-108.5" font-family="FreeSans" font-size="10.00"> CuttingPlane</text>
</g>
</g>
</svg>
