<?xml version="1.0" encoding="UTF-8" standalone="no"?>
<!DOCTYPE svg PUBLIC "-//W3C//DTD SVG 1.1//EN"
 "http://www.w3.org/Graphics/SVG/1.1/DTD/svg11.dtd">
<!-- Generated by graphviz version 2.44.1 (20200629.0846)
 -->
<!-- Title: VisualizationSceneVector3d Pages: 1 -->
<!--zoomable 609 -->
<svg id="main" version="1.1" xmlns="http://www.w3.org/2000/svg" xmlns:xlink="http://www.w3.org/1999/xlink" xml:space="preserve" onload="init(evt)">
<style type="text/css"><![CDATA[
.edge:hover path { stroke: red; }
.edge:hover polygon { stroke: red; fill: red; }
]]></style>
<script type="text/javascript"><![CDATA[
var edges = document.getElementsByTagName('g');
if (edges && edges.length) {
  for (var i=0;i<edges.length;i++) {
    if (edges[i].id.substr(0,4)=='edge') {
      edges[i].setAttribute('class','edge');
    }
  }
}
]]></script>
        <defs>
                <circle id="rim" cx="0" cy="0" r="7"/>
                <circle id="rim2" cx="0" cy="0" r="3.5"/>
                <g id="zoomPlus">
                        <use xlink:href="#rim" fill="#404040">
                                <set attributeName="fill" to="#808080" begin="zoomplus.mouseover" end="zoomplus.mouseout"/>
                        </use>
                        <path d="M-4,0h8M0,-4v8" fill="none" stroke="white" stroke-width="1.5" pointer-events="none"/>
                </g>
                <g id="zoomMin">
                        <use xlink:href="#rim" fill="#404040">
                                <set attributeName="fill" to="#808080" begin="zoomminus.mouseover" end="zoomminus.mouseout"/>
                        </use>
                        <path d="M-4,0h8" fill="none" stroke="white" stroke-width="1.5" pointer-events="none"/>
                </g>
                <g id="dirArrow">
                        <path fill="none" stroke="white" stroke-width="1.5" d="M0,-3.0v7 M-2.5,-0.5L0,-3.0L2.5,-0.5"/>
                </g>
               <g id="resetDef">
                       <use xlink:href="#rim2" fill="#404040">
                               <set attributeName="fill" to="#808080" begin="reset.mouseover" end="reset.mouseout"/>
                       </use>
               </g>
        </defs>

<script type="text/javascript">
var viewWidth = 790;
var viewHeight = 609;
var sectionId = 'dynsection-1';
</script>
<script xlink:href="svgpan.js"/>
<svg id="graph" class="graph">
<g id="viewport">
<title>VisualizationSceneVector3d</title>
<polygon fill="white" stroke="transparent" points="-4,4 -4,-605 786,-605 786,4 -4,4"/>
<!-- Node1 -->
<g id="node1" class="node">
<title>Node1</title>
<g id="a_node1"><a xlink:title=" ">
<polygon fill="#bfbfbf" stroke="black" points="0,-0.5 0,-23.5 185,-23.5 185,-0.5 0,-0.5"/>
<text text-anchor="middle" x="92.5" y="-8.3" font-family="Helvetica,sans-Serif" font-size="14.00">VisualizationSceneVector3d</text>
</a>
</g>
</g>
<!-- Node2 -->
<g id="node2" class="node">
<title>Node2</title>
<g id="a_node2"><a xlink:href="classVisualizationSceneSolution3d.html" target="_top" xlink:title=" ">
<polygon fill="white" stroke="black" points="83.5,-61.5 83.5,-84.5 277.5,-84.5 277.5,-61.5 83.5,-61.5"/>
<text text-anchor="middle" x="180.5" y="-69.3" font-family="Helvetica,sans-Serif" font-size="14.00">VisualizationSceneSolution3d</text>
</a>
</g>
</g>
<!-- Node2&#45;&gt;Node1 -->
<g id="edge1" class="edge">
<title>Node2&#45;&gt;Node1</title>
<path fill="none" stroke="midnightblue" d="M156.32,-55.79C141.05,-45.55 121.75,-32.61 108.39,-23.66"/>
<polygon fill="midnightblue" stroke="midnightblue" points="154.51,-58.79 164.77,-61.45 158.41,-52.98 154.51,-58.79"/>
</g>
<!-- Node3 -->
<g id="node3" class="node">
<title>Node3</title>
<g id="a_node3"><a xlink:href="classVisualizationSceneScalarData.html" target="_top" xlink:title=" ">
<polygon fill="white" stroke="black" points="280,-199.5 280,-222.5 477,-222.5 477,-199.5 280,-199.5"/>
<text text-anchor="middle" x="378.5" y="-207.3" font-family="Helvetica,sans-Serif" font-size="14.00">VisualizationSceneScalarData</text>
</a>
</g>
</g>
<!-- Node3&#45;&gt;Node2 -->
<g id="edge2" class="edge">
<title>Node3&#45;&gt;Node2</title>
<path fill="none" stroke="midnightblue" d="M354.62,-193.6C313.49,-165.35 230.38,-108.26 195.96,-84.62"/>
<polygon fill="midnightblue" stroke="midnightblue" points="352.74,-196.55 362.96,-199.33 356.7,-190.78 352.74,-196.55"/>
</g>
<!-- Node4 -->
<g id="node4" class="node">
<title>Node4</title>
<g id="a_node4"><a xlink:href="classVisualizationScene.html" target="_top" xlink:title=" ">
<polygon fill="white" stroke="black" points="491,-382.5 491,-405.5 622,-405.5 622,-382.5 491,-382.5"/>
<text text-anchor="middle" x="556.5" y="-390.3" font-family="Helvetica,sans-Serif" font-size="14.00">VisualizationScene</text>
</a>
</g>
</g>
<!-- Node4&#45;&gt;Node3 -->
<g id="edge3" class="edge">
<title>Node4&#45;&gt;Node3</title>
<path fill="none" stroke="midnightblue" d="M540.93,-374.43C522.9,-353.21 492.01,-317.69 463.5,-289 438.8,-264.14 407.89,-237.07 390.98,-222.58"/>
<polygon fill="midnightblue" stroke="midnightblue" points="538.48,-376.96 547.61,-382.34 543.83,-372.44 538.48,-376.96"/>
</g>
<!-- Node5 -->
<g id="node5" class="node">
<title>Node5</title>
<g id="a_node5"><a xlink:href="classSdlWindow.html" target="_top" xlink:title=" ">
<polygon fill="white" stroke="black" points="697,-465 697,-488 782,-488 782,-465 697,-465"/>
<text text-anchor="middle" x="739.5" y="-472.8" font-family="Helvetica,sans-Serif" font-size="14.00">SdlWindow</text>
</a>
</g>
</g>
<!-- Node5&#45;&gt;Node4 -->
<g id="edge4" class="edge">
<title>Node5&#45;&gt;Node4</title>
<path fill="none" stroke="#9a32cd" stroke-dasharray="5,2" d="M720.43,-458.32C707.04,-447.08 688.24,-432.89 669.5,-424 652.57,-415.97 633.12,-409.96 615.19,-405.56"/>
<polygon fill="#9a32cd" stroke="#9a32cd" points="718.16,-460.98 728.02,-464.86 722.73,-455.68 718.16,-460.98"/>
<text text-anchor="middle" x="708" y="-427.8" font-family="Helvetica,sans-Serif" font-size="14.00"> wnd</text>
</g>
<!-- Node6 -->
<g id="node6" class="node">
<title>Node6</title>
<g id="a_node6"><a xlink:href="structMaterial.html" target="_top" xlink:title=" ">
<polygon fill="white" stroke="black" points="531,-465 531,-488 596,-488 596,-465 531,-465"/>
<text text-anchor="middle" x="563.5" y="-472.8" font-family="Helvetica,sans-Serif" font-size="14.00">Material</text>
</a>
</g>
</g>
<!-- Node6&#45;&gt;Node4 -->
<g id="edge5" class="edge">
<title>Node6&#45;&gt;Node4</title>
<path fill="none" stroke="#9a32cd" stroke-dasharray="5,2" d="M559.52,-454.45C558.71,-449.41 557.97,-444.03 557.5,-439 556.44,-427.59 556.28,-414.44 556.33,-405.51"/>
<polygon fill="#9a32cd" stroke="#9a32cd" points="556.14,-455.44 561.31,-464.69 563.04,-454.24 556.14,-455.44"/>
<text text-anchor="middle" x="591" y="-427.8" font-family="Helvetica,sans-Serif" font-size="14.00"> BLK_MAT</text>
</g>
<!-- Node7 -->
<g id="node7" class="node">
<title>Node7</title>
<g id="a_node7"><a xlink:title=" ">
<polygon fill="white" stroke="#bfbfbf" points="408,-577.5 408,-600.5 545,-600.5 545,-577.5 408,-577.5"/>
<text text-anchor="middle" x="476.5" y="-585.3" font-family="Helvetica,sans-Serif" font-size="14.00">std::array&lt; float, 4 &gt;</text>
</a>
</g>
</g>
<!-- Node7&#45;&gt;Node4 -->
<g id="edge8" class="edge">
<title>Node7&#45;&gt;Node4</title>
<path fill="none" stroke="#9a32cd" stroke-dasharray="5,2" d="M469.61,-567.56C461.81,-540.61 452.36,-492.45 470.5,-457 483,-432.59 510.08,-415.59 530.54,-405.64"/>
<polygon fill="#9a32cd" stroke="#9a32cd" points="466.36,-568.89 472.67,-577.41 473.05,-566.82 466.36,-568.89"/>
<text text-anchor="middle" x="496.5" y="-472.8" font-family="Helvetica,sans-Serif" font-size="14.00"> _l0_pos</text>
</g>
<!-- Node7&#45;&gt;Node6 -->
<g id="edge6" class="edge">
<title>Node7&#45;&gt;Node6</title>
<path fill="none" stroke="#9a32cd" stroke-dasharray="5,2" d="M491.2,-569.32C509.54,-546.03 540.27,-507 555.06,-488.23"/>
<polygon fill="#9a32cd" stroke="#9a32cd" points="488.28,-567.38 484.84,-577.4 493.78,-571.71 488.28,-567.38"/>
<text text-anchor="middle" x="559" y="-547.8" font-family="Helvetica,sans-Serif" font-size="14.00"> ambient</text>
<text text-anchor="middle" x="559" y="-532.8" font-family="Helvetica,sans-Serif" font-size="14.00">diffuse</text>
<text text-anchor="middle" x="559" y="-517.8" font-family="Helvetica,sans-Serif" font-size="14.00">specular</text>
</g>
<!-- Node8 -->
<g id="node8" class="node">
<title>Node8</title>
<g id="a_node8"><a xlink:href="classCamera.html" target="_top" xlink:title=" ">
<polygon fill="white" stroke="black" points="614,-465 614,-488 679,-488 679,-465 614,-465"/>
<text text-anchor="middle" x="646.5" y="-472.8" font-family="Helvetica,sans-Serif" font-size="14.00">Camera</text>
</a>
</g>
</g>
<!-- Node8&#45;&gt;Node4 -->
<g id="edge7" class="edge">
<title>Node8&#45;&gt;Node4</title>
<path fill="none" stroke="#9a32cd" stroke-dasharray="5,2" d="M641.6,-454.76C638.25,-444.42 632.87,-432.37 624.5,-424 616.42,-415.93 605.74,-409.96 595.24,-405.61"/>
<polygon fill="#9a32cd" stroke="#9a32cd" points="638.32,-456.01 644.39,-464.69 645.06,-454.12 638.32,-456.01"/>
<text text-anchor="middle" x="650" y="-427.8" font-family="Helvetica,sans-Serif" font-size="14.00"> cam</text>
</g>
<!-- Node9 -->
<g id="node9" class="node">
<title>Node9</title>
<g id="a_node9"><a xlink:href="classgl3_1_1GlDrawable.html" target="_top" xlink:title=" ">
<polygon fill="white" stroke="black" points="90,-382.5 90,-405.5 203,-405.5 203,-382.5 90,-382.5"/>
<text text-anchor="middle" x="146.5" y="-390.3" font-family="Helvetica,sans-Serif" font-size="14.00">gl3::GlDrawable</text>
</a>
</g>
</g>
<!-- Node9&#45;&gt;Node1 -->
<g id="edge14" class="edge">
<title>Node9&#45;&gt;Node1</title>
<path fill="none" stroke="#9a32cd" stroke-dasharray="5,2" d="M139.21,-372.6C122.32,-323.74 81.4,-195.83 74.5,-85 73.84,-74.35 72.6,-71.5 74.5,-61 76.91,-47.69 82.81,-33.26 87.2,-23.74"/>
<polygon fill="#9a32cd" stroke="#9a32cd" points="136,-374.01 142.61,-382.29 142.6,-371.69 136,-374.01"/>
<text text-anchor="middle" x="117.5" y="-121.8" font-family="Helvetica,sans-Serif" font-size="14.00"> displine_buf</text>
<text text-anchor="middle" x="117.5" y="-106.8" font-family="Helvetica,sans-Serif" font-size="14.00">vector_buf</text>
</g>
<!-- Node9&#45;&gt;Node2 -->
<g id="edge13" class="edge">
<title>Node9&#45;&gt;Node2</title>
<path fill="none" stroke="#9a32cd" stroke-dasharray="5,2" d="M145.35,-372.15C143.46,-329.99 141.17,-231.77 155.5,-151 159.82,-126.64 170.02,-99.38 175.97,-84.72"/>
<polygon fill="#9a32cd" stroke="#9a32cd" points="141.86,-372.46 145.85,-382.27 148.86,-372.11 141.86,-372.46"/>
<text text-anchor="middle" x="213" y="-259.8" font-family="Helvetica,sans-Serif" font-size="14.00"> cplines_buf</text>
<text text-anchor="middle" x="213" y="-244.8" font-family="Helvetica,sans-Serif" font-size="14.00">order_buf</text>
<text text-anchor="middle" x="213" y="-229.8" font-family="Helvetica,sans-Serif" font-size="14.00">order_noarrow_buf</text>
<text text-anchor="middle" x="213" y="-214.8" font-family="Helvetica,sans-Serif" font-size="14.00">other_buf</text>
<text text-anchor="middle" x="213" y="-199.8" font-family="Helvetica,sans-Serif" font-size="14.00">lsurf_buf</text>
<text text-anchor="middle" x="213" y="-184.8" font-family="Helvetica,sans-Serif" font-size="14.00">disp_buf</text>
<text text-anchor="middle" x="213" y="-169.8" font-family="Helvetica,sans-Serif" font-size="14.00">cplane_buf</text>
<text text-anchor="middle" x="213" y="-154.8" font-family="Helvetica,sans-Serif" font-size="14.00">line_buf</text>
</g>
<!-- Node9&#45;&gt;Node3 -->
<g id="edge9" class="edge">
<title>Node9&#45;&gt;Node3</title>
<path fill="none" stroke="#9a32cd" stroke-dasharray="5,2" d="M154.31,-372.99C165.99,-343.19 186.81,-290.45 188.5,-289 215.19,-266.14 232.55,-283.23 265.5,-271 301.19,-257.75 339.93,-235.67 361.51,-222.61"/>
<polygon fill="#9a32cd" stroke="#9a32cd" points="150.99,-371.87 150.61,-382.46 157.51,-374.42 150.99,-371.87"/>
<text text-anchor="middle" x="240.5" y="-352.8" font-family="Helvetica,sans-Serif" font-size="14.00"> coord_cross_buf</text>
<text text-anchor="middle" x="240.5" y="-337.8" font-family="Helvetica,sans-Serif" font-size="14.00">axes_buf</text>
<text text-anchor="middle" x="240.5" y="-322.8" font-family="Helvetica,sans-Serif" font-size="14.00">color_bar</text>
<text text-anchor="middle" x="240.5" y="-307.8" font-family="Helvetica,sans-Serif" font-size="14.00">ruler_buf</text>
<text text-anchor="middle" x="240.5" y="-292.8" font-family="Helvetica,sans-Serif" font-size="14.00">caption_buf</text>
</g>
<!-- Node10 -->
<g id="node10" class="node">
<title>Node10</title>
<g id="a_node10"><a xlink:href="classPlane.html" target="_top" xlink:title=" ">
<polygon fill="white" stroke="black" points="281,-382.5 281,-405.5 332,-405.5 332,-382.5 281,-382.5"/>
<text text-anchor="middle" x="306.5" y="-390.3" font-family="Helvetica,sans-Serif" font-size="14.00">Plane</text>
</a>
</g>
</g>
<!-- Node10&#45;&gt;Node3 -->
<g id="edge10" class="edge">
<title>Node10&#45;&gt;Node3</title>
<path fill="none" stroke="#9a32cd" stroke-dasharray="5,2" d="M301.18,-372.46C296.64,-350.83 292.44,-316.22 303.5,-289 315.38,-259.78 344.26,-235.59 362.52,-222.51"/>
<polygon fill="#9a32cd" stroke="#9a32cd" points="297.83,-373.52 303.51,-382.47 304.65,-371.94 297.83,-373.52"/>
<text text-anchor="middle" x="344.5" y="-322.8" font-family="Helvetica,sans-Serif" font-size="14.00"> CuttingPlane</text>
</g>
<!-- Node11 -->
<g id="node11" class="node">
<title>Node11</title>
<g id="a_node11"><a xlink:title="STL class.">
<polygon fill="white" stroke="#bfbfbf" points="362,-382.5 362,-405.5 437,-405.5 437,-382.5 362,-382.5"/>
<text text-anchor="middle" x="399.5" y="-390.3" font-family="Helvetica,sans-Serif" font-size="14.00">std::string</text>
</a>
</g>
</g>
<!-- Node11&#45;&gt;Node3 -->
<g id="edge11" class="edge">
<title>Node11&#45;&gt;Node3</title>
<path fill="none" stroke="#9a32cd" stroke-dasharray="5,2" d="M397.8,-372.33C396,-351.32 392.95,-317.85 389.5,-289 386.68,-265.4 382.54,-237.86 380.23,-222.95"/>
<polygon fill="#9a32cd" stroke="#9a32cd" points="394.31,-372.68 398.64,-382.35 401.29,-372.09 394.31,-372.68"/>
<text text-anchor="middle" x="428.5" y="-337.8" font-family="Helvetica,sans-Serif" font-size="14.00"> a_label_x</text>
<text text-anchor="middle" x="428.5" y="-322.8" font-family="Helvetica,sans-Serif" font-size="14.00">a_label_y</text>
<text text-anchor="middle" x="428.5" y="-307.8" font-family="Helvetica,sans-Serif" font-size="14.00">a_label_z</text>
</g>
<!-- Node12 -->
<g id="node12" class="node">
<title>Node12</title>
<g id="a_node12"><a xlink:title=" ">
<polygon fill="white" stroke="#bfbfbf" points="302.5,-457.5 302.5,-495.5 424.5,-495.5 424.5,-457.5 302.5,-457.5"/>
<text text-anchor="start" x="310.5" y="-480.3" font-family="Helvetica,sans-Serif" font-size="14.00">std::basic_string&lt;</text>
<text text-anchor="middle" x="363.5" y="-465.3" font-family="Helvetica,sans-Serif" font-size="14.00"> char &gt;</text>
</a>
</g>
</g>
<!-- Node12&#45;&gt;Node11 -->
<g id="edge12" class="edge">
<title>Node12&#45;&gt;Node11</title>
<path fill="none" stroke="midnightblue" d="M375.76,-448.08C382.3,-433.46 389.97,-416.31 394.78,-405.55"/>
<polygon fill="midnightblue" stroke="midnightblue" points="372.56,-446.68 371.67,-457.23 378.95,-449.53 372.56,-446.68"/>
</g>
</g>
</svg>
        <g id="navigator" transform="translate(0 0)" fill="#404254">
                <rect fill="#f2f5e9" fill-opacity="0.5" stroke="#606060" stroke-width=".5" x="0" y="0" width="60" height="60"/>
                <use id="zoomplus" xlink:href="#zoomPlus" x="17" y="9" onmousedown="handleZoom(evt,'in')"/>
                <use id="zoomminus" xlink:href="#zoomMin" x="42" y="9" onmousedown="handleZoom(evt,'out')"/>
                <use id="reset" xlink:href="#resetDef" x="30" y="36" onmousedown="handleReset()"/>
                <g id="arrowUp" xlink:href="#dirArrow" transform="translate(30 24)" onmousedown="handlePan(0,-1)">
                  <use xlink:href="#rim" fill="#404040">
                        <set attributeName="fill" to="#808080" begin="arrowUp.mouseover" end="arrowUp.mouseout"/>
                  </use>
                  <path fill="none" stroke="white" stroke-width="1.5" d="M0,-3.0v7 M-2.5,-0.5L0,-3.0L2.5,-0.5"/>
                </g>
                <g id="arrowRight" xlink:href="#dirArrow" transform="rotate(90) translate(36 -43)" onmousedown="handlePan(1,0)">
                  <use xlink:href="#rim" fill="#404040">
                        <set attributeName="fill" to="#808080" begin="arrowRight.mouseover" end="arrowRight.mouseout"/>
                  </use>
                  <path fill="none" stroke="white" stroke-width="1.5" d="M0,-3.0v7 M-2.5,-0.5L0,-3.0L2.5,-0.5"/>
                </g>
                <g id="arrowDown" xlink:href="#dirArrow" transform="rotate(180) translate(-30 -48)" onmousedown="handlePan(0,1)">
                  <use xlink:href="#rim" fill="#404040">
                        <set attributeName="fill" to="#808080" begin="arrowDown.mouseover" end="arrowDown.mouseout"/>
                  </use>
                  <path fill="none" stroke="white" stroke-width="1.5" d="M0,-3.0v7 M-2.5,-0.5L0,-3.0L2.5,-0.5"/>
                </g>
                <g id="arrowLeft" xlink:href="#dirArrow" transform="rotate(270) translate(-36 17)" onmousedown="handlePan(-1,0)">
                  <use xlink:href="#rim" fill="#404040">
                        <set attributeName="fill" to="#808080" begin="arrowLeft.mouseover" end="arrowLeft.mouseout"/>
                  </use>
                  <path fill="none" stroke="white" stroke-width="1.5" d="M0,-3.0v7 M-2.5,-0.5L0,-3.0L2.5,-0.5"/>
                </g>
        </g>
        <svg viewBox="0 0 15 15" width="100%" height="30px" preserveAspectRatio="xMaxYMin meet">
         <g id="arrow_out" transform="scale(0.3 0.3)">
          <a xlink:href="classVisualizationSceneVector3d__coll__graph_org.svg" target="_base">
           <rect id="button" ry="5" rx="5" y="6" x="6" height="38" width="38"
                fill="#f2f5e9" fill-opacity="0.5" stroke="#606060" stroke-width="1.0"/>
           <path id="arrow"
             d="M 11.500037,31.436501 C 11.940474,20.09759 22.043105,11.32322 32.158766,21.979434 L 37.068811,17.246167 C 37.068811,17.246167 37.088388,32 37.088388,32 L 22.160133,31.978069 C 22.160133,31.978069 26.997745,27.140456 26.997745,27.140456 C 18.528582,18.264221 13.291696,25.230495 11.500037,31.436501 z"
             style="fill:#404040;"/>
          </a>
         </g>
        </svg>
</svg>
