<?xml version="1.0" encoding="UTF-8" standalone="no"?>
<!DOCTYPE svg PUBLIC "-//W3C//DTD SVG 1.1//EN"
 "http://www.w3.org/Graphics/SVG/1.1/DTD/svg11.dtd">
<!-- Generated by graphviz version 2.26.3 (20100126.1600)
 -->
<!-- Title: G Pages: 1 -->
<svg width="188pt" height="96pt"
 viewBox="0.00 0.00 188.00 96.00" xmlns="http://www.w3.org/2000/svg" xmlns:xlink="http://www.w3.org/1999/xlink">
<g id="graph1" class="graph" transform="scale(1 1) rotate(0) translate(4 92)">
<title>G</title>
<polygon fill="white" stroke="white" points="-4,5 -4,-92 185,-92 185,5 -4,5"/>
<!-- Node1 -->
<g id="node1" class="node"><title>Node1</title>
<polygon fill="#bfbfbf" stroke="black" points="19,-0.5 19,-19.5 169,-19.5 169,-0.5 19,-0.5"/>
<text text-anchor="middle" x="94" y="-6.5" font-family="FreeSans" font-size="10.00">VisualizationSceneScalarData</text>
</g>
<!-- Node2 -->
<g id="node2" class="node"><title>Node2</title>
<a xlink:href="classVisualizationScene.html" target="_top" xlink:title="VisualizationScene">
<polygon fill="white" stroke="black" points="0,-68.5 0,-87.5 100,-87.5 100,-68.5 0,-68.5"/>
<text text-anchor="middle" x="50" y="-74.5" font-family="FreeSans" font-size="10.00">VisualizationScene</text>
</a>
</g>
<!-- Node2&#45;&gt;Node1 -->
<g id="edge2" class="edge"><title>Node2&#45;&gt;Node1</title>
<path fill="none" stroke="midnightblue" d="M61.8338,-59.7114C70.1619,-46.8406 80.9816,-30.1194 87.7076,-19.7247"/>
<polygon fill="midnightblue" stroke="midnightblue" points="58.7982,-57.9601 56.3041,-68.2573 64.6752,-61.7629 58.7982,-57.9601"/>
</g>
<!-- Node3 -->
<g id="node4" class="node"><title>Node3</title>
<a xlink:href="classPlane.html" target="_top" xlink:title="Plane">
<polygon fill="white" stroke="black" points="118,-68.5 118,-87.5 160,-87.5 160,-68.5 118,-68.5"/>
<text text-anchor="middle" x="139" y="-74.5" font-family="FreeSans" font-size="10.00">Plane</text>
</a>
</g>
<!-- Node3&#45;&gt;Node1 -->
<g id="edge4" class="edge"><title>Node3&#45;&gt;Node1</title>
<path fill="none" stroke="#9a32cd" stroke-dasharray="5,2" d="M126.897,-59.7114C118.38,-46.8406 107.314,-30.1194 100.435,-19.7247"/>
<polygon fill="#9a32cd" stroke="#9a32cd" points="124.115,-61.8495 132.553,-68.2573 129.953,-57.9864 124.115,-61.8495"/>
<text text-anchor="middle" x="149.5" y="-40.5" font-family="FreeSans" font-size="10.00"> CuttingPlane</text>
</g>
</g>
</svg>
