<?xml version="1.0" encoding="UTF-8" standalone="no"?>
<!DOCTYPE svg PUBLIC "-//W3C//DTD SVG 1.1//EN"
 "http://www.w3.org/Graphics/SVG/1.1/DTD/svg11.dtd">
<!-- Generated by graphviz version 2.30.1 (20200304.1809)
 -->
<!-- Title: gl3::IndexedVertexBuffer&lt; T &gt; Pages: 1 -->
<svg width="244pt" height="152pt"
 viewBox="0.00 0.00 244.00 152.00" xmlns="http://www.w3.org/2000/svg" xmlns:xlink="http://www.w3.org/1999/xlink">
<g id="graph0" class="graph" transform="scale(1 1) rotate(0) translate(4 148)">
<title>gl3::IndexedVertexBuffer&lt; T &gt;</title>
<polygon fill="white" stroke="white" points="-4,5 -4,-148 241,-148 241,5 -4,5"/>
<!-- Node1 -->
<g id="node1" class="node"><title>Node1</title>
<polygon fill="#bfbfbf" stroke="black" points="0,-0.5 0,-23.5 236,-23.5 236,-0.5 0,-0.5"/>
<text text-anchor="middle" x="118" y="-8.3" font-family="Helvetica,sans-Serif" font-size="14.00">gl3::IndexedVertexBuffer&lt; T &gt;</text>
</g>
<!-- Node2 -->
<g id="node2" class="node"><title>Node2</title>
<g id="a_node2"><a xlink:href="classgl3_1_1IIndexedBuffer.html" target="_top" xlink:title="gl3::IIndexedBuffer">
<polygon fill="white" stroke="black" points="42,-60.5 42,-83.5 194,-83.5 194,-60.5 42,-60.5"/>
<text text-anchor="middle" x="118" y="-68.3" font-family="Helvetica,sans-Serif" font-size="14.00">gl3::IIndexedBuffer</text>
</a>
</g>
</g>
<!-- Node2&#45;&gt;Node1 -->
<g id="edge1" class="edge"><title>Node2&#45;&gt;Node1</title>
<path fill="none" stroke="midnightblue" d="M118,-50.1906C118,-41.1684 118,-30.9941 118,-23.5707"/>
<polygon fill="midnightblue" stroke="midnightblue" points="114.5,-50.3619 118,-60.3619 121.5,-50.3619 114.5,-50.3619"/>
</g>
<!-- Node3 -->
<g id="node3" class="node"><title>Node3</title>
<g id="a_node3"><a xlink:href="classgl3_1_1IVertexBuffer.html" target="_top" xlink:title="gl3::IVertexBuffer">
<polygon fill="white" stroke="black" points="47,-120.5 47,-143.5 189,-143.5 189,-120.5 47,-120.5"/>
<text text-anchor="middle" x="118" y="-128.3" font-family="Helvetica,sans-Serif" font-size="14.00">gl3::IVertexBuffer</text>
</a>
</g>
</g>
<!-- Node3&#45;&gt;Node2 -->
<g id="edge2" class="edge"><title>Node3&#45;&gt;Node2</title>
<path fill="none" stroke="midnightblue" d="M118,-110.191C118,-101.168 118,-90.9941 118,-83.5707"/>
<polygon fill="midnightblue" stroke="midnightblue" points="114.5,-110.362 118,-120.362 121.5,-110.362 114.5,-110.362"/>
</g>
</g>
</svg>
