<?xml version="1.0" encoding="UTF-8" standalone="no"?>
<!DOCTYPE svg PUBLIC "-//W3C//DTD SVG 1.1//EN"
 "http://www.w3.org/Graphics/SVG/1.1/DTD/svg11.dtd">
<!-- Generated by graphviz version 2.26.3 (20100126.1600)
 -->
<!-- Title: VisualizationSceneScalarData Pages: 1 -->
<svg width="259pt" height="190pt"
 viewBox="0.00 0.00 259.00 190.00" xmlns="http://www.w3.org/2000/svg" xmlns:xlink="http://www.w3.org/1999/xlink">
<g id="graph1" class="graph" transform="scale(1 1) rotate(0) translate(4 186)">
<title>VisualizationSceneScalarData</title>
<polygon fill="white" stroke="white" points="-4,5 -4,-186 256,-186 256,5 -4,5"/>
<!-- Node1 -->
<g id="node1" class="node"><title>Node1</title>
<polygon fill="#bfbfbf" stroke="black" points="48.5,-1 48.5,-25 251.5,-25 251.5,-1 48.5,-1"/>
<text text-anchor="middle" x="150" y="-8.4" font-family="Helvetica,sans-Serif" font-size="14.00">VisualizationSceneScalarData</text>
</g>
<!-- Node2 -->
<g id="node2" class="node"><title>Node2</title>
<a xlink:href="classVisualizationScene.html" target="_top" xlink:title="VisualizationScene">
<polygon fill="white" stroke="black" points="0,-79 0,-103 134,-103 134,-79 0,-79"/>
<text text-anchor="middle" x="67" y="-86.4" font-family="Helvetica,sans-Serif" font-size="14.00">VisualizationScene</text>
</a>
</g>
<!-- Node2&#45;&gt;Node1 -->
<g id="edge2" class="edge"><title>Node2&#45;&gt;Node1</title>
<path fill="none" stroke="midnightblue" d="M87.5327,-71.7042C103.053,-57.1193 123.879,-37.5478 137.122,-25.1019"/>
<polygon fill="midnightblue" stroke="midnightblue" points="84.8591,-69.4138 79.9688,-78.8125 89.6528,-74.5148 84.8591,-69.4138"/>
</g>
<!-- Node3 -->
<g id="node4" class="node"><title>Node3</title>
<a xlink:href="classCamera.html" target="_top" xlink:title="Camera">
<polygon fill="white" stroke="black" points="34,-157 34,-181 100,-181 100,-157 34,-157"/>
<text text-anchor="middle" x="67" y="-164.4" font-family="Helvetica,sans-Serif" font-size="14.00">Camera</text>
</a>
</g>
<!-- Node3&#45;&gt;Node2 -->
<g id="edge4" class="edge"><title>Node3&#45;&gt;Node2</title>
<path fill="none" stroke="#9a32cd" stroke-dasharray="5,2" d="M67,-146.417C67,-132.285 67,-114.634 67,-103.102"/>
<polygon fill="#9a32cd" stroke="#9a32cd" points="63.5001,-146.812 67,-156.812 70.5001,-146.813 63.5001,-146.812"/>
<text text-anchor="middle" x="83" y="-125.4" font-family="Helvetica,sans-Serif" font-size="14.00"> cam</text>
</g>
<!-- Node4 -->
<g id="node6" class="node"><title>Node4</title>
<a xlink:href="classPlane.html" target="_top" xlink:title="Plane">
<polygon fill="white" stroke="black" points="152,-79 152,-103 204,-103 204,-79 152,-79"/>
<text text-anchor="middle" x="178" y="-86.4" font-family="Helvetica,sans-Serif" font-size="14.00">Plane</text>
</a>
</g>
<!-- Node4&#45;&gt;Node1 -->
<g id="edge6" class="edge"><title>Node4&#45;&gt;Node1</title>
<path fill="none" stroke="#9a32cd" stroke-dasharray="5,2" d="M170.193,-69.2524C165.072,-54.9862 158.566,-36.8627 154.344,-25.1019"/>
<polygon fill="#9a32cd" stroke="#9a32cd" points="166.952,-70.5831 173.625,-78.8125 173.54,-68.218 166.952,-70.5831"/>
<text text-anchor="middle" x="208.5" y="-47.4" font-family="Helvetica,sans-Serif" font-size="14.00"> CuttingPlane</text>
</g>
</g>
</svg>
