<?xml version="1.0" encoding="UTF-8" standalone="no"?>
<!DOCTYPE svg PUBLIC "-//W3C//DTD SVG 1.1//EN"
 "http://www.w3.org/Graphics/SVG/1.1/DTD/svg11.dtd">
<!-- Generated by graphviz version 2.30.1 (20200304.1809)
 -->
<!-- Title: gl3::GLDevice Pages: 1 -->
<svg width="365pt" height="124pt"
 viewBox="0.00 0.00 365.00 124.00" xmlns="http://www.w3.org/2000/svg" xmlns:xlink="http://www.w3.org/1999/xlink">
<g id="graph0" class="graph" transform="scale(1 1) rotate(0) translate(4 120)">
<title>gl3::GLDevice</title>
<polygon fill="white" stroke="white" points="-4,5 -4,-120 362,-120 362,5 -4,5"/>
<!-- Node1 -->
<g id="node1" class="node"><title>Node1</title>
<polygon fill="#bfbfbf" stroke="black" points="121,-0.5 121,-23.5 237,-23.5 237,-0.5 121,-0.5"/>
<text text-anchor="middle" x="179" y="-8.3" font-family="Helvetica,sans-Serif" font-size="14.00">gl3::GLDevice</text>
</g>
<!-- Node2 -->
<g id="node2" class="node"><title>Node2</title>
<g id="a_node2"><a xlink:href="classgl3_1_1resource_1_1Handle.html" target="_top" xlink:title="gl3::resource::Handle\l\&lt; texCleanup \&gt;">
<polygon fill="white" stroke="black" points="0,-77 0,-115 170,-115 170,-77 0,-77"/>
<text text-anchor="start" x="8" y="-99.8" font-family="Helvetica,sans-Serif" font-size="14.00">gl3::resource::Handle</text>
<text text-anchor="middle" x="85" y="-84.8" font-family="Helvetica,sans-Serif" font-size="14.00">&lt; texCleanup &gt;</text>
</a>
</g>
</g>
<!-- Node2&#45;&gt;Node1 -->
<g id="edge1" class="edge"><title>Node2&#45;&gt;Node1</title>
<path fill="none" stroke="#9a32cd" stroke-dasharray="5,2" d="M86.1349,-66.7872C87.7694,-57.9733 90.9625,-48.7905 97,-42 104.324,-33.7621 114.139,-27.8643 124.429,-23.6418"/>
<polygon fill="#9a32cd" stroke="#9a32cd" points="82.6514,-66.4359 84.8552,-76.799 89.5949,-67.3235 82.6514,-66.4359"/>
<text text-anchor="middle" x="174" y="-46.3" font-family="Helvetica,sans-Serif" font-size="14.00"> passthrough_texture</text>
</g>
<!-- Node3 -->
<g id="node3" class="node"><title>Node3</title>
<polygon fill="white" stroke="#bfbfbf" points="188.5,-84.5 188.5,-107.5 357.5,-107.5 357.5,-84.5 188.5,-84.5"/>
<text text-anchor="middle" x="273" y="-92.3" font-family="Helvetica,sans-Serif" font-size="14.00">std::array&lt; float, 4 &gt;</text>
</g>
<!-- Node3&#45;&gt;Node1 -->
<g id="edge2" class="edge"><title>Node3&#45;&gt;Node1</title>
<path fill="none" stroke="#9a32cd" stroke-dasharray="5,2" d="M268.528,-74.3192C265.261,-63.498 259.817,-50.7242 251,-42 242.762,-33.8485 231.933,-27.9011 221.185,-23.5967"/>
<polygon fill="#9a32cd" stroke="#9a32cd" points="265.211,-75.4691 271.113,-84.2672 271.985,-73.7083 265.211,-75.4691"/>
<text text-anchor="middle" x="305" y="-46.3" font-family="Helvetica,sans-Serif" font-size="14.00"> static_color</text>
</g>
</g>
</svg>
