<?xml version="1.0" encoding="UTF-8" standalone="no"?>
<!DOCTYPE svg PUBLIC "-//W3C//DTD SVG 1.1//EN"
 "http://www.w3.org/Graphics/SVG/1.1/DTD/svg11.dtd">
<!-- Generated by graphviz version 2.30.1 (20140821.0912)
 -->
<!-- Title: VisualizationSceneScalarData Pages: 1 -->
<svg width="399pt" height="212pt"
 viewBox="0.00 0.00 399.00 212.00" xmlns="http://www.w3.org/2000/svg" xmlns:xlink="http://www.w3.org/1999/xlink">
<g id="graph0" class="graph" transform="scale(1 1) rotate(0) translate(4 208)">
<title>VisualizationSceneScalarData</title>
<polygon fill="white" stroke="white" points="-4,5 -4,-208 396,-208 396,5 -4,5"/>
<!-- Node1 -->
<g id="node1" class="node"><title>Node1</title>
<polygon fill="#bfbfbf" stroke="black" points="92.5,-120.5 92.5,-143.5 289.5,-143.5 289.5,-120.5 92.5,-120.5"/>
<text text-anchor="middle" x="191" y="-128.3" font-family="Helvetica,sans-Serif" font-size="14.00">VisualizationSceneScalarData</text>
</g>
<!-- Node3 -->
<g id="node3" class="node"><title>Node3</title>
<g id="a_node3"><a xlink:href="classVisualizationSceneSolution.html" target="_top" xlink:title="VisualizationSceneSolution">
<polygon fill="white" stroke="black" points="-0.5,-60.5 -0.5,-83.5 178.5,-83.5 178.5,-60.5 -0.5,-60.5"/>
<text text-anchor="middle" x="89" y="-68.3" font-family="Helvetica,sans-Serif" font-size="14.00">VisualizationSceneSolution</text>
</a>
</g>
</g>
<!-- Node1&#45;&gt;Node3 -->
<g id="edge2" class="edge"><title>Node1&#45;&gt;Node3</title>
<path fill="none" stroke="midnightblue" d="M163.529,-115.379C145.805,-105.301 123.227,-92.4624 107.59,-83.5707"/>
<polygon fill="midnightblue" stroke="midnightblue" points="161.869,-118.461 172.292,-120.362 165.329,-112.376 161.869,-118.461"/>
</g>
<!-- Node5 -->
<g id="node5" class="node"><title>Node5</title>
<g id="a_node5"><a xlink:href="classVisualizationSceneSolution3d.html" target="_top" xlink:title="VisualizationSceneSolution3d">
<polygon fill="white" stroke="black" points="197,-60.5 197,-83.5 391,-83.5 391,-60.5 197,-60.5"/>
<text text-anchor="middle" x="294" y="-68.3" font-family="Helvetica,sans-Serif" font-size="14.00">VisualizationSceneSolution3d</text>
</a>
</g>
</g>
<!-- Node1&#45;&gt;Node5 -->
<g id="edge4" class="edge"><title>Node1&#45;&gt;Node5</title>
<path fill="none" stroke="midnightblue" d="M218.741,-115.379C236.638,-105.301 259.437,-92.4624 275.228,-83.5707"/>
<polygon fill="midnightblue" stroke="midnightblue" points="216.888,-112.405 209.892,-120.362 220.323,-118.505 216.888,-112.405"/>
</g>
<!-- Node2 -->
<g id="node2" class="node"><title>Node2</title>
<g id="a_node2"><a xlink:href="classVisualizationScene.html" target="_top" xlink:title="VisualizationScene">
<polygon fill="white" stroke="black" points="125.5,-180.5 125.5,-203.5 256.5,-203.5 256.5,-180.5 125.5,-180.5"/>
<text text-anchor="middle" x="191" y="-188.3" font-family="Helvetica,sans-Serif" font-size="14.00">VisualizationScene</text>
</a>
</g>
</g>
<!-- Node2&#45;&gt;Node1 -->
<g id="edge1" class="edge"><title>Node2&#45;&gt;Node1</title>
<path fill="none" stroke="midnightblue" d="M191,-170.191C191,-161.168 191,-150.994 191,-143.571"/>
<polygon fill="midnightblue" stroke="midnightblue" points="187.5,-170.362 191,-180.362 194.5,-170.362 187.5,-170.362"/>
</g>
<!-- Node4 -->
<g id="node4" class="node"><title>Node4</title>
<g id="a_node4"><a xlink:href="classVisualizationSceneVector.html" target="_top" xlink:title="VisualizationSceneVector">
<polygon fill="white" stroke="black" points="4,-0.5 4,-23.5 174,-23.5 174,-0.5 4,-0.5"/>
<text text-anchor="middle" x="89" y="-8.3" font-family="Helvetica,sans-Serif" font-size="14.00">VisualizationSceneVector</text>
</a>
</g>
</g>
<!-- Node3&#45;&gt;Node4 -->
<g id="edge3" class="edge"><title>Node3&#45;&gt;Node4</title>
<path fill="none" stroke="midnightblue" d="M89,-50.1906C89,-41.1684 89,-30.9941 89,-23.5707"/>
<polygon fill="midnightblue" stroke="midnightblue" points="85.5001,-50.3619 89,-60.3619 92.5001,-50.3619 85.5001,-50.3619"/>
</g>
<!-- Node6 -->
<g id="node6" class="node"><title>Node6</title>
<g id="a_node6"><a xlink:href="classVisualizationSceneVector3d.html" target="_top" xlink:title="VisualizationSceneVector3d">
<polygon fill="white" stroke="black" points="201.5,-0.5 201.5,-23.5 386.5,-23.5 386.5,-0.5 201.5,-0.5"/>
<text text-anchor="middle" x="294" y="-8.3" font-family="Helvetica,sans-Serif" font-size="14.00">VisualizationSceneVector3d</text>
</a>
</g>
</g>
<!-- Node5&#45;&gt;Node6 -->
<g id="edge5" class="edge"><title>Node5&#45;&gt;Node6</title>
<path fill="none" stroke="midnightblue" d="M294,-50.1906C294,-41.1684 294,-30.9941 294,-23.5707"/>
<polygon fill="midnightblue" stroke="midnightblue" points="290.5,-50.3619 294,-60.3619 297.5,-50.3619 290.5,-50.3619"/>
</g>
</g>
</svg>
