<?xml version="1.0" encoding="UTF-8" standalone="no"?>
<!DOCTYPE svg PUBLIC "-//W3C//DTD SVG 1.1//EN"
 "http://www.w3.org/Graphics/SVG/1.1/DTD/svg11.dtd">
<!-- Generated by graphviz version 2.26.3 (20100126.1600)
 -->
<!-- Title: VisualizationSceneScalarData Pages: 1 -->
<svg width="410pt" height="220pt"
 viewBox="0.00 0.00 410.00 220.00" xmlns="http://www.w3.org/2000/svg" xmlns:xlink="http://www.w3.org/1999/xlink">
<g id="graph1" class="graph" transform="scale(1 1) rotate(0) translate(4 216)">
<title>VisualizationSceneScalarData</title>
<polygon fill="white" stroke="white" points="-4,5 -4,-216 407,-216 407,5 -4,5"/>
<!-- Node1 -->
<g id="node1" class="node"><title>Node1</title>
<polygon fill="#bfbfbf" stroke="black" points="95.5,-125 95.5,-149 298.5,-149 298.5,-125 95.5,-125"/>
<text text-anchor="middle" x="197" y="-132.4" font-family="Helvetica,sans-Serif" font-size="14.00">VisualizationSceneScalarData</text>
</g>
<!-- Node3 -->
<g id="node5" class="node"><title>Node3</title>
<a xlink:href="classVisualizationSceneSolution.html" target="_top" xlink:title="VisualizationSceneSolution">
<polygon fill="white" stroke="black" points="0,-63 0,-87 184,-87 184,-63 0,-63"/>
<text text-anchor="middle" x="92" y="-70.4" font-family="Helvetica,sans-Serif" font-size="14.00">VisualizationSceneSolution</text>
</a>
</g>
<!-- Node1&#45;&gt;Node3 -->
<g id="edge4" class="edge"><title>Node1&#45;&gt;Node3</title>
<path fill="none" stroke="midnightblue" d="M167.756,-119.732C150.155,-109.339 128.184,-96.3658 112.443,-87.0709"/>
<polygon fill="midnightblue" stroke="midnightblue" points="166.115,-122.828 176.506,-124.899 169.674,-116.8 166.115,-122.828"/>
</g>
<!-- Node5 -->
<g id="node9" class="node"><title>Node5</title>
<a xlink:href="classVisualizationSceneSolution3d.html" target="_top" xlink:title="VisualizationSceneSolution3d">
<polygon fill="white" stroke="black" points="202,-63 202,-87 402,-87 402,-63 202,-63"/>
<text text-anchor="middle" x="302" y="-70.4" font-family="Helvetica,sans-Serif" font-size="14.00">VisualizationSceneSolution3d</text>
</a>
</g>
<!-- Node1&#45;&gt;Node5 -->
<g id="edge8" class="edge"><title>Node1&#45;&gt;Node5</title>
<path fill="none" stroke="midnightblue" d="M226.244,-119.732C243.845,-109.339 265.816,-96.3658 281.557,-87.0709"/>
<polygon fill="midnightblue" stroke="midnightblue" points="224.326,-116.8 217.494,-124.899 227.885,-122.828 224.326,-116.8"/>
</g>
<!-- Node2 -->
<g id="node2" class="node"><title>Node2</title>
<a xlink:href="classVisualizationScene.html" target="_top" xlink:title="VisualizationScene">
<polygon fill="white" stroke="black" points="130,-187 130,-211 264,-211 264,-187 130,-187"/>
<text text-anchor="middle" x="197" y="-194.4" font-family="Helvetica,sans-Serif" font-size="14.00">VisualizationScene</text>
</a>
</g>
<!-- Node2&#45;&gt;Node1 -->
<g id="edge2" class="edge"><title>Node2&#45;&gt;Node1</title>
<path fill="none" stroke="midnightblue" d="M197,-176.63C197,-167.386 197,-157.031 197,-149.224"/>
<polygon fill="midnightblue" stroke="midnightblue" points="193.5,-176.751 197,-186.751 200.5,-176.751 193.5,-176.751"/>
</g>
<!-- Node4 -->
<g id="node7" class="node"><title>Node4</title>
<a xlink:href="classVisualizationSceneVector.html" target="_top" xlink:title="VisualizationSceneVector">
<polygon fill="white" stroke="black" points="5.5,-1 5.5,-25 178.5,-25 178.5,-1 5.5,-1"/>
<text text-anchor="middle" x="92" y="-8.4" font-family="Helvetica,sans-Serif" font-size="14.00">VisualizationSceneVector</text>
</a>
</g>
<!-- Node3&#45;&gt;Node4 -->
<g id="edge6" class="edge"><title>Node3&#45;&gt;Node4</title>
<path fill="none" stroke="midnightblue" d="M92,-52.63C92,-43.3865 92,-33.0306 92,-25.2238"/>
<polygon fill="midnightblue" stroke="midnightblue" points="88.5001,-52.7508 92,-62.7508 95.5001,-52.7508 88.5001,-52.7508"/>
</g>
<!-- Node6 -->
<g id="node11" class="node"><title>Node6</title>
<a xlink:href="classVisualizationSceneVector3d.html" target="_top" xlink:title="VisualizationSceneVector3d">
<polygon fill="white" stroke="black" points="208,-1 208,-25 396,-25 396,-1 208,-1"/>
<text text-anchor="middle" x="302" y="-8.4" font-family="Helvetica,sans-Serif" font-size="14.00">VisualizationSceneVector3d</text>
</a>
</g>
<!-- Node5&#45;&gt;Node6 -->
<g id="edge10" class="edge"><title>Node5&#45;&gt;Node6</title>
<path fill="none" stroke="midnightblue" d="M302,-52.63C302,-43.3865 302,-33.0306 302,-25.2238"/>
<polygon fill="midnightblue" stroke="midnightblue" points="298.5,-52.7508 302,-62.7508 305.5,-52.7508 298.5,-52.7508"/>
</g>
</g>
</svg>
