<?xml version="1.0" encoding="UTF-8" standalone="no"?>
<!DOCTYPE svg PUBLIC "-//W3C//DTD SVG 1.1//EN"
 "http://www.w3.org/Graphics/SVG/1.1/DTD/svg11.dtd">
<!-- Generated by graphviz version 2.26.3 (20100126.1600)
 -->
<!-- Title: G Pages: 1 -->
<svg width="188pt" height="154pt"
 viewBox="0.00 0.00 188.00 154.00" xmlns="http://www.w3.org/2000/svg" xmlns:xlink="http://www.w3.org/1999/xlink">
<g id="graph1" class="graph" transform="scale(1 1) rotate(0) translate(4 150)">
<title>G</title>
<polygon fill="white" stroke="white" points="-4,5 -4,-150 185,-150 185,5 -4,5"/>
<!-- Node1 -->
<g id="node1" class="node"><title>Node1</title>
<polygon fill="#bfbfbf" stroke="black" points="20.5,-0.5 20.5,-19.5 167.5,-19.5 167.5,-0.5 20.5,-0.5"/>
<text text-anchor="middle" x="94" y="-6.5" font-family="FreeSans" font-size="10.00">VisualizationSceneSolution3d</text>
</g>
<!-- Node2 -->
<g id="node2" class="node"><title>Node2</title>
<a xlink:href="classVisualizationSceneScalarData.html" target="_top" xlink:title="VisualizationSceneScalarData">
<polygon fill="white" stroke="black" points="19,-58.5 19,-77.5 169,-77.5 169,-58.5 19,-58.5"/>
<text text-anchor="middle" x="94" y="-64.5" font-family="FreeSans" font-size="10.00">VisualizationSceneScalarData</text>
</a>
</g>
<!-- Node2&#45;&gt;Node1 -->
<g id="edge2" class="edge"><title>Node2&#45;&gt;Node1</title>
<path fill="none" stroke="midnightblue" d="M94,-48.153C94,-38.5796 94,-27.5235 94,-19.7856"/>
<polygon fill="midnightblue" stroke="midnightblue" points="90.5001,-48.4224 94,-58.4225 97.5001,-48.4225 90.5001,-48.4224"/>
</g>
<!-- Node3 -->
<g id="node4" class="node"><title>Node3</title>
<a xlink:href="classVisualizationScene.html" target="_top" xlink:title="VisualizationScene">
<polygon fill="white" stroke="black" points="0,-126.5 0,-145.5 100,-145.5 100,-126.5 0,-126.5"/>
<text text-anchor="middle" x="50" y="-132.5" font-family="FreeSans" font-size="10.00">VisualizationScene</text>
</a>
</g>
<!-- Node3&#45;&gt;Node2 -->
<g id="edge4" class="edge"><title>Node3&#45;&gt;Node2</title>
<path fill="none" stroke="midnightblue" d="M61.8338,-117.711C70.1619,-104.841 80.9816,-88.1194 87.7076,-77.7247"/>
<polygon fill="midnightblue" stroke="midnightblue" points="58.7982,-115.96 56.3041,-126.257 64.6752,-119.763 58.7982,-115.96"/>
</g>
<!-- Node4 -->
<g id="node6" class="node"><title>Node4</title>
<a xlink:href="classPlane.html" target="_top" xlink:title="Plane">
<polygon fill="white" stroke="black" points="118,-126.5 118,-145.5 160,-145.5 160,-126.5 118,-126.5"/>
<text text-anchor="middle" x="139" y="-132.5" font-family="FreeSans" font-size="10.00">Plane</text>
</a>
</g>
<!-- Node4&#45;&gt;Node2 -->
<g id="edge6" class="edge"><title>Node4&#45;&gt;Node2</title>
<path fill="none" stroke="#9a32cd" stroke-dasharray="5,2" d="M126.897,-117.711C118.38,-104.841 107.314,-88.1194 100.435,-77.7247"/>
<polygon fill="#9a32cd" stroke="#9a32cd" points="124.115,-119.849 132.553,-126.257 129.953,-115.986 124.115,-119.849"/>
<text text-anchor="middle" x="149.5" y="-98.5" font-family="FreeSans" font-size="10.00"> CuttingPlane</text>
</g>
</g>
</svg>
