<?xml version="1.0" encoding="UTF-8" standalone="no"?>
<!DOCTYPE svg PUBLIC "-//W3C//DTD SVG 1.1//EN"
 "http://www.w3.org/Graphics/SVG/1.1/DTD/svg11.dtd">
<!-- Generated by graphviz version 2.44.1 (20200629.0846)
 -->
<!-- Title: gl3::CoreGLDevice Pages: 1 -->
<svg width="150pt" height="168pt"
 viewBox="0.00 0.00 149.50 168.00" xmlns="http://www.w3.org/2000/svg" xmlns:xlink="http://www.w3.org/1999/xlink">
<g id="graph0" class="graph" transform="scale(1 1) rotate(0) translate(4 164)">
<title>gl3::CoreGLDevice</title>
<polygon fill="white" stroke="transparent" points="-4,4 -4,-164 145.5,-164 145.5,4 -4,4"/>
<!-- Node1 -->
<g id="node1" class="node">
<title>Node1</title>
<g id="a_node1"><a xlink:title=" ">
<polygon fill="#bfbfbf" stroke="black" points="3,-0.5 3,-23.5 134,-23.5 134,-0.5 3,-0.5"/>
<text text-anchor="middle" x="68.5" y="-8.3" font-family="Helvetica,sans-Serif" font-size="14.00">gl3::CoreGLDevice</text>
</a>
</g>
</g>
<!-- Node2 -->
<g id="node2" class="node">
<title>Node2</title>
<g id="a_node2"><a xlink:href="classgl3_1_1GLDevice.html" target="_top" xlink:title=" ">
<polygon fill="white" stroke="black" points="17.5,-61.5 17.5,-84.5 119.5,-84.5 119.5,-61.5 17.5,-61.5"/>
<text text-anchor="middle" x="68.5" y="-69.3" font-family="Helvetica,sans-Serif" font-size="14.00">gl3::GLDevice</text>
</a>
</g>
</g>
<!-- Node2&#45;&gt;Node1 -->
<g id="edge1" class="edge">
<title>Node2&#45;&gt;Node1</title>
<path fill="none" stroke="midnightblue" d="M68.5,-51.41C68.5,-42.13 68.5,-31.56 68.5,-23.86"/>
<polygon fill="midnightblue" stroke="midnightblue" points="65,-51.45 68.5,-61.45 72,-51.45 65,-51.45"/>
</g>
<!-- Node3 -->
<g id="node3" class="node">
<title>Node3</title>
<g id="a_node3"><a xlink:title=" ">
<polygon fill="white" stroke="#bfbfbf" points="0,-136.5 0,-159.5 137,-159.5 137,-136.5 0,-136.5"/>
<text text-anchor="middle" x="68.5" y="-144.3" font-family="Helvetica,sans-Serif" font-size="14.00">std::array&lt; float, 4 &gt;</text>
</a>
</g>
</g>
<!-- Node3&#45;&gt;Node2 -->
<g id="edge2" class="edge">
<title>Node3&#45;&gt;Node2</title>
<path fill="none" stroke="#9a32cd" stroke-dasharray="5,2" d="M68.5,-125.95C68.5,-112.5 68.5,-95.61 68.5,-84.82"/>
<polygon fill="#9a32cd" stroke="#9a32cd" points="65,-126.23 68.5,-136.23 72,-126.23 65,-126.23"/>
<text text-anchor="middle" x="105" y="-106.8" font-family="Helvetica,sans-Serif" font-size="14.00"> static_color</text>
</g>
</g>
</svg>
