<?xml version="1.0" encoding="UTF-8" standalone="no"?>
<!DOCTYPE svg PUBLIC "-//W3C//DTD SVG 1.1//EN"
 "http://www.w3.org/Graphics/SVG/1.1/DTD/svg11.dtd">
<!-- Generated by graphviz version 2.26.3 (20100126.1600)
 -->
<!-- Title: G Pages: 1 -->
<svg width="158pt" height="196pt"
 viewBox="0.00 0.00 158.00 196.00" xmlns="http://www.w3.org/2000/svg" xmlns:xlink="http://www.w3.org/1999/xlink">
<g id="graph1" class="graph" transform="scale(1 1) rotate(0) translate(4 192)">
<title>G</title>
<polygon fill="white" stroke="white" points="-4,5 -4,-192 155,-192 155,5 -4,5"/>
<!-- Node1 -->
<g id="node1" class="node"><title>Node1</title>
<polygon fill="#bfbfbf" stroke="black" points="5,-0.5 5,-19.5 145,-19.5 145,-0.5 5,-0.5"/>
<text text-anchor="middle" x="75" y="-6.5" font-family="FreeSans" font-size="10.00">VisualizationSceneVector3d</text>
</g>
<!-- Node2 -->
<g id="node2" class="node"><title>Node2</title>
<a xlink:href="classVisualizationSceneSolution3d.html" target="_top" xlink:title="VisualizationSceneSolution3d">
<polygon fill="white" stroke="black" points="1.5,-56.5 1.5,-75.5 148.5,-75.5 148.5,-56.5 1.5,-56.5"/>
<text text-anchor="middle" x="75" y="-62.5" font-family="FreeSans" font-size="10.00">VisualizationSceneSolution3d</text>
</a>
</g>
<!-- Node2&#45;&gt;Node1 -->
<g id="edge2" class="edge"><title>Node2&#45;&gt;Node1</title>
<path fill="none" stroke="midnightblue" d="M75,-46.1575C75,-37.155 75,-26.9199 75,-19.6427"/>
<polygon fill="midnightblue" stroke="midnightblue" points="71.5001,-46.2455 75,-56.2455 78.5001,-46.2456 71.5001,-46.2455"/>
</g>
<!-- Node3 -->
<g id="node4" class="node"><title>Node3</title>
<a xlink:href="classVisualizationSceneScalarData.html" target="_top" xlink:title="VisualizationSceneScalarData">
<polygon fill="white" stroke="black" points="0,-112.5 0,-131.5 150,-131.5 150,-112.5 0,-112.5"/>
<text text-anchor="middle" x="75" y="-118.5" font-family="FreeSans" font-size="10.00">VisualizationSceneScalarData</text>
</a>
</g>
<!-- Node3&#45;&gt;Node2 -->
<g id="edge4" class="edge"><title>Node3&#45;&gt;Node2</title>
<path fill="none" stroke="midnightblue" d="M75,-102.158C75,-93.155 75,-82.9199 75,-75.6427"/>
<polygon fill="midnightblue" stroke="midnightblue" points="71.5001,-102.246 75,-112.246 78.5001,-102.246 71.5001,-102.246"/>
</g>
<!-- Node4 -->
<g id="node6" class="node"><title>Node4</title>
<a xlink:href="classVisualizationScene.html" target="_top" xlink:title="VisualizationScene">
<polygon fill="white" stroke="black" points="25,-168.5 25,-187.5 125,-187.5 125,-168.5 25,-168.5"/>
<text text-anchor="middle" x="75" y="-174.5" font-family="FreeSans" font-size="10.00">VisualizationScene</text>
</a>
</g>
<!-- Node4&#45;&gt;Node3 -->
<g id="edge6" class="edge"><title>Node4&#45;&gt;Node3</title>
<path fill="none" stroke="midnightblue" d="M75,-158.158C75,-149.155 75,-138.92 75,-131.643"/>
<polygon fill="midnightblue" stroke="midnightblue" points="71.5001,-158.246 75,-168.246 78.5001,-158.246 71.5001,-158.246"/>
</g>
</g>
</svg>
