<?xml version="1.0" encoding="UTF-8" standalone="no"?>
<!DOCTYPE svg PUBLIC "-//W3C//DTD SVG 1.1//EN"
 "http://www.w3.org/Graphics/SVG/1.1/DTD/svg11.dtd">
<!-- Generated by graphviz version 2.44.1 (20200629.0846)
 -->
<!-- Title: gl3::IndexedVertexBuffer&lt; T &gt; Pages: 1 -->
<svg width="205pt" height="152pt"
 viewBox="0.00 0.00 205.00 152.00" xmlns="http://www.w3.org/2000/svg" xmlns:xlink="http://www.w3.org/1999/xlink">
<g id="graph0" class="graph" transform="scale(1 1) rotate(0) translate(4 148)">
<title>gl3::IndexedVertexBuffer&lt; T &gt;</title>
<polygon fill="white" stroke="transparent" points="-4,4 -4,-148 201,-148 201,4 -4,4"/>
<!-- Node1 -->
<g id="node1" class="node">
<title>Node1</title>
<g id="a_node1"><a xlink:title=" ">
<polygon fill="#bfbfbf" stroke="black" points="0,-0.5 0,-23.5 197,-23.5 197,-0.5 0,-0.5"/>
<text text-anchor="middle" x="98.5" y="-8.3" font-family="Helvetica,sans-Serif" font-size="14.00">gl3::IndexedVertexBuffer&lt; T &gt;</text>
</a>
</g>
</g>
<!-- Node2 -->
<g id="node2" class="node">
<title>Node2</title>
<g id="a_node2"><a xlink:href="classgl3_1_1IIndexedBuffer.html" target="_top" xlink:title=" ">
<polygon fill="white" stroke="black" points="33.5,-60.5 33.5,-83.5 163.5,-83.5 163.5,-60.5 33.5,-60.5"/>
<text text-anchor="middle" x="98.5" y="-68.3" font-family="Helvetica,sans-Serif" font-size="14.00">gl3::IIndexedBuffer</text>
</a>
</g>
</g>
<!-- Node2&#45;&gt;Node1 -->
<g id="edge1" class="edge">
<title>Node2&#45;&gt;Node1</title>
<path fill="none" stroke="midnightblue" d="M98.5,-50.19C98.5,-41.17 98.5,-30.99 98.5,-23.57"/>
<polygon fill="midnightblue" stroke="midnightblue" points="95,-50.36 98.5,-60.36 102,-50.36 95,-50.36"/>
</g>
<!-- Node3 -->
<g id="node3" class="node">
<title>Node3</title>
<g id="a_node3"><a xlink:href="classgl3_1_1IVertexBuffer.html" target="_top" xlink:title=" ">
<polygon fill="white" stroke="black" points="38,-120.5 38,-143.5 159,-143.5 159,-120.5 38,-120.5"/>
<text text-anchor="middle" x="98.5" y="-128.3" font-family="Helvetica,sans-Serif" font-size="14.00">gl3::IVertexBuffer</text>
</a>
</g>
</g>
<!-- Node3&#45;&gt;Node2 -->
<g id="edge2" class="edge">
<title>Node3&#45;&gt;Node2</title>
<path fill="none" stroke="midnightblue" d="M98.5,-110.19C98.5,-101.17 98.5,-90.99 98.5,-83.57"/>
<polygon fill="midnightblue" stroke="midnightblue" points="95,-110.36 98.5,-120.36 102,-110.36 95,-110.36"/>
</g>
</g>
</svg>
