<?xml version="1.0" encoding="UTF-8" standalone="no"?>
<!DOCTYPE svg PUBLIC "-//W3C//DTD SVG 1.1//EN"
 "http://www.w3.org/Graphics/SVG/1.1/DTD/svg11.dtd">
<!-- Generated by graphviz version 2.30.1 (20200304.1809)
 -->
<!-- Title: SdlNativePlatform Pages: 1 -->
<svg width="478pt" height="92pt"
 viewBox="0.00 0.00 478.00 92.00" xmlns="http://www.w3.org/2000/svg" xmlns:xlink="http://www.w3.org/1999/xlink">
<g id="graph0" class="graph" transform="scale(1 1) rotate(0) translate(4 88)">
<title>SdlNativePlatform</title>
<polygon fill="white" stroke="white" points="-4,5 -4,-88 475,-88 475,5 -4,5"/>
<!-- Node1 -->
<g id="node1" class="node"><title>Node1</title>
<polygon fill="#bfbfbf" stroke="black" points="170.5,-60.5 170.5,-83.5 315.5,-83.5 315.5,-60.5 170.5,-60.5"/>
<text text-anchor="middle" x="243" y="-68.3" font-family="Helvetica,sans-Serif" font-size="14.00">SdlNativePlatform</text>
</g>
<!-- Node2 -->
<g id="node2" class="node"><title>Node2</title>
<g id="a_node2"><a xlink:href="classSdlCocoaPlatform.html" target="_top" xlink:title="SdlCocoaPlatform">
<polygon fill="white" stroke="black" points="-0.5,-0.5 -0.5,-23.5 142.5,-23.5 142.5,-0.5 -0.5,-0.5"/>
<text text-anchor="middle" x="71" y="-8.3" font-family="Helvetica,sans-Serif" font-size="14.00">SdlCocoaPlatform</text>
</a>
</g>
</g>
<!-- Node1&#45;&gt;Node2 -->
<g id="edge1" class="edge"><title>Node1&#45;&gt;Node2</title>
<path fill="none" stroke="midnightblue" d="M202.309,-57.2787C171.661,-46.9437 130.265,-32.9849 102.206,-23.5231"/>
<polygon fill="midnightblue" stroke="midnightblue" points="201.258,-60.6178 211.852,-60.4966 203.495,-53.9847 201.258,-60.6178"/>
</g>
<!-- Node3 -->
<g id="node3" class="node"><title>Node3</title>
<g id="a_node3"><a xlink:href="classSdlWindowsPlatform.html" target="_top" xlink:title="SdlWindowsPlatform">
<polygon fill="white" stroke="black" points="161,-0.5 161,-23.5 325,-23.5 325,-0.5 161,-0.5"/>
<text text-anchor="middle" x="243" y="-8.3" font-family="Helvetica,sans-Serif" font-size="14.00">SdlWindowsPlatform</text>
</a>
</g>
</g>
<!-- Node1&#45;&gt;Node3 -->
<g id="edge2" class="edge"><title>Node1&#45;&gt;Node3</title>
<path fill="none" stroke="midnightblue" d="M243,-50.1906C243,-41.1684 243,-30.9941 243,-23.5707"/>
<polygon fill="midnightblue" stroke="midnightblue" points="239.5,-50.3619 243,-60.3619 246.5,-50.3619 239.5,-50.3619"/>
</g>
<!-- Node4 -->
<g id="node4" class="node"><title>Node4</title>
<g id="a_node4"><a xlink:href="classSdlX11Platform.html" target="_top" xlink:title="SdlX11Platform">
<polygon fill="white" stroke="black" points="343.5,-0.5 343.5,-23.5 470.5,-23.5 470.5,-0.5 343.5,-0.5"/>
<text text-anchor="middle" x="407" y="-8.3" font-family="Helvetica,sans-Serif" font-size="14.00">SdlX11Platform</text>
</a>
</g>
</g>
<!-- Node1&#45;&gt;Node4 -->
<g id="edge3" class="edge"><title>Node1&#45;&gt;Node4</title>
<path fill="none" stroke="midnightblue" d="M282.178,-57.1443C311.363,-46.8229 350.607,-32.9439 377.245,-23.5231"/>
<polygon fill="midnightblue" stroke="midnightblue" points="280.96,-53.8626 272.699,-60.4966 283.294,-60.4621 280.96,-53.8626"/>
</g>
</g>
</svg>
