<?xml version="1.0" encoding="UTF-8" standalone="no"?>
<!DOCTYPE svg PUBLIC "-//W3C//DTD SVG 1.1//EN"
 "http://www.w3.org/Graphics/SVG/1.1/DTD/svg11.dtd">
<!-- Generated by graphviz version 2.44.1 (20200629.0846)
 -->
<!-- Title: SdlNativePlatform Pages: 1 -->
<svg width="264pt" height="92pt"
 viewBox="0.00 0.00 263.50 92.00" xmlns="http://www.w3.org/2000/svg" xmlns:xlink="http://www.w3.org/1999/xlink">
<g id="graph0" class="graph" transform="scale(1 1) rotate(0) translate(4 88)">
<title>SdlNativePlatform</title>
<polygon fill="white" stroke="transparent" points="-4,4 -4,-88 259.5,-88 259.5,4 -4,4"/>
<!-- Node1 -->
<g id="node1" class="node">
<title>Node1</title>
<g id="a_node1"><a xlink:title=" ">
<polygon fill="#bfbfbf" stroke="black" points="68.5,-60.5 68.5,-83.5 193.5,-83.5 193.5,-60.5 68.5,-60.5"/>
<text text-anchor="middle" x="131" y="-68.3" font-family="Helvetica,sans-Serif" font-size="14.00">SdlNativePlatform</text>
</a>
</g>
</g>
<!-- Node2 -->
<g id="node2" class="node">
<title>Node2</title>
<g id="a_node2"><a xlink:href="classSdlCocoaPlatform.html" target="_top" xlink:title=" ">
<polygon fill="white" stroke="black" points="0,-0.5 0,-23.5 126,-23.5 126,-0.5 0,-0.5"/>
<text text-anchor="middle" x="63" y="-8.3" font-family="Helvetica,sans-Serif" font-size="14.00">SdlCocoaPlatform</text>
</a>
</g>
</g>
<!-- Node1&#45;&gt;Node2 -->
<g id="edge1" class="edge">
<title>Node1&#45;&gt;Node2</title>
<path fill="none" stroke="midnightblue" d="M110.71,-53.69C99.23,-43.9 85.24,-31.97 75.39,-23.57"/>
<polygon fill="midnightblue" stroke="midnightblue" points="108.65,-56.54 118.53,-60.36 113.19,-51.21 108.65,-56.54"/>
</g>
<!-- Node3 -->
<g id="node3" class="node">
<title>Node3</title>
<g id="a_node3"><a xlink:href="classSdlX11Platform.html" target="_top" xlink:title=" ">
<polygon fill="white" stroke="black" points="144.5,-0.5 144.5,-23.5 255.5,-23.5 255.5,-0.5 144.5,-0.5"/>
<text text-anchor="middle" x="200" y="-8.3" font-family="Helvetica,sans-Serif" font-size="14.00">SdlX11Platform</text>
</a>
</g>
</g>
<!-- Node1&#45;&gt;Node3 -->
<g id="edge2" class="edge">
<title>Node1&#45;&gt;Node3</title>
<path fill="none" stroke="midnightblue" d="M151.59,-53.69C163.24,-43.9 177.43,-31.97 187.42,-23.57"/>
<polygon fill="midnightblue" stroke="midnightblue" points="149.06,-51.25 143.66,-60.36 153.56,-56.61 149.06,-51.25"/>
</g>
</g>
</svg>
