<?xml version="1.0" encoding="UTF-8" standalone="no"?>
<!DOCTYPE svg PUBLIC "-//W3C//DTD SVG 1.1//EN"
 "http://www.w3.org/Graphics/SVG/1.1/DTD/svg11.dtd">
<!-- Generated by graphviz version 2.26.3 (20100126.1600)
 -->
<!-- Title: G Pages: 1 -->
<svg width="188pt" height="212pt"
 viewBox="0.00 0.00 188.00 212.00" xmlns="http://www.w3.org/2000/svg" xmlns:xlink="http://www.w3.org/1999/xlink">
<g id="graph1" class="graph" transform="scale(1 1) rotate(0) translate(4 208)">
<title>G</title>
<polygon fill="white" stroke="white" points="-4,5 -4,-208 185,-208 185,5 -4,5"/>
<!-- Node1 -->
<g id="node1" class="node"><title>Node1</title>
<polygon fill="#bfbfbf" stroke="black" points="29.5,-0.5 29.5,-19.5 158.5,-19.5 158.5,-0.5 29.5,-0.5"/>
<text text-anchor="middle" x="94" y="-6.5" font-family="FreeSans" font-size="10.00">VisualizationSceneVector</text>
</g>
<!-- Node2 -->
<g id="node2" class="node"><title>Node2</title>
<a xlink:href="classVisualizationSceneSolution.html" target="_top" xlink:title="VisualizationSceneSolution">
<polygon fill="white" stroke="black" points="26,-58.5 26,-77.5 162,-77.5 162,-58.5 26,-58.5"/>
<text text-anchor="middle" x="94" y="-64.5" font-family="FreeSans" font-size="10.00">VisualizationSceneSolution</text>
</a>
</g>
<!-- Node2&#45;&gt;Node1 -->
<g id="edge2" class="edge"><title>Node2&#45;&gt;Node1</title>
<path fill="none" stroke="midnightblue" d="M94,-48.153C94,-38.5796 94,-27.5235 94,-19.7856"/>
<polygon fill="midnightblue" stroke="midnightblue" points="90.5001,-48.4224 94,-58.4225 97.5001,-48.4225 90.5001,-48.4224"/>
</g>
<!-- Node3 -->
<g id="node4" class="node"><title>Node3</title>
<a xlink:href="classVisualizationSceneScalarData.html" target="_top" xlink:title="VisualizationSceneScalarData">
<polygon fill="white" stroke="black" points="19,-116.5 19,-135.5 169,-135.5 169,-116.5 19,-116.5"/>
<text text-anchor="middle" x="94" y="-122.5" font-family="FreeSans" font-size="10.00">VisualizationSceneScalarData</text>
</a>
</g>
<!-- Node3&#45;&gt;Node2 -->
<g id="edge4" class="edge"><title>Node3&#45;&gt;Node2</title>
<path fill="none" stroke="midnightblue" d="M94,-106.153C94,-96.5796 94,-85.5235 94,-77.7856"/>
<polygon fill="midnightblue" stroke="midnightblue" points="90.5001,-106.422 94,-116.422 97.5001,-106.423 90.5001,-106.422"/>
</g>
<!-- Node4 -->
<g id="node6" class="node"><title>Node4</title>
<a xlink:href="classVisualizationScene.html" target="_top" xlink:title="VisualizationScene">
<polygon fill="white" stroke="black" points="0,-184.5 0,-203.5 100,-203.5 100,-184.5 0,-184.5"/>
<text text-anchor="middle" x="50" y="-190.5" font-family="FreeSans" font-size="10.00">VisualizationScene</text>
</a>
</g>
<!-- Node4&#45;&gt;Node3 -->
<g id="edge6" class="edge"><title>Node4&#45;&gt;Node3</title>
<path fill="none" stroke="midnightblue" d="M61.8338,-175.711C70.1619,-162.841 80.9816,-146.119 87.7076,-135.725"/>
<polygon fill="midnightblue" stroke="midnightblue" points="58.7982,-173.96 56.3041,-184.257 64.6752,-177.763 58.7982,-173.96"/>
</g>
<!-- Node5 -->
<g id="node8" class="node"><title>Node5</title>
<a xlink:href="classPlane.html" target="_top" xlink:title="Plane">
<polygon fill="white" stroke="black" points="118,-184.5 118,-203.5 160,-203.5 160,-184.5 118,-184.5"/>
<text text-anchor="middle" x="139" y="-190.5" font-family="FreeSans" font-size="10.00">Plane</text>
</a>
</g>
<!-- Node5&#45;&gt;Node3 -->
<g id="edge8" class="edge"><title>Node5&#45;&gt;Node3</title>
<path fill="none" stroke="#9a32cd" stroke-dasharray="5,2" d="M126.897,-175.711C118.38,-162.841 107.314,-146.119 100.435,-135.725"/>
<polygon fill="#9a32cd" stroke="#9a32cd" points="124.115,-177.849 132.553,-184.257 129.953,-173.986 124.115,-177.849"/>
<text text-anchor="middle" x="149.5" y="-156.5" font-family="FreeSans" font-size="10.00"> CuttingPlane</text>
</g>
</g>
</svg>
