<?xml version="1.0" encoding="UTF-8" standalone="no"?>
<!DOCTYPE svg PUBLIC "-//W3C//DTD SVG 1.1//EN"
 "http://www.w3.org/Graphics/SVG/1.1/DTD/svg11.dtd">
<!-- Generated by graphviz version 2.44.1 (20200629.0846)
 -->
<!-- Title: VisualizationSceneSolution3d Pages: 1 -->
<svg width="683pt" height="519pt"
 viewBox="0.00 0.00 683.00 519.00" xmlns="http://www.w3.org/2000/svg" xmlns:xlink="http://www.w3.org/1999/xlink">
<g id="graph0" class="graph" transform="scale(1 1) rotate(0) translate(4 515)">
<title>VisualizationSceneSolution3d</title>
<polygon fill="white" stroke="transparent" points="-4,4 -4,-515 679,-515 679,4 -4,4"/>
<!-- Node1 -->
<g id="node1" class="node">
<title>Node1</title>
<g id="a_node1"><a xlink:title=" ">
<polygon fill="#bfbfbf" stroke="black" points="6.5,-0.5 6.5,-23.5 200.5,-23.5 200.5,-0.5 6.5,-0.5"/>
<text text-anchor="middle" x="103.5" y="-8.3" font-family="Helvetica,sans-Serif" font-size="14.00">VisualizationSceneSolution3d</text>
</a>
</g>
</g>
<!-- Node2 -->
<g id="node2" class="node">
<title>Node2</title>
<g id="a_node2"><a xlink:href="classVisualizationSceneScalarData.html" target="_top" xlink:title=" ">
<polygon fill="white" stroke="black" points="173,-109.5 173,-132.5 370,-132.5 370,-109.5 173,-109.5"/>
<text text-anchor="middle" x="271.5" y="-117.3" font-family="Helvetica,sans-Serif" font-size="14.00">VisualizationSceneScalarData</text>
</a>
</g>
</g>
<!-- Node2&#45;&gt;Node1 -->
<g id="edge1" class="edge">
<title>Node2&#45;&gt;Node1</title>
<path fill="none" stroke="midnightblue" d="M246.13,-103.84C211.3,-81.66 149.67,-42.4 120.16,-23.61"/>
<polygon fill="midnightblue" stroke="midnightblue" points="244.46,-106.93 254.78,-109.35 248.22,-101.03 244.46,-106.93"/>
</g>
<!-- Node3 -->
<g id="node3" class="node">
<title>Node3</title>
<g id="a_node3"><a xlink:href="classVisualizationScene.html" target="_top" xlink:title=" ">
<polygon fill="white" stroke="black" points="384,-292.5 384,-315.5 515,-315.5 515,-292.5 384,-292.5"/>
<text text-anchor="middle" x="449.5" y="-300.3" font-family="Helvetica,sans-Serif" font-size="14.00">VisualizationScene</text>
</a>
</g>
</g>
<!-- Node3&#45;&gt;Node2 -->
<g id="edge2" class="edge">
<title>Node3&#45;&gt;Node2</title>
<path fill="none" stroke="midnightblue" d="M433.93,-284.43C415.9,-263.21 385.01,-227.69 356.5,-199 331.8,-174.14 300.89,-147.07 283.98,-132.58"/>
<polygon fill="midnightblue" stroke="midnightblue" points="431.48,-286.96 440.61,-292.34 436.83,-282.44 431.48,-286.96"/>
</g>
<!-- Node4 -->
<g id="node4" class="node">
<title>Node4</title>
<g id="a_node4"><a xlink:href="classSdlWindow.html" target="_top" xlink:title=" ">
<polygon fill="white" stroke="black" points="590,-375 590,-398 675,-398 675,-375 590,-375"/>
<text text-anchor="middle" x="632.5" y="-382.8" font-family="Helvetica,sans-Serif" font-size="14.00">SdlWindow</text>
</a>
</g>
</g>
<!-- Node4&#45;&gt;Node3 -->
<g id="edge3" class="edge">
<title>Node4&#45;&gt;Node3</title>
<path fill="none" stroke="#9a32cd" stroke-dasharray="5,2" d="M613.43,-368.32C600.04,-357.08 581.24,-342.89 562.5,-334 545.57,-325.97 526.12,-319.96 508.19,-315.56"/>
<polygon fill="#9a32cd" stroke="#9a32cd" points="611.16,-370.98 621.02,-374.86 615.73,-365.68 611.16,-370.98"/>
<text text-anchor="middle" x="601" y="-337.8" font-family="Helvetica,sans-Serif" font-size="14.00"> wnd</text>
</g>
<!-- Node5 -->
<g id="node5" class="node">
<title>Node5</title>
<g id="a_node5"><a xlink:href="structMaterial.html" target="_top" xlink:title=" ">
<polygon fill="white" stroke="black" points="424,-375 424,-398 489,-398 489,-375 424,-375"/>
<text text-anchor="middle" x="456.5" y="-382.8" font-family="Helvetica,sans-Serif" font-size="14.00">Material</text>
</a>
</g>
</g>
<!-- Node5&#45;&gt;Node3 -->
<g id="edge4" class="edge">
<title>Node5&#45;&gt;Node3</title>
<path fill="none" stroke="#9a32cd" stroke-dasharray="5,2" d="M452.52,-364.45C451.71,-359.41 450.97,-354.03 450.5,-349 449.44,-337.59 449.28,-324.44 449.33,-315.51"/>
<polygon fill="#9a32cd" stroke="#9a32cd" points="449.14,-365.44 454.31,-374.69 456.04,-364.24 449.14,-365.44"/>
<text text-anchor="middle" x="484" y="-337.8" font-family="Helvetica,sans-Serif" font-size="14.00"> BLK_MAT</text>
</g>
<!-- Node6 -->
<g id="node6" class="node">
<title>Node6</title>
<g id="a_node6"><a xlink:title=" ">
<polygon fill="white" stroke="#bfbfbf" points="301,-487.5 301,-510.5 438,-510.5 438,-487.5 301,-487.5"/>
<text text-anchor="middle" x="369.5" y="-495.3" font-family="Helvetica,sans-Serif" font-size="14.00">std::array&lt; float, 4 &gt;</text>
</a>
</g>
</g>
<!-- Node6&#45;&gt;Node3 -->
<g id="edge7" class="edge">
<title>Node6&#45;&gt;Node3</title>
<path fill="none" stroke="#9a32cd" stroke-dasharray="5,2" d="M362.61,-477.56C354.81,-450.61 345.36,-402.45 363.5,-367 376,-342.59 403.08,-325.59 423.54,-315.64"/>
<polygon fill="#9a32cd" stroke="#9a32cd" points="359.36,-478.89 365.67,-487.41 366.05,-476.82 359.36,-478.89"/>
<text text-anchor="middle" x="389.5" y="-382.8" font-family="Helvetica,sans-Serif" font-size="14.00"> _l0_pos</text>
</g>
<!-- Node6&#45;&gt;Node5 -->
<g id="edge5" class="edge">
<title>Node6&#45;&gt;Node5</title>
<path fill="none" stroke="#9a32cd" stroke-dasharray="5,2" d="M384.2,-479.32C402.54,-456.03 433.27,-417 448.06,-398.23"/>
<polygon fill="#9a32cd" stroke="#9a32cd" points="381.28,-477.38 377.84,-487.4 386.78,-481.71 381.28,-477.38"/>
<text text-anchor="middle" x="452" y="-457.8" font-family="Helvetica,sans-Serif" font-size="14.00"> ambient</text>
<text text-anchor="middle" x="452" y="-442.8" font-family="Helvetica,sans-Serif" font-size="14.00">diffuse</text>
<text text-anchor="middle" x="452" y="-427.8" font-family="Helvetica,sans-Serif" font-size="14.00">specular</text>
</g>
<!-- Node7 -->
<g id="node7" class="node">
<title>Node7</title>
<g id="a_node7"><a xlink:href="classCamera.html" target="_top" xlink:title=" ">
<polygon fill="white" stroke="black" points="507,-375 507,-398 572,-398 572,-375 507,-375"/>
<text text-anchor="middle" x="539.5" y="-382.8" font-family="Helvetica,sans-Serif" font-size="14.00">Camera</text>
</a>
</g>
</g>
<!-- Node7&#45;&gt;Node3 -->
<g id="edge6" class="edge">
<title>Node7&#45;&gt;Node3</title>
<path fill="none" stroke="#9a32cd" stroke-dasharray="5,2" d="M534.6,-364.76C531.25,-354.42 525.87,-342.37 517.5,-334 509.42,-325.93 498.74,-319.96 488.24,-315.61"/>
<polygon fill="#9a32cd" stroke="#9a32cd" points="531.32,-366.01 537.39,-374.69 538.06,-364.12 531.32,-366.01"/>
<text text-anchor="middle" x="543" y="-337.8" font-family="Helvetica,sans-Serif" font-size="14.00"> cam</text>
</g>
<!-- Node8 -->
<g id="node8" class="node">
<title>Node8</title>
<g id="a_node8"><a xlink:href="classgl3_1_1GlDrawable.html" target="_top" xlink:title=" ">
<polygon fill="white" stroke="black" points="0,-292.5 0,-315.5 113,-315.5 113,-292.5 0,-292.5"/>
<text text-anchor="middle" x="56.5" y="-300.3" font-family="Helvetica,sans-Serif" font-size="14.00">gl3::GlDrawable</text>
</a>
</g>
</g>
<!-- Node8&#45;&gt;Node1 -->
<g id="edge12" class="edge">
<title>Node8&#45;&gt;Node1</title>
<path fill="none" stroke="#9a32cd" stroke-dasharray="5,2" d="M50.01,-282.56C37.51,-239.35 14.18,-136.5 48.5,-61 55.89,-44.73 71.83,-31.82 84.65,-23.51"/>
<polygon fill="#9a32cd" stroke="#9a32cd" points="46.68,-283.64 52.92,-292.21 53.39,-281.62 46.68,-283.64"/>
<text text-anchor="middle" x="106" y="-169.8" font-family="Helvetica,sans-Serif" font-size="14.00"> cplines_buf</text>
<text text-anchor="middle" x="106" y="-154.8" font-family="Helvetica,sans-Serif" font-size="14.00">order_buf</text>
<text text-anchor="middle" x="106" y="-139.8" font-family="Helvetica,sans-Serif" font-size="14.00">order_noarrow_buf</text>
<text text-anchor="middle" x="106" y="-124.8" font-family="Helvetica,sans-Serif" font-size="14.00">other_buf</text>
<text text-anchor="middle" x="106" y="-109.8" font-family="Helvetica,sans-Serif" font-size="14.00">lsurf_buf</text>
<text text-anchor="middle" x="106" y="-94.8" font-family="Helvetica,sans-Serif" font-size="14.00">disp_buf</text>
<text text-anchor="middle" x="106" y="-79.8" font-family="Helvetica,sans-Serif" font-size="14.00">cplane_buf</text>
<text text-anchor="middle" x="106" y="-64.8" font-family="Helvetica,sans-Serif" font-size="14.00">line_buf</text>
</g>
<!-- Node8&#45;&gt;Node2 -->
<g id="edge8" class="edge">
<title>Node8&#45;&gt;Node2</title>
<path fill="none" stroke="#9a32cd" stroke-dasharray="5,2" d="M55.49,-282.2C55.54,-258.72 59.43,-220.94 81.5,-199 106.43,-174.23 125.55,-193.23 158.5,-181 194.19,-167.75 232.93,-145.67 254.51,-132.61"/>
<polygon fill="#9a32cd" stroke="#9a32cd" points="51.99,-282.52 55.71,-292.45 58.99,-282.37 51.99,-282.52"/>
<text text-anchor="middle" x="133.5" y="-262.8" font-family="Helvetica,sans-Serif" font-size="14.00"> coord_cross_buf</text>
<text text-anchor="middle" x="133.5" y="-247.8" font-family="Helvetica,sans-Serif" font-size="14.00">axes_buf</text>
<text text-anchor="middle" x="133.5" y="-232.8" font-family="Helvetica,sans-Serif" font-size="14.00">color_bar</text>
<text text-anchor="middle" x="133.5" y="-217.8" font-family="Helvetica,sans-Serif" font-size="14.00">ruler_buf</text>
<text text-anchor="middle" x="133.5" y="-202.8" font-family="Helvetica,sans-Serif" font-size="14.00">caption_buf</text>
</g>
<!-- Node9 -->
<g id="node9" class="node">
<title>Node9</title>
<g id="a_node9"><a xlink:href="classPlane.html" target="_top" xlink:title=" ">
<polygon fill="white" stroke="black" points="174,-292.5 174,-315.5 225,-315.5 225,-292.5 174,-292.5"/>
<text text-anchor="middle" x="199.5" y="-300.3" font-family="Helvetica,sans-Serif" font-size="14.00">Plane</text>
</a>
</g>
</g>
<!-- Node9&#45;&gt;Node2 -->
<g id="edge9" class="edge">
<title>Node9&#45;&gt;Node2</title>
<path fill="none" stroke="#9a32cd" stroke-dasharray="5,2" d="M194.18,-282.46C189.64,-260.83 185.44,-226.22 196.5,-199 208.38,-169.78 237.26,-145.59 255.52,-132.51"/>
<polygon fill="#9a32cd" stroke="#9a32cd" points="190.83,-283.52 196.51,-292.47 197.65,-281.94 190.83,-283.52"/>
<text text-anchor="middle" x="237.5" y="-232.8" font-family="Helvetica,sans-Serif" font-size="14.00"> CuttingPlane</text>
</g>
<!-- Node10 -->
<g id="node10" class="node">
<title>Node10</title>
<g id="a_node10"><a xlink:title="STL class.">
<polygon fill="white" stroke="#bfbfbf" points="255,-292.5 255,-315.5 330,-315.5 330,-292.5 255,-292.5"/>
<text text-anchor="middle" x="292.5" y="-300.3" font-family="Helvetica,sans-Serif" font-size="14.00">std::string</text>
</a>
</g>
</g>
<!-- Node10&#45;&gt;Node2 -->
<g id="edge10" class="edge">
<title>Node10&#45;&gt;Node2</title>
<path fill="none" stroke="#9a32cd" stroke-dasharray="5,2" d="M290.8,-282.33C289,-261.32 285.95,-227.85 282.5,-199 279.68,-175.4 275.54,-147.86 273.23,-132.95"/>
<polygon fill="#9a32cd" stroke="#9a32cd" points="287.31,-282.68 291.64,-292.35 294.29,-282.09 287.31,-282.68"/>
<text text-anchor="middle" x="321.5" y="-247.8" font-family="Helvetica,sans-Serif" font-size="14.00"> a_label_x</text>
<text text-anchor="middle" x="321.5" y="-232.8" font-family="Helvetica,sans-Serif" font-size="14.00">a_label_y</text>
<text text-anchor="middle" x="321.5" y="-217.8" font-family="Helvetica,sans-Serif" font-size="14.00">a_label_z</text>
</g>
<!-- Node11 -->
<g id="node11" class="node">
<title>Node11</title>
<g id="a_node11"><a xlink:title=" ">
<polygon fill="white" stroke="#bfbfbf" points="195.5,-367.5 195.5,-405.5 317.5,-405.5 317.5,-367.5 195.5,-367.5"/>
<text text-anchor="start" x="203.5" y="-390.3" font-family="Helvetica,sans-Serif" font-size="14.00">std::basic_string&lt;</text>
<text text-anchor="middle" x="256.5" y="-375.3" font-family="Helvetica,sans-Serif" font-size="14.00"> char &gt;</text>
</a>
</g>
</g>
<!-- Node11&#45;&gt;Node10 -->
<g id="edge11" class="edge">
<title>Node11&#45;&gt;Node10</title>
<path fill="none" stroke="midnightblue" d="M268.76,-358.08C275.3,-343.46 282.97,-326.31 287.78,-315.55"/>
<polygon fill="midnightblue" stroke="midnightblue" points="265.56,-356.68 264.67,-367.23 271.95,-359.53 265.56,-356.68"/>
</g>
</g>
</svg>
