<?xml version="1.0" encoding="UTF-8" standalone="no"?>
<!DOCTYPE svg PUBLIC "-//W3C//DTD SVG 1.1//EN"
 "http://www.w3.org/Graphics/SVG/1.1/DTD/svg11.dtd">
<!-- Generated by graphviz version 2.30.1 (20200304.1809)
 -->
<!-- Title: gl3::FFGLDevice Pages: 1 -->
<svg width="365pt" height="186pt"
 viewBox="0.00 0.00 365.00 186.00" xmlns="http://www.w3.org/2000/svg" xmlns:xlink="http://www.w3.org/1999/xlink">
<g id="graph0" class="graph" transform="scale(1 1) rotate(0) translate(4 182)">
<title>gl3::FFGLDevice</title>
<polygon fill="white" stroke="white" points="-4,5 -4,-182 362,-182 362,5 -4,5"/>
<!-- Node1 -->
<g id="node1" class="node"><title>Node1</title>
<polygon fill="#bfbfbf" stroke="black" points="113,-0.5 113,-23.5 245,-23.5 245,-0.5 113,-0.5"/>
<text text-anchor="middle" x="179" y="-8.3" font-family="Helvetica,sans-Serif" font-size="14.00">gl3::FFGLDevice</text>
</g>
<!-- Node2 -->
<g id="node2" class="node"><title>Node2</title>
<g id="a_node2"><a xlink:href="classgl3_1_1GLDevice.html" target="_top" xlink:title="gl3::GLDevice">
<polygon fill="white" stroke="black" points="121,-62.5 121,-85.5 237,-85.5 237,-62.5 121,-62.5"/>
<text text-anchor="middle" x="179" y="-70.3" font-family="Helvetica,sans-Serif" font-size="14.00">gl3::GLDevice</text>
</a>
</g>
</g>
<!-- Node2&#45;&gt;Node1 -->
<g id="edge1" class="edge"><title>Node2&#45;&gt;Node1</title>
<path fill="none" stroke="midnightblue" d="M179,-52.2312C179,-42.5922 179,-31.5444 179,-23.6339"/>
<polygon fill="midnightblue" stroke="midnightblue" points="175.5,-52.2732 179,-62.2732 182.5,-52.2732 175.5,-52.2732"/>
</g>
<!-- Node3 -->
<g id="node3" class="node"><title>Node3</title>
<g id="a_node3"><a xlink:href="classgl3_1_1resource_1_1Handle.html" target="_top" xlink:title="gl3::resource::Handle\l\&lt; texCleanup \&gt;">
<polygon fill="white" stroke="black" points="0,-139 0,-177 170,-177 170,-139 0,-139"/>
<text text-anchor="start" x="8" y="-161.8" font-family="Helvetica,sans-Serif" font-size="14.00">gl3::resource::Handle</text>
<text text-anchor="middle" x="85" y="-146.8" font-family="Helvetica,sans-Serif" font-size="14.00">&lt; texCleanup &gt;</text>
</a>
</g>
</g>
<!-- Node3&#45;&gt;Node2 -->
<g id="edge2" class="edge"><title>Node3&#45;&gt;Node2</title>
<path fill="none" stroke="#9a32cd" stroke-dasharray="5,2" d="M86.1349,-128.787C87.7694,-119.973 90.9625,-110.791 97,-104 104.324,-95.7621 114.139,-89.8643 124.429,-85.6418"/>
<polygon fill="#9a32cd" stroke="#9a32cd" points="82.6514,-128.436 84.8552,-138.799 89.5949,-129.323 82.6514,-128.436"/>
<text text-anchor="middle" x="174" y="-108.3" font-family="Helvetica,sans-Serif" font-size="14.00"> passthrough_texture</text>
</g>
<!-- Node4 -->
<g id="node4" class="node"><title>Node4</title>
<polygon fill="white" stroke="#bfbfbf" points="188.5,-146.5 188.5,-169.5 357.5,-169.5 357.5,-146.5 188.5,-146.5"/>
<text text-anchor="middle" x="273" y="-154.3" font-family="Helvetica,sans-Serif" font-size="14.00">std::array&lt; float, 4 &gt;</text>
</g>
<!-- Node4&#45;&gt;Node2 -->
<g id="edge3" class="edge"><title>Node4&#45;&gt;Node2</title>
<path fill="none" stroke="#9a32cd" stroke-dasharray="5,2" d="M268.528,-136.319C265.261,-125.498 259.817,-112.724 251,-104 242.762,-95.8485 231.933,-89.9011 221.185,-85.5967"/>
<polygon fill="#9a32cd" stroke="#9a32cd" points="265.211,-137.469 271.113,-146.267 271.985,-135.708 265.211,-137.469"/>
<text text-anchor="middle" x="305" y="-108.3" font-family="Helvetica,sans-Serif" font-size="14.00"> static_color</text>
</g>
</g>
</svg>
