<?xml version="1.0" encoding="UTF-8" standalone="no"?>
<!DOCTYPE svg PUBLIC "-//W3C//DTD SVG 1.1//EN"
 "http://www.w3.org/Graphics/SVG/1.1/DTD/svg11.dtd">
<!-- Generated by graphviz version 2.30.1 (20200304.1809)
 -->
<!-- Title: VisualizationSceneScalarData Pages: 1 -->
<!--zoomable 323 -->
<svg id="main" version="1.1" xmlns="http://www.w3.org/2000/svg" xmlns:xlink="http://www.w3.org/1999/xlink" xml:space="preserve" onload="init(evt)">
<style type="text/css"><![CDATA[
.edge:hover path { stroke: red; }
.edge:hover polygon { stroke: red; fill: red; }
]]></style>
<script type="text/javascript"><![CDATA[
var edges = document.getElementsByTagName('g');
if (edges && edges.length) {
  for (var i=0;i<edges.length;i++) {
    if (edges[i].id.substr(0,4)=='edge') {
      edges[i].setAttribute('class','edge');
    }
  }
}
]]></script>
        <defs>
                <circle id="rim" cx="0" cy="0" r="7"/>
                <circle id="rim2" cx="0" cy="0" r="3.5"/>
                <g id="zoomPlus">
                        <use xlink:href="#rim" fill="#404040">
                                <set attributeName="fill" to="#808080" begin="zoomplus.mouseover" end="zoomplus.mouseout"/>
                        </use>
                        <path d="M-4,0h8M0,-4v8" fill="none" stroke="white" stroke-width="1.5" pointer-events="none"/>
                </g>
                <g id="zoomMin">
                        <use xlink:href="#rim" fill="#404040">
                                <set attributeName="fill" to="#808080" begin="zoomminus.mouseover" end="zoomminus.mouseout"/>
                        </use>
                        <path d="M-4,0h8" fill="none" stroke="white" stroke-width="1.5" pointer-events="none"/>
                </g>
                <g id="dirArrow">
                        <path fill="none" stroke="white" stroke-width="1.5" d="M0,-3.0v7 M-2.5,-0.5L0,-3.0L2.5,-0.5"/>
                </g>
               <g id="resetDef">
                       <use xlink:href="#rim2" fill="#404040">
                               <set attributeName="fill" to="#808080" begin="reset.mouseover" end="reset.mouseout"/>
                       </use>
               </g>
        </defs>

<script type="text/javascript">
var viewWidth = 1066;
var viewHeight = 323;
var sectionId = 'dynsection-1';
</script>
<script xlink:href="svgpan.js"/>
<svg id="graph" class="graph">
<g id="viewport">
<title>VisualizationSceneScalarData</title>
<polygon fill="white" stroke="white" points="-4,5 -4,-319 1063,-319 1063,5 -4,5"/>
<!-- Node1 -->
<g id="node1" class="node"><title>Node1</title>
<polygon fill="#bfbfbf" stroke="black" points="828.5,-94.5 828.5,-117.5 1057.5,-117.5 1057.5,-94.5 828.5,-94.5"/>
<text text-anchor="middle" x="943" y="-102.3" font-family="Helvetica,sans-Serif" font-size="14.00">VisualizationSceneScalarData</text>
</g>
<!-- Node2 -->
<g id="node2" class="node"><title>Node2</title>
<g id="a_node2"><a xlink:href="classVisualizationScene.html" target="_top" xlink:title="VisualizationScene">
<polygon fill="white" stroke="black" points="520,-204.5 520,-227.5 670,-227.5 670,-204.5 520,-204.5"/>
<text text-anchor="middle" x="595" y="-212.3" font-family="Helvetica,sans-Serif" font-size="14.00">VisualizationScene</text>
</a>
</g>
</g>
<!-- Node2&#45;&gt;Node1 -->
<g id="edge1" class="edge"><title>Node2&#45;&gt;Node1</title>
<path fill="none" stroke="midnightblue" d="M680.448,-221.205C720.751,-221.02 769.008,-216.827 810,-202 861.162,-183.495 909.831,-138.747 930.968,-117.53"/>
<polygon fill="midnightblue" stroke="midnightblue" points="680.394,-217.705 670.382,-221.17 680.369,-224.705 680.394,-217.705"/>
</g>
<!-- Node3 -->
<g id="node3" class="node"><title>Node3</title>
<g id="a_node3"><a xlink:href="classSdlWindow.html" target="_top" xlink:title="SdlWindow">
<polygon fill="white" stroke="black" points="294.5,-291.5 294.5,-314.5 389.5,-314.5 389.5,-291.5 294.5,-291.5"/>
<text text-anchor="middle" x="342" y="-299.3" font-family="Helvetica,sans-Serif" font-size="14.00">SdlWindow</text>
</a>
</g>
</g>
<!-- Node3&#45;&gt;Node2 -->
<g id="edge2" class="edge"><title>Node3&#45;&gt;Node2</title>
<path fill="none" stroke="#9a32cd" stroke-dasharray="5,2" d="M399.83,-291.416C430.563,-284.39 468.897,-274.385 502,-262 527.59,-252.426 555.453,-237.865 573.733,-227.698"/>
<polygon fill="#9a32cd" stroke="#9a32cd" points="398.709,-288.081 389.718,-293.684 400.241,-294.911 398.709,-288.081"/>
<text text-anchor="middle" x="467" y="-286.8" font-family="Helvetica,sans-Serif" font-size="14.00"> wnd</text>
</g>
<!-- Node4 -->
<g id="node4" class="node"><title>Node4</title>
<g id="a_node4"><a xlink:href="structMaterial.html" target="_top" xlink:title="Material">
<polygon fill="white" stroke="black" points="305,-249.5 305,-272.5 379,-272.5 379,-249.5 305,-249.5"/>
<text text-anchor="middle" x="342" y="-257.3" font-family="Helvetica,sans-Serif" font-size="14.00">Material</text>
</a>
</g>
</g>
<!-- Node4&#45;&gt;Node2 -->
<g id="edge3" class="edge"><title>Node4&#45;&gt;Node2</title>
<path fill="none" stroke="#9a32cd" stroke-dasharray="5,2" d="M389.099,-252.735C428.513,-245.669 485.659,-235.424 529.592,-227.547"/>
<polygon fill="#9a32cd" stroke="#9a32cd" points="388.455,-249.295 379.229,-254.505 389.69,-256.185 388.455,-249.295"/>
<text text-anchor="middle" x="467" y="-246.8" font-family="Helvetica,sans-Serif" font-size="14.00"> BLK_MAT</text>
</g>
<!-- Node5 -->
<g id="node5" class="node"><title>Node5</title>
<polygon fill="white" stroke="#bfbfbf" points="0.5,-223.5 0.5,-246.5 169.5,-246.5 169.5,-223.5 0.5,-223.5"/>
<text text-anchor="middle" x="85" y="-231.3" font-family="Helvetica,sans-Serif" font-size="14.00">std::array&lt; float, 4 &gt;</text>
</g>
<!-- Node5&#45;&gt;Node4 -->
<g id="edge4" class="edge"><title>Node5&#45;&gt;Node4</title>
<path fill="none" stroke="#9a32cd" stroke-dasharray="5,2" d="M179.886,-244.573C223.315,-249.001 272.347,-254 304.793,-257.308"/>
<polygon fill="#9a32cd" stroke="#9a32cd" points="180.153,-241.082 169.85,-243.549 179.443,-248.046 180.153,-241.082"/>
<text text-anchor="middle" x="220" y="-284.8" font-family="Helvetica,sans-Serif" font-size="14.00"> ambient</text>
<text text-anchor="middle" x="220" y="-269.8" font-family="Helvetica,sans-Serif" font-size="14.00">diffuse</text>
<text text-anchor="middle" x="220" y="-254.8" font-family="Helvetica,sans-Serif" font-size="14.00">specular</text>
</g>
<!-- Node5&#45;&gt;Node2 -->
<g id="edge7" class="edge"><title>Node5&#45;&gt;Node2</title>
<path fill="none" stroke="#9a32cd" stroke-dasharray="5,2" d="M179.876,-229.417C208.774,-227.827 240.692,-226.203 270,-225 355.742,-221.48 454.306,-218.96 519.989,-217.498"/>
<polygon fill="#9a32cd" stroke="#9a32cd" points="179.58,-225.928 169.79,-229.976 179.968,-232.917 179.58,-225.928"/>
<text text-anchor="middle" x="342" y="-228.8" font-family="Helvetica,sans-Serif" font-size="14.00"> _l0_pos</text>
</g>
<!-- Node6 -->
<g id="node6" class="node"><title>Node6</title>
<g id="a_node6"><a xlink:href="classPaletteState.html" target="_top" xlink:title="PaletteState">
<polygon fill="white" stroke="black" points="290.5,-156.5 290.5,-179.5 393.5,-179.5 393.5,-156.5 290.5,-156.5"/>
<text text-anchor="middle" x="342" y="-164.3" font-family="Helvetica,sans-Serif" font-size="14.00">PaletteState</text>
</a>
</g>
</g>
<!-- Node6&#45;&gt;Node2 -->
<g id="edge5" class="edge"><title>Node6&#45;&gt;Node2</title>
<path fill="none" stroke="#9a32cd" stroke-dasharray="5,2" d="M403.781,-172.584C433.596,-175.51 469.91,-180.088 502,-187 522.464,-191.408 544.879,-198.425 562.459,-204.453"/>
<polygon fill="#9a32cd" stroke="#9a32cd" points="403.809,-169.071 393.524,-171.616 403.152,-176.04 403.809,-169.071"/>
<text text-anchor="middle" x="467" y="-190.8" font-family="Helvetica,sans-Serif" font-size="14.00"> palette</text>
</g>
<!-- Node7 -->
<g id="node7" class="node"><title>Node7</title>
<g id="a_node7"><a xlink:href="classCamera.html" target="_top" xlink:title="Camera">
<polygon fill="white" stroke="black" points="305,-114.5 305,-137.5 379,-137.5 379,-114.5 305,-114.5"/>
<text text-anchor="middle" x="342" y="-122.3" font-family="Helvetica,sans-Serif" font-size="14.00">Camera</text>
</a>
</g>
</g>
<!-- Node7&#45;&gt;Node2 -->
<g id="edge6" class="edge"><title>Node7&#45;&gt;Node2</title>
<path fill="none" stroke="#9a32cd" stroke-dasharray="5,2" d="M389.253,-130.352C421.7,-134.514 465.609,-142.406 502,-157 531.763,-168.936 562.324,-190.825 579.658,-204.325"/>
<polygon fill="#9a32cd" stroke="#9a32cd" points="389.493,-126.856 379.145,-129.128 388.652,-133.805 389.493,-126.856"/>
<text text-anchor="middle" x="467" y="-160.8" font-family="Helvetica,sans-Serif" font-size="14.00"> cam</text>
</g>
<!-- Node8 -->
<g id="node8" class="node"><title>Node8</title>
<g id="a_node8"><a xlink:href="classgl3_1_1GlDrawable.html" target="_top" xlink:title="gl3::GlDrawable">
<polygon fill="white" stroke="black" points="529.5,-116.5 529.5,-139.5 660.5,-139.5 660.5,-116.5 529.5,-116.5"/>
<text text-anchor="middle" x="595" y="-124.3" font-family="Helvetica,sans-Serif" font-size="14.00">gl3::GlDrawable</text>
</a>
</g>
</g>
<!-- Node8&#45;&gt;Node1 -->
<g id="edge8" class="edge"><title>Node8&#45;&gt;Node1</title>
<path fill="none" stroke="#9a32cd" stroke-dasharray="5,2" d="M670.852,-123.241C716.798,-120.319 776.547,-116.52 828.26,-113.232"/>
<polygon fill="#9a32cd" stroke="#9a32cd" points="670.432,-119.76 660.674,-123.888 670.876,-126.746 670.432,-119.76"/>
<text text-anchor="middle" x="749" y="-186.8" font-family="Helvetica,sans-Serif" font-size="14.00"> coord_cross_buf</text>
<text text-anchor="middle" x="749" y="-171.8" font-family="Helvetica,sans-Serif" font-size="14.00">axes_buf</text>
<text text-anchor="middle" x="749" y="-156.8" font-family="Helvetica,sans-Serif" font-size="14.00">color_bar</text>
<text text-anchor="middle" x="749" y="-141.8" font-family="Helvetica,sans-Serif" font-size="14.00">ruler_buf</text>
<text text-anchor="middle" x="749" y="-126.8" font-family="Helvetica,sans-Serif" font-size="14.00">caption_buf</text>
</g>
<!-- Node9 -->
<g id="node9" class="node"><title>Node9</title>
<g id="a_node9"><a xlink:href="classPlane.html" target="_top" xlink:title="Plane">
<polygon fill="white" stroke="black" points="567,-74.5 567,-97.5 623,-97.5 623,-74.5 567,-74.5"/>
<text text-anchor="middle" x="595" y="-82.3" font-family="Helvetica,sans-Serif" font-size="14.00">Plane</text>
</a>
</g>
</g>
<!-- Node9&#45;&gt;Node1 -->
<g id="edge9" class="edge"><title>Node9&#45;&gt;Node1</title>
<path fill="none" stroke="#9a32cd" stroke-dasharray="5,2" d="M633.276,-85.237C676.017,-84.6603 748.157,-84.5987 810,-89 827.631,-90.2548 846.513,-92.2778 864.322,-94.4977"/>
<polygon fill="#9a32cd" stroke="#9a32cd" points="633.013,-81.7405 623.067,-85.3922 633.12,-88.7397 633.013,-81.7405"/>
<text text-anchor="middle" x="749" y="-92.8" font-family="Helvetica,sans-Serif" font-size="14.00"> CuttingPlane</text>
</g>
<!-- Node10 -->
<g id="node10" class="node"><title>Node10</title>
<g id="a_node10"><a xlink:title="STL class. ">
<polygon fill="white" stroke="#bfbfbf" points="551,-7.5 551,-30.5 639,-30.5 639,-7.5 551,-7.5"/>
<text text-anchor="middle" x="595" y="-15.3" font-family="Helvetica,sans-Serif" font-size="14.00">std::string</text>
</a>
</g>
</g>
<!-- Node10&#45;&gt;Node1 -->
<g id="edge10" class="edge"><title>Node10&#45;&gt;Node1</title>
<path fill="none" stroke="#9a32cd" stroke-dasharray="5,2" d="M649.327,-17.2878C693.289,-17.277 756.831,-20.5132 810,-36 854.579,-48.9849 901.353,-78.0347 925.457,-94.3352"/>
<polygon fill="#9a32cd" stroke="#9a32cd" points="649.126,-13.7888 639.147,-17.3483 649.167,-20.7887 649.126,-13.7888"/>
<text text-anchor="middle" x="749" y="-69.8" font-family="Helvetica,sans-Serif" font-size="14.00"> a_label_x</text>
<text text-anchor="middle" x="749" y="-54.8" font-family="Helvetica,sans-Serif" font-size="14.00">a_label_y</text>
<text text-anchor="middle" x="749" y="-39.8" font-family="Helvetica,sans-Serif" font-size="14.00">a_label_z</text>
</g>
<!-- Node11 -->
<g id="node11" class="node"><title>Node11</title>
<polygon fill="white" stroke="#bfbfbf" points="270,-0 270,-38 414,-38 414,-0 270,-0"/>
<text text-anchor="start" x="278" y="-22.8" font-family="Helvetica,sans-Serif" font-size="14.00">std::basic_string&lt;</text>
<text text-anchor="middle" x="342" y="-7.8" font-family="Helvetica,sans-Serif" font-size="14.00"> char &gt;</text>
</g>
<!-- Node11&#45;&gt;Node10 -->
<g id="edge11" class="edge"><title>Node11&#45;&gt;Node10</title>
<path fill="none" stroke="midnightblue" d="M424.503,-19C466.608,-19 516.278,-19 550.923,-19"/>
<polygon fill="midnightblue" stroke="midnightblue" points="424.255,-15.5001 414.255,-19 424.255,-22.5001 424.255,-15.5001"/>
</g>
</g>
</svg>
        <g id="navigator" transform="translate(0 0)" fill="#404254">
                <rect fill="#f2f5e9" fill-opacity="0.5" stroke="#606060" stroke-width=".5" x="0" y="0" width="60" height="60"/>
                <use id="zoomplus" xlink:href="#zoomPlus" x="17" y="9" onmousedown="handleZoom(evt,'in')"/>
                <use id="zoomminus" xlink:href="#zoomMin" x="42" y="9" onmousedown="handleZoom(evt,'out')"/>
                <use id="reset" xlink:href="#resetDef" x="30" y="36" onmousedown="handleReset()"/>
                <g id="arrowUp" xlink:href="#dirArrow" transform="translate(30 24)" onmousedown="handlePan(0,-1)">
                  <use xlink:href="#rim" fill="#404040">
                        <set attributeName="fill" to="#808080" begin="arrowUp.mouseover" end="arrowUp.mouseout"/>
                  </use>
                  <path fill="none" stroke="white" stroke-width="1.5" d="M0,-3.0v7 M-2.5,-0.5L0,-3.0L2.5,-0.5"/>
                </g>
                <g id="arrowRight" xlink:href="#dirArrow" transform="rotate(90) translate(36 -43)" onmousedown="handlePan(1,0)">
                  <use xlink:href="#rim" fill="#404040">
                        <set attributeName="fill" to="#808080" begin="arrowRight.mouseover" end="arrowRight.mouseout"/>
                  </use>
                  <path fill="none" stroke="white" stroke-width="1.5" d="M0,-3.0v7 M-2.5,-0.5L0,-3.0L2.5,-0.5"/>
                </g>
                <g id="arrowDown" xlink:href="#dirArrow" transform="rotate(180) translate(-30 -48)" onmousedown="handlePan(0,1)">
                  <use xlink:href="#rim" fill="#404040">
                        <set attributeName="fill" to="#808080" begin="arrowDown.mouseover" end="arrowDown.mouseout"/>
                  </use>
                  <path fill="none" stroke="white" stroke-width="1.5" d="M0,-3.0v7 M-2.5,-0.5L0,-3.0L2.5,-0.5"/>
                </g>
                <g id="arrowLeft" xlink:href="#dirArrow" transform="rotate(270) translate(-36 17)" onmousedown="handlePan(-1,0)">
                  <use xlink:href="#rim" fill="#404040">
                        <set attributeName="fill" to="#808080" begin="arrowLeft.mouseover" end="arrowLeft.mouseout"/>
                  </use>
                  <path fill="none" stroke="white" stroke-width="1.5" d="M0,-3.0v7 M-2.5,-0.5L0,-3.0L2.5,-0.5"/>
                </g>
        </g>
        <svg viewBox="0 0 15 15" width="100%" height="30px" preserveAspectRatio="xMaxYMin meet">
         <g id="arrow_out" transform="scale(0.3 0.3)">
          <a xlink:href="classVisualizationSceneScalarData__coll__graph_org.svg" target="_base">
           <rect id="button" ry="5" rx="5" y="6" x="6" height="38" width="38"
                fill="#f2f5e9" fill-opacity="0.5" stroke="#606060" stroke-width="1.0"/>
           <path id="arrow"
             d="M 11.500037,31.436501 C 11.940474,20.09759 22.043105,11.32322 32.158766,21.979434 L 37.068811,17.246167 C 37.068811,17.246167 37.088388,32 37.088388,32 L 22.160133,31.978069 C 22.160133,31.978069 26.997745,27.140456 26.997745,27.140456 C 18.528582,18.264221 13.291696,25.230495 11.500037,31.436501 z"
             style="fill:#404040;"/>
          </a>
         </g>
        </svg>
</svg>
