<?xml version="1.0" encoding="UTF-8" standalone="no"?>
<!DOCTYPE svg PUBLIC "-//W3C//DTD SVG 1.1//EN"
 "http://www.w3.org/Graphics/SVG/1.1/DTD/svg11.dtd">
<!-- Generated by graphviz version 2.44.1 (20200629.0846)
 -->
<!-- Title: gl3::GLDevice Pages: 1 -->
<svg width="276pt" height="92pt"
 viewBox="0.00 0.00 276.00 92.00" xmlns="http://www.w3.org/2000/svg" xmlns:xlink="http://www.w3.org/1999/xlink">
<g id="graph0" class="graph" transform="scale(1 1) rotate(0) translate(4 88)">
<title>gl3::GLDevice</title>
<polygon fill="white" stroke="transparent" points="-4,4 -4,-88 272,-88 272,4 -4,4"/>
<!-- Node1 -->
<g id="node1" class="node">
<title>Node1</title>
<g id="a_node1"><a xlink:title=" ">
<polygon fill="#bfbfbf" stroke="black" points="85.5,-60.5 85.5,-83.5 187.5,-83.5 187.5,-60.5 85.5,-60.5"/>
<text text-anchor="middle" x="136.5" y="-68.3" font-family="Helvetica,sans-Serif" font-size="14.00">gl3::GLDevice</text>
</a>
</g>
</g>
<!-- Node2 -->
<g id="node2" class="node">
<title>Node2</title>
<g id="a_node2"><a xlink:href="classgl3_1_1CoreGLDevice.html" target="_top" xlink:title=" ">
<polygon fill="white" stroke="black" points="0,-0.5 0,-23.5 131,-23.5 131,-0.5 0,-0.5"/>
<text text-anchor="middle" x="65.5" y="-8.3" font-family="Helvetica,sans-Serif" font-size="14.00">gl3::CoreGLDevice</text>
</a>
</g>
</g>
<!-- Node1&#45;&gt;Node2 -->
<g id="edge1" class="edge">
<title>Node1&#45;&gt;Node2</title>
<path fill="none" stroke="midnightblue" d="M115.66,-53.98C103.61,-44.13 88.83,-32.05 78.44,-23.57"/>
<polygon fill="midnightblue" stroke="midnightblue" points="113.52,-56.75 123.48,-60.36 117.95,-51.32 113.52,-56.75"/>
</g>
<!-- Node3 -->
<g id="node3" class="node">
<title>Node3</title>
<g id="a_node3"><a xlink:href="classgl3_1_1FFGLDevice.html" target="_top" xlink:title=" ">
<polygon fill="white" stroke="black" points="149,-0.5 149,-23.5 268,-23.5 268,-0.5 149,-0.5"/>
<text text-anchor="middle" x="208.5" y="-8.3" font-family="Helvetica,sans-Serif" font-size="14.00">gl3::FFGLDevice</text>
</a>
</g>
</g>
<!-- Node1&#45;&gt;Node3 -->
<g id="edge2" class="edge">
<title>Node1&#45;&gt;Node3</title>
<path fill="none" stroke="midnightblue" d="M157.63,-53.98C169.85,-44.13 184.85,-32.05 195.38,-23.57"/>
<polygon fill="midnightblue" stroke="midnightblue" points="155.3,-51.36 149.71,-60.36 159.69,-56.81 155.3,-51.36"/>
</g>
</g>
</svg>
