<?xml version="1.0" encoding="UTF-8" standalone="no"?>
<!DOCTYPE svg PUBLIC "-//W3C//DTD SVG 1.1//EN"
 "http://www.w3.org/Graphics/SVG/1.1/DTD/svg11.dtd">
<!-- Generated by graphviz version 2.44.1 (20200629.0846)
 -->
<!-- Title: VisualizationSceneSolution Pages: 1 -->
<svg width="205pt" height="212pt"
 viewBox="0.00 0.00 205.00 212.00" xmlns="http://www.w3.org/2000/svg" xmlns:xlink="http://www.w3.org/1999/xlink">
<g id="graph0" class="graph" transform="scale(1 1) rotate(0) translate(4 208)">
<title>VisualizationSceneSolution</title>
<polygon fill="white" stroke="transparent" points="-4,4 -4,-208 201,-208 201,4 -4,4"/>
<!-- Node1 -->
<g id="node1" class="node">
<title>Node1</title>
<g id="a_node1"><a xlink:title=" ">
<polygon fill="#bfbfbf" stroke="black" points="9,-60.5 9,-83.5 188,-83.5 188,-60.5 9,-60.5"/>
<text text-anchor="middle" x="98.5" y="-68.3" font-family="Helvetica,sans-Serif" font-size="14.00">VisualizationSceneSolution</text>
</a>
</g>
</g>
<!-- Node4 -->
<g id="node4" class="node">
<title>Node4</title>
<g id="a_node4"><a xlink:href="classVisualizationSceneVector.html" target="_top" xlink:title=" ">
<polygon fill="white" stroke="black" points="13.5,-0.5 13.5,-23.5 183.5,-23.5 183.5,-0.5 13.5,-0.5"/>
<text text-anchor="middle" x="98.5" y="-8.3" font-family="Helvetica,sans-Serif" font-size="14.00">VisualizationSceneVector</text>
</a>
</g>
</g>
<!-- Node1&#45;&gt;Node4 -->
<g id="edge3" class="edge">
<title>Node1&#45;&gt;Node4</title>
<path fill="none" stroke="midnightblue" d="M98.5,-50.19C98.5,-41.17 98.5,-30.99 98.5,-23.57"/>
<polygon fill="midnightblue" stroke="midnightblue" points="95,-50.36 98.5,-60.36 102,-50.36 95,-50.36"/>
</g>
<!-- Node2 -->
<g id="node2" class="node">
<title>Node2</title>
<g id="a_node2"><a xlink:href="classVisualizationSceneScalarData.html" target="_top" xlink:title=" ">
<polygon fill="white" stroke="black" points="0,-120.5 0,-143.5 197,-143.5 197,-120.5 0,-120.5"/>
<text text-anchor="middle" x="98.5" y="-128.3" font-family="Helvetica,sans-Serif" font-size="14.00">VisualizationSceneScalarData</text>
</a>
</g>
</g>
<!-- Node2&#45;&gt;Node1 -->
<g id="edge1" class="edge">
<title>Node2&#45;&gt;Node1</title>
<path fill="none" stroke="midnightblue" d="M98.5,-110.19C98.5,-101.17 98.5,-90.99 98.5,-83.57"/>
<polygon fill="midnightblue" stroke="midnightblue" points="95,-110.36 98.5,-120.36 102,-110.36 95,-110.36"/>
</g>
<!-- Node3 -->
<g id="node3" class="node">
<title>Node3</title>
<g id="a_node3"><a xlink:href="classVisualizationScene.html" target="_top" xlink:title=" ">
<polygon fill="white" stroke="black" points="33,-180.5 33,-203.5 164,-203.5 164,-180.5 33,-180.5"/>
<text text-anchor="middle" x="98.5" y="-188.3" font-family="Helvetica,sans-Serif" font-size="14.00">VisualizationScene</text>
</a>
</g>
</g>
<!-- Node3&#45;&gt;Node2 -->
<g id="edge2" class="edge">
<title>Node3&#45;&gt;Node2</title>
<path fill="none" stroke="midnightblue" d="M98.5,-170.19C98.5,-161.17 98.5,-150.99 98.5,-143.57"/>
<polygon fill="midnightblue" stroke="midnightblue" points="95,-170.36 98.5,-180.36 102,-170.36 95,-170.36"/>
</g>
</g>
</svg>
