<?xml version="1.0" encoding="UTF-8" standalone="no"?>
<!DOCTYPE svg PUBLIC "-//W3C//DTD SVG 1.1//EN"
 "http://www.w3.org/Graphics/SVG/1.1/DTD/svg11.dtd">
<!-- Generated by graphviz version 2.30.1 (20200304.1809)
 -->
<!-- Title: VisualizationSceneSolution3d Pages: 1 -->
<svg width="394pt" height="292pt"
 viewBox="0.00 0.00 394.00 292.00" xmlns="http://www.w3.org/2000/svg" xmlns:xlink="http://www.w3.org/1999/xlink">
<g id="graph0" class="graph" transform="scale(1 1) rotate(0) translate(4 288)">
<title>VisualizationSceneSolution3d</title>
<polygon fill="white" stroke="white" points="-4,5 -4,-288 391,-288 391,5 -4,5"/>
<!-- Node1 -->
<g id="node1" class="node"><title>Node1</title>
<polygon fill="#bfbfbf" stroke="black" points="83,-0.5 83,-23.5 309,-23.5 309,-0.5 83,-0.5"/>
<text text-anchor="middle" x="196" y="-8.3" font-family="Helvetica,sans-Serif" font-size="14.00">VisualizationSceneSolution3d</text>
</g>
<!-- Node2 -->
<g id="node2" class="node"><title>Node2</title>
<g id="a_node2"><a xlink:href="classVisualizationSceneScalarData.html" target="_top" xlink:title="VisualizationSceneScalarData">
<polygon fill="white" stroke="black" points="81.5,-62.5 81.5,-85.5 310.5,-85.5 310.5,-62.5 81.5,-62.5"/>
<text text-anchor="middle" x="196" y="-70.3" font-family="Helvetica,sans-Serif" font-size="14.00">VisualizationSceneScalarData</text>
</a>
</g>
</g>
<!-- Node2&#45;&gt;Node1 -->
<g id="edge1" class="edge"><title>Node2&#45;&gt;Node1</title>
<path fill="none" stroke="midnightblue" d="M196,-52.2312C196,-42.5922 196,-31.5444 196,-23.6339"/>
<polygon fill="midnightblue" stroke="midnightblue" points="192.5,-52.2732 196,-62.2732 199.5,-52.2732 192.5,-52.2732"/>
</g>
<!-- Node3 -->
<g id="node3" class="node"><title>Node3</title>
<g id="a_node3"><a xlink:href="classVisualizationScene.html" target="_top" xlink:title="VisualizationScene">
<polygon fill="white" stroke="black" points="0,-168.5 0,-191.5 150,-191.5 150,-168.5 0,-168.5"/>
<text text-anchor="middle" x="75" y="-176.3" font-family="Helvetica,sans-Serif" font-size="14.00">VisualizationScene</text>
</a>
</g>
</g>
<!-- Node3&#45;&gt;Node2 -->
<g id="edge2" class="edge"><title>Node3&#45;&gt;Node2</title>
<path fill="none" stroke="midnightblue" d="M95.36,-161.501C120.648,-139.765 162.985,-103.376 183.755,-85.5248"/>
<polygon fill="midnightblue" stroke="midnightblue" points="92.7957,-159.089 87.4934,-168.262 97.3585,-164.398 92.7957,-159.089"/>
</g>
<!-- Node4 -->
<g id="node4" class="node"><title>Node4</title>
<g id="a_node4"><a xlink:href="classCamera.html" target="_top" xlink:title="Camera">
<polygon fill="white" stroke="black" points="38,-252.5 38,-275.5 112,-275.5 112,-252.5 38,-252.5"/>
<text text-anchor="middle" x="75" y="-260.3" font-family="Helvetica,sans-Serif" font-size="14.00">Camera</text>
</a>
</g>
</g>
<!-- Node4&#45;&gt;Node3 -->
<g id="edge3" class="edge"><title>Node4&#45;&gt;Node3</title>
<path fill="none" stroke="#9a32cd" stroke-dasharray="5,2" d="M75,-242.203C75,-226.114 75,-204.493 75,-191.723"/>
<polygon fill="#9a32cd" stroke="#9a32cd" points="71.5001,-242.28 75,-252.28 78.5001,-242.28 71.5001,-242.28"/>
<text text-anchor="middle" x="93" y="-214.3" font-family="Helvetica,sans-Serif" font-size="14.00"> cam</text>
</g>
<!-- Node5 -->
<g id="node5" class="node"><title>Node5</title>
<g id="a_node5"><a xlink:href="classPlane.html" target="_top" xlink:title="Plane">
<polygon fill="white" stroke="black" points="168,-168.5 168,-191.5 224,-191.5 224,-168.5 168,-168.5"/>
<text text-anchor="middle" x="196" y="-176.3" font-family="Helvetica,sans-Serif" font-size="14.00">Plane</text>
</a>
</g>
</g>
<!-- Node5&#45;&gt;Node2 -->
<g id="edge4" class="edge"><title>Node5&#45;&gt;Node2</title>
<path fill="none" stroke="#9a32cd" stroke-dasharray="5,2" d="M196,-157.984C196,-136.019 196,-102.445 196,-85.5248"/>
<polygon fill="#9a32cd" stroke="#9a32cd" points="192.5,-158.262 196,-168.262 199.5,-158.262 192.5,-158.262"/>
<text text-anchor="middle" x="243.5" y="-123.3" font-family="Helvetica,sans-Serif" font-size="14.00"> CuttingPlane</text>
</g>
<!-- Node6 -->
<g id="node6" class="node"><title>Node6</title>
<g id="a_node6"><a xlink:title="STL class. ">
<polygon fill="white" stroke="#bfbfbf" points="270,-168.5 270,-191.5 358,-191.5 358,-168.5 270,-168.5"/>
<text text-anchor="middle" x="314" y="-176.3" font-family="Helvetica,sans-Serif" font-size="14.00">std::string</text>
</a>
</g>
</g>
<!-- Node6&#45;&gt;Node2 -->
<g id="edge5" class="edge"><title>Node6&#45;&gt;Node2</title>
<path fill="none" stroke="#9a32cd" stroke-dasharray="5,2" d="M313.134,-158.063C311.334,-141.309 306.209,-118.324 292,-104 283.785,-95.7185 273.294,-89.7854 262.282,-85.5388"/>
<polygon fill="#9a32cd" stroke="#9a32cd" points="309.678,-158.774 313.92,-168.483 316.658,-158.248 309.678,-158.774"/>
<text text-anchor="middle" x="347" y="-138.3" font-family="Helvetica,sans-Serif" font-size="14.00"> a_label_x</text>
<text text-anchor="middle" x="347" y="-123.3" font-family="Helvetica,sans-Serif" font-size="14.00">a_label_y</text>
<text text-anchor="middle" x="347" y="-108.3" font-family="Helvetica,sans-Serif" font-size="14.00">a_label_z</text>
</g>
<!-- Node7 -->
<g id="node7" class="node"><title>Node7</title>
<polygon fill="white" stroke="#bfbfbf" points="242,-245 242,-283 386,-283 386,-245 242,-245"/>
<text text-anchor="start" x="250" y="-267.8" font-family="Helvetica,sans-Serif" font-size="14.00">std::basic_string&lt;</text>
<text text-anchor="middle" x="314" y="-252.8" font-family="Helvetica,sans-Serif" font-size="14.00"> char &gt;</text>
</g>
<!-- Node7&#45;&gt;Node6 -->
<g id="edge6" class="edge"><title>Node7&#45;&gt;Node6</title>
<path fill="none" stroke="midnightblue" d="M314,-234.616C314,-219.871 314,-202.714 314,-191.857"/>
<polygon fill="midnightblue" stroke="midnightblue" points="310.5,-234.802 314,-244.802 317.5,-234.802 310.5,-234.802"/>
</g>
</g>
</svg>
