<?xml version="1.0" encoding="UTF-8" standalone="no"?>
<!DOCTYPE svg PUBLIC "-//W3C//DTD SVG 1.1//EN"
 "http://www.w3.org/Graphics/SVG/1.1/DTD/svg11.dtd">
<!-- Generated by graphviz version 2.30.1 (20200304.1809)
 -->
<!-- Title: VisualizationSceneVector Pages: 1 -->
<!--zoomable 339 -->
<svg id="main" version="1.1" xmlns="http://www.w3.org/2000/svg" xmlns:xlink="http://www.w3.org/1999/xlink" xml:space="preserve" onload="init(evt)">
<style type="text/css"><![CDATA[
.edge:hover path { stroke: red; }
.edge:hover polygon { stroke: red; fill: red; }
]]></style>
<script type="text/javascript"><![CDATA[
var edges = document.getElementsByTagName('g');
if (edges && edges.length) {
  for (var i=0;i<edges.length;i++) {
    if (edges[i].id.substr(0,4)=='edge') {
      edges[i].setAttribute('class','edge');
    }
  }
}
]]></script>
        <defs>
                <circle id="rim" cx="0" cy="0" r="7"/>
                <circle id="rim2" cx="0" cy="0" r="3.5"/>
                <g id="zoomPlus">
                        <use xlink:href="#rim" fill="#404040">
                                <set attributeName="fill" to="#808080" begin="zoomplus.mouseover" end="zoomplus.mouseout"/>
                        </use>
                        <path d="M-4,0h8M0,-4v8" fill="none" stroke="white" stroke-width="1.5" pointer-events="none"/>
                </g>
                <g id="zoomMin">
                        <use xlink:href="#rim" fill="#404040">
                                <set attributeName="fill" to="#808080" begin="zoomminus.mouseover" end="zoomminus.mouseout"/>
                        </use>
                        <path d="M-4,0h8" fill="none" stroke="white" stroke-width="1.5" pointer-events="none"/>
                </g>
                <g id="dirArrow">
                        <path fill="none" stroke="white" stroke-width="1.5" d="M0,-3.0v7 M-2.5,-0.5L0,-3.0L2.5,-0.5"/>
                </g>
               <g id="resetDef">
                       <use xlink:href="#rim2" fill="#404040">
                               <set attributeName="fill" to="#808080" begin="reset.mouseover" end="reset.mouseout"/>
                       </use>
               </g>
        </defs>

<script type="text/javascript">
var viewWidth = 1636;
var viewHeight = 339;
var sectionId = 'dynsection-1';
</script>
<script xlink:href="svgpan.js"/>
<svg id="graph" class="graph">
<g id="viewport">
<title>VisualizationSceneVector</title>
<polygon fill="white" stroke="white" points="-4,5 -4,-335 1633,-335 1633,5 -4,5"/>
<!-- Node1 -->
<g id="node1" class="node"><title>Node1</title>
<polygon fill="#bfbfbf" stroke="black" points="1432,-0.5 1432,-23.5 1628,-23.5 1628,-0.5 1432,-0.5"/>
<text text-anchor="middle" x="1530" y="-8.3" font-family="Helvetica,sans-Serif" font-size="14.00">VisualizationSceneVector</text>
</g>
<!-- Node2 -->
<g id="node2" class="node"><title>Node2</title>
<g id="a_node2"><a xlink:href="classVisualizationSceneSolution.html" target="_top" xlink:title="VisualizationSceneSolution">
<polygon fill="white" stroke="black" points="1186,-29.5 1186,-52.5 1394,-52.5 1394,-29.5 1186,-29.5"/>
<text text-anchor="middle" x="1290" y="-37.3" font-family="Helvetica,sans-Serif" font-size="14.00">VisualizationSceneSolution</text>
</a>
</g>
</g>
<!-- Node2&#45;&gt;Node1 -->
<g id="edge1" class="edge"><title>Node2&#45;&gt;Node1</title>
<path fill="none" stroke="midnightblue" d="M1395.66,-28.2471C1408.52,-26.6797 1421.62,-25.0847 1434.32,-23.5368"/>
<polygon fill="midnightblue" stroke="midnightblue" points="1394.91,-24.8129 1385.41,-29.4968 1395.76,-31.7615 1394.91,-24.8129"/>
</g>
<!-- Node3 -->
<g id="node3" class="node"><title>Node3</title>
<g id="a_node3"><a xlink:href="classVisualizationSceneScalarData.html" target="_top" xlink:title="VisualizationSceneScalarData">
<polygon fill="white" stroke="black" points="828.5,-239.5 828.5,-262.5 1057.5,-262.5 1057.5,-239.5 828.5,-239.5"/>
<text text-anchor="middle" x="943" y="-247.3" font-family="Helvetica,sans-Serif" font-size="14.00">VisualizationSceneScalarData</text>
</a>
</g>
</g>
<!-- Node3&#45;&gt;Node2 -->
<g id="edge2" class="edge"><title>Node3&#45;&gt;Node2</title>
<path fill="none" stroke="midnightblue" d="M1026.95,-236.719C1037.65,-233.543 1048.27,-229.683 1058,-225 1154.56,-178.542 1247.42,-85.3015 1278.26,-52.6309"/>
<polygon fill="midnightblue" stroke="midnightblue" points="1025.81,-233.401 1017.11,-239.447 1027.68,-240.147 1025.81,-233.401"/>
</g>
<!-- Node4 -->
<g id="node4" class="node"><title>Node4</title>
<g id="a_node4"><a xlink:href="classVisualizationScene.html" target="_top" xlink:title="VisualizationScene">
<polygon fill="white" stroke="black" points="520,-176.5 520,-199.5 670,-199.5 670,-176.5 520,-176.5"/>
<text text-anchor="middle" x="595" y="-184.3" font-family="Helvetica,sans-Serif" font-size="14.00">VisualizationScene</text>
</a>
</g>
</g>
<!-- Node4&#45;&gt;Node3 -->
<g id="edge3" class="edge"><title>Node4&#45;&gt;Node3</title>
<path fill="none" stroke="midnightblue" d="M669.582,-201.398C731.677,-212.704 819.639,-228.72 878.648,-239.465"/>
<polygon fill="midnightblue" stroke="midnightblue" points="669.927,-197.903 659.462,-199.555 668.673,-204.79 669.927,-197.903"/>
</g>
<!-- Node5 -->
<g id="node5" class="node"><title>Node5</title>
<g id="a_node5"><a xlink:href="classSdlWindow.html" target="_top" xlink:title="SdlWindow">
<polygon fill="white" stroke="black" points="294.5,-247.5 294.5,-270.5 389.5,-270.5 389.5,-247.5 294.5,-247.5"/>
<text text-anchor="middle" x="342" y="-255.3" font-family="Helvetica,sans-Serif" font-size="14.00">SdlWindow</text>
</a>
</g>
</g>
<!-- Node5&#45;&gt;Node4 -->
<g id="edge4" class="edge"><title>Node5&#45;&gt;Node4</title>
<path fill="none" stroke="#9a32cd" stroke-dasharray="5,2" d="M399.87,-249.295C430.461,-243.462 468.65,-235.189 502,-225 525.05,-217.958 550.404,-207.552 568.648,-199.568"/>
<polygon fill="#9a32cd" stroke="#9a32cd" points="398.99,-245.899 389.805,-251.179 400.278,-252.78 398.99,-245.899"/>
<text text-anchor="middle" x="467" y="-246.8" font-family="Helvetica,sans-Serif" font-size="14.00"> wnd</text>
</g>
<!-- Node6 -->
<g id="node6" class="node"><title>Node6</title>
<g id="a_node6"><a xlink:href="structMaterial.html" target="_top" xlink:title="Material">
<polygon fill="white" stroke="black" points="305,-205.5 305,-228.5 379,-228.5 379,-205.5 305,-205.5"/>
<text text-anchor="middle" x="342" y="-213.3" font-family="Helvetica,sans-Serif" font-size="14.00">Material</text>
</a>
</g>
</g>
<!-- Node6&#45;&gt;Node4 -->
<g id="edge5" class="edge"><title>Node6&#45;&gt;Node4</title>
<path fill="none" stroke="#9a32cd" stroke-dasharray="5,2" d="M389.596,-211.616C426.165,-207.391 477.773,-201.429 519.982,-196.552"/>
<polygon fill="#9a32cd" stroke="#9a32cd" points="388.762,-208.189 379.229,-212.814 389.565,-215.143 388.762,-208.189"/>
<text text-anchor="middle" x="467" y="-209.8" font-family="Helvetica,sans-Serif" font-size="14.00"> BLK_MAT</text>
</g>
<!-- Node7 -->
<g id="node7" class="node"><title>Node7</title>
<polygon fill="white" stroke="#bfbfbf" points="0.5,-179.5 0.5,-202.5 169.5,-202.5 169.5,-179.5 0.5,-179.5"/>
<text text-anchor="middle" x="85" y="-187.3" font-family="Helvetica,sans-Serif" font-size="14.00">std::array&lt; float, 4 &gt;</text>
</g>
<!-- Node7&#45;&gt;Node6 -->
<g id="edge6" class="edge"><title>Node7&#45;&gt;Node6</title>
<path fill="none" stroke="#9a32cd" stroke-dasharray="5,2" d="M179.886,-200.573C223.315,-205.001 272.347,-210 304.793,-213.308"/>
<polygon fill="#9a32cd" stroke="#9a32cd" points="180.153,-197.082 169.85,-199.549 179.443,-204.046 180.153,-197.082"/>
<text text-anchor="middle" x="220" y="-241.8" font-family="Helvetica,sans-Serif" font-size="14.00"> ambient</text>
<text text-anchor="middle" x="220" y="-226.8" font-family="Helvetica,sans-Serif" font-size="14.00">diffuse</text>
<text text-anchor="middle" x="220" y="-211.8" font-family="Helvetica,sans-Serif" font-size="14.00">specular</text>
</g>
<!-- Node7&#45;&gt;Node4 -->
<g id="edge9" class="edge"><title>Node7&#45;&gt;Node4</title>
<path fill="none" stroke="#9a32cd" stroke-dasharray="5,2" d="M179.859,-184.914C208.756,-183.305 240.678,-181.796 270,-181 333.976,-179.263 350.012,-179.756 414,-181 448.707,-181.675 487.157,-183.08 519.58,-184.456"/>
<polygon fill="#9a32cd" stroke="#9a32cd" points="179.559,-181.425 169.773,-185.486 179.955,-188.414 179.559,-181.425"/>
<text text-anchor="middle" x="342" y="-184.8" font-family="Helvetica,sans-Serif" font-size="14.00"> _l0_pos</text>
</g>
<!-- Node8 -->
<g id="node8" class="node"><title>Node8</title>
<g id="a_node8"><a xlink:href="classPaletteState.html" target="_top" xlink:title="PaletteState">
<polygon fill="white" stroke="black" points="290.5,-112.5 290.5,-135.5 393.5,-135.5 393.5,-112.5 290.5,-112.5"/>
<text text-anchor="middle" x="342" y="-120.3" font-family="Helvetica,sans-Serif" font-size="14.00">PaletteState</text>
</a>
</g>
</g>
<!-- Node8&#45;&gt;Node4 -->
<g id="edge7" class="edge"><title>Node8&#45;&gt;Node4</title>
<path fill="none" stroke="#9a32cd" stroke-dasharray="5,2" d="M403.969,-126.485C433.974,-128.912 470.396,-133.675 502,-143 528.604,-150.85 556.947,-165.843 575.031,-176.358"/>
<polygon fill="#9a32cd" stroke="#9a32cd" points="403.873,-122.969 393.642,-125.721 403.357,-129.95 403.873,-122.969"/>
<text text-anchor="middle" x="467" y="-146.8" font-family="Helvetica,sans-Serif" font-size="14.00"> palette</text>
</g>
<!-- Node9 -->
<g id="node9" class="node"><title>Node9</title>
<g id="a_node9"><a xlink:href="classCamera.html" target="_top" xlink:title="Camera">
<polygon fill="white" stroke="black" points="305,-70.5 305,-93.5 379,-93.5 379,-70.5 305,-70.5"/>
<text text-anchor="middle" x="342" y="-78.3" font-family="Helvetica,sans-Serif" font-size="14.00">Camera</text>
</a>
</g>
</g>
<!-- Node9&#45;&gt;Node4 -->
<g id="edge8" class="edge"><title>Node9&#45;&gt;Node4</title>
<path fill="none" stroke="#9a32cd" stroke-dasharray="5,2" d="M389.226,-84.1699C422.019,-87.1752 466.356,-94.2785 502,-111 536.319,-127.1 568.34,-159.226 583.985,-176.454"/>
<polygon fill="#9a32cd" stroke="#9a32cd" points="389.263,-80.6612 379.01,-83.3311 388.69,-87.6378 389.263,-80.6612"/>
<text text-anchor="middle" x="467" y="-114.8" font-family="Helvetica,sans-Serif" font-size="14.00"> cam</text>
</g>
<!-- Node10 -->
<g id="node10" class="node"><title>Node10</title>
<g id="a_node10"><a xlink:href="classgl3_1_1GlDrawable.html" target="_top" xlink:title="gl3::GlDrawable">
<polygon fill="white" stroke="black" points="529.5,-29.5 529.5,-52.5 660.5,-52.5 660.5,-29.5 529.5,-29.5"/>
<text text-anchor="middle" x="595" y="-37.3" font-family="Helvetica,sans-Serif" font-size="14.00">gl3::GlDrawable</text>
</a>
</g>
</g>
<!-- Node10&#45;&gt;Node3 -->
<g id="edge10" class="edge"><title>Node10&#45;&gt;Node3</title>
<path fill="none" stroke="#9a32cd" stroke-dasharray="5,2" d="M670.441,-51.8348C717.445,-62.6312 775.59,-83.9909 810,-126 838.338,-160.597 797.087,-192.683 828,-225 833.683,-230.941 840.421,-235.653 847.738,-239.376"/>
<polygon fill="#9a32cd" stroke="#9a32cd" points="671.108,-48.3982 660.592,-49.6877 669.617,-55.2376 671.108,-48.3982"/>
<text text-anchor="middle" x="749" y="-189.8" font-family="Helvetica,sans-Serif" font-size="14.00"> coord_cross_buf</text>
<text text-anchor="middle" x="749" y="-174.8" font-family="Helvetica,sans-Serif" font-size="14.00">axes_buf</text>
<text text-anchor="middle" x="749" y="-159.8" font-family="Helvetica,sans-Serif" font-size="14.00">color_bar</text>
<text text-anchor="middle" x="749" y="-144.8" font-family="Helvetica,sans-Serif" font-size="14.00">ruler_buf</text>
<text text-anchor="middle" x="749" y="-129.8" font-family="Helvetica,sans-Serif" font-size="14.00">caption_buf</text>
</g>
<!-- Node10&#45;&gt;Node2 -->
<g id="edge14" class="edge"><title>Node10&#45;&gt;Node2</title>
<path fill="none" stroke="#9a32cd" stroke-dasharray="5,2" d="M670.762,-41C795.159,-41 1044.87,-41 1185.9,-41"/>
<polygon fill="#9a32cd" stroke="#9a32cd" points="670.573,-37.5001 660.573,-41 670.573,-44.5001 670.573,-37.5001"/>
<text text-anchor="middle" x="943" y="-209.8" font-family="Helvetica,sans-Serif" font-size="14.00"> cp_buf</text>
<text text-anchor="middle" x="943" y="-194.8" font-family="Helvetica,sans-Serif" font-size="14.00">bdr_buf</text>
<text text-anchor="middle" x="943" y="-179.8" font-family="Helvetica,sans-Serif" font-size="14.00">f_nums_buf</text>
<text text-anchor="middle" x="943" y="-164.8" font-family="Helvetica,sans-Serif" font-size="14.00">order_buf</text>
<text text-anchor="middle" x="943" y="-149.8" font-family="Helvetica,sans-Serif" font-size="14.00">v_nums_buf</text>
<text text-anchor="middle" x="943" y="-134.8" font-family="Helvetica,sans-Serif" font-size="14.00">lcurve_buf</text>
<text text-anchor="start" x="889.5" y="-119.8" font-family="Helvetica,sans-Serif" font-size="14.00">order_noarrow</text>
<text text-anchor="middle" x="943" y="-104.8" font-family="Helvetica,sans-Serif" font-size="14.00">_buf</text>
<text text-anchor="middle" x="943" y="-89.8" font-family="Helvetica,sans-Serif" font-size="14.00">disp_buf</text>
<text text-anchor="middle" x="943" y="-74.8" font-family="Helvetica,sans-Serif" font-size="14.00">line_buf</text>
<text text-anchor="middle" x="943" y="-59.8" font-family="Helvetica,sans-Serif" font-size="14.00">e_nums_buf</text>
<text text-anchor="middle" x="943" y="-44.8" font-family="Helvetica,sans-Serif" font-size="14.00">...</text>
</g>
<!-- Node10&#45;&gt;Node1 -->
<g id="edge15" class="edge"><title>Node10&#45;&gt;Node1</title>
<path fill="none" stroke="#9a32cd" stroke-dasharray="5,2" d="M670.768,-34.0586C765.113,-25.679 932.411,-12.0791 1076,-7 1116.86,-5.55457 1127.11,-6.71686 1168,-7 1257.32,-7.6185 1359.05,-9.09768 1431.71,-10.2877"/>
<polygon fill="#9a32cd" stroke="#9a32cd" points="670.399,-30.5775 660.75,-34.9532 671.022,-37.5498 670.399,-30.5775"/>
<text text-anchor="middle" x="1122" y="-25.8" font-family="Helvetica,sans-Serif" font-size="14.00"> displine_buf</text>
<text text-anchor="middle" x="1122" y="-10.8" font-family="Helvetica,sans-Serif" font-size="14.00">vector_buf</text>
</g>
<!-- Node11 -->
<g id="node11" class="node"><title>Node11</title>
<g id="a_node11"><a xlink:href="classPlane.html" target="_top" xlink:title="Plane">
<polygon fill="white" stroke="black" points="567,-307.5 567,-330.5 623,-330.5 623,-307.5 567,-307.5"/>
<text text-anchor="middle" x="595" y="-315.3" font-family="Helvetica,sans-Serif" font-size="14.00">Plane</text>
</a>
</g>
</g>
<!-- Node11&#45;&gt;Node3 -->
<g id="edge11" class="edge"><title>Node11&#45;&gt;Node3</title>
<path fill="none" stroke="#9a32cd" stroke-dasharray="5,2" d="M633.014,-317.807C676.012,-315.821 748.87,-310.598 810,-297 847.311,-288.7 888.675,-273.202 914.983,-262.503"/>
<polygon fill="#9a32cd" stroke="#9a32cd" points="632.852,-314.31 623.011,-318.235 633.151,-321.304 632.852,-314.31"/>
<text text-anchor="middle" x="749" y="-318.8" font-family="Helvetica,sans-Serif" font-size="14.00"> CuttingPlane</text>
</g>
<!-- Node12 -->
<g id="node12" class="node"><title>Node12</title>
<g id="a_node12"><a xlink:title="STL class. ">
<polygon fill="white" stroke="#bfbfbf" points="551,-252.5 551,-275.5 639,-275.5 639,-252.5 551,-252.5"/>
<text text-anchor="middle" x="595" y="-260.3" font-family="Helvetica,sans-Serif" font-size="14.00">std::string</text>
</a>
</g>
</g>
<!-- Node12&#45;&gt;Node3 -->
<g id="edge12" class="edge"><title>Node12&#45;&gt;Node3</title>
<path fill="none" stroke="#9a32cd" stroke-dasharray="5,2" d="M649.344,-255.887C661.986,-254.285 675.445,-252.84 688,-252 733.869,-248.93 784.502,-248.195 828.411,-248.402"/>
<polygon fill="#9a32cd" stroke="#9a32cd" points="648.869,-252.419 639.412,-257.197 649.784,-259.359 648.869,-252.419"/>
<text text-anchor="middle" x="749" y="-285.8" font-family="Helvetica,sans-Serif" font-size="14.00"> a_label_x</text>
<text text-anchor="middle" x="749" y="-270.8" font-family="Helvetica,sans-Serif" font-size="14.00">a_label_y</text>
<text text-anchor="middle" x="749" y="-255.8" font-family="Helvetica,sans-Serif" font-size="14.00">a_label_z</text>
</g>
<!-- Node13 -->
<g id="node13" class="node"><title>Node13</title>
<polygon fill="white" stroke="#bfbfbf" points="270,-290 270,-328 414,-328 414,-290 270,-290"/>
<text text-anchor="start" x="278" y="-312.8" font-family="Helvetica,sans-Serif" font-size="14.00">std::basic_string&lt;</text>
<text text-anchor="middle" x="342" y="-297.8" font-family="Helvetica,sans-Serif" font-size="14.00"> char &gt;</text>
</g>
<!-- Node13&#45;&gt;Node12 -->
<g id="edge13" class="edge"><title>Node13&#45;&gt;Node12</title>
<path fill="none" stroke="midnightblue" d="M424.236,-294.436C466.398,-286.877 516.204,-277.947 550.923,-271.723"/>
<polygon fill="midnightblue" stroke="midnightblue" points="423.481,-291.015 414.255,-296.225 424.716,-297.905 423.481,-291.015"/>
</g>
</g>
</svg>
        <g id="navigator" transform="translate(0 0)" fill="#404254">
                <rect fill="#f2f5e9" fill-opacity="0.5" stroke="#606060" stroke-width=".5" x="0" y="0" width="60" height="60"/>
                <use id="zoomplus" xlink:href="#zoomPlus" x="17" y="9" onmousedown="handleZoom(evt,'in')"/>
                <use id="zoomminus" xlink:href="#zoomMin" x="42" y="9" onmousedown="handleZoom(evt,'out')"/>
                <use id="reset" xlink:href="#resetDef" x="30" y="36" onmousedown="handleReset()"/>
                <g id="arrowUp" xlink:href="#dirArrow" transform="translate(30 24)" onmousedown="handlePan(0,-1)">
                  <use xlink:href="#rim" fill="#404040">
                        <set attributeName="fill" to="#808080" begin="arrowUp.mouseover" end="arrowUp.mouseout"/>
                  </use>
                  <path fill="none" stroke="white" stroke-width="1.5" d="M0,-3.0v7 M-2.5,-0.5L0,-3.0L2.5,-0.5"/>
                </g>
                <g id="arrowRight" xlink:href="#dirArrow" transform="rotate(90) translate(36 -43)" onmousedown="handlePan(1,0)">
                  <use xlink:href="#rim" fill="#404040">
                        <set attributeName="fill" to="#808080" begin="arrowRight.mouseover" end="arrowRight.mouseout"/>
                  </use>
                  <path fill="none" stroke="white" stroke-width="1.5" d="M0,-3.0v7 M-2.5,-0.5L0,-3.0L2.5,-0.5"/>
                </g>
                <g id="arrowDown" xlink:href="#dirArrow" transform="rotate(180) translate(-30 -48)" onmousedown="handlePan(0,1)">
                  <use xlink:href="#rim" fill="#404040">
                        <set attributeName="fill" to="#808080" begin="arrowDown.mouseover" end="arrowDown.mouseout"/>
                  </use>
                  <path fill="none" stroke="white" stroke-width="1.5" d="M0,-3.0v7 M-2.5,-0.5L0,-3.0L2.5,-0.5"/>
                </g>
                <g id="arrowLeft" xlink:href="#dirArrow" transform="rotate(270) translate(-36 17)" onmousedown="handlePan(-1,0)">
                  <use xlink:href="#rim" fill="#404040">
                        <set attributeName="fill" to="#808080" begin="arrowLeft.mouseover" end="arrowLeft.mouseout"/>
                  </use>
                  <path fill="none" stroke="white" stroke-width="1.5" d="M0,-3.0v7 M-2.5,-0.5L0,-3.0L2.5,-0.5"/>
                </g>
        </g>
        <svg viewBox="0 0 15 15" width="100%" height="30px" preserveAspectRatio="xMaxYMin meet">
         <g id="arrow_out" transform="scale(0.3 0.3)">
          <a xlink:href="classVisualizationSceneVector__coll__graph_org.svg" target="_base">
           <rect id="button" ry="5" rx="5" y="6" x="6" height="38" width="38"
                fill="#f2f5e9" fill-opacity="0.5" stroke="#606060" stroke-width="1.0"/>
           <path id="arrow"
             d="M 11.500037,31.436501 C 11.940474,20.09759 22.043105,11.32322 32.158766,21.979434 L 37.068811,17.246167 C 37.068811,17.246167 37.088388,32 37.088388,32 L 22.160133,31.978069 C 22.160133,31.978069 26.997745,27.140456 26.997745,27.140456 C 18.528582,18.264221 13.291696,25.230495 11.500037,31.436501 z"
             style="fill:#404040;"/>
          </a>
         </g>
        </svg>
</svg>
