<?xml version="1.0" encoding="UTF-8" standalone="no"?>
<!DOCTYPE svg PUBLIC "-//W3C//DTD SVG 1.1//EN"
 "http://www.w3.org/Graphics/SVG/1.1/DTD/svg11.dtd">
<!-- Generated by graphviz version 2.44.1 (20200629.0846)
 -->
<!-- Title: VisualizationScene Pages: 1 -->
<svg width="348pt" height="212pt"
 viewBox="0.00 0.00 348.00 212.00" xmlns="http://www.w3.org/2000/svg" xmlns:xlink="http://www.w3.org/1999/xlink">
<g id="graph0" class="graph" transform="scale(1 1) rotate(0) translate(4 208)">
<title>VisualizationScene</title>
<polygon fill="white" stroke="transparent" points="-4,4 -4,-208 344,-208 344,4 -4,4"/>
<!-- Node1 -->
<g id="node1" class="node">
<title>Node1</title>
<g id="a_node1"><a xlink:title=" ">
<polygon fill="#bfbfbf" stroke="black" points="88,-0.5 88,-23.5 219,-23.5 219,-0.5 88,-0.5"/>
<text text-anchor="middle" x="153.5" y="-8.3" font-family="Helvetica,sans-Serif" font-size="14.00">VisualizationScene</text>
</a>
</g>
</g>
<!-- Node2 -->
<g id="node2" class="node">
<title>Node2</title>
<g id="a_node2"><a xlink:href="classSdlWindow.html" target="_top" xlink:title=" ">
<polygon fill="white" stroke="black" points="0,-75.5 0,-98.5 85,-98.5 85,-75.5 0,-75.5"/>
<text text-anchor="middle" x="42.5" y="-83.3" font-family="Helvetica,sans-Serif" font-size="14.00">SdlWindow</text>
</a>
</g>
</g>
<!-- Node2&#45;&gt;Node1 -->
<g id="edge1" class="edge">
<title>Node2&#45;&gt;Node1</title>
<path fill="none" stroke="#9a32cd" stroke-dasharray="5,2" d="M54.74,-66.89C61,-58.35 69.25,-48.7 78.5,-42 89.35,-34.14 102.61,-28.09 114.95,-23.61"/>
<polygon fill="#9a32cd" stroke="#9a32cd" points="51.78,-65.02 48.98,-75.24 57.54,-69 51.78,-65.02"/>
<text text-anchor="middle" x="93" y="-45.8" font-family="Helvetica,sans-Serif" font-size="14.00"> wnd</text>
</g>
<!-- Node3 -->
<g id="node3" class="node">
<title>Node3</title>
<g id="a_node3"><a xlink:href="structMaterial.html" target="_top" xlink:title=" ">
<polygon fill="white" stroke="black" points="192,-75.5 192,-98.5 257,-98.5 257,-75.5 192,-75.5"/>
<text text-anchor="middle" x="224.5" y="-83.3" font-family="Helvetica,sans-Serif" font-size="14.00">Material</text>
</a>
</g>
</g>
<!-- Node3&#45;&gt;Node1 -->
<g id="edge2" class="edge">
<title>Node3&#45;&gt;Node1</title>
<path fill="none" stroke="#9a32cd" stroke-dasharray="5,2" d="M206.72,-67.72C193.27,-53.89 175.26,-35.37 164.02,-23.82"/>
<polygon fill="#9a32cd" stroke="#9a32cd" points="204.54,-70.5 214.02,-75.23 209.56,-65.62 204.54,-70.5"/>
<text text-anchor="middle" x="229" y="-45.8" font-family="Helvetica,sans-Serif" font-size="14.00"> BLK_MAT</text>
</g>
<!-- Node4 -->
<g id="node4" class="node">
<title>Node4</title>
<g id="a_node4"><a xlink:title=" ">
<polygon fill="white" stroke="#bfbfbf" points="69,-180.5 69,-203.5 206,-203.5 206,-180.5 69,-180.5"/>
<text text-anchor="middle" x="137.5" y="-188.3" font-family="Helvetica,sans-Serif" font-size="14.00">std::array&lt; float, 4 &gt;</text>
</a>
</g>
</g>
<!-- Node4&#45;&gt;Node1 -->
<g id="edge5" class="edge">
<title>Node4&#45;&gt;Node1</title>
<path fill="none" stroke="#9a32cd" stroke-dasharray="5,2" d="M133.31,-170.23C129.27,-146.89 124.59,-107.94 130.5,-75 133.87,-56.24 142.54,-35.74 148.22,-23.65"/>
<polygon fill="#9a32cd" stroke="#9a32cd" points="129.92,-171.15 135.19,-180.35 136.8,-169.87 129.92,-171.15"/>
<text text-anchor="middle" x="156.5" y="-83.3" font-family="Helvetica,sans-Serif" font-size="14.00"> _l0_pos</text>
</g>
<!-- Node4&#45;&gt;Node3 -->
<g id="edge3" class="edge">
<title>Node4&#45;&gt;Node3</title>
<path fill="none" stroke="#9a32cd" stroke-dasharray="5,2" d="M153.06,-172.58C171.23,-151.07 200.66,-116.22 215.44,-98.73"/>
<polygon fill="#9a32cd" stroke="#9a32cd" points="150.26,-170.47 146.48,-180.37 155.61,-174.98 150.26,-170.47"/>
<text text-anchor="middle" x="226" y="-150.8" font-family="Helvetica,sans-Serif" font-size="14.00"> ambient</text>
<text text-anchor="middle" x="226" y="-135.8" font-family="Helvetica,sans-Serif" font-size="14.00">diffuse</text>
<text text-anchor="middle" x="226" y="-120.8" font-family="Helvetica,sans-Serif" font-size="14.00">specular</text>
</g>
<!-- Node5 -->
<g id="node5" class="node">
<title>Node5</title>
<g id="a_node5"><a xlink:href="classCamera.html" target="_top" xlink:title=" ">
<polygon fill="white" stroke="black" points="275,-75.5 275,-98.5 340,-98.5 340,-75.5 275,-75.5"/>
<text text-anchor="middle" x="307.5" y="-83.3" font-family="Helvetica,sans-Serif" font-size="14.00">Camera</text>
</a>
</g>
</g>
<!-- Node5&#45;&gt;Node1 -->
<g id="edge4" class="edge">
<title>Node5&#45;&gt;Node1</title>
<path fill="none" stroke="#9a32cd" stroke-dasharray="5,2" d="M294.15,-67.3C286.91,-58.42 277.25,-48.38 266.5,-42 252.13,-33.47 235.29,-27.42 219.06,-23.15"/>
<polygon fill="#9a32cd" stroke="#9a32cd" points="291.44,-69.51 300.31,-75.3 296.98,-65.24 291.44,-69.51"/>
<text text-anchor="middle" x="299" y="-45.8" font-family="Helvetica,sans-Serif" font-size="14.00"> cam</text>
</g>
</g>
</svg>
