<?xml version="1.0" encoding="UTF-8" standalone="no"?>
<!DOCTYPE svg PUBLIC "-//W3C//DTD SVG 1.1//EN"
 "http://www.w3.org/Graphics/SVG/1.1/DTD/svg11.dtd">
<!-- Generated by graphviz version 2.44.1 (20200629.0846)
 -->
<!-- Title: VisualizationSceneScalarData Pages: 1 -->
<svg width="400pt" height="212pt"
 viewBox="0.00 0.00 399.50 212.00" xmlns="http://www.w3.org/2000/svg" xmlns:xlink="http://www.w3.org/1999/xlink">
<g id="graph0" class="graph" transform="scale(1 1) rotate(0) translate(4 208)">
<title>VisualizationSceneScalarData</title>
<polygon fill="white" stroke="transparent" points="-4,4 -4,-208 395.5,-208 395.5,4 -4,4"/>
<!-- Node1 -->
<g id="node1" class="node">
<title>Node1</title>
<g id="a_node1"><a xlink:title=" ">
<polygon fill="#bfbfbf" stroke="black" points="93,-120.5 93,-143.5 290,-143.5 290,-120.5 93,-120.5"/>
<text text-anchor="middle" x="191.5" y="-128.3" font-family="Helvetica,sans-Serif" font-size="14.00">VisualizationSceneScalarData</text>
</a>
</g>
</g>
<!-- Node3 -->
<g id="node3" class="node">
<title>Node3</title>
<g id="a_node3"><a xlink:href="classVisualizationSceneSolution.html" target="_top" xlink:title=" ">
<polygon fill="white" stroke="black" points="0,-60.5 0,-83.5 179,-83.5 179,-60.5 0,-60.5"/>
<text text-anchor="middle" x="89.5" y="-68.3" font-family="Helvetica,sans-Serif" font-size="14.00">VisualizationSceneSolution</text>
</a>
</g>
</g>
<!-- Node1&#45;&gt;Node3 -->
<g id="edge2" class="edge">
<title>Node1&#45;&gt;Node3</title>
<path fill="none" stroke="midnightblue" d="M164.03,-115.38C146.31,-105.3 123.73,-92.46 108.09,-83.57"/>
<polygon fill="midnightblue" stroke="midnightblue" points="162.37,-118.46 172.79,-120.36 165.83,-112.38 162.37,-118.46"/>
</g>
<!-- Node5 -->
<g id="node5" class="node">
<title>Node5</title>
<g id="a_node5"><a xlink:href="classVisualizationSceneSolution3d.html" target="_top" xlink:title=" ">
<polygon fill="white" stroke="black" points="197.5,-60.5 197.5,-83.5 391.5,-83.5 391.5,-60.5 197.5,-60.5"/>
<text text-anchor="middle" x="294.5" y="-68.3" font-family="Helvetica,sans-Serif" font-size="14.00">VisualizationSceneSolution3d</text>
</a>
</g>
</g>
<!-- Node1&#45;&gt;Node5 -->
<g id="edge4" class="edge">
<title>Node1&#45;&gt;Node5</title>
<path fill="none" stroke="midnightblue" d="M219.24,-115.38C237.14,-105.3 259.94,-92.46 275.73,-83.57"/>
<polygon fill="midnightblue" stroke="midnightblue" points="217.39,-112.41 210.39,-120.36 220.82,-118.5 217.39,-112.41"/>
</g>
<!-- Node2 -->
<g id="node2" class="node">
<title>Node2</title>
<g id="a_node2"><a xlink:href="classVisualizationScene.html" target="_top" xlink:title=" ">
<polygon fill="white" stroke="black" points="126,-180.5 126,-203.5 257,-203.5 257,-180.5 126,-180.5"/>
<text text-anchor="middle" x="191.5" y="-188.3" font-family="Helvetica,sans-Serif" font-size="14.00">VisualizationScene</text>
</a>
</g>
</g>
<!-- Node2&#45;&gt;Node1 -->
<g id="edge1" class="edge">
<title>Node2&#45;&gt;Node1</title>
<path fill="none" stroke="midnightblue" d="M191.5,-170.19C191.5,-161.17 191.5,-150.99 191.5,-143.57"/>
<polygon fill="midnightblue" stroke="midnightblue" points="188,-170.36 191.5,-180.36 195,-170.36 188,-170.36"/>
</g>
<!-- Node4 -->
<g id="node4" class="node">
<title>Node4</title>
<g id="a_node4"><a xlink:href="classVisualizationSceneVector.html" target="_top" xlink:title=" ">
<polygon fill="white" stroke="black" points="4.5,-0.5 4.5,-23.5 174.5,-23.5 174.5,-0.5 4.5,-0.5"/>
<text text-anchor="middle" x="89.5" y="-8.3" font-family="Helvetica,sans-Serif" font-size="14.00">VisualizationSceneVector</text>
</a>
</g>
</g>
<!-- Node3&#45;&gt;Node4 -->
<g id="edge3" class="edge">
<title>Node3&#45;&gt;Node4</title>
<path fill="none" stroke="midnightblue" d="M89.5,-50.19C89.5,-41.17 89.5,-30.99 89.5,-23.57"/>
<polygon fill="midnightblue" stroke="midnightblue" points="86,-50.36 89.5,-60.36 93,-50.36 86,-50.36"/>
</g>
<!-- Node6 -->
<g id="node6" class="node">
<title>Node6</title>
<g id="a_node6"><a xlink:href="classVisualizationSceneVector3d.html" target="_top" xlink:title=" ">
<polygon fill="white" stroke="black" points="202,-0.5 202,-23.5 387,-23.5 387,-0.5 202,-0.5"/>
<text text-anchor="middle" x="294.5" y="-8.3" font-family="Helvetica,sans-Serif" font-size="14.00">VisualizationSceneVector3d</text>
</a>
</g>
</g>
<!-- Node5&#45;&gt;Node6 -->
<g id="edge5" class="edge">
<title>Node5&#45;&gt;Node6</title>
<path fill="none" stroke="midnightblue" d="M294.5,-50.19C294.5,-41.17 294.5,-30.99 294.5,-23.57"/>
<polygon fill="midnightblue" stroke="midnightblue" points="291,-50.36 294.5,-60.36 298,-50.36 291,-50.36"/>
</g>
</g>
</svg>
