<?xml version="1.0" encoding="UTF-8" standalone="no"?>
<!DOCTYPE svg PUBLIC "-//W3C//DTD SVG 1.1//EN"
 "http://www.w3.org/Graphics/SVG/1.1/DTD/svg11.dtd">
<!-- Generated by graphviz version 2.30.1 (20200304.1809)
 -->
<!-- Title: gl3::GLDevice Pages: 1 -->
<svg width="307pt" height="92pt"
 viewBox="0.00 0.00 307.00 92.00" xmlns="http://www.w3.org/2000/svg" xmlns:xlink="http://www.w3.org/1999/xlink">
<g id="graph0" class="graph" transform="scale(1 1) rotate(0) translate(4 88)">
<title>gl3::GLDevice</title>
<polygon fill="white" stroke="white" points="-4,5 -4,-88 304,-88 304,5 -4,5"/>
<!-- Node1 -->
<g id="node1" class="node"><title>Node1</title>
<polygon fill="#bfbfbf" stroke="black" points="95,-60.5 95,-83.5 211,-83.5 211,-60.5 95,-60.5"/>
<text text-anchor="middle" x="153" y="-68.3" font-family="Helvetica,sans-Serif" font-size="14.00">gl3::GLDevice</text>
</g>
<!-- Node2 -->
<g id="node2" class="node"><title>Node2</title>
<g id="a_node2"><a xlink:href="classgl3_1_1CoreGLDevice.html" target="_top" xlink:title="gl3::CoreGLDevice">
<polygon fill="white" stroke="black" points="-0.5,-0.5 -0.5,-23.5 148.5,-23.5 148.5,-0.5 -0.5,-0.5"/>
<text text-anchor="middle" x="74" y="-8.3" font-family="Helvetica,sans-Serif" font-size="14.00">gl3::CoreGLDevice</text>
</a>
</g>
</g>
<!-- Node1&#45;&gt;Node2 -->
<g id="edge1" class="edge"><title>Node1&#45;&gt;Node2</title>
<path fill="none" stroke="midnightblue" d="M130.197,-54.2587C116.72,-44.3641 100.065,-32.1361 88.398,-23.5707"/>
<polygon fill="midnightblue" stroke="midnightblue" points="128.378,-57.2651 138.51,-60.3619 132.521,-51.6225 128.378,-57.2651"/>
</g>
<!-- Node3 -->
<g id="node3" class="node"><title>Node3</title>
<g id="a_node3"><a xlink:href="classgl3_1_1FFGLDevice.html" target="_top" xlink:title="gl3::FFGLDevice">
<polygon fill="white" stroke="black" points="167,-0.5 167,-23.5 299,-23.5 299,-0.5 167,-0.5"/>
<text text-anchor="middle" x="233" y="-8.3" font-family="Helvetica,sans-Serif" font-size="14.00">gl3::FFGLDevice</text>
</a>
</g>
</g>
<!-- Node1&#45;&gt;Node3 -->
<g id="edge2" class="edge"><title>Node1&#45;&gt;Node3</title>
<path fill="none" stroke="midnightblue" d="M176.092,-54.2587C189.739,-44.3641 206.605,-32.1361 218.42,-23.5707"/>
<polygon fill="midnightblue" stroke="midnightblue" points="173.715,-51.6585 167.673,-60.3619 177.824,-57.3258 173.715,-51.6585"/>
</g>
</g>
</svg>
