<?xml version="1.0" encoding="UTF-8" standalone="no"?>
<!DOCTYPE svg PUBLIC "-//W3C//DTD SVG 1.1//EN"
 "http://www.w3.org/Graphics/SVG/1.1/DTD/svg11.dtd">
<!-- Generated by graphviz version 2.30.1 (20200304.1809)
 -->
<!-- Title: VisualizationSceneScalarData Pages: 1 -->
<svg width="394pt" height="230pt"
 viewBox="0.00 0.00 394.00 230.00" xmlns="http://www.w3.org/2000/svg" xmlns:xlink="http://www.w3.org/1999/xlink">
<g id="graph0" class="graph" transform="scale(1 1) rotate(0) translate(4 226)">
<title>VisualizationSceneScalarData</title>
<polygon fill="white" stroke="white" points="-4,5 -4,-226 391,-226 391,5 -4,5"/>
<!-- Node1 -->
<g id="node1" class="node"><title>Node1</title>
<polygon fill="#bfbfbf" stroke="black" points="81.5,-0.5 81.5,-23.5 310.5,-23.5 310.5,-0.5 81.5,-0.5"/>
<text text-anchor="middle" x="196" y="-8.3" font-family="Helvetica,sans-Serif" font-size="14.00">VisualizationSceneScalarData</text>
</g>
<!-- Node2 -->
<g id="node2" class="node"><title>Node2</title>
<g id="a_node2"><a xlink:href="classVisualizationScene.html" target="_top" xlink:title="VisualizationScene">
<polygon fill="white" stroke="black" points="0,-106.5 0,-129.5 150,-129.5 150,-106.5 0,-106.5"/>
<text text-anchor="middle" x="75" y="-114.3" font-family="Helvetica,sans-Serif" font-size="14.00">VisualizationScene</text>
</a>
</g>
</g>
<!-- Node2&#45;&gt;Node1 -->
<g id="edge1" class="edge"><title>Node2&#45;&gt;Node1</title>
<path fill="none" stroke="midnightblue" d="M95.36,-99.5005C120.648,-77.7653 162.985,-41.3764 183.755,-23.5248"/>
<polygon fill="midnightblue" stroke="midnightblue" points="92.7957,-97.0893 87.4934,-106.262 97.3585,-102.398 92.7957,-97.0893"/>
</g>
<!-- Node3 -->
<g id="node3" class="node"><title>Node3</title>
<g id="a_node3"><a xlink:href="classCamera.html" target="_top" xlink:title="Camera">
<polygon fill="white" stroke="black" points="38,-190.5 38,-213.5 112,-213.5 112,-190.5 38,-190.5"/>
<text text-anchor="middle" x="75" y="-198.3" font-family="Helvetica,sans-Serif" font-size="14.00">Camera</text>
</a>
</g>
</g>
<!-- Node3&#45;&gt;Node2 -->
<g id="edge2" class="edge"><title>Node3&#45;&gt;Node2</title>
<path fill="none" stroke="#9a32cd" stroke-dasharray="5,2" d="M75,-180.203C75,-164.114 75,-142.493 75,-129.723"/>
<polygon fill="#9a32cd" stroke="#9a32cd" points="71.5001,-180.28 75,-190.28 78.5001,-180.28 71.5001,-180.28"/>
<text text-anchor="middle" x="93" y="-152.3" font-family="Helvetica,sans-Serif" font-size="14.00"> cam</text>
</g>
<!-- Node4 -->
<g id="node4" class="node"><title>Node4</title>
<g id="a_node4"><a xlink:href="classPlane.html" target="_top" xlink:title="Plane">
<polygon fill="white" stroke="black" points="168,-106.5 168,-129.5 224,-129.5 224,-106.5 168,-106.5"/>
<text text-anchor="middle" x="196" y="-114.3" font-family="Helvetica,sans-Serif" font-size="14.00">Plane</text>
</a>
</g>
</g>
<!-- Node4&#45;&gt;Node1 -->
<g id="edge3" class="edge"><title>Node4&#45;&gt;Node1</title>
<path fill="none" stroke="#9a32cd" stroke-dasharray="5,2" d="M196,-95.9835C196,-74.0186 196,-40.445 196,-23.5248"/>
<polygon fill="#9a32cd" stroke="#9a32cd" points="192.5,-96.2619 196,-106.262 199.5,-96.2619 192.5,-96.2619"/>
<text text-anchor="middle" x="243.5" y="-61.3" font-family="Helvetica,sans-Serif" font-size="14.00"> CuttingPlane</text>
</g>
<!-- Node5 -->
<g id="node5" class="node"><title>Node5</title>
<g id="a_node5"><a xlink:title="STL class. ">
<polygon fill="white" stroke="#bfbfbf" points="270,-106.5 270,-129.5 358,-129.5 358,-106.5 270,-106.5"/>
<text text-anchor="middle" x="314" y="-114.3" font-family="Helvetica,sans-Serif" font-size="14.00">std::string</text>
</a>
</g>
</g>
<!-- Node5&#45;&gt;Node1 -->
<g id="edge4" class="edge"><title>Node5&#45;&gt;Node1</title>
<path fill="none" stroke="#9a32cd" stroke-dasharray="5,2" d="M313.134,-96.063C311.334,-79.3094 306.209,-56.3239 292,-42 283.785,-33.7185 273.294,-27.7854 262.282,-23.5388"/>
<polygon fill="#9a32cd" stroke="#9a32cd" points="309.678,-96.7744 313.92,-106.483 316.658,-96.2481 309.678,-96.7744"/>
<text text-anchor="middle" x="347" y="-76.3" font-family="Helvetica,sans-Serif" font-size="14.00"> a_label_x</text>
<text text-anchor="middle" x="347" y="-61.3" font-family="Helvetica,sans-Serif" font-size="14.00">a_label_y</text>
<text text-anchor="middle" x="347" y="-46.3" font-family="Helvetica,sans-Serif" font-size="14.00">a_label_z</text>
</g>
<!-- Node6 -->
<g id="node6" class="node"><title>Node6</title>
<polygon fill="white" stroke="#bfbfbf" points="242,-183 242,-221 386,-221 386,-183 242,-183"/>
<text text-anchor="start" x="250" y="-205.8" font-family="Helvetica,sans-Serif" font-size="14.00">std::basic_string&lt;</text>
<text text-anchor="middle" x="314" y="-190.8" font-family="Helvetica,sans-Serif" font-size="14.00"> char &gt;</text>
</g>
<!-- Node6&#45;&gt;Node5 -->
<g id="edge5" class="edge"><title>Node6&#45;&gt;Node5</title>
<path fill="none" stroke="midnightblue" d="M314,-172.616C314,-157.871 314,-140.714 314,-129.857"/>
<polygon fill="midnightblue" stroke="midnightblue" points="310.5,-172.802 314,-182.802 317.5,-172.802 310.5,-172.802"/>
</g>
</g>
</svg>
