<?xml version="1.0" encoding="UTF-8" standalone="no"?>
<!DOCTYPE svg PUBLIC "-//W3C//DTD SVG 1.1//EN"
 "http://www.w3.org/Graphics/SVG/1.1/DTD/svg11.dtd">
<!-- Generated by graphviz version 2.30.1 (20140821.0912)
 -->
<!-- Title: VisualizationSceneSolution3d Pages: 1 -->
<svg width="348pt" height="292pt"
 viewBox="0.00 0.00 348.00 292.00" xmlns="http://www.w3.org/2000/svg" xmlns:xlink="http://www.w3.org/1999/xlink">
<g id="graph0" class="graph" transform="scale(1 1) rotate(0) translate(4 288)">
<title>VisualizationSceneSolution3d</title>
<polygon fill="white" stroke="white" points="-4,5 -4,-288 345,-288 345,5 -4,5"/>
<!-- Node1 -->
<g id="node1" class="node"><title>Node1</title>
<polygon fill="#bfbfbf" stroke="black" points="77,-0.5 77,-23.5 271,-23.5 271,-0.5 77,-0.5"/>
<text text-anchor="middle" x="174" y="-8.3" font-family="Helvetica,sans-Serif" font-size="14.00">VisualizationSceneSolution3d</text>
</g>
<!-- Node2 -->
<g id="node2" class="node"><title>Node2</title>
<g id="a_node2"><a xlink:href="classVisualizationSceneScalarData.html" target="_top" xlink:title="VisualizationSceneScalarData">
<polygon fill="white" stroke="black" points="75.5,-62.5 75.5,-85.5 272.5,-85.5 272.5,-62.5 75.5,-62.5"/>
<text text-anchor="middle" x="174" y="-70.3" font-family="Helvetica,sans-Serif" font-size="14.00">VisualizationSceneScalarData</text>
</a>
</g>
</g>
<!-- Node2&#45;&gt;Node1 -->
<g id="edge1" class="edge"><title>Node2&#45;&gt;Node1</title>
<path fill="none" stroke="midnightblue" d="M174,-52.2312C174,-42.5922 174,-31.5444 174,-23.6339"/>
<polygon fill="midnightblue" stroke="midnightblue" points="170.5,-52.2732 174,-62.2732 177.5,-52.2732 170.5,-52.2732"/>
</g>
<!-- Node3 -->
<g id="node3" class="node"><title>Node3</title>
<g id="a_node3"><a xlink:href="classVisualizationScene.html" target="_top" xlink:title="VisualizationScene">
<polygon fill="white" stroke="black" points="-0.5,-168.5 -0.5,-191.5 130.5,-191.5 130.5,-168.5 -0.5,-168.5"/>
<text text-anchor="middle" x="65" y="-176.3" font-family="Helvetica,sans-Serif" font-size="14.00">VisualizationScene</text>
</a>
</g>
</g>
<!-- Node3&#45;&gt;Node2 -->
<g id="edge2" class="edge"><title>Node3&#45;&gt;Node2</title>
<path fill="none" stroke="midnightblue" d="M83.6388,-161.216C106.452,-139.449 144.341,-103.299 162.969,-85.5248"/>
<polygon fill="midnightblue" stroke="midnightblue" points="81.0733,-158.826 76.2544,-168.262 85.9056,-163.891 81.0733,-158.826"/>
</g>
<!-- Node4 -->
<g id="node4" class="node"><title>Node4</title>
<g id="a_node4"><a xlink:href="classCamera.html" target="_top" xlink:title="Camera">
<polygon fill="white" stroke="black" points="32.5,-252.5 32.5,-275.5 97.5,-275.5 97.5,-252.5 32.5,-252.5"/>
<text text-anchor="middle" x="65" y="-260.3" font-family="Helvetica,sans-Serif" font-size="14.00">Camera</text>
</a>
</g>
</g>
<!-- Node4&#45;&gt;Node3 -->
<g id="edge3" class="edge"><title>Node4&#45;&gt;Node3</title>
<path fill="none" stroke="#9a32cd" stroke-dasharray="5,2" d="M65,-242.203C65,-226.114 65,-204.493 65,-191.723"/>
<polygon fill="#9a32cd" stroke="#9a32cd" points="61.5001,-242.28 65,-252.28 68.5001,-242.28 61.5001,-242.28"/>
<text text-anchor="middle" x="80.5" y="-214.3" font-family="Helvetica,sans-Serif" font-size="14.00"> cam</text>
</g>
<!-- Node5 -->
<g id="node5" class="node"><title>Node5</title>
<g id="a_node5"><a xlink:href="classPlane.html" target="_top" xlink:title="Plane">
<polygon fill="white" stroke="black" points="148.5,-168.5 148.5,-191.5 199.5,-191.5 199.5,-168.5 148.5,-168.5"/>
<text text-anchor="middle" x="174" y="-176.3" font-family="Helvetica,sans-Serif" font-size="14.00">Plane</text>
</a>
</g>
</g>
<!-- Node5&#45;&gt;Node2 -->
<g id="edge4" class="edge"><title>Node5&#45;&gt;Node2</title>
<path fill="none" stroke="#9a32cd" stroke-dasharray="5,2" d="M174,-157.984C174,-136.019 174,-102.445 174,-85.5248"/>
<polygon fill="#9a32cd" stroke="#9a32cd" points="170.5,-158.262 174,-168.262 177.5,-158.262 170.5,-158.262"/>
<text text-anchor="middle" x="215" y="-123.3" font-family="Helvetica,sans-Serif" font-size="14.00"> CuttingPlane</text>
</g>
<!-- Node6 -->
<g id="node6" class="node"><title>Node6</title>
<g id="a_node6"><a xlink:title="STL class. ">
<polygon fill="white" stroke="#bfbfbf" points="241.5,-168.5 241.5,-191.5 316.5,-191.5 316.5,-168.5 241.5,-168.5"/>
<text text-anchor="middle" x="279" y="-176.3" font-family="Helvetica,sans-Serif" font-size="14.00">std::string</text>
</a>
</g>
</g>
<!-- Node6&#45;&gt;Node2 -->
<g id="edge5" class="edge"><title>Node6&#45;&gt;Node2</title>
<path fill="none" stroke="#9a32cd" stroke-dasharray="5,2" d="M277.939,-157.948C276.018,-141.311 270.824,-118.545 257,-104 249.113,-95.702 238.724,-89.7771 227.975,-85.5469"/>
<polygon fill="#9a32cd" stroke="#9a32cd" points="274.485,-158.639 278.813,-168.31 281.461,-158.051 274.485,-158.639"/>
<text text-anchor="middle" x="308" y="-138.3" font-family="Helvetica,sans-Serif" font-size="14.00"> a_label_x</text>
<text text-anchor="middle" x="308" y="-123.3" font-family="Helvetica,sans-Serif" font-size="14.00">a_label_y</text>
<text text-anchor="middle" x="308" y="-108.3" font-family="Helvetica,sans-Serif" font-size="14.00">a_label_z</text>
</g>
<!-- Node7 -->
<g id="node7" class="node"><title>Node7</title>
<polygon fill="white" stroke="#bfbfbf" points="218,-245 218,-283 340,-283 340,-245 218,-245"/>
<text text-anchor="start" x="226" y="-267.8" font-family="Helvetica,sans-Serif" font-size="14.00">std::basic_string&lt;</text>
<text text-anchor="middle" x="279" y="-252.8" font-family="Helvetica,sans-Serif" font-size="14.00"> char &gt;</text>
</g>
<!-- Node7&#45;&gt;Node6 -->
<g id="edge6" class="edge"><title>Node7&#45;&gt;Node6</title>
<path fill="none" stroke="midnightblue" d="M279,-234.616C279,-219.871 279,-202.714 279,-191.857"/>
<polygon fill="midnightblue" stroke="midnightblue" points="275.5,-234.802 279,-244.802 282.5,-234.802 275.5,-234.802"/>
</g>
</g>
</svg>
