<?xml version="1.0" encoding="UTF-8" standalone="no"?>
<!DOCTYPE svg PUBLIC "-//W3C//DTD SVG 1.1//EN"
 "http://www.w3.org/Graphics/SVG/1.1/DTD/svg11.dtd">
<!-- Generated by graphviz version 2.44.1 (20200629.0846)
 -->
<!-- Title: VisualizationSceneSolution Pages: 1 -->
<svg width="683pt" height="549pt"
 viewBox="0.00 0.00 683.00 549.00" xmlns="http://www.w3.org/2000/svg" xmlns:xlink="http://www.w3.org/1999/xlink">
<g id="graph0" class="graph" transform="scale(1 1) rotate(0) translate(4 545)">
<title>VisualizationSceneSolution</title>
<polygon fill="white" stroke="transparent" points="-4,4 -4,-545 679,-545 679,4 -4,4"/>
<!-- Node1 -->
<g id="node1" class="node">
<title>Node1</title>
<g id="a_node1"><a xlink:title=" ">
<polygon fill="#bfbfbf" stroke="black" points="7,-0.5 7,-23.5 186,-23.5 186,-0.5 7,-0.5"/>
<text text-anchor="middle" x="96.5" y="-8.3" font-family="Helvetica,sans-Serif" font-size="14.00">VisualizationSceneSolution</text>
</a>
</g>
</g>
<!-- Node2 -->
<g id="node2" class="node">
<title>Node2</title>
<g id="a_node2"><a xlink:href="classVisualizationSceneScalarData.html" target="_top" xlink:title=" ">
<polygon fill="white" stroke="black" points="146,-124.5 146,-147.5 343,-147.5 343,-124.5 146,-124.5"/>
<text text-anchor="middle" x="244.5" y="-132.3" font-family="Helvetica,sans-Serif" font-size="14.00">VisualizationSceneScalarData</text>
</a>
</g>
</g>
<!-- Node2&#45;&gt;Node1 -->
<g id="edge1" class="edge">
<title>Node2&#45;&gt;Node1</title>
<path fill="none" stroke="midnightblue" d="M223.61,-117.78C192.55,-92.18 135.1,-44.82 109.45,-23.68"/>
<polygon fill="midnightblue" stroke="midnightblue" points="221.68,-120.73 231.62,-124.39 226.13,-115.33 221.68,-120.73"/>
</g>
<!-- Node3 -->
<g id="node3" class="node">
<title>Node3</title>
<g id="a_node3"><a xlink:href="classVisualizationScene.html" target="_top" xlink:title=" ">
<polygon fill="white" stroke="black" points="384,-322.5 384,-345.5 515,-345.5 515,-322.5 384,-322.5"/>
<text text-anchor="middle" x="449.5" y="-330.3" font-family="Helvetica,sans-Serif" font-size="14.00">VisualizationScene</text>
</a>
</g>
</g>
<!-- Node3&#45;&gt;Node2 -->
<g id="edge2" class="edge">
<title>Node3&#45;&gt;Node2</title>
<path fill="none" stroke="midnightblue" d="M434.9,-314.43C417.62,-292.93 387.54,-256.91 358.5,-229 325.12,-196.93 281.59,-163.96 259.2,-147.58"/>
<polygon fill="midnightblue" stroke="midnightblue" points="432.3,-316.79 441.27,-322.43 437.78,-312.43 432.3,-316.79"/>
</g>
<!-- Node4 -->
<g id="node4" class="node">
<title>Node4</title>
<g id="a_node4"><a xlink:href="classSdlWindow.html" target="_top" xlink:title=" ">
<polygon fill="white" stroke="black" points="590,-405 590,-428 675,-428 675,-405 590,-405"/>
<text text-anchor="middle" x="632.5" y="-412.8" font-family="Helvetica,sans-Serif" font-size="14.00">SdlWindow</text>
</a>
</g>
</g>
<!-- Node4&#45;&gt;Node3 -->
<g id="edge3" class="edge">
<title>Node4&#45;&gt;Node3</title>
<path fill="none" stroke="#9a32cd" stroke-dasharray="5,2" d="M613.43,-398.32C600.04,-387.08 581.24,-372.89 562.5,-364 545.57,-355.97 526.12,-349.96 508.19,-345.56"/>
<polygon fill="#9a32cd" stroke="#9a32cd" points="611.16,-400.98 621.02,-404.86 615.73,-395.68 611.16,-400.98"/>
<text text-anchor="middle" x="601" y="-367.8" font-family="Helvetica,sans-Serif" font-size="14.00"> wnd</text>
</g>
<!-- Node5 -->
<g id="node5" class="node">
<title>Node5</title>
<g id="a_node5"><a xlink:href="structMaterial.html" target="_top" xlink:title=" ">
<polygon fill="white" stroke="black" points="424,-405 424,-428 489,-428 489,-405 424,-405"/>
<text text-anchor="middle" x="456.5" y="-412.8" font-family="Helvetica,sans-Serif" font-size="14.00">Material</text>
</a>
</g>
</g>
<!-- Node5&#45;&gt;Node3 -->
<g id="edge4" class="edge">
<title>Node5&#45;&gt;Node3</title>
<path fill="none" stroke="#9a32cd" stroke-dasharray="5,2" d="M452.52,-394.45C451.71,-389.41 450.97,-384.03 450.5,-379 449.44,-367.59 449.28,-354.44 449.33,-345.51"/>
<polygon fill="#9a32cd" stroke="#9a32cd" points="449.14,-395.44 454.31,-404.69 456.04,-394.24 449.14,-395.44"/>
<text text-anchor="middle" x="484" y="-367.8" font-family="Helvetica,sans-Serif" font-size="14.00"> BLK_MAT</text>
</g>
<!-- Node6 -->
<g id="node6" class="node">
<title>Node6</title>
<g id="a_node6"><a xlink:title=" ">
<polygon fill="white" stroke="#bfbfbf" points="301,-517.5 301,-540.5 438,-540.5 438,-517.5 301,-517.5"/>
<text text-anchor="middle" x="369.5" y="-525.3" font-family="Helvetica,sans-Serif" font-size="14.00">std::array&lt; float, 4 &gt;</text>
</a>
</g>
</g>
<!-- Node6&#45;&gt;Node3 -->
<g id="edge7" class="edge">
<title>Node6&#45;&gt;Node3</title>
<path fill="none" stroke="#9a32cd" stroke-dasharray="5,2" d="M362.61,-507.56C354.81,-480.61 345.36,-432.45 363.5,-397 376,-372.59 403.08,-355.59 423.54,-345.64"/>
<polygon fill="#9a32cd" stroke="#9a32cd" points="359.36,-508.89 365.67,-517.41 366.05,-506.82 359.36,-508.89"/>
<text text-anchor="middle" x="389.5" y="-412.8" font-family="Helvetica,sans-Serif" font-size="14.00"> _l0_pos</text>
</g>
<!-- Node6&#45;&gt;Node5 -->
<g id="edge5" class="edge">
<title>Node6&#45;&gt;Node5</title>
<path fill="none" stroke="#9a32cd" stroke-dasharray="5,2" d="M384.2,-509.32C402.54,-486.03 433.27,-447 448.06,-428.23"/>
<polygon fill="#9a32cd" stroke="#9a32cd" points="381.28,-507.38 377.84,-517.4 386.78,-511.71 381.28,-507.38"/>
<text text-anchor="middle" x="452" y="-487.8" font-family="Helvetica,sans-Serif" font-size="14.00"> ambient</text>
<text text-anchor="middle" x="452" y="-472.8" font-family="Helvetica,sans-Serif" font-size="14.00">diffuse</text>
<text text-anchor="middle" x="452" y="-457.8" font-family="Helvetica,sans-Serif" font-size="14.00">specular</text>
</g>
<!-- Node7 -->
<g id="node7" class="node">
<title>Node7</title>
<g id="a_node7"><a xlink:href="classCamera.html" target="_top" xlink:title=" ">
<polygon fill="white" stroke="black" points="507,-405 507,-428 572,-428 572,-405 507,-405"/>
<text text-anchor="middle" x="539.5" y="-412.8" font-family="Helvetica,sans-Serif" font-size="14.00">Camera</text>
</a>
</g>
</g>
<!-- Node7&#45;&gt;Node3 -->
<g id="edge6" class="edge">
<title>Node7&#45;&gt;Node3</title>
<path fill="none" stroke="#9a32cd" stroke-dasharray="5,2" d="M534.6,-394.76C531.25,-384.42 525.87,-372.37 517.5,-364 509.42,-355.93 498.74,-349.96 488.24,-345.61"/>
<polygon fill="#9a32cd" stroke="#9a32cd" points="531.32,-396.01 537.39,-404.69 538.06,-394.12 531.32,-396.01"/>
<text text-anchor="middle" x="543" y="-367.8" font-family="Helvetica,sans-Serif" font-size="14.00"> cam</text>
</g>
<!-- Node8 -->
<g id="node8" class="node">
<title>Node8</title>
<g id="a_node8"><a xlink:href="classgl3_1_1GlDrawable.html" target="_top" xlink:title=" ">
<polygon fill="white" stroke="black" points="0,-322.5 0,-345.5 113,-345.5 113,-322.5 0,-322.5"/>
<text text-anchor="middle" x="56.5" y="-330.3" font-family="Helvetica,sans-Serif" font-size="14.00">gl3::GlDrawable</text>
</a>
</g>
</g>
<!-- Node8&#45;&gt;Node1 -->
<g id="edge12" class="edge">
<title>Node8&#45;&gt;Node1</title>
<path fill="none" stroke="#9a32cd" stroke-dasharray="5,2" d="M50.41,-312.48C37.67,-265.71 12.26,-148.48 48.5,-61 54.99,-45.32 69.37,-32.09 80.71,-23.52"/>
<polygon fill="#9a32cd" stroke="#9a32cd" points="47.1,-313.65 53.19,-322.32 53.84,-311.75 47.1,-313.65"/>
<text text-anchor="middle" x="92.5" y="-199.8" font-family="Helvetica,sans-Serif" font-size="14.00"> cp_buf</text>
<text text-anchor="middle" x="92.5" y="-184.8" font-family="Helvetica,sans-Serif" font-size="14.00">bdr_buf</text>
<text text-anchor="middle" x="92.5" y="-169.8" font-family="Helvetica,sans-Serif" font-size="14.00">order_buf</text>
<text text-anchor="middle" x="92.5" y="-154.8" font-family="Helvetica,sans-Serif" font-size="14.00">v_nums_buf</text>
<text text-anchor="middle" x="92.5" y="-139.8" font-family="Helvetica,sans-Serif" font-size="14.00">lcurve_buf</text>
<text text-anchor="start" x="48.5" y="-124.8" font-family="Helvetica,sans-Serif" font-size="14.00">order_noarrow</text>
<text text-anchor="middle" x="92.5" y="-109.8" font-family="Helvetica,sans-Serif" font-size="14.00">_buf</text>
<text text-anchor="middle" x="92.5" y="-94.8" font-family="Helvetica,sans-Serif" font-size="14.00">disp_buf</text>
<text text-anchor="middle" x="92.5" y="-79.8" font-family="Helvetica,sans-Serif" font-size="14.00">line_buf</text>
<text text-anchor="middle" x="92.5" y="-64.8" font-family="Helvetica,sans-Serif" font-size="14.00">e_nums_buf</text>
</g>
<!-- Node8&#45;&gt;Node2 -->
<g id="edge8" class="edge">
<title>Node8&#45;&gt;Node2</title>
<path fill="none" stroke="#9a32cd" stroke-dasharray="5,2" d="M57.74,-312.39C60.17,-289.38 67.35,-252.33 88.5,-229 102.42,-213.65 113.2,-220.72 131.5,-211 168.57,-191.31 209.05,-162.98 230.04,-147.71"/>
<polygon fill="#9a32cd" stroke="#9a32cd" points="54.25,-312.17 56.89,-322.43 61.22,-312.76 54.25,-312.17"/>
<text text-anchor="middle" x="140.5" y="-292.8" font-family="Helvetica,sans-Serif" font-size="14.00"> coord_cross_buf</text>
<text text-anchor="middle" x="140.5" y="-277.8" font-family="Helvetica,sans-Serif" font-size="14.00">axes_buf</text>
<text text-anchor="middle" x="140.5" y="-262.8" font-family="Helvetica,sans-Serif" font-size="14.00">color_bar</text>
<text text-anchor="middle" x="140.5" y="-247.8" font-family="Helvetica,sans-Serif" font-size="14.00">ruler_buf</text>
<text text-anchor="middle" x="140.5" y="-232.8" font-family="Helvetica,sans-Serif" font-size="14.00">caption_buf</text>
</g>
<!-- Node9 -->
<g id="node9" class="node">
<title>Node9</title>
<g id="a_node9"><a xlink:href="classPlane.html" target="_top" xlink:title=" ">
<polygon fill="white" stroke="black" points="174,-322.5 174,-345.5 225,-345.5 225,-322.5 174,-322.5"/>
<text text-anchor="middle" x="199.5" y="-330.3" font-family="Helvetica,sans-Serif" font-size="14.00">Plane</text>
</a>
</g>
</g>
<!-- Node9&#45;&gt;Node2 -->
<g id="edge9" class="edge">
<title>Node9&#45;&gt;Node2</title>
<path fill="none" stroke="#9a32cd" stroke-dasharray="5,2" d="M197.1,-312.39C195.23,-291.18 193.93,-257.33 200.5,-229 207.78,-197.61 226.95,-164.35 237.42,-147.75"/>
<polygon fill="#9a32cd" stroke="#9a32cd" points="193.63,-312.89 198.12,-322.49 200.6,-312.19 193.63,-312.89"/>
<text text-anchor="middle" x="241.5" y="-262.8" font-family="Helvetica,sans-Serif" font-size="14.00"> CuttingPlane</text>
</g>
<!-- Node10 -->
<g id="node10" class="node">
<title>Node10</title>
<g id="a_node10"><a xlink:title="STL class.">
<polygon fill="white" stroke="#bfbfbf" points="255,-322.5 255,-345.5 330,-345.5 330,-322.5 255,-322.5"/>
<text text-anchor="middle" x="292.5" y="-330.3" font-family="Helvetica,sans-Serif" font-size="14.00">std::string</text>
</a>
</g>
</g>
<!-- Node10&#45;&gt;Node2 -->
<g id="edge10" class="edge">
<title>Node10&#45;&gt;Node2</title>
<path fill="none" stroke="#9a32cd" stroke-dasharray="5,2" d="M292.3,-312.39C291.69,-291.19 289.55,-257.35 282.5,-229 274.87,-198.31 258.73,-164.49 250.15,-147.69"/>
<polygon fill="#9a32cd" stroke="#9a32cd" points="288.81,-312.57 292.51,-322.5 295.8,-312.43 288.81,-312.57"/>
<text text-anchor="middle" x="323.5" y="-277.8" font-family="Helvetica,sans-Serif" font-size="14.00"> a_label_x</text>
<text text-anchor="middle" x="323.5" y="-262.8" font-family="Helvetica,sans-Serif" font-size="14.00">a_label_y</text>
<text text-anchor="middle" x="323.5" y="-247.8" font-family="Helvetica,sans-Serif" font-size="14.00">a_label_z</text>
</g>
<!-- Node11 -->
<g id="node11" class="node">
<title>Node11</title>
<g id="a_node11"><a xlink:title=" ">
<polygon fill="white" stroke="#bfbfbf" points="195.5,-397.5 195.5,-435.5 317.5,-435.5 317.5,-397.5 195.5,-397.5"/>
<text text-anchor="start" x="203.5" y="-420.3" font-family="Helvetica,sans-Serif" font-size="14.00">std::basic_string&lt;</text>
<text text-anchor="middle" x="256.5" y="-405.3" font-family="Helvetica,sans-Serif" font-size="14.00"> char &gt;</text>
</a>
</g>
</g>
<!-- Node11&#45;&gt;Node10 -->
<g id="edge11" class="edge">
<title>Node11&#45;&gt;Node10</title>
<path fill="none" stroke="midnightblue" d="M268.76,-388.08C275.3,-373.46 282.97,-356.31 287.78,-345.55"/>
<polygon fill="midnightblue" stroke="midnightblue" points="265.56,-386.68 264.67,-397.23 271.95,-389.53 265.56,-386.68"/>
</g>
</g>
</svg>
