<?xml version="1.0" encoding="UTF-8" standalone="no"?>
<!DOCTYPE svg PUBLIC "-//W3C//DTD SVG 1.1//EN"
 "http://www.w3.org/Graphics/SVG/1.1/DTD/svg11.dtd">
<!-- Generated by graphviz version 2.30.1 (20200304.1809)
 -->
<!-- Title: VisualizationSceneSolution3d Pages: 1 -->
<!--zoomable 355 -->
<svg id="main" version="1.1" xmlns="http://www.w3.org/2000/svg" xmlns:xlink="http://www.w3.org/1999/xlink" xml:space="preserve" onload="init(evt)">
<style type="text/css"><![CDATA[
.edge:hover path { stroke: red; }
.edge:hover polygon { stroke: red; fill: red; }
]]></style>
<script type="text/javascript"><![CDATA[
var edges = document.getElementsByTagName('g');
if (edges && edges.length) {
  for (var i=0;i<edges.length;i++) {
    if (edges[i].id.substr(0,4)=='edge') {
      edges[i].setAttribute('class','edge');
    }
  }
}
]]></script>
        <defs>
                <circle id="rim" cx="0" cy="0" r="7"/>
                <circle id="rim2" cx="0" cy="0" r="3.5"/>
                <g id="zoomPlus">
                        <use xlink:href="#rim" fill="#404040">
                                <set attributeName="fill" to="#808080" begin="zoomplus.mouseover" end="zoomplus.mouseout"/>
                        </use>
                        <path d="M-4,0h8M0,-4v8" fill="none" stroke="white" stroke-width="1.5" pointer-events="none"/>
                </g>
                <g id="zoomMin">
                        <use xlink:href="#rim" fill="#404040">
                                <set attributeName="fill" to="#808080" begin="zoomminus.mouseover" end="zoomminus.mouseout"/>
                        </use>
                        <path d="M-4,0h8" fill="none" stroke="white" stroke-width="1.5" pointer-events="none"/>
                </g>
                <g id="dirArrow">
                        <path fill="none" stroke="white" stroke-width="1.5" d="M0,-3.0v7 M-2.5,-0.5L0,-3.0L2.5,-0.5"/>
                </g>
               <g id="resetDef">
                       <use xlink:href="#rim2" fill="#404040">
                               <set attributeName="fill" to="#808080" begin="reset.mouseover" end="reset.mouseout"/>
                       </use>
               </g>
        </defs>

<script type="text/javascript">
var viewWidth = 1330;
var viewHeight = 355;
var sectionId = 'dynsection-1';
</script>
<script xlink:href="svgpan.js"/>
<svg id="graph" class="graph">
<g id="viewport">
<title>VisualizationSceneSolution3d</title>
<polygon fill="white" stroke="white" points="-4,5 -4,-351 1327,-351 1327,5 -4,5"/>
<!-- Node1 -->
<g id="node1" class="node"><title>Node1</title>
<polygon fill="#bfbfbf" stroke="black" points="1096,-191.5 1096,-214.5 1322,-214.5 1322,-191.5 1096,-191.5"/>
<text text-anchor="middle" x="1209" y="-199.3" font-family="Helvetica,sans-Serif" font-size="14.00">VisualizationSceneSolution3d</text>
</g>
<!-- Node2 -->
<g id="node2" class="node"><title>Node2</title>
<g id="a_node2"><a xlink:href="classVisualizationSceneScalarData.html" target="_top" xlink:title="VisualizationSceneScalarData">
<polygon fill="white" stroke="black" points="828.5,-105.5 828.5,-128.5 1057.5,-128.5 1057.5,-105.5 828.5,-105.5"/>
<text text-anchor="middle" x="943" y="-113.3" font-family="Helvetica,sans-Serif" font-size="14.00">VisualizationSceneScalarData</text>
</a>
</g>
</g>
<!-- Node2&#45;&gt;Node1 -->
<g id="edge1" class="edge"><title>Node2&#45;&gt;Node1</title>
<path fill="none" stroke="midnightblue" d="M988.932,-131.637C1040.77,-148.525 1124.96,-175.949 1172.46,-191.422"/>
<polygon fill="midnightblue" stroke="midnightblue" points="989.923,-128.279 979.33,-128.509 987.754,-134.934 989.923,-128.279"/>
</g>
<!-- Node3 -->
<g id="node3" class="node"><title>Node3</title>
<g id="a_node3"><a xlink:href="classVisualizationScene.html" target="_top" xlink:title="VisualizationScene">
<polygon fill="white" stroke="black" points="520,-125.5 520,-148.5 670,-148.5 670,-125.5 520,-125.5"/>
<text text-anchor="middle" x="595" y="-133.3" font-family="Helvetica,sans-Serif" font-size="14.00">VisualizationScene</text>
</a>
</g>
</g>
<!-- Node3&#45;&gt;Node2 -->
<g id="edge2" class="edge"><title>Node3&#45;&gt;Node2</title>
<path fill="none" stroke="midnightblue" d="M680.349,-131.465C682.929,-131.307 685.484,-131.151 688,-131 733.848,-128.242 784.364,-125.414 828.189,-123.028"/>
<polygon fill="midnightblue" stroke="midnightblue" points="680.074,-127.976 670.31,-132.089 680.508,-134.962 680.074,-127.976"/>
</g>
<!-- Node4 -->
<g id="node4" class="node"><title>Node4</title>
<g id="a_node4"><a xlink:href="classSdlWindow.html" target="_top" xlink:title="SdlWindow">
<polygon fill="white" stroke="black" points="294.5,-192.5 294.5,-215.5 389.5,-215.5 389.5,-192.5 294.5,-192.5"/>
<text text-anchor="middle" x="342" y="-200.3" font-family="Helvetica,sans-Serif" font-size="14.00">SdlWindow</text>
</a>
</g>
</g>
<!-- Node4&#45;&gt;Node3 -->
<g id="edge3" class="edge"><title>Node4&#45;&gt;Node3</title>
<path fill="none" stroke="#9a32cd" stroke-dasharray="5,2" d="M399.814,-194.913C430.389,-189.437 468.58,-181.649 502,-172 524.329,-165.553 548.898,-156.078 567.026,-148.612"/>
<polygon fill="#9a32cd" stroke="#9a32cd" points="398.998,-191.503 389.755,-196.681 400.21,-198.397 398.998,-191.503"/>
<text text-anchor="middle" x="467" y="-192.8" font-family="Helvetica,sans-Serif" font-size="14.00"> wnd</text>
</g>
<!-- Node5 -->
<g id="node5" class="node"><title>Node5</title>
<g id="a_node5"><a xlink:href="structMaterial.html" target="_top" xlink:title="Material">
<polygon fill="white" stroke="black" points="305,-150.5 305,-173.5 379,-173.5 379,-150.5 305,-150.5"/>
<text text-anchor="middle" x="342" y="-158.3" font-family="Helvetica,sans-Serif" font-size="14.00">Material</text>
</a>
</g>
</g>
<!-- Node5&#45;&gt;Node3 -->
<g id="edge4" class="edge"><title>Node5&#45;&gt;Node3</title>
<path fill="none" stroke="#9a32cd" stroke-dasharray="5,2" d="M389.596,-157.359C426.165,-153.717 477.773,-148.576 519.982,-144.372"/>
<polygon fill="#9a32cd" stroke="#9a32cd" points="388.833,-153.918 379.229,-158.391 389.527,-160.883 388.833,-153.918"/>
<text text-anchor="middle" x="467" y="-156.8" font-family="Helvetica,sans-Serif" font-size="14.00"> BLK_MAT</text>
</g>
<!-- Node6 -->
<g id="node6" class="node"><title>Node6</title>
<polygon fill="white" stroke="#bfbfbf" points="0.5,-124.5 0.5,-147.5 169.5,-147.5 169.5,-124.5 0.5,-124.5"/>
<text text-anchor="middle" x="85" y="-132.3" font-family="Helvetica,sans-Serif" font-size="14.00">std::array&lt; float, 4 &gt;</text>
</g>
<!-- Node6&#45;&gt;Node5 -->
<g id="edge5" class="edge"><title>Node6&#45;&gt;Node5</title>
<path fill="none" stroke="#9a32cd" stroke-dasharray="5,2" d="M179.886,-145.573C223.315,-150.001 272.347,-155 304.793,-158.308"/>
<polygon fill="#9a32cd" stroke="#9a32cd" points="180.153,-142.082 169.85,-144.549 179.443,-149.046 180.153,-142.082"/>
<text text-anchor="middle" x="220" y="-186.8" font-family="Helvetica,sans-Serif" font-size="14.00"> ambient</text>
<text text-anchor="middle" x="220" y="-171.8" font-family="Helvetica,sans-Serif" font-size="14.00">diffuse</text>
<text text-anchor="middle" x="220" y="-156.8" font-family="Helvetica,sans-Serif" font-size="14.00">specular</text>
</g>
<!-- Node6&#45;&gt;Node3 -->
<g id="edge8" class="edge"><title>Node6&#45;&gt;Node3</title>
<path fill="none" stroke="#9a32cd" stroke-dasharray="5,2" d="M179.859,-129.914C208.756,-128.305 240.678,-126.796 270,-126 333.976,-124.263 350.03,-124.047 414,-126 448.736,-127.06 487.19,-129.269 519.607,-131.431"/>
<polygon fill="#9a32cd" stroke="#9a32cd" points="179.559,-126.425 169.773,-130.486 179.955,-133.414 179.559,-126.425"/>
<text text-anchor="middle" x="342" y="-129.8" font-family="Helvetica,sans-Serif" font-size="14.00"> _l0_pos</text>
</g>
<!-- Node7 -->
<g id="node7" class="node"><title>Node7</title>
<g id="a_node7"><a xlink:href="classPaletteState.html" target="_top" xlink:title="PaletteState">
<polygon fill="white" stroke="black" points="290.5,-57.5 290.5,-80.5 393.5,-80.5 393.5,-57.5 290.5,-57.5"/>
<text text-anchor="middle" x="342" y="-65.3" font-family="Helvetica,sans-Serif" font-size="14.00">PaletteState</text>
</a>
</g>
</g>
<!-- Node7&#45;&gt;Node3 -->
<g id="edge6" class="edge"><title>Node7&#45;&gt;Node3</title>
<path fill="none" stroke="#9a32cd" stroke-dasharray="5,2" d="M404.112,-71.0152C434.152,-73.3281 470.562,-78.1314 502,-88 529.798,-96.7258 559.019,-113.857 576.879,-125.37"/>
<polygon fill="#9a32cd" stroke="#9a32cd" points="403.99,-67.4983 393.771,-70.2967 403.505,-74.4815 403.99,-67.4983"/>
<text text-anchor="middle" x="467" y="-91.8" font-family="Helvetica,sans-Serif" font-size="14.00"> palette</text>
</g>
<!-- Node8 -->
<g id="node8" class="node"><title>Node8</title>
<g id="a_node8"><a xlink:href="classCamera.html" target="_top" xlink:title="Camera">
<polygon fill="white" stroke="black" points="305,-234.5 305,-257.5 379,-257.5 379,-234.5 305,-234.5"/>
<text text-anchor="middle" x="342" y="-242.3" font-family="Helvetica,sans-Serif" font-size="14.00">Camera</text>
</a>
</g>
</g>
<!-- Node8&#45;&gt;Node3 -->
<g id="edge7" class="edge"><title>Node8&#45;&gt;Node3</title>
<path fill="none" stroke="#9a32cd" stroke-dasharray="5,2" d="M389.367,-240.204C422.046,-234.876 466.186,-225.121 502,-208 518.746,-199.994 558.947,-166.818 580.235,-148.79"/>
<polygon fill="#9a32cd" stroke="#9a32cd" points="388.531,-236.792 379.185,-241.782 389.603,-243.71 388.531,-236.792"/>
<text text-anchor="middle" x="467" y="-235.8" font-family="Helvetica,sans-Serif" font-size="14.00"> cam</text>
</g>
<!-- Node9 -->
<g id="node9" class="node"><title>Node9</title>
<g id="a_node9"><a xlink:href="classgl3_1_1GlDrawable.html" target="_top" xlink:title="gl3::GlDrawable">
<polygon fill="white" stroke="black" points="529.5,-207.5 529.5,-230.5 660.5,-230.5 660.5,-207.5 529.5,-207.5"/>
<text text-anchor="middle" x="595" y="-215.3" font-family="Helvetica,sans-Serif" font-size="14.00">gl3::GlDrawable</text>
</a>
</g>
</g>
<!-- Node9&#45;&gt;Node2 -->
<g id="edge9" class="edge"><title>Node9&#45;&gt;Node2</title>
<path fill="none" stroke="#9a32cd" stroke-dasharray="5,2" d="M615.322,-200.095C632.792,-184.211 659.998,-162.34 688,-151 713.412,-140.709 773.23,-132.446 828.434,-126.644"/>
<polygon fill="#9a32cd" stroke="#9a32cd" points="612.485,-197.956 607.567,-207.34 617.264,-203.071 612.485,-197.956"/>
<text text-anchor="middle" x="749" y="-214.8" font-family="Helvetica,sans-Serif" font-size="14.00"> coord_cross_buf</text>
<text text-anchor="middle" x="749" y="-199.8" font-family="Helvetica,sans-Serif" font-size="14.00">axes_buf</text>
<text text-anchor="middle" x="749" y="-184.8" font-family="Helvetica,sans-Serif" font-size="14.00">color_bar</text>
<text text-anchor="middle" x="749" y="-169.8" font-family="Helvetica,sans-Serif" font-size="14.00">ruler_buf</text>
<text text-anchor="middle" x="749" y="-154.8" font-family="Helvetica,sans-Serif" font-size="14.00">caption_buf</text>
</g>
<!-- Node9&#45;&gt;Node1 -->
<g id="edge13" class="edge"><title>Node9&#45;&gt;Node1</title>
<path fill="none" stroke="#9a32cd" stroke-dasharray="5,2" d="M671.097,-225.185C676.814,-225.512 682.498,-225.791 688,-226 828.644,-231.343 990.63,-221.671 1095.93,-213.277"/>
<polygon fill="#9a32cd" stroke="#9a32cd" points="671,-221.673 660.803,-224.551 670.569,-228.659 671,-221.673"/>
<text text-anchor="middle" x="943" y="-335.8" font-family="Helvetica,sans-Serif" font-size="14.00"> cplines_buf</text>
<text text-anchor="middle" x="943" y="-320.8" font-family="Helvetica,sans-Serif" font-size="14.00">order_buf</text>
<text text-anchor="middle" x="943" y="-305.8" font-family="Helvetica,sans-Serif" font-size="14.00">order_noarrow_buf</text>
<text text-anchor="middle" x="943" y="-290.8" font-family="Helvetica,sans-Serif" font-size="14.00">other_buf</text>
<text text-anchor="middle" x="943" y="-275.8" font-family="Helvetica,sans-Serif" font-size="14.00">lsurf_buf</text>
<text text-anchor="middle" x="943" y="-260.8" font-family="Helvetica,sans-Serif" font-size="14.00">disp_buf</text>
<text text-anchor="middle" x="943" y="-245.8" font-family="Helvetica,sans-Serif" font-size="14.00">cplane_buf</text>
<text text-anchor="middle" x="943" y="-230.8" font-family="Helvetica,sans-Serif" font-size="14.00">line_buf</text>
</g>
<!-- Node10 -->
<g id="node10" class="node"><title>Node10</title>
<g id="a_node10"><a xlink:href="classPlane.html" target="_top" xlink:title="Plane">
<polygon fill="white" stroke="black" points="567,-3.5 567,-26.5 623,-26.5 623,-3.5 567,-3.5"/>
<text text-anchor="middle" x="595" y="-11.3" font-family="Helvetica,sans-Serif" font-size="14.00">Plane</text>
</a>
</g>
</g>
<!-- Node10&#45;&gt;Node2 -->
<g id="edge10" class="edge"><title>Node10&#45;&gt;Node2</title>
<path fill="none" stroke="#9a32cd" stroke-dasharray="5,2" d="M633.209,-15.3359C676.677,-16.7126 750.255,-22.1283 810,-42 855.269,-57.0568 902.51,-88.3144 926.306,-105.337"/>
<polygon fill="#9a32cd" stroke="#9a32cd" points="633.183,-11.8341 623.095,-15.0719 633,-18.8317 633.183,-11.8341"/>
<text text-anchor="middle" x="749" y="-45.8" font-family="Helvetica,sans-Serif" font-size="14.00"> CuttingPlane</text>
</g>
<!-- Node11 -->
<g id="node11" class="node"><title>Node11</title>
<g id="a_node11"><a xlink:title="STL class. ">
<polygon fill="white" stroke="#bfbfbf" points="551,-45.5 551,-68.5 639,-68.5 639,-45.5 551,-45.5"/>
<text text-anchor="middle" x="595" y="-53.3" font-family="Helvetica,sans-Serif" font-size="14.00">std::string</text>
</a>
</g>
</g>
<!-- Node11&#45;&gt;Node2 -->
<g id="edge11" class="edge"><title>Node11&#45;&gt;Node2</title>
<path fill="none" stroke="#9a32cd" stroke-dasharray="5,2" d="M649.099,-58.5794C692.673,-60.6233 755.797,-65.3024 810,-76 845.432,-82.9928 884.825,-95.9338 911.276,-105.412"/>
<polygon fill="#9a32cd" stroke="#9a32cd" points="649.154,-55.0785 639.011,-58.1369 648.848,-62.0718 649.154,-55.0785"/>
<text text-anchor="middle" x="749" y="-109.8" font-family="Helvetica,sans-Serif" font-size="14.00"> a_label_x</text>
<text text-anchor="middle" x="749" y="-94.8" font-family="Helvetica,sans-Serif" font-size="14.00">a_label_y</text>
<text text-anchor="middle" x="749" y="-79.8" font-family="Helvetica,sans-Serif" font-size="14.00">a_label_z</text>
</g>
<!-- Node12 -->
<g id="node12" class="node"><title>Node12</title>
<polygon fill="white" stroke="#bfbfbf" points="270,-0 270,-38 414,-38 414,-0 270,-0"/>
<text text-anchor="start" x="278" y="-22.8" font-family="Helvetica,sans-Serif" font-size="14.00">std::basic_string&lt;</text>
<text text-anchor="middle" x="342" y="-7.8" font-family="Helvetica,sans-Serif" font-size="14.00"> char &gt;</text>
</g>
<!-- Node12&#45;&gt;Node11 -->
<g id="edge12" class="edge"><title>Node12&#45;&gt;Node11</title>
<path fill="none" stroke="midnightblue" d="M424.236,-31.2987C466.398,-37.6818 516.204,-45.2222 550.923,-50.4784"/>
<polygon fill="midnightblue" stroke="midnightblue" points="424.666,-27.824 414.255,-29.7876 423.619,-34.7452 424.666,-27.824"/>
</g>
</g>
</svg>
        <g id="navigator" transform="translate(0 0)" fill="#404254">
                <rect fill="#f2f5e9" fill-opacity="0.5" stroke="#606060" stroke-width=".5" x="0" y="0" width="60" height="60"/>
                <use id="zoomplus" xlink:href="#zoomPlus" x="17" y="9" onmousedown="handleZoom(evt,'in')"/>
                <use id="zoomminus" xlink:href="#zoomMin" x="42" y="9" onmousedown="handleZoom(evt,'out')"/>
                <use id="reset" xlink:href="#resetDef" x="30" y="36" onmousedown="handleReset()"/>
                <g id="arrowUp" xlink:href="#dirArrow" transform="translate(30 24)" onmousedown="handlePan(0,-1)">
                  <use xlink:href="#rim" fill="#404040">
                        <set attributeName="fill" to="#808080" begin="arrowUp.mouseover" end="arrowUp.mouseout"/>
                  </use>
                  <path fill="none" stroke="white" stroke-width="1.5" d="M0,-3.0v7 M-2.5,-0.5L0,-3.0L2.5,-0.5"/>
                </g>
                <g id="arrowRight" xlink:href="#dirArrow" transform="rotate(90) translate(36 -43)" onmousedown="handlePan(1,0)">
                  <use xlink:href="#rim" fill="#404040">
                        <set attributeName="fill" to="#808080" begin="arrowRight.mouseover" end="arrowRight.mouseout"/>
                  </use>
                  <path fill="none" stroke="white" stroke-width="1.5" d="M0,-3.0v7 M-2.5,-0.5L0,-3.0L2.5,-0.5"/>
                </g>
                <g id="arrowDown" xlink:href="#dirArrow" transform="rotate(180) translate(-30 -48)" onmousedown="handlePan(0,1)">
                  <use xlink:href="#rim" fill="#404040">
                        <set attributeName="fill" to="#808080" begin="arrowDown.mouseover" end="arrowDown.mouseout"/>
                  </use>
                  <path fill="none" stroke="white" stroke-width="1.5" d="M0,-3.0v7 M-2.5,-0.5L0,-3.0L2.5,-0.5"/>
                </g>
                <g id="arrowLeft" xlink:href="#dirArrow" transform="rotate(270) translate(-36 17)" onmousedown="handlePan(-1,0)">
                  <use xlink:href="#rim" fill="#404040">
                        <set attributeName="fill" to="#808080" begin="arrowLeft.mouseover" end="arrowLeft.mouseout"/>
                  </use>
                  <path fill="none" stroke="white" stroke-width="1.5" d="M0,-3.0v7 M-2.5,-0.5L0,-3.0L2.5,-0.5"/>
                </g>
        </g>
        <svg viewBox="0 0 15 15" width="100%" height="30px" preserveAspectRatio="xMaxYMin meet">
         <g id="arrow_out" transform="scale(0.3 0.3)">
          <a xlink:href="classVisualizationSceneSolution3d__coll__graph_org.svg" target="_base">
           <rect id="button" ry="5" rx="5" y="6" x="6" height="38" width="38"
                fill="#f2f5e9" fill-opacity="0.5" stroke="#606060" stroke-width="1.0"/>
           <path id="arrow"
             d="M 11.500037,31.436501 C 11.940474,20.09759 22.043105,11.32322 32.158766,21.979434 L 37.068811,17.246167 C 37.068811,17.246167 37.088388,32 37.088388,32 L 22.160133,31.978069 C 22.160133,31.978069 26.997745,27.140456 26.997745,27.140456 C 18.528582,18.264221 13.291696,25.230495 11.500037,31.436501 z"
             style="fill:#404040;"/>
          </a>
         </g>
        </svg>
</svg>
