<?xml version="1.0" encoding="UTF-8" standalone="no"?>
<!DOCTYPE svg PUBLIC "-//W3C//DTD SVG 1.1//EN"
 "http://www.w3.org/Graphics/SVG/1.1/DTD/svg11.dtd">
<!-- Generated by graphviz version 2.30.1 (20200304.1809)
 -->
<!-- Title: glTF_Builder Pages: 1 -->
<svg width="624pt" height="545pt"
 viewBox="0.00 0.00 624.00 545.00" xmlns="http://www.w3.org/2000/svg" xmlns:xlink="http://www.w3.org/1999/xlink">
<g id="graph0" class="graph" transform="scale(1 1) rotate(0) translate(4 541)">
<title>glTF_Builder</title>
<polygon fill="white" stroke="white" points="-4,5 -4,-541 621,-541 621,5 -4,5"/>
<!-- Node1 -->
<g id="node1" class="node"><title>Node1</title>
<polygon fill="#bfbfbf" stroke="black" points="512,-249.5 512,-272.5 616,-272.5 616,-249.5 512,-249.5"/>
<text text-anchor="middle" x="564" y="-257.3" font-family="Helvetica,sans-Serif" font-size="14.00">glTF_Builder</text>
</g>
<!-- Node2 -->
<g id="node2" class="node"><title>Node2</title>
<polygon fill="white" stroke="#bfbfbf" points="182.5,-499 182.5,-537 379.5,-537 379.5,-499 182.5,-499"/>
<text text-anchor="start" x="190.5" y="-521.8" font-family="Helvetica,sans-Serif" font-size="14.00">std::vector&lt; glTF_Builder</text>
<text text-anchor="middle" x="281" y="-506.8" font-family="Helvetica,sans-Serif" font-size="14.00">::struct_mesh &gt;</text>
</g>
<!-- Node2&#45;&gt;Node1 -->
<g id="edge1" class="edge"><title>Node2&#45;&gt;Node1</title>
<path fill="none" stroke="#9a32cd" stroke-dasharray="5,2" d="M390.046,-512.383C426.875,-505.462 465.82,-491.904 494,-466 552.473,-412.251 561.425,-307.389 562.771,-272.557"/>
<polygon fill="#9a32cd" stroke="#9a32cd" points="388.985,-509.015 379.726,-514.164 390.175,-515.913 388.985,-509.015"/>
<text text-anchor="middle" x="446" y="-513.8" font-family="Helvetica,sans-Serif" font-size="14.00"> meshes</text>
</g>
<!-- Node3 -->
<g id="node3" class="node"><title>Node3</title>
<polygon fill="white" stroke="#bfbfbf" points="182.5,-442 182.5,-480 379.5,-480 379.5,-442 182.5,-442"/>
<text text-anchor="start" x="190.5" y="-464.8" font-family="Helvetica,sans-Serif" font-size="14.00">std::vector&lt; glTF_Builder</text>
<text text-anchor="middle" x="281" y="-449.8" font-family="Helvetica,sans-Serif" font-size="14.00">::struct_buffer &gt;</text>
</g>
<!-- Node3&#45;&gt;Node1 -->
<g id="edge2" class="edge"><title>Node3&#45;&gt;Node1</title>
<path fill="none" stroke="#9a32cd" stroke-dasharray="5,2" d="M389.899,-449.09C426.131,-440.663 464.73,-426.334 494,-402 536.123,-366.981 554.636,-300.03 560.647,-272.879"/>
<polygon fill="#9a32cd" stroke="#9a32cd" points="388.772,-445.754 379.753,-451.313 390.27,-452.591 388.772,-445.754"/>
<text text-anchor="middle" x="446" y="-450.8" font-family="Helvetica,sans-Serif" font-size="14.00"> buffers</text>
</g>
<!-- Node4 -->
<g id="node4" class="node"><title>Node4</title>
<polygon fill="white" stroke="#bfbfbf" points="182.5,-385 182.5,-423 379.5,-423 379.5,-385 182.5,-385"/>
<text text-anchor="start" x="190.5" y="-407.8" font-family="Helvetica,sans-Serif" font-size="14.00">std::vector&lt; glTF_Builder</text>
<text text-anchor="middle" x="281" y="-392.8" font-family="Helvetica,sans-Serif" font-size="14.00">::struct_buffer_view &gt;</text>
</g>
<!-- Node4&#45;&gt;Node1 -->
<g id="edge3" class="edge"><title>Node4&#45;&gt;Node1</title>
<path fill="none" stroke="#9a32cd" stroke-dasharray="5,2" d="M389.378,-386.818C424.651,-377.835 462.782,-364.298 494,-344 522.906,-325.205 545.905,-290.55 556.556,-272.543"/>
<polygon fill="#9a32cd" stroke="#9a32cd" points="388.395,-383.455 379.514,-389.232 390.059,-390.254 388.395,-383.455"/>
<text text-anchor="middle" x="446" y="-386.8" font-family="Helvetica,sans-Serif" font-size="14.00"> buffer_views</text>
</g>
<!-- Node5 -->
<g id="node5" class="node"><title>Node5</title>
<polygon fill="white" stroke="#bfbfbf" points="182.5,-328 182.5,-366 379.5,-366 379.5,-328 182.5,-328"/>
<text text-anchor="start" x="190.5" y="-350.8" font-family="Helvetica,sans-Serif" font-size="14.00">std::vector&lt; glTF_Builder</text>
<text text-anchor="middle" x="281" y="-335.8" font-family="Helvetica,sans-Serif" font-size="14.00">::struct_sampler &gt;</text>
</g>
<!-- Node5&#45;&gt;Node1 -->
<g id="edge4" class="edge"><title>Node5&#45;&gt;Node1</title>
<path fill="none" stroke="#9a32cd" stroke-dasharray="5,2" d="M389.494,-327.104C423.455,-319.377 460.775,-309.364 494,-297 511.602,-290.45 530.431,-280.399 543.966,-272.581"/>
<polygon fill="#9a32cd" stroke="#9a32cd" points="388.54,-323.731 379.543,-329.326 390.065,-330.563 388.54,-323.731"/>
<text text-anchor="middle" x="446" y="-328.8" font-family="Helvetica,sans-Serif" font-size="14.00"> samplers</text>
</g>
<!-- Node6 -->
<g id="node6" class="node"><title>Node6</title>
<polygon fill="white" stroke="#bfbfbf" points="182.5,-271 182.5,-309 379.5,-309 379.5,-271 182.5,-271"/>
<text text-anchor="start" x="190.5" y="-293.8" font-family="Helvetica,sans-Serif" font-size="14.00">std::vector&lt; glTF_Builder</text>
<text text-anchor="middle" x="281" y="-278.8" font-family="Helvetica,sans-Serif" font-size="14.00">::struct_image &gt;</text>
</g>
<!-- Node6&#45;&gt;Node1 -->
<g id="edge5" class="edge"><title>Node6&#45;&gt;Node1</title>
<path fill="none" stroke="#9a32cd" stroke-dasharray="5,2" d="M389.891,-278.865C431.858,-274.534 477.934,-269.779 511.991,-266.264"/>
<polygon fill="#9a32cd" stroke="#9a32cd" points="389.474,-275.39 379.886,-279.898 390.192,-282.353 389.474,-275.39"/>
<text text-anchor="middle" x="446" y="-281.8" font-family="Helvetica,sans-Serif" font-size="14.00"> images</text>
</g>
<!-- Node7 -->
<g id="node7" class="node"><title>Node7</title>
<polygon fill="white" stroke="#bfbfbf" points="182.5,-214 182.5,-252 379.5,-252 379.5,-214 182.5,-214"/>
<text text-anchor="start" x="190.5" y="-236.8" font-family="Helvetica,sans-Serif" font-size="14.00">std::vector&lt; glTF_Builder</text>
<text text-anchor="middle" x="281" y="-221.8" font-family="Helvetica,sans-Serif" font-size="14.00">::struct_node &gt;</text>
</g>
<!-- Node7&#45;&gt;Node1 -->
<g id="edge6" class="edge"><title>Node7&#45;&gt;Node1</title>
<path fill="none" stroke="#9a32cd" stroke-dasharray="5,2" d="M389.911,-242.731C423.294,-245.862 460.181,-249.445 494,-253 499.757,-253.605 505.781,-254.265 511.769,-254.937"/>
<polygon fill="#9a32cd" stroke="#9a32cd" points="389.953,-239.22 379.671,-241.774 389.302,-246.189 389.953,-239.22"/>
<text text-anchor="middle" x="446" y="-256.8" font-family="Helvetica,sans-Serif" font-size="14.00"> nodes</text>
</g>
<!-- Node8 -->
<g id="node8" class="node"><title>Node8</title>
<g id="a_node8"><a xlink:title="STL class. ">
<polygon fill="white" stroke="#bfbfbf" points="237,-171.5 237,-194.5 325,-194.5 325,-171.5 237,-171.5"/>
<text text-anchor="middle" x="281" y="-179.3" font-family="Helvetica,sans-Serif" font-size="14.00">std::string</text>
</a>
</g>
</g>
<!-- Node8&#45;&gt;Node1 -->
<g id="edge7" class="edge"><title>Node8&#45;&gt;Node1</title>
<path fill="none" stroke="#9a32cd" stroke-dasharray="5,2" d="M335.278,-189.264C378.838,-195.396 441.571,-206.558 494,-225 511.844,-231.277 530.808,-241.455 544.329,-249.39"/>
<polygon fill="#9a32cd" stroke="#9a32cd" points="335.568,-185.771 325.186,-187.885 334.621,-192.707 335.568,-185.771"/>
<text text-anchor="middle" x="446" y="-228.8" font-family="Helvetica,sans-Serif" font-size="14.00"> file_prefix</text>
</g>
<!-- Node9 -->
<g id="node9" class="node"><title>Node9</title>
<polygon fill="white" stroke="#bfbfbf" points="0,-164 0,-202 144,-202 144,-164 0,-164"/>
<text text-anchor="start" x="8" y="-186.8" font-family="Helvetica,sans-Serif" font-size="14.00">std::basic_string&lt;</text>
<text text-anchor="middle" x="72" y="-171.8" font-family="Helvetica,sans-Serif" font-size="14.00"> char &gt;</text>
</g>
<!-- Node9&#45;&gt;Node8 -->
<g id="edge8" class="edge"><title>Node9&#45;&gt;Node8</title>
<path fill="none" stroke="midnightblue" d="M154.465,-183C182.549,-183 212.902,-183 236.726,-183"/>
<polygon fill="midnightblue" stroke="midnightblue" points="154.238,-179.5 144.238,-183 154.238,-186.5 154.238,-179.5"/>
</g>
<!-- Node10 -->
<g id="node10" class="node"><title>Node10</title>
<polygon fill="white" stroke="#bfbfbf" points="182.5,-114 182.5,-152 379.5,-152 379.5,-114 182.5,-114"/>
<text text-anchor="start" x="190.5" y="-136.8" font-family="Helvetica,sans-Serif" font-size="14.00">std::vector&lt; glTF_Builder</text>
<text text-anchor="middle" x="281" y="-121.8" font-family="Helvetica,sans-Serif" font-size="14.00">::struct_material &gt;</text>
</g>
<!-- Node10&#45;&gt;Node1 -->
<g id="edge9" class="edge"><title>Node10&#45;&gt;Node1</title>
<path fill="none" stroke="#9a32cd" stroke-dasharray="5,2" d="M389.953,-144.54C424.933,-151.688 462.741,-163.262 494,-182 522.427,-199.04 545.309,-231.78 556.163,-249.285"/>
<polygon fill="#9a32cd" stroke="#9a32cd" points="390.168,-141.017 379.685,-142.55 388.836,-147.889 390.168,-141.017"/>
<text text-anchor="middle" x="446" y="-185.8" font-family="Helvetica,sans-Serif" font-size="14.00"> materials</text>
</g>
<!-- Node11 -->
<g id="node11" class="node"><title>Node11</title>
<polygon fill="white" stroke="#bfbfbf" points="182.5,-57 182.5,-95 379.5,-95 379.5,-57 182.5,-57"/>
<text text-anchor="start" x="190.5" y="-79.8" font-family="Helvetica,sans-Serif" font-size="14.00">std::vector&lt; glTF_Builder</text>
<text text-anchor="middle" x="281" y="-64.8" font-family="Helvetica,sans-Serif" font-size="14.00">::struct_accessor &gt;</text>
</g>
<!-- Node11&#45;&gt;Node1 -->
<g id="edge10" class="edge"><title>Node11&#45;&gt;Node1</title>
<path fill="none" stroke="#9a32cd" stroke-dasharray="5,2" d="M389.69,-84.4284C425.809,-91.6715 464.388,-104.714 494,-128 534.895,-160.159 554.006,-223.246 560.41,-249.308"/>
<polygon fill="#9a32cd" stroke="#9a32cd" points="390.051,-80.9352 379.578,-82.5356 388.763,-87.8157 390.051,-80.9352"/>
<text text-anchor="middle" x="446" y="-131.8" font-family="Helvetica,sans-Serif" font-size="14.00"> accessors</text>
</g>
<!-- Node12 -->
<g id="node12" class="node"><title>Node12</title>
<polygon fill="white" stroke="#bfbfbf" points="182.5,-0 182.5,-38 379.5,-38 379.5,-0 182.5,-0"/>
<text text-anchor="start" x="190.5" y="-22.8" font-family="Helvetica,sans-Serif" font-size="14.00">std::vector&lt; glTF_Builder</text>
<text text-anchor="middle" x="281" y="-7.8" font-family="Helvetica,sans-Serif" font-size="14.00">::struct_texture &gt;</text>
</g>
<!-- Node12&#45;&gt;Node1 -->
<g id="edge11" class="edge"><title>Node12&#45;&gt;Node1</title>
<path fill="none" stroke="#9a32cd" stroke-dasharray="5,2" d="M389.95,-23.8661C426.67,-30.4778 465.57,-43.6233 494,-69 549.493,-118.532 560.374,-216 562.492,-249.428"/>
<polygon fill="#9a32cd" stroke="#9a32cd" points="390.098,-20.3432 379.662,-22.1698 388.959,-27.25 390.098,-20.3432"/>
<text text-anchor="middle" x="446" y="-72.8" font-family="Helvetica,sans-Serif" font-size="14.00"> textures</text>
</g>
</g>
</svg>
