<?xml version="1.0" encoding="UTF-8" standalone="no"?>
<!DOCTYPE svg PUBLIC "-//W3C//DTD SVG 1.1//EN"
 "http://www.w3.org/Graphics/SVG/1.1/DTD/svg11.dtd">
<!-- Generated by graphviz version 2.30.1 (20200304.1809)
 -->
<!-- Title: VisualizationScene Pages: 1 -->
<svg width="509pt" height="214pt"
 viewBox="0.00 0.00 509.00 214.00" xmlns="http://www.w3.org/2000/svg" xmlns:xlink="http://www.w3.org/1999/xlink">
<g id="graph0" class="graph" transform="scale(1 1) rotate(0) translate(4 210)">
<title>VisualizationScene</title>
<polygon fill="white" stroke="white" points="-4,5 -4,-210 506,-210 506,5 -4,5"/>
<!-- Node1 -->
<g id="node1" class="node"><title>Node1</title>
<polygon fill="#bfbfbf" stroke="black" points="154,-0.5 154,-23.5 304,-23.5 304,-0.5 154,-0.5"/>
<text text-anchor="middle" x="229" y="-8.3" font-family="Helvetica,sans-Serif" font-size="14.00">VisualizationScene</text>
</g>
<!-- Node2 -->
<g id="node2" class="node"><title>Node2</title>
<g id="a_node2"><a xlink:href="classSdlWindow.html" target="_top" xlink:title="SdlWindow">
<polygon fill="white" stroke="black" points="-0.5,-76.5 -0.5,-99.5 94.5,-99.5 94.5,-76.5 -0.5,-76.5"/>
<text text-anchor="middle" x="47" y="-84.3" font-family="Helvetica,sans-Serif" font-size="14.00">SdlWindow</text>
</a>
</g>
</g>
<!-- Node2&#45;&gt;Node1 -->
<g id="edge1" class="edge"><title>Node2&#45;&gt;Node1</title>
<path fill="none" stroke="#9a32cd" stroke-dasharray="5,2" d="M64.2822,-69.3149C74.4416,-59.8847 88.0095,-48.8466 102,-42 118.861,-33.7488 138.138,-27.7995 156.493,-23.5269"/>
<polygon fill="#9a32cd" stroke="#9a32cd" points="61.6844,-66.958 56.9223,-76.4223 66.547,-71.9934 61.6844,-66.958"/>
<text text-anchor="middle" x="119.5" y="-46.3" font-family="Helvetica,sans-Serif" font-size="14.00"> wnd</text>
</g>
<!-- Node3 -->
<g id="node3" class="node"><title>Node3</title>
<g id="a_node3"><a xlink:href="structMaterial.html" target="_top" xlink:title="Material">
<polygon fill="white" stroke="black" points="113,-76.5 113,-99.5 187,-99.5 187,-76.5 113,-76.5"/>
<text text-anchor="middle" x="150" y="-84.3" font-family="Helvetica,sans-Serif" font-size="14.00">Material</text>
</a>
</g>
</g>
<!-- Node3&#45;&gt;Node1 -->
<g id="edge2" class="edge"><title>Node3&#45;&gt;Node1</title>
<path fill="none" stroke="#9a32cd" stroke-dasharray="5,2" d="M142.063,-66.5851C140.198,-58.2872 139.996,-49.0214 145,-42 150.91,-33.7079 159.355,-27.7639 168.637,-23.5083"/>
<polygon fill="#9a32cd" stroke="#9a32cd" points="138.775,-67.7993 145.049,-76.3363 145.468,-65.7497 138.775,-67.7993"/>
<text text-anchor="middle" x="180" y="-46.3" font-family="Helvetica,sans-Serif" font-size="14.00"> BLK_MAT</text>
</g>
<!-- Node4 -->
<g id="node4" class="node"><title>Node4</title>
<polygon fill="white" stroke="#bfbfbf" points="104.5,-182.5 104.5,-205.5 273.5,-205.5 273.5,-182.5 104.5,-182.5"/>
<text text-anchor="middle" x="189" y="-190.3" font-family="Helvetica,sans-Serif" font-size="14.00">std::array&lt; float, 4 &gt;</text>
</g>
<!-- Node4&#45;&gt;Node3 -->
<g id="edge3" class="edge"><title>Node4&#45;&gt;Node3</title>
<path fill="none" stroke="#9a32cd" stroke-dasharray="5,2" d="M160.323,-175.951C156.576,-172.478 153.259,-168.49 151,-164 140.524,-143.177 144.209,-114.806 147.374,-99.6225"/>
<polygon fill="#9a32cd" stroke="#9a32cd" points="158.405,-178.897 168.421,-182.352 162.746,-173.405 158.405,-178.897"/>
<text text-anchor="middle" x="183" y="-152.3" font-family="Helvetica,sans-Serif" font-size="14.00"> ambient</text>
<text text-anchor="middle" x="183" y="-137.3" font-family="Helvetica,sans-Serif" font-size="14.00">diffuse</text>
<text text-anchor="middle" x="183" y="-122.3" font-family="Helvetica,sans-Serif" font-size="14.00">specular</text>
</g>
<!-- Node4&#45;&gt;Node1 -->
<g id="edge6" class="edge"><title>Node4&#45;&gt;Node1</title>
<path fill="none" stroke="#9a32cd" stroke-dasharray="5,2" d="M208.37,-174.776C210.99,-171.435 213.343,-167.796 215,-164 236.281,-115.261 232.694,-49.4228 230.235,-23.8158"/>
<polygon fill="#9a32cd" stroke="#9a32cd" points="205.618,-172.602 201.548,-182.384 210.83,-177.275 205.618,-172.602"/>
<text text-anchor="middle" x="261" y="-84.3" font-family="Helvetica,sans-Serif" font-size="14.00"> _l0_pos</text>
</g>
<!-- Node5 -->
<g id="node5" class="node"><title>Node5</title>
<g id="a_node5"><a xlink:href="classPaletteState.html" target="_top" xlink:title="PaletteState">
<polygon fill="white" stroke="black" points="305.5,-76.5 305.5,-99.5 408.5,-99.5 408.5,-76.5 305.5,-76.5"/>
<text text-anchor="middle" x="357" y="-84.3" font-family="Helvetica,sans-Serif" font-size="14.00">PaletteState</text>
</a>
</g>
</g>
<!-- Node5&#45;&gt;Node1 -->
<g id="edge4" class="edge"><title>Node5&#45;&gt;Node1</title>
<path fill="none" stroke="#9a32cd" stroke-dasharray="5,2" d="M329.737,-71.2388C304.888,-56.8728 268.866,-36.0478 247.305,-23.5827"/>
<polygon fill="#9a32cd" stroke="#9a32cd" points="328.252,-74.4226 338.661,-76.3976 331.755,-68.3624 328.252,-74.4226"/>
<text text-anchor="middle" x="332.5" y="-46.3" font-family="Helvetica,sans-Serif" font-size="14.00"> palette</text>
</g>
<!-- Node6 -->
<g id="node6" class="node"><title>Node6</title>
<g id="a_node6"><a xlink:href="classCamera.html" target="_top" xlink:title="Camera">
<polygon fill="white" stroke="black" points="427,-76.5 427,-99.5 501,-99.5 501,-76.5 427,-76.5"/>
<text text-anchor="middle" x="464" y="-84.3" font-family="Helvetica,sans-Serif" font-size="14.00">Camera</text>
</a>
</g>
</g>
<!-- Node6&#45;&gt;Node1 -->
<g id="edge5" class="edge"><title>Node6&#45;&gt;Node1</title>
<path fill="none" stroke="#9a32cd" stroke-dasharray="5,2" d="M434.802,-71.8838C415.199,-62.2326 388.56,-50.0634 364,-42 340.655,-34.3354 314.361,-28.1593 291.224,-23.5086"/>
<polygon fill="#9a32cd" stroke="#9a32cd" points="433.311,-75.0511 443.821,-76.3904 436.44,-68.7894 433.311,-75.0511"/>
<text text-anchor="middle" x="422" y="-46.3" font-family="Helvetica,sans-Serif" font-size="14.00"> cam</text>
</g>
</g>
</svg>
