<?xml version="1.0" encoding="UTF-8" standalone="no"?>
<!DOCTYPE svg PUBLIC "-//W3C//DTD SVG 1.1//EN"
 "http://www.w3.org/Graphics/SVG/1.1/DTD/svg11.dtd">
<!-- Generated by graphviz version 2.26.3 (20100126.1600)
 -->
<!-- Title: VisualizationSceneSolution3d Pages: 1 -->
<svg width="259pt" height="254pt"
 viewBox="0.00 0.00 259.00 254.00" xmlns="http://www.w3.org/2000/svg" xmlns:xlink="http://www.w3.org/1999/xlink">
<g id="graph1" class="graph" transform="scale(1 1) rotate(0) translate(4 250)">
<title>VisualizationSceneSolution3d</title>
<polygon fill="white" stroke="white" points="-4,5 -4,-250 256,-250 256,5 -4,5"/>
<!-- Node1 -->
<g id="node1" class="node"><title>Node1</title>
<polygon fill="#bfbfbf" stroke="black" points="50,-1 50,-25 250,-25 250,-1 50,-1"/>
<text text-anchor="middle" x="150" y="-8.4" font-family="Helvetica,sans-Serif" font-size="14.00">VisualizationSceneSolution3d</text>
</g>
<!-- Node2 -->
<g id="node2" class="node"><title>Node2</title>
<a xlink:href="classVisualizationSceneScalarData.html" target="_top" xlink:title="VisualizationSceneScalarData">
<polygon fill="white" stroke="black" points="48.5,-65 48.5,-89 251.5,-89 251.5,-65 48.5,-65"/>
<text text-anchor="middle" x="150" y="-72.4" font-family="Helvetica,sans-Serif" font-size="14.00">VisualizationSceneScalarData</text>
</a>
</g>
<!-- Node2&#45;&gt;Node1 -->
<g id="edge2" class="edge"><title>Node2&#45;&gt;Node1</title>
<path fill="none" stroke="midnightblue" d="M150,-54.6785C150,-44.8681 150,-33.7179 150,-25.4205"/>
<polygon fill="midnightblue" stroke="midnightblue" points="146.5,-54.9621 150,-64.9621 153.5,-54.9621 146.5,-54.9621"/>
</g>
<!-- Node3 -->
<g id="node4" class="node"><title>Node3</title>
<a xlink:href="classVisualizationScene.html" target="_top" xlink:title="VisualizationScene">
<polygon fill="white" stroke="black" points="0,-143 0,-167 134,-167 134,-143 0,-143"/>
<text text-anchor="middle" x="67" y="-150.4" font-family="Helvetica,sans-Serif" font-size="14.00">VisualizationScene</text>
</a>
</g>
<!-- Node3&#45;&gt;Node2 -->
<g id="edge4" class="edge"><title>Node3&#45;&gt;Node2</title>
<path fill="none" stroke="midnightblue" d="M87.5327,-135.704C103.053,-121.119 123.879,-101.548 137.122,-89.1019"/>
<polygon fill="midnightblue" stroke="midnightblue" points="84.8591,-133.414 79.9688,-142.812 89.6528,-138.515 84.8591,-133.414"/>
</g>
<!-- Node4 -->
<g id="node6" class="node"><title>Node4</title>
<a xlink:href="classCamera.html" target="_top" xlink:title="Camera">
<polygon fill="white" stroke="black" points="34,-221 34,-245 100,-245 100,-221 34,-221"/>
<text text-anchor="middle" x="67" y="-228.4" font-family="Helvetica,sans-Serif" font-size="14.00">Camera</text>
</a>
</g>
<!-- Node4&#45;&gt;Node3 -->
<g id="edge6" class="edge"><title>Node4&#45;&gt;Node3</title>
<path fill="none" stroke="#9a32cd" stroke-dasharray="5,2" d="M67,-210.417C67,-196.285 67,-178.634 67,-167.102"/>
<polygon fill="#9a32cd" stroke="#9a32cd" points="63.5001,-210.812 67,-220.812 70.5001,-210.813 63.5001,-210.812"/>
<text text-anchor="middle" x="83" y="-189.4" font-family="Helvetica,sans-Serif" font-size="14.00"> cam</text>
</g>
<!-- Node5 -->
<g id="node8" class="node"><title>Node5</title>
<a xlink:href="classPlane.html" target="_top" xlink:title="Plane">
<polygon fill="white" stroke="black" points="152,-143 152,-167 204,-167 204,-143 152,-143"/>
<text text-anchor="middle" x="178" y="-150.4" font-family="Helvetica,sans-Serif" font-size="14.00">Plane</text>
</a>
</g>
<!-- Node5&#45;&gt;Node2 -->
<g id="edge8" class="edge"><title>Node5&#45;&gt;Node2</title>
<path fill="none" stroke="#9a32cd" stroke-dasharray="5,2" d="M170.193,-133.252C165.072,-118.986 158.566,-100.863 154.344,-89.1019"/>
<polygon fill="#9a32cd" stroke="#9a32cd" points="166.952,-134.583 173.625,-142.812 173.54,-132.218 166.952,-134.583"/>
<text text-anchor="middle" x="208.5" y="-111.4" font-family="Helvetica,sans-Serif" font-size="14.00"> CuttingPlane</text>
</g>
</g>
</svg>
