<?xml version="1.0" encoding="UTF-8" standalone="no"?>
<!DOCTYPE svg PUBLIC "-//W3C//DTD SVG 1.1//EN"
 "http://www.w3.org/Graphics/SVG/1.1/DTD/svg11.dtd">
<!-- Generated by graphviz version 2.26.3 (20100126.1600)
 -->
<!-- Title: G Pages: 1 -->
<svg width="308pt" height="196pt"
 viewBox="0.00 0.00 308.00 196.00" xmlns="http://www.w3.org/2000/svg" xmlns:xlink="http://www.w3.org/1999/xlink">
<g id="graph1" class="graph" transform="scale(1 1) rotate(0) translate(4 192)">
<title>G</title>
<polygon fill="white" stroke="white" points="-4,5 -4,-192 305,-192 305,5 -4,5"/>
<!-- Node1 -->
<g id="node1" class="node"><title>Node1</title>
<polygon fill="#bfbfbf" stroke="black" points="72,-112.5 72,-131.5 222,-131.5 222,-112.5 72,-112.5"/>
<text text-anchor="middle" x="147" y="-118.5" font-family="FreeSans" font-size="10.00">VisualizationSceneScalarData</text>
</g>
<!-- Node3 -->
<g id="node5" class="node"><title>Node3</title>
<a xlink:href="classVisualizationSceneSolution.html" target="_top" xlink:title="VisualizationSceneSolution">
<polygon fill="white" stroke="black" points="0,-56.5 0,-75.5 136,-75.5 136,-56.5 0,-56.5"/>
<text text-anchor="middle" x="68" y="-62.5" font-family="FreeSans" font-size="10.00">VisualizationSceneSolution</text>
</a>
</g>
<!-- Node1&#45;&gt;Node3 -->
<g id="edge4" class="edge"><title>Node1&#45;&gt;Node3</title>
<path fill="none" stroke="midnightblue" d="M124.724,-106.21C110.849,-96.3743 93.4485,-84.0394 81.6031,-75.6427"/>
<polygon fill="midnightblue" stroke="midnightblue" points="123.057,-109.318 133.239,-112.246 127.105,-103.607 123.057,-109.318"/>
</g>
<!-- Node5 -->
<g id="node9" class="node"><title>Node5</title>
<a xlink:href="classVisualizationSceneSolution3d.html" target="_top" xlink:title="VisualizationSceneSolution3d">
<polygon fill="white" stroke="black" points="153.5,-56.5 153.5,-75.5 300.5,-75.5 300.5,-56.5 153.5,-56.5"/>
<text text-anchor="middle" x="227" y="-62.5" font-family="FreeSans" font-size="10.00">VisualizationSceneSolution3d</text>
</a>
</g>
<!-- Node1&#45;&gt;Node5 -->
<g id="edge8" class="edge"><title>Node1&#45;&gt;Node5</title>
<path fill="none" stroke="midnightblue" d="M169.157,-106.49C183.272,-96.6096 201.115,-84.1194 213.225,-75.6427"/>
<polygon fill="midnightblue" stroke="midnightblue" points="167.12,-103.644 160.935,-112.246 171.134,-109.378 167.12,-103.644"/>
</g>
<!-- Node2 -->
<g id="node2" class="node"><title>Node2</title>
<a xlink:href="classVisualizationScene.html" target="_top" xlink:title="VisualizationScene">
<polygon fill="white" stroke="black" points="97,-168.5 97,-187.5 197,-187.5 197,-168.5 97,-168.5"/>
<text text-anchor="middle" x="147" y="-174.5" font-family="FreeSans" font-size="10.00">VisualizationScene</text>
</a>
</g>
<!-- Node2&#45;&gt;Node1 -->
<g id="edge2" class="edge"><title>Node2&#45;&gt;Node1</title>
<path fill="none" stroke="midnightblue" d="M147,-158.158C147,-149.155 147,-138.92 147,-131.643"/>
<polygon fill="midnightblue" stroke="midnightblue" points="143.5,-158.246 147,-168.246 150.5,-158.246 143.5,-158.246"/>
</g>
<!-- Node4 -->
<g id="node7" class="node"><title>Node4</title>
<a xlink:href="classVisualizationSceneVector.html" target="_top" xlink:title="VisualizationSceneVector">
<polygon fill="white" stroke="black" points="3.5,-0.5 3.5,-19.5 132.5,-19.5 132.5,-0.5 3.5,-0.5"/>
<text text-anchor="middle" x="68" y="-6.5" font-family="FreeSans" font-size="10.00">VisualizationSceneVector</text>
</a>
</g>
<!-- Node3&#45;&gt;Node4 -->
<g id="edge6" class="edge"><title>Node3&#45;&gt;Node4</title>
<path fill="none" stroke="midnightblue" d="M68,-46.1575C68,-37.155 68,-26.9199 68,-19.6427"/>
<polygon fill="midnightblue" stroke="midnightblue" points="64.5001,-46.2455 68,-56.2455 71.5001,-46.2456 64.5001,-46.2455"/>
</g>
<!-- Node6 -->
<g id="node11" class="node"><title>Node6</title>
<a xlink:href="classVisualizationSceneVector3d.html" target="_top" xlink:title="VisualizationSceneVector3d">
<polygon fill="white" stroke="black" points="157,-0.5 157,-19.5 297,-19.5 297,-0.5 157,-0.5"/>
<text text-anchor="middle" x="227" y="-6.5" font-family="FreeSans" font-size="10.00">VisualizationSceneVector3d</text>
</a>
</g>
<!-- Node5&#45;&gt;Node6 -->
<g id="edge10" class="edge"><title>Node5&#45;&gt;Node6</title>
<path fill="none" stroke="midnightblue" d="M227,-46.1575C227,-37.155 227,-26.9199 227,-19.6427"/>
<polygon fill="midnightblue" stroke="midnightblue" points="223.5,-46.2455 227,-56.2455 230.5,-46.2456 223.5,-46.2455"/>
</g>
</g>
</svg>
