<?xml version="1.0" encoding="UTF-8" standalone="no"?>
<!DOCTYPE svg PUBLIC "-//W3C//DTD SVG 1.1//EN"
 "http://www.w3.org/Graphics/SVG/1.1/DTD/svg11.dtd">
<!-- Generated by graphviz version 2.30.1 (20200304.1809)
 -->
<!-- Title: VisualizationSceneScalarData Pages: 1 -->
<svg width="460pt" height="212pt"
 viewBox="0.00 0.00 460.00 212.00" xmlns="http://www.w3.org/2000/svg" xmlns:xlink="http://www.w3.org/1999/xlink">
<g id="graph0" class="graph" transform="scale(1 1) rotate(0) translate(4 208)">
<title>VisualizationSceneScalarData</title>
<polygon fill="white" stroke="white" points="-4,5 -4,-208 457,-208 457,5 -4,5"/>
<!-- Node1 -->
<g id="node1" class="node"><title>Node1</title>
<polygon fill="#bfbfbf" stroke="black" points="106.5,-120.5 106.5,-143.5 335.5,-143.5 335.5,-120.5 106.5,-120.5"/>
<text text-anchor="middle" x="221" y="-128.3" font-family="Helvetica,sans-Serif" font-size="14.00">VisualizationSceneScalarData</text>
</g>
<!-- Node3 -->
<g id="node3" class="node"><title>Node3</title>
<g id="a_node3"><a xlink:href="classVisualizationSceneSolution.html" target="_top" xlink:title="VisualizationSceneSolution">
<polygon fill="white" stroke="black" points="0,-60.5 0,-83.5 208,-83.5 208,-60.5 0,-60.5"/>
<text text-anchor="middle" x="104" y="-68.3" font-family="Helvetica,sans-Serif" font-size="14.00">VisualizationSceneSolution</text>
</a>
</g>
</g>
<!-- Node1&#45;&gt;Node3 -->
<g id="edge2" class="edge"><title>Node1&#45;&gt;Node3</title>
<path fill="none" stroke="midnightblue" d="M190.604,-115.932C170.152,-105.793 143.689,-92.6748 125.426,-83.6212"/>
<polygon fill="midnightblue" stroke="midnightblue" points="189.298,-119.191 199.812,-120.497 192.407,-112.919 189.298,-119.191"/>
</g>
<!-- Node5 -->
<g id="node5" class="node"><title>Node5</title>
<g id="a_node5"><a xlink:href="classVisualizationSceneSolution3d.html" target="_top" xlink:title="VisualizationSceneSolution3d">
<polygon fill="white" stroke="black" points="226,-60.5 226,-83.5 452,-83.5 452,-60.5 226,-60.5"/>
<text text-anchor="middle" x="339" y="-68.3" font-family="Helvetica,sans-Serif" font-size="14.00">VisualizationSceneSolution3d</text>
</a>
</g>
</g>
<!-- Node1&#45;&gt;Node5 -->
<g id="edge4" class="edge"><title>Node1&#45;&gt;Node5</title>
<path fill="none" stroke="midnightblue" d="M251.376,-116.069C272.041,-105.912 298.889,-92.7157 317.391,-83.6212"/>
<polygon fill="midnightblue" stroke="midnightblue" points="249.799,-112.944 242.369,-120.497 252.887,-119.226 249.799,-112.944"/>
</g>
<!-- Node2 -->
<g id="node2" class="node"><title>Node2</title>
<g id="a_node2"><a xlink:href="classVisualizationScene.html" target="_top" xlink:title="VisualizationScene">
<polygon fill="white" stroke="black" points="146,-180.5 146,-203.5 296,-203.5 296,-180.5 146,-180.5"/>
<text text-anchor="middle" x="221" y="-188.3" font-family="Helvetica,sans-Serif" font-size="14.00">VisualizationScene</text>
</a>
</g>
</g>
<!-- Node2&#45;&gt;Node1 -->
<g id="edge1" class="edge"><title>Node2&#45;&gt;Node1</title>
<path fill="none" stroke="midnightblue" d="M221,-170.191C221,-161.168 221,-150.994 221,-143.571"/>
<polygon fill="midnightblue" stroke="midnightblue" points="217.5,-170.362 221,-180.362 224.5,-170.362 217.5,-170.362"/>
</g>
<!-- Node4 -->
<g id="node4" class="node"><title>Node4</title>
<g id="a_node4"><a xlink:href="classVisualizationSceneVector.html" target="_top" xlink:title="VisualizationSceneVector">
<polygon fill="white" stroke="black" points="6,-0.5 6,-23.5 202,-23.5 202,-0.5 6,-0.5"/>
<text text-anchor="middle" x="104" y="-8.3" font-family="Helvetica,sans-Serif" font-size="14.00">VisualizationSceneVector</text>
</a>
</g>
</g>
<!-- Node3&#45;&gt;Node4 -->
<g id="edge3" class="edge"><title>Node3&#45;&gt;Node4</title>
<path fill="none" stroke="midnightblue" d="M104,-50.1906C104,-41.1684 104,-30.9941 104,-23.5707"/>
<polygon fill="midnightblue" stroke="midnightblue" points="100.5,-50.3619 104,-60.3619 107.5,-50.3619 100.5,-50.3619"/>
</g>
<!-- Node6 -->
<g id="node6" class="node"><title>Node6</title>
<g id="a_node6"><a xlink:href="classVisualizationSceneVector3d.html" target="_top" xlink:title="VisualizationSceneVector3d">
<polygon fill="white" stroke="black" points="232,-0.5 232,-23.5 446,-23.5 446,-0.5 232,-0.5"/>
<text text-anchor="middle" x="339" y="-8.3" font-family="Helvetica,sans-Serif" font-size="14.00">VisualizationSceneVector3d</text>
</a>
</g>
</g>
<!-- Node5&#45;&gt;Node6 -->
<g id="edge5" class="edge"><title>Node5&#45;&gt;Node6</title>
<path fill="none" stroke="midnightblue" d="M339,-50.1906C339,-41.1684 339,-30.9941 339,-23.5707"/>
<polygon fill="midnightblue" stroke="midnightblue" points="335.5,-50.3619 339,-60.3619 342.5,-50.3619 335.5,-50.3619"/>
</g>
</g>
</svg>
