<?xml version="1.0" encoding="UTF-8" standalone="no"?>
<!DOCTYPE svg PUBLIC "-//W3C//DTD SVG 1.1//EN"
 "http://www.w3.org/Graphics/SVG/1.1/DTD/svg11.dtd">
<!-- Generated by graphviz version 2.30.1 (20140821.0912)
 -->
<!-- Title: VisualizationSceneScalarData Pages: 1 -->
<svg width="348pt" height="230pt"
 viewBox="0.00 0.00 348.00 230.00" xmlns="http://www.w3.org/2000/svg" xmlns:xlink="http://www.w3.org/1999/xlink">
<g id="graph0" class="graph" transform="scale(1 1) rotate(0) translate(4 226)">
<title>VisualizationSceneScalarData</title>
<polygon fill="white" stroke="white" points="-4,5 -4,-226 345,-226 345,5 -4,5"/>
<!-- Node1 -->
<g id="node1" class="node"><title>Node1</title>
<polygon fill="#bfbfbf" stroke="black" points="75.5,-0.5 75.5,-23.5 272.5,-23.5 272.5,-0.5 75.5,-0.5"/>
<text text-anchor="middle" x="174" y="-8.3" font-family="Helvetica,sans-Serif" font-size="14.00">VisualizationSceneScalarData</text>
</g>
<!-- Node2 -->
<g id="node2" class="node"><title>Node2</title>
<g id="a_node2"><a xlink:href="classVisualizationScene.html" target="_top" xlink:title="VisualizationScene">
<polygon fill="white" stroke="black" points="-0.5,-106.5 -0.5,-129.5 130.5,-129.5 130.5,-106.5 -0.5,-106.5"/>
<text text-anchor="middle" x="65" y="-114.3" font-family="Helvetica,sans-Serif" font-size="14.00">VisualizationScene</text>
</a>
</g>
</g>
<!-- Node2&#45;&gt;Node1 -->
<g id="edge1" class="edge"><title>Node2&#45;&gt;Node1</title>
<path fill="none" stroke="midnightblue" d="M83.6388,-99.2162C106.452,-77.4492 144.341,-41.2988 162.969,-23.5248"/>
<polygon fill="midnightblue" stroke="midnightblue" points="81.0733,-96.8264 76.2544,-106.262 85.9056,-101.891 81.0733,-96.8264"/>
</g>
<!-- Node3 -->
<g id="node3" class="node"><title>Node3</title>
<g id="a_node3"><a xlink:href="classCamera.html" target="_top" xlink:title="Camera">
<polygon fill="white" stroke="black" points="32.5,-190.5 32.5,-213.5 97.5,-213.5 97.5,-190.5 32.5,-190.5"/>
<text text-anchor="middle" x="65" y="-198.3" font-family="Helvetica,sans-Serif" font-size="14.00">Camera</text>
</a>
</g>
</g>
<!-- Node3&#45;&gt;Node2 -->
<g id="edge2" class="edge"><title>Node3&#45;&gt;Node2</title>
<path fill="none" stroke="#9a32cd" stroke-dasharray="5,2" d="M65,-180.203C65,-164.114 65,-142.493 65,-129.723"/>
<polygon fill="#9a32cd" stroke="#9a32cd" points="61.5001,-180.28 65,-190.28 68.5001,-180.28 61.5001,-180.28"/>
<text text-anchor="middle" x="80.5" y="-152.3" font-family="Helvetica,sans-Serif" font-size="14.00"> cam</text>
</g>
<!-- Node4 -->
<g id="node4" class="node"><title>Node4</title>
<g id="a_node4"><a xlink:href="classPlane.html" target="_top" xlink:title="Plane">
<polygon fill="white" stroke="black" points="148.5,-106.5 148.5,-129.5 199.5,-129.5 199.5,-106.5 148.5,-106.5"/>
<text text-anchor="middle" x="174" y="-114.3" font-family="Helvetica,sans-Serif" font-size="14.00">Plane</text>
</a>
</g>
</g>
<!-- Node4&#45;&gt;Node1 -->
<g id="edge3" class="edge"><title>Node4&#45;&gt;Node1</title>
<path fill="none" stroke="#9a32cd" stroke-dasharray="5,2" d="M174,-95.9835C174,-74.0186 174,-40.445 174,-23.5248"/>
<polygon fill="#9a32cd" stroke="#9a32cd" points="170.5,-96.2619 174,-106.262 177.5,-96.2619 170.5,-96.2619"/>
<text text-anchor="middle" x="215" y="-61.3" font-family="Helvetica,sans-Serif" font-size="14.00"> CuttingPlane</text>
</g>
<!-- Node5 -->
<g id="node5" class="node"><title>Node5</title>
<g id="a_node5"><a xlink:title="STL class. ">
<polygon fill="white" stroke="#bfbfbf" points="241.5,-106.5 241.5,-129.5 316.5,-129.5 316.5,-106.5 241.5,-106.5"/>
<text text-anchor="middle" x="279" y="-114.3" font-family="Helvetica,sans-Serif" font-size="14.00">std::string</text>
</a>
</g>
</g>
<!-- Node5&#45;&gt;Node1 -->
<g id="edge4" class="edge"><title>Node5&#45;&gt;Node1</title>
<path fill="none" stroke="#9a32cd" stroke-dasharray="5,2" d="M277.939,-95.9478C276.018,-79.311 270.824,-56.5445 257,-42 249.113,-33.702 238.724,-27.7771 227.975,-23.5469"/>
<polygon fill="#9a32cd" stroke="#9a32cd" points="274.485,-96.6392 278.813,-106.31 281.461,-96.0512 274.485,-96.6392"/>
<text text-anchor="middle" x="308" y="-76.3" font-family="Helvetica,sans-Serif" font-size="14.00"> a_label_x</text>
<text text-anchor="middle" x="308" y="-61.3" font-family="Helvetica,sans-Serif" font-size="14.00">a_label_y</text>
<text text-anchor="middle" x="308" y="-46.3" font-family="Helvetica,sans-Serif" font-size="14.00">a_label_z</text>
</g>
<!-- Node6 -->
<g id="node6" class="node"><title>Node6</title>
<polygon fill="white" stroke="#bfbfbf" points="218,-183 218,-221 340,-221 340,-183 218,-183"/>
<text text-anchor="start" x="226" y="-205.8" font-family="Helvetica,sans-Serif" font-size="14.00">std::basic_string&lt;</text>
<text text-anchor="middle" x="279" y="-190.8" font-family="Helvetica,sans-Serif" font-size="14.00"> char &gt;</text>
</g>
<!-- Node6&#45;&gt;Node5 -->
<g id="edge5" class="edge"><title>Node6&#45;&gt;Node5</title>
<path fill="none" stroke="midnightblue" d="M279,-172.616C279,-157.871 279,-140.714 279,-129.857"/>
<polygon fill="midnightblue" stroke="midnightblue" points="275.5,-172.802 279,-182.802 282.5,-172.802 275.5,-172.802"/>
</g>
</g>
</svg>
