<?xml version="1.0" encoding="UTF-8" standalone="no"?>
<!DOCTYPE svg PUBLIC "-//W3C//DTD SVG 1.1//EN"
 "http://www.w3.org/Graphics/SVG/1.1/DTD/svg11.dtd">
<!-- Generated by graphviz version 2.30.1 (20200304.1809)
 -->
<!-- Title: VisualizationSceneVector3d Pages: 1 -->
<!--zoomable 285 -->
<svg id="main" version="1.1" xmlns="http://www.w3.org/2000/svg" xmlns:xlink="http://www.w3.org/1999/xlink" xml:space="preserve" onload="init(evt)">
<style type="text/css"><![CDATA[
.edge:hover path { stroke: red; }
.edge:hover polygon { stroke: red; fill: red; }
]]></style>
<script type="text/javascript"><![CDATA[
var edges = document.getElementsByTagName('g');
if (edges && edges.length) {
  for (var i=0;i<edges.length;i++) {
    if (edges[i].id.substr(0,4)=='edge') {
      edges[i].setAttribute('class','edge');
    }
  }
}
]]></script>
        <defs>
                <circle id="rim" cx="0" cy="0" r="7"/>
                <circle id="rim2" cx="0" cy="0" r="3.5"/>
                <g id="zoomPlus">
                        <use xlink:href="#rim" fill="#404040">
                                <set attributeName="fill" to="#808080" begin="zoomplus.mouseover" end="zoomplus.mouseout"/>
                        </use>
                        <path d="M-4,0h8M0,-4v8" fill="none" stroke="white" stroke-width="1.5" pointer-events="none"/>
                </g>
                <g id="zoomMin">
                        <use xlink:href="#rim" fill="#404040">
                                <set attributeName="fill" to="#808080" begin="zoomminus.mouseover" end="zoomminus.mouseout"/>
                        </use>
                        <path d="M-4,0h8" fill="none" stroke="white" stroke-width="1.5" pointer-events="none"/>
                </g>
                <g id="dirArrow">
                        <path fill="none" stroke="white" stroke-width="1.5" d="M0,-3.0v7 M-2.5,-0.5L0,-3.0L2.5,-0.5"/>
                </g>
               <g id="resetDef">
                       <use xlink:href="#rim2" fill="#404040">
                               <set attributeName="fill" to="#808080" begin="reset.mouseover" end="reset.mouseout"/>
                       </use>
               </g>
        </defs>

<script type="text/javascript">
var viewWidth = 1672;
var viewHeight = 285;
var sectionId = 'dynsection-1';
</script>
<script xlink:href="svgpan.js"/>
<svg id="graph" class="graph">
<g id="viewport">
<title>VisualizationSceneVector3d</title>
<polygon fill="white" stroke="white" points="-4,5 -4,-281 1669,-281 1669,5 -4,5"/>
<!-- Node1 -->
<g id="node1" class="node"><title>Node1</title>
<polygon fill="#bfbfbf" stroke="black" points="1450,-0.5 1450,-23.5 1664,-23.5 1664,-0.5 1450,-0.5"/>
<text text-anchor="middle" x="1557" y="-8.3" font-family="Helvetica,sans-Serif" font-size="14.00">VisualizationSceneVector3d</text>
</g>
<!-- Node2 -->
<g id="node2" class="node"><title>Node2</title>
<g id="a_node2"><a xlink:href="classVisualizationSceneSolution3d.html" target="_top" xlink:title="VisualizationSceneSolution3d">
<polygon fill="white" stroke="black" points="1186,-29.5 1186,-52.5 1412,-52.5 1412,-29.5 1186,-29.5"/>
<text text-anchor="middle" x="1299" y="-37.3" font-family="Helvetica,sans-Serif" font-size="14.00">VisualizationSceneSolution3d</text>
</a>
</g>
</g>
<!-- Node2&#45;&gt;Node1 -->
<g id="edge1" class="edge"><title>Node2&#45;&gt;Node1</title>
<path fill="none" stroke="midnightblue" d="M1411.76,-28.3402C1425.86,-26.7429 1440.22,-25.1154 1454.16,-23.5368"/>
<polygon fill="midnightblue" stroke="midnightblue" points="1411.09,-24.8933 1401.55,-29.4968 1411.88,-31.8488 1411.09,-24.8933"/>
</g>
<!-- Node3 -->
<g id="node3" class="node"><title>Node3</title>
<g id="a_node3"><a xlink:href="classVisualizationSceneScalarData.html" target="_top" xlink:title="VisualizationSceneScalarData">
<polygon fill="white" stroke="black" points="828.5,-179.5 828.5,-202.5 1057.5,-202.5 1057.5,-179.5 828.5,-179.5"/>
<text text-anchor="middle" x="943" y="-187.3" font-family="Helvetica,sans-Serif" font-size="14.00">VisualizationSceneScalarData</text>
</a>
</g>
</g>
<!-- Node3&#45;&gt;Node2 -->
<g id="edge2" class="edge"><title>Node3&#45;&gt;Node2</title>
<path fill="none" stroke="midnightblue" d="M1017.41,-177.138C1031.08,-173.749 1045.11,-169.712 1058,-165 1144.77,-133.27 1240.12,-76.9444 1279.46,-52.6671"/>
<polygon fill="midnightblue" stroke="midnightblue" points="1016.46,-173.767 1007.54,-179.491 1018.08,-180.576 1016.46,-173.767"/>
</g>
<!-- Node4 -->
<g id="node4" class="node"><title>Node4</title>
<g id="a_node4"><a xlink:href="classVisualizationScene.html" target="_top" xlink:title="VisualizationScene">
<polygon fill="white" stroke="black" points="520,-111.5 520,-134.5 670,-134.5 670,-111.5 520,-111.5"/>
<text text-anchor="middle" x="595" y="-119.3" font-family="Helvetica,sans-Serif" font-size="14.00">VisualizationScene</text>
</a>
</g>
</g>
<!-- Node4&#45;&gt;Node3 -->
<g id="edge3" class="edge"><title>Node4&#45;&gt;Node3</title>
<path fill="none" stroke="midnightblue" d="M641.446,-137.565C656.194,-141.961 672.699,-146.534 688,-150 742.456,-162.335 804.29,-172.399 853.315,-179.469"/>
<polygon fill="midnightblue" stroke="midnightblue" points="642.139,-134.117 631.553,-134.566 640.108,-140.816 642.139,-134.117"/>
</g>
<!-- Node5 -->
<g id="node5" class="node"><title>Node5</title>
<g id="a_node5"><a xlink:href="classSdlWindow.html" target="_top" xlink:title="SdlWindow">
<polygon fill="white" stroke="black" points="294.5,-179.5 294.5,-202.5 389.5,-202.5 389.5,-179.5 294.5,-179.5"/>
<text text-anchor="middle" x="342" y="-187.3" font-family="Helvetica,sans-Serif" font-size="14.00">SdlWindow</text>
</a>
</g>
</g>
<!-- Node5&#45;&gt;Node4 -->
<g id="edge4" class="edge"><title>Node5&#45;&gt;Node4</title>
<path fill="none" stroke="#9a32cd" stroke-dasharray="5,2" d="M399.851,-182.04C430.437,-176.6 468.626,-168.807 502,-159 524.709,-152.327 549.669,-142.387 567.854,-134.642"/>
<polygon fill="#9a32cd" stroke="#9a32cd" points="399.038,-178.629 389.788,-183.794 400.24,-185.525 399.038,-178.629"/>
<text text-anchor="middle" x="467" y="-179.8" font-family="Helvetica,sans-Serif" font-size="14.00"> wnd</text>
</g>
<!-- Node6 -->
<g id="node6" class="node"><title>Node6</title>
<g id="a_node6"><a xlink:href="structMaterial.html" target="_top" xlink:title="Material">
<polygon fill="white" stroke="black" points="305,-137.5 305,-160.5 379,-160.5 379,-137.5 305,-137.5"/>
<text text-anchor="middle" x="342" y="-145.3" font-family="Helvetica,sans-Serif" font-size="14.00">Material</text>
</a>
</g>
</g>
<!-- Node6&#45;&gt;Node4 -->
<g id="edge5" class="edge"><title>Node6&#45;&gt;Node4</title>
<path fill="none" stroke="#9a32cd" stroke-dasharray="5,2" d="M389.596,-144.173C426.165,-140.385 477.773,-135.039 519.982,-130.667"/>
<polygon fill="#9a32cd" stroke="#9a32cd" points="388.816,-140.735 379.229,-145.247 389.537,-147.698 388.816,-140.735"/>
<text text-anchor="middle" x="467" y="-143.8" font-family="Helvetica,sans-Serif" font-size="14.00"> BLK_MAT</text>
</g>
<!-- Node7 -->
<g id="node7" class="node"><title>Node7</title>
<polygon fill="white" stroke="#bfbfbf" points="0.5,-111.5 0.5,-134.5 169.5,-134.5 169.5,-111.5 0.5,-111.5"/>
<text text-anchor="middle" x="85" y="-119.3" font-family="Helvetica,sans-Serif" font-size="14.00">std::array&lt; float, 4 &gt;</text>
</g>
<!-- Node7&#45;&gt;Node6 -->
<g id="edge6" class="edge"><title>Node7&#45;&gt;Node6</title>
<path fill="none" stroke="#9a32cd" stroke-dasharray="5,2" d="M179.886,-132.573C223.315,-137.001 272.347,-142 304.793,-145.308"/>
<polygon fill="#9a32cd" stroke="#9a32cd" points="180.153,-129.082 169.85,-131.549 179.443,-136.046 180.153,-129.082"/>
<text text-anchor="middle" x="220" y="-173.8" font-family="Helvetica,sans-Serif" font-size="14.00"> ambient</text>
<text text-anchor="middle" x="220" y="-158.8" font-family="Helvetica,sans-Serif" font-size="14.00">diffuse</text>
<text text-anchor="middle" x="220" y="-143.8" font-family="Helvetica,sans-Serif" font-size="14.00">specular</text>
</g>
<!-- Node7&#45;&gt;Node4 -->
<g id="edge9" class="edge"><title>Node7&#45;&gt;Node4</title>
<path fill="none" stroke="#9a32cd" stroke-dasharray="5,2" d="M179.859,-116.914C208.756,-115.305 240.678,-113.796 270,-113 333.976,-111.263 350.025,-111.224 414,-113 448.728,-113.964 487.181,-115.972 519.599,-117.937"/>
<polygon fill="#9a32cd" stroke="#9a32cd" points="179.559,-113.425 169.773,-117.486 179.955,-120.414 179.559,-113.425"/>
<text text-anchor="middle" x="342" y="-116.8" font-family="Helvetica,sans-Serif" font-size="14.00"> _l0_pos</text>
</g>
<!-- Node8 -->
<g id="node8" class="node"><title>Node8</title>
<g id="a_node8"><a xlink:href="classPaletteState.html" target="_top" xlink:title="PaletteState">
<polygon fill="white" stroke="black" points="290.5,-44.5 290.5,-67.5 393.5,-67.5 393.5,-44.5 290.5,-44.5"/>
<text text-anchor="middle" x="342" y="-52.3" font-family="Helvetica,sans-Serif" font-size="14.00">PaletteState</text>
</a>
</g>
</g>
<!-- Node8&#45;&gt;Node4 -->
<g id="edge7" class="edge"><title>Node8&#45;&gt;Node4</title>
<path fill="none" stroke="#9a32cd" stroke-dasharray="5,2" d="M404.076,-58.1309C434.107,-60.4718 470.52,-65.2652 502,-75 529.538,-83.5158 558.591,-100.137 576.508,-111.405"/>
<polygon fill="#9a32cd" stroke="#9a32cd" points="403.961,-54.6141 393.739,-57.4011 403.468,-61.5968 403.961,-54.6141"/>
<text text-anchor="middle" x="467" y="-78.8" font-family="Helvetica,sans-Serif" font-size="14.00"> palette</text>
</g>
<!-- Node9 -->
<g id="node9" class="node"><title>Node9</title>
<g id="a_node9"><a xlink:href="classCamera.html" target="_top" xlink:title="Camera">
<polygon fill="white" stroke="black" points="305,-2.5 305,-25.5 379,-25.5 379,-2.5 305,-2.5"/>
<text text-anchor="middle" x="342" y="-10.3" font-family="Helvetica,sans-Serif" font-size="14.00">Camera</text>
</a>
</g>
</g>
<!-- Node9&#45;&gt;Node4 -->
<g id="edge8" class="edge"><title>Node9&#45;&gt;Node4</title>
<path fill="none" stroke="#9a32cd" stroke-dasharray="5,2" d="M389.535,-14.9029C422.659,-17.2959 467.269,-24.188 502,-43 512.228,-48.5401 511.496,-54.0633 520,-62 539.475,-80.176 563.513,-99.4601 578.802,-111.367"/>
<polygon fill="#9a32cd" stroke="#9a32cd" points="389.405,-11.3887 379.211,-14.2747 388.98,-18.3757 389.405,-11.3887"/>
<text text-anchor="middle" x="467" y="-46.8" font-family="Helvetica,sans-Serif" font-size="14.00"> cam</text>
</g>
<!-- Node10 -->
<g id="node10" class="node"><title>Node10</title>
<g id="a_node10"><a xlink:href="classgl3_1_1GlDrawable.html" target="_top" xlink:title="gl3::GlDrawable">
<polygon fill="white" stroke="black" points="529.5,-29.5 529.5,-52.5 660.5,-52.5 660.5,-29.5 529.5,-29.5"/>
<text text-anchor="middle" x="595" y="-37.3" font-family="Helvetica,sans-Serif" font-size="14.00">gl3::GlDrawable</text>
</a>
</g>
</g>
<!-- Node10&#45;&gt;Node3 -->
<g id="edge10" class="edge"><title>Node10&#45;&gt;Node3</title>
<path fill="none" stroke="#9a32cd" stroke-dasharray="5,2" d="M670.527,-50.4267C731.25,-58.265 807.397,-68.5238 810,-71 840.819,-100.318 798.453,-134.4 828,-165 833.781,-170.987 840.635,-175.724 848.069,-179.457"/>
<polygon fill="#9a32cd" stroke="#9a32cd" points="670.909,-46.9471 660.544,-49.1419 670.015,-53.8899 670.909,-46.9471"/>
<text text-anchor="middle" x="749" y="-134.8" font-family="Helvetica,sans-Serif" font-size="14.00"> coord_cross_buf</text>
<text text-anchor="middle" x="749" y="-119.8" font-family="Helvetica,sans-Serif" font-size="14.00">axes_buf</text>
<text text-anchor="middle" x="749" y="-104.8" font-family="Helvetica,sans-Serif" font-size="14.00">color_bar</text>
<text text-anchor="middle" x="749" y="-89.8" font-family="Helvetica,sans-Serif" font-size="14.00">ruler_buf</text>
<text text-anchor="middle" x="749" y="-74.8" font-family="Helvetica,sans-Serif" font-size="14.00">caption_buf</text>
</g>
<!-- Node10&#45;&gt;Node2 -->
<g id="edge14" class="edge"><title>Node10&#45;&gt;Node2</title>
<path fill="none" stroke="#9a32cd" stroke-dasharray="5,2" d="M670.902,-41C794.402,-41 1041.43,-41 1185.84,-41"/>
<polygon fill="#9a32cd" stroke="#9a32cd" points="670.784,-37.5001 660.784,-41 670.784,-44.5001 670.784,-37.5001"/>
<text text-anchor="middle" x="943" y="-149.8" font-family="Helvetica,sans-Serif" font-size="14.00"> cplines_buf</text>
<text text-anchor="middle" x="943" y="-134.8" font-family="Helvetica,sans-Serif" font-size="14.00">order_buf</text>
<text text-anchor="middle" x="943" y="-119.8" font-family="Helvetica,sans-Serif" font-size="14.00">order_noarrow_buf</text>
<text text-anchor="middle" x="943" y="-104.8" font-family="Helvetica,sans-Serif" font-size="14.00">other_buf</text>
<text text-anchor="middle" x="943" y="-89.8" font-family="Helvetica,sans-Serif" font-size="14.00">lsurf_buf</text>
<text text-anchor="middle" x="943" y="-74.8" font-family="Helvetica,sans-Serif" font-size="14.00">disp_buf</text>
<text text-anchor="middle" x="943" y="-59.8" font-family="Helvetica,sans-Serif" font-size="14.00">cplane_buf</text>
<text text-anchor="middle" x="943" y="-44.8" font-family="Helvetica,sans-Serif" font-size="14.00">line_buf</text>
</g>
<!-- Node10&#45;&gt;Node1 -->
<g id="edge15" class="edge"><title>Node10&#45;&gt;Node1</title>
<path fill="none" stroke="#9a32cd" stroke-dasharray="5,2" d="M670.768,-34.0586C765.113,-25.679 932.411,-12.0791 1076,-7 1116.86,-5.55457 1127.11,-6.73656 1168,-7 1263.32,-7.61416 1371.81,-9.07696 1449.78,-10.2626"/>
<polygon fill="#9a32cd" stroke="#9a32cd" points="670.399,-30.5775 660.75,-34.9532 671.022,-37.5498 670.399,-30.5775"/>
<text text-anchor="middle" x="1122" y="-25.8" font-family="Helvetica,sans-Serif" font-size="14.00"> displine_buf</text>
<text text-anchor="middle" x="1122" y="-10.8" font-family="Helvetica,sans-Serif" font-size="14.00">vector_buf</text>
</g>
<!-- Node11 -->
<g id="node11" class="node"><title>Node11</title>
<g id="a_node11"><a xlink:href="classPlane.html" target="_top" xlink:title="Plane">
<polygon fill="white" stroke="black" points="567,-253.5 567,-276.5 623,-276.5 623,-253.5 567,-253.5"/>
<text text-anchor="middle" x="595" y="-261.3" font-family="Helvetica,sans-Serif" font-size="14.00">Plane</text>
</a>
</g>
</g>
<!-- Node11&#45;&gt;Node3 -->
<g id="edge11" class="edge"><title>Node11&#45;&gt;Node3</title>
<path fill="none" stroke="#9a32cd" stroke-dasharray="5,2" d="M633.115,-264.242C676.208,-262.662 749.154,-257.816 810,-243 849.248,-233.443 892.382,-214.79 918.316,-202.618"/>
<polygon fill="#9a32cd" stroke="#9a32cd" points="632.969,-260.745 623.089,-264.57 633.198,-267.741 632.969,-260.745"/>
<text text-anchor="middle" x="749" y="-263.8" font-family="Helvetica,sans-Serif" font-size="14.00"> CuttingPlane</text>
</g>
<!-- Node12 -->
<g id="node12" class="node"><title>Node12</title>
<g id="a_node12"><a xlink:title="STL class. ">
<polygon fill="white" stroke="#bfbfbf" points="551,-196.5 551,-219.5 639,-219.5 639,-196.5 551,-196.5"/>
<text text-anchor="middle" x="595" y="-204.3" font-family="Helvetica,sans-Serif" font-size="14.00">std::string</text>
</a>
</g>
</g>
<!-- Node12&#45;&gt;Node3 -->
<g id="edge12" class="edge"><title>Node12&#45;&gt;Node3</title>
<path fill="none" stroke="#9a32cd" stroke-dasharray="5,2" d="M649.767,-201.419C662.298,-200.09 675.602,-198.843 688,-198 733.883,-194.879 784.518,-193.139 828.426,-192.173"/>
<polygon fill="#9a32cd" stroke="#9a32cd" points="649.019,-197.98 639.46,-202.548 649.781,-204.938 649.019,-197.98"/>
<text text-anchor="middle" x="749" y="-231.8" font-family="Helvetica,sans-Serif" font-size="14.00"> a_label_x</text>
<text text-anchor="middle" x="749" y="-216.8" font-family="Helvetica,sans-Serif" font-size="14.00">a_label_y</text>
<text text-anchor="middle" x="749" y="-201.8" font-family="Helvetica,sans-Serif" font-size="14.00">a_label_z</text>
</g>
<!-- Node13 -->
<g id="node13" class="node"><title>Node13</title>
<polygon fill="white" stroke="#bfbfbf" points="270,-222 270,-260 414,-260 414,-222 270,-222"/>
<text text-anchor="start" x="278" y="-244.8" font-family="Helvetica,sans-Serif" font-size="14.00">std::basic_string&lt;</text>
<text text-anchor="middle" x="342" y="-229.8" font-family="Helvetica,sans-Serif" font-size="14.00"> char &gt;</text>
</g>
<!-- Node13&#45;&gt;Node12 -->
<g id="edge13" class="edge"><title>Node13&#45;&gt;Node12</title>
<path fill="none" stroke="midnightblue" d="M424.236,-230.32C466.398,-224.776 516.204,-218.228 550.923,-213.664"/>
<polygon fill="midnightblue" stroke="midnightblue" points="423.714,-226.858 414.255,-231.632 424.626,-233.798 423.714,-226.858"/>
</g>
</g>
</svg>
        <g id="navigator" transform="translate(0 0)" fill="#404254">
                <rect fill="#f2f5e9" fill-opacity="0.5" stroke="#606060" stroke-width=".5" x="0" y="0" width="60" height="60"/>
                <use id="zoomplus" xlink:href="#zoomPlus" x="17" y="9" onmousedown="handleZoom(evt,'in')"/>
                <use id="zoomminus" xlink:href="#zoomMin" x="42" y="9" onmousedown="handleZoom(evt,'out')"/>
                <use id="reset" xlink:href="#resetDef" x="30" y="36" onmousedown="handleReset()"/>
                <g id="arrowUp" xlink:href="#dirArrow" transform="translate(30 24)" onmousedown="handlePan(0,-1)">
                  <use xlink:href="#rim" fill="#404040">
                        <set attributeName="fill" to="#808080" begin="arrowUp.mouseover" end="arrowUp.mouseout"/>
                  </use>
                  <path fill="none" stroke="white" stroke-width="1.5" d="M0,-3.0v7 M-2.5,-0.5L0,-3.0L2.5,-0.5"/>
                </g>
                <g id="arrowRight" xlink:href="#dirArrow" transform="rotate(90) translate(36 -43)" onmousedown="handlePan(1,0)">
                  <use xlink:href="#rim" fill="#404040">
                        <set attributeName="fill" to="#808080" begin="arrowRight.mouseover" end="arrowRight.mouseout"/>
                  </use>
                  <path fill="none" stroke="white" stroke-width="1.5" d="M0,-3.0v7 M-2.5,-0.5L0,-3.0L2.5,-0.5"/>
                </g>
                <g id="arrowDown" xlink:href="#dirArrow" transform="rotate(180) translate(-30 -48)" onmousedown="handlePan(0,1)">
                  <use xlink:href="#rim" fill="#404040">
                        <set attributeName="fill" to="#808080" begin="arrowDown.mouseover" end="arrowDown.mouseout"/>
                  </use>
                  <path fill="none" stroke="white" stroke-width="1.5" d="M0,-3.0v7 M-2.5,-0.5L0,-3.0L2.5,-0.5"/>
                </g>
                <g id="arrowLeft" xlink:href="#dirArrow" transform="rotate(270) translate(-36 17)" onmousedown="handlePan(-1,0)">
                  <use xlink:href="#rim" fill="#404040">
                        <set attributeName="fill" to="#808080" begin="arrowLeft.mouseover" end="arrowLeft.mouseout"/>
                  </use>
                  <path fill="none" stroke="white" stroke-width="1.5" d="M0,-3.0v7 M-2.5,-0.5L0,-3.0L2.5,-0.5"/>
                </g>
        </g>
        <svg viewBox="0 0 15 15" width="100%" height="30px" preserveAspectRatio="xMaxYMin meet">
         <g id="arrow_out" transform="scale(0.3 0.3)">
          <a xlink:href="classVisualizationSceneVector3d__coll__graph_org.svg" target="_base">
           <rect id="button" ry="5" rx="5" y="6" x="6" height="38" width="38"
                fill="#f2f5e9" fill-opacity="0.5" stroke="#606060" stroke-width="1.0"/>
           <path id="arrow"
             d="M 11.500037,31.436501 C 11.940474,20.09759 22.043105,11.32322 32.158766,21.979434 L 37.068811,17.246167 C 37.068811,17.246167 37.088388,32 37.088388,32 L 22.160133,31.978069 C 22.160133,31.978069 26.997745,27.140456 26.997745,27.140456 C 18.528582,18.264221 13.291696,25.230495 11.500037,31.436501 z"
             style="fill:#404040;"/>
          </a>
         </g>
        </svg>
</svg>
