<?xml version="1.0" encoding="UTF-8" standalone="no"?>
<!DOCTYPE svg PUBLIC "-//W3C//DTD SVG 1.1//EN"
 "http://www.w3.org/Graphics/SVG/1.1/DTD/svg11.dtd">
<!-- Generated by graphviz version 2.30.1 (20140821.0912)
 -->
<!-- Title: VisualizationSceneVector3d Pages: 1 -->
<svg width="348pt" height="354pt"
 viewBox="0.00 0.00 348.00 354.00" xmlns="http://www.w3.org/2000/svg" xmlns:xlink="http://www.w3.org/1999/xlink">
<g id="graph0" class="graph" transform="scale(1 1) rotate(0) translate(4 350)">
<title>VisualizationSceneVector3d</title>
<polygon fill="white" stroke="white" points="-4,5 -4,-350 345,-350 345,5 -4,5"/>
<!-- Node1 -->
<g id="node1" class="node"><title>Node1</title>
<polygon fill="#bfbfbf" stroke="black" points="81.5,-0.5 81.5,-23.5 266.5,-23.5 266.5,-0.5 81.5,-0.5"/>
<text text-anchor="middle" x="174" y="-8.3" font-family="Helvetica,sans-Serif" font-size="14.00">VisualizationSceneVector3d</text>
</g>
<!-- Node2 -->
<g id="node2" class="node"><title>Node2</title>
<g id="a_node2"><a xlink:href="classVisualizationSceneSolution3d.html" target="_top" xlink:title="VisualizationSceneSolution3d">
<polygon fill="white" stroke="black" points="77,-62.5 77,-85.5 271,-85.5 271,-62.5 77,-62.5"/>
<text text-anchor="middle" x="174" y="-70.3" font-family="Helvetica,sans-Serif" font-size="14.00">VisualizationSceneSolution3d</text>
</a>
</g>
</g>
<!-- Node2&#45;&gt;Node1 -->
<g id="edge1" class="edge"><title>Node2&#45;&gt;Node1</title>
<path fill="none" stroke="midnightblue" d="M174,-52.2312C174,-42.5922 174,-31.5444 174,-23.6339"/>
<polygon fill="midnightblue" stroke="midnightblue" points="170.5,-52.2732 174,-62.2732 177.5,-52.2732 170.5,-52.2732"/>
</g>
<!-- Node3 -->
<g id="node3" class="node"><title>Node3</title>
<g id="a_node3"><a xlink:href="classVisualizationSceneScalarData.html" target="_top" xlink:title="VisualizationSceneScalarData">
<polygon fill="white" stroke="black" points="75.5,-124.5 75.5,-147.5 272.5,-147.5 272.5,-124.5 75.5,-124.5"/>
<text text-anchor="middle" x="174" y="-132.3" font-family="Helvetica,sans-Serif" font-size="14.00">VisualizationSceneScalarData</text>
</a>
</g>
</g>
<!-- Node3&#45;&gt;Node2 -->
<g id="edge2" class="edge"><title>Node3&#45;&gt;Node2</title>
<path fill="none" stroke="midnightblue" d="M174,-114.231C174,-104.592 174,-93.5444 174,-85.6339"/>
<polygon fill="midnightblue" stroke="midnightblue" points="170.5,-114.273 174,-124.273 177.5,-114.273 170.5,-114.273"/>
</g>
<!-- Node4 -->
<g id="node4" class="node"><title>Node4</title>
<g id="a_node4"><a xlink:href="classVisualizationScene.html" target="_top" xlink:title="VisualizationScene">
<polygon fill="white" stroke="black" points="-0.5,-230.5 -0.5,-253.5 130.5,-253.5 130.5,-230.5 -0.5,-230.5"/>
<text text-anchor="middle" x="65" y="-238.3" font-family="Helvetica,sans-Serif" font-size="14.00">VisualizationScene</text>
</a>
</g>
</g>
<!-- Node4&#45;&gt;Node3 -->
<g id="edge3" class="edge"><title>Node4&#45;&gt;Node3</title>
<path fill="none" stroke="midnightblue" d="M83.6388,-223.216C106.452,-201.449 144.341,-165.299 162.969,-147.525"/>
<polygon fill="midnightblue" stroke="midnightblue" points="81.0733,-220.826 76.2544,-230.262 85.9056,-225.891 81.0733,-220.826"/>
</g>
<!-- Node5 -->
<g id="node5" class="node"><title>Node5</title>
<g id="a_node5"><a xlink:href="classCamera.html" target="_top" xlink:title="Camera">
<polygon fill="white" stroke="black" points="32.5,-314.5 32.5,-337.5 97.5,-337.5 97.5,-314.5 32.5,-314.5"/>
<text text-anchor="middle" x="65" y="-322.3" font-family="Helvetica,sans-Serif" font-size="14.00">Camera</text>
</a>
</g>
</g>
<!-- Node5&#45;&gt;Node4 -->
<g id="edge4" class="edge"><title>Node5&#45;&gt;Node4</title>
<path fill="none" stroke="#9a32cd" stroke-dasharray="5,2" d="M65,-304.203C65,-288.114 65,-266.493 65,-253.723"/>
<polygon fill="#9a32cd" stroke="#9a32cd" points="61.5001,-304.28 65,-314.28 68.5001,-304.28 61.5001,-304.28"/>
<text text-anchor="middle" x="80.5" y="-276.3" font-family="Helvetica,sans-Serif" font-size="14.00"> cam</text>
</g>
<!-- Node6 -->
<g id="node6" class="node"><title>Node6</title>
<g id="a_node6"><a xlink:href="classPlane.html" target="_top" xlink:title="Plane">
<polygon fill="white" stroke="black" points="148.5,-230.5 148.5,-253.5 199.5,-253.5 199.5,-230.5 148.5,-230.5"/>
<text text-anchor="middle" x="174" y="-238.3" font-family="Helvetica,sans-Serif" font-size="14.00">Plane</text>
</a>
</g>
</g>
<!-- Node6&#45;&gt;Node3 -->
<g id="edge5" class="edge"><title>Node6&#45;&gt;Node3</title>
<path fill="none" stroke="#9a32cd" stroke-dasharray="5,2" d="M174,-219.984C174,-198.019 174,-164.445 174,-147.525"/>
<polygon fill="#9a32cd" stroke="#9a32cd" points="170.5,-220.262 174,-230.262 177.5,-220.262 170.5,-220.262"/>
<text text-anchor="middle" x="215" y="-185.3" font-family="Helvetica,sans-Serif" font-size="14.00"> CuttingPlane</text>
</g>
<!-- Node7 -->
<g id="node7" class="node"><title>Node7</title>
<g id="a_node7"><a xlink:title="STL class. ">
<polygon fill="white" stroke="#bfbfbf" points="241.5,-230.5 241.5,-253.5 316.5,-253.5 316.5,-230.5 241.5,-230.5"/>
<text text-anchor="middle" x="279" y="-238.3" font-family="Helvetica,sans-Serif" font-size="14.00">std::string</text>
</a>
</g>
</g>
<!-- Node7&#45;&gt;Node3 -->
<g id="edge6" class="edge"><title>Node7&#45;&gt;Node3</title>
<path fill="none" stroke="#9a32cd" stroke-dasharray="5,2" d="M277.939,-219.948C276.018,-203.311 270.824,-180.545 257,-166 249.113,-157.702 238.724,-151.777 227.975,-147.547"/>
<polygon fill="#9a32cd" stroke="#9a32cd" points="274.485,-220.639 278.813,-230.31 281.461,-220.051 274.485,-220.639"/>
<text text-anchor="middle" x="308" y="-200.3" font-family="Helvetica,sans-Serif" font-size="14.00"> a_label_x</text>
<text text-anchor="middle" x="308" y="-185.3" font-family="Helvetica,sans-Serif" font-size="14.00">a_label_y</text>
<text text-anchor="middle" x="308" y="-170.3" font-family="Helvetica,sans-Serif" font-size="14.00">a_label_z</text>
</g>
<!-- Node8 -->
<g id="node8" class="node"><title>Node8</title>
<polygon fill="white" stroke="#bfbfbf" points="218,-307 218,-345 340,-345 340,-307 218,-307"/>
<text text-anchor="start" x="226" y="-329.8" font-family="Helvetica,sans-Serif" font-size="14.00">std::basic_string&lt;</text>
<text text-anchor="middle" x="279" y="-314.8" font-family="Helvetica,sans-Serif" font-size="14.00"> char &gt;</text>
</g>
<!-- Node8&#45;&gt;Node7 -->
<g id="edge7" class="edge"><title>Node8&#45;&gt;Node7</title>
<path fill="none" stroke="midnightblue" d="M279,-296.616C279,-281.871 279,-264.714 279,-253.857"/>
<polygon fill="midnightblue" stroke="midnightblue" points="275.5,-296.802 279,-306.802 282.5,-296.802 275.5,-296.802"/>
</g>
</g>
</svg>
