<?xml version="1.0" encoding="UTF-8" standalone="no"?>
<!DOCTYPE svg PUBLIC "-//W3C//DTD SVG 1.1//EN"
 "http://www.w3.org/Graphics/SVG/1.1/DTD/svg11.dtd">
<!-- Generated by graphviz version 2.44.1 (20200629.0846)
 -->
<!-- Title: gl3::IVertexBuffer Pages: 1 -->
<svg width="460pt" height="152pt"
 viewBox="0.00 0.00 460.00 152.00" xmlns="http://www.w3.org/2000/svg" xmlns:xlink="http://www.w3.org/1999/xlink">
<g id="graph0" class="graph" transform="scale(1 1) rotate(0) translate(4 148)">
<title>gl3::IVertexBuffer</title>
<polygon fill="white" stroke="transparent" points="-4,4 -4,-148 456,-148 456,4 -4,4"/>
<!-- Node1 -->
<g id="node1" class="node">
<title>Node1</title>
<g id="a_node1"><a xlink:title=" ">
<polygon fill="#bfbfbf" stroke="black" points="173,-120.5 173,-143.5 294,-143.5 294,-120.5 173,-120.5"/>
<text text-anchor="middle" x="233.5" y="-128.3" font-family="Helvetica,sans-Serif" font-size="14.00">gl3::IVertexBuffer</text>
</a>
</g>
</g>
<!-- Node2 -->
<g id="node2" class="node">
<title>Node2</title>
<g id="a_node2"><a xlink:href="classgl3_1_1IIndexedBuffer.html" target="_top" xlink:title=" ">
<polygon fill="white" stroke="black" points="33.5,-60.5 33.5,-83.5 163.5,-83.5 163.5,-60.5 33.5,-60.5"/>
<text text-anchor="middle" x="98.5" y="-68.3" font-family="Helvetica,sans-Serif" font-size="14.00">gl3::IIndexedBuffer</text>
</a>
</g>
</g>
<!-- Node1&#45;&gt;Node2 -->
<g id="edge1" class="edge">
<title>Node1&#45;&gt;Node2</title>
<path fill="none" stroke="midnightblue" d="M199.7,-116.48C175.94,-106.27 144.68,-92.84 123.22,-83.62"/>
<polygon fill="midnightblue" stroke="midnightblue" points="198.48,-119.76 209.05,-120.5 201.25,-113.33 198.48,-119.76"/>
</g>
<!-- Node4 -->
<g id="node4" class="node">
<title>Node4</title>
<g id="a_node4"><a xlink:href="classgl3_1_1TextBuffer.html" target="_top" xlink:title=" ">
<polygon fill="white" stroke="black" points="182,-60.5 182,-83.5 285,-83.5 285,-60.5 182,-60.5"/>
<text text-anchor="middle" x="233.5" y="-68.3" font-family="Helvetica,sans-Serif" font-size="14.00">gl3::TextBuffer</text>
</a>
</g>
</g>
<!-- Node1&#45;&gt;Node4 -->
<g id="edge3" class="edge">
<title>Node1&#45;&gt;Node4</title>
<path fill="none" stroke="midnightblue" d="M233.5,-110.19C233.5,-101.17 233.5,-90.99 233.5,-83.57"/>
<polygon fill="midnightblue" stroke="midnightblue" points="230,-110.36 233.5,-120.36 237,-110.36 230,-110.36"/>
</g>
<!-- Node5 -->
<g id="node5" class="node">
<title>Node5</title>
<g id="a_node5"><a xlink:href="classgl3_1_1VertexBuffer.html" target="_top" xlink:title=" ">
<polygon fill="white" stroke="black" points="303,-60.5 303,-83.5 452,-83.5 452,-60.5 303,-60.5"/>
<text text-anchor="middle" x="377.5" y="-68.3" font-family="Helvetica,sans-Serif" font-size="14.00">gl3::VertexBuffer&lt; T &gt;</text>
</a>
</g>
</g>
<!-- Node1&#45;&gt;Node5 -->
<g id="edge4" class="edge">
<title>Node1&#45;&gt;Node5</title>
<path fill="none" stroke="midnightblue" d="M268.88,-116.75C294.31,-106.51 328.04,-92.92 351.13,-83.62"/>
<polygon fill="midnightblue" stroke="midnightblue" points="267.55,-113.51 259.58,-120.5 270.16,-120.01 267.55,-113.51"/>
</g>
<!-- Node3 -->
<g id="node3" class="node">
<title>Node3</title>
<g id="a_node3"><a xlink:href="classgl3_1_1IndexedVertexBuffer.html" target="_top" xlink:title=" ">
<polygon fill="white" stroke="black" points="0,-0.5 0,-23.5 197,-23.5 197,-0.5 0,-0.5"/>
<text text-anchor="middle" x="98.5" y="-8.3" font-family="Helvetica,sans-Serif" font-size="14.00">gl3::IndexedVertexBuffer&lt; T &gt;</text>
</a>
</g>
</g>
<!-- Node2&#45;&gt;Node3 -->
<g id="edge2" class="edge">
<title>Node2&#45;&gt;Node3</title>
<path fill="none" stroke="midnightblue" d="M98.5,-50.19C98.5,-41.17 98.5,-30.99 98.5,-23.57"/>
<polygon fill="midnightblue" stroke="midnightblue" points="95,-50.36 98.5,-60.36 102,-50.36 95,-50.36"/>
</g>
</g>
</svg>
