<?xml version="1.0" encoding="UTF-8" standalone="no"?>
<!DOCTYPE svg PUBLIC "-//W3C//DTD SVG 1.1//EN"
 "http://www.w3.org/Graphics/SVG/1.1/DTD/svg11.dtd">
<!-- Generated by graphviz version 2.30.1 (20200304.1809)
 -->
<!-- Title: gl3::IVertexBuffer Pages: 1 -->
<svg width="537pt" height="152pt"
 viewBox="0.00 0.00 537.00 152.00" xmlns="http://www.w3.org/2000/svg" xmlns:xlink="http://www.w3.org/1999/xlink">
<g id="graph0" class="graph" transform="scale(1 1) rotate(0) translate(4 148)">
<title>gl3::IVertexBuffer</title>
<polygon fill="white" stroke="white" points="-4,5 -4,-148 534,-148 534,5 -4,5"/>
<!-- Node1 -->
<g id="node1" class="node"><title>Node1</title>
<polygon fill="#bfbfbf" stroke="black" points="201,-120.5 201,-143.5 343,-143.5 343,-120.5 201,-120.5"/>
<text text-anchor="middle" x="272" y="-128.3" font-family="Helvetica,sans-Serif" font-size="14.00">gl3::IVertexBuffer</text>
</g>
<!-- Node2 -->
<g id="node2" class="node"><title>Node2</title>
<g id="a_node2"><a xlink:href="classgl3_1_1IIndexedBuffer.html" target="_top" xlink:title="gl3::IIndexedBuffer">
<polygon fill="white" stroke="black" points="42,-60.5 42,-83.5 194,-83.5 194,-60.5 42,-60.5"/>
<text text-anchor="middle" x="118" y="-68.3" font-family="Helvetica,sans-Serif" font-size="14.00">gl3::IIndexedBuffer</text>
</a>
</g>
</g>
<!-- Node1&#45;&gt;Node2 -->
<g id="edge1" class="edge"><title>Node1&#45;&gt;Node2</title>
<path fill="none" stroke="midnightblue" d="M234.494,-116.874C207.166,-106.582 170.737,-92.862 145.941,-83.5231"/>
<polygon fill="midnightblue" stroke="midnightblue" points="233.52,-120.247 244.112,-120.497 235.987,-113.697 233.52,-120.247"/>
</g>
<!-- Node4 -->
<g id="node4" class="node"><title>Node4</title>
<g id="a_node4"><a xlink:href="classgl3_1_1TextBuffer.html" target="_top" xlink:title="gl3::TextBuffer">
<polygon fill="white" stroke="black" points="212,-60.5 212,-83.5 332,-83.5 332,-60.5 212,-60.5"/>
<text text-anchor="middle" x="272" y="-68.3" font-family="Helvetica,sans-Serif" font-size="14.00">gl3::TextBuffer</text>
</a>
</g>
</g>
<!-- Node1&#45;&gt;Node4 -->
<g id="edge3" class="edge"><title>Node1&#45;&gt;Node4</title>
<path fill="none" stroke="midnightblue" d="M272,-110.191C272,-101.168 272,-90.9941 272,-83.5707"/>
<polygon fill="midnightblue" stroke="midnightblue" points="268.5,-110.362 272,-120.362 275.5,-110.362 268.5,-110.362"/>
</g>
<!-- Node5 -->
<g id="node5" class="node"><title>Node5</title>
<g id="a_node5"><a xlink:href="classgl3_1_1VertexBuffer.html" target="_top" xlink:title="gl3::VertexBuffer\&lt; T \&gt;">
<polygon fill="white" stroke="black" points="350.5,-60.5 350.5,-83.5 529.5,-83.5 529.5,-60.5 350.5,-60.5"/>
<text text-anchor="middle" x="440" y="-68.3" font-family="Helvetica,sans-Serif" font-size="14.00">gl3::VertexBuffer&lt; T &gt;</text>
</a>
</g>
</g>
<!-- Node1&#45;&gt;Node5 -->
<g id="edge4" class="edge"><title>Node1&#45;&gt;Node5</title>
<path fill="none" stroke="midnightblue" d="M312.134,-117.144C342.03,-106.823 382.231,-92.9439 409.519,-83.5231"/>
<polygon fill="midnightblue" stroke="midnightblue" points="310.734,-113.925 302.424,-120.497 313.018,-120.542 310.734,-113.925"/>
</g>
<!-- Node3 -->
<g id="node3" class="node"><title>Node3</title>
<g id="a_node3"><a xlink:href="classgl3_1_1IndexedVertexBuffer.html" target="_top" xlink:title="gl3::IndexedVertexBuffer\&lt; T \&gt;">
<polygon fill="white" stroke="black" points="0,-0.5 0,-23.5 236,-23.5 236,-0.5 0,-0.5"/>
<text text-anchor="middle" x="118" y="-8.3" font-family="Helvetica,sans-Serif" font-size="14.00">gl3::IndexedVertexBuffer&lt; T &gt;</text>
</a>
</g>
</g>
<!-- Node2&#45;&gt;Node3 -->
<g id="edge2" class="edge"><title>Node2&#45;&gt;Node3</title>
<path fill="none" stroke="midnightblue" d="M118,-50.1906C118,-41.1684 118,-30.9941 118,-23.5707"/>
<polygon fill="midnightblue" stroke="midnightblue" points="114.5,-50.3619 118,-60.3619 121.5,-50.3619 114.5,-50.3619"/>
</g>
</g>
</svg>
