<?xml version="1.0" encoding="UTF-8" standalone="no"?>
<!DOCTYPE svg PUBLIC "-//W3C//DTD SVG 1.1//EN"
 "http://www.w3.org/Graphics/SVG/1.1/DTD/svg11.dtd">
<!-- Generated by graphviz version 2.30.1 (20200304.1809)
 -->
<!-- Title: VisualizationSceneVector Pages: 1 -->
<svg width="394pt" height="354pt"
 viewBox="0.00 0.00 394.00 354.00" xmlns="http://www.w3.org/2000/svg" xmlns:xlink="http://www.w3.org/1999/xlink">
<g id="graph0" class="graph" transform="scale(1 1) rotate(0) translate(4 350)">
<title>VisualizationSceneVector</title>
<polygon fill="white" stroke="white" points="-4,5 -4,-350 391,-350 391,5 -4,5"/>
<!-- Node1 -->
<g id="node1" class="node"><title>Node1</title>
<polygon fill="#bfbfbf" stroke="black" points="98,-0.5 98,-23.5 294,-23.5 294,-0.5 98,-0.5"/>
<text text-anchor="middle" x="196" y="-8.3" font-family="Helvetica,sans-Serif" font-size="14.00">VisualizationSceneVector</text>
</g>
<!-- Node2 -->
<g id="node2" class="node"><title>Node2</title>
<g id="a_node2"><a xlink:href="classVisualizationSceneSolution.html" target="_top" xlink:title="VisualizationSceneSolution">
<polygon fill="white" stroke="black" points="92,-62.5 92,-85.5 300,-85.5 300,-62.5 92,-62.5"/>
<text text-anchor="middle" x="196" y="-70.3" font-family="Helvetica,sans-Serif" font-size="14.00">VisualizationSceneSolution</text>
</a>
</g>
</g>
<!-- Node2&#45;&gt;Node1 -->
<g id="edge1" class="edge"><title>Node2&#45;&gt;Node1</title>
<path fill="none" stroke="midnightblue" d="M196,-52.2312C196,-42.5922 196,-31.5444 196,-23.6339"/>
<polygon fill="midnightblue" stroke="midnightblue" points="192.5,-52.2732 196,-62.2732 199.5,-52.2732 192.5,-52.2732"/>
</g>
<!-- Node3 -->
<g id="node3" class="node"><title>Node3</title>
<g id="a_node3"><a xlink:href="classVisualizationSceneScalarData.html" target="_top" xlink:title="VisualizationSceneScalarData">
<polygon fill="white" stroke="black" points="81.5,-124.5 81.5,-147.5 310.5,-147.5 310.5,-124.5 81.5,-124.5"/>
<text text-anchor="middle" x="196" y="-132.3" font-family="Helvetica,sans-Serif" font-size="14.00">VisualizationSceneScalarData</text>
</a>
</g>
</g>
<!-- Node3&#45;&gt;Node2 -->
<g id="edge2" class="edge"><title>Node3&#45;&gt;Node2</title>
<path fill="none" stroke="midnightblue" d="M196,-114.231C196,-104.592 196,-93.5444 196,-85.6339"/>
<polygon fill="midnightblue" stroke="midnightblue" points="192.5,-114.273 196,-124.273 199.5,-114.273 192.5,-114.273"/>
</g>
<!-- Node4 -->
<g id="node4" class="node"><title>Node4</title>
<g id="a_node4"><a xlink:href="classVisualizationScene.html" target="_top" xlink:title="VisualizationScene">
<polygon fill="white" stroke="black" points="0,-230.5 0,-253.5 150,-253.5 150,-230.5 0,-230.5"/>
<text text-anchor="middle" x="75" y="-238.3" font-family="Helvetica,sans-Serif" font-size="14.00">VisualizationScene</text>
</a>
</g>
</g>
<!-- Node4&#45;&gt;Node3 -->
<g id="edge3" class="edge"><title>Node4&#45;&gt;Node3</title>
<path fill="none" stroke="midnightblue" d="M95.36,-223.501C120.648,-201.765 162.985,-165.376 183.755,-147.525"/>
<polygon fill="midnightblue" stroke="midnightblue" points="92.7957,-221.089 87.4934,-230.262 97.3585,-226.398 92.7957,-221.089"/>
</g>
<!-- Node5 -->
<g id="node5" class="node"><title>Node5</title>
<g id="a_node5"><a xlink:href="classCamera.html" target="_top" xlink:title="Camera">
<polygon fill="white" stroke="black" points="38,-314.5 38,-337.5 112,-337.5 112,-314.5 38,-314.5"/>
<text text-anchor="middle" x="75" y="-322.3" font-family="Helvetica,sans-Serif" font-size="14.00">Camera</text>
</a>
</g>
</g>
<!-- Node5&#45;&gt;Node4 -->
<g id="edge4" class="edge"><title>Node5&#45;&gt;Node4</title>
<path fill="none" stroke="#9a32cd" stroke-dasharray="5,2" d="M75,-304.203C75,-288.114 75,-266.493 75,-253.723"/>
<polygon fill="#9a32cd" stroke="#9a32cd" points="71.5001,-304.28 75,-314.28 78.5001,-304.28 71.5001,-304.28"/>
<text text-anchor="middle" x="93" y="-276.3" font-family="Helvetica,sans-Serif" font-size="14.00"> cam</text>
</g>
<!-- Node6 -->
<g id="node6" class="node"><title>Node6</title>
<g id="a_node6"><a xlink:href="classPlane.html" target="_top" xlink:title="Plane">
<polygon fill="white" stroke="black" points="168,-230.5 168,-253.5 224,-253.5 224,-230.5 168,-230.5"/>
<text text-anchor="middle" x="196" y="-238.3" font-family="Helvetica,sans-Serif" font-size="14.00">Plane</text>
</a>
</g>
</g>
<!-- Node6&#45;&gt;Node3 -->
<g id="edge5" class="edge"><title>Node6&#45;&gt;Node3</title>
<path fill="none" stroke="#9a32cd" stroke-dasharray="5,2" d="M196,-219.984C196,-198.019 196,-164.445 196,-147.525"/>
<polygon fill="#9a32cd" stroke="#9a32cd" points="192.5,-220.262 196,-230.262 199.5,-220.262 192.5,-220.262"/>
<text text-anchor="middle" x="243.5" y="-185.3" font-family="Helvetica,sans-Serif" font-size="14.00"> CuttingPlane</text>
</g>
<!-- Node7 -->
<g id="node7" class="node"><title>Node7</title>
<g id="a_node7"><a xlink:title="STL class. ">
<polygon fill="white" stroke="#bfbfbf" points="270,-230.5 270,-253.5 358,-253.5 358,-230.5 270,-230.5"/>
<text text-anchor="middle" x="314" y="-238.3" font-family="Helvetica,sans-Serif" font-size="14.00">std::string</text>
</a>
</g>
</g>
<!-- Node7&#45;&gt;Node3 -->
<g id="edge6" class="edge"><title>Node7&#45;&gt;Node3</title>
<path fill="none" stroke="#9a32cd" stroke-dasharray="5,2" d="M313.134,-220.063C311.334,-203.309 306.209,-180.324 292,-166 283.785,-157.718 273.294,-151.785 262.282,-147.539"/>
<polygon fill="#9a32cd" stroke="#9a32cd" points="309.678,-220.774 313.92,-230.483 316.658,-220.248 309.678,-220.774"/>
<text text-anchor="middle" x="347" y="-200.3" font-family="Helvetica,sans-Serif" font-size="14.00"> a_label_x</text>
<text text-anchor="middle" x="347" y="-185.3" font-family="Helvetica,sans-Serif" font-size="14.00">a_label_y</text>
<text text-anchor="middle" x="347" y="-170.3" font-family="Helvetica,sans-Serif" font-size="14.00">a_label_z</text>
</g>
<!-- Node8 -->
<g id="node8" class="node"><title>Node8</title>
<polygon fill="white" stroke="#bfbfbf" points="242,-307 242,-345 386,-345 386,-307 242,-307"/>
<text text-anchor="start" x="250" y="-329.8" font-family="Helvetica,sans-Serif" font-size="14.00">std::basic_string&lt;</text>
<text text-anchor="middle" x="314" y="-314.8" font-family="Helvetica,sans-Serif" font-size="14.00"> char &gt;</text>
</g>
<!-- Node8&#45;&gt;Node7 -->
<g id="edge7" class="edge"><title>Node8&#45;&gt;Node7</title>
<path fill="none" stroke="midnightblue" d="M314,-296.616C314,-281.871 314,-264.714 314,-253.857"/>
<polygon fill="midnightblue" stroke="midnightblue" points="310.5,-296.802 314,-306.802 317.5,-296.802 310.5,-296.802"/>
</g>
</g>
</svg>
