<?xml version="1.0" encoding="UTF-8" standalone="no"?>
<!DOCTYPE svg PUBLIC "-//W3C//DTD SVG 1.1//EN"
 "http://www.w3.org/Graphics/SVG/1.1/DTD/svg11.dtd">
<!-- Generated by graphviz version 2.26.3 (20100126.1600)
 -->
<!-- Title: VisualizationSceneVector Pages: 1 -->
<svg width="259pt" height="318pt"
 viewBox="0.00 0.00 259.00 318.00" xmlns="http://www.w3.org/2000/svg" xmlns:xlink="http://www.w3.org/1999/xlink">
<g id="graph1" class="graph" transform="scale(1 1) rotate(0) translate(4 314)">
<title>VisualizationSceneVector</title>
<polygon fill="white" stroke="white" points="-4,5 -4,-314 256,-314 256,5 -4,5"/>
<!-- Node1 -->
<g id="node1" class="node"><title>Node1</title>
<polygon fill="#bfbfbf" stroke="black" points="63.5,-1 63.5,-25 236.5,-25 236.5,-1 63.5,-1"/>
<text text-anchor="middle" x="150" y="-8.4" font-family="Helvetica,sans-Serif" font-size="14.00">VisualizationSceneVector</text>
</g>
<!-- Node2 -->
<g id="node2" class="node"><title>Node2</title>
<a xlink:href="classVisualizationSceneSolution.html" target="_top" xlink:title="VisualizationSceneSolution">
<polygon fill="white" stroke="black" points="58,-65 58,-89 242,-89 242,-65 58,-65"/>
<text text-anchor="middle" x="150" y="-72.4" font-family="Helvetica,sans-Serif" font-size="14.00">VisualizationSceneSolution</text>
</a>
</g>
<!-- Node2&#45;&gt;Node1 -->
<g id="edge2" class="edge"><title>Node2&#45;&gt;Node1</title>
<path fill="none" stroke="midnightblue" d="M150,-54.6785C150,-44.8681 150,-33.7179 150,-25.4205"/>
<polygon fill="midnightblue" stroke="midnightblue" points="146.5,-54.9621 150,-64.9621 153.5,-54.9621 146.5,-54.9621"/>
</g>
<!-- Node3 -->
<g id="node4" class="node"><title>Node3</title>
<a xlink:href="classVisualizationSceneScalarData.html" target="_top" xlink:title="VisualizationSceneScalarData">
<polygon fill="white" stroke="black" points="48.5,-129 48.5,-153 251.5,-153 251.5,-129 48.5,-129"/>
<text text-anchor="middle" x="150" y="-136.4" font-family="Helvetica,sans-Serif" font-size="14.00">VisualizationSceneScalarData</text>
</a>
</g>
<!-- Node3&#45;&gt;Node2 -->
<g id="edge4" class="edge"><title>Node3&#45;&gt;Node2</title>
<path fill="none" stroke="midnightblue" d="M150,-118.679C150,-108.868 150,-97.7179 150,-89.4205"/>
<polygon fill="midnightblue" stroke="midnightblue" points="146.5,-118.962 150,-128.962 153.5,-118.962 146.5,-118.962"/>
</g>
<!-- Node4 -->
<g id="node6" class="node"><title>Node4</title>
<a xlink:href="classVisualizationScene.html" target="_top" xlink:title="VisualizationScene">
<polygon fill="white" stroke="black" points="0,-207 0,-231 134,-231 134,-207 0,-207"/>
<text text-anchor="middle" x="67" y="-214.4" font-family="Helvetica,sans-Serif" font-size="14.00">VisualizationScene</text>
</a>
</g>
<!-- Node4&#45;&gt;Node3 -->
<g id="edge6" class="edge"><title>Node4&#45;&gt;Node3</title>
<path fill="none" stroke="midnightblue" d="M87.5327,-199.704C103.053,-185.119 123.879,-165.548 137.122,-153.102"/>
<polygon fill="midnightblue" stroke="midnightblue" points="84.8591,-197.414 79.9688,-206.812 89.6528,-202.515 84.8591,-197.414"/>
</g>
<!-- Node5 -->
<g id="node8" class="node"><title>Node5</title>
<a xlink:href="classCamera.html" target="_top" xlink:title="Camera">
<polygon fill="white" stroke="black" points="34,-285 34,-309 100,-309 100,-285 34,-285"/>
<text text-anchor="middle" x="67" y="-292.4" font-family="Helvetica,sans-Serif" font-size="14.00">Camera</text>
</a>
</g>
<!-- Node5&#45;&gt;Node4 -->
<g id="edge8" class="edge"><title>Node5&#45;&gt;Node4</title>
<path fill="none" stroke="#9a32cd" stroke-dasharray="5,2" d="M67,-274.417C67,-260.285 67,-242.634 67,-231.102"/>
<polygon fill="#9a32cd" stroke="#9a32cd" points="63.5001,-274.812 67,-284.812 70.5001,-274.813 63.5001,-274.812"/>
<text text-anchor="middle" x="83" y="-253.4" font-family="Helvetica,sans-Serif" font-size="14.00"> cam</text>
</g>
<!-- Node6 -->
<g id="node10" class="node"><title>Node6</title>
<a xlink:href="classPlane.html" target="_top" xlink:title="Plane">
<polygon fill="white" stroke="black" points="152,-207 152,-231 204,-231 204,-207 152,-207"/>
<text text-anchor="middle" x="178" y="-214.4" font-family="Helvetica,sans-Serif" font-size="14.00">Plane</text>
</a>
</g>
<!-- Node6&#45;&gt;Node3 -->
<g id="edge10" class="edge"><title>Node6&#45;&gt;Node3</title>
<path fill="none" stroke="#9a32cd" stroke-dasharray="5,2" d="M170.193,-197.252C165.072,-182.986 158.566,-164.863 154.344,-153.102"/>
<polygon fill="#9a32cd" stroke="#9a32cd" points="166.952,-198.583 173.625,-206.812 173.54,-196.218 166.952,-198.583"/>
<text text-anchor="middle" x="208.5" y="-175.4" font-family="Helvetica,sans-Serif" font-size="14.00"> CuttingPlane</text>
</g>
</g>
</svg>
