<?xml version="1.0" encoding="UTF-8" standalone="no"?>
<!DOCTYPE svg PUBLIC "-//W3C//DTD SVG 1.1//EN"
 "http://www.w3.org/Graphics/SVG/1.1/DTD/svg11.dtd">
<!-- Generated by graphviz version 2.44.1 (20200629.0846)
 -->
<!-- Title: VisualizationSceneVector Pages: 1 -->
<svg width="785pt" height="639pt"
 viewBox="0.00 0.00 784.50 639.00" xmlns="http://www.w3.org/2000/svg" xmlns:xlink="http://www.w3.org/1999/xlink">
<g id="graph0" class="graph" transform="scale(1 1) rotate(0) translate(4 635)">
<title>VisualizationSceneVector</title>
<polygon fill="white" stroke="transparent" points="-4,4 -4,-635 780.5,-635 780.5,4 -4,4"/>
<!-- Node1 -->
<g id="node1" class="node">
<title>Node1</title>
<g id="a_node1"><a xlink:title=" ">
<polygon fill="#bfbfbf" stroke="black" points="0,-0.5 0,-23.5 170,-23.5 170,-0.5 0,-0.5"/>
<text text-anchor="middle" x="85" y="-8.3" font-family="Helvetica,sans-Serif" font-size="14.00">VisualizationSceneVector</text>
</a>
</g>
</g>
<!-- Node2 -->
<g id="node2" class="node">
<title>Node2</title>
<g id="a_node2"><a xlink:href="classVisualizationSceneSolution.html" target="_top" xlink:title=" ">
<polygon fill="white" stroke="black" points="78.5,-61.5 78.5,-84.5 257.5,-84.5 257.5,-61.5 78.5,-61.5"/>
<text text-anchor="middle" x="168" y="-69.3" font-family="Helvetica,sans-Serif" font-size="14.00">VisualizationSceneSolution</text>
</a>
</g>
</g>
<!-- Node2&#45;&gt;Node1 -->
<g id="edge1" class="edge">
<title>Node2&#45;&gt;Node1</title>
<path fill="none" stroke="midnightblue" d="M144.79,-55.5C130.45,-45.31 112.47,-32.53 99.99,-23.66"/>
<polygon fill="midnightblue" stroke="midnightblue" points="142.98,-58.51 153.16,-61.45 147.04,-52.81 142.98,-58.51"/>
</g>
<!-- Node3 -->
<g id="node3" class="node">
<title>Node3</title>
<g id="a_node3"><a xlink:href="classVisualizationSceneScalarData.html" target="_top" xlink:title=" ">
<polygon fill="white" stroke="black" points="247.5,-214.5 247.5,-237.5 444.5,-237.5 444.5,-214.5 247.5,-214.5"/>
<text text-anchor="middle" x="346" y="-222.3" font-family="Helvetica,sans-Serif" font-size="14.00">VisualizationSceneScalarData</text>
</a>
</g>
</g>
<!-- Node3&#45;&gt;Node2 -->
<g id="edge2" class="edge">
<title>Node3&#45;&gt;Node2</title>
<path fill="none" stroke="midnightblue" d="M325.83,-207.89C288.87,-176.54 211.28,-110.72 180.74,-84.81"/>
<polygon fill="midnightblue" stroke="midnightblue" points="323.59,-210.58 333.48,-214.38 328.12,-205.24 323.59,-210.58"/>
</g>
<!-- Node4 -->
<g id="node4" class="node">
<title>Node4</title>
<g id="a_node4"><a xlink:href="classVisualizationScene.html" target="_top" xlink:title=" ">
<polygon fill="white" stroke="black" points="485.5,-412.5 485.5,-435.5 616.5,-435.5 616.5,-412.5 485.5,-412.5"/>
<text text-anchor="middle" x="551" y="-420.3" font-family="Helvetica,sans-Serif" font-size="14.00">VisualizationScene</text>
</a>
</g>
</g>
<!-- Node4&#45;&gt;Node3 -->
<g id="edge3" class="edge">
<title>Node4&#45;&gt;Node3</title>
<path fill="none" stroke="midnightblue" d="M536.4,-404.43C519.12,-382.93 489.04,-346.91 460,-319 426.62,-286.93 383.09,-253.96 360.7,-237.58"/>
<polygon fill="midnightblue" stroke="midnightblue" points="533.8,-406.79 542.77,-412.43 539.28,-402.43 533.8,-406.79"/>
</g>
<!-- Node5 -->
<g id="node5" class="node">
<title>Node5</title>
<g id="a_node5"><a xlink:href="classSdlWindow.html" target="_top" xlink:title=" ">
<polygon fill="white" stroke="black" points="691.5,-495 691.5,-518 776.5,-518 776.5,-495 691.5,-495"/>
<text text-anchor="middle" x="734" y="-502.8" font-family="Helvetica,sans-Serif" font-size="14.00">SdlWindow</text>
</a>
</g>
</g>
<!-- Node5&#45;&gt;Node4 -->
<g id="edge4" class="edge">
<title>Node5&#45;&gt;Node4</title>
<path fill="none" stroke="#9a32cd" stroke-dasharray="5,2" d="M714.93,-488.32C701.54,-477.08 682.74,-462.89 664,-454 647.07,-445.97 627.62,-439.96 609.69,-435.56"/>
<polygon fill="#9a32cd" stroke="#9a32cd" points="712.66,-490.98 722.52,-494.86 717.23,-485.68 712.66,-490.98"/>
<text text-anchor="middle" x="702.5" y="-457.8" font-family="Helvetica,sans-Serif" font-size="14.00"> wnd</text>
</g>
<!-- Node6 -->
<g id="node6" class="node">
<title>Node6</title>
<g id="a_node6"><a xlink:href="structMaterial.html" target="_top" xlink:title=" ">
<polygon fill="white" stroke="black" points="525.5,-495 525.5,-518 590.5,-518 590.5,-495 525.5,-495"/>
<text text-anchor="middle" x="558" y="-502.8" font-family="Helvetica,sans-Serif" font-size="14.00">Material</text>
</a>
</g>
</g>
<!-- Node6&#45;&gt;Node4 -->
<g id="edge5" class="edge">
<title>Node6&#45;&gt;Node4</title>
<path fill="none" stroke="#9a32cd" stroke-dasharray="5,2" d="M554.02,-484.45C553.21,-479.41 552.47,-474.03 552,-469 550.94,-457.59 550.78,-444.44 550.83,-435.51"/>
<polygon fill="#9a32cd" stroke="#9a32cd" points="550.64,-485.44 555.81,-494.69 557.54,-484.24 550.64,-485.44"/>
<text text-anchor="middle" x="585.5" y="-457.8" font-family="Helvetica,sans-Serif" font-size="14.00"> BLK_MAT</text>
</g>
<!-- Node7 -->
<g id="node7" class="node">
<title>Node7</title>
<g id="a_node7"><a xlink:title=" ">
<polygon fill="white" stroke="#bfbfbf" points="402.5,-607.5 402.5,-630.5 539.5,-630.5 539.5,-607.5 402.5,-607.5"/>
<text text-anchor="middle" x="471" y="-615.3" font-family="Helvetica,sans-Serif" font-size="14.00">std::array&lt; float, 4 &gt;</text>
</a>
</g>
</g>
<!-- Node7&#45;&gt;Node4 -->
<g id="edge8" class="edge">
<title>Node7&#45;&gt;Node4</title>
<path fill="none" stroke="#9a32cd" stroke-dasharray="5,2" d="M464.11,-597.56C456.31,-570.61 446.86,-522.45 465,-487 477.5,-462.59 504.58,-445.59 525.04,-435.64"/>
<polygon fill="#9a32cd" stroke="#9a32cd" points="460.86,-598.89 467.17,-607.41 467.55,-596.82 460.86,-598.89"/>
<text text-anchor="middle" x="491" y="-502.8" font-family="Helvetica,sans-Serif" font-size="14.00"> _l0_pos</text>
</g>
<!-- Node7&#45;&gt;Node6 -->
<g id="edge6" class="edge">
<title>Node7&#45;&gt;Node6</title>
<path fill="none" stroke="#9a32cd" stroke-dasharray="5,2" d="M485.7,-599.32C504.04,-576.03 534.77,-537 549.56,-518.23"/>
<polygon fill="#9a32cd" stroke="#9a32cd" points="482.78,-597.38 479.34,-607.4 488.28,-601.71 482.78,-597.38"/>
<text text-anchor="middle" x="553.5" y="-577.8" font-family="Helvetica,sans-Serif" font-size="14.00"> ambient</text>
<text text-anchor="middle" x="553.5" y="-562.8" font-family="Helvetica,sans-Serif" font-size="14.00">diffuse</text>
<text text-anchor="middle" x="553.5" y="-547.8" font-family="Helvetica,sans-Serif" font-size="14.00">specular</text>
</g>
<!-- Node8 -->
<g id="node8" class="node">
<title>Node8</title>
<g id="a_node8"><a xlink:href="classCamera.html" target="_top" xlink:title=" ">
<polygon fill="white" stroke="black" points="608.5,-495 608.5,-518 673.5,-518 673.5,-495 608.5,-495"/>
<text text-anchor="middle" x="641" y="-502.8" font-family="Helvetica,sans-Serif" font-size="14.00">Camera</text>
</a>
</g>
</g>
<!-- Node8&#45;&gt;Node4 -->
<g id="edge7" class="edge">
<title>Node8&#45;&gt;Node4</title>
<path fill="none" stroke="#9a32cd" stroke-dasharray="5,2" d="M636.1,-484.76C632.75,-474.42 627.37,-462.37 619,-454 610.92,-445.93 600.24,-439.96 589.74,-435.61"/>
<polygon fill="#9a32cd" stroke="#9a32cd" points="632.82,-486.01 638.89,-494.69 639.56,-484.12 632.82,-486.01"/>
<text text-anchor="middle" x="644.5" y="-457.8" font-family="Helvetica,sans-Serif" font-size="14.00"> cam</text>
</g>
<!-- Node9 -->
<g id="node9" class="node">
<title>Node9</title>
<g id="a_node9"><a xlink:href="classgl3_1_1GlDrawable.html" target="_top" xlink:title=" ">
<polygon fill="white" stroke="black" points="84.5,-412.5 84.5,-435.5 197.5,-435.5 197.5,-412.5 84.5,-412.5"/>
<text text-anchor="middle" x="141" y="-420.3" font-family="Helvetica,sans-Serif" font-size="14.00">gl3::GlDrawable</text>
</a>
</g>
</g>
<!-- Node9&#45;&gt;Node1 -->
<g id="edge14" class="edge">
<title>Node9&#45;&gt;Node1</title>
<path fill="none" stroke="#9a32cd" stroke-dasharray="5,2" d="M134.31,-402.67C117.68,-350.58 75.38,-207.78 69,-85 68.45,-74.35 67.29,-71.53 69,-61 71.14,-47.82 76.38,-33.37 80.28,-23.8"/>
<polygon fill="#9a32cd" stroke="#9a32cd" points="131.04,-403.93 137.44,-412.37 137.7,-401.78 131.04,-403.93"/>
<text text-anchor="middle" x="111" y="-121.8" font-family="Helvetica,sans-Serif" font-size="14.00"> displine_buf</text>
<text text-anchor="middle" x="111" y="-106.8" font-family="Helvetica,sans-Serif" font-size="14.00">vector_buf</text>
</g>
<!-- Node9&#45;&gt;Node2 -->
<g id="edge13" class="edge">
<title>Node9&#45;&gt;Node2</title>
<path fill="none" stroke="#9a32cd" stroke-dasharray="5,2" d="M140.3,-402.18C139.07,-356.49 137.71,-244.06 150,-151 153.16,-127.05 160.49,-99.63 164.75,-84.84"/>
<polygon fill="#9a32cd" stroke="#9a32cd" points="136.81,-402.42 140.6,-412.31 143.8,-402.21 136.81,-402.42"/>
<text text-anchor="middle" x="194" y="-289.8" font-family="Helvetica,sans-Serif" font-size="14.00"> cp_buf</text>
<text text-anchor="middle" x="194" y="-274.8" font-family="Helvetica,sans-Serif" font-size="14.00">bdr_buf</text>
<text text-anchor="middle" x="194" y="-259.8" font-family="Helvetica,sans-Serif" font-size="14.00">order_buf</text>
<text text-anchor="middle" x="194" y="-244.8" font-family="Helvetica,sans-Serif" font-size="14.00">v_nums_buf</text>
<text text-anchor="middle" x="194" y="-229.8" font-family="Helvetica,sans-Serif" font-size="14.00">lcurve_buf</text>
<text text-anchor="start" x="150" y="-214.8" font-family="Helvetica,sans-Serif" font-size="14.00">order_noarrow</text>
<text text-anchor="middle" x="194" y="-199.8" font-family="Helvetica,sans-Serif" font-size="14.00">_buf</text>
<text text-anchor="middle" x="194" y="-184.8" font-family="Helvetica,sans-Serif" font-size="14.00">disp_buf</text>
<text text-anchor="middle" x="194" y="-169.8" font-family="Helvetica,sans-Serif" font-size="14.00">line_buf</text>
<text text-anchor="middle" x="194" y="-154.8" font-family="Helvetica,sans-Serif" font-size="14.00">e_nums_buf</text>
</g>
<!-- Node9&#45;&gt;Node3 -->
<g id="edge9" class="edge">
<title>Node9&#45;&gt;Node3</title>
<path fill="none" stroke="#9a32cd" stroke-dasharray="5,2" d="M149.51,-402.96C161.73,-374.54 183.48,-325.24 190,-319 204.97,-304.67 214.7,-310.72 233,-301 270.07,-281.31 310.55,-252.98 331.54,-237.71"/>
<polygon fill="#9a32cd" stroke="#9a32cd" points="146.2,-401.8 145.49,-412.37 152.64,-404.55 146.2,-401.8"/>
<text text-anchor="middle" x="242" y="-382.8" font-family="Helvetica,sans-Serif" font-size="14.00"> coord_cross_buf</text>
<text text-anchor="middle" x="242" y="-367.8" font-family="Helvetica,sans-Serif" font-size="14.00">axes_buf</text>
<text text-anchor="middle" x="242" y="-352.8" font-family="Helvetica,sans-Serif" font-size="14.00">color_bar</text>
<text text-anchor="middle" x="242" y="-337.8" font-family="Helvetica,sans-Serif" font-size="14.00">ruler_buf</text>
<text text-anchor="middle" x="242" y="-322.8" font-family="Helvetica,sans-Serif" font-size="14.00">caption_buf</text>
</g>
<!-- Node10 -->
<g id="node10" class="node">
<title>Node10</title>
<g id="a_node10"><a xlink:href="classPlane.html" target="_top" xlink:title=" ">
<polygon fill="white" stroke="black" points="275.5,-412.5 275.5,-435.5 326.5,-435.5 326.5,-412.5 275.5,-412.5"/>
<text text-anchor="middle" x="301" y="-420.3" font-family="Helvetica,sans-Serif" font-size="14.00">Plane</text>
</a>
</g>
</g>
<!-- Node10&#45;&gt;Node3 -->
<g id="edge10" class="edge">
<title>Node10&#45;&gt;Node3</title>
<path fill="none" stroke="#9a32cd" stroke-dasharray="5,2" d="M298.6,-402.39C296.73,-381.18 295.43,-347.33 302,-319 309.28,-287.61 328.45,-254.35 338.92,-237.75"/>
<polygon fill="#9a32cd" stroke="#9a32cd" points="295.13,-402.89 299.62,-412.49 302.1,-402.19 295.13,-402.89"/>
<text text-anchor="middle" x="343" y="-352.8" font-family="Helvetica,sans-Serif" font-size="14.00"> CuttingPlane</text>
</g>
<!-- Node11 -->
<g id="node11" class="node">
<title>Node11</title>
<g id="a_node11"><a xlink:title="STL class.">
<polygon fill="white" stroke="#bfbfbf" points="356.5,-412.5 356.5,-435.5 431.5,-435.5 431.5,-412.5 356.5,-412.5"/>
<text text-anchor="middle" x="394" y="-420.3" font-family="Helvetica,sans-Serif" font-size="14.00">std::string</text>
</a>
</g>
</g>
<!-- Node11&#45;&gt;Node3 -->
<g id="edge11" class="edge">
<title>Node11&#45;&gt;Node3</title>
<path fill="none" stroke="#9a32cd" stroke-dasharray="5,2" d="M393.8,-402.39C393.19,-381.19 391.05,-347.35 384,-319 376.37,-288.31 360.23,-254.49 351.65,-237.69"/>
<polygon fill="#9a32cd" stroke="#9a32cd" points="390.31,-402.57 394.01,-412.5 397.3,-402.43 390.31,-402.57"/>
<text text-anchor="middle" x="425" y="-367.8" font-family="Helvetica,sans-Serif" font-size="14.00"> a_label_x</text>
<text text-anchor="middle" x="425" y="-352.8" font-family="Helvetica,sans-Serif" font-size="14.00">a_label_y</text>
<text text-anchor="middle" x="425" y="-337.8" font-family="Helvetica,sans-Serif" font-size="14.00">a_label_z</text>
</g>
<!-- Node12 -->
<g id="node12" class="node">
<title>Node12</title>
<g id="a_node12"><a xlink:title=" ">
<polygon fill="white" stroke="#bfbfbf" points="297,-487.5 297,-525.5 419,-525.5 419,-487.5 297,-487.5"/>
<text text-anchor="start" x="305" y="-510.3" font-family="Helvetica,sans-Serif" font-size="14.00">std::basic_string&lt;</text>
<text text-anchor="middle" x="358" y="-495.3" font-family="Helvetica,sans-Serif" font-size="14.00"> char &gt;</text>
</a>
</g>
</g>
<!-- Node12&#45;&gt;Node11 -->
<g id="edge12" class="edge">
<title>Node12&#45;&gt;Node11</title>
<path fill="none" stroke="midnightblue" d="M370.26,-478.08C376.8,-463.46 384.47,-446.31 389.28,-435.55"/>
<polygon fill="midnightblue" stroke="midnightblue" points="367.06,-476.68 366.17,-487.23 373.45,-479.53 367.06,-476.68"/>
</g>
</g>
</svg>
