<?xml version="1.0" encoding="UTF-8" standalone="no"?>
<!DOCTYPE svg PUBLIC "-//W3C//DTD SVG 1.1//EN"
 "http://www.w3.org/Graphics/SVG/1.1/DTD/svg11.dtd">
<!-- Generated by graphviz version 2.26.3 (20100126.1600)
 -->
<!-- Title: VisualizationSceneSolution3d Pages: 1 -->
<svg width="210pt" height="220pt"
 viewBox="0.00 0.00 210.00 220.00" xmlns="http://www.w3.org/2000/svg" xmlns:xlink="http://www.w3.org/1999/xlink">
<g id="graph1" class="graph" transform="scale(1 1) rotate(0) translate(4 216)">
<title>VisualizationSceneSolution3d</title>
<polygon fill="white" stroke="white" points="-4,5 -4,-216 207,-216 207,5 -4,5"/>
<!-- Node1 -->
<g id="node1" class="node"><title>Node1</title>
<polygon fill="#bfbfbf" stroke="black" points="1,-63 1,-87 201,-87 201,-63 1,-63"/>
<text text-anchor="middle" x="101" y="-70.4" font-family="Helvetica,sans-Serif" font-size="14.00">VisualizationSceneSolution3d</text>
</g>
<!-- Node4 -->
<g id="node7" class="node"><title>Node4</title>
<a xlink:href="classVisualizationSceneVector3d.html" target="_top" xlink:title="VisualizationSceneVector3d">
<polygon fill="white" stroke="black" points="7,-1 7,-25 195,-25 195,-1 7,-1"/>
<text text-anchor="middle" x="101" y="-8.4" font-family="Helvetica,sans-Serif" font-size="14.00">VisualizationSceneVector3d</text>
</a>
</g>
<!-- Node1&#45;&gt;Node4 -->
<g id="edge6" class="edge"><title>Node1&#45;&gt;Node4</title>
<path fill="none" stroke="midnightblue" d="M101,-52.63C101,-43.3865 101,-33.0306 101,-25.2238"/>
<polygon fill="midnightblue" stroke="midnightblue" points="97.5001,-52.7508 101,-62.7508 104.5,-52.7508 97.5001,-52.7508"/>
</g>
<!-- Node2 -->
<g id="node2" class="node"><title>Node2</title>
<a xlink:href="classVisualizationSceneScalarData.html" target="_top" xlink:title="VisualizationSceneScalarData">
<polygon fill="white" stroke="black" points="-0.5,-125 -0.5,-149 202.5,-149 202.5,-125 -0.5,-125"/>
<text text-anchor="middle" x="101" y="-132.4" font-family="Helvetica,sans-Serif" font-size="14.00">VisualizationSceneScalarData</text>
</a>
</g>
<!-- Node2&#45;&gt;Node1 -->
<g id="edge2" class="edge"><title>Node2&#45;&gt;Node1</title>
<path fill="none" stroke="midnightblue" d="M101,-114.63C101,-105.386 101,-95.0306 101,-87.2238"/>
<polygon fill="midnightblue" stroke="midnightblue" points="97.5001,-114.751 101,-124.751 104.5,-114.751 97.5001,-114.751"/>
</g>
<!-- Node3 -->
<g id="node4" class="node"><title>Node3</title>
<a xlink:href="classVisualizationScene.html" target="_top" xlink:title="VisualizationScene">
<polygon fill="white" stroke="black" points="34,-187 34,-211 168,-211 168,-187 34,-187"/>
<text text-anchor="middle" x="101" y="-194.4" font-family="Helvetica,sans-Serif" font-size="14.00">VisualizationScene</text>
</a>
</g>
<!-- Node3&#45;&gt;Node2 -->
<g id="edge4" class="edge"><title>Node3&#45;&gt;Node2</title>
<path fill="none" stroke="midnightblue" d="M101,-176.63C101,-167.386 101,-157.031 101,-149.224"/>
<polygon fill="midnightblue" stroke="midnightblue" points="97.5001,-176.751 101,-186.751 104.5,-176.751 97.5001,-176.751"/>
</g>
</g>
</svg>
