<?xml version="1.0" encoding="UTF-8" standalone="no"?>
<!DOCTYPE svg PUBLIC "-//W3C//DTD SVG 1.1//EN"
 "http://www.w3.org/Graphics/SVG/1.1/DTD/svg11.dtd">
<!-- Generated by graphviz version 2.26.3 (20100126.1600)
 -->
<!-- Title: G Pages: 1 -->
<!--zoomable 196 -->
<svg id="main" version="1.1" xmlns="http://www.w3.org/2000/svg" xmlns:xlink="http://www.w3.org/1999/xlink" xml:space="preserve" onload="init(evt)">
        <defs>
                <circle id="rim" cx="0" cy="0" r="7"/>
                <circle id="rim2" cx="0" cy="0" r="3.5"/>
                <g id="zoomPlus">
                        <use xlink:href="#rim" fill="#404040">
                                <set attributeName="fill" to="#808080" begin="zoomplus.mouseover" end="zoomplus.mouseout"/>
                        </use>
                        <path d="M-4,0h8M0,-4v8" fill="none" stroke="white" stroke-width="1.5" pointer-events="none"/>
                </g>
                <g id="zoomMin">
                        <use xlink:href="#rim" fill="#404040">
                                <set attributeName="fill" to="#808080" begin="zoomminus.mouseover" end="zoomminus.mouseout"/>
                        </use>
                        <path d="M-4,0h8" fill="none" stroke="white" stroke-width="1.5" pointer-events="none"/>
                </g>
                <g id="dirArrow">
                        <path fill="none" stroke="white" stroke-width="1.5" d="M0,-3.0v7 M-2.5,-0.5L0,-3.0L2.5,-0.5"/>
                </g>
               <g id="resetDef">
                       <use xlink:href="#rim2" fill="#404040">
                               <set attributeName="fill" to="#808080" begin="reset.mouseover" end="reset.mouseout"/>
                       </use>
               </g>
        </defs>

<script type="text/javascript">
var viewWidth = 1274;
var viewHeight = 196;
var sectionId = 'dynsection-0';
</script>
<script xlink:href="svgpan.js"/>
<svg id="graph" class="graph">
<g id="viewport">
<title>G</title>
<polygon fill="white" stroke="white" points="-4,5 -4,-192 1271,-192 1271,5 -4,5"/>
<!-- Node1 -->
<g id="node1" class="node"><title>Node1</title>
<polygon fill="#bfbfbf" stroke="black" points="473.5,-168.5 473.5,-187.5 528.5,-187.5 528.5,-168.5 473.5,-168.5"/>
<text text-anchor="middle" x="501" y="-174.5" font-family="FreeSans" font-size="10.00">glvis.cpp</text>
</g>
<!-- Node2 -->
<g id="node3" class="node"><title>Node2</title>
<polygon fill="white" stroke="#bfbfbf" points="2.5,-112.5 2.5,-131.5 41.5,-131.5 41.5,-112.5 2.5,-112.5"/>
<text text-anchor="middle" x="22" y="-118.5" font-family="FreeSans" font-size="10.00">limits</text>
</g>
<!-- Node1&#45;&gt;Node2 -->
<g id="edge2" class="edge"><title>Node1&#45;&gt;Node2</title>
<path fill="none" stroke="midnightblue" d="M473.431,-177.493C403.839,-175.73 215.504,-167.949 51.949,-132"/>
<polygon fill="midnightblue" stroke="midnightblue" points="52.2332,-128.477 41.7098,-129.705 50.702,-135.308 52.2332,-128.477"/>
</g>
<!-- Node3 -->
<g id="node5" class="node"><title>Node3</title>
<polygon fill="white" stroke="#bfbfbf" points="58.5,-112.5 58.5,-131.5 113.5,-131.5 113.5,-112.5 58.5,-112.5"/>
<text text-anchor="middle" x="86" y="-118.5" font-family="FreeSans" font-size="10.00">iostream</text>
</g>
<!-- Node1&#45;&gt;Node3 -->
<g id="edge4" class="edge"><title>Node1&#45;&gt;Node3</title>
<path fill="none" stroke="midnightblue" d="M473.193,-176.063C411.748,-171.478 259.695,-158.456 123.966,-132.168"/>
<polygon fill="midnightblue" stroke="midnightblue" points="124.296,-128.666 113.809,-130.169 122.945,-135.534 124.296,-128.666"/>
</g>
<!-- Node4 -->
<g id="node7" class="node"><title>Node4</title>
<polygon fill="white" stroke="#bfbfbf" points="130.5,-112.5 130.5,-131.5 181.5,-131.5 181.5,-112.5 130.5,-112.5"/>
<text text-anchor="middle" x="156" y="-118.5" font-family="FreeSans" font-size="10.00">fstream</text>
</g>
<!-- Node1&#45;&gt;Node4 -->
<g id="edge6" class="edge"><title>Node1&#45;&gt;Node4</title>
<path fill="none" stroke="midnightblue" d="M473.308,-175.214C420.293,-169.601 300.695,-155.594 191.388,-132.076"/>
<polygon fill="midnightblue" stroke="midnightblue" points="192.037,-128.635 181.521,-129.92 190.544,-135.474 192.037,-128.635"/>
</g>
<!-- Node5 -->
<g id="node9" class="node"><title>Node5</title>
<polygon fill="white" stroke="#bfbfbf" points="199,-112.5 199,-131.5 245,-131.5 245,-112.5 199,-112.5"/>
<text text-anchor="middle" x="222" y="-118.5" font-family="FreeSans" font-size="10.00">stdio.h</text>
</g>
<!-- Node1&#45;&gt;Node5 -->
<g id="edge8" class="edge"><title>Node1&#45;&gt;Node5</title>
<path fill="none" stroke="midnightblue" d="M473.358,-173.951C429.153,-167.239 339.7,-152.694 255.087,-132.055"/>
<polygon fill="midnightblue" stroke="midnightblue" points="255.876,-128.645 245.328,-129.642 254.195,-135.44 255.876,-128.645"/>
</g>
<!-- Node6 -->
<g id="node11" class="node"><title>Node6</title>
<polygon fill="white" stroke="#bfbfbf" points="262.5,-112.5 262.5,-131.5 311.5,-131.5 311.5,-112.5 262.5,-112.5"/>
<text text-anchor="middle" x="287" y="-118.5" font-family="FreeSans" font-size="10.00">string.h</text>
</g>
<!-- Node1&#45;&gt;Node6 -->
<g id="edge10" class="edge"><title>Node1&#45;&gt;Node6</title>
<path fill="none" stroke="midnightblue" d="M473.299,-171.374C439.575,-163.217 380.672,-148.683 321.68,-132.393"/>
<polygon fill="midnightblue" stroke="midnightblue" points="322.403,-128.961 311.831,-129.656 320.529,-135.706 322.403,-128.961"/>
</g>
<!-- Node7 -->
<g id="node13" class="node"><title>Node7</title>
<polygon fill="white" stroke="#bfbfbf" points="328.5,-112.5 328.5,-131.5 373.5,-131.5 373.5,-112.5 328.5,-112.5"/>
<text text-anchor="middle" x="351" y="-118.5" font-family="FreeSans" font-size="10.00">time.h</text>
</g>
<!-- Node1&#45;&gt;Node7 -->
<g id="edge12" class="edge"><title>Node1&#45;&gt;Node7</title>
<path fill="none" stroke="midnightblue" d="M475.214,-168.373C449.7,-158.848 410.582,-144.244 383.075,-133.975"/>
<polygon fill="midnightblue" stroke="midnightblue" points="384.106,-130.624 373.514,-130.405 381.658,-137.182 384.106,-130.624"/>
</g>
<!-- Node8 -->
<g id="node15" class="node"><title>Node8</title>
<polygon fill="white" stroke="#bfbfbf" points="390.5,-112.5 390.5,-131.5 441.5,-131.5 441.5,-112.5 390.5,-112.5"/>
<text text-anchor="middle" x="416" y="-118.5" font-family="FreeSans" font-size="10.00">signal.h</text>
</g>
<!-- Node1&#45;&gt;Node8 -->
<g id="edge14" class="edge"><title>Node1&#45;&gt;Node8</title>
<path fill="none" stroke="midnightblue" d="M486.194,-168.246C473.274,-159.734 454.307,-147.237 439.345,-137.38"/>
<polygon fill="midnightblue" stroke="midnightblue" points="440.912,-134.222 430.636,-131.643 437.061,-140.067 440.912,-134.222"/>
</g>
<!-- Node9 -->
<g id="node17" class="node"><title>Node9</title>
<polygon fill="white" stroke="#bfbfbf" points="-0.5,-0.5 -0.5,-19.5 60.5,-19.5 60.5,-0.5 -0.5,-0.5"/>
<text text-anchor="middle" x="30" y="-6.5" font-family="FreeSans" font-size="10.00">mfem.hpp</text>
</g>
<!-- Node1&#45;&gt;Node9 -->
<g id="edge16" class="edge"><title>Node1&#45;&gt;Node9</title>
<path fill="none" stroke="midnightblue" d="M496.712,-168.313C489.491,-153.297 473.367,-124.803 450,-112 371.536,-69.0102 118.002,-132.952 49,-76 35.663,-64.9921 31.3394,-45.2738 30.0971,-30.2475"/>
<polygon fill="midnightblue" stroke="midnightblue" points="33.5783,-29.7328 29.6495,-19.8934 26.5848,-30.0352 33.5783,-29.7328"/>
</g>
<!-- Node10 -->
<g id="node19" class="node"><title>Node10</title>
<a xlink:href="visual_8hpp.html" target="_top" xlink:title="lib/visual.hpp">
<polygon fill="white" stroke="black" points="497,-112.5 497,-131.5 571,-131.5 571,-112.5 497,-112.5"/>
<text text-anchor="middle" x="534" y="-118.5" font-family="FreeSans" font-size="10.00">lib/visual.hpp</text>
</a>
</g>
<!-- Node1&#45;&gt;Node10 -->
<g id="edge18" class="edge"><title>Node1&#45;&gt;Node10</title>
<path fill="none" stroke="midnightblue" d="M506.748,-168.246C511.244,-160.617 517.625,-149.788 523.082,-140.527"/>
<polygon fill="midnightblue" stroke="midnightblue" points="526.256,-142.035 528.318,-131.643 520.225,-138.481 526.256,-142.035"/>
</g>
<!-- Node13 -->
<g id="node25" class="node"><title>Node13</title>
<polygon fill="white" stroke="#bfbfbf" points="634.5,-0.5 634.5,-19.5 683.5,-19.5 683.5,-0.5 634.5,-0.5"/>
<text text-anchor="middle" x="659" y="-6.5" font-family="FreeSans" font-size="10.00">GL/gl.h</text>
</g>
<!-- Node1&#45;&gt;Node13 -->
<g id="edge62" class="edge"><title>Node1&#45;&gt;Node13</title>
<path fill="none" stroke="midnightblue" d="M528.757,-173.736C601.733,-161.904 795.913,-126.193 833,-76 838.282,-68.851 838.423,-63.043 833,-56 816.155,-34.1227 739.639,-20.5283 693.87,-14.2071"/>
<polygon fill="midnightblue" stroke="midnightblue" points="694.152,-10.7138 683.777,-12.8619 693.227,-17.6524 694.152,-10.7138"/>
</g>
<!-- Node14 -->
<g id="node27" class="node"><title>Node14</title>
<polygon fill="white" stroke="#bfbfbf" points="765,-0.5 765,-19.5 819,-19.5 819,-0.5 765,-0.5"/>
<text text-anchor="middle" x="792" y="-6.5" font-family="FreeSans" font-size="10.00">GL/glu.h</text>
</g>
<!-- Node1&#45;&gt;Node14 -->
<g id="edge64" class="edge"><title>Node1&#45;&gt;Node14</title>
<path fill="none" stroke="midnightblue" d="M528.636,-176.712C577.354,-173.668 681.025,-163.704 762,-132 804.819,-115.235 826.977,-116.367 849,-76 859.69,-56.4066 839.165,-37.4925 819.832,-24.9729"/>
<polygon fill="midnightblue" stroke="midnightblue" points="821.512,-21.8981 811.149,-19.6912 817.874,-27.8785 821.512,-21.8981"/>
</g>
<!-- Node15 -->
<g id="node29" class="node"><title>Node15</title>
<polygon fill="white" stroke="#bfbfbf" points="868.5,-0.5 868.5,-19.5 921.5,-19.5 921.5,-0.5 868.5,-0.5"/>
<text text-anchor="middle" x="895" y="-6.5" font-family="FreeSans" font-size="10.00">GL/glx.h</text>
</g>
<!-- Node1&#45;&gt;Node15 -->
<g id="edge60" class="edge"><title>Node1&#45;&gt;Node15</title>
<path fill="none" stroke="midnightblue" d="M528.608,-175.82C593.452,-170.375 753.645,-154.949 802,-132 835.545,-116.079 841.895,-105.835 864,-76 874.69,-61.5721 883.051,-42.8704 888.382,-29.0604"/>
<polygon fill="midnightblue" stroke="midnightblue" points="891.692,-30.1986 891.856,-19.6051 885.122,-27.7842 891.692,-30.1986"/>
</g>
<!-- Node26 -->
<g id="node54" class="node"><title>Node26</title>
<polygon fill="white" stroke="#bfbfbf" points="955.5,-112.5 955.5,-131.5 1018.5,-131.5 1018.5,-112.5 955.5,-112.5"/>
<text text-anchor="middle" x="987" y="-118.5" font-family="FreeSans" font-size="10.00">X11/Xlib.h</text>
</g>
<!-- Node1&#45;&gt;Node26 -->
<g id="edge56" class="edge"><title>Node1&#45;&gt;Node26</title>
<path fill="none" stroke="midnightblue" d="M528.753,-176.216C598.533,-171.491 786.814,-157.251 942,-132 943.066,-131.826 944.145,-131.643 945.233,-131.452"/>
<polygon fill="midnightblue" stroke="midnightblue" points="945.967,-134.876 955.13,-129.556 944.65,-128.001 945.967,-134.876"/>
</g>
<!-- Node27 -->
<g id="node56" class="node"><title>Node27</title>
<polygon fill="white" stroke="#bfbfbf" points="1036,-112.5 1036,-131.5 1102,-131.5 1102,-112.5 1036,-112.5"/>
<text text-anchor="middle" x="1069" y="-118.5" font-family="FreeSans" font-size="10.00">X11/Xutil.h</text>
</g>
<!-- Node1&#45;&gt;Node27 -->
<g id="edge58" class="edge"><title>Node1&#45;&gt;Node27</title>
<path fill="none" stroke="midnightblue" d="M528.555,-177.014C605.665,-173.953 830.251,-162.988 1025.74,-132.001"/>
<polygon fill="midnightblue" stroke="midnightblue" points="1026.3,-135.456 1035.62,-130.414 1025.19,-128.545 1026.3,-135.456"/>
</g>
<!-- Node28 -->
<g id="node61" class="node"><title>Node28</title>
<polygon fill="white" stroke="#bfbfbf" points="1119.5,-112.5 1119.5,-131.5 1198.5,-131.5 1198.5,-112.5 1119.5,-112.5"/>
<text text-anchor="middle" x="1159" y="-118.5" font-family="FreeSans" font-size="10.00">X11/keysym.h</text>
</g>
<!-- Node1&#45;&gt;Node28 -->
<g id="edge66" class="edge"><title>Node1&#45;&gt;Node28</title>
<path fill="none" stroke="midnightblue" d="M528.801,-177.191C614.122,-174.438 879.858,-163.846 1109.06,-132.124"/>
<polygon fill="midnightblue" stroke="midnightblue" points="1109.84,-135.549 1119.26,-130.695 1108.87,-128.617 1109.84,-135.549"/>
</g>
<!-- Node29 -->
<g id="node63" class="node"><title>Node29</title>
<polygon fill="white" stroke="#bfbfbf" points="1215.5,-112.5 1215.5,-131.5 1266.5,-131.5 1266.5,-112.5 1215.5,-112.5"/>
<text text-anchor="middle" x="1241" y="-118.5" font-family="FreeSans" font-size="10.00">unistd.h</text>
</g>
<!-- Node1&#45;&gt;Node29 -->
<g id="edge68" class="edge"><title>Node1&#45;&gt;Node29</title>
<path fill="none" stroke="midnightblue" d="M528.713,-177.013C639.812,-172.935 1053.87,-156.52 1205.15,-131.949"/>
<polygon fill="midnightblue" stroke="midnightblue" points="1205.88,-135.374 1215.15,-130.243 1204.71,-128.474 1205.88,-135.374"/>
</g>
<!-- Node11 -->
<g id="node21" class="node"><title>Node11</title>
<a xlink:href="material_8hpp.html" target="_top" xlink:title="material.hpp">
<polygon fill="white" stroke="black" points="144,-56.5 144,-75.5 216,-75.5 216,-56.5 144,-56.5"/>
<text text-anchor="middle" x="180" y="-62.5" font-family="FreeSans" font-size="10.00">material.hpp</text>
</a>
</g>
<!-- Node10&#45;&gt;Node11 -->
<g id="edge20" class="edge"><title>Node10&#45;&gt;Node11</title>
<path fill="none" stroke="midnightblue" d="M496.996,-114.496C492.292,-113.616 487.538,-112.761 483,-112 371.939,-93.3776 340.632,-96.388 226.154,-76.0957"/>
<polygon fill="midnightblue" stroke="midnightblue" points="226.76,-72.6484 216.299,-74.328 225.524,-79.5385 226.76,-72.6484"/>
</g>
<!-- Node12 -->
<g id="node23" class="node"><title>Node12</title>
<a xlink:href="aux__vis_8hpp.html" target="_top" xlink:title="aux_vis.hpp">
<polygon fill="white" stroke="black" points="355.5,-56.5 355.5,-75.5 424.5,-75.5 424.5,-56.5 355.5,-56.5"/>
<text text-anchor="middle" x="390" y="-62.5" font-family="FreeSans" font-size="10.00">aux_vis.hpp</text>
</a>
</g>
<!-- Node10&#45;&gt;Node12 -->
<g id="edge22" class="edge"><title>Node10&#45;&gt;Node12</title>
<path fill="none" stroke="midnightblue" d="M509.246,-112.373C485.715,-103.223 450.131,-89.3844 423.957,-79.2057"/>
<polygon fill="midnightblue" stroke="midnightblue" points="425.02,-75.8636 414.431,-75.5011 422.483,-82.3877 425.02,-75.8636"/>
</g>
<!-- Node18 -->
<g id="node35" class="node"><title>Node18</title>
<a xlink:href="openglvis_8hpp.html" target="_top" xlink:title="openglvis.hpp">
<polygon fill="white" stroke="black" points="278,-0.5 278,-19.5 356,-19.5 356,-0.5 278,-0.5"/>
<text text-anchor="middle" x="317" y="-6.5" font-family="FreeSans" font-size="10.00">openglvis.hpp</text>
</a>
</g>
<!-- Node10&#45;&gt;Node18 -->
<g id="edge36" class="edge"><title>Node10&#45;&gt;Node18</title>
<path fill="none" stroke="midnightblue" d="M496.977,-114.699C445.837,-104.342 358.545,-85.5811 347,-76 332.815,-64.2284 325.042,-44.3251 320.986,-29.4466"/>
<polygon fill="midnightblue" stroke="midnightblue" points="324.383,-28.6003 318.652,-19.6891 317.575,-30.229 324.383,-28.6003"/>
</g>
<!-- Node19 -->
<g id="node38" class="node"><title>Node19</title>
<a xlink:href="vsdata_8hpp.html" target="_top" xlink:title="vsdata.hpp">
<polygon fill="white" stroke="black" points="234,-56.5 234,-75.5 300,-75.5 300,-56.5 234,-56.5"/>
<text text-anchor="middle" x="267" y="-62.5" font-family="FreeSans" font-size="10.00">vsdata.hpp</text>
</a>
</g>
<!-- Node10&#45;&gt;Node19 -->
<g id="edge38" class="edge"><title>Node10&#45;&gt;Node19</title>
<path fill="none" stroke="midnightblue" d="M496.622,-114.226C452.844,-105.112 378.143,-89.5295 314,-76 312.737,-75.7337 311.456,-75.463 310.162,-75.1895"/>
<polygon fill="midnightblue" stroke="midnightblue" points="310.629,-71.7109 300.121,-73.0623 309.178,-78.5589 310.629,-71.7109"/>
</g>
<!-- Node20 -->
<g id="node42" class="node"><title>Node20</title>
<a xlink:href="vssolution_8hpp.html" target="_top" xlink:title="vssolution.hpp">
<polygon fill="white" stroke="black" points="441.5,-56.5 441.5,-75.5 522.5,-75.5 522.5,-56.5 441.5,-56.5"/>
<text text-anchor="middle" x="482" y="-62.5" font-family="FreeSans" font-size="10.00">vssolution.hpp</text>
</a>
</g>
<!-- Node10&#45;&gt;Node20 -->
<g id="edge44" class="edge"><title>Node10&#45;&gt;Node20</title>
<path fill="none" stroke="midnightblue" d="M524.942,-112.246C517.486,-104.216 506.737,-92.6394 497.858,-83.0781"/>
<polygon fill="midnightblue" stroke="midnightblue" points="500.323,-80.589 490.954,-75.6427 495.194,-85.3522 500.323,-80.589"/>
</g>
<!-- Node21 -->
<g id="node44" class="node"><title>Node21</title>
<a xlink:href="vssolution3d_8hpp.html" target="_top" xlink:title="vssolution3d.hpp">
<polygon fill="white" stroke="black" points="540,-56.5 540,-75.5 632,-75.5 632,-56.5 540,-56.5"/>
<text text-anchor="middle" x="586" y="-62.5" font-family="FreeSans" font-size="10.00">vssolution3d.hpp</text>
</a>
</g>
<!-- Node10&#45;&gt;Node21 -->
<g id="edge46" class="edge"><title>Node10&#45;&gt;Node21</title>
<path fill="none" stroke="midnightblue" d="M543.058,-112.246C550.514,-104.216 561.263,-92.6394 570.142,-83.0781"/>
<polygon fill="midnightblue" stroke="midnightblue" points="572.806,-85.3522 577.046,-75.6427 567.677,-80.589 572.806,-85.3522"/>
</g>
<!-- Node22 -->
<g id="node46" class="node"><title>Node22</title>
<a xlink:href="vsvector_8hpp.html" target="_top" xlink:title="vsvector.hpp">
<polygon fill="white" stroke="black" points="649.5,-56.5 649.5,-75.5 722.5,-75.5 722.5,-56.5 649.5,-56.5"/>
<text text-anchor="middle" x="686" y="-62.5" font-family="FreeSans" font-size="10.00">vsvector.hpp</text>
</a>
</g>
<!-- Node10&#45;&gt;Node22 -->
<g id="edge48" class="edge"><title>Node10&#45;&gt;Node22</title>
<path fill="none" stroke="midnightblue" d="M560.13,-112.373C585.077,-103.182 622.859,-89.2624 650.521,-79.0713"/>
<polygon fill="midnightblue" stroke="midnightblue" points="652.038,-82.2424 660.211,-75.5011 649.618,-75.674 652.038,-82.2424"/>
</g>
<!-- Node23 -->
<g id="node48" class="node"><title>Node23</title>
<a xlink:href="vsvector3d_8hpp.html" target="_top" xlink:title="vsvector3d.hpp">
<polygon fill="white" stroke="black" points="739.5,-56.5 739.5,-75.5 824.5,-75.5 824.5,-56.5 739.5,-56.5"/>
<text text-anchor="middle" x="782" y="-62.5" font-family="FreeSans" font-size="10.00">vsvector3d.hpp</text>
</a>
</g>
<!-- Node10&#45;&gt;Node23 -->
<g id="edge50" class="edge"><title>Node10&#45;&gt;Node23</title>
<path fill="none" stroke="midnightblue" d="M571.128,-113.616C613.263,-104.102 682.29,-88.5152 729.825,-77.7814"/>
<polygon fill="midnightblue" stroke="midnightblue" points="730.641,-81.1853 739.625,-75.5686 729.1,-74.3572 730.641,-81.1853"/>
</g>
<!-- Node24 -->
<g id="node50" class="node"><title>Node24</title>
<a xlink:href="threads_8hpp.html" target="_top" xlink:title="threads.hpp">
<polygon fill="white" stroke="black" points="57.5,-56.5 57.5,-75.5 126.5,-75.5 126.5,-56.5 57.5,-56.5"/>
<text text-anchor="middle" x="92" y="-62.5" font-family="FreeSans" font-size="10.00">threads.hpp</text>
</a>
</g>
<!-- Node10&#45;&gt;Node24 -->
<g id="edge52" class="edge"><title>Node10&#45;&gt;Node24</title>
<path fill="none" stroke="midnightblue" d="M496.744,-114.291C492.126,-113.455 487.462,-112.667 483,-112 332.52,-89.5108 290.168,-101.134 136.916,-76.1527"/>
<polygon fill="midnightblue" stroke="midnightblue" points="137.096,-72.6349 126.659,-74.4535 135.952,-79.5408 137.096,-72.6349"/>
</g>
<!-- Node12&#45;&gt;Node13 -->
<g id="edge24" class="edge"><title>Node12&#45;&gt;Node13</title>
<path fill="none" stroke="midnightblue" d="M424.715,-57.8398C427.516,-57.2079 430.304,-56.5877 433,-56 500.547,-41.2744 579.783,-25.4877 624.215,-16.7695"/>
<polygon fill="midnightblue" stroke="midnightblue" points="625.065,-20.1696 634.206,-14.8132 623.72,-13.3001 625.065,-20.1696"/>
</g>
<!-- Node12&#45;&gt;Node14 -->
<g id="edge26" class="edge"><title>Node12&#45;&gt;Node14</title>
<path fill="none" stroke="midnightblue" d="M424.671,-57.6199C427.482,-57.0373 430.284,-56.4885 433,-56 549.579,-35.0309 689.126,-20.0012 754.606,-13.5337"/>
<polygon fill="midnightblue" stroke="midnightblue" points="755.224,-16.99 764.836,-12.5336 754.543,-10.0233 755.224,-16.99"/>
</g>
<!-- Node12&#45;&gt;Node15 -->
<g id="edge28" class="edge"><title>Node12&#45;&gt;Node15</title>
<path fill="none" stroke="midnightblue" d="M424.653,-57.5097C427.468,-56.9519 430.276,-56.4388 433,-56 607.04,-27.9684 652.975,-41.02 828,-20 837.88,-18.8135 848.548,-17.3189 858.403,-15.8496"/>
<polygon fill="midnightblue" stroke="midnightblue" points="858.953,-19.3062 868.313,-14.3414 857.9,-12.3859 858.953,-19.3062"/>
</g>
<!-- Node16 -->
<g id="node31" class="node"><title>Node16</title>
<polygon fill="white" stroke="#bfbfbf" points="373.5,-0.5 373.5,-19.5 406.5,-19.5 406.5,-0.5 373.5,-0.5"/>
<text text-anchor="middle" x="390" y="-6.5" font-family="FreeSans" font-size="10.00">tk.h</text>
</g>
<!-- Node12&#45;&gt;Node16 -->
<g id="edge30" class="edge"><title>Node12&#45;&gt;Node16</title>
<path fill="none" stroke="midnightblue" d="M390,-56.2455C390,-48.9382 390,-38.6944 390,-29.7046"/>
<polygon fill="midnightblue" stroke="midnightblue" points="393.5,-29.6426 390,-19.6427 386.5,-29.6427 393.5,-29.6426"/>
</g>
<!-- Node17 -->
<g id="node33" class="node"><title>Node17</title>
<polygon fill="white" stroke="#bfbfbf" points="423.5,-0.5 423.5,-19.5 488.5,-19.5 488.5,-0.5 423.5,-0.5"/>
<text text-anchor="middle" x="456" y="-6.5" font-family="FreeSans" font-size="10.00">aux_gl.hpp</text>
</g>
<!-- Node12&#45;&gt;Node17 -->
<g id="edge32" class="edge"><title>Node12&#45;&gt;Node17</title>
<path fill="none" stroke="midnightblue" d="M401.496,-56.2455C411.244,-47.9746 425.426,-35.9416 436.88,-26.2232"/>
<polygon fill="midnightblue" stroke="midnightblue" points="439.275,-28.7813 444.635,-19.6427 434.746,-23.4437 439.275,-28.7813"/>
</g>
<!-- Node12&#45;&gt;Node18 -->
<g id="edge34" class="edge"><title>Node12&#45;&gt;Node18</title>
<path fill="none" stroke="midnightblue" d="M377.284,-56.2455C366.398,-47.8943 350.512,-35.7076 337.78,-25.9408"/>
<polygon fill="midnightblue" stroke="midnightblue" points="339.635,-22.9523 329.57,-19.6427 335.374,-28.5063 339.635,-22.9523"/>
</g>
<!-- Node19&#45;&gt;Node9 -->
<g id="edge42" class="edge"><title>Node19&#45;&gt;Node9</title>
<path fill="none" stroke="midnightblue" d="M233.99,-58.1176C230.951,-57.3989 227.919,-56.6843 225,-56 158.835,-40.4889 139.819,-37.1272 70.7304,-20.3847"/>
<polygon fill="midnightblue" stroke="midnightblue" points="71.1831,-16.8929 60.6393,-17.9308 69.5291,-23.6947 71.1831,-16.8929"/>
</g>
<!-- Node19&#45;&gt;Node18 -->
<g id="edge40" class="edge"><title>Node19&#45;&gt;Node18</title>
<path fill="none" stroke="midnightblue" d="M275.709,-56.2455C282.807,-48.2958 293.008,-36.8706 301.495,-27.3656"/>
<polygon fill="midnightblue" stroke="midnightblue" points="304.341,-29.4331 308.39,-19.6427 299.119,-24.771 304.341,-29.4331"/>
</g>
<!-- Node25 -->
<g id="node52" class="node"><title>Node25</title>
<polygon fill="white" stroke="#bfbfbf" points="78,-0.5 78,-19.5 136,-19.5 136,-0.5 78,-0.5"/>
<text text-anchor="middle" x="107" y="-6.5" font-family="FreeSans" font-size="10.00">pthread.h</text>
</g>
<!-- Node24&#45;&gt;Node25 -->
<g id="edge54" class="edge"><title>Node24&#45;&gt;Node25</title>
<path fill="none" stroke="midnightblue" d="M94.6128,-56.2455C96.5916,-48.8579 99.3744,-38.4689 101.801,-29.4087"/>
<polygon fill="midnightblue" stroke="midnightblue" points="105.211,-30.2078 104.417,-19.6427 98.4489,-28.3966 105.211,-30.2078"/>
</g>
</g>
</svg>
        <g id="navigator" transform="translate(0 0)" fill="#404254">
                <rect fill="#f2f5e9" fill-opacity="0.5" stroke="#606060" stroke-width=".5" x="0" y="0" width="60" height="60"/>
                <use id="zoomplus" xlink:href="#zoomPlus" x="17" y="9" onmousedown="handleZoom(evt,'in')"/>
                <use id="zoomminus" xlink:href="#zoomMin" x="42" y="9" onmousedown="handleZoom(evt,'out')"/>
                <use id="reset" xlink:href="#resetDef" x="30" y="36" onmousedown="handleReset()"/>
                <g id="arrowUp" xlink:href="#dirArrow" transform="translate(30 24)" onmousedown="handlePan(0,-1)">
                  <use xlink:href="#rim" fill="#404040">
                        <set attributeName="fill" to="#808080" begin="arrowUp.mouseover" end="arrowUp.mouseout"/>
                  </use>
                  <path fill="none" stroke="white" stroke-width="1.5" d="M0,-3.0v7 M-2.5,-0.5L0,-3.0L2.5,-0.5"/>
                </g>
                <g id="arrowRight" xlink:href="#dirArrow" transform="rotate(90) translate(36 -43)" onmousedown="handlePan(1,0)">
                  <use xlink:href="#rim" fill="#404040">
                        <set attributeName="fill" to="#808080" begin="arrowRight.mouseover" end="arrowRight.mouseout"/>
                  </use>
                  <path fill="none" stroke="white" stroke-width="1.5" d="M0,-3.0v7 M-2.5,-0.5L0,-3.0L2.5,-0.5"/>
                </g>
                <g id="arrowDown" xlink:href="#dirArrow" transform="rotate(180) translate(-30 -48)" onmousedown="handlePan(0,1)">
                  <use xlink:href="#rim" fill="#404040">
                        <set attributeName="fill" to="#808080" begin="arrowDown.mouseover" end="arrowDown.mouseout"/>
                  </use>
                  <path fill="none" stroke="white" stroke-width="1.5" d="M0,-3.0v7 M-2.5,-0.5L0,-3.0L2.5,-0.5"/>
                </g>
                <g id="arrowLeft" xlink:href="#dirArrow" transform="rotate(270) translate(-36 17)" onmousedown="handlePan(-1,0)">
                  <use xlink:href="#rim" fill="#404040">
                        <set attributeName="fill" to="#808080" begin="arrowLeft.mouseover" end="arrowLeft.mouseout"/>
                  </use>
                  <path fill="none" stroke="white" stroke-width="1.5" d="M0,-3.0v7 M-2.5,-0.5L0,-3.0L2.5,-0.5"/>
                </g>
        </g>
</svg>
