<?xml version="1.0" encoding="UTF-8" standalone="no"?>
<!DOCTYPE svg PUBLIC "-//W3C//DTD SVG 1.1//EN"
 "http://www.w3.org/Graphics/SVG/1.1/DTD/svg11.dtd">
<!-- Generated by graphviz version 2.44.1 (20200629.0846)
 -->
<!-- Title: Graph Legend Pages: 1 -->
<svg width="626pt" height="179pt"
 viewBox="0.00 0.00 626.00 179.00" xmlns="http://www.w3.org/2000/svg" xmlns:xlink="http://www.w3.org/1999/xlink">
<g id="graph0" class="graph" transform="scale(1 1) rotate(0) translate(4 175)">
<title>Graph Legend</title>
<polygon fill="white" stroke="transparent" points="-4,4 -4,-175 622,-175 622,4 -4,4"/>
<!-- Node9 -->
<g id="node1" class="node">
<title>Node9</title>
<polygon fill="#bfbfbf" stroke="black" points="362.5,-23 293.5,-23 293.5,0 362.5,0 362.5,-23"/>
<text text-anchor="middle" x="328" y="-7.8" font-family="Helvetica,sans-Serif" font-size="14.00">Inherited</text>
</g>
<!-- Node10 -->
<g id="node2" class="node">
<title>Node10</title>
<polygon fill="none" stroke="black" points="84,-97 0,-97 0,-74 84,-74 84,-97"/>
<text text-anchor="middle" x="42" y="-81.8" font-family="Helvetica,sans-Serif" font-size="14.00">PublicBase</text>
</g>
<!-- Node10&#45;&gt;Node9 -->
<g id="edge1" class="edge">
<title>Node10&#45;&gt;Node9</title>
<path fill="none" stroke="midnightblue" d="M93.92,-71.43C151.7,-56.88 243.46,-33.78 293.19,-21.26"/>
<polygon fill="midnightblue" stroke="midnightblue" points="92.74,-68.12 83.89,-73.95 94.45,-74.91 92.74,-68.12"/>
</g>
<!-- Node11 -->
<g id="node3" class="node">
<title>Node11</title>
<polygon fill="none" stroke="red" points="80.5,-171 3.5,-171 3.5,-148 80.5,-148 80.5,-171"/>
<text text-anchor="middle" x="42" y="-155.8" font-family="Helvetica,sans-Serif" font-size="14.00">Truncated</text>
</g>
<!-- Node11&#45;&gt;Node10 -->
<g id="edge2" class="edge">
<title>Node11&#45;&gt;Node10</title>
<path fill="none" stroke="midnightblue" d="M42,-137.73C42,-124.47 42,-107.82 42,-97.17"/>
<polygon fill="midnightblue" stroke="midnightblue" points="38.5,-137.88 42,-147.88 45.5,-137.88 38.5,-137.88"/>
</g>
<!-- Node13 -->
<g id="node4" class="node">
<title>Node13</title>
<polygon fill="none" stroke="black" points="207.5,-97 102.5,-97 102.5,-74 207.5,-74 207.5,-97"/>
<text text-anchor="middle" x="155" y="-81.8" font-family="Helvetica,sans-Serif" font-size="14.00">ProtectedBase</text>
</g>
<!-- Node13&#45;&gt;Node9 -->
<g id="edge3" class="edge">
<title>Node13&#45;&gt;Node9</title>
<path fill="none" stroke="darkgreen" d="M189.91,-69.97C223.31,-56.07 272.87,-35.44 302.65,-23.05"/>
<polygon fill="darkgreen" stroke="darkgreen" points="188.41,-66.8 180.53,-73.88 191.1,-73.27 188.41,-66.8"/>
</g>
<!-- Node14 -->
<g id="node5" class="node">
<title>Node14</title>
<polygon fill="none" stroke="black" points="314.5,-97 225.5,-97 225.5,-74 314.5,-74 314.5,-97"/>
<text text-anchor="middle" x="270" y="-81.8" font-family="Helvetica,sans-Serif" font-size="14.00">PrivateBase</text>
</g>
<!-- Node14&#45;&gt;Node9 -->
<g id="edge4" class="edge">
<title>Node14&#45;&gt;Node9</title>
<path fill="none" stroke="#8b1a1a" d="M284.84,-66.08C295.79,-52.49 310.31,-34.46 319.41,-23.17"/>
<polygon fill="#8b1a1a" stroke="#8b1a1a" points="282.11,-63.89 278.56,-73.88 287.56,-68.28 282.11,-63.89"/>
</g>
<!-- Node15 -->
<g id="node6" class="node">
<title>Node15</title>
<polygon fill="none" stroke="#bfbfbf" points="441.5,-97 332.5,-97 332.5,-74 441.5,-74 441.5,-97"/>
<text text-anchor="middle" x="387" y="-81.8" font-family="Helvetica,sans-Serif" font-size="14.00">Undocumented</text>
</g>
<!-- Node15&#45;&gt;Node9 -->
<g id="edge5" class="edge">
<title>Node15&#45;&gt;Node9</title>
<path fill="none" stroke="midnightblue" d="M371.91,-66.08C360.77,-52.49 345.99,-34.46 336.74,-23.17"/>
<polygon fill="midnightblue" stroke="midnightblue" points="369.25,-68.36 378.29,-73.88 374.66,-63.92 369.25,-68.36"/>
</g>
<!-- Node16 -->
<g id="node7" class="node">
<title>Node16</title>
<polygon fill="none" stroke="black" points="552,-97 460,-97 460,-74 552,-74 552,-97"/>
<text text-anchor="middle" x="506" y="-81.8" font-family="Helvetica,sans-Serif" font-size="14.00">Templ&lt; int &gt;</text>
</g>
<!-- Node16&#45;&gt;Node9 -->
<g id="edge6" class="edge">
<title>Node16&#45;&gt;Node9</title>
<path fill="none" stroke="midnightblue" d="M470.08,-69.97C435.72,-56.07 384.72,-35.44 354.08,-23.05"/>
<polygon fill="midnightblue" stroke="midnightblue" points="469.15,-73.37 479.74,-73.88 471.78,-66.88 469.15,-73.37"/>
</g>
<!-- Node17 -->
<g id="node8" class="node">
<title>Node17</title>
<polygon fill="none" stroke="black" points="549,-171 463,-171 463,-148 549,-148 549,-171"/>
<text text-anchor="middle" x="506" y="-155.8" font-family="Helvetica,sans-Serif" font-size="14.00">Templ&lt; T &gt;</text>
</g>
<!-- Node17&#45;&gt;Node16 -->
<g id="edge7" class="edge">
<title>Node17&#45;&gt;Node16</title>
<path fill="none" stroke="orange" stroke-dasharray="5,2" d="M506,-137.73C506,-124.47 506,-107.82 506,-97.17"/>
<polygon fill="orange" stroke="orange" points="502.5,-137.88 506,-147.88 509.5,-137.88 502.5,-137.88"/>
<text text-anchor="middle" x="525.5" y="-118.8" font-family="Helvetica,sans-Serif" font-size="14.00">&lt; int &gt;</text>
</g>
<!-- Node18 -->
<g id="node9" class="node">
<title>Node18</title>
<polygon fill="none" stroke="black" points="618,-97 570,-97 570,-74 618,-74 618,-97"/>
<text text-anchor="middle" x="594" y="-81.8" font-family="Helvetica,sans-Serif" font-size="14.00">Used</text>
</g>
<!-- Node18&#45;&gt;Node9 -->
<g id="edge8" class="edge">
<title>Node18&#45;&gt;Node9</title>
<path fill="none" stroke="#9a32cd" stroke-dasharray="5,2" d="M560.18,-73.86C484.39,-51.95 406.71,-32.09 362.89,-21.13"/>
<polygon fill="#9a32cd" stroke="#9a32cd" points="559.31,-77.25 569.89,-76.68 561.27,-70.53 559.31,-77.25"/>
<text text-anchor="middle" x="531.5" y="-44.8" font-family="Helvetica,sans-Serif" font-size="14.00">m_usedClass</text>
</g>
</g>
</svg>
