<?xml version="1.0" encoding="UTF-8" standalone="no"?>
<!DOCTYPE svg PUBLIC "-//W3C//DTD SVG 1.1//EN"
 "http://www.w3.org/Graphics/SVG/1.1/DTD/svg11.dtd">
<!-- Generated by graphviz version 2.30.1 (20200304.1809)
 -->
<!-- Title: Graphical Class Hierarchy Pages: 1 -->
<svg width="936pt" height="74pt"
 viewBox="0.00 0.00 936.00 74.00" xmlns="http://www.w3.org/2000/svg" xmlns:xlink="http://www.w3.org/1999/xlink">
<g id="graph0" class="graph" transform="scale(1 1) rotate(0) translate(4 70)">
<title>Graphical Class Hierarchy</title>
<polygon fill="white" stroke="white" points="-4,5 -4,-70 933,-70 933,5 -4,5"/>
<!-- Node1 -->
<g id="node1" class="node"><title>Node1</title>
<g id="a_node1"><a xlink:href="classVisualizationScene.html" target="_top" xlink:title="VisualizationScene">
<polygon fill="white" stroke="black" points="0,-21.5 0,-44.5 150,-44.5 150,-21.5 0,-21.5"/>
<text text-anchor="middle" x="75" y="-29.3" font-family="Helvetica,sans-Serif" font-size="14.00">VisualizationScene</text>
</a>
</g>
</g>
<!-- Node2 -->
<g id="node2" class="node"><title>Node2</title>
<g id="a_node2"><a xlink:href="classVisualizationSceneScalarData.html" target="_top" xlink:title="VisualizationSceneScalarData">
<polygon fill="white" stroke="black" points="186.5,-21.5 186.5,-44.5 415.5,-44.5 415.5,-21.5 186.5,-21.5"/>
<text text-anchor="middle" x="301" y="-29.3" font-family="Helvetica,sans-Serif" font-size="14.00">VisualizationSceneScalarData</text>
</a>
</g>
</g>
<!-- Node1&#45;&gt;Node2 -->
<g id="edge1" class="edge"><title>Node1&#45;&gt;Node2</title>
<path fill="none" stroke="midnightblue" d="M160.466,-33C168.922,-33 177.6,-33 186.292,-33"/>
<polygon fill="midnightblue" stroke="midnightblue" points="160.278,-29.5001 150.278,-33 160.278,-36.5001 160.278,-29.5001"/>
</g>
<!-- Node3 -->
<g id="node3" class="node"><title>Node3</title>
<g id="a_node3"><a xlink:href="classVisualizationSceneSolution.html" target="_top" xlink:title="VisualizationSceneSolution">
<polygon fill="white" stroke="black" points="461,-42.5 461,-65.5 669,-65.5 669,-42.5 461,-42.5"/>
<text text-anchor="middle" x="565" y="-50.3" font-family="Helvetica,sans-Serif" font-size="14.00">VisualizationSceneSolution</text>
</a>
</g>
</g>
<!-- Node2&#45;&gt;Node3 -->
<g id="edge2" class="edge"><title>Node2&#45;&gt;Node3</title>
<path fill="none" stroke="midnightblue" d="M425.949,-42.9348C437.559,-43.8654 449.244,-44.802 460.636,-45.7151"/>
<polygon fill="midnightblue" stroke="midnightblue" points="426.022,-39.4295 415.774,-42.1193 425.462,-46.4072 426.022,-39.4295"/>
</g>
<!-- Node5 -->
<g id="node5" class="node"><title>Node5</title>
<g id="a_node5"><a xlink:href="classVisualizationSceneSolution3d.html" target="_top" xlink:title="VisualizationSceneSolution3d">
<polygon fill="white" stroke="black" points="452,-0.5 452,-23.5 678,-23.5 678,-0.5 452,-0.5"/>
<text text-anchor="middle" x="565" y="-8.3" font-family="Helvetica,sans-Serif" font-size="14.00">VisualizationSceneSolution3d</text>
</a>
</g>
</g>
<!-- Node2&#45;&gt;Node5 -->
<g id="edge4" class="edge"><title>Node2&#45;&gt;Node5</title>
<path fill="none" stroke="midnightblue" d="M425.949,-23.0652C434.64,-22.3685 443.373,-21.6686 451.994,-20.9776"/>
<polygon fill="midnightblue" stroke="midnightblue" points="425.462,-19.5928 415.774,-23.8807 426.022,-26.5705 425.462,-19.5928"/>
</g>
<!-- Node4 -->
<g id="node4" class="node"><title>Node4</title>
<g id="a_node4"><a xlink:href="classVisualizationSceneVector.html" target="_top" xlink:title="VisualizationSceneVector">
<polygon fill="white" stroke="black" points="723,-42.5 723,-65.5 919,-65.5 919,-42.5 723,-42.5"/>
<text text-anchor="middle" x="821" y="-50.3" font-family="Helvetica,sans-Serif" font-size="14.00">VisualizationSceneVector</text>
</a>
</g>
</g>
<!-- Node3&#45;&gt;Node4 -->
<g id="edge3" class="edge"><title>Node3&#45;&gt;Node4</title>
<path fill="none" stroke="midnightblue" d="M679.335,-54C693.884,-54 708.675,-54 722.932,-54"/>
<polygon fill="midnightblue" stroke="midnightblue" points="679.312,-50.5001 669.312,-54 679.311,-57.5001 679.312,-50.5001"/>
</g>
<!-- Node6 -->
<g id="node6" class="node"><title>Node6</title>
<g id="a_node6"><a xlink:href="classVisualizationSceneVector3d.html" target="_top" xlink:title="VisualizationSceneVector3d">
<polygon fill="white" stroke="black" points="714,-0.5 714,-23.5 928,-23.5 928,-0.5 714,-0.5"/>
<text text-anchor="middle" x="821" y="-8.3" font-family="Helvetica,sans-Serif" font-size="14.00">VisualizationSceneVector3d</text>
</a>
</g>
</g>
<!-- Node5&#45;&gt;Node6 -->
<g id="edge5" class="edge"><title>Node5&#45;&gt;Node6</title>
<path fill="none" stroke="midnightblue" d="M688.159,-12C696.707,-12 705.284,-12 713.736,-12"/>
<polygon fill="midnightblue" stroke="midnightblue" points="688.148,-8.5001 678.147,-12 688.147,-15.5001 688.148,-8.5001"/>
</g>
</g>
</svg>
