<?xml version="1.0" encoding="UTF-8" standalone="no"?>
<!DOCTYPE svg PUBLIC "-//W3C//DTD SVG 1.1//EN"
 "http://www.w3.org/Graphics/SVG/1.1/DTD/svg11.dtd">
<!-- Generated by graphviz version 2.44.1 (20200629.0846)
 -->
<!-- Title: Graphical Class Hierarchy Pages: 1 -->
<svg width="823pt" height="74pt"
 viewBox="0.00 0.00 823.00 74.00" xmlns="http://www.w3.org/2000/svg" xmlns:xlink="http://www.w3.org/1999/xlink">
<g id="graph0" class="graph" transform="scale(1 1) rotate(0) translate(4 70)">
<title>Graphical Class Hierarchy</title>
<polygon fill="white" stroke="transparent" points="-4,4 -4,-70 819,-70 819,4 -4,4"/>
<!-- Node0 -->
<g id="node1" class="node">
<title>Node0</title>
<g id="a_node1"><a xlink:href="classVisualizationScene.html" target="_top" xlink:title=" ">
<polygon fill="white" stroke="black" points="0,-21.5 0,-44.5 131,-44.5 131,-21.5 0,-21.5"/>
<text text-anchor="middle" x="65.5" y="-29.3" font-family="Helvetica,sans-Serif" font-size="14.00">VisualizationScene</text>
</a>
</g>
</g>
<!-- Node1 -->
<g id="node2" class="node">
<title>Node1</title>
<g id="a_node2"><a xlink:href="classVisualizationSceneScalarData.html" target="_top" xlink:title=" ">
<polygon fill="white" stroke="black" points="167,-21.5 167,-44.5 364,-44.5 364,-21.5 167,-21.5"/>
<text text-anchor="middle" x="265.5" y="-29.3" font-family="Helvetica,sans-Serif" font-size="14.00">VisualizationSceneScalarData</text>
</a>
</g>
</g>
<!-- Node0&#45;&gt;Node1 -->
<g id="edge1" class="edge">
<title>Node0&#45;&gt;Node1</title>
<path fill="none" stroke="midnightblue" d="M141.2,-33C149.63,-33 158.31,-33 166.98,-33"/>
<polygon fill="midnightblue" stroke="midnightblue" points="141.06,-29.5 131.06,-33 141.06,-36.5 141.06,-29.5"/>
</g>
<!-- Node2 -->
<g id="node3" class="node">
<title>Node2</title>
<g id="a_node3"><a xlink:href="classVisualizationSceneSolution.html" target="_top" xlink:title=" ">
<polygon fill="white" stroke="black" points="407.5,-42.5 407.5,-65.5 586.5,-65.5 586.5,-42.5 407.5,-42.5"/>
<text text-anchor="middle" x="497" y="-50.3" font-family="Helvetica,sans-Serif" font-size="14.00">VisualizationSceneSolution</text>
</a>
</g>
</g>
<!-- Node1&#45;&gt;Node2 -->
<g id="edge2" class="edge">
<title>Node1&#45;&gt;Node2</title>
<path fill="none" stroke="midnightblue" d="M374.25,-42.86C385.27,-43.87 396.37,-44.88 407.16,-45.87"/>
<polygon fill="midnightblue" stroke="midnightblue" points="374.44,-39.36 364.16,-41.94 373.8,-46.33 374.44,-39.36"/>
</g>
<!-- Node4 -->
<g id="node5" class="node">
<title>Node4</title>
<g id="a_node5"><a xlink:href="classVisualizationSceneSolution3d.html" target="_top" xlink:title=" ">
<polygon fill="white" stroke="black" points="400,-0.5 400,-23.5 594,-23.5 594,-0.5 400,-0.5"/>
<text text-anchor="middle" x="497" y="-8.3" font-family="Helvetica,sans-Serif" font-size="14.00">VisualizationSceneSolution3d</text>
</a>
</g>
</g>
<!-- Node1&#45;&gt;Node4 -->
<g id="edge4" class="edge">
<title>Node1&#45;&gt;Node4</title>
<path fill="none" stroke="midnightblue" d="M374.19,-23.15C382.77,-22.36 391.4,-21.57 399.89,-20.79"/>
<polygon fill="midnightblue" stroke="midnightblue" points="373.8,-19.67 364.16,-24.06 374.44,-26.64 373.8,-19.67"/>
</g>
<!-- Node3 -->
<g id="node4" class="node">
<title>Node3</title>
<g id="a_node4"><a xlink:href="classVisualizationSceneVector.html" target="_top" xlink:title=" ">
<polygon fill="white" stroke="black" points="637.5,-42.5 637.5,-65.5 807.5,-65.5 807.5,-42.5 637.5,-42.5"/>
<text text-anchor="middle" x="722.5" y="-50.3" font-family="Helvetica,sans-Serif" font-size="14.00">VisualizationSceneVector</text>
</a>
</g>
</g>
<!-- Node2&#45;&gt;Node3 -->
<g id="edge3" class="edge">
<title>Node2&#45;&gt;Node3</title>
<path fill="none" stroke="midnightblue" d="M596.9,-54C610.39,-54 624.13,-54 637.32,-54"/>
<polygon fill="midnightblue" stroke="midnightblue" points="596.65,-50.5 586.65,-54 596.65,-57.5 596.65,-50.5"/>
</g>
<!-- Node5 -->
<g id="node6" class="node">
<title>Node5</title>
<g id="a_node6"><a xlink:href="classVisualizationSceneVector3d.html" target="_top" xlink:title=" ">
<polygon fill="white" stroke="black" points="630,-0.5 630,-23.5 815,-23.5 815,-0.5 630,-0.5"/>
<text text-anchor="middle" x="722.5" y="-8.3" font-family="Helvetica,sans-Serif" font-size="14.00">VisualizationSceneVector3d</text>
</a>
</g>
</g>
<!-- Node4&#45;&gt;Node5 -->
<g id="edge5" class="edge">
<title>Node4&#45;&gt;Node5</title>
<path fill="none" stroke="midnightblue" d="M604.11,-12C612.68,-12 621.29,-12 629.75,-12"/>
<polygon fill="midnightblue" stroke="midnightblue" points="604.08,-8.5 594.08,-12 604.08,-15.5 604.08,-8.5"/>
</g>
</g>
</svg>
