<?xml version="1.0" encoding="UTF-8" standalone="no"?>
<!DOCTYPE svg PUBLIC "-//W3C//DTD SVG 1.1//EN"
 "http://www.w3.org/Graphics/SVG/1.1/DTD/svg11.dtd">
<!-- Generated by graphviz version 2.26.3 (20100126.1600)
 -->
<!-- Title: G Pages: 1 -->
<svg width="654pt" height="66pt"
 viewBox="0.00 0.00 654.00 66.00" xmlns="http://www.w3.org/2000/svg" xmlns:xlink="http://www.w3.org/1999/xlink">
<g id="graph1" class="graph" transform="scale(1 1) rotate(0) translate(4 62)">
<title>G</title>
<polygon fill="white" stroke="white" points="-4,5 -4,-62 651,-62 651,5 -4,5"/>
<!-- Node1 -->
<g id="node1" class="node"><title>Node1</title>
<a xlink:href="classVisualizationScene.html" target="_top" xlink:title="VisualizationScene">
<polygon fill="white" stroke="black" points="0,-19.5 0,-38.5 100,-38.5 100,-19.5 0,-19.5"/>
<text text-anchor="middle" x="50" y="-25.5" font-family="FreeSans" font-size="10.00">VisualizationScene</text>
</a>
</g>
<!-- Node2 -->
<g id="node3" class="node"><title>Node2</title>
<a xlink:href="classVisualizationSceneScalarData.html" target="_top" xlink:title="VisualizationSceneScalarData">
<polygon fill="white" stroke="black" points="136,-19.5 136,-38.5 286,-38.5 286,-19.5 136,-19.5"/>
<text text-anchor="middle" x="211" y="-25.5" font-family="FreeSans" font-size="10.00">VisualizationSceneScalarData</text>
</a>
</g>
<!-- Node1&#45;&gt;Node2 -->
<g id="edge2" class="edge"><title>Node1&#45;&gt;Node2</title>
<path fill="none" stroke="midnightblue" d="M110.116,-29C118.511,-29 127.223,-29 135.853,-29"/>
<polygon fill="midnightblue" stroke="midnightblue" points="110.059,-25.5001 100.059,-29 110.059,-32.5001 110.059,-25.5001"/>
</g>
<!-- Node3 -->
<g id="node5" class="node"><title>Node3</title>
<a xlink:href="classVisualizationSceneSolution.html" target="_top" xlink:title="VisualizationSceneSolution">
<polygon fill="white" stroke="black" points="328,-38.5 328,-57.5 464,-57.5 464,-38.5 328,-38.5"/>
<text text-anchor="middle" x="396" y="-44.5" font-family="FreeSans" font-size="10.00">VisualizationSceneSolution</text>
</a>
</g>
<!-- Node2&#45;&gt;Node3 -->
<g id="edge4" class="edge"><title>Node2&#45;&gt;Node3</title>
<path fill="none" stroke="midnightblue" d="M296.352,-37.7659C306.951,-38.8545 317.677,-39.956 327.967,-41.0128"/>
<polygon fill="midnightblue" stroke="midnightblue" points="296.552,-34.2681 286.247,-36.728 295.837,-41.2315 296.552,-34.2681"/>
</g>
<!-- Node5 -->
<g id="node9" class="node"><title>Node5</title>
<a xlink:href="classVisualizationSceneSolution3d.html" target="_top" xlink:title="VisualizationSceneSolution3d">
<polygon fill="white" stroke="black" points="322.5,-0.5 322.5,-19.5 469.5,-19.5 469.5,-0.5 322.5,-0.5"/>
<text text-anchor="middle" x="396" y="-6.5" font-family="FreeSans" font-size="10.00">VisualizationSceneSolution3d</text>
</a>
</g>
<!-- Node2&#45;&gt;Node5 -->
<g id="edge8" class="edge"><title>Node2&#45;&gt;Node5</title>
<path fill="none" stroke="midnightblue" d="M296.366,-20.2327C305.035,-19.3423 313.788,-18.4434 322.318,-17.5673"/>
<polygon fill="midnightblue" stroke="midnightblue" points="295.837,-16.7685 286.247,-21.272 296.552,-23.7319 295.837,-16.7685"/>
</g>
<!-- Node4 -->
<g id="node7" class="node"><title>Node4</title>
<a xlink:href="classVisualizationSceneVector.html" target="_top" xlink:title="VisualizationSceneVector">
<polygon fill="white" stroke="black" points="511.5,-38.5 511.5,-57.5 640.5,-57.5 640.5,-38.5 511.5,-38.5"/>
<text text-anchor="middle" x="576" y="-44.5" font-family="FreeSans" font-size="10.00">VisualizationSceneVector</text>
</a>
</g>
<!-- Node3&#45;&gt;Node4 -->
<g id="edge6" class="edge"><title>Node3&#45;&gt;Node4</title>
<path fill="none" stroke="midnightblue" d="M474.355,-48C486.73,-48 499.405,-48 511.421,-48"/>
<polygon fill="midnightblue" stroke="midnightblue" points="474.05,-44.5001 464.05,-48 474.05,-51.5001 474.05,-44.5001"/>
</g>
<!-- Node6 -->
<g id="node11" class="node"><title>Node6</title>
<a xlink:href="classVisualizationSceneVector3d.html" target="_top" xlink:title="VisualizationSceneVector3d">
<polygon fill="white" stroke="black" points="506,-0.5 506,-19.5 646,-19.5 646,-0.5 506,-0.5"/>
<text text-anchor="middle" x="576" y="-6.5" font-family="FreeSans" font-size="10.00">VisualizationSceneVector3d</text>
</a>
</g>
<!-- Node5&#45;&gt;Node6 -->
<g id="edge10" class="edge"><title>Node5&#45;&gt;Node6</title>
<path fill="none" stroke="midnightblue" d="M479.882,-10C488.576,-10 497.345,-10 505.865,-10"/>
<polygon fill="midnightblue" stroke="midnightblue" points="479.732,-6.5001 469.732,-10 479.732,-13.5001 479.732,-6.5001"/>
</g>
</g>
</svg>
