<?xml version="1.0" encoding="UTF-8" standalone="no"?>
<!DOCTYPE svg PUBLIC "-//W3C//DTD SVG 1.1//EN"
 "http://www.w3.org/Graphics/SVG/1.1/DTD/svg11.dtd">
<!-- Generated by graphviz version 2.44.1 (20200629.0846)
 -->
<!-- Title: Graphical Class Hierarchy Pages: 1 -->
<svg width="277pt" height="74pt"
 viewBox="0.00 0.00 277.00 74.00" xmlns="http://www.w3.org/2000/svg" xmlns:xlink="http://www.w3.org/1999/xlink">
<g id="graph0" class="graph" transform="scale(1 1) rotate(0) translate(4 70)">
<title>Graphical Class Hierarchy</title>
<polygon fill="white" stroke="transparent" points="-4,4 -4,-70 273,-70 273,4 -4,4"/>
<!-- Node0 -->
<g id="node1" class="node">
<title>Node0</title>
<g id="a_node1"><a xlink:href="classgl3_1_1GLDevice.html" target="_top" xlink:title=" ">
<polygon fill="white" stroke="black" points="0,-21.5 0,-44.5 102,-44.5 102,-21.5 0,-21.5"/>
<text text-anchor="middle" x="51" y="-29.3" font-family="Helvetica,sans-Serif" font-size="14.00">gl3::GLDevice</text>
</a>
</g>
</g>
<!-- Node1 -->
<g id="node2" class="node">
<title>Node1</title>
<g id="a_node2"><a xlink:href="classgl3_1_1CoreGLDevice.html" target="_top" xlink:title=" ">
<polygon fill="white" stroke="black" points="138,-42.5 138,-65.5 269,-65.5 269,-42.5 138,-42.5"/>
<text text-anchor="middle" x="203.5" y="-50.3" font-family="Helvetica,sans-Serif" font-size="14.00">gl3::CoreGLDevice</text>
</a>
</g>
</g>
<!-- Node0&#45;&gt;Node1 -->
<g id="edge1" class="edge">
<title>Node0&#45;&gt;Node1</title>
<path fill="none" stroke="midnightblue" d="M112.24,-41.41C120.67,-42.58 129.37,-43.8 137.88,-44.98"/>
<polygon fill="midnightblue" stroke="midnightblue" points="112.5,-37.91 102.11,-39.99 111.53,-44.84 112.5,-37.91"/>
</g>
<!-- Node2 -->
<g id="node3" class="node">
<title>Node2</title>
<g id="a_node3"><a xlink:href="classgl3_1_1FFGLDevice.html" target="_top" xlink:title=" ">
<polygon fill="white" stroke="black" points="144,-0.5 144,-23.5 263,-23.5 263,-0.5 144,-0.5"/>
<text text-anchor="middle" x="203.5" y="-8.3" font-family="Helvetica,sans-Serif" font-size="14.00">gl3::FFGLDevice</text>
</a>
</g>
</g>
<!-- Node0&#45;&gt;Node2 -->
<g id="edge2" class="edge">
<title>Node0&#45;&gt;Node2</title>
<path fill="none" stroke="midnightblue" d="M112.31,-24.58C122.67,-23.14 133.42,-21.64 143.74,-20.2"/>
<polygon fill="midnightblue" stroke="midnightblue" points="111.53,-21.16 102.11,-26.01 112.5,-28.09 111.53,-21.16"/>
</g>
</g>
</svg>
