<?xml version="1.0" encoding="UTF-8" standalone="no"?>
<!DOCTYPE svg PUBLIC "-//W3C//DTD SVG 1.1//EN"
 "http://www.w3.org/Graphics/SVG/1.1/DTD/svg11.dtd">
<!-- Generated by graphviz version 2.44.1 (20200629.0846)
 -->
<!-- Title: Graphical Class Hierarchy Pages: 1 -->
<svg width="336pt" height="92pt"
 viewBox="0.00 0.00 336.00 92.00" xmlns="http://www.w3.org/2000/svg" xmlns:xlink="http://www.w3.org/1999/xlink">
<g id="graph0" class="graph" transform="scale(1 1) rotate(0) translate(4 88)">
<title>Graphical Class Hierarchy</title>
<polygon fill="white" stroke="transparent" points="-4,4 -4,-88 332,-88 332,4 -4,4"/>
<!-- Node0 -->
<g id="node1" class="node">
<title>Node0</title>
<g id="a_node1"><a xlink:href="structgl3_1_1AttrBase.html" target="_top" xlink:title=" ">
<polygon fill="white" stroke="black" points="0,-0.5 0,-83.5 162,-83.5 162,-0.5 0,-0.5"/>
<text text-anchor="start" x="8" y="-68.3" font-family="Helvetica,sans-Serif" font-size="14.00">gl3::AttrBase&lt; TV,</text>
<text text-anchor="start" x="8" y="-53.3" font-family="Helvetica,sans-Serif" font-size="14.00"> decltype(TV::color)</text>
<text text-anchor="start" x="8" y="-38.3" font-family="Helvetica,sans-Serif" font-size="14.00">, &amp;TV::color, AttrColor</text>
<text text-anchor="start" x="8" y="-23.3" font-family="Helvetica,sans-Serif" font-size="14.00">&lt; TV, decltype((void) TV</text>
<text text-anchor="middle" x="81" y="-8.3" font-family="Helvetica,sans-Serif" font-size="14.00">::color, 0)&gt; &gt;</text>
</a>
</g>
</g>
<!-- Node1 -->
<g id="node2" class="node">
<title>Node1</title>
<g id="a_node2"><a xlink:href="structgl3_1_1AttrColor_3_01TV_00_01decltype_07_07void_08_01TV_1_1color_00_010_08_4.html" target="_top" xlink:title=" ">
<polygon fill="white" stroke="black" points="198,-15.5 198,-68.5 328,-68.5 328,-15.5 198,-15.5"/>
<text text-anchor="start" x="206" y="-53.3" font-family="Helvetica,sans-Serif" font-size="14.00">gl3::AttrColor&lt; TV,</text>
<text text-anchor="start" x="206" y="-38.3" font-family="Helvetica,sans-Serif" font-size="14.00"> decltype((void) TV</text>
<text text-anchor="middle" x="263" y="-23.3" font-family="Helvetica,sans-Serif" font-size="14.00">::color, 0)&gt;</text>
</a>
</g>
</g>
<!-- Node0&#45;&gt;Node1 -->
<g id="edge1" class="edge">
<title>Node0&#45;&gt;Node1</title>
<path fill="none" stroke="midnightblue" d="M172.34,-42C180.95,-42 189.54,-42 197.82,-42"/>
<polygon fill="midnightblue" stroke="midnightblue" points="172.26,-38.5 162.26,-42 172.26,-45.5 172.26,-38.5"/>
</g>
</g>
</svg>
