<?xml version="1.0" encoding="UTF-8" standalone="no"?>
<!DOCTYPE svg PUBLIC "-//W3C//DTD SVG 1.1//EN"
 "http://www.w3.org/Graphics/SVG/1.1/DTD/svg11.dtd">
<!-- Generated by graphviz version 2.30.1 (20200304.1809)
 -->
<!-- Title: Graphical Class Hierarchy Pages: 1 -->
<svg width="310pt" height="74pt"
 viewBox="0.00 0.00 310.00 74.00" xmlns="http://www.w3.org/2000/svg" xmlns:xlink="http://www.w3.org/1999/xlink">
<g id="graph0" class="graph" transform="scale(1 1) rotate(0) translate(4 70)">
<title>Graphical Class Hierarchy</title>
<polygon fill="white" stroke="white" points="-4,5 -4,-70 307,-70 307,5 -4,5"/>
<!-- Node1 -->
<g id="node1" class="node"><title>Node1</title>
<g id="a_node1"><a xlink:href="classgl3_1_1GLDevice.html" target="_top" xlink:title="gl3::GLDevice">
<polygon fill="white" stroke="black" points="0,-21.5 0,-44.5 116,-44.5 116,-21.5 0,-21.5"/>
<text text-anchor="middle" x="58" y="-29.3" font-family="Helvetica,sans-Serif" font-size="14.00">gl3::GLDevice</text>
</a>
</g>
</g>
<!-- Node2 -->
<g id="node2" class="node"><title>Node2</title>
<g id="a_node2"><a xlink:href="classgl3_1_1CoreGLDevice.html" target="_top" xlink:title="gl3::CoreGLDevice">
<polygon fill="white" stroke="black" points="152.5,-42.5 152.5,-65.5 301.5,-65.5 301.5,-42.5 152.5,-42.5"/>
<text text-anchor="middle" x="227" y="-50.3" font-family="Helvetica,sans-Serif" font-size="14.00">gl3::CoreGLDevice</text>
</a>
</g>
</g>
<!-- Node1&#45;&gt;Node2 -->
<g id="edge1" class="edge"><title>Node1&#45;&gt;Node2</title>
<path fill="none" stroke="midnightblue" d="M126.051,-41.4316C134.726,-42.5225 143.648,-43.6443 152.421,-44.7475"/>
<polygon fill="midnightblue" stroke="midnightblue" points="126.363,-37.9434 116.005,-40.1683 125.49,-44.8887 126.363,-37.9434"/>
</g>
<!-- Node3 -->
<g id="node3" class="node"><title>Node3</title>
<g id="a_node3"><a xlink:href="classgl3_1_1FFGLDevice.html" target="_top" xlink:title="gl3::FFGLDevice">
<polygon fill="white" stroke="black" points="161,-0.5 161,-23.5 293,-23.5 293,-0.5 161,-0.5"/>
<text text-anchor="middle" x="227" y="-8.3" font-family="Helvetica,sans-Serif" font-size="14.00">gl3::FFGLDevice</text>
</a>
</g>
</g>
<!-- Node1&#45;&gt;Node3 -->
<g id="edge2" class="edge"><title>Node1&#45;&gt;Node3</title>
<path fill="none" stroke="midnightblue" d="M125.99,-24.5761C137.506,-23.1279 149.459,-21.6249 160.924,-20.1832"/>
<polygon fill="midnightblue" stroke="midnightblue" points="125.49,-21.1113 116.005,-25.8317 126.363,-28.0566 125.49,-21.1113"/>
</g>
</g>
</svg>
