<?xml version="1.0" encoding="UTF-8" standalone="no"?>
<!DOCTYPE svg PUBLIC "-//W3C//DTD SVG 1.1//EN"
 "http://www.w3.org/Graphics/SVG/1.1/DTD/svg11.dtd">
<!-- Generated by graphviz version 2.44.1 (20200629.0846)
 -->
<!-- Title: Graphical Class Hierarchy Pages: 1 -->
<svg width="279pt" height="218pt"
 viewBox="0.00 0.00 279.00 218.00" xmlns="http://www.w3.org/2000/svg" xmlns:xlink="http://www.w3.org/1999/xlink">
<g id="graph0" class="graph" transform="scale(1 1) rotate(0) translate(4 214)">
<title>Graphical Class Hierarchy</title>
<polygon fill="white" stroke="transparent" points="-4,4 -4,-214 275,-214 275,4 -4,4"/>
<!-- Node0 -->
<g id="node1" class="node">
<title>Node0</title>
<g id="a_node1"><a xlink:href="structgl3_1_1AttrNone.html" target="_top" xlink:title=" ">
<polygon fill="white" stroke="black" points="0,-93 0,-116 95,-116 95,-93 0,-93"/>
<text text-anchor="middle" x="47.5" y="-100.8" font-family="Helvetica,sans-Serif" font-size="14.00">gl3::AttrNone</text>
</a>
</g>
</g>
<!-- Node1 -->
<g id="node2" class="node">
<title>Node1</title>
<g id="a_node2"><a xlink:href="structgl3_1_1AttrColor.html" target="_top" xlink:title=" ">
<polygon fill="white" stroke="black" points="137,-171.5 137,-209.5 265,-209.5 265,-171.5 137,-171.5"/>
<text text-anchor="start" x="145" y="-194.3" font-family="Helvetica,sans-Serif" font-size="14.00">gl3::AttrColor&lt; TV,</text>
<text text-anchor="middle" x="201" y="-179.3" font-family="Helvetica,sans-Serif" font-size="14.00"> typename &gt;</text>
</a>
</g>
</g>
<!-- Node0&#45;&gt;Node1 -->
<g id="edge1" class="edge">
<title>Node0&#45;&gt;Node1</title>
<path fill="none" stroke="midnightblue" d="M70.98,-122.41C87.08,-134.7 109.6,-150.83 131,-162.5 136.79,-165.66 143.01,-168.67 149.26,-171.46"/>
<polygon fill="midnightblue" stroke="midnightblue" points="72.8,-119.39 62.75,-116.03 68.51,-124.93 72.8,-119.39"/>
</g>
<!-- Node2 -->
<g id="node3" class="node">
<title>Node2</title>
<g id="a_node3"><a xlink:href="structgl3_1_1AttrCoord.html" target="_top" xlink:title=" ">
<polygon fill="white" stroke="black" points="135,-114.5 135,-152.5 267,-152.5 267,-114.5 135,-114.5"/>
<text text-anchor="start" x="143" y="-137.3" font-family="Helvetica,sans-Serif" font-size="14.00">gl3::AttrCoord&lt; TV,</text>
<text text-anchor="middle" x="201" y="-122.3" font-family="Helvetica,sans-Serif" font-size="14.00"> typename &gt;</text>
</a>
</g>
</g>
<!-- Node0&#45;&gt;Node2 -->
<g id="edge2" class="edge">
<title>Node0&#45;&gt;Node2</title>
<path fill="none" stroke="midnightblue" d="M105.09,-115.33C114.78,-117.19 124.91,-119.13 134.8,-121.02"/>
<polygon fill="midnightblue" stroke="midnightblue" points="105.67,-111.88 95.19,-113.44 104.35,-118.76 105.67,-111.88"/>
</g>
<!-- Node3 -->
<g id="node4" class="node">
<title>Node3</title>
<g id="a_node4"><a xlink:href="structgl3_1_1AttrNormal.html" target="_top" xlink:title=" ">
<polygon fill="white" stroke="black" points="131,-57.5 131,-95.5 271,-95.5 271,-57.5 131,-57.5"/>
<text text-anchor="start" x="139" y="-80.3" font-family="Helvetica,sans-Serif" font-size="14.00">gl3::AttrNormal&lt; TV,</text>
<text text-anchor="middle" x="201" y="-65.3" font-family="Helvetica,sans-Serif" font-size="14.00"> typename &gt;</text>
</a>
</g>
</g>
<!-- Node0&#45;&gt;Node3 -->
<g id="edge3" class="edge">
<title>Node0&#45;&gt;Node3</title>
<path fill="none" stroke="midnightblue" d="M105.22,-94.02C113.6,-92.47 122.31,-90.86 130.91,-89.27"/>
<polygon fill="midnightblue" stroke="midnightblue" points="104.39,-90.61 95.19,-95.87 105.66,-97.49 104.39,-90.61"/>
</g>
<!-- Node4 -->
<g id="node5" class="node">
<title>Node4</title>
<g id="a_node5"><a xlink:href="structgl3_1_1AttrTexcoord.html" target="_top" xlink:title=" ">
<polygon fill="white" stroke="black" points="138,-0.5 138,-38.5 264,-38.5 264,-0.5 138,-0.5"/>
<text text-anchor="start" x="146" y="-23.3" font-family="Helvetica,sans-Serif" font-size="14.00">gl3::AttrTexcoord&lt;</text>
<text text-anchor="middle" x="201" y="-8.3" font-family="Helvetica,sans-Serif" font-size="14.00"> TV, typename &gt;</text>
</a>
</g>
</g>
<!-- Node0&#45;&gt;Node4 -->
<g id="edge4" class="edge">
<title>Node0&#45;&gt;Node4</title>
<path fill="none" stroke="midnightblue" d="M72,-86.7C88.09,-74.98 110.2,-59.78 131,-48.5 137.4,-45.03 144.3,-41.69 151.17,-38.59"/>
<polygon fill="midnightblue" stroke="midnightblue" points="69.7,-84.05 63.73,-92.8 73.86,-89.68 69.7,-84.05"/>
</g>
</g>
</svg>
