<?xml version="1.0" encoding="UTF-8" standalone="no"?>
<!DOCTYPE svg PUBLIC "-//W3C//DTD SVG 1.1//EN"
 "http://www.w3.org/Graphics/SVG/1.1/DTD/svg11.dtd">
<!-- Generated by graphviz version 2.44.1 (20200629.0846)
 -->
<!-- Title: Graphical Class Hierarchy Pages: 1 -->
<svg width="295pt" height="74pt"
 viewBox="0.00 0.00 295.00 74.00" xmlns="http://www.w3.org/2000/svg" xmlns:xlink="http://www.w3.org/1999/xlink">
<g id="graph0" class="graph" transform="scale(1 1) rotate(0) translate(4 70)">
<title>Graphical Class Hierarchy</title>
<polygon fill="white" stroke="transparent" points="-4,4 -4,-70 291,-70 291,4 -4,4"/>
<!-- Node0 -->
<g id="node1" class="node">
<title>Node0</title>
<g id="a_node1"><a xlink:href="classSdlNativePlatform.html" target="_top" xlink:title=" ">
<polygon fill="white" stroke="black" points="0,-21.5 0,-44.5 125,-44.5 125,-21.5 0,-21.5"/>
<text text-anchor="middle" x="62.5" y="-29.3" font-family="Helvetica,sans-Serif" font-size="14.00">SdlNativePlatform</text>
</a>
</g>
</g>
<!-- Node1 -->
<g id="node2" class="node">
<title>Node1</title>
<g id="a_node2"><a xlink:href="classSdlCocoaPlatform.html" target="_top" xlink:title=" ">
<polygon fill="white" stroke="black" points="161,-42.5 161,-65.5 287,-65.5 287,-42.5 161,-42.5"/>
<text text-anchor="middle" x="224" y="-50.3" font-family="Helvetica,sans-Serif" font-size="14.00">SdlCocoaPlatform</text>
</a>
</g>
</g>
<!-- Node0&#45;&gt;Node1 -->
<g id="edge1" class="edge">
<title>Node0&#45;&gt;Node1</title>
<path fill="none" stroke="midnightblue" d="M135.19,-42.44C143.79,-43.57 152.52,-44.72 160.97,-45.83"/>
<polygon fill="midnightblue" stroke="midnightblue" points="135.54,-38.95 125.17,-41.12 134.62,-45.89 135.54,-38.95"/>
</g>
<!-- Node2 -->
<g id="node3" class="node">
<title>Node2</title>
<g id="a_node3"><a xlink:href="classSdlX11Platform.html" target="_top" xlink:title=" ">
<polygon fill="white" stroke="black" points="168.5,-0.5 168.5,-23.5 279.5,-23.5 279.5,-0.5 168.5,-0.5"/>
<text text-anchor="middle" x="224" y="-8.3" font-family="Helvetica,sans-Serif" font-size="14.00">SdlX11Platform</text>
</a>
</g>
</g>
<!-- Node0&#45;&gt;Node2 -->
<g id="edge2" class="edge">
<title>Node0&#45;&gt;Node2</title>
<path fill="none" stroke="midnightblue" d="M135.26,-23.55C146.34,-22.09 157.63,-20.61 168.26,-19.21"/>
<polygon fill="midnightblue" stroke="midnightblue" points="134.62,-20.11 125.17,-24.88 135.54,-27.05 134.62,-20.11"/>
</g>
</g>
</svg>
