<?xml version="1.0" encoding="UTF-8" standalone="no"?>
<!DOCTYPE svg PUBLIC "-//W3C//DTD SVG 1.1//EN"
 "http://www.w3.org/Graphics/SVG/1.1/DTD/svg11.dtd">
<!-- Generated by graphviz version 2.26.3 (20100126.1600)
 -->
<!-- Title: Graphical Class Hierarchy Pages: 1 -->
<svg width="842pt" height="74pt"
 viewBox="0.00 0.00 842.00 74.00" xmlns="http://www.w3.org/2000/svg" xmlns:xlink="http://www.w3.org/1999/xlink">
<g id="graph1" class="graph" transform="scale(1 1) rotate(0) translate(4 70)">
<title>Graphical Class Hierarchy</title>
<polygon fill="white" stroke="white" points="-4,5 -4,-70 839,-70 839,5 -4,5"/>
<!-- Node1 -->
<g id="node1" class="node"><title>Node1</title>
<a xlink:href="classVisualizationScene.html" target="_top" xlink:title="VisualizationScene">
<polygon fill="white" stroke="black" points="0,-21 0,-45 134,-45 134,-21 0,-21"/>
<text text-anchor="middle" x="67" y="-28.4" font-family="Helvetica,sans-Serif" font-size="14.00">VisualizationScene</text>
</a>
</g>
<!-- Node2 -->
<g id="node3" class="node"><title>Node2</title>
<a xlink:href="classVisualizationSceneScalarData.html" target="_top" xlink:title="VisualizationSceneScalarData">
<polygon fill="white" stroke="black" points="170.5,-21 170.5,-45 373.5,-45 373.5,-21 170.5,-21"/>
<text text-anchor="middle" x="272" y="-28.4" font-family="Helvetica,sans-Serif" font-size="14.00">VisualizationSceneScalarData</text>
</a>
</g>
<!-- Node1&#45;&gt;Node2 -->
<g id="edge2" class="edge"><title>Node1&#45;&gt;Node2</title>
<path fill="none" stroke="midnightblue" d="M144.304,-33C152.763,-33 161.465,-33 170.162,-33"/>
<polygon fill="midnightblue" stroke="midnightblue" points="144.125,-29.5001 134.125,-33 144.125,-36.5001 144.125,-29.5001"/>
</g>
<!-- Node3 -->
<g id="node5" class="node"><title>Node3</title>
<a xlink:href="classVisualizationSceneSolution.html" target="_top" xlink:title="VisualizationSceneSolution">
<polygon fill="white" stroke="black" points="418,-42 418,-66 602,-66 602,-42 418,-42"/>
<text text-anchor="middle" x="510" y="-49.4" font-family="Helvetica,sans-Serif" font-size="14.00">VisualizationSceneSolution</text>
</a>
</g>
<!-- Node2&#45;&gt;Node3 -->
<g id="edge4" class="edge"><title>Node2&#45;&gt;Node3</title>
<path fill="none" stroke="midnightblue" d="M383.63,-42.8497C395.055,-43.8578 406.571,-44.8739 417.754,-45.8607"/>
<polygon fill="midnightblue" stroke="midnightblue" points="383.893,-39.3594 373.624,-41.9668 383.277,-46.3323 383.893,-39.3594"/>
</g>
<!-- Node5 -->
<g id="node9" class="node"><title>Node5</title>
<a xlink:href="classVisualizationSceneSolution3d.html" target="_top" xlink:title="VisualizationSceneSolution3d">
<polygon fill="white" stroke="black" points="410,-0 410,-24 610,-24 610,-0 410,-0"/>
<text text-anchor="middle" x="510" y="-7.4" font-family="Helvetica,sans-Serif" font-size="14.00">VisualizationSceneSolution3d</text>
</a>
</g>
<!-- Node2&#45;&gt;Node5 -->
<g id="edge8" class="edge"><title>Node2&#45;&gt;Node5</title>
<path fill="none" stroke="midnightblue" d="M383.797,-23.1356C392.493,-22.3683 401.24,-21.5965 409.852,-20.8366"/>
<polygon fill="midnightblue" stroke="midnightblue" points="383.277,-19.6677 373.624,-24.0332 383.893,-26.6406 383.277,-19.6677"/>
</g>
<!-- Node4 -->
<g id="node7" class="node"><title>Node4</title>
<a xlink:href="classVisualizationSceneVector.html" target="_top" xlink:title="VisualizationSceneVector">
<polygon fill="white" stroke="black" points="653.5,-42 653.5,-66 826.5,-66 826.5,-42 653.5,-42"/>
<text text-anchor="middle" x="740" y="-49.4" font-family="Helvetica,sans-Serif" font-size="14.00">VisualizationSceneVector</text>
</a>
</g>
<!-- Node3&#45;&gt;Node4 -->
<g id="edge6" class="edge"><title>Node3&#45;&gt;Node4</title>
<path fill="none" stroke="midnightblue" d="M612.577,-54C626.192,-54 640.042,-54 653.352,-54"/>
<polygon fill="midnightblue" stroke="midnightblue" points="612.225,-50.5001 602.225,-54 612.225,-57.5001 612.225,-50.5001"/>
</g>
<!-- Node6 -->
<g id="node11" class="node"><title>Node6</title>
<a xlink:href="classVisualizationSceneVector3d.html" target="_top" xlink:title="VisualizationSceneVector3d">
<polygon fill="white" stroke="black" points="646,-0 646,-24 834,-24 834,-0 646,-0"/>
<text text-anchor="middle" x="740" y="-7.4" font-family="Helvetica,sans-Serif" font-size="14.00">VisualizationSceneVector3d</text>
</a>
</g>
<!-- Node5&#45;&gt;Node6 -->
<g id="edge10" class="edge"><title>Node5&#45;&gt;Node6</title>
<path fill="none" stroke="midnightblue" d="M620.261,-12C628.845,-12 637.464,-12 645.927,-12"/>
<polygon fill="midnightblue" stroke="midnightblue" points="620.212,-8.5001 610.212,-12 620.212,-15.5001 620.212,-8.5001"/>
</g>
</g>
</svg>
