<?xml version="1.0" encoding="UTF-8" standalone="no"?>
<!DOCTYPE svg PUBLIC "-//W3C//DTD SVG 1.1//EN"
 "http://www.w3.org/Graphics/SVG/1.1/DTD/svg11.dtd">
<!-- Generated by graphviz version 2.30.1 (20200304.1809)
 -->
<!-- Title: Graphical Class Hierarchy Pages: 1 -->
<svg width="322pt" height="217pt"
 viewBox="0.00 0.00 322.00 217.00" xmlns="http://www.w3.org/2000/svg" xmlns:xlink="http://www.w3.org/1999/xlink">
<g id="graph0" class="graph" transform="scale(1 1) rotate(0) translate(4 213)">
<title>Graphical Class Hierarchy</title>
<polygon fill="white" stroke="white" points="-4,5 -4,-213 319,-213 319,5 -4,5"/>
<!-- Node1 -->
<g id="node1" class="node"><title>Node1</title>
<g id="a_node1"><a xlink:href="structgl3_1_1AttrNone.html" target="_top" xlink:title="gl3::AttrNone">
<polygon fill="white" stroke="black" points="0.5,-92.5 0.5,-115.5 111.5,-115.5 111.5,-92.5 0.5,-92.5"/>
<text text-anchor="middle" x="56" y="-100.3" font-family="Helvetica,sans-Serif" font-size="14.00">gl3::AttrNone</text>
</a>
</g>
</g>
<!-- Node2 -->
<g id="node2" class="node"><title>Node2</title>
<g id="a_node2"><a xlink:href="structgl3_1_1AttrColor.html" target="_top" xlink:title="gl3::AttrColor\&lt; TV,\l typename \&gt;">
<polygon fill="white" stroke="black" points="155.5,-171 155.5,-209 306.5,-209 306.5,-171 155.5,-171"/>
<text text-anchor="start" x="163.5" y="-193.8" font-family="Helvetica,sans-Serif" font-size="14.00">gl3::AttrColor&lt; TV,</text>
<text text-anchor="middle" x="231" y="-178.8" font-family="Helvetica,sans-Serif" font-size="14.00"> typename &gt;</text>
</a>
</g>
</g>
<!-- Node1&#45;&gt;Node2 -->
<g id="edge1" class="edge"><title>Node1&#45;&gt;Node2</title>
<path fill="none" stroke="midnightblue" d="M81.7746,-121.605C99.6074,-133.749 124.554,-149.681 148,-161 155.343,-164.545 163.237,-167.885 171.122,-170.948"/>
<polygon fill="midnightblue" stroke="midnightblue" points="83.3608,-118.446 73.1433,-115.644 79.3829,-124.206 83.3608,-118.446"/>
</g>
<!-- Node3 -->
<g id="node3" class="node"><title>Node3</title>
<g id="a_node3"><a xlink:href="structgl3_1_1AttrCoord.html" target="_top" xlink:title="gl3::AttrCoord\&lt; TV,\l typename \&gt;">
<polygon fill="white" stroke="black" points="153,-114 153,-152 309,-152 309,-114 153,-114"/>
<text text-anchor="start" x="161" y="-136.8" font-family="Helvetica,sans-Serif" font-size="14.00">gl3::AttrCoord&lt; TV,</text>
<text text-anchor="middle" x="231" y="-121.8" font-family="Helvetica,sans-Serif" font-size="14.00"> typename &gt;</text>
</a>
</g>
</g>
<!-- Node1&#45;&gt;Node3 -->
<g id="edge2" class="edge"><title>Node1&#45;&gt;Node3</title>
<path fill="none" stroke="midnightblue" d="M121.726,-114.85C131.88,-116.552 142.461,-118.326 152.86,-120.069"/>
<polygon fill="midnightblue" stroke="midnightblue" points="122.179,-111.377 111.738,-113.176 121.022,-118.281 122.179,-111.377"/>
</g>
<!-- Node4 -->
<g id="node4" class="node"><title>Node4</title>
<g id="a_node4"><a xlink:href="structgl3_1_1AttrNormal.html" target="_top" xlink:title="gl3::AttrNormal\&lt; TV,\l typename \&gt;">
<polygon fill="white" stroke="black" points="148,-57 148,-95 314,-95 314,-57 148,-57"/>
<text text-anchor="start" x="156" y="-79.8" font-family="Helvetica,sans-Serif" font-size="14.00">gl3::AttrNormal&lt; TV,</text>
<text text-anchor="middle" x="231" y="-64.8" font-family="Helvetica,sans-Serif" font-size="14.00"> typename &gt;</text>
</a>
</g>
</g>
<!-- Node1&#45;&gt;Node4 -->
<g id="edge3" class="edge"><title>Node1&#45;&gt;Node4</title>
<path fill="none" stroke="midnightblue" d="M121.611,-93.5427C130.159,-92.1592 139.013,-90.7263 147.807,-89.303"/>
<polygon fill="midnightblue" stroke="midnightblue" points="121.051,-90.0878 111.738,-95.1406 122.169,-96.9979 121.051,-90.0878"/>
</g>
<!-- Node5 -->
<g id="node5" class="node"><title>Node5</title>
<g id="a_node5"><a xlink:href="structgl3_1_1AttrTexcoord.html" target="_top" xlink:title="gl3::AttrTexcoord\&lt;\l TV, typename \&gt;">
<polygon fill="white" stroke="black" points="156,-0 156,-38 306,-38 306,-0 156,-0"/>
<text text-anchor="start" x="164" y="-22.8" font-family="Helvetica,sans-Serif" font-size="14.00">gl3::AttrTexcoord&lt;</text>
<text text-anchor="middle" x="231" y="-7.8" font-family="Helvetica,sans-Serif" font-size="14.00"> TV, typename &gt;</text>
</a>
</g>
</g>
<!-- Node1&#45;&gt;Node5 -->
<g id="edge4" class="edge"><title>Node1&#45;&gt;Node5</title>
<path fill="none" stroke="midnightblue" d="M82.1458,-86.5171C99.9759,-74.6283 124.768,-59.1022 148,-48 155.357,-44.4842 163.259,-41.1612 171.149,-38.1063"/>
<polygon fill="midnightblue" stroke="midnightblue" points="79.8265,-83.8602 73.5015,-92.3599 83.7465,-89.6597 79.8265,-83.8602"/>
</g>
</g>
</svg>
