<?xml version="1.0" encoding="UTF-8" standalone="no"?>
<!DOCTYPE svg PUBLIC "-//W3C//DTD SVG 1.1//EN"
 "http://www.w3.org/Graphics/SVG/1.1/DTD/svg11.dtd">
<!-- Generated by graphviz version 2.30.1 (20200304.1809)
 -->
<!-- Title: Graphical Class Hierarchy Pages: 1 -->
<svg width="354pt" height="116pt"
 viewBox="0.00 0.00 354.00 116.00" xmlns="http://www.w3.org/2000/svg" xmlns:xlink="http://www.w3.org/1999/xlink">
<g id="graph0" class="graph" transform="scale(1 1) rotate(0) translate(4 112)">
<title>Graphical Class Hierarchy</title>
<polygon fill="white" stroke="white" points="-4,5 -4,-112 351,-112 351,5 -4,5"/>
<!-- Node1 -->
<g id="node1" class="node"><title>Node1</title>
<g id="a_node1"><a xlink:href="classSdlNativePlatform.html" target="_top" xlink:title="SdlNativePlatform">
<polygon fill="white" stroke="black" points="0.5,-42.5 0.5,-65.5 145.5,-65.5 145.5,-42.5 0.5,-42.5"/>
<text text-anchor="middle" x="73" y="-50.3" font-family="Helvetica,sans-Serif" font-size="14.00">SdlNativePlatform</text>
</a>
</g>
</g>
<!-- Node2 -->
<g id="node2" class="node"><title>Node2</title>
<g id="a_node2"><a xlink:href="classSdlCocoaPlatform.html" target="_top" xlink:title="SdlCocoaPlatform">
<polygon fill="white" stroke="black" points="192.5,-84.5 192.5,-107.5 335.5,-107.5 335.5,-84.5 192.5,-84.5"/>
<text text-anchor="middle" x="264" y="-92.3" font-family="Helvetica,sans-Serif" font-size="14.00">SdlCocoaPlatform</text>
</a>
</g>
</g>
<!-- Node1&#45;&gt;Node2 -->
<g id="edge1" class="edge"><title>Node1&#45;&gt;Node2</title>
<path fill="none" stroke="midnightblue" d="M135.772,-67.727C160.173,-73.1495 187.896,-79.3102 211.221,-84.4935"/>
<polygon fill="midnightblue" stroke="midnightblue" points="136.416,-64.285 125.895,-65.5322 134.898,-71.1183 136.416,-64.285"/>
</g>
<!-- Node3 -->
<g id="node3" class="node"><title>Node3</title>
<g id="a_node3"><a xlink:href="classSdlWindowsPlatform.html" target="_top" xlink:title="SdlWindowsPlatform">
<polygon fill="white" stroke="black" points="182,-42.5 182,-65.5 346,-65.5 346,-42.5 182,-42.5"/>
<text text-anchor="middle" x="264" y="-50.3" font-family="Helvetica,sans-Serif" font-size="14.00">SdlWindowsPlatform</text>
</a>
</g>
</g>
<!-- Node1&#45;&gt;Node3 -->
<g id="edge2" class="edge"><title>Node1&#45;&gt;Node3</title>
<path fill="none" stroke="midnightblue" d="M155.781,-54C164.42,-54 173.205,-54 181.837,-54"/>
<polygon fill="midnightblue" stroke="midnightblue" points="155.722,-50.5001 145.722,-54 155.722,-57.5001 155.722,-50.5001"/>
</g>
<!-- Node4 -->
<g id="node4" class="node"><title>Node4</title>
<g id="a_node4"><a xlink:href="classSdlX11Platform.html" target="_top" xlink:title="SdlX11Platform">
<polygon fill="white" stroke="black" points="200.5,-0.5 200.5,-23.5 327.5,-23.5 327.5,-0.5 200.5,-0.5"/>
<text text-anchor="middle" x="264" y="-8.3" font-family="Helvetica,sans-Serif" font-size="14.00">SdlX11Platform</text>
</a>
</g>
</g>
<!-- Node1&#45;&gt;Node4 -->
<g id="edge3" class="edge"><title>Node1&#45;&gt;Node4</title>
<path fill="none" stroke="midnightblue" d="M135.772,-40.273C160.173,-34.8505 187.896,-28.6898 211.221,-23.5065"/>
<polygon fill="midnightblue" stroke="midnightblue" points="134.898,-36.8817 125.895,-42.4678 136.416,-43.715 134.898,-36.8817"/>
</g>
</g>
</svg>
