<?xml version="1.0" encoding="UTF-8" standalone="no"?>
<!DOCTYPE svg PUBLIC "-//W3C//DTD SVG 1.1//EN"
 "http://www.w3.org/Graphics/SVG/1.1/DTD/svg11.dtd">
<!-- Generated by graphviz version 2.30.1 (20200304.1809)
 -->
<!-- Title: Graphical Class Hierarchy Pages: 1 -->
<svg width="638pt" height="116pt"
 viewBox="0.00 0.00 638.00 116.00" xmlns="http://www.w3.org/2000/svg" xmlns:xlink="http://www.w3.org/1999/xlink">
<g id="graph0" class="graph" transform="scale(1 1) rotate(0) translate(4 112)">
<title>Graphical Class Hierarchy</title>
<polygon fill="white" stroke="white" points="-4,5 -4,-112 635,-112 635,5 -4,5"/>
<!-- Node1 -->
<g id="node1" class="node"><title>Node1</title>
<g id="a_node1"><a xlink:href="classgl3_1_1IVertexBuffer.html" target="_top" xlink:title="gl3::IVertexBuffer">
<polygon fill="white" stroke="black" points="0,-42.5 0,-65.5 142,-65.5 142,-42.5 0,-42.5"/>
<text text-anchor="middle" x="71" y="-50.3" font-family="Helvetica,sans-Serif" font-size="14.00">gl3::IVertexBuffer</text>
</a>
</g>
</g>
<!-- Node2 -->
<g id="node2" class="node"><title>Node2</title>
<g id="a_node2"><a xlink:href="classgl3_1_1IIndexedBuffer.html" target="_top" xlink:title="gl3::IIndexedBuffer">
<polygon fill="white" stroke="black" points="192,-84.5 192,-107.5 344,-107.5 344,-84.5 192,-84.5"/>
<text text-anchor="middle" x="268" y="-92.3" font-family="Helvetica,sans-Serif" font-size="14.00">gl3::IIndexedBuffer</text>
</a>
</g>
</g>
<!-- Node1&#45;&gt;Node2 -->
<g id="edge1" class="edge"><title>Node1&#45;&gt;Node2</title>
<path fill="none" stroke="midnightblue" d="M135.397,-67.6548C160.654,-73.0947 189.405,-79.2871 213.577,-84.4935"/>
<polygon fill="midnightblue" stroke="midnightblue" points="136.055,-64.2163 125.543,-65.5322 134.581,-71.0594 136.055,-64.2163"/>
</g>
<!-- Node4 -->
<g id="node4" class="node"><title>Node4</title>
<g id="a_node4"><a xlink:href="classgl3_1_1TextBuffer.html" target="_top" xlink:title="gl3::TextBuffer">
<polygon fill="white" stroke="black" points="208,-42.5 208,-65.5 328,-65.5 328,-42.5 208,-42.5"/>
<text text-anchor="middle" x="268" y="-50.3" font-family="Helvetica,sans-Serif" font-size="14.00">gl3::TextBuffer</text>
</a>
</g>
</g>
<!-- Node1&#45;&gt;Node4 -->
<g id="edge3" class="edge"><title>Node1&#45;&gt;Node4</title>
<path fill="none" stroke="midnightblue" d="M152.331,-54C170.894,-54 190.314,-54 207.785,-54"/>
<polygon fill="midnightblue" stroke="midnightblue" points="152.124,-50.5001 142.124,-54 152.124,-57.5001 152.124,-50.5001"/>
</g>
<!-- Node5 -->
<g id="node5" class="node"><title>Node5</title>
<g id="a_node5"><a xlink:href="classgl3_1_1VertexBuffer.html" target="_top" xlink:title="gl3::VertexBuffer\&lt; T \&gt;">
<polygon fill="white" stroke="black" points="178.5,-0.5 178.5,-23.5 357.5,-23.5 357.5,-0.5 178.5,-0.5"/>
<text text-anchor="middle" x="268" y="-8.3" font-family="Helvetica,sans-Serif" font-size="14.00">gl3::VertexBuffer&lt; T &gt;</text>
</a>
</g>
</g>
<!-- Node1&#45;&gt;Node5 -->
<g id="edge4" class="edge"><title>Node1&#45;&gt;Node5</title>
<path fill="none" stroke="midnightblue" d="M135.397,-40.3452C160.654,-34.9053 189.405,-28.7129 213.577,-23.5065"/>
<polygon fill="midnightblue" stroke="midnightblue" points="134.581,-36.9406 125.543,-42.4678 136.055,-43.7837 134.581,-36.9406"/>
</g>
<!-- Node3 -->
<g id="node3" class="node"><title>Node3</title>
<g id="a_node3"><a xlink:href="classgl3_1_1IndexedVertexBuffer.html" target="_top" xlink:title="gl3::IndexedVertexBuffer\&lt; T \&gt;">
<polygon fill="white" stroke="black" points="394,-84.5 394,-107.5 630,-107.5 630,-84.5 394,-84.5"/>
<text text-anchor="middle" x="512" y="-92.3" font-family="Helvetica,sans-Serif" font-size="14.00">gl3::IndexedVertexBuffer&lt; T &gt;</text>
</a>
</g>
</g>
<!-- Node2&#45;&gt;Node3 -->
<g id="edge2" class="edge"><title>Node2&#45;&gt;Node3</title>
<path fill="none" stroke="midnightblue" d="M354.314,-96C367.04,-96 380.344,-96 393.592,-96"/>
<polygon fill="midnightblue" stroke="midnightblue" points="354.244,-92.5001 344.244,-96 354.244,-99.5001 354.244,-92.5001"/>
</g>
</g>
</svg>
