<?xml version="1.0" encoding="UTF-8" standalone="no"?>
<!DOCTYPE svg PUBLIC "-//W3C//DTD SVG 1.1//EN"
 "http://www.w3.org/Graphics/SVG/1.1/DTD/svg11.dtd">
<!-- Generated by graphviz version 2.44.1 (20200629.0846)
 -->
<!-- Title: Graphical Class Hierarchy Pages: 1 -->
<svg width="547pt" height="116pt"
 viewBox="0.00 0.00 547.00 116.00" xmlns="http://www.w3.org/2000/svg" xmlns:xlink="http://www.w3.org/1999/xlink">
<g id="graph0" class="graph" transform="scale(1 1) rotate(0) translate(4 112)">
<title>Graphical Class Hierarchy</title>
<polygon fill="white" stroke="transparent" points="-4,4 -4,-112 543,-112 543,4 -4,4"/>
<!-- Node0 -->
<g id="node1" class="node">
<title>Node0</title>
<g id="a_node1"><a xlink:href="classgl3_1_1IVertexBuffer.html" target="_top" xlink:title=" ">
<polygon fill="white" stroke="black" points="0,-42.5 0,-65.5 121,-65.5 121,-42.5 0,-42.5"/>
<text text-anchor="middle" x="60.5" y="-50.3" font-family="Helvetica,sans-Serif" font-size="14.00">gl3::IVertexBuffer</text>
</a>
</g>
</g>
<!-- Node1 -->
<g id="node2" class="node">
<title>Node1</title>
<g id="a_node2"><a xlink:href="classgl3_1_1IIndexedBuffer.html" target="_top" xlink:title=" ">
<polygon fill="white" stroke="black" points="166.5,-84.5 166.5,-107.5 296.5,-107.5 296.5,-84.5 166.5,-84.5"/>
<text text-anchor="middle" x="231.5" y="-92.3" font-family="Helvetica,sans-Serif" font-size="14.00">gl3::IIndexedBuffer</text>
</a>
</g>
</g>
<!-- Node0&#45;&gt;Node1 -->
<g id="edge1" class="edge">
<title>Node0&#45;&gt;Node1</title>
<path fill="none" stroke="midnightblue" d="M118.08,-68.06C139.51,-73.39 163.63,-79.38 184.02,-84.45"/>
<polygon fill="midnightblue" stroke="midnightblue" points="118.68,-64.6 108.13,-65.59 116.99,-71.4 118.68,-64.6"/>
</g>
<!-- Node3 -->
<g id="node4" class="node">
<title>Node3</title>
<g id="a_node4"><a xlink:href="classgl3_1_1TextBuffer.html" target="_top" xlink:title=" ">
<polygon fill="white" stroke="black" points="180,-42.5 180,-65.5 283,-65.5 283,-42.5 180,-42.5"/>
<text text-anchor="middle" x="231.5" y="-50.3" font-family="Helvetica,sans-Serif" font-size="14.00">gl3::TextBuffer</text>
</a>
</g>
</g>
<!-- Node0&#45;&gt;Node3 -->
<g id="edge3" class="edge">
<title>Node0&#45;&gt;Node3</title>
<path fill="none" stroke="midnightblue" d="M131.13,-54C147.45,-54 164.54,-54 179.85,-54"/>
<polygon fill="midnightblue" stroke="midnightblue" points="131.08,-50.5 121.08,-54 131.08,-57.5 131.08,-50.5"/>
</g>
<!-- Node4 -->
<g id="node5" class="node">
<title>Node4</title>
<g id="a_node5"><a xlink:href="classgl3_1_1VertexBuffer.html" target="_top" xlink:title=" ">
<polygon fill="white" stroke="black" points="157,-0.5 157,-23.5 306,-23.5 306,-0.5 157,-0.5"/>
<text text-anchor="middle" x="231.5" y="-8.3" font-family="Helvetica,sans-Serif" font-size="14.00">gl3::VertexBuffer&lt; T &gt;</text>
</a>
</g>
</g>
<!-- Node0&#45;&gt;Node4 -->
<g id="edge4" class="edge">
<title>Node0&#45;&gt;Node4</title>
<path fill="none" stroke="midnightblue" d="M118.08,-39.94C139.51,-34.61 163.63,-28.62 184.02,-23.55"/>
<polygon fill="midnightblue" stroke="midnightblue" points="116.99,-36.6 108.13,-42.41 118.68,-43.4 116.99,-36.6"/>
</g>
<!-- Node2 -->
<g id="node3" class="node">
<title>Node2</title>
<g id="a_node3"><a xlink:href="classgl3_1_1IndexedVertexBuffer.html" target="_top" xlink:title=" ">
<polygon fill="white" stroke="black" points="342,-84.5 342,-107.5 539,-107.5 539,-84.5 342,-84.5"/>
<text text-anchor="middle" x="440.5" y="-92.3" font-family="Helvetica,sans-Serif" font-size="14.00">gl3::IndexedVertexBuffer&lt; T &gt;</text>
</a>
</g>
</g>
<!-- Node1&#45;&gt;Node2 -->
<g id="edge2" class="edge">
<title>Node1&#45;&gt;Node2</title>
<path fill="none" stroke="midnightblue" d="M306.86,-96C318.23,-96 330.11,-96 341.89,-96"/>
<polygon fill="midnightblue" stroke="midnightblue" points="306.58,-92.5 296.58,-96 306.58,-99.5 306.58,-92.5"/>
</g>
</g>
</svg>
