<?xml version="1.0" encoding="UTF-8" standalone="no"?>
<!DOCTYPE svg PUBLIC "-//W3C//DTD SVG 1.1//EN"
 "http://www.w3.org/Graphics/SVG/1.1/DTD/svg11.dtd">
<!-- Generated by graphviz version 2.26.3 (20100126.1600)
 -->
<!-- Title: G Pages: 1 -->
<svg width="256pt" height="84pt"
 viewBox="0.00 0.00 256.00 84.00" xmlns="http://www.w3.org/2000/svg" xmlns:xlink="http://www.w3.org/1999/xlink">
<g id="graph1" class="graph" transform="scale(1 1) rotate(0) translate(4 80)">
<title>G</title>
<polygon fill="white" stroke="white" points="-4,5 -4,-80 253,-80 253,5 -4,5"/>
<!-- Node1 -->
<g id="node1" class="node"><title>Node1</title>
<polygon fill="#bfbfbf" stroke="black" points="92.5,-56.5 92.5,-75.5 163.5,-75.5 163.5,-56.5 92.5,-56.5"/>
<text text-anchor="middle" x="128" y="-62.5" font-family="FreeSans" font-size="10.00">material.cpp</text>
</g>
<!-- Node2 -->
<g id="node3" class="node"><title>Node2</title>
<polygon fill="white" stroke="#bfbfbf" points="-0.5,-0.5 -0.5,-19.5 48.5,-19.5 48.5,-0.5 -0.5,-0.5"/>
<text text-anchor="middle" x="24" y="-6.5" font-family="FreeSans" font-size="10.00">GL/gl.h</text>
</g>
<!-- Node1&#45;&gt;Node2 -->
<g id="edge2" class="edge"><title>Node1&#45;&gt;Node2</title>
<path fill="none" stroke="midnightblue" d="M109.885,-56.2455C93.555,-47.4527 69.329,-34.4079 50.7661,-24.4125"/>
<polygon fill="midnightblue" stroke="midnightblue" points="52.3719,-21.3021 41.9078,-19.6427 49.0532,-27.4654 52.3719,-21.3021"/>
</g>
<!-- Node3 -->
<g id="node5" class="node"><title>Node3</title>
<polygon fill="white" stroke="#bfbfbf" points="66,-0.5 66,-19.5 120,-19.5 120,-0.5 66,-0.5"/>
<text text-anchor="middle" x="93" y="-6.5" font-family="FreeSans" font-size="10.00">GL/glu.h</text>
</g>
<!-- Node1&#45;&gt;Node3 -->
<g id="edge4" class="edge"><title>Node1&#45;&gt;Node3</title>
<path fill="none" stroke="midnightblue" d="M121.903,-56.2455C117.085,-48.5367 110.225,-37.5598 104.397,-28.2348"/>
<polygon fill="midnightblue" stroke="midnightblue" points="107.295,-26.2677 99.0267,-19.6427 101.359,-29.9777 107.295,-26.2677"/>
</g>
<!-- Node4 -->
<g id="node7" class="node"><title>Node4</title>
<polygon fill="white" stroke="#bfbfbf" points="137.5,-0.5 137.5,-19.5 190.5,-19.5 190.5,-0.5 137.5,-0.5"/>
<text text-anchor="middle" x="164" y="-6.5" font-family="FreeSans" font-size="10.00">GL/glx.h</text>
</g>
<!-- Node1&#45;&gt;Node4 -->
<g id="edge6" class="edge"><title>Node1&#45;&gt;Node4</title>
<path fill="none" stroke="midnightblue" d="M134.271,-56.2455C139.226,-48.5367 146.283,-37.5598 152.278,-28.2348"/>
<polygon fill="midnightblue" stroke="midnightblue" points="155.338,-29.9471 157.801,-19.6427 149.449,-26.1618 155.338,-29.9471"/>
</g>
<!-- Node5 -->
<g id="node9" class="node"><title>Node5</title>
<polygon fill="white" stroke="#bfbfbf" points="207.5,-0.5 207.5,-19.5 248.5,-19.5 248.5,-0.5 207.5,-0.5"/>
<text text-anchor="middle" x="228" y="-6.5" font-family="FreeSans" font-size="10.00">string</text>
</g>
<!-- Node1&#45;&gt;Node5 -->
<g id="edge8" class="edge"><title>Node1&#45;&gt;Node5</title>
<path fill="none" stroke="midnightblue" d="M145.419,-56.2455C161.049,-47.4928 184.202,-34.527 202.019,-24.5496"/>
<polygon fill="midnightblue" stroke="midnightblue" points="203.766,-27.5825 210.781,-19.6427 200.346,-21.475 203.766,-27.5825"/>
</g>
</g>
</svg>
