<?xml version="1.0" encoding="UTF-8" standalone="no"?>
<!DOCTYPE svg PUBLIC "-//W3C//DTD SVG 1.1//EN"
 "http://www.w3.org/Graphics/SVG/1.1/DTD/svg11.dtd">
<!-- Generated by graphviz version 2.26.3 (20100126.1600)
 -->
<!-- Title: G Pages: 1 -->
<svg width="216pt" height="84pt"
 viewBox="0.00 0.00 216.00 84.00" xmlns="http://www.w3.org/2000/svg" xmlns:xlink="http://www.w3.org/1999/xlink">
<g id="graph1" class="graph" transform="scale(1 1) rotate(0) translate(4 80)">
<title>G</title>
<polygon fill="white" stroke="white" points="-4,5 -4,-80 213,-80 213,5 -4,5"/>
<!-- Node1 -->
<g id="node1" class="node"><title>Node1</title>
<polygon fill="#bfbfbf" stroke="black" points="50.5,-56.5 50.5,-75.5 127.5,-75.5 127.5,-56.5 50.5,-56.5"/>
<text text-anchor="middle" x="89" y="-62.5" font-family="FreeSans" font-size="10.00">openglvis.cpp</text>
</g>
<!-- Node2 -->
<g id="node3" class="node"><title>Node2</title>
<polygon fill="white" stroke="#bfbfbf" points="-0.5,-0.5 -0.5,-19.5 48.5,-19.5 48.5,-0.5 -0.5,-0.5"/>
<text text-anchor="middle" x="24" y="-6.5" font-family="FreeSans" font-size="10.00">GL/gl.h</text>
</g>
<!-- Node1&#45;&gt;Node2 -->
<g id="edge2" class="edge"><title>Node1&#45;&gt;Node2</title>
<path fill="none" stroke="midnightblue" d="M77.6779,-56.2455C68.0777,-47.9746 54.1108,-35.9416 42.8305,-26.2232"/>
<polygon fill="midnightblue" stroke="midnightblue" points="45.053,-23.5182 35.1924,-19.6427 40.484,-28.8214 45.053,-23.5182"/>
</g>
<!-- Node3 -->
<g id="node5" class="node"><title>Node3</title>
<polygon fill="white" stroke="#bfbfbf" points="65.5,-0.5 65.5,-19.5 112.5,-19.5 112.5,-0.5 65.5,-0.5"/>
<text text-anchor="middle" x="89" y="-6.5" font-family="FreeSans" font-size="10.00">math.h</text>
</g>
<!-- Node1&#45;&gt;Node3 -->
<g id="edge4" class="edge"><title>Node1&#45;&gt;Node3</title>
<path fill="none" stroke="midnightblue" d="M89,-56.2455C89,-48.9382 89,-38.6944 89,-29.7046"/>
<polygon fill="midnightblue" stroke="midnightblue" points="92.5001,-29.6426 89,-19.6427 85.5001,-29.6427 92.5001,-29.6426"/>
</g>
<!-- Node4 -->
<g id="node7" class="node"><title>Node4</title>
<a xlink:href="openglvis_8hpp.html" target="_top" xlink:title="openglvis.hpp">
<polygon fill="white" stroke="black" points="130,-0.5 130,-19.5 208,-19.5 208,-0.5 130,-0.5"/>
<text text-anchor="middle" x="169" y="-6.5" font-family="FreeSans" font-size="10.00">openglvis.hpp</text>
</a>
</g>
<!-- Node1&#45;&gt;Node4 -->
<g id="edge6" class="edge"><title>Node1&#45;&gt;Node4</title>
<path fill="none" stroke="midnightblue" d="M102.935,-56.2455C115.095,-47.7337 132.946,-35.2375 147.028,-25.3801"/>
<polygon fill="midnightblue" stroke="midnightblue" points="149.04,-28.2447 155.225,-19.6427 145.025,-22.51 149.04,-28.2447"/>
</g>
</g>
</svg>
