<?xml version="1.0" encoding="UTF-8" standalone="no"?>
<!DOCTYPE svg PUBLIC "-//W3C//DTD SVG 1.1//EN"
 "http://www.w3.org/Graphics/SVG/1.1/DTD/svg11.dtd">
<!-- Generated by graphviz version 2.26.3 (20100126.1600)
 -->
<!-- Title: G Pages: 1 -->
<svg width="194pt" height="84pt"
 viewBox="0.00 0.00 194.00 84.00" xmlns="http://www.w3.org/2000/svg" xmlns:xlink="http://www.w3.org/1999/xlink">
<g id="graph1" class="graph" transform="scale(1 1) rotate(0) translate(4 80)">
<title>G</title>
<polygon fill="white" stroke="white" points="-4,5 -4,-80 191,-80 191,5 -4,5"/>
<!-- Node1 -->
<g id="node1" class="node"><title>Node1</title>
<polygon fill="#bfbfbf" stroke="black" points="56,-56.5 56,-75.5 126,-75.5 126,-56.5 56,-56.5"/>
<text text-anchor="middle" x="91" y="-62.5" font-family="FreeSans" font-size="10.00">palettes.hpp</text>
</g>
<!-- Node2 -->
<g id="node3" class="node"><title>Node2</title>
<polygon fill="white" stroke="#bfbfbf" points="0,-0.5 0,-19.5 46,-19.5 46,-0.5 0,-0.5"/>
<text text-anchor="middle" x="23" y="-6.5" font-family="FreeSans" font-size="10.00">stdio.h</text>
</g>
<!-- Node1&#45;&gt;Node2 -->
<g id="edge2" class="edge"><title>Node1&#45;&gt;Node2</title>
<path fill="none" stroke="midnightblue" d="M79.1553,-56.2455C69.112,-47.9746 54.5005,-35.9416 42.6996,-26.2232"/>
<polygon fill="midnightblue" stroke="midnightblue" points="44.6533,-23.298 34.709,-19.6427 40.2033,-28.7015 44.6533,-23.298"/>
</g>
<!-- Node3 -->
<g id="node5" class="node"><title>Node3</title>
<polygon fill="white" stroke="#bfbfbf" points="63.5,-0.5 63.5,-19.5 118.5,-19.5 118.5,-0.5 63.5,-0.5"/>
<text text-anchor="middle" x="91" y="-6.5" font-family="FreeSans" font-size="10.00">iostream</text>
</g>
<!-- Node1&#45;&gt;Node3 -->
<g id="edge4" class="edge"><title>Node1&#45;&gt;Node3</title>
<path fill="none" stroke="midnightblue" d="M91,-56.2455C91,-48.9382 91,-38.6944 91,-29.7046"/>
<polygon fill="midnightblue" stroke="midnightblue" points="94.5001,-29.6426 91,-19.6427 87.5001,-29.6427 94.5001,-29.6426"/>
</g>
<!-- Node4 -->
<g id="node7" class="node"><title>Node4</title>
<polygon fill="white" stroke="#bfbfbf" points="135.5,-0.5 135.5,-19.5 186.5,-19.5 186.5,-0.5 135.5,-0.5"/>
<text text-anchor="middle" x="161" y="-6.5" font-family="FreeSans" font-size="10.00">iomanip</text>
</g>
<!-- Node1&#45;&gt;Node4 -->
<g id="edge6" class="edge"><title>Node1&#45;&gt;Node4</title>
<path fill="none" stroke="midnightblue" d="M103.193,-56.2455C113.632,-47.8943 128.865,-35.7076 141.074,-25.9408"/>
<polygon fill="midnightblue" stroke="midnightblue" points="143.324,-28.6227 148.947,-19.6427 138.952,-23.1566 143.324,-28.6227"/>
</g>
</g>
</svg>
