<?xml version="1.0" encoding="UTF-8" standalone="no"?>
<!DOCTYPE svg PUBLIC "-//W3C//DTD SVG 1.1//EN"
 "http://www.w3.org/Graphics/SVG/1.1/DTD/svg11.dtd">
<!-- Generated by graphviz version 2.44.1 (20200629.0846)
 -->
<!-- Title: gl3::FeedbackText Pages: 1 -->
<svg width="134pt" height="183pt"
 viewBox="0.00 0.00 134.00 183.00" xmlns="http://www.w3.org/2000/svg" xmlns:xlink="http://www.w3.org/1999/xlink">
<g id="graph0" class="graph" transform="scale(1 1) rotate(0) translate(4 179)">
<title>gl3::FeedbackText</title>
<polygon fill="white" stroke="transparent" points="-4,4 -4,-179 130,-179 130,4 -4,4"/>
<!-- Node1 -->
<g id="node1" class="node">
<title>Node1</title>
<g id="a_node1"><a xlink:title=" ">
<polygon fill="#bfbfbf" stroke="black" points="0,-0.5 0,-23.5 126,-23.5 126,-0.5 0,-0.5"/>
<text text-anchor="middle" x="63" y="-8.3" font-family="Helvetica,sans-Serif" font-size="14.00">gl3::FeedbackText</text>
</a>
</g>
</g>
<!-- Node2 -->
<g id="node2" class="node">
<title>Node2</title>
<g id="a_node2"><a xlink:title="STL class.">
<polygon fill="white" stroke="#bfbfbf" points="25.5,-75.5 25.5,-98.5 100.5,-98.5 100.5,-75.5 25.5,-75.5"/>
<text text-anchor="middle" x="63" y="-83.3" font-family="Helvetica,sans-Serif" font-size="14.00">std::string</text>
</a>
</g>
</g>
<!-- Node2&#45;&gt;Node1 -->
<g id="edge1" class="edge">
<title>Node2&#45;&gt;Node1</title>
<path fill="none" stroke="#9a32cd" stroke-dasharray="5,2" d="M63,-64.95C63,-51.5 63,-34.61 63,-23.82"/>
<polygon fill="#9a32cd" stroke="#9a32cd" points="59.5,-65.23 63,-75.23 66.5,-65.23 59.5,-65.23"/>
<text text-anchor="middle" x="76" y="-45.8" font-family="Helvetica,sans-Serif" font-size="14.00"> text</text>
</g>
<!-- Node3 -->
<g id="node3" class="node">
<title>Node3</title>
<g id="a_node3"><a xlink:title=" ">
<polygon fill="white" stroke="#bfbfbf" points="2,-136.5 2,-174.5 124,-174.5 124,-136.5 2,-136.5"/>
<text text-anchor="start" x="10" y="-159.3" font-family="Helvetica,sans-Serif" font-size="14.00">std::basic_string&lt;</text>
<text text-anchor="middle" x="63" y="-144.3" font-family="Helvetica,sans-Serif" font-size="14.00"> char &gt;</text>
</a>
</g>
</g>
<!-- Node3&#45;&gt;Node2 -->
<g id="edge2" class="edge">
<title>Node3&#45;&gt;Node2</title>
<path fill="none" stroke="midnightblue" d="M63,-126.22C63,-116.56 63,-106.32 63,-98.87"/>
<polygon fill="midnightblue" stroke="midnightblue" points="59.5,-126.33 63,-136.33 66.5,-126.33 59.5,-126.33"/>
</g>
</g>
</svg>
