<?xml version="1.0" encoding="UTF-8" standalone="no"?>
<!DOCTYPE svg PUBLIC "-//W3C//DTD SVG 1.1//EN"
 "http://www.w3.org/Graphics/SVG/1.1/DTD/svg11.dtd">
<!-- Generated by graphviz version 2.30.1 (20200304.1809)
 -->
<!-- Title: glTF_Builder::struct_sampler Pages: 1 -->
<svg width="162pt" height="338pt"
 viewBox="0.00 0.00 162.00 338.00" xmlns="http://www.w3.org/2000/svg" xmlns:xlink="http://www.w3.org/1999/xlink">
<g id="graph0" class="graph" transform="scale(1 1) rotate(0) translate(4 334)">
<title>glTF_Builder::struct_sampler</title>
<polygon fill="white" stroke="white" points="-4,5 -4,-334 159,-334 159,5 -4,5"/>
<!-- Node1 -->
<g id="node1" class="node"><title>Node1</title>
<polygon fill="#bfbfbf" stroke="black" points="0,-1 0,-39 154,-39 154,-1 0,-1"/>
<text text-anchor="start" x="8" y="-23.8" font-family="Helvetica,sans-Serif" font-size="14.00">glTF_Builder::struct</text>
<text text-anchor="middle" x="77" y="-8.8" font-family="Helvetica,sans-Serif" font-size="14.00">_sampler</text>
</g>
<!-- Node2 -->
<g id="node2" class="node"><title>Node2</title>
<g id="a_node2"><a xlink:href="structglTF__Builder_1_1node__type.html" target="_top" xlink:title="glTF_Builder::node\l_type\&lt; unsigned \&gt;">
<polygon fill="white" stroke="black" points="0,-137 0,-175 154,-175 154,-137 0,-137"/>
<text text-anchor="start" x="8" y="-159.8" font-family="Helvetica,sans-Serif" font-size="14.00">glTF_Builder::node</text>
<text text-anchor="middle" x="77" y="-144.8" font-family="Helvetica,sans-Serif" font-size="14.00">_type&lt; unsigned &gt;</text>
</a>
</g>
</g>
<!-- Node2&#45;&gt;Node1 -->
<g id="edge1" class="edge"><title>Node2&#45;&gt;Node1</title>
<path fill="none" stroke="#9a32cd" stroke-dasharray="5,2" d="M77,-126.791C77,-100.4 77,-61.759 77,-39.2135"/>
<polygon fill="#9a32cd" stroke="#9a32cd" points="73.5001,-126.928 77,-136.928 80.5001,-126.928 73.5001,-126.928"/>
<text text-anchor="middle" x="111" y="-106.8" font-family="Helvetica,sans-Serif" font-size="14.00"> wrapS</text>
<text text-anchor="middle" x="111" y="-91.8" font-family="Helvetica,sans-Serif" font-size="14.00">wrapT</text>
<text text-anchor="middle" x="111" y="-76.8" font-family="Helvetica,sans-Serif" font-size="14.00">minFilter</text>
<text text-anchor="middle" x="111" y="-61.8" font-family="Helvetica,sans-Serif" font-size="14.00">magFilter</text>
</g>
<!-- Node3 -->
<g id="node3" class="node"><title>Node3</title>
<g id="a_node3"><a xlink:title="STL class. ">
<polygon fill="white" stroke="#bfbfbf" points="33,-228.5 33,-251.5 121,-251.5 121,-228.5 33,-228.5"/>
<text text-anchor="middle" x="77" y="-236.3" font-family="Helvetica,sans-Serif" font-size="14.00">std::string</text>
</a>
</g>
</g>
<!-- Node3&#45;&gt;Node2 -->
<g id="edge2" class="edge"><title>Node3&#45;&gt;Node2</title>
<path fill="none" stroke="#9a32cd" stroke-dasharray="5,2" d="M77,-218.213C77,-204.967 77,-187.968 77,-175.246"/>
<polygon fill="#9a32cd" stroke="#9a32cd" points="73.5001,-218.28 77,-228.28 80.5001,-218.28 73.5001,-218.28"/>
<text text-anchor="middle" x="92" y="-198.3" font-family="Helvetica,sans-Serif" font-size="14.00"> key</text>
</g>
<!-- Node4 -->
<g id="node4" class="node"><title>Node4</title>
<polygon fill="white" stroke="#bfbfbf" points="5,-291 5,-329 149,-329 149,-291 5,-291"/>
<text text-anchor="start" x="13" y="-313.8" font-family="Helvetica,sans-Serif" font-size="14.00">std::basic_string&lt;</text>
<text text-anchor="middle" x="77" y="-298.8" font-family="Helvetica,sans-Serif" font-size="14.00"> char &gt;</text>
</g>
<!-- Node4&#45;&gt;Node3 -->
<g id="edge3" class="edge"><title>Node4&#45;&gt;Node3</title>
<path fill="none" stroke="midnightblue" d="M77,-280.599C77,-270.442 77,-259.6 77,-251.834"/>
<polygon fill="midnightblue" stroke="midnightblue" points="73.5001,-280.777 77,-290.777 80.5001,-280.777 73.5001,-280.777"/>
</g>
</g>
</svg>
