<?xml version="1.0" encoding="UTF-8" standalone="no"?>
<!DOCTYPE svg PUBLIC "-//W3C//DTD SVG 1.1//EN"
 "http://www.w3.org/Graphics/SVG/1.1/DTD/svg11.dtd">
<!-- Generated by graphviz version 2.30.1 (20200304.1809)
 -->
<!-- Title: glTF_Builder::struct_image Pages: 1 -->
<svg width="168pt" height="322pt"
 viewBox="0.00 0.00 168.00 322.00" xmlns="http://www.w3.org/2000/svg" xmlns:xlink="http://www.w3.org/1999/xlink">
<g id="graph0" class="graph" transform="scale(1 1) rotate(0) translate(4 318)">
<title>glTF_Builder::struct_image</title>
<polygon fill="white" stroke="white" points="-4,5 -4,-318 165,-318 165,5 -4,5"/>
<!-- Node1 -->
<g id="node1" class="node"><title>Node1</title>
<polygon fill="#bfbfbf" stroke="black" points="3,-1 3,-39 157,-39 157,-1 3,-1"/>
<text text-anchor="start" x="11" y="-23.8" font-family="Helvetica,sans-Serif" font-size="14.00">glTF_Builder::struct</text>
<text text-anchor="middle" x="80" y="-8.8" font-family="Helvetica,sans-Serif" font-size="14.00">_image</text>
</g>
<!-- Node2 -->
<g id="node2" class="node"><title>Node2</title>
<polygon fill="white" stroke="#bfbfbf" points="0,-107 0,-145 160,-145 160,-107 0,-107"/>
<text text-anchor="start" x="8" y="-129.8" font-family="Helvetica,sans-Serif" font-size="14.00">glTF_Builder::node</text>
<text text-anchor="middle" x="80" y="-114.8" font-family="Helvetica,sans-Serif" font-size="14.00">_type&lt; std::string &gt;</text>
</g>
<!-- Node2&#45;&gt;Node1 -->
<g id="edge1" class="edge"><title>Node2&#45;&gt;Node1</title>
<path fill="none" stroke="#9a32cd" stroke-dasharray="5,2" d="M80,-96.78C80,-78.4753 80,-55.1604 80,-39.2568"/>
<polygon fill="#9a32cd" stroke="#9a32cd" points="76.5001,-96.8845 80,-106.885 83.5001,-96.8846 76.5001,-96.8845"/>
<text text-anchor="middle" x="101" y="-76.8" font-family="Helvetica,sans-Serif" font-size="14.00"> uri</text>
<text text-anchor="middle" x="101" y="-61.8" font-family="Helvetica,sans-Serif" font-size="14.00">name</text>
</g>
<!-- Node3 -->
<g id="node3" class="node"><title>Node3</title>
<g id="a_node3"><a xlink:title="STL class. ">
<polygon fill="white" stroke="#bfbfbf" points="36,-212.5 36,-235.5 124,-235.5 124,-212.5 36,-212.5"/>
<text text-anchor="middle" x="80" y="-220.3" font-family="Helvetica,sans-Serif" font-size="14.00">std::string</text>
</a>
</g>
</g>
<!-- Node3&#45;&gt;Node2 -->
<g id="edge2" class="edge"><title>Node3&#45;&gt;Node2</title>
<path fill="none" stroke="#9a32cd" stroke-dasharray="5,2" d="M80,-202.334C80,-185.345 80,-161.506 80,-145.223"/>
<polygon fill="#9a32cd" stroke="#9a32cd" points="76.5001,-202.359 80,-212.36 83.5001,-202.36 76.5001,-202.359"/>
<text text-anchor="middle" x="100" y="-182.8" font-family="Helvetica,sans-Serif" font-size="14.00"> key</text>
<text text-anchor="middle" x="100" y="-167.8" font-family="Helvetica,sans-Serif" font-size="14.00">value</text>
</g>
<!-- Node4 -->
<g id="node4" class="node"><title>Node4</title>
<polygon fill="white" stroke="#bfbfbf" points="8,-275 8,-313 152,-313 152,-275 8,-275"/>
<text text-anchor="start" x="16" y="-297.8" font-family="Helvetica,sans-Serif" font-size="14.00">std::basic_string&lt;</text>
<text text-anchor="middle" x="80" y="-282.8" font-family="Helvetica,sans-Serif" font-size="14.00"> char &gt;</text>
</g>
<!-- Node4&#45;&gt;Node3 -->
<g id="edge3" class="edge"><title>Node4&#45;&gt;Node3</title>
<path fill="none" stroke="midnightblue" d="M80,-264.599C80,-254.442 80,-243.6 80,-235.834"/>
<polygon fill="midnightblue" stroke="midnightblue" points="76.5001,-264.777 80,-274.777 83.5001,-264.777 76.5001,-264.777"/>
</g>
</g>
</svg>
