<?xml version="1.0" encoding="UTF-8" standalone="no"?>
<!DOCTYPE svg PUBLIC "-//W3C//DTD SVG 1.1//EN"
 "http://www.w3.org/Graphics/SVG/1.1/DTD/svg11.dtd">
<!-- Generated by graphviz version 2.44.1 (20200629.0846)
 -->
<!-- Title: gl3::VertexNorm Pages: 1 -->
<svg width="145pt" height="122pt"
 viewBox="0.00 0.00 145.00 122.00" xmlns="http://www.w3.org/2000/svg" xmlns:xlink="http://www.w3.org/1999/xlink">
<g id="graph0" class="graph" transform="scale(1 1) rotate(0) translate(4 118)">
<title>gl3::VertexNorm</title>
<polygon fill="white" stroke="transparent" points="-4,4 -4,-118 141,-118 141,4 -4,4"/>
<!-- Node1 -->
<g id="node1" class="node">
<title>Node1</title>
<g id="a_node1"><a xlink:title=" ">
<polygon fill="#bfbfbf" stroke="black" points="11,-0.5 11,-23.5 126,-23.5 126,-0.5 11,-0.5"/>
<text text-anchor="middle" x="68.5" y="-8.3" font-family="Helvetica,sans-Serif" font-size="14.00">gl3::VertexNorm</text>
</a>
</g>
</g>
<!-- Node2 -->
<g id="node2" class="node">
<title>Node2</title>
<g id="a_node2"><a xlink:title=" ">
<polygon fill="white" stroke="#bfbfbf" points="0,-90.5 0,-113.5 137,-113.5 137,-90.5 0,-90.5"/>
<text text-anchor="middle" x="68.5" y="-98.3" font-family="Helvetica,sans-Serif" font-size="14.00">std::array&lt; float, 3 &gt;</text>
</a>
</g>
</g>
<!-- Node2&#45;&gt;Node1 -->
<g id="edge1" class="edge">
<title>Node2&#45;&gt;Node1</title>
<path fill="none" stroke="#9a32cd" stroke-dasharray="5,2" d="M68.5,-79.96C68.5,-62.2 68.5,-37.5 68.5,-23.6"/>
<polygon fill="#9a32cd" stroke="#9a32cd" points="65,-80.21 68.5,-90.21 72,-80.21 65,-80.21"/>
<text text-anchor="middle" x="87.5" y="-60.8" font-family="Helvetica,sans-Serif" font-size="14.00"> coord</text>
<text text-anchor="middle" x="87.5" y="-45.8" font-family="Helvetica,sans-Serif" font-size="14.00">norm</text>
</g>
</g>
</svg>
