<?xml version="1.0" encoding="UTF-8" standalone="no"?>
<!DOCTYPE svg PUBLIC "-//W3C//DTD SVG 1.1//EN"
 "http://www.w3.org/Graphics/SVG/1.1/DTD/svg11.dtd">
<!-- Generated by graphviz version 2.30.1 (20200304.1809)
 -->
<!-- Title: gl3::VertexNormColor Pages: 1 -->
<svg width="379pt" height="122pt"
 viewBox="0.00 0.00 379.00 122.00" xmlns="http://www.w3.org/2000/svg" xmlns:xlink="http://www.w3.org/1999/xlink">
<g id="graph0" class="graph" transform="scale(1 1) rotate(0) translate(4 118)">
<title>gl3::VertexNormColor</title>
<polygon fill="white" stroke="white" points="-4,5 -4,-118 376,-118 376,5 -4,5"/>
<!-- Node1 -->
<g id="node1" class="node"><title>Node1</title>
<polygon fill="#bfbfbf" stroke="black" points="103.5,-0.5 103.5,-23.5 274.5,-23.5 274.5,-0.5 103.5,-0.5"/>
<text text-anchor="middle" x="189" y="-8.3" font-family="Helvetica,sans-Serif" font-size="14.00">gl3::VertexNormColor</text>
</g>
<!-- Node2 -->
<g id="node2" class="node"><title>Node2</title>
<polygon fill="white" stroke="#bfbfbf" points="-0.5,-90.5 -0.5,-113.5 184.5,-113.5 184.5,-90.5 -0.5,-90.5"/>
<text text-anchor="middle" x="92" y="-98.3" font-family="Helvetica,sans-Serif" font-size="14.00">std::array&lt; uint8_t, 4 &gt;</text>
</g>
<!-- Node2&#45;&gt;Node1 -->
<g id="edge1" class="edge"><title>Node2&#45;&gt;Node1</title>
<path fill="none" stroke="#9a32cd" stroke-dasharray="5,2" d="M111.397,-83.4026C131.101,-65.5273 160.973,-38.4266 177.312,-23.6039"/>
<polygon fill="#9a32cd" stroke="#9a32cd" points="108.949,-80.8981 103.894,-90.2095 113.652,-86.0825 108.949,-80.8981"/>
<text text-anchor="middle" x="175" y="-53.3" font-family="Helvetica,sans-Serif" font-size="14.00"> color</text>
</g>
<!-- Node3 -->
<g id="node3" class="node"><title>Node3</title>
<polygon fill="white" stroke="#bfbfbf" points="202.5,-90.5 202.5,-113.5 371.5,-113.5 371.5,-90.5 202.5,-90.5"/>
<text text-anchor="middle" x="287" y="-98.3" font-family="Helvetica,sans-Serif" font-size="14.00">std::array&lt; float, 3 &gt;</text>
</g>
<!-- Node3&#45;&gt;Node1 -->
<g id="edge2" class="edge"><title>Node3&#45;&gt;Node1</title>
<path fill="none" stroke="#9a32cd" stroke-dasharray="5,2" d="M267.403,-83.4026C247.496,-65.5273 217.316,-38.4266 200.809,-23.6039"/>
<polygon fill="#9a32cd" stroke="#9a32cd" points="265.204,-86.1324 274.983,-90.2095 269.881,-80.924 265.204,-86.1324"/>
<text text-anchor="middle" x="275" y="-60.8" font-family="Helvetica,sans-Serif" font-size="14.00"> coord</text>
<text text-anchor="middle" x="275" y="-45.8" font-family="Helvetica,sans-Serif" font-size="14.00">norm</text>
</g>
</g>
</svg>
