<?xml version="1.0" encoding="UTF-8" standalone="no"?>
<!DOCTYPE svg PUBLIC "-//W3C//DTD SVG 1.1//EN"
 "http://www.w3.org/Graphics/SVG/1.1/DTD/svg11.dtd">
<!-- Generated by graphviz version 2.44.1 (20200629.0846)
 -->
<!-- Title: gl3::VertexNormTex Pages: 1 -->
<svg width="300pt" height="122pt"
 viewBox="0.00 0.00 300.00 122.00" xmlns="http://www.w3.org/2000/svg" xmlns:xlink="http://www.w3.org/1999/xlink">
<g id="graph0" class="graph" transform="scale(1 1) rotate(0) translate(4 118)">
<title>gl3::VertexNormTex</title>
<polygon fill="white" stroke="transparent" points="-4,4 -4,-118 296,-118 296,4 -4,4"/>
<!-- Node1 -->
<g id="node1" class="node">
<title>Node1</title>
<g id="a_node1"><a xlink:title=" ">
<polygon fill="#bfbfbf" stroke="black" points="77.5,-0.5 77.5,-23.5 213.5,-23.5 213.5,-0.5 77.5,-0.5"/>
<text text-anchor="middle" x="145.5" y="-8.3" font-family="Helvetica,sans-Serif" font-size="14.00">gl3::VertexNormTex</text>
</a>
</g>
</g>
<!-- Node2 -->
<g id="node2" class="node">
<title>Node2</title>
<g id="a_node2"><a xlink:title=" ">
<polygon fill="white" stroke="#bfbfbf" points="0,-90.5 0,-113.5 137,-113.5 137,-90.5 0,-90.5"/>
<text text-anchor="middle" x="68.5" y="-98.3" font-family="Helvetica,sans-Serif" font-size="14.00">std::array&lt; float, 2 &gt;</text>
</a>
</g>
</g>
<!-- Node2&#45;&gt;Node1 -->
<g id="edge1" class="edge">
<title>Node2&#45;&gt;Node1</title>
<path fill="none" stroke="#9a32cd" stroke-dasharray="5,2" d="M84.53,-82.68C100.17,-64.81 123.42,-38.23 136.22,-23.6"/>
<polygon fill="#9a32cd" stroke="#9a32cd" points="81.89,-80.38 77.94,-90.21 87.16,-84.99 81.89,-80.38"/>
<text text-anchor="middle" x="148" y="-53.3" font-family="Helvetica,sans-Serif" font-size="14.00"> texCoord</text>
</g>
<!-- Node3 -->
<g id="node3" class="node">
<title>Node3</title>
<g id="a_node3"><a xlink:title=" ">
<polygon fill="white" stroke="#bfbfbf" points="155,-90.5 155,-113.5 292,-113.5 292,-90.5 155,-90.5"/>
<text text-anchor="middle" x="223.5" y="-98.3" font-family="Helvetica,sans-Serif" font-size="14.00">std::array&lt; float, 3 &gt;</text>
</a>
</g>
</g>
<!-- Node3&#45;&gt;Node1 -->
<g id="edge2" class="edge">
<title>Node3&#45;&gt;Node1</title>
<path fill="none" stroke="#9a32cd" stroke-dasharray="5,2" d="M211.59,-81.54C203.78,-69.52 192.93,-54.13 181.5,-42 175.23,-35.34 167.4,-28.86 160.65,-23.72"/>
<polygon fill="#9a32cd" stroke="#9a32cd" points="208.85,-83.75 217.16,-90.33 214.77,-80.01 208.85,-83.75"/>
<text text-anchor="middle" x="223.5" y="-60.8" font-family="Helvetica,sans-Serif" font-size="14.00"> coord</text>
<text text-anchor="middle" x="223.5" y="-45.8" font-family="Helvetica,sans-Serif" font-size="14.00">norm</text>
</g>
</g>
</svg>
