<?xml version="1.0" encoding="UTF-8" standalone="no"?>
<!DOCTYPE svg PUBLIC "-//W3C//DTD SVG 1.1//EN"
 "http://www.w3.org/Graphics/SVG/1.1/DTD/svg11.dtd">
<!-- Generated by graphviz version 2.30.1 (20200304.1809)
 -->
<!-- Title: glTF_Builder::struct_node Pages: 1 -->
<svg width="912pt" height="171pt"
 viewBox="0.00 0.00 912.00 171.00" xmlns="http://www.w3.org/2000/svg" xmlns:xlink="http://www.w3.org/1999/xlink">
<g id="graph0" class="graph" transform="scale(1 1) rotate(0) translate(4 167)">
<title>glTF_Builder::struct_node</title>
<polygon fill="white" stroke="white" points="-4,5 -4,-167 909,-167 909,5 -4,5"/>
<!-- Node1 -->
<g id="node1" class="node"><title>Node1</title>
<polygon fill="#bfbfbf" stroke="black" points="706.5,-64.5 706.5,-87.5 903.5,-87.5 903.5,-64.5 706.5,-64.5"/>
<text text-anchor="middle" x="805" y="-72.3" font-family="Helvetica,sans-Serif" font-size="14.00">glTF_Builder::struct_node</text>
</g>
<!-- Node2 -->
<g id="node2" class="node"><title>Node2</title>
<g id="a_node2"><a xlink:href="structglTF__Builder_1_1node__type.html" target="_top" xlink:title="glTF_Builder::node\l_type\&lt; vec3f \&gt;">
<polygon fill="white" stroke="black" points="437.5,-114 437.5,-152 586.5,-152 586.5,-114 437.5,-114"/>
<text text-anchor="start" x="445.5" y="-136.8" font-family="Helvetica,sans-Serif" font-size="14.00">glTF_Builder::node</text>
<text text-anchor="middle" x="512" y="-121.8" font-family="Helvetica,sans-Serif" font-size="14.00">_type&lt; vec3f &gt;</text>
</a>
</g>
</g>
<!-- Node2&#45;&gt;Node1 -->
<g id="edge1" class="edge"><title>Node2&#45;&gt;Node1</title>
<path fill="none" stroke="#9a32cd" stroke-dasharray="5,2" d="M596.751,-116.595C644.157,-107.309 702.3,-95.9206 744.924,-87.5717"/>
<polygon fill="#9a32cd" stroke="#9a32cd" points="595.948,-113.186 586.808,-118.543 597.294,-120.055 595.948,-113.186"/>
<text text-anchor="middle" x="649" y="-130.8" font-family="Helvetica,sans-Serif" font-size="14.00"> scale</text>
<text text-anchor="middle" x="649" y="-115.8" font-family="Helvetica,sans-Serif" font-size="14.00">translation</text>
</g>
<!-- Node3 -->
<g id="node3" class="node"><title>Node3</title>
<g id="a_node3"><a xlink:title="STL class. ">
<polygon fill="white" stroke="#bfbfbf" points="223,-63.5 223,-86.5 311,-86.5 311,-63.5 223,-63.5"/>
<text text-anchor="middle" x="267" y="-71.3" font-family="Helvetica,sans-Serif" font-size="14.00">std::string</text>
</a>
</g>
</g>
<!-- Node3&#45;&gt;Node2 -->
<g id="edge2" class="edge"><title>Node3&#45;&gt;Node2</title>
<path fill="none" stroke="#9a32cd" stroke-dasharray="5,2" d="M320.921,-87.6314C354.984,-95.7617 399.741,-106.444 437.267,-115.401"/>
<polygon fill="#9a32cd" stroke="#9a32cd" points="321.703,-84.2197 311.164,-85.3024 320.078,-91.0285 321.703,-84.2197"/>
<text text-anchor="middle" x="392" y="-112.8" font-family="Helvetica,sans-Serif" font-size="14.00"> key</text>
</g>
<!-- Node6 -->
<g id="node6" class="node"><title>Node6</title>
<g id="a_node6"><a xlink:href="structglTF__Builder_1_1node__type.html" target="_top" xlink:title="glTF_Builder::node\l_type\&lt; unsigned \&gt;">
<polygon fill="white" stroke="black" points="435,-57 435,-95 589,-95 589,-57 435,-57"/>
<text text-anchor="start" x="443" y="-79.8" font-family="Helvetica,sans-Serif" font-size="14.00">glTF_Builder::node</text>
<text text-anchor="middle" x="512" y="-64.8" font-family="Helvetica,sans-Serif" font-size="14.00">_type&lt; unsigned &gt;</text>
</a>
</g>
</g>
<!-- Node3&#45;&gt;Node6 -->
<g id="edge6" class="edge"><title>Node3&#45;&gt;Node6</title>
<path fill="none" stroke="#9a32cd" stroke-dasharray="5,2" d="M321.585,-75.2205C354.831,-75.3573 398.071,-75.5353 434.842,-75.6866"/>
<polygon fill="#9a32cd" stroke="#9a32cd" points="321.178,-71.7189 311.164,-75.1776 321.149,-78.7188 321.178,-71.7189"/>
<text text-anchor="middle" x="392" y="-79.8" font-family="Helvetica,sans-Serif" font-size="14.00"> key</text>
</g>
<!-- Node7 -->
<g id="node7" class="node"><title>Node7</title>
<polygon fill="white" stroke="#bfbfbf" points="432,-0 432,-38 592,-38 592,-0 432,-0"/>
<text text-anchor="start" x="440" y="-22.8" font-family="Helvetica,sans-Serif" font-size="14.00">glTF_Builder::node</text>
<text text-anchor="middle" x="512" y="-7.8" font-family="Helvetica,sans-Serif" font-size="14.00">_type&lt; std::string &gt;</text>
</g>
<!-- Node3&#45;&gt;Node7 -->
<g id="edge8" class="edge"><title>Node3&#45;&gt;Node7</title>
<path fill="none" stroke="#9a32cd" stroke-dasharray="5,2" d="M308.917,-60.1972C327.392,-53.9207 349.605,-46.9326 370,-42 389.889,-37.1898 411.602,-33.0912 431.899,-29.7452"/>
<polygon fill="#9a32cd" stroke="#9a32cd" points="307.663,-56.9273 299.35,-63.4963 309.945,-63.5449 307.663,-56.9273"/>
<text text-anchor="middle" x="392" y="-60.8" font-family="Helvetica,sans-Serif" font-size="14.00"> key</text>
<text text-anchor="middle" x="392" y="-45.8" font-family="Helvetica,sans-Serif" font-size="14.00">value</text>
</g>
<!-- Node4 -->
<g id="node4" class="node"><title>Node4</title>
<polygon fill="white" stroke="#bfbfbf" points="0,-56 0,-94 144,-94 144,-56 0,-56"/>
<text text-anchor="start" x="8" y="-78.8" font-family="Helvetica,sans-Serif" font-size="14.00">std::basic_string&lt;</text>
<text text-anchor="middle" x="72" y="-63.8" font-family="Helvetica,sans-Serif" font-size="14.00"> char &gt;</text>
</g>
<!-- Node4&#45;&gt;Node3 -->
<g id="edge3" class="edge"><title>Node4&#45;&gt;Node3</title>
<path fill="none" stroke="midnightblue" d="M154.071,-75C177.687,-75 202.57,-75 222.861,-75"/>
<polygon fill="midnightblue" stroke="midnightblue" points="154.044,-71.5001 144.044,-75 154.044,-78.5001 154.044,-71.5001"/>
</g>
<!-- Node5 -->
<g id="node5" class="node"><title>Node5</title>
<polygon fill="white" stroke="#bfbfbf" points="182.5,-139.5 182.5,-162.5 351.5,-162.5 351.5,-139.5 182.5,-139.5"/>
<text text-anchor="middle" x="267" y="-147.3" font-family="Helvetica,sans-Serif" font-size="14.00">std::array&lt; float, 3 &gt;</text>
</g>
<!-- Node5&#45;&gt;Node2 -->
<g id="edge4" class="edge"><title>Node5&#45;&gt;Node2</title>
<path fill="none" stroke="#9a32cd" stroke-dasharray="5,2" d="M361.869,-144.047C386.906,-142.192 413.596,-140.215 437.373,-138.454"/>
<polygon fill="#9a32cd" stroke="#9a32cd" points="361.341,-140.576 351.627,-144.805 361.858,-147.557 361.341,-140.576"/>
<text text-anchor="middle" x="392" y="-146.8" font-family="Helvetica,sans-Serif" font-size="14.00"> value</text>
</g>
<!-- Node6&#45;&gt;Node1 -->
<g id="edge5" class="edge"><title>Node6&#45;&gt;Node1</title>
<path fill="none" stroke="#9a32cd" stroke-dasharray="5,2" d="M599.349,-76C633.006,-76 671.753,-76 706.416,-76"/>
<polygon fill="#9a32cd" stroke="#9a32cd" points="599.077,-72.5001 589.077,-76 599.077,-79.5001 599.077,-72.5001"/>
<text text-anchor="middle" x="649" y="-79.8" font-family="Helvetica,sans-Serif" font-size="14.00"> mesh</text>
</g>
<!-- Node7&#45;&gt;Node1 -->
<g id="edge7" class="edge"><title>Node7&#45;&gt;Node1</title>
<path fill="none" stroke="#9a32cd" stroke-dasharray="5,2" d="M602.203,-36.4728C648.659,-45.5725 704.168,-56.4453 745.199,-64.4822"/>
<polygon fill="#9a32cd" stroke="#9a32cd" points="602.619,-32.9878 592.133,-34.5002 601.273,-39.8573 602.619,-32.9878"/>
<text text-anchor="middle" x="649" y="-56.8" font-family="Helvetica,sans-Serif" font-size="14.00"> name</text>
</g>
</g>
</svg>
