<?xml version="1.0" encoding="UTF-8" standalone="no"?>
<!DOCTYPE svg PUBLIC "-//W3C//DTD SVG 1.1//EN"
 "http://www.w3.org/Graphics/SVG/1.1/DTD/svg11.dtd">
<!-- Generated by graphviz version 2.30.1 (20200304.1809)
 -->
<!-- Title: glTF_Builder::struct_buffer_view Pages: 1 -->
<svg width="167pt" height="354pt"
 viewBox="0.00 0.00 167.00 354.00" xmlns="http://www.w3.org/2000/svg" xmlns:xlink="http://www.w3.org/1999/xlink">
<g id="graph0" class="graph" transform="scale(1 1) rotate(0) translate(4 350)">
<title>glTF_Builder::struct_buffer_view</title>
<polygon fill="white" stroke="white" points="-4,5 -4,-350 164,-350 164,5 -4,5"/>
<!-- Node1 -->
<g id="node1" class="node"><title>Node1</title>
<polygon fill="#bfbfbf" stroke="black" points="0,-1 0,-39 154,-39 154,-1 0,-1"/>
<text text-anchor="start" x="8" y="-23.8" font-family="Helvetica,sans-Serif" font-size="14.00">glTF_Builder::struct</text>
<text text-anchor="middle" x="77" y="-8.8" font-family="Helvetica,sans-Serif" font-size="14.00">_buffer_view</text>
</g>
<!-- Node2 -->
<g id="node2" class="node"><title>Node2</title>
<g id="a_node2"><a xlink:href="structglTF__Builder_1_1node__type.html" target="_top" xlink:title="glTF_Builder::node\l_type\&lt; unsigned \&gt;">
<polygon fill="white" stroke="black" points="0,-153 0,-191 154,-191 154,-153 0,-153"/>
<text text-anchor="start" x="8" y="-175.8" font-family="Helvetica,sans-Serif" font-size="14.00">glTF_Builder::node</text>
<text text-anchor="middle" x="77" y="-160.8" font-family="Helvetica,sans-Serif" font-size="14.00">_type&lt; unsigned &gt;</text>
</a>
</g>
</g>
<!-- Node2&#45;&gt;Node1 -->
<g id="edge1" class="edge"><title>Node2&#45;&gt;Node1</title>
<path fill="none" stroke="#9a32cd" stroke-dasharray="5,2" d="M77,-142.541C77,-112.141 77,-64.8709 77,-39.1577"/>
<polygon fill="#9a32cd" stroke="#9a32cd" points="73.5001,-142.906 77,-152.906 80.5001,-142.907 73.5001,-142.906"/>
<text text-anchor="middle" x="118" y="-122.3" font-family="Helvetica,sans-Serif" font-size="14.00"> target</text>
<text text-anchor="middle" x="118" y="-107.3" font-family="Helvetica,sans-Serif" font-size="14.00">byteLength</text>
<text text-anchor="middle" x="118" y="-92.3" font-family="Helvetica,sans-Serif" font-size="14.00">byteStride</text>
<text text-anchor="middle" x="118" y="-77.3" font-family="Helvetica,sans-Serif" font-size="14.00">byteOffset</text>
<text text-anchor="middle" x="118" y="-62.3" font-family="Helvetica,sans-Serif" font-size="14.00">buffer</text>
</g>
<!-- Node3 -->
<g id="node3" class="node"><title>Node3</title>
<g id="a_node3"><a xlink:title="STL class. ">
<polygon fill="white" stroke="#bfbfbf" points="33,-244.5 33,-267.5 121,-267.5 121,-244.5 33,-244.5"/>
<text text-anchor="middle" x="77" y="-252.3" font-family="Helvetica,sans-Serif" font-size="14.00">std::string</text>
</a>
</g>
</g>
<!-- Node3&#45;&gt;Node2 -->
<g id="edge2" class="edge"><title>Node3&#45;&gt;Node2</title>
<path fill="none" stroke="#9a32cd" stroke-dasharray="5,2" d="M77,-234.213C77,-220.967 77,-203.968 77,-191.246"/>
<polygon fill="#9a32cd" stroke="#9a32cd" points="73.5001,-234.28 77,-244.28 80.5001,-234.28 73.5001,-234.28"/>
<text text-anchor="middle" x="92" y="-214.3" font-family="Helvetica,sans-Serif" font-size="14.00"> key</text>
</g>
<!-- Node4 -->
<g id="node4" class="node"><title>Node4</title>
<polygon fill="white" stroke="#bfbfbf" points="5,-307 5,-345 149,-345 149,-307 5,-307"/>
<text text-anchor="start" x="13" y="-329.8" font-family="Helvetica,sans-Serif" font-size="14.00">std::basic_string&lt;</text>
<text text-anchor="middle" x="77" y="-314.8" font-family="Helvetica,sans-Serif" font-size="14.00"> char &gt;</text>
</g>
<!-- Node4&#45;&gt;Node3 -->
<g id="edge3" class="edge"><title>Node4&#45;&gt;Node3</title>
<path fill="none" stroke="midnightblue" d="M77,-296.599C77,-286.442 77,-275.6 77,-267.834"/>
<polygon fill="midnightblue" stroke="midnightblue" points="73.5001,-296.777 77,-306.777 80.5001,-296.777 73.5001,-296.777"/>
</g>
</g>
</svg>
