<?xml version="1.0" encoding="UTF-8" standalone="no"?>
<!DOCTYPE svg PUBLIC "-//W3C//DTD SVG 1.1//EN"
 "http://www.w3.org/Graphics/SVG/1.1/DTD/svg11.dtd">
<!-- Generated by graphviz version 2.30.1 (20200304.1809)
 -->
<!-- Title: glTF_Builder::struct_texture_info Pages: 1 -->
<svg width="162pt" height="308pt"
 viewBox="0.00 0.00 162.00 308.00" xmlns="http://www.w3.org/2000/svg" xmlns:xlink="http://www.w3.org/1999/xlink">
<g id="graph0" class="graph" transform="scale(1 1) rotate(0) translate(4 304)">
<title>glTF_Builder::struct_texture_info</title>
<polygon fill="white" stroke="white" points="-4,5 -4,-304 159,-304 159,5 -4,5"/>
<!-- Node1 -->
<g id="node1" class="node"><title>Node1</title>
<polygon fill="#bfbfbf" stroke="black" points="0,-1 0,-39 154,-39 154,-1 0,-1"/>
<text text-anchor="start" x="8" y="-23.8" font-family="Helvetica,sans-Serif" font-size="14.00">glTF_Builder::struct</text>
<text text-anchor="middle" x="77" y="-8.8" font-family="Helvetica,sans-Serif" font-size="14.00">_texture_info</text>
</g>
<!-- Node2 -->
<g id="node2" class="node"><title>Node2</title>
<g id="a_node2"><a xlink:href="structglTF__Builder_1_1node__type.html" target="_top" xlink:title="glTF_Builder::node\l_type\&lt; unsigned \&gt;">
<polygon fill="white" stroke="black" points="0,-107 0,-145 154,-145 154,-107 0,-107"/>
<text text-anchor="start" x="8" y="-129.8" font-family="Helvetica,sans-Serif" font-size="14.00">glTF_Builder::node</text>
<text text-anchor="middle" x="77" y="-114.8" font-family="Helvetica,sans-Serif" font-size="14.00">_type&lt; unsigned &gt;</text>
</a>
</g>
</g>
<!-- Node2&#45;&gt;Node1 -->
<g id="edge1" class="edge"><title>Node2&#45;&gt;Node1</title>
<path fill="none" stroke="#9a32cd" stroke-dasharray="5,2" d="M77,-96.78C77,-78.4753 77,-55.1604 77,-39.2568"/>
<polygon fill="#9a32cd" stroke="#9a32cd" points="73.5001,-96.8845 77,-106.885 80.5001,-96.8846 73.5001,-96.8845"/>
<text text-anchor="middle" x="112" y="-76.8" font-family="Helvetica,sans-Serif" font-size="14.00"> texCoord</text>
<text text-anchor="middle" x="112" y="-61.8" font-family="Helvetica,sans-Serif" font-size="14.00">index</text>
</g>
<!-- Node3 -->
<g id="node3" class="node"><title>Node3</title>
<g id="a_node3"><a xlink:title="STL class. ">
<polygon fill="white" stroke="#bfbfbf" points="33,-198.5 33,-221.5 121,-221.5 121,-198.5 33,-198.5"/>
<text text-anchor="middle" x="77" y="-206.3" font-family="Helvetica,sans-Serif" font-size="14.00">std::string</text>
</a>
</g>
</g>
<!-- Node3&#45;&gt;Node2 -->
<g id="edge2" class="edge"><title>Node3&#45;&gt;Node2</title>
<path fill="none" stroke="#9a32cd" stroke-dasharray="5,2" d="M77,-188.213C77,-174.967 77,-157.968 77,-145.246"/>
<polygon fill="#9a32cd" stroke="#9a32cd" points="73.5001,-188.28 77,-198.28 80.5001,-188.28 73.5001,-188.28"/>
<text text-anchor="middle" x="92" y="-168.3" font-family="Helvetica,sans-Serif" font-size="14.00"> key</text>
</g>
<!-- Node4 -->
<g id="node4" class="node"><title>Node4</title>
<polygon fill="white" stroke="#bfbfbf" points="5,-261 5,-299 149,-299 149,-261 5,-261"/>
<text text-anchor="start" x="13" y="-283.8" font-family="Helvetica,sans-Serif" font-size="14.00">std::basic_string&lt;</text>
<text text-anchor="middle" x="77" y="-268.8" font-family="Helvetica,sans-Serif" font-size="14.00"> char &gt;</text>
</g>
<!-- Node4&#45;&gt;Node3 -->
<g id="edge3" class="edge"><title>Node4&#45;&gt;Node3</title>
<path fill="none" stroke="midnightblue" d="M77,-250.599C77,-240.442 77,-229.6 77,-221.834"/>
<polygon fill="midnightblue" stroke="midnightblue" points="73.5001,-250.777 77,-260.777 80.5001,-250.777 73.5001,-250.777"/>
</g>
</g>
</svg>
