<?xml version="1.0" encoding="UTF-8" standalone="no"?>
<!DOCTYPE svg PUBLIC "-//W3C//DTD SVG 1.1//EN"
 "http://www.w3.org/Graphics/SVG/1.1/DTD/svg11.dtd">
<!-- Generated by graphviz version 2.30.1 (20200304.1809)
 -->
<!-- Title: gl3::RenderParams Pages: 1 -->
<!--zoomable 262 -->
<svg id="main" version="1.1" xmlns="http://www.w3.org/2000/svg" xmlns:xlink="http://www.w3.org/1999/xlink" xml:space="preserve" onload="init(evt)">
<style type="text/css"><![CDATA[
.edge:hover path { stroke: red; }
.edge:hover polygon { stroke: red; fill: red; }
]]></style>
<script type="text/javascript"><![CDATA[
var edges = document.getElementsByTagName('g');
if (edges && edges.length) {
  for (var i=0;i<edges.length;i++) {
    if (edges[i].id.substr(0,4)=='edge') {
      edges[i].setAttribute('class','edge');
    }
  }
}
]]></script>
        <defs>
                <circle id="rim" cx="0" cy="0" r="7"/>
                <circle id="rim2" cx="0" cy="0" r="3.5"/>
                <g id="zoomPlus">
                        <use xlink:href="#rim" fill="#404040">
                                <set attributeName="fill" to="#808080" begin="zoomplus.mouseover" end="zoomplus.mouseout"/>
                        </use>
                        <path d="M-4,0h8M0,-4v8" fill="none" stroke="white" stroke-width="1.5" pointer-events="none"/>
                </g>
                <g id="zoomMin">
                        <use xlink:href="#rim" fill="#404040">
                                <set attributeName="fill" to="#808080" begin="zoomminus.mouseover" end="zoomminus.mouseout"/>
                        </use>
                        <path d="M-4,0h8" fill="none" stroke="white" stroke-width="1.5" pointer-events="none"/>
                </g>
                <g id="dirArrow">
                        <path fill="none" stroke="white" stroke-width="1.5" d="M0,-3.0v7 M-2.5,-0.5L0,-3.0L2.5,-0.5"/>
                </g>
               <g id="resetDef">
                       <use xlink:href="#rim2" fill="#404040">
                               <set attributeName="fill" to="#808080" begin="reset.mouseover" end="reset.mouseout"/>
                       </use>
               </g>
        </defs>

<script type="text/javascript">
var viewWidth = 764;
var viewHeight = 262;
var sectionId = 'dynsection-0';
</script>
<script xlink:href="svgpan.js"/>
<svg id="graph" class="graph">
<g id="viewport">
<title>gl3::RenderParams</title>
<polygon fill="white" stroke="white" points="-4,5 -4,-258 761,-258 761,5 -4,5"/>
<!-- Node1 -->
<g id="node1" class="node"><title>Node1</title>
<polygon fill="#bfbfbf" stroke="black" points="604,-97.5 604,-120.5 756,-120.5 756,-97.5 604,-97.5"/>
<text text-anchor="middle" x="680" y="-105.3" font-family="Helvetica,sans-Serif" font-size="14.00">gl3::RenderParams</text>
</g>
<!-- Node2 -->
<g id="node2" class="node"><title>Node2</title>
<g id="a_node2"><a xlink:href="structMaterial.html" target="_top" xlink:title="Material">
<polygon fill="white" stroke="black" points="326,-213.5 326,-236.5 400,-236.5 400,-213.5 326,-213.5"/>
<text text-anchor="middle" x="363" y="-221.3" font-family="Helvetica,sans-Serif" font-size="14.00">Material</text>
</a>
</g>
</g>
<!-- Node2&#45;&gt;Node1 -->
<g id="edge1" class="edge"><title>Node2&#45;&gt;Node1</title>
<path fill="none" stroke="#9a32cd" stroke-dasharray="5,2" d="M410.116,-221.386C456.331,-216.42 528.653,-204.938 586,-179 618.59,-164.259 650.572,-136.439 667.208,-120.673"/>
<polygon fill="#9a32cd" stroke="#9a32cd" points="409.691,-217.911 400.096,-222.404 410.399,-224.875 409.691,-217.911"/>
<text text-anchor="middle" x="530" y="-213.8" font-family="Helvetica,sans-Serif" font-size="14.00"> mesh_material</text>
</g>
<!-- Node3 -->
<g id="node3" class="node"><title>Node3</title>
<polygon fill="white" stroke="#bfbfbf" points="0.5,-176.5 0.5,-199.5 169.5,-199.5 169.5,-176.5 0.5,-176.5"/>
<text text-anchor="middle" x="85" y="-184.3" font-family="Helvetica,sans-Serif" font-size="14.00">std::array&lt; float, 4 &gt;</text>
</g>
<!-- Node3&#45;&gt;Node2 -->
<g id="edge2" class="edge"><title>Node3&#45;&gt;Node2</title>
<path fill="none" stroke="#9a32cd" stroke-dasharray="5,2" d="M179.481,-200.532C229.731,-207.268 288.801,-215.187 325.826,-220.151"/>
<polygon fill="#9a32cd" stroke="#9a32cd" points="179.935,-197.061 169.558,-199.202 179.004,-203.999 179.935,-197.061"/>
<text text-anchor="middle" x="220" y="-242.8" font-family="Helvetica,sans-Serif" font-size="14.00"> ambient</text>
<text text-anchor="middle" x="220" y="-227.8" font-family="Helvetica,sans-Serif" font-size="14.00">diffuse</text>
<text text-anchor="middle" x="220" y="-212.8" font-family="Helvetica,sans-Serif" font-size="14.00">specular</text>
</g>
<!-- Node3&#45;&gt;Node1 -->
<g id="edge6" class="edge"><title>Node3&#45;&gt;Node1</title>
<path fill="none" stroke="#9a32cd" stroke-dasharray="5,2" d="M180.047,-179.041C280.788,-168.902 445.196,-150.792 586,-128 599.177,-125.867 613.326,-123.182 626.512,-120.507"/>
<polygon fill="#9a32cd" stroke="#9a32cd" points="179.498,-175.578 169.897,-180.057 180.196,-182.544 179.498,-175.578"/>
<text text-anchor="middle" x="363" y="-188.8" font-family="Helvetica,sans-Serif" font-size="14.00"> light_amb_scene</text>
<text text-anchor="middle" x="363" y="-173.8" font-family="Helvetica,sans-Serif" font-size="14.00">static_color</text>
</g>
<!-- Node4 -->
<g id="node4" class="node"><title>Node4</title>
<polygon fill="white" stroke="#bfbfbf" points="292,-90 292,-128 434,-128 434,-90 292,-90"/>
<text text-anchor="start" x="300" y="-112.8" font-family="Helvetica,sans-Serif" font-size="14.00">std::array&lt; Light,</text>
<text text-anchor="middle" x="363" y="-97.8" font-family="Helvetica,sans-Serif" font-size="14.00"> LIGHTS_MAX &gt;</text>
</g>
<!-- Node4&#45;&gt;Node1 -->
<g id="edge3" class="edge"><title>Node4&#45;&gt;Node1</title>
<path fill="none" stroke="#9a32cd" stroke-dasharray="5,2" d="M444.563,-109C493.642,-109 555.934,-109 603.97,-109"/>
<polygon fill="#9a32cd" stroke="#9a32cd" points="444.3,-105.5 434.3,-109 444.3,-112.5 444.3,-105.5"/>
<text text-anchor="middle" x="530" y="-112.8" font-family="Helvetica,sans-Serif" font-size="14.00"> lights</text>
</g>
<!-- Node5 -->
<g id="node5" class="node"><title>Node5</title>
<polygon fill="white" stroke="#bfbfbf" points="270.5,-47.5 270.5,-70.5 455.5,-70.5 455.5,-47.5 270.5,-47.5"/>
<text text-anchor="middle" x="363" y="-55.3" font-family="Helvetica,sans-Serif" font-size="14.00">std::array&lt; double, 4 &gt;</text>
</g>
<!-- Node5&#45;&gt;Node1 -->
<g id="edge4" class="edge"><title>Node5&#45;&gt;Node1</title>
<path fill="none" stroke="#9a32cd" stroke-dasharray="5,2" d="M465.746,-71.8427C503.585,-76.9774 546.832,-83.271 586,-90 598.831,-92.2043 612.599,-94.8575 625.504,-97.4726"/>
<polygon fill="#9a32cd" stroke="#9a32cd" points="466.117,-68.361 455.739,-70.4944 465.182,-75.2983 466.117,-68.361"/>
<text text-anchor="middle" x="530" y="-93.8" font-family="Helvetica,sans-Serif" font-size="14.00"> clip_plane_eqn</text>
</g>
<!-- Node6 -->
<g id="node6" class="node"><title>Node6</title>
<g id="a_node6"><a xlink:href="structgl3_1_1GlMatrix.html" target="_top" xlink:title="gl3::GlMatrix">
<polygon fill="white" stroke="black" points="309.5,-0.5 309.5,-23.5 416.5,-23.5 416.5,-0.5 309.5,-0.5"/>
<text text-anchor="middle" x="363" y="-8.3" font-family="Helvetica,sans-Serif" font-size="14.00">gl3::GlMatrix</text>
</a>
</g>
</g>
<!-- Node6&#45;&gt;Node1 -->
<g id="edge5" class="edge"><title>Node6&#45;&gt;Node1</title>
<path fill="none" stroke="#9a32cd" stroke-dasharray="5,2" d="M426.624,-11.4897C472.302,-13.0957 534.891,-19.4744 586,-40 619.208,-53.3366 651.198,-81.4857 667.609,-97.4009"/>
<polygon fill="#9a32cd" stroke="#9a32cd" points="426.658,-7.98939 416.563,-11.2032 426.459,-14.9866 426.658,-7.98939"/>
<text text-anchor="middle" x="530" y="-58.8" font-family="Helvetica,sans-Serif" font-size="14.00"> projection</text>
<text text-anchor="middle" x="530" y="-43.8" font-family="Helvetica,sans-Serif" font-size="14.00">model_view</text>
</g>
</g>
</svg>
        <g id="navigator" transform="translate(0 0)" fill="#404254">
                <rect fill="#f2f5e9" fill-opacity="0.5" stroke="#606060" stroke-width=".5" x="0" y="0" width="60" height="60"/>
                <use id="zoomplus" xlink:href="#zoomPlus" x="17" y="9" onmousedown="handleZoom(evt,'in')"/>
                <use id="zoomminus" xlink:href="#zoomMin" x="42" y="9" onmousedown="handleZoom(evt,'out')"/>
                <use id="reset" xlink:href="#resetDef" x="30" y="36" onmousedown="handleReset()"/>
                <g id="arrowUp" xlink:href="#dirArrow" transform="translate(30 24)" onmousedown="handlePan(0,-1)">
                  <use xlink:href="#rim" fill="#404040">
                        <set attributeName="fill" to="#808080" begin="arrowUp.mouseover" end="arrowUp.mouseout"/>
                  </use>
                  <path fill="none" stroke="white" stroke-width="1.5" d="M0,-3.0v7 M-2.5,-0.5L0,-3.0L2.5,-0.5"/>
                </g>
                <g id="arrowRight" xlink:href="#dirArrow" transform="rotate(90) translate(36 -43)" onmousedown="handlePan(1,0)">
                  <use xlink:href="#rim" fill="#404040">
                        <set attributeName="fill" to="#808080" begin="arrowRight.mouseover" end="arrowRight.mouseout"/>
                  </use>
                  <path fill="none" stroke="white" stroke-width="1.5" d="M0,-3.0v7 M-2.5,-0.5L0,-3.0L2.5,-0.5"/>
                </g>
                <g id="arrowDown" xlink:href="#dirArrow" transform="rotate(180) translate(-30 -48)" onmousedown="handlePan(0,1)">
                  <use xlink:href="#rim" fill="#404040">
                        <set attributeName="fill" to="#808080" begin="arrowDown.mouseover" end="arrowDown.mouseout"/>
                  </use>
                  <path fill="none" stroke="white" stroke-width="1.5" d="M0,-3.0v7 M-2.5,-0.5L0,-3.0L2.5,-0.5"/>
                </g>
                <g id="arrowLeft" xlink:href="#dirArrow" transform="rotate(270) translate(-36 17)" onmousedown="handlePan(-1,0)">
                  <use xlink:href="#rim" fill="#404040">
                        <set attributeName="fill" to="#808080" begin="arrowLeft.mouseover" end="arrowLeft.mouseout"/>
                  </use>
                  <path fill="none" stroke="white" stroke-width="1.5" d="M0,-3.0v7 M-2.5,-0.5L0,-3.0L2.5,-0.5"/>
                </g>
        </g>
        <svg viewBox="0 0 15 15" width="100%" height="30px" preserveAspectRatio="xMaxYMin meet">
         <g id="arrow_out" transform="scale(0.3 0.3)">
          <a xlink:href="structgl3_1_1RenderParams__coll__graph_org.svg" target="_base">
           <rect id="button" ry="5" rx="5" y="6" x="6" height="38" width="38"
                fill="#f2f5e9" fill-opacity="0.5" stroke="#606060" stroke-width="1.0"/>
           <path id="arrow"
             d="M 11.500037,31.436501 C 11.940474,20.09759 22.043105,11.32322 32.158766,21.979434 L 37.068811,17.246167 C 37.068811,17.246167 37.088388,32 37.088388,32 L 22.160133,31.978069 C 22.160133,31.978069 26.997745,27.140456 26.997745,27.140456 C 18.528582,18.264221 13.291696,25.230495 11.500037,31.436501 z"
             style="fill:#404040;"/>
          </a>
         </g>
        </svg>
</svg>
