<?xml version="1.0" encoding="UTF-8" standalone="no"?>
<!DOCTYPE svg PUBLIC "-//W3C//DTD SVG 1.1//EN"
 "http://www.w3.org/Graphics/SVG/1.1/DTD/svg11.dtd">
<!-- Generated by graphviz version 2.44.1 (20200629.0846)
 -->
<!-- Title: gl3::RenderParams Pages: 1 -->
<!--zoomable 245 -->
<svg id="main" version="1.1" xmlns="http://www.w3.org/2000/svg" xmlns:xlink="http://www.w3.org/1999/xlink" xml:space="preserve" onload="init(evt)">
<style type="text/css"><![CDATA[
.edge:hover path { stroke: red; }
.edge:hover polygon { stroke: red; fill: red; }
]]></style>
<script type="text/javascript"><![CDATA[
var edges = document.getElementsByTagName('g');
if (edges && edges.length) {
  for (var i=0;i<edges.length;i++) {
    if (edges[i].id.substr(0,4)=='edge') {
      edges[i].setAttribute('class','edge');
    }
  }
}
]]></script>
        <defs>
                <circle id="rim" cx="0" cy="0" r="7"/>
                <circle id="rim2" cx="0" cy="0" r="3.5"/>
                <g id="zoomPlus">
                        <use xlink:href="#rim" fill="#404040">
                                <set attributeName="fill" to="#808080" begin="zoomplus.mouseover" end="zoomplus.mouseout"/>
                        </use>
                        <path d="M-4,0h8M0,-4v8" fill="none" stroke="white" stroke-width="1.5" pointer-events="none"/>
                </g>
                <g id="zoomMin">
                        <use xlink:href="#rim" fill="#404040">
                                <set attributeName="fill" to="#808080" begin="zoomminus.mouseover" end="zoomminus.mouseout"/>
                        </use>
                        <path d="M-4,0h8" fill="none" stroke="white" stroke-width="1.5" pointer-events="none"/>
                </g>
                <g id="dirArrow">
                        <path fill="none" stroke="white" stroke-width="1.5" d="M0,-3.0v7 M-2.5,-0.5L0,-3.0L2.5,-0.5"/>
                </g>
               <g id="resetDef">
                       <use xlink:href="#rim2" fill="#404040">
                               <set attributeName="fill" to="#808080" begin="reset.mouseover" end="reset.mouseout"/>
                       </use>
               </g>
        </defs>

<script type="text/javascript">
var viewWidth = 651;
var viewHeight = 245;
var sectionId = 'dynsection-0';
</script>
<script xlink:href="svgpan.js"/>
<svg id="graph" class="graph">
<g id="viewport">
<title>gl3::RenderParams</title>
<polygon fill="white" stroke="transparent" points="-4,4 -4,-241 647,-241 647,4 -4,4"/>
<!-- Node1 -->
<g id="node1" class="node">
<title>Node1</title>
<g id="a_node1"><a xlink:title=" ">
<polygon fill="#bfbfbf" stroke="black" points="509,-97.5 509,-120.5 643,-120.5 643,-97.5 509,-97.5"/>
<text text-anchor="middle" x="576" y="-105.3" font-family="Helvetica,sans-Serif" font-size="14.00">gl3::RenderParams</text>
</a>
</g>
</g>
<!-- Node2 -->
<g id="node2" class="node">
<title>Node2</title>
<g id="a_node2"><a xlink:href="structMaterial.html" target="_top" xlink:title=" ">
<polygon fill="white" stroke="black" points="269.5,-147.5 269.5,-170.5 334.5,-170.5 334.5,-147.5 269.5,-147.5"/>
<text text-anchor="middle" x="302" y="-155.3" font-family="Helvetica,sans-Serif" font-size="14.00">Material</text>
</a>
</g>
</g>
<!-- Node2&#45;&gt;Node1 -->
<g id="edge1" class="edge">
<title>Node2&#45;&gt;Node1</title>
<path fill="none" stroke="#9a32cd" stroke-dasharray="5,2" d="M344.93,-152.81C383.11,-147 441,-137.77 491,-128 502.45,-125.76 514.72,-123.13 526.24,-120.54"/>
<polygon fill="#9a32cd" stroke="#9a32cd" points="344.07,-149.4 334.7,-154.36 345.11,-156.32 344.07,-149.4"/>
<text text-anchor="middle" x="443.5" y="-147.8" font-family="Helvetica,sans-Serif" font-size="14.00"> mesh_material</text>
</g>
<!-- Node3 -->
<g id="node3" class="node">
<title>Node3</title>
<g id="a_node3"><a xlink:title=" ">
<polygon fill="white" stroke="#bfbfbf" points="0,-171.5 0,-194.5 137,-194.5 137,-171.5 0,-171.5"/>
<text text-anchor="middle" x="68.5" y="-179.3" font-family="Helvetica,sans-Serif" font-size="14.00">std::array&lt; float, 4 &gt;</text>
</a>
</g>
</g>
<!-- Node3&#45;&gt;Node1 -->
<g id="edge6" class="edge">
<title>Node3&#45;&gt;Node1</title>
<path fill="none" stroke="#9a32cd" stroke-dasharray="5,2" d="M132.76,-196.19C140.23,-197.34 147.76,-198.33 155,-199 304.55,-212.87 350.46,-215.95 491,-163 517.93,-152.85 545.26,-133.16 561.14,-120.57"/>
<polygon fill="#9a32cd" stroke="#9a32cd" points="133.09,-192.7 122.65,-194.52 131.94,-199.6 133.09,-192.7"/>
<text text-anchor="middle" x="302" y="-225.8" font-family="Helvetica,sans-Serif" font-size="14.00"> light_amb_scene</text>
<text text-anchor="middle" x="302" y="-210.8" font-family="Helvetica,sans-Serif" font-size="14.00">static_color</text>
</g>
<!-- Node3&#45;&gt;Node2 -->
<g id="edge2" class="edge">
<title>Node3&#45;&gt;Node2</title>
<path fill="none" stroke="#9a32cd" stroke-dasharray="5,2" d="M105.67,-167.81C120.65,-162.29 138.38,-156.74 155,-154 194.04,-147.56 239.71,-150.83 269.44,-154.36"/>
<polygon fill="#9a32cd" stroke="#9a32cd" points="104.35,-164.56 96.26,-171.4 106.85,-171.1 104.35,-164.56"/>
<text text-anchor="middle" x="181.5" y="-187.8" font-family="Helvetica,sans-Serif" font-size="14.00"> ambient</text>
<text text-anchor="middle" x="181.5" y="-172.8" font-family="Helvetica,sans-Serif" font-size="14.00">diffuse</text>
<text text-anchor="middle" x="181.5" y="-157.8" font-family="Helvetica,sans-Serif" font-size="14.00">specular</text>
</g>
<!-- Node4 -->
<g id="node4" class="node">
<title>Node4</title>
<g id="a_node4"><a xlink:title=" ">
<polygon fill="white" stroke="#bfbfbf" points="242.5,-90 242.5,-128 361.5,-128 361.5,-90 242.5,-90"/>
<text text-anchor="start" x="250.5" y="-112.8" font-family="Helvetica,sans-Serif" font-size="14.00">std::array&lt; Light,</text>
<text text-anchor="middle" x="302" y="-97.8" font-family="Helvetica,sans-Serif" font-size="14.00"> LIGHTS_MAX &gt;</text>
</a>
</g>
</g>
<!-- Node4&#45;&gt;Node1 -->
<g id="edge3" class="edge">
<title>Node4&#45;&gt;Node1</title>
<path fill="none" stroke="#9a32cd" stroke-dasharray="5,2" d="M371.83,-109C413.84,-109 467.26,-109 508.78,-109"/>
<polygon fill="#9a32cd" stroke="#9a32cd" points="371.69,-105.5 361.69,-109 371.69,-112.5 371.69,-105.5"/>
<text text-anchor="middle" x="443.5" y="-112.8" font-family="Helvetica,sans-Serif" font-size="14.00"> lights</text>
</g>
<!-- Node5 -->
<g id="node5" class="node">
<title>Node5</title>
<g id="a_node5"><a xlink:title=" ">
<polygon fill="white" stroke="#bfbfbf" points="226,-47.5 226,-70.5 378,-70.5 378,-47.5 226,-47.5"/>
<text text-anchor="middle" x="302" y="-55.3" font-family="Helvetica,sans-Serif" font-size="14.00">std::array&lt; double, 4 &gt;</text>
</a>
</g>
</g>
<!-- Node5&#45;&gt;Node1 -->
<g id="edge4" class="edge">
<title>Node5&#45;&gt;Node1</title>
<path fill="none" stroke="#9a32cd" stroke-dasharray="5,2" d="M388.48,-72C420.69,-77.19 457.6,-83.48 491,-90 502.45,-92.24 514.72,-94.87 526.24,-97.46"/>
<polygon fill="#9a32cd" stroke="#9a32cd" points="388.63,-68.48 378.2,-70.36 387.52,-75.39 388.63,-68.48"/>
<text text-anchor="middle" x="443.5" y="-93.8" font-family="Helvetica,sans-Serif" font-size="14.00"> clip_plane_eqn</text>
</g>
<!-- Node6 -->
<g id="node6" class="node">
<title>Node6</title>
<g id="a_node6"><a xlink:href="structgl3_1_1GlMatrix.html" target="_top" xlink:title=" ">
<polygon fill="white" stroke="black" points="255,-0.5 255,-23.5 349,-23.5 349,-0.5 255,-0.5"/>
<text text-anchor="middle" x="302" y="-8.3" font-family="Helvetica,sans-Serif" font-size="14.00">gl3::GlMatrix</text>
</a>
</g>
</g>
<!-- Node6&#45;&gt;Node1 -->
<g id="edge5" class="edge">
<title>Node6&#45;&gt;Node1</title>
<path fill="none" stroke="#9a32cd" stroke-dasharray="5,2" d="M359.38,-12.12C397.93,-14.08 449.38,-20.48 491,-39 521.87,-52.74 550.42,-81.21 564.96,-97.29"/>
<polygon fill="#9a32cd" stroke="#9a32cd" points="359.51,-8.63 349.37,-11.7 359.21,-15.62 359.51,-8.63"/>
<text text-anchor="middle" x="443.5" y="-57.8" font-family="Helvetica,sans-Serif" font-size="14.00"> projection</text>
<text text-anchor="middle" x="443.5" y="-42.8" font-family="Helvetica,sans-Serif" font-size="14.00">model_view</text>
</g>
</g>
</svg>
        <g id="navigator" transform="translate(0 0)" fill="#404254">
                <rect fill="#f2f5e9" fill-opacity="0.5" stroke="#606060" stroke-width=".5" x="0" y="0" width="60" height="60"/>
                <use id="zoomplus" xlink:href="#zoomPlus" x="17" y="9" onmousedown="handleZoom(evt,'in')"/>
                <use id="zoomminus" xlink:href="#zoomMin" x="42" y="9" onmousedown="handleZoom(evt,'out')"/>
                <use id="reset" xlink:href="#resetDef" x="30" y="36" onmousedown="handleReset()"/>
                <g id="arrowUp" xlink:href="#dirArrow" transform="translate(30 24)" onmousedown="handlePan(0,-1)">
                  <use xlink:href="#rim" fill="#404040">
                        <set attributeName="fill" to="#808080" begin="arrowUp.mouseover" end="arrowUp.mouseout"/>
                  </use>
                  <path fill="none" stroke="white" stroke-width="1.5" d="M0,-3.0v7 M-2.5,-0.5L0,-3.0L2.5,-0.5"/>
                </g>
                <g id="arrowRight" xlink:href="#dirArrow" transform="rotate(90) translate(36 -43)" onmousedown="handlePan(1,0)">
                  <use xlink:href="#rim" fill="#404040">
                        <set attributeName="fill" to="#808080" begin="arrowRight.mouseover" end="arrowRight.mouseout"/>
                  </use>
                  <path fill="none" stroke="white" stroke-width="1.5" d="M0,-3.0v7 M-2.5,-0.5L0,-3.0L2.5,-0.5"/>
                </g>
                <g id="arrowDown" xlink:href="#dirArrow" transform="rotate(180) translate(-30 -48)" onmousedown="handlePan(0,1)">
                  <use xlink:href="#rim" fill="#404040">
                        <set attributeName="fill" to="#808080" begin="arrowDown.mouseover" end="arrowDown.mouseout"/>
                  </use>
                  <path fill="none" stroke="white" stroke-width="1.5" d="M0,-3.0v7 M-2.5,-0.5L0,-3.0L2.5,-0.5"/>
                </g>
                <g id="arrowLeft" xlink:href="#dirArrow" transform="rotate(270) translate(-36 17)" onmousedown="handlePan(-1,0)">
                  <use xlink:href="#rim" fill="#404040">
                        <set attributeName="fill" to="#808080" begin="arrowLeft.mouseover" end="arrowLeft.mouseout"/>
                  </use>
                  <path fill="none" stroke="white" stroke-width="1.5" d="M0,-3.0v7 M-2.5,-0.5L0,-3.0L2.5,-0.5"/>
                </g>
        </g>
        <svg viewBox="0 0 15 15" width="100%" height="30px" preserveAspectRatio="xMaxYMin meet">
         <g id="arrow_out" transform="scale(0.3 0.3)">
          <a xlink:href="structgl3_1_1RenderParams__coll__graph_org.svg" target="_base">
           <rect id="button" ry="5" rx="5" y="6" x="6" height="38" width="38"
                fill="#f2f5e9" fill-opacity="0.5" stroke="#606060" stroke-width="1.0"/>
           <path id="arrow"
             d="M 11.500037,31.436501 C 11.940474,20.09759 22.043105,11.32322 32.158766,21.979434 L 37.068811,17.246167 C 37.068811,17.246167 37.088388,32 37.088388,32 L 22.160133,31.978069 C 22.160133,31.978069 26.997745,27.140456 26.997745,27.140456 C 18.528582,18.264221 13.291696,25.230495 11.500037,31.436501 z"
             style="fill:#404040;"/>
          </a>
         </g>
        </svg>
</svg>
