<?xml version="1.0" encoding="UTF-8" standalone="no"?>
<!DOCTYPE svg PUBLIC "-//W3C//DTD SVG 1.1//EN"
 "http://www.w3.org/Graphics/SVG/1.1/DTD/svg11.dtd">
<!-- Generated by graphviz version 2.30.1 (20200304.1809)
 -->
<!-- Title: Material Pages: 1 -->
<svg width="176pt" height="138pt"
 viewBox="0.00 0.00 176.00 138.00" xmlns="http://www.w3.org/2000/svg" xmlns:xlink="http://www.w3.org/1999/xlink">
<g id="graph0" class="graph" transform="scale(1 1) rotate(0) translate(4 134)">
<title>Material</title>
<polygon fill="white" stroke="white" points="-4,5 -4,-134 173,-134 173,5 -4,5"/>
<!-- Node1 -->
<g id="node1" class="node"><title>Node1</title>
<polygon fill="#bfbfbf" stroke="black" points="47,-0.5 47,-23.5 121,-23.5 121,-0.5 47,-0.5"/>
<text text-anchor="middle" x="84" y="-8.3" font-family="Helvetica,sans-Serif" font-size="14.00">Material</text>
</g>
<!-- Node2 -->
<g id="node2" class="node"><title>Node2</title>
<polygon fill="white" stroke="#bfbfbf" points="-0.5,-106.5 -0.5,-129.5 168.5,-129.5 168.5,-106.5 -0.5,-106.5"/>
<text text-anchor="middle" x="84" y="-114.3" font-family="Helvetica,sans-Serif" font-size="14.00">std::array&lt; float, 4 &gt;</text>
</g>
<!-- Node2&#45;&gt;Node1 -->
<g id="edge1" class="edge"><title>Node2&#45;&gt;Node1</title>
<path fill="none" stroke="#9a32cd" stroke-dasharray="5,2" d="M84,-95.9835C84,-74.0186 84,-40.445 84,-23.5248"/>
<polygon fill="#9a32cd" stroke="#9a32cd" points="80.5001,-96.2619 84,-106.262 87.5001,-96.2619 80.5001,-96.2619"/>
<text text-anchor="middle" x="116" y="-76.3" font-family="Helvetica,sans-Serif" font-size="14.00"> ambient</text>
<text text-anchor="middle" x="116" y="-61.3" font-family="Helvetica,sans-Serif" font-size="14.00">diffuse</text>
<text text-anchor="middle" x="116" y="-46.3" font-family="Helvetica,sans-Serif" font-size="14.00">specular</text>
</g>
</g>
</svg>
