<?xml version="1.0" encoding="UTF-8" standalone="no"?>
<!DOCTYPE svg PUBLIC "-//W3C//DTD SVG 1.1//EN"
 "http://www.w3.org/Graphics/SVG/1.1/DTD/svg11.dtd">
<!-- Generated by graphviz version 2.30.1 (20200304.1809)
 -->
<!-- Title: gl3::FeedbackText Pages: 1 -->
<svg width="152pt" height="186pt"
 viewBox="0.00 0.00 152.00 186.00" xmlns="http://www.w3.org/2000/svg" xmlns:xlink="http://www.w3.org/1999/xlink">
<g id="graph0" class="graph" transform="scale(1 1) rotate(0) translate(4 182)">
<title>gl3::FeedbackText</title>
<polygon fill="white" stroke="white" points="-4,5 -4,-182 149,-182 149,5 -4,5"/>
<!-- Node1 -->
<g id="node1" class="node"><title>Node1</title>
<polygon fill="#bfbfbf" stroke="black" points="-0.5,-0.5 -0.5,-23.5 144.5,-23.5 144.5,-0.5 -0.5,-0.5"/>
<text text-anchor="middle" x="72" y="-8.3" font-family="Helvetica,sans-Serif" font-size="14.00">gl3::FeedbackText</text>
</g>
<!-- Node2 -->
<g id="node2" class="node"><title>Node2</title>
<g id="a_node2"><a xlink:title="STL class. ">
<polygon fill="white" stroke="#bfbfbf" points="28,-76.5 28,-99.5 116,-99.5 116,-76.5 28,-76.5"/>
<text text-anchor="middle" x="72" y="-84.3" font-family="Helvetica,sans-Serif" font-size="14.00">std::string</text>
</a>
</g>
</g>
<!-- Node2&#45;&gt;Node1 -->
<g id="edge1" class="edge"><title>Node2&#45;&gt;Node1</title>
<path fill="none" stroke="#9a32cd" stroke-dasharray="5,2" d="M72,-66.2771C72,-52.3872 72,-34.675 72,-23.5827"/>
<polygon fill="#9a32cd" stroke="#9a32cd" points="68.5001,-66.3976 72,-76.3976 75.5001,-66.3976 68.5001,-66.3976"/>
<text text-anchor="middle" x="88.5" y="-46.3" font-family="Helvetica,sans-Serif" font-size="14.00"> text</text>
</g>
<!-- Node3 -->
<g id="node3" class="node"><title>Node3</title>
<polygon fill="white" stroke="#bfbfbf" points="0,-139 0,-177 144,-177 144,-139 0,-139"/>
<text text-anchor="start" x="8" y="-161.8" font-family="Helvetica,sans-Serif" font-size="14.00">std::basic_string&lt;</text>
<text text-anchor="middle" x="72" y="-146.8" font-family="Helvetica,sans-Serif" font-size="14.00"> char &gt;</text>
</g>
<!-- Node3&#45;&gt;Node2 -->
<g id="edge2" class="edge"><title>Node3&#45;&gt;Node2</title>
<path fill="none" stroke="midnightblue" d="M72,-128.599C72,-118.442 72,-107.6 72,-99.8335"/>
<polygon fill="midnightblue" stroke="midnightblue" points="68.5001,-128.777 72,-138.777 75.5001,-128.777 68.5001,-128.777"/>
</g>
</g>
</svg>
