<?xml version="1.0" encoding="UTF-8" standalone="no"?>
<!DOCTYPE svg PUBLIC "-//W3C//DTD SVG 1.1//EN"
 "http://www.w3.org/Graphics/SVG/1.1/DTD/svg11.dtd">
<!-- Generated by graphviz version 2.30.1 (20200304.1809)
 -->
<!-- Title: glTF_Builder::node_type&lt; T &gt; Pages: 1 -->
<svg width="204pt" height="202pt"
 viewBox="0.00 0.00 204.00 202.00" xmlns="http://www.w3.org/2000/svg" xmlns:xlink="http://www.w3.org/1999/xlink">
<g id="graph0" class="graph" transform="scale(1 1) rotate(0) translate(4 198)">
<title>glTF_Builder::node_type&lt; T &gt;</title>
<polygon fill="white" stroke="white" points="-4,5 -4,-198 201,-198 201,5 -4,5"/>
<!-- Node1 -->
<g id="node1" class="node"><title>Node1</title>
<polygon fill="#bfbfbf" stroke="black" points="47.5,-1 47.5,-39 196.5,-39 196.5,-1 47.5,-1"/>
<text text-anchor="start" x="55.5" y="-23.8" font-family="Helvetica,sans-Serif" font-size="14.00">glTF_Builder::node</text>
<text text-anchor="middle" x="122" y="-8.8" font-family="Helvetica,sans-Serif" font-size="14.00">_type&lt; T &gt;</text>
</g>
<!-- Node2 -->
<g id="node2" class="node"><title>Node2</title>
<g id="a_node2"><a xlink:title="STL class. ">
<polygon fill="white" stroke="#bfbfbf" points="28,-92.5 28,-115.5 116,-115.5 116,-92.5 28,-92.5"/>
<text text-anchor="middle" x="72" y="-100.3" font-family="Helvetica,sans-Serif" font-size="14.00">std::string</text>
</a>
</g>
</g>
<!-- Node2&#45;&gt;Node1 -->
<g id="edge1" class="edge"><title>Node2&#45;&gt;Node1</title>
<path fill="none" stroke="#9a32cd" stroke-dasharray="5,2" d="M83.9545,-83.3946C92.1274,-69.9911 102.884,-52.3497 110.874,-39.2462"/>
<polygon fill="#9a32cd" stroke="#9a32cd" points="80.7545,-81.9198 78.5366,-92.2799 86.731,-85.5641 80.7545,-81.9198"/>
<text text-anchor="middle" x="114" y="-62.3" font-family="Helvetica,sans-Serif" font-size="14.00"> key</text>
</g>
<!-- Node3 -->
<g id="node3" class="node"><title>Node3</title>
<polygon fill="white" stroke="#bfbfbf" points="0,-155 0,-193 144,-193 144,-155 0,-155"/>
<text text-anchor="start" x="8" y="-177.8" font-family="Helvetica,sans-Serif" font-size="14.00">std::basic_string&lt;</text>
<text text-anchor="middle" x="72" y="-162.8" font-family="Helvetica,sans-Serif" font-size="14.00"> char &gt;</text>
</g>
<!-- Node3&#45;&gt;Node2 -->
<g id="edge2" class="edge"><title>Node3&#45;&gt;Node2</title>
<path fill="none" stroke="midnightblue" d="M72,-144.599C72,-134.442 72,-123.6 72,-115.834"/>
<polygon fill="midnightblue" stroke="midnightblue" points="68.5001,-144.777 72,-154.777 75.5001,-144.777 68.5001,-144.777"/>
</g>
<!-- Node4 -->
<g id="node4" class="node"><title>Node4</title>
<polygon fill="white" stroke="#bfbfbf" points="134.5,-92.5 134.5,-115.5 163.5,-115.5 163.5,-92.5 134.5,-92.5"/>
<text text-anchor="middle" x="149" y="-100.3" font-family="Helvetica,sans-Serif" font-size="14.00">T</text>
</g>
<!-- Node4&#45;&gt;Node1 -->
<g id="edge3" class="edge"><title>Node4&#45;&gt;Node1</title>
<path fill="none" stroke="#9a32cd" stroke-dasharray="5,2" d="M142.286,-82.609C137.906,-69.3077 132.239,-52.0953 128.008,-39.2462"/>
<polygon fill="#9a32cd" stroke="#9a32cd" points="139.018,-83.8762 145.47,-92.2799 145.667,-81.6869 139.018,-83.8762"/>
<text text-anchor="middle" x="161" y="-62.3" font-family="Helvetica,sans-Serif" font-size="14.00"> value</text>
</g>
</g>
</svg>
