<?xml version="1.0" encoding="UTF-8" standalone="no"?>
<!DOCTYPE svg PUBLIC "-//W3C//DTD SVG 1.1//EN"
 "http://www.w3.org/Graphics/SVG/1.1/DTD/svg11.dtd">
<!-- Generated by graphviz version 2.30.1 (20200304.1809)
 -->
<!-- Title: gl3::RenderParams Pages: 1 -->
<svg width="764pt" height="262pt"
 viewBox="0.00 0.00 764.00 262.00" xmlns="http://www.w3.org/2000/svg" xmlns:xlink="http://www.w3.org/1999/xlink">
<g id="graph0" class="graph" transform="scale(1 1) rotate(0) translate(4 258)">
<title>gl3::RenderParams</title>
<polygon fill="white" stroke="white" points="-4,5 -4,-258 761,-258 761,5 -4,5"/>
<!-- Node1 -->
<g id="node1" class="node"><title>Node1</title>
<polygon fill="#bfbfbf" stroke="black" points="604,-97.5 604,-120.5 756,-120.5 756,-97.5 604,-97.5"/>
<text text-anchor="middle" x="680" y="-105.3" font-family="Helvetica,sans-Serif" font-size="14.00">gl3::RenderParams</text>
</g>
<!-- Node2 -->
<g id="node2" class="node"><title>Node2</title>
<g id="a_node2"><a xlink:href="structMaterial.html" target="_top" xlink:title="Material">
<polygon fill="white" stroke="black" points="326,-213.5 326,-236.5 400,-236.5 400,-213.5 326,-213.5"/>
<text text-anchor="middle" x="363" y="-221.3" font-family="Helvetica,sans-Serif" font-size="14.00">Material</text>
</a>
</g>
</g>
<!-- Node2&#45;&gt;Node1 -->
<g id="edge1" class="edge"><title>Node2&#45;&gt;Node1</title>
<path fill="none" stroke="#9a32cd" stroke-dasharray="5,2" d="M410.116,-221.386C456.331,-216.42 528.653,-204.938 586,-179 618.59,-164.259 650.572,-136.439 667.208,-120.673"/>
<polygon fill="#9a32cd" stroke="#9a32cd" points="409.691,-217.911 400.096,-222.404 410.399,-224.875 409.691,-217.911"/>
<text text-anchor="middle" x="530" y="-213.8" font-family="Helvetica,sans-Serif" font-size="14.00"> mesh_material</text>
</g>
<!-- Node3 -->
<g id="node3" class="node"><title>Node3</title>
<polygon fill="white" stroke="#bfbfbf" points="0.5,-176.5 0.5,-199.5 169.5,-199.5 169.5,-176.5 0.5,-176.5"/>
<text text-anchor="middle" x="85" y="-184.3" font-family="Helvetica,sans-Serif" font-size="14.00">std::array&lt; float, 4 &gt;</text>
</g>
<!-- Node3&#45;&gt;Node2 -->
<g id="edge2" class="edge"><title>Node3&#45;&gt;Node2</title>
<path fill="none" stroke="#9a32cd" stroke-dasharray="5,2" d="M179.481,-200.532C229.731,-207.268 288.801,-215.187 325.826,-220.151"/>
<polygon fill="#9a32cd" stroke="#9a32cd" points="179.935,-197.061 169.558,-199.202 179.004,-203.999 179.935,-197.061"/>
<text text-anchor="middle" x="220" y="-242.8" font-family="Helvetica,sans-Serif" font-size="14.00"> ambient</text>
<text text-anchor="middle" x="220" y="-227.8" font-family="Helvetica,sans-Serif" font-size="14.00">diffuse</text>
<text text-anchor="middle" x="220" y="-212.8" font-family="Helvetica,sans-Serif" font-size="14.00">specular</text>
</g>
<!-- Node3&#45;&gt;Node1 -->
<g id="edge6" class="edge"><title>Node3&#45;&gt;Node1</title>
<path fill="none" stroke="#9a32cd" stroke-dasharray="5,2" d="M180.047,-179.041C280.788,-168.902 445.196,-150.792 586,-128 599.177,-125.867 613.326,-123.182 626.512,-120.507"/>
<polygon fill="#9a32cd" stroke="#9a32cd" points="179.498,-175.578 169.897,-180.057 180.196,-182.544 179.498,-175.578"/>
<text text-anchor="middle" x="363" y="-188.8" font-family="Helvetica,sans-Serif" font-size="14.00"> light_amb_scene</text>
<text text-anchor="middle" x="363" y="-173.8" font-family="Helvetica,sans-Serif" font-size="14.00">static_color</text>
</g>
<!-- Node4 -->
<g id="node4" class="node"><title>Node4</title>
<polygon fill="white" stroke="#bfbfbf" points="292,-90 292,-128 434,-128 434,-90 292,-90"/>
<text text-anchor="start" x="300" y="-112.8" font-family="Helvetica,sans-Serif" font-size="14.00">std::array&lt; Light,</text>
<text text-anchor="middle" x="363" y="-97.8" font-family="Helvetica,sans-Serif" font-size="14.00"> LIGHTS_MAX &gt;</text>
</g>
<!-- Node4&#45;&gt;Node1 -->
<g id="edge3" class="edge"><title>Node4&#45;&gt;Node1</title>
<path fill="none" stroke="#9a32cd" stroke-dasharray="5,2" d="M444.563,-109C493.642,-109 555.934,-109 603.97,-109"/>
<polygon fill="#9a32cd" stroke="#9a32cd" points="444.3,-105.5 434.3,-109 444.3,-112.5 444.3,-105.5"/>
<text text-anchor="middle" x="530" y="-112.8" font-family="Helvetica,sans-Serif" font-size="14.00"> lights</text>
</g>
<!-- Node5 -->
<g id="node5" class="node"><title>Node5</title>
<polygon fill="white" stroke="#bfbfbf" points="270.5,-47.5 270.5,-70.5 455.5,-70.5 455.5,-47.5 270.5,-47.5"/>
<text text-anchor="middle" x="363" y="-55.3" font-family="Helvetica,sans-Serif" font-size="14.00">std::array&lt; double, 4 &gt;</text>
</g>
<!-- Node5&#45;&gt;Node1 -->
<g id="edge4" class="edge"><title>Node5&#45;&gt;Node1</title>
<path fill="none" stroke="#9a32cd" stroke-dasharray="5,2" d="M465.746,-71.8427C503.585,-76.9774 546.832,-83.271 586,-90 598.831,-92.2043 612.599,-94.8575 625.504,-97.4726"/>
<polygon fill="#9a32cd" stroke="#9a32cd" points="466.117,-68.361 455.739,-70.4944 465.182,-75.2983 466.117,-68.361"/>
<text text-anchor="middle" x="530" y="-93.8" font-family="Helvetica,sans-Serif" font-size="14.00"> clip_plane_eqn</text>
</g>
<!-- Node6 -->
<g id="node6" class="node"><title>Node6</title>
<g id="a_node6"><a xlink:href="structgl3_1_1GlMatrix.html" target="_top" xlink:title="gl3::GlMatrix">
<polygon fill="white" stroke="black" points="309.5,-0.5 309.5,-23.5 416.5,-23.5 416.5,-0.5 309.5,-0.5"/>
<text text-anchor="middle" x="363" y="-8.3" font-family="Helvetica,sans-Serif" font-size="14.00">gl3::GlMatrix</text>
</a>
</g>
</g>
<!-- Node6&#45;&gt;Node1 -->
<g id="edge5" class="edge"><title>Node6&#45;&gt;Node1</title>
<path fill="none" stroke="#9a32cd" stroke-dasharray="5,2" d="M426.624,-11.4897C472.302,-13.0957 534.891,-19.4744 586,-40 619.208,-53.3366 651.198,-81.4857 667.609,-97.4009"/>
<polygon fill="#9a32cd" stroke="#9a32cd" points="426.658,-7.98939 416.563,-11.2032 426.459,-14.9866 426.658,-7.98939"/>
<text text-anchor="middle" x="530" y="-58.8" font-family="Helvetica,sans-Serif" font-size="14.00"> projection</text>
<text text-anchor="middle" x="530" y="-43.8" font-family="Helvetica,sans-Serif" font-size="14.00">model_view</text>
</g>
</g>
</svg>
