<?xml version="1.0" encoding="UTF-8" standalone="no"?>
<!DOCTYPE svg PUBLIC "-//W3C//DTD SVG 1.1//EN"
 "http://www.w3.org/Graphics/SVG/1.1/DTD/svg11.dtd">
<!-- Generated by graphviz version 2.44.1 (20200629.0846)
 -->
<!-- Title: gl3::VertexTex Pages: 1 -->
<svg width="300pt" height="107pt"
 viewBox="0.00 0.00 300.00 107.00" xmlns="http://www.w3.org/2000/svg" xmlns:xlink="http://www.w3.org/1999/xlink">
<g id="graph0" class="graph" transform="scale(1 1) rotate(0) translate(4 103)">
<title>gl3::VertexTex</title>
<polygon fill="white" stroke="transparent" points="-4,4 -4,-103 296,-103 296,4 -4,4"/>
<!-- Node1 -->
<g id="node1" class="node">
<title>Node1</title>
<g id="a_node1"><a xlink:title=" ">
<polygon fill="#bfbfbf" stroke="black" points="94.5,-0.5 94.5,-23.5 196.5,-23.5 196.5,-0.5 94.5,-0.5"/>
<text text-anchor="middle" x="145.5" y="-8.3" font-family="Helvetica,sans-Serif" font-size="14.00">gl3::VertexTex</text>
</a>
</g>
</g>
<!-- Node2 -->
<g id="node2" class="node">
<title>Node2</title>
<g id="a_node2"><a xlink:title=" ">
<polygon fill="white" stroke="#bfbfbf" points="0,-75.5 0,-98.5 137,-98.5 137,-75.5 0,-75.5"/>
<text text-anchor="middle" x="68.5" y="-83.3" font-family="Helvetica,sans-Serif" font-size="14.00">std::array&lt; float, 2 &gt;</text>
</a>
</g>
</g>
<!-- Node2&#45;&gt;Node1 -->
<g id="edge1" class="edge">
<title>Node2&#45;&gt;Node1</title>
<path fill="none" stroke="#9a32cd" stroke-dasharray="5,2" d="M87.42,-68.06C102.15,-54.1 122.07,-35.21 134.34,-23.58"/>
<polygon fill="#9a32cd" stroke="#9a32cd" points="84.71,-65.81 79.86,-75.23 89.53,-70.89 84.71,-65.81"/>
<text text-anchor="middle" x="144" y="-45.8" font-family="Helvetica,sans-Serif" font-size="14.00"> texCoord</text>
</g>
<!-- Node3 -->
<g id="node3" class="node">
<title>Node3</title>
<g id="a_node3"><a xlink:title=" ">
<polygon fill="white" stroke="#bfbfbf" points="155,-75.5 155,-98.5 292,-98.5 292,-75.5 155,-75.5"/>
<text text-anchor="middle" x="223.5" y="-83.3" font-family="Helvetica,sans-Serif" font-size="14.00">std::array&lt; float, 3 &gt;</text>
</a>
</g>
</g>
<!-- Node3&#45;&gt;Node1 -->
<g id="edge2" class="edge">
<title>Node3&#45;&gt;Node1</title>
<path fill="none" stroke="#9a32cd" stroke-dasharray="5,2" d="M205.18,-68.26C196.79,-60.19 186.69,-50.56 177.5,-42 170.92,-35.87 163.47,-29.11 157.42,-23.67"/>
<polygon fill="#9a32cd" stroke="#9a32cd" points="202.98,-71 212.61,-75.43 207.84,-65.97 202.98,-71"/>
<text text-anchor="middle" x="211.5" y="-45.8" font-family="Helvetica,sans-Serif" font-size="14.00"> coord</text>
</g>
</g>
</svg>
