<?xml version="1.0" encoding="UTF-8" standalone="no"?>
<!DOCTYPE svg PUBLIC "-//W3C//DTD SVG 1.1//EN"
 "http://www.w3.org/Graphics/SVG/1.1/DTD/svg11.dtd">
<!-- Generated by graphviz version 2.30.1 (20200304.1809)
 -->
<!-- Title: gl3::AttrTexcoord&lt; TV, decltype((void) TV::texCoord, 0)&gt; Pages: 1 -->
<svg width="424pt" height="92pt"
 viewBox="0.00 0.00 424.00 92.00" xmlns="http://www.w3.org/2000/svg" xmlns:xlink="http://www.w3.org/1999/xlink">
<g id="graph0" class="graph" transform="scale(1 1) rotate(0) translate(4 88)">
<title>gl3::AttrTexcoord&lt; TV, decltype((void) TV::texCoord, 0)&gt;</title>
<polygon fill="white" stroke="white" points="-4,5 -4,-88 421,-88 421,5 -4,5"/>
<!-- Node1 -->
<g id="node1" class="node"><title>Node1</title>
<polygon fill="#bfbfbf" stroke="black" points="260.5,-15.5 260.5,-68.5 415.5,-68.5 415.5,-15.5 260.5,-15.5"/>
<text text-anchor="start" x="268.5" y="-53.3" font-family="Helvetica,sans-Serif" font-size="14.00">gl3::AttrTexcoord&lt;</text>
<text text-anchor="start" x="268.5" y="-38.3" font-family="Helvetica,sans-Serif" font-size="14.00"> TV, decltype((void)</text>
<text text-anchor="middle" x="338" y="-23.3" font-family="Helvetica,sans-Serif" font-size="14.00"> TV::texCoord, 0)&gt;</text>
</g>
<!-- Node2 -->
<g id="node2" class="node"><title>Node2</title>
<g id="a_node2"><a xlink:href="structgl3_1_1AttrBase.html" target="_top" xlink:title="gl3::AttrBase\&lt; TV,\l decltype(TV::texCoord)\l,&amp;TV::texCoord, AttrTexcoord\l\&lt; TV, decltype((void) TV::\ltexCoord, 0)\&gt; \&gt;">
<polygon fill="white" stroke="black" points="0,-0.5 0,-83.5 224,-83.5 224,-0.5 0,-0.5"/>
<text text-anchor="start" x="8" y="-68.3" font-family="Helvetica,sans-Serif" font-size="14.00">gl3::AttrBase&lt; TV,</text>
<text text-anchor="start" x="8" y="-53.3" font-family="Helvetica,sans-Serif" font-size="14.00"> decltype(TV::texCoord)</text>
<text text-anchor="start" x="8" y="-38.3" font-family="Helvetica,sans-Serif" font-size="14.00">,&amp;TV::texCoord, AttrTexcoord</text>
<text text-anchor="start" x="8" y="-23.3" font-family="Helvetica,sans-Serif" font-size="14.00">&lt; TV, decltype((void) TV::</text>
<text text-anchor="middle" x="112" y="-8.3" font-family="Helvetica,sans-Serif" font-size="14.00">texCoord, 0)&gt; &gt;</text>
</a>
</g>
</g>
<!-- Node2&#45;&gt;Node1 -->
<g id="edge1" class="edge"><title>Node2&#45;&gt;Node1</title>
<path fill="none" stroke="midnightblue" d="M234.114,-42C243.041,-42 251.889,-42 260.431,-42"/>
<polygon fill="midnightblue" stroke="midnightblue" points="234.016,-38.5001 224.016,-42 234.016,-45.5001 234.016,-38.5001"/>
</g>
</g>
</svg>
