<?xml version="1.0" encoding="UTF-8" standalone="no"?>
<!DOCTYPE svg PUBLIC "-//W3C//DTD SVG 1.1//EN"
 "http://www.w3.org/Graphics/SVG/1.1/DTD/svg11.dtd">
<!-- Generated by graphviz version 2.30.1 (20200304.1809)
 -->
<!-- Title: gl3::AttrNormal&lt; TV, decltype((void) TV::norm, 0)&gt; Pages: 1 -->
<svg width="390pt" height="92pt"
 viewBox="0.00 0.00 390.00 92.00" xmlns="http://www.w3.org/2000/svg" xmlns:xlink="http://www.w3.org/1999/xlink">
<g id="graph0" class="graph" transform="scale(1 1) rotate(0) translate(4 88)">
<title>gl3::AttrNormal&lt; TV, decltype((void) TV::norm, 0)&gt;</title>
<polygon fill="white" stroke="white" points="-4,5 -4,-88 387,-88 387,5 -4,5"/>
<!-- Node1 -->
<g id="node1" class="node"><title>Node1</title>
<polygon fill="#bfbfbf" stroke="black" points="216,-15.5 216,-68.5 382,-68.5 382,-15.5 216,-15.5"/>
<text text-anchor="start" x="224" y="-53.3" font-family="Helvetica,sans-Serif" font-size="14.00">gl3::AttrNormal&lt; TV,</text>
<text text-anchor="start" x="224" y="-38.3" font-family="Helvetica,sans-Serif" font-size="14.00"> decltype((void) TV</text>
<text text-anchor="middle" x="299" y="-23.3" font-family="Helvetica,sans-Serif" font-size="14.00">::norm, 0)&gt;</text>
</g>
<!-- Node2 -->
<g id="node2" class="node"><title>Node2</title>
<g id="a_node2"><a xlink:href="structgl3_1_1AttrBase.html" target="_top" xlink:title="gl3::AttrBase\&lt; TV,\l decltype(TV::norm),\l&amp;TV::norm, AttrNormal\l\&lt; TV, decltype((void)\l TV::norm, 0)\&gt; \&gt;">
<polygon fill="white" stroke="black" points="0,-0.5 0,-83.5 180,-83.5 180,-0.5 0,-0.5"/>
<text text-anchor="start" x="8" y="-68.3" font-family="Helvetica,sans-Serif" font-size="14.00">gl3::AttrBase&lt; TV,</text>
<text text-anchor="start" x="8" y="-53.3" font-family="Helvetica,sans-Serif" font-size="14.00"> decltype(TV::norm),</text>
<text text-anchor="start" x="8" y="-38.3" font-family="Helvetica,sans-Serif" font-size="14.00">&amp;TV::norm, AttrNormal</text>
<text text-anchor="start" x="8" y="-23.3" font-family="Helvetica,sans-Serif" font-size="14.00">&lt; TV, decltype((void)</text>
<text text-anchor="middle" x="90" y="-8.3" font-family="Helvetica,sans-Serif" font-size="14.00"> TV::norm, 0)&gt; &gt;</text>
</a>
</g>
</g>
<!-- Node2&#45;&gt;Node1 -->
<g id="edge1" class="edge"><title>Node2&#45;&gt;Node1</title>
<path fill="none" stroke="midnightblue" d="M190.305,-42C198.865,-42 207.463,-42 215.865,-42"/>
<polygon fill="midnightblue" stroke="midnightblue" points="190.289,-38.5001 180.289,-42 190.289,-45.5001 190.289,-38.5001"/>
</g>
</g>
</svg>
