<?xml version="1.0" encoding="UTF-8" standalone="no"?>
<!DOCTYPE svg PUBLIC "-//W3C//DTD SVG 1.1//EN"
 "http://www.w3.org/Graphics/SVG/1.1/DTD/svg11.dtd">
<!-- Generated by graphviz version 2.30.1 (20200304.1809)
 -->
<!-- Title: gl3::VertexNorm Pages: 1 -->
<svg width="176pt" height="122pt"
 viewBox="0.00 0.00 176.00 122.00" xmlns="http://www.w3.org/2000/svg" xmlns:xlink="http://www.w3.org/1999/xlink">
<g id="graph0" class="graph" transform="scale(1 1) rotate(0) translate(4 118)">
<title>gl3::VertexNorm</title>
<polygon fill="white" stroke="white" points="-4,5 -4,-118 173,-118 173,5 -4,5"/>
<!-- Node1 -->
<g id="node1" class="node"><title>Node1</title>
<polygon fill="#bfbfbf" stroke="black" points="17,-0.5 17,-23.5 151,-23.5 151,-0.5 17,-0.5"/>
<text text-anchor="middle" x="84" y="-8.3" font-family="Helvetica,sans-Serif" font-size="14.00">gl3::VertexNorm</text>
</g>
<!-- Node2 -->
<g id="node2" class="node"><title>Node2</title>
<polygon fill="white" stroke="#bfbfbf" points="-0.5,-90.5 -0.5,-113.5 168.5,-113.5 168.5,-90.5 -0.5,-90.5"/>
<text text-anchor="middle" x="84" y="-98.3" font-family="Helvetica,sans-Serif" font-size="14.00">std::array&lt; float, 3 &gt;</text>
</g>
<!-- Node2&#45;&gt;Node1 -->
<g id="edge1" class="edge"><title>Node2&#45;&gt;Node1</title>
<path fill="none" stroke="#9a32cd" stroke-dasharray="5,2" d="M84,-79.9639C84,-62.2023 84,-37.5043 84,-23.6039"/>
<polygon fill="#9a32cd" stroke="#9a32cd" points="80.5001,-80.2094 84,-90.2095 87.5001,-80.2095 80.5001,-80.2094"/>
<text text-anchor="middle" x="107" y="-60.8" font-family="Helvetica,sans-Serif" font-size="14.00"> coord</text>
<text text-anchor="middle" x="107" y="-45.8" font-family="Helvetica,sans-Serif" font-size="14.00">norm</text>
</g>
</g>
</svg>
