<?xml version="1.0" encoding="UTF-8" standalone="no"?>
<!DOCTYPE svg PUBLIC "-//W3C//DTD SVG 1.1//EN"
 "http://www.w3.org/Graphics/SVG/1.1/DTD/svg11.dtd">
<!-- Generated by graphviz version 2.30.1 (20200304.1809)
 -->
<!-- Title: glTF_Builder::pbr_matallic_roughness Pages: 1 -->
<svg width="405pt" height="124pt"
 viewBox="0.00 0.00 405.00 124.00" xmlns="http://www.w3.org/2000/svg" xmlns:xlink="http://www.w3.org/1999/xlink">
<g id="graph0" class="graph" transform="scale(1 1) rotate(0) translate(4 120)">
<title>glTF_Builder::pbr_matallic_roughness</title>
<polygon fill="white" stroke="white" points="-4,5 -4,-120 402,-120 402,5 -4,5"/>
<!-- Node1 -->
<g id="node1" class="node"><title>Node1</title>
<polygon fill="#bfbfbf" stroke="black" points="88.5,-1 88.5,-39 289.5,-39 289.5,-1 88.5,-1"/>
<text text-anchor="start" x="96.5" y="-23.8" font-family="Helvetica,sans-Serif" font-size="14.00">glTF_Builder::pbr_matallic</text>
<text text-anchor="middle" x="189" y="-8.8" font-family="Helvetica,sans-Serif" font-size="14.00">_roughness</text>
</g>
<!-- Node2 -->
<g id="node2" class="node"><title>Node2</title>
<g id="a_node2"><a xlink:href="structglTF__Builder_1_1texture__id.html" target="_top" xlink:title="glTF_Builder::texture_id">
<polygon fill="white" stroke="black" points="-0.5,-92.5 -0.5,-115.5 184.5,-115.5 184.5,-92.5 -0.5,-92.5"/>
<text text-anchor="middle" x="92" y="-100.3" font-family="Helvetica,sans-Serif" font-size="14.00">glTF_Builder::texture_id</text>
</a>
</g>
</g>
<!-- Node2&#45;&gt;Node1 -->
<g id="edge1" class="edge"><title>Node2&#45;&gt;Node1</title>
<path fill="none" stroke="#9a32cd" stroke-dasharray="5,2" d="M107.804,-84.7828C115.606,-76.2392 125.391,-66.1666 135,-58 142.794,-51.3764 151.782,-44.8369 160.161,-39.1411"/>
<polygon fill="#9a32cd" stroke="#9a32cd" points="105.055,-82.6055 101,-92.3936 110.274,-87.2708 105.055,-82.6055"/>
<text text-anchor="middle" x="200" y="-62.3" font-family="Helvetica,sans-Serif" font-size="14.00"> baseColorTexture</text>
</g>
<!-- Node3 -->
<g id="node3" class="node"><title>Node3</title>
<polygon fill="white" stroke="#bfbfbf" points="202.5,-92.5 202.5,-115.5 371.5,-115.5 371.5,-92.5 202.5,-92.5"/>
<text text-anchor="middle" x="287" y="-100.3" font-family="Helvetica,sans-Serif" font-size="14.00">std::array&lt; float, 4 &gt;</text>
</g>
<!-- Node3&#45;&gt;Node1 -->
<g id="edge2" class="edge"><title>Node3&#45;&gt;Node1</title>
<path fill="none" stroke="#9a32cd" stroke-dasharray="5,2" d="M280.387,-82.5864C276.866,-74.17 271.825,-64.8141 265,-58 257.419,-50.4312 247.981,-44.1704 238.363,-39.087"/>
<polygon fill="#9a32cd" stroke="#9a32cd" points="277.179,-84.0009 283.947,-92.1526 283.74,-81.5598 277.179,-84.0009"/>
<text text-anchor="middle" x="336.5" y="-62.3" font-family="Helvetica,sans-Serif" font-size="14.00"> baseColorFactor</text>
</g>
</g>
</svg>
