<?xml version="1.0" encoding="UTF-8" standalone="no"?>
<!DOCTYPE svg PUBLIC "-//W3C//DTD SVG 1.1//EN"
 "http://www.w3.org/Graphics/SVG/1.1/DTD/svg11.dtd">
<!-- Generated by graphviz version 2.30.1 (20200304.1809)
 -->
<!-- Title: glTF_Builder::struct_pbrMetallicRoughness Pages: 1 -->
<!--zoomable 206 -->
<svg id="main" version="1.1" xmlns="http://www.w3.org/2000/svg" xmlns:xlink="http://www.w3.org/1999/xlink" xml:space="preserve" onload="init(evt)">
<style type="text/css"><![CDATA[
.edge:hover path { stroke: red; }
.edge:hover polygon { stroke: red; fill: red; }
]]></style>
<script type="text/javascript"><![CDATA[
var edges = document.getElementsByTagName('g');
if (edges && edges.length) {
  for (var i=0;i<edges.length;i++) {
    if (edges[i].id.substr(0,4)=='edge') {
      edges[i].setAttribute('class','edge');
    }
  }
}
]]></script>
        <defs>
                <circle id="rim" cx="0" cy="0" r="7"/>
                <circle id="rim2" cx="0" cy="0" r="3.5"/>
                <g id="zoomPlus">
                        <use xlink:href="#rim" fill="#404040">
                                <set attributeName="fill" to="#808080" begin="zoomplus.mouseover" end="zoomplus.mouseout"/>
                        </use>
                        <path d="M-4,0h8M0,-4v8" fill="none" stroke="white" stroke-width="1.5" pointer-events="none"/>
                </g>
                <g id="zoomMin">
                        <use xlink:href="#rim" fill="#404040">
                                <set attributeName="fill" to="#808080" begin="zoomminus.mouseover" end="zoomminus.mouseout"/>
                        </use>
                        <path d="M-4,0h8" fill="none" stroke="white" stroke-width="1.5" pointer-events="none"/>
                </g>
                <g id="dirArrow">
                        <path fill="none" stroke="white" stroke-width="1.5" d="M0,-3.0v7 M-2.5,-0.5L0,-3.0L2.5,-0.5"/>
                </g>
               <g id="resetDef">
                       <use xlink:href="#rim2" fill="#404040">
                               <set attributeName="fill" to="#808080" begin="reset.mouseover" end="reset.mouseout"/>
                       </use>
               </g>
        </defs>

<script type="text/javascript">
var viewWidth = 1616;
var viewHeight = 206;
var sectionId = 'dynsection-0';
</script>
<script xlink:href="svgpan.js"/>
<svg id="graph" class="graph">
<g id="viewport">
<title>glTF_Builder::struct_pbrMetallicRoughness</title>
<polygon fill="white" stroke="white" points="-4,5 -4,-202 1613,-202 1613,5 -4,5"/>
<!-- Node1 -->
<g id="node1" class="node"><title>Node1</title>
<polygon fill="#bfbfbf" stroke="black" points="1428,-61 1428,-99 1608,-99 1608,-61 1428,-61"/>
<text text-anchor="start" x="1436" y="-83.8" font-family="Helvetica,sans-Serif" font-size="14.00">glTF_Builder::struct</text>
<text text-anchor="middle" x="1518" y="-68.8" font-family="Helvetica,sans-Serif" font-size="14.00">_pbrMetallicRoughness</text>
</g>
<!-- Node2 -->
<g id="node2" class="node"><title>Node2</title>
<g id="a_node2"><a xlink:href="structglTF__Builder_1_1node__type.html" target="_top" xlink:title="glTF_Builder::node\l_type\&lt; glTF_Builder\l::struct_texture_info \&gt;">
<polygon fill="white" stroke="black" points="1086,-53.5 1086,-106.5 1262,-106.5 1262,-53.5 1086,-53.5"/>
<text text-anchor="start" x="1094" y="-91.3" font-family="Helvetica,sans-Serif" font-size="14.00">glTF_Builder::node</text>
<text text-anchor="start" x="1094" y="-76.3" font-family="Helvetica,sans-Serif" font-size="14.00">_type&lt; glTF_Builder</text>
<text text-anchor="middle" x="1174" y="-61.3" font-family="Helvetica,sans-Serif" font-size="14.00">::struct_texture_info &gt;</text>
</a>
</g>
</g>
<!-- Node2&#45;&gt;Node1 -->
<g id="edge1" class="edge"><title>Node2&#45;&gt;Node1</title>
<path fill="none" stroke="#9a32cd" stroke-dasharray="5,2" d="M1272.46,-80C1321.37,-80 1380.19,-80 1427.89,-80"/>
<polygon fill="#9a32cd" stroke="#9a32cd" points="1272.19,-76.5001 1262.19,-80 1272.19,-83.5001 1272.19,-76.5001"/>
<text text-anchor="middle" x="1345" y="-83.8" font-family="Helvetica,sans-Serif" font-size="14.00"> baseColorTexture</text>
</g>
<!-- Node3 -->
<g id="node3" class="node"><title>Node3</title>
<g id="a_node3"><a xlink:title="STL class. ">
<polygon fill="white" stroke="#bfbfbf" points="223,-88.5 223,-111.5 311,-111.5 311,-88.5 223,-88.5"/>
<text text-anchor="middle" x="267" y="-96.3" font-family="Helvetica,sans-Serif" font-size="14.00">std::string</text>
</a>
</g>
</g>
<!-- Node3&#45;&gt;Node2 -->
<g id="edge2" class="edge"><title>Node3&#45;&gt;Node2</title>
<path fill="none" stroke="#9a32cd" stroke-dasharray="5,2" d="M321.248,-100.621C336.949,-100.777 354.166,-100.922 370,-101 389.555,-101.096 394.445,-101.09 414,-101 704.676,-99.6667 778.15,-116.936 1068,-95 1073.78,-94.5623 1079.73,-94.0052 1085.72,-93.3647"/>
<polygon fill="#9a32cd" stroke="#9a32cd" points="321.214,-97.1202 311.178,-100.517 321.141,-104.12 321.214,-97.1202"/>
<text text-anchor="middle" x="679" y="-109.8" font-family="Helvetica,sans-Serif" font-size="14.00"> key</text>
</g>
<!-- Node6 -->
<g id="node6" class="node"><title>Node6</title>
<g id="a_node6"><a xlink:href="structglTF__Builder_1_1node__type.html" target="_top" xlink:title="glTF_Builder::node\l_type\&lt; unsigned \&gt;">
<polygon fill="white" stroke="black" points="432,-48 432,-86 586,-86 586,-48 432,-48"/>
<text text-anchor="start" x="440" y="-70.8" font-family="Helvetica,sans-Serif" font-size="14.00">glTF_Builder::node</text>
<text text-anchor="middle" x="509" y="-55.8" font-family="Helvetica,sans-Serif" font-size="14.00">_type&lt; unsigned &gt;</text>
</a>
</g>
</g>
<!-- Node3&#45;&gt;Node6 -->
<g id="edge6" class="edge"><title>Node3&#45;&gt;Node6</title>
<path fill="none" stroke="#9a32cd" stroke-dasharray="5,2" d="M321.364,-92.6625C353.806,-88.2017 395.763,-82.4326 431.676,-77.4945"/>
<polygon fill="#9a32cd" stroke="#9a32cd" points="320.614,-89.2325 311.184,-94.0621 321.568,-96.1673 320.614,-89.2325"/>
<text text-anchor="middle" x="392" y="-89.8" font-family="Helvetica,sans-Serif" font-size="14.00"> key</text>
</g>
<!-- Node7 -->
<g id="node7" class="node"><title>Node7</title>
<g id="a_node7"><a xlink:href="structglTF__Builder_1_1node__type.html" target="_top" xlink:title="glTF_Builder::node\l_type\&lt; float \&gt;">
<polygon fill="white" stroke="black" points="604.5,-0 604.5,-38 753.5,-38 753.5,-0 604.5,-0"/>
<text text-anchor="start" x="612.5" y="-22.8" font-family="Helvetica,sans-Serif" font-size="14.00">glTF_Builder::node</text>
<text text-anchor="middle" x="679" y="-7.8" font-family="Helvetica,sans-Serif" font-size="14.00">_type&lt; float &gt;</text>
</a>
</g>
</g>
<!-- Node3&#45;&gt;Node7 -->
<g id="edge8" class="edge"><title>Node3&#45;&gt;Node7</title>
<path fill="none" stroke="#9a32cd" stroke-dasharray="5,2" d="M301.536,-84.0841C334.088,-69.4212 385.285,-48.4101 432,-38 488.966,-25.3054 554.978,-20.7416 604.27,-19.2496"/>
<polygon fill="#9a32cd" stroke="#9a32cd" points="299.701,-81.0744 292.059,-88.412 302.609,-87.442 299.701,-81.0744"/>
<text text-anchor="middle" x="392" y="-59.8" font-family="Helvetica,sans-Serif" font-size="14.00"> key</text>
</g>
<!-- Node8 -->
<g id="node8" class="node"><title>Node8</title>
<g id="a_node8"><a xlink:href="structglTF__Builder_1_1node__type.html" target="_top" xlink:title="glTF_Builder::node\l_type\&lt; color4f \&gt;">
<polygon fill="white" stroke="black" points="434.5,-144 434.5,-182 583.5,-182 583.5,-144 434.5,-144"/>
<text text-anchor="start" x="442.5" y="-166.8" font-family="Helvetica,sans-Serif" font-size="14.00">glTF_Builder::node</text>
<text text-anchor="middle" x="509" y="-151.8" font-family="Helvetica,sans-Serif" font-size="14.00">_type&lt; color4f &gt;</text>
</a>
</g>
</g>
<!-- Node3&#45;&gt;Node8 -->
<g id="edge10" class="edge"><title>Node3&#45;&gt;Node8</title>
<path fill="none" stroke="#9a32cd" stroke-dasharray="5,2" d="M321.268,-113.983C354.883,-122.807 398.74,-134.319 435.504,-143.97"/>
<polygon fill="#9a32cd" stroke="#9a32cd" points="321.745,-110.49 311.184,-111.336 319.968,-117.26 321.745,-110.49"/>
<text text-anchor="middle" x="392" y="-141.8" font-family="Helvetica,sans-Serif" font-size="14.00"> key</text>
</g>
<!-- Node4 -->
<g id="node4" class="node"><title>Node4</title>
<polygon fill="white" stroke="#bfbfbf" points="0,-81 0,-119 144,-119 144,-81 0,-81"/>
<text text-anchor="start" x="8" y="-103.8" font-family="Helvetica,sans-Serif" font-size="14.00">std::basic_string&lt;</text>
<text text-anchor="middle" x="72" y="-88.8" font-family="Helvetica,sans-Serif" font-size="14.00"> char &gt;</text>
</g>
<!-- Node4&#45;&gt;Node3 -->
<g id="edge3" class="edge"><title>Node4&#45;&gt;Node3</title>
<path fill="none" stroke="midnightblue" d="M154.071,-100C177.687,-100 202.57,-100 222.861,-100"/>
<polygon fill="midnightblue" stroke="midnightblue" points="154.044,-96.5001 144.044,-100 154.044,-103.5 154.044,-96.5001"/>
</g>
<!-- Node5 -->
<g id="node5" class="node"><title>Node5</title>
<g id="a_node5"><a xlink:href="structglTF__Builder_1_1struct__texture__info.html" target="_top" xlink:title="glTF_Builder::struct\l_texture_info">
<polygon fill="white" stroke="black" points="772,-48 772,-86 926,-86 926,-48 772,-48"/>
<text text-anchor="start" x="780" y="-70.8" font-family="Helvetica,sans-Serif" font-size="14.00">glTF_Builder::struct</text>
<text text-anchor="middle" x="849" y="-55.8" font-family="Helvetica,sans-Serif" font-size="14.00">_texture_info</text>
</a>
</g>
</g>
<!-- Node5&#45;&gt;Node2 -->
<g id="edge4" class="edge"><title>Node5&#45;&gt;Node2</title>
<path fill="none" stroke="#9a32cd" stroke-dasharray="5,2" d="M936.156,-70.4676C982.492,-72.3325 1039.49,-74.6266 1085.96,-76.4969"/>
<polygon fill="#9a32cd" stroke="#9a32cd" points="936.27,-66.9694 926.137,-70.0644 935.989,-73.9638 936.27,-66.9694"/>
<text text-anchor="middle" x="1006" y="-79.8" font-family="Helvetica,sans-Serif" font-size="14.00"> value</text>
</g>
<!-- Node6&#45;&gt;Node5 -->
<g id="edge5" class="edge"><title>Node6&#45;&gt;Node5</title>
<path fill="none" stroke="#9a32cd" stroke-dasharray="5,2" d="M596.29,-63.1852C598.889,-63.1161 601.464,-63.0539 604,-63 670.652,-61.5825 687.348,-61.5825 754,-63 759.797,-63.1233 765.794,-63.2893 771.824,-63.4838"/>
<polygon fill="#9a32cd" stroke="#9a32cd" points="596.068,-59.6901 586.176,-63.4838 596.275,-66.6871 596.068,-59.6901"/>
<text text-anchor="middle" x="679" y="-81.8" font-family="Helvetica,sans-Serif" font-size="14.00"> texCoord</text>
<text text-anchor="middle" x="679" y="-66.8" font-family="Helvetica,sans-Serif" font-size="14.00">index</text>
</g>
<!-- Node7&#45;&gt;Node1 -->
<g id="edge7" class="edge"><title>Node7&#45;&gt;Node1</title>
<path fill="none" stroke="#9a32cd" stroke-dasharray="5,2" d="M763.983,-20.0451C877.268,-22.0399 1085.23,-27.7645 1262,-44 1317.32,-49.0809 1379.01,-57.7101 1427.85,-65.2464"/>
<polygon fill="#9a32cd" stroke="#9a32cd" points="763.712,-16.5401 753.653,-19.869 763.592,-23.5391 763.712,-16.5401"/>
<text text-anchor="middle" x="1006" y="-49.8" font-family="Helvetica,sans-Serif" font-size="14.00"> roughnessFactor</text>
<text text-anchor="middle" x="1006" y="-34.8" font-family="Helvetica,sans-Serif" font-size="14.00">metallicFactor</text>
</g>
<!-- Node8&#45;&gt;Node1 -->
<g id="edge9" class="edge"><title>Node8&#45;&gt;Node1</title>
<path fill="none" stroke="#9a32cd" stroke-dasharray="5,2" d="M593.905,-159.181C732.951,-152.532 1019.84,-137.461 1262,-116 1327.95,-110.155 1344.49,-108.57 1410,-99 1415.79,-98.1546 1421.74,-97.2353 1427.74,-96.2725"/>
<polygon fill="#9a32cd" stroke="#9a32cd" points="593.569,-155.693 583.747,-159.664 593.902,-162.685 593.569,-155.693"/>
<text text-anchor="middle" x="1006" y="-143.8" font-family="Helvetica,sans-Serif" font-size="14.00"> baseColorFactor</text>
</g>
<!-- Node9 -->
<g id="node9" class="node"><title>Node9</title>
<polygon fill="white" stroke="#bfbfbf" points="182.5,-174.5 182.5,-197.5 351.5,-197.5 351.5,-174.5 182.5,-174.5"/>
<text text-anchor="middle" x="267" y="-182.3" font-family="Helvetica,sans-Serif" font-size="14.00">std::array&lt; float, 4 &gt;</text>
</g>
<!-- Node9&#45;&gt;Node8 -->
<g id="edge11" class="edge"><title>Node9&#45;&gt;Node8</title>
<path fill="none" stroke="#9a32cd" stroke-dasharray="5,2" d="M361.813,-177.01C385.875,-174.704 411.414,-172.256 434.299,-170.063"/>
<polygon fill="#9a32cd" stroke="#9a32cd" points="361.224,-173.55 351.603,-177.988 361.892,-180.518 361.224,-173.55"/>
<text text-anchor="middle" x="392" y="-179.8" font-family="Helvetica,sans-Serif" font-size="14.00"> value</text>
</g>
</g>
</svg>
        <g id="navigator" transform="translate(0 0)" fill="#404254">
                <rect fill="#f2f5e9" fill-opacity="0.5" stroke="#606060" stroke-width=".5" x="0" y="0" width="60" height="60"/>
                <use id="zoomplus" xlink:href="#zoomPlus" x="17" y="9" onmousedown="handleZoom(evt,'in')"/>
                <use id="zoomminus" xlink:href="#zoomMin" x="42" y="9" onmousedown="handleZoom(evt,'out')"/>
                <use id="reset" xlink:href="#resetDef" x="30" y="36" onmousedown="handleReset()"/>
                <g id="arrowUp" xlink:href="#dirArrow" transform="translate(30 24)" onmousedown="handlePan(0,-1)">
                  <use xlink:href="#rim" fill="#404040">
                        <set attributeName="fill" to="#808080" begin="arrowUp.mouseover" end="arrowUp.mouseout"/>
                  </use>
                  <path fill="none" stroke="white" stroke-width="1.5" d="M0,-3.0v7 M-2.5,-0.5L0,-3.0L2.5,-0.5"/>
                </g>
                <g id="arrowRight" xlink:href="#dirArrow" transform="rotate(90) translate(36 -43)" onmousedown="handlePan(1,0)">
                  <use xlink:href="#rim" fill="#404040">
                        <set attributeName="fill" to="#808080" begin="arrowRight.mouseover" end="arrowRight.mouseout"/>
                  </use>
                  <path fill="none" stroke="white" stroke-width="1.5" d="M0,-3.0v7 M-2.5,-0.5L0,-3.0L2.5,-0.5"/>
                </g>
                <g id="arrowDown" xlink:href="#dirArrow" transform="rotate(180) translate(-30 -48)" onmousedown="handlePan(0,1)">
                  <use xlink:href="#rim" fill="#404040">
                        <set attributeName="fill" to="#808080" begin="arrowDown.mouseover" end="arrowDown.mouseout"/>
                  </use>
                  <path fill="none" stroke="white" stroke-width="1.5" d="M0,-3.0v7 M-2.5,-0.5L0,-3.0L2.5,-0.5"/>
                </g>
                <g id="arrowLeft" xlink:href="#dirArrow" transform="rotate(270) translate(-36 17)" onmousedown="handlePan(-1,0)">
                  <use xlink:href="#rim" fill="#404040">
                        <set attributeName="fill" to="#808080" begin="arrowLeft.mouseover" end="arrowLeft.mouseout"/>
                  </use>
                  <path fill="none" stroke="white" stroke-width="1.5" d="M0,-3.0v7 M-2.5,-0.5L0,-3.0L2.5,-0.5"/>
                </g>
        </g>
        <svg viewBox="0 0 15 15" width="100%" height="30px" preserveAspectRatio="xMaxYMin meet">
         <g id="arrow_out" transform="scale(0.3 0.3)">
          <a xlink:href="structglTF__Builder_1_1struct__pbrMetallicRoughness__coll__graph_org.svg" target="_base">
           <rect id="button" ry="5" rx="5" y="6" x="6" height="38" width="38"
                fill="#f2f5e9" fill-opacity="0.5" stroke="#606060" stroke-width="1.0"/>
           <path id="arrow"
             d="M 11.500037,31.436501 C 11.940474,20.09759 22.043105,11.32322 32.158766,21.979434 L 37.068811,17.246167 C 37.068811,17.246167 37.088388,32 37.088388,32 L 22.160133,31.978069 C 22.160133,31.978069 26.997745,27.140456 26.997745,27.140456 C 18.528582,18.264221 13.291696,25.230495 11.500037,31.436501 z"
             style="fill:#404040;"/>
          </a>
         </g>
        </svg>
</svg>
