<?xml version="1.0" encoding="UTF-8" standalone="no"?>
<!DOCTYPE svg PUBLIC "-//W3C//DTD SVG 1.1//EN"
 "http://www.w3.org/Graphics/SVG/1.1/DTD/svg11.dtd">
<!-- Generated by graphviz version 2.30.1 (20200304.1809)
 -->
<!-- Title: StreamState Pages: 1 -->
<svg width="498pt" height="202pt"
 viewBox="0.00 0.00 498.00 202.00" xmlns="http://www.w3.org/2000/svg" xmlns:xlink="http://www.w3.org/1999/xlink">
<g id="graph0" class="graph" transform="scale(1 1) rotate(0) translate(4 198)">
<title>StreamState</title>
<polygon fill="white" stroke="white" points="-4,5 -4,-198 495,-198 495,5 -4,5"/>
<!-- Node1 -->
<g id="node1" class="node"><title>Node1</title>
<polygon fill="#bfbfbf" stroke="black" points="191.5,-0.5 191.5,-23.5 298.5,-23.5 298.5,-0.5 191.5,-0.5"/>
<text text-anchor="middle" x="245" y="-8.3" font-family="Helvetica,sans-Serif" font-size="14.00">StreamState</text>
</g>
<!-- Node2 -->
<g id="node2" class="node"><title>Node2</title>
<polygon fill="white" stroke="#bfbfbf" points="-0.5,-77 -0.5,-115 182.5,-115 182.5,-77 -0.5,-77"/>
<text text-anchor="start" x="7.5" y="-99.8" font-family="Helvetica,sans-Serif" font-size="14.00">std::unique_ptr&lt; mfem</text>
<text text-anchor="middle" x="91" y="-84.8" font-family="Helvetica,sans-Serif" font-size="14.00">::Mesh &gt;</text>
</g>
<!-- Node2&#45;&gt;Node1 -->
<g id="edge1" class="edge"><title>Node2&#45;&gt;Node1</title>
<path fill="none" stroke="#9a32cd" stroke-dasharray="5,2" d="M134.125,-72.0376C163.913,-56.1765 202.148,-35.8171 225.05,-23.6229"/>
<polygon fill="#9a32cd" stroke="#9a32cd" points="132.359,-69.0122 125.178,-76.8015 135.649,-75.1909 132.359,-69.0122"/>
<text text-anchor="middle" x="209.5" y="-46.3" font-family="Helvetica,sans-Serif" font-size="14.00"> mesh</text>
</g>
<!-- Node3 -->
<g id="node3" class="node"><title>Node3</title>
<g id="a_node3"><a xlink:title="STL class. ">
<polygon fill="white" stroke="#bfbfbf" points="201,-84.5 201,-107.5 289,-107.5 289,-84.5 201,-84.5"/>
<text text-anchor="middle" x="245" y="-92.3" font-family="Helvetica,sans-Serif" font-size="14.00">std::string</text>
</a>
</g>
</g>
<!-- Node3&#45;&gt;Node1 -->
<g id="edge2" class="edge"><title>Node3&#45;&gt;Node1</title>
<path fill="none" stroke="#9a32cd" stroke-dasharray="5,2" d="M245,-74.2026C245,-58.1141 245,-36.4925 245,-23.7227"/>
<polygon fill="#9a32cd" stroke="#9a32cd" points="241.5,-74.2799 245,-84.2799 248.5,-74.28 241.5,-74.2799"/>
<text text-anchor="middle" x="263.5" y="-46.3" font-family="Helvetica,sans-Serif" font-size="14.00"> keys</text>
</g>
<!-- Node4 -->
<g id="node4" class="node"><title>Node4</title>
<polygon fill="white" stroke="#bfbfbf" points="173,-155 173,-193 317,-193 317,-155 173,-155"/>
<text text-anchor="start" x="181" y="-177.8" font-family="Helvetica,sans-Serif" font-size="14.00">std::basic_string&lt;</text>
<text text-anchor="middle" x="245" y="-162.8" font-family="Helvetica,sans-Serif" font-size="14.00"> char &gt;</text>
</g>
<!-- Node4&#45;&gt;Node3 -->
<g id="edge3" class="edge"><title>Node4&#45;&gt;Node3</title>
<path fill="none" stroke="midnightblue" d="M245,-144.648C245,-131.719 245,-117.194 245,-107.617"/>
<polygon fill="midnightblue" stroke="midnightblue" points="241.5,-144.989 245,-154.989 248.5,-144.989 241.5,-144.989"/>
</g>
<!-- Node5 -->
<g id="node5" class="node"><title>Node5</title>
<polygon fill="white" stroke="#bfbfbf" points="307.5,-77 307.5,-115 490.5,-115 490.5,-77 307.5,-77"/>
<text text-anchor="start" x="315.5" y="-99.8" font-family="Helvetica,sans-Serif" font-size="14.00">std::unique_ptr&lt; mfem</text>
<text text-anchor="middle" x="399" y="-84.8" font-family="Helvetica,sans-Serif" font-size="14.00">::GridFunction &gt;</text>
</g>
<!-- Node5&#45;&gt;Node1 -->
<g id="edge4" class="edge"><title>Node5&#45;&gt;Node1</title>
<path fill="none" stroke="#9a32cd" stroke-dasharray="5,2" d="M355.875,-72.0376C326.087,-56.1765 287.852,-35.8171 264.95,-23.6229"/>
<polygon fill="#9a32cd" stroke="#9a32cd" points="354.351,-75.1909 364.822,-76.8015 357.641,-69.0122 354.351,-75.1909"/>
<text text-anchor="middle" x="350" y="-46.3" font-family="Helvetica,sans-Serif" font-size="14.00"> grid_f</text>
</g>
</g>
</svg>
