<?xml version="1.0" encoding="UTF-8" standalone="no"?>
<!DOCTYPE svg PUBLIC "-//W3C//DTD SVG 1.1//EN"
 "http://www.w3.org/Graphics/SVG/1.1/DTD/svg11.dtd">
<!-- Generated by graphviz version 2.44.1 (20200629.0846)
 -->
<!-- Title: gl3::VertexNormColor Pages: 1 -->
<svg width="316pt" height="122pt"
 viewBox="0.00 0.00 315.50 122.00" xmlns="http://www.w3.org/2000/svg" xmlns:xlink="http://www.w3.org/1999/xlink">
<g id="graph0" class="graph" transform="scale(1 1) rotate(0) translate(4 118)">
<title>gl3::VertexNormColor</title>
<polygon fill="white" stroke="transparent" points="-4,4 -4,-118 311.5,-118 311.5,4 -4,4"/>
<!-- Node1 -->
<g id="node1" class="node">
<title>Node1</title>
<g id="a_node1"><a xlink:title=" ">
<polygon fill="#bfbfbf" stroke="black" points="83.5,-0.5 83.5,-23.5 230.5,-23.5 230.5,-0.5 83.5,-0.5"/>
<text text-anchor="middle" x="157" y="-8.3" font-family="Helvetica,sans-Serif" font-size="14.00">gl3::VertexNormColor</text>
</a>
</g>
</g>
<!-- Node2 -->
<g id="node2" class="node">
<title>Node2</title>
<g id="a_node2"><a xlink:title=" ">
<polygon fill="white" stroke="#bfbfbf" points="0,-90.5 0,-113.5 152,-113.5 152,-90.5 0,-90.5"/>
<text text-anchor="middle" x="76" y="-98.3" font-family="Helvetica,sans-Serif" font-size="14.00">std::array&lt; uint8_t, 4 &gt;</text>
</a>
</g>
</g>
<!-- Node2&#45;&gt;Node1 -->
<g id="edge1" class="edge">
<title>Node2&#45;&gt;Node1</title>
<path fill="none" stroke="#9a32cd" stroke-dasharray="5,2" d="M92.86,-82.68C109.31,-64.81 133.78,-38.23 147.24,-23.6"/>
<polygon fill="#9a32cd" stroke="#9a32cd" points="90.13,-80.48 85.93,-90.21 95.28,-85.22 90.13,-80.48"/>
<text text-anchor="middle" x="146" y="-53.3" font-family="Helvetica,sans-Serif" font-size="14.00"> color</text>
</g>
<!-- Node3 -->
<g id="node3" class="node">
<title>Node3</title>
<g id="a_node3"><a xlink:title=" ">
<polygon fill="white" stroke="#bfbfbf" points="170.5,-90.5 170.5,-113.5 307.5,-113.5 307.5,-90.5 170.5,-90.5"/>
<text text-anchor="middle" x="239" y="-98.3" font-family="Helvetica,sans-Serif" font-size="14.00">std::array&lt; float, 3 &gt;</text>
</a>
</g>
</g>
<!-- Node3&#45;&gt;Node1 -->
<g id="edge2" class="edge">
<title>Node3&#45;&gt;Node1</title>
<path fill="none" stroke="#9a32cd" stroke-dasharray="5,2" d="M221.93,-82.68C205.27,-64.81 180.51,-38.23 166.88,-23.6"/>
<polygon fill="#9a32cd" stroke="#9a32cd" points="219.57,-85.28 228.95,-90.21 224.69,-80.51 219.57,-85.28"/>
<text text-anchor="middle" x="229" y="-60.8" font-family="Helvetica,sans-Serif" font-size="14.00"> coord</text>
<text text-anchor="middle" x="229" y="-45.8" font-family="Helvetica,sans-Serif" font-size="14.00">norm</text>
</g>
</g>
</svg>
