<?xml version="1.0" encoding="UTF-8" standalone="no"?>
<!DOCTYPE svg PUBLIC "-//W3C//DTD SVG 1.1//EN"
 "http://www.w3.org/Graphics/SVG/1.1/DTD/svg11.dtd">
<!-- Generated by graphviz version 2.44.1 (20200629.0846)
 -->
<!-- Title: gl3::AttrTexcoord&lt; TV, decltype((void) TV::texCoord, 0)&gt; Pages: 1 -->
<svg width="441pt" height="77pt"
 viewBox="0.00 0.00 441.00 77.00" xmlns="http://www.w3.org/2000/svg" xmlns:xlink="http://www.w3.org/1999/xlink">
<g id="graph0" class="graph" transform="scale(1 1) rotate(0) translate(4 73)">
<title>gl3::AttrTexcoord&lt; TV, decltype((void) TV::texCoord, 0)&gt;</title>
<polygon fill="white" stroke="transparent" points="-4,4 -4,-73 437,-73 437,4 -4,4"/>
<!-- Node1 -->
<g id="node1" class="node">
<title>Node1</title>
<g id="a_node1"><a xlink:title=" ">
<polygon fill="#bfbfbf" stroke="black" points="300,-8 300,-61 433,-61 433,-8 300,-8"/>
<text text-anchor="start" x="308" y="-45.8" font-family="Helvetica,sans-Serif" font-size="14.00">gl3::AttrTexcoord&lt;</text>
<text text-anchor="start" x="308" y="-30.8" font-family="Helvetica,sans-Serif" font-size="14.00"> TV, decltype((void)</text>
<text text-anchor="middle" x="366.5" y="-15.8" font-family="Helvetica,sans-Serif" font-size="14.00"> TV::texCoord, 0)&gt;</text>
</a>
</g>
</g>
<!-- Node2 -->
<g id="node2" class="node">
<title>Node2</title>
<g id="a_node2"><a xlink:href="structgl3_1_1AttrBase.html" target="_top" xlink:title=" ">
<polygon fill="white" stroke="black" points="0,-0.5 0,-68.5 264,-68.5 264,-0.5 0,-0.5"/>
<text text-anchor="start" x="8" y="-53.3" font-family="Helvetica,sans-Serif" font-size="14.00">gl3::AttrBase&lt; TV,</text>
<text text-anchor="start" x="8" y="-38.3" font-family="Helvetica,sans-Serif" font-size="14.00"> decltype(TV::texCoord)</text>
<text text-anchor="start" x="8" y="-23.3" font-family="Helvetica,sans-Serif" font-size="14.00">, &amp;TV::texCoord, AttrTexcoord</text>
<text text-anchor="middle" x="132" y="-8.3" font-family="Helvetica,sans-Serif" font-size="14.00">&lt; TV, decltype((void) TV::texCoord, 0)&gt; &gt;</text>
</a>
</g>
</g>
<!-- Node2&#45;&gt;Node1 -->
<g id="edge1" class="edge">
<title>Node2&#45;&gt;Node1</title>
<path fill="none" stroke="midnightblue" d="M274.47,-34.5C283.16,-34.5 291.65,-34.5 299.74,-34.5"/>
<polygon fill="midnightblue" stroke="midnightblue" points="274.2,-31 264.2,-34.5 274.2,-38 274.2,-31"/>
</g>
</g>
</svg>
