<?xml version="1.0" encoding="UTF-8" standalone="no"?>
<!DOCTYPE svg PUBLIC "-//W3C//DTD SVG 1.1//EN"
 "http://www.w3.org/Graphics/SVG/1.1/DTD/svg11.dtd">
<!-- Generated by graphviz version 2.30.1 (20200304.1809)
 -->
<!-- Title: gl3::VertexNormTex Pages: 1 -->
<svg width="363pt" height="122pt"
 viewBox="0.00 0.00 363.00 122.00" xmlns="http://www.w3.org/2000/svg" xmlns:xlink="http://www.w3.org/1999/xlink">
<g id="graph0" class="graph" transform="scale(1 1) rotate(0) translate(4 118)">
<title>gl3::VertexNormTex</title>
<polygon fill="white" stroke="white" points="-4,5 -4,-118 360,-118 360,5 -4,5"/>
<!-- Node1 -->
<g id="node1" class="node"><title>Node1</title>
<polygon fill="#bfbfbf" stroke="black" points="98,-0.5 98,-23.5 256,-23.5 256,-0.5 98,-0.5"/>
<text text-anchor="middle" x="177" y="-8.3" font-family="Helvetica,sans-Serif" font-size="14.00">gl3::VertexNormTex</text>
</g>
<!-- Node2 -->
<g id="node2" class="node"><title>Node2</title>
<polygon fill="white" stroke="#bfbfbf" points="-0.5,-90.5 -0.5,-113.5 168.5,-113.5 168.5,-90.5 -0.5,-90.5"/>
<text text-anchor="middle" x="84" y="-98.3" font-family="Helvetica,sans-Serif" font-size="14.00">std::array&lt; float, 2 &gt;</text>
</g>
<!-- Node2&#45;&gt;Node1 -->
<g id="edge1" class="edge"><title>Node2&#45;&gt;Node1</title>
<path fill="none" stroke="#9a32cd" stroke-dasharray="5,2" d="M102.85,-83.1637C121.743,-65.2866 150.198,-38.3607 165.794,-23.6039"/>
<polygon fill="#9a32cd" stroke="#9a32cd" points="100.262,-80.794 95.4036,-90.2095 105.073,-85.8786 100.262,-80.794"/>
<text text-anchor="middle" x="180" y="-53.3" font-family="Helvetica,sans-Serif" font-size="14.00"> texCoord</text>
</g>
<!-- Node3 -->
<g id="node3" class="node"><title>Node3</title>
<polygon fill="white" stroke="#bfbfbf" points="186.5,-90.5 186.5,-113.5 355.5,-113.5 355.5,-90.5 186.5,-90.5"/>
<text text-anchor="middle" x="271" y="-98.3" font-family="Helvetica,sans-Serif" font-size="14.00">std::array&lt; float, 3 &gt;</text>
</g>
<!-- Node3&#45;&gt;Node1 -->
<g id="edge2" class="edge"><title>Node3&#45;&gt;Node1</title>
<path fill="none" stroke="#9a32cd" stroke-dasharray="5,2" d="M256.407,-82.1726C246.525,-70.0233 232.799,-54.2587 219,-42 211.448,-35.2912 202.293,-28.8066 194.461,-23.677"/>
<polygon fill="#9a32cd" stroke="#9a32cd" points="253.899,-84.641 262.87,-90.2783 259.373,-80.2773 253.899,-84.641"/>
<text text-anchor="middle" x="270" y="-60.8" font-family="Helvetica,sans-Serif" font-size="14.00"> coord</text>
<text text-anchor="middle" x="270" y="-45.8" font-family="Helvetica,sans-Serif" font-size="14.00">norm</text>
</g>
</g>
</svg>
