<?xml version="1.0" encoding="UTF-8" standalone="no"?>
<!DOCTYPE svg PUBLIC "-//W3C//DTD SVG 1.1//EN"
 "http://www.w3.org/Graphics/SVG/1.1/DTD/svg11.dtd">
<!-- Generated by graphviz version 2.44.1 (20200629.0846)
 -->
<!-- Title: gl3::VertexColor Pages: 1 -->
<svg width="316pt" height="107pt"
 viewBox="0.00 0.00 315.50 107.00" xmlns="http://www.w3.org/2000/svg" xmlns:xlink="http://www.w3.org/1999/xlink">
<g id="graph0" class="graph" transform="scale(1 1) rotate(0) translate(4 103)">
<title>gl3::VertexColor</title>
<polygon fill="white" stroke="transparent" points="-4,4 -4,-103 311.5,-103 311.5,4 -4,4"/>
<!-- Node1 -->
<g id="node1" class="node">
<title>Node1</title>
<g id="a_node1"><a xlink:title=" ">
<polygon fill="#bfbfbf" stroke="black" points="100.5,-0.5 100.5,-23.5 213.5,-23.5 213.5,-0.5 100.5,-0.5"/>
<text text-anchor="middle" x="157" y="-8.3" font-family="Helvetica,sans-Serif" font-size="14.00">gl3::VertexColor</text>
</a>
</g>
</g>
<!-- Node2 -->
<g id="node2" class="node">
<title>Node2</title>
<g id="a_node2"><a xlink:title=" ">
<polygon fill="white" stroke="#bfbfbf" points="0,-75.5 0,-98.5 152,-98.5 152,-75.5 0,-75.5"/>
<text text-anchor="middle" x="76" y="-83.3" font-family="Helvetica,sans-Serif" font-size="14.00">std::array&lt; uint8_t, 4 &gt;</text>
</a>
</g>
</g>
<!-- Node2&#45;&gt;Node1 -->
<g id="edge1" class="edge">
<title>Node2&#45;&gt;Node1</title>
<path fill="none" stroke="#9a32cd" stroke-dasharray="5,2" d="M95.48,-68.45C111.01,-54.45 132.24,-35.32 145.26,-23.58"/>
<polygon fill="#9a32cd" stroke="#9a32cd" points="93.04,-65.93 87.95,-75.23 97.72,-71.13 93.04,-65.93"/>
<text text-anchor="middle" x="141" y="-45.8" font-family="Helvetica,sans-Serif" font-size="14.00"> color</text>
</g>
<!-- Node3 -->
<g id="node3" class="node">
<title>Node3</title>
<g id="a_node3"><a xlink:title=" ">
<polygon fill="white" stroke="#bfbfbf" points="170.5,-75.5 170.5,-98.5 307.5,-98.5 307.5,-75.5 170.5,-75.5"/>
<text text-anchor="middle" x="239" y="-83.3" font-family="Helvetica,sans-Serif" font-size="14.00">std::array&lt; float, 3 &gt;</text>
</a>
</g>
</g>
<!-- Node3&#45;&gt;Node1 -->
<g id="edge2" class="edge">
<title>Node3&#45;&gt;Node1</title>
<path fill="none" stroke="#9a32cd" stroke-dasharray="5,2" d="M219.28,-68.45C203.56,-54.45 182.07,-35.32 168.88,-23.58"/>
<polygon fill="#9a32cd" stroke="#9a32cd" points="217.1,-71.19 226.9,-75.23 221.76,-65.97 217.1,-71.19"/>
<text text-anchor="middle" x="224" y="-45.8" font-family="Helvetica,sans-Serif" font-size="14.00"> coord</text>
</g>
</g>
</svg>
