<?xml version="1.0" encoding="UTF-8" standalone="no"?>
<!DOCTYPE svg PUBLIC "-//W3C//DTD SVG 1.1//EN"
 "http://www.w3.org/Graphics/SVG/1.1/DTD/svg11.dtd">
<!-- Generated by graphviz version 2.30.1 (20200304.1809)
 -->
<!-- Title: glTF_Builder::struct_material Pages: 1 -->
<svg width="2352pt" height="333pt"
 viewBox="0.00 0.00 2352.00 333.00" xmlns="http://www.w3.org/2000/svg" xmlns:xlink="http://www.w3.org/1999/xlink">
<g id="graph0" class="graph" transform="scale(1 1) rotate(0) translate(4 329)">
<title>glTF_Builder::struct_material</title>
<polygon fill="white" stroke="white" points="-4,5 -4,-329 2349,-329 2349,5 -4,5"/>
<!-- Node1 -->
<g id="node1" class="node"><title>Node1</title>
<polygon fill="#bfbfbf" stroke="black" points="2190,-46 2190,-84 2344,-84 2344,-46 2190,-46"/>
<text text-anchor="start" x="2198" y="-68.8" font-family="Helvetica,sans-Serif" font-size="14.00">glTF_Builder::struct</text>
<text text-anchor="middle" x="2267" y="-53.8" font-family="Helvetica,sans-Serif" font-size="14.00">_material</text>
</g>
<!-- Node2 -->
<g id="node2" class="node"><title>Node2</title>
<g id="a_node2"><a xlink:href="structglTF__Builder_1_1node__type.html" target="_top" xlink:title="glTF_Builder::node\l_type\&lt; glTF_Builder\l::struct_pbrMetallicRoughness \&gt;">
<polygon fill="white" stroke="black" points="1746,-93.5 1746,-146.5 1992,-146.5 1992,-93.5 1746,-93.5"/>
<text text-anchor="start" x="1754" y="-131.3" font-family="Helvetica,sans-Serif" font-size="14.00">glTF_Builder::node</text>
<text text-anchor="start" x="1754" y="-116.3" font-family="Helvetica,sans-Serif" font-size="14.00">_type&lt; glTF_Builder</text>
<text text-anchor="middle" x="1869" y="-101.3" font-family="Helvetica,sans-Serif" font-size="14.00">::struct_pbrMetallicRoughness &gt;</text>
</a>
</g>
</g>
<!-- Node2&#45;&gt;Node1 -->
<g id="edge1" class="edge"><title>Node2&#45;&gt;Node1</title>
<path fill="none" stroke="#9a32cd" stroke-dasharray="5,2" d="M2002.12,-102.439C2054.97,-95.3167 2116.39,-86.9156 2172,-79 2177.8,-78.1746 2183.8,-77.3089 2189.83,-76.4299"/>
<polygon fill="#9a32cd" stroke="#9a32cd" points="2001.46,-98.9972 1992.01,-103.8 2002.39,-105.935 2001.46,-98.9972"/>
<text text-anchor="middle" x="2091" y="-104.8" font-family="Helvetica,sans-Serif" font-size="14.00"> pbrMetallicRoughness</text>
</g>
<!-- Node3 -->
<g id="node3" class="node"><title>Node3</title>
<g id="a_node3"><a xlink:href="structglTF__Builder_1_1struct__pbrMetallicRoughness.html" target="_top" xlink:title="glTF_Builder::struct\l_pbrMetallicRoughness">
<polygon fill="white" stroke="black" points="1484,-154 1484,-192 1664,-192 1664,-154 1484,-154"/>
<text text-anchor="start" x="1492" y="-176.8" font-family="Helvetica,sans-Serif" font-size="14.00">glTF_Builder::struct</text>
<text text-anchor="middle" x="1574" y="-161.8" font-family="Helvetica,sans-Serif" font-size="14.00">_pbrMetallicRoughness</text>
</a>
</g>
</g>
<!-- Node3&#45;&gt;Node2 -->
<g id="edge2" class="edge"><title>Node3&#45;&gt;Node2</title>
<path fill="none" stroke="#9a32cd" stroke-dasharray="5,2" d="M1674.2,-155.057C1697.21,-150.894 1721.97,-146.416 1745.84,-142.098"/>
<polygon fill="#9a32cd" stroke="#9a32cd" points="1673.32,-151.658 1664.1,-156.882 1674.57,-158.546 1673.32,-151.658"/>
<text text-anchor="middle" x="1705" y="-156.8" font-family="Helvetica,sans-Serif" font-size="14.00"> value</text>
</g>
<!-- Node4 -->
<g id="node4" class="node"><title>Node4</title>
<g id="a_node4"><a xlink:href="structglTF__Builder_1_1node__type.html" target="_top" xlink:title="glTF_Builder::node\l_type\&lt; glTF_Builder\l::struct_texture_info \&gt;">
<polygon fill="white" stroke="black" points="1112,-174.5 1112,-227.5 1288,-227.5 1288,-174.5 1112,-174.5"/>
<text text-anchor="start" x="1120" y="-212.3" font-family="Helvetica,sans-Serif" font-size="14.00">glTF_Builder::node</text>
<text text-anchor="start" x="1120" y="-197.3" font-family="Helvetica,sans-Serif" font-size="14.00">_type&lt; glTF_Builder</text>
<text text-anchor="middle" x="1200" y="-182.3" font-family="Helvetica,sans-Serif" font-size="14.00">::struct_texture_info &gt;</text>
</a>
</g>
</g>
<!-- Node4&#45;&gt;Node3 -->
<g id="edge3" class="edge"><title>Node4&#45;&gt;Node3</title>
<path fill="none" stroke="#9a32cd" stroke-dasharray="5,2" d="M1298.39,-193.67C1355.77,-189.351 1427.84,-183.926 1483.75,-179.718"/>
<polygon fill="#9a32cd" stroke="#9a32cd" points="1297.93,-190.194 1288.22,-194.435 1298.45,-197.175 1297.93,-190.194"/>
<text text-anchor="middle" x="1386" y="-196.8" font-family="Helvetica,sans-Serif" font-size="14.00"> baseColorTexture</text>
</g>
<!-- Node5 -->
<g id="node5" class="node"><title>Node5</title>
<g id="a_node5"><a xlink:title="STL class. ">
<polygon fill="white" stroke="#bfbfbf" points="223,-134.5 223,-157.5 311,-157.5 311,-134.5 223,-134.5"/>
<text text-anchor="middle" x="267" y="-142.3" font-family="Helvetica,sans-Serif" font-size="14.00">std::string</text>
</a>
</g>
</g>
<!-- Node5&#45;&gt;Node4 -->
<g id="edge4" class="edge"><title>Node5&#45;&gt;Node4</title>
<path fill="none" stroke="#9a32cd" stroke-dasharray="5,2" d="M294.842,-163.012C326.283,-181.824 380.624,-210.937 432,-222 673.729,-274.053 968.167,-239.578 1111.78,-216.69"/>
<polygon fill="#9a32cd" stroke="#9a32cd" points="296.588,-159.977 286.226,-157.769 292.949,-165.957 296.588,-159.977"/>
<text text-anchor="middle" x="679" y="-253.8" font-family="Helvetica,sans-Serif" font-size="14.00"> key</text>
</g>
<!-- Node8 -->
<g id="node8" class="node"><title>Node8</title>
<g id="a_node8"><a xlink:href="structglTF__Builder_1_1node__type.html" target="_top" xlink:title="glTF_Builder::node\l_type\&lt; unsigned \&gt;">
<polygon fill="white" stroke="black" points="432,-175 432,-213 586,-213 586,-175 432,-175"/>
<text text-anchor="start" x="440" y="-197.8" font-family="Helvetica,sans-Serif" font-size="14.00">glTF_Builder::node</text>
<text text-anchor="middle" x="509" y="-182.8" font-family="Helvetica,sans-Serif" font-size="14.00">_type&lt; unsigned &gt;</text>
</a>
</g>
</g>
<!-- Node5&#45;&gt;Node8 -->
<g id="edge8" class="edge"><title>Node5&#45;&gt;Node8</title>
<path fill="none" stroke="#9a32cd" stroke-dasharray="5,2" d="M321.364,-156.673C353.806,-163.161 395.763,-171.553 431.676,-178.735"/>
<polygon fill="#9a32cd" stroke="#9a32cd" points="321.677,-153.166 311.184,-154.637 320.304,-160.03 321.677,-153.166"/>
<text text-anchor="middle" x="392" y="-178.8" font-family="Helvetica,sans-Serif" font-size="14.00"> key</text>
</g>
<!-- Node9 -->
<g id="node9" class="node"><title>Node9</title>
<g id="a_node9"><a xlink:href="structglTF__Builder_1_1node__type.html" target="_top" xlink:title="glTF_Builder::node\l_type\&lt; float \&gt;">
<polygon fill="white" stroke="black" points="604.5,-127 604.5,-165 753.5,-165 753.5,-127 604.5,-127"/>
<text text-anchor="start" x="612.5" y="-149.8" font-family="Helvetica,sans-Serif" font-size="14.00">glTF_Builder::node</text>
<text text-anchor="middle" x="679" y="-134.8" font-family="Helvetica,sans-Serif" font-size="14.00">_type&lt; float &gt;</text>
</a>
</g>
</g>
<!-- Node5&#45;&gt;Node9 -->
<g id="edge10" class="edge"><title>Node5&#45;&gt;Node9</title>
<path fill="none" stroke="#9a32cd" stroke-dasharray="5,2" d="M321.327,-146C393.514,-146 522.646,-146 604.135,-146"/>
<polygon fill="#9a32cd" stroke="#9a32cd" points="321.102,-142.5 311.102,-146 321.102,-149.5 321.102,-142.5"/>
<text text-anchor="middle" x="392" y="-149.8" font-family="Helvetica,sans-Serif" font-size="14.00"> key</text>
</g>
<!-- Node10 -->
<g id="node10" class="node"><title>Node10</title>
<g id="a_node10"><a xlink:href="structglTF__Builder_1_1node__type.html" target="_top" xlink:title="glTF_Builder::node\l_type\&lt; color4f \&gt;">
<polygon fill="white" stroke="black" points="434.5,-271 434.5,-309 583.5,-309 583.5,-271 434.5,-271"/>
<text text-anchor="start" x="442.5" y="-293.8" font-family="Helvetica,sans-Serif" font-size="14.00">glTF_Builder::node</text>
<text text-anchor="middle" x="509" y="-278.8" font-family="Helvetica,sans-Serif" font-size="14.00">_type&lt; color4f &gt;</text>
</a>
</g>
</g>
<!-- Node5&#45;&gt;Node10 -->
<g id="edge12" class="edge"><title>Node5&#45;&gt;Node10</title>
<path fill="none" stroke="#9a32cd" stroke-dasharray="5,2" d="M281.743,-166.089C299.375,-190.32 332.23,-230.583 370,-253 389.517,-264.584 412.712,-272.614 434.463,-278.151"/>
<polygon fill="#9a32cd" stroke="#9a32cd" points="284.398,-163.782 275.753,-157.658 278.692,-167.837 284.398,-163.782"/>
<text text-anchor="middle" x="392" y="-275.8" font-family="Helvetica,sans-Serif" font-size="14.00"> key</text>
</g>
<!-- Node5&#45;&gt;Node2 -->
<g id="edge14" class="edge"><title>Node5&#45;&gt;Node2</title>
<path fill="none" stroke="#9a32cd" stroke-dasharray="5,2" d="M320.959,-132.719C369.339,-121.759 443.016,-108 508,-108 508,-108 508,-108 1575,-108 1631.13,-108 1693.26,-110.226 1745.8,-112.76"/>
<polygon fill="#9a32cd" stroke="#9a32cd" points="319.989,-129.35 311.032,-135.009 321.563,-136.171 319.989,-129.35"/>
<text text-anchor="middle" x="1019" y="-111.8" font-family="Helvetica,sans-Serif" font-size="14.00"> key</text>
</g>
<!-- Node12 -->
<g id="node12" class="node"><title>Node12</title>
<g id="a_node12"><a xlink:href="structglTF__Builder_1_1node__type.html" target="_top" xlink:title="glTF_Builder::node\l_type\&lt; bool \&gt;">
<polygon fill="white" stroke="black" points="944.5,-46 944.5,-84 1093.5,-84 1093.5,-46 944.5,-46"/>
<text text-anchor="start" x="952.5" y="-68.8" font-family="Helvetica,sans-Serif" font-size="14.00">glTF_Builder::node</text>
<text text-anchor="middle" x="1019" y="-53.8" font-family="Helvetica,sans-Serif" font-size="14.00">_type&lt; bool &gt;</text>
</a>
</g>
</g>
<!-- Node5&#45;&gt;Node12 -->
<g id="edge16" class="edge"><title>Node5&#45;&gt;Node12</title>
<path fill="none" stroke="#9a32cd" stroke-dasharray="5,2" d="M296.21,-129.349C316.249,-118.092 344.091,-103.588 370,-94 396.589,-84.1611 403.891,-82.6929 432,-79 614.878,-54.9738 832.545,-57.9512 944.067,-61.7385"/>
<polygon fill="#9a32cd" stroke="#9a32cd" points="294.269,-126.427 287.315,-134.42 297.736,-132.508 294.269,-126.427"/>
<text text-anchor="middle" x="509" y="-82.8" font-family="Helvetica,sans-Serif" font-size="14.00"> key</text>
</g>
<!-- Node13 -->
<g id="node13" class="node"><title>Node13</title>
<polygon fill="white" stroke="#bfbfbf" points="1306,-0 1306,-38 1466,-38 1466,-0 1306,-0"/>
<text text-anchor="start" x="1314" y="-22.8" font-family="Helvetica,sans-Serif" font-size="14.00">glTF_Builder::node</text>
<text text-anchor="middle" x="1386" y="-7.8" font-family="Helvetica,sans-Serif" font-size="14.00">_type&lt; std::string &gt;</text>
</g>
<!-- Node5&#45;&gt;Node13 -->
<g id="edge18" class="edge"><title>Node5&#45;&gt;Node13</title>
<path fill="none" stroke="#9a32cd" stroke-dasharray="5,2" d="M287.209,-127.363C325.7,-92.0746 416.459,-19 508,-19 508,-19 508,-19 1020,-19 1118.54,-19 1232.04,-19 1305.97,-19"/>
<polygon fill="#9a32cd" stroke="#9a32cd" points="284.724,-124.895 279.807,-134.28 289.503,-130.009 284.724,-124.895"/>
<text text-anchor="middle" x="679" y="-37.8" font-family="Helvetica,sans-Serif" font-size="14.00"> key</text>
<text text-anchor="middle" x="679" y="-22.8" font-family="Helvetica,sans-Serif" font-size="14.00">value</text>
</g>
<!-- Node6 -->
<g id="node6" class="node"><title>Node6</title>
<polygon fill="white" stroke="#bfbfbf" points="0,-127 0,-165 144,-165 144,-127 0,-127"/>
<text text-anchor="start" x="8" y="-149.8" font-family="Helvetica,sans-Serif" font-size="14.00">std::basic_string&lt;</text>
<text text-anchor="middle" x="72" y="-134.8" font-family="Helvetica,sans-Serif" font-size="14.00"> char &gt;</text>
</g>
<!-- Node6&#45;&gt;Node5 -->
<g id="edge5" class="edge"><title>Node6&#45;&gt;Node5</title>
<path fill="none" stroke="midnightblue" d="M154.071,-146C177.687,-146 202.57,-146 222.861,-146"/>
<polygon fill="midnightblue" stroke="midnightblue" points="154.044,-142.5 144.044,-146 154.044,-149.5 154.044,-142.5"/>
</g>
<!-- Node7 -->
<g id="node7" class="node"><title>Node7</title>
<g id="a_node7"><a xlink:href="structglTF__Builder_1_1struct__texture__info.html" target="_top" xlink:title="glTF_Builder::struct\l_texture_info">
<polygon fill="white" stroke="black" points="772,-175 772,-213 926,-213 926,-175 772,-175"/>
<text text-anchor="start" x="780" y="-197.8" font-family="Helvetica,sans-Serif" font-size="14.00">glTF_Builder::struct</text>
<text text-anchor="middle" x="849" y="-182.8" font-family="Helvetica,sans-Serif" font-size="14.00">_texture_info</text>
</a>
</g>
</g>
<!-- Node7&#45;&gt;Node4 -->
<g id="edge6" class="edge"><title>Node7&#45;&gt;Node4</title>
<path fill="none" stroke="#9a32cd" stroke-dasharray="5,2" d="M936.307,-195.731C989.804,-196.804 1058.3,-198.178 1111.94,-199.254"/>
<polygon fill="#9a32cd" stroke="#9a32cd" points="936.226,-192.229 926.158,-195.528 936.086,-199.227 936.226,-192.229"/>
<text text-anchor="middle" x="1019" y="-202.8" font-family="Helvetica,sans-Serif" font-size="14.00"> value</text>
</g>
<!-- Node8&#45;&gt;Node7 -->
<g id="edge7" class="edge"><title>Node8&#45;&gt;Node7</title>
<path fill="none" stroke="#9a32cd" stroke-dasharray="5,2" d="M596.29,-190.185C598.889,-190.116 601.464,-190.054 604,-190 670.652,-188.583 687.348,-188.583 754,-190 759.797,-190.123 765.794,-190.289 771.824,-190.484"/>
<polygon fill="#9a32cd" stroke="#9a32cd" points="596.068,-186.69 586.176,-190.484 596.275,-193.687 596.068,-186.69"/>
<text text-anchor="middle" x="679" y="-208.8" font-family="Helvetica,sans-Serif" font-size="14.00"> texCoord</text>
<text text-anchor="middle" x="679" y="-193.8" font-family="Helvetica,sans-Serif" font-size="14.00">index</text>
</g>
<!-- Node9&#45;&gt;Node3 -->
<g id="edge9" class="edge"><title>Node9&#45;&gt;Node3</title>
<path fill="none" stroke="#9a32cd" stroke-dasharray="5,2" d="M763.902,-148.537C932.458,-153.633 1310.83,-165.073 1483.73,-170.301"/>
<polygon fill="#9a32cd" stroke="#9a32cd" points="763.939,-145.036 753.838,-148.232 763.727,-152.033 763.939,-145.036"/>
<text text-anchor="middle" x="1019" y="-177.8" font-family="Helvetica,sans-Serif" font-size="14.00"> roughnessFactor</text>
<text text-anchor="middle" x="1019" y="-162.8" font-family="Helvetica,sans-Serif" font-size="14.00">metallicFactor</text>
</g>
<!-- Node10&#45;&gt;Node3 -->
<g id="edge11" class="edge"><title>Node10&#45;&gt;Node3</title>
<path fill="none" stroke="#9a32cd" stroke-dasharray="5,2" d="M593.627,-286.268C736.315,-279.462 1035.85,-263.262 1288,-237 1367.46,-228.724 1388.49,-231.341 1466,-212 1486.53,-206.878 1508.59,-199.225 1527.31,-192.051"/>
<polygon fill="#9a32cd" stroke="#9a32cd" points="593.45,-282.773 583.627,-286.742 593.782,-289.765 593.45,-282.773"/>
<text text-anchor="middle" x="1019" y="-269.8" font-family="Helvetica,sans-Serif" font-size="14.00"> baseColorFactor</text>
</g>
<!-- Node11 -->
<g id="node11" class="node"><title>Node11</title>
<polygon fill="white" stroke="#bfbfbf" points="182.5,-301.5 182.5,-324.5 351.5,-324.5 351.5,-301.5 182.5,-301.5"/>
<text text-anchor="middle" x="267" y="-309.3" font-family="Helvetica,sans-Serif" font-size="14.00">std::array&lt; float, 4 &gt;</text>
</g>
<!-- Node11&#45;&gt;Node10 -->
<g id="edge13" class="edge"><title>Node11&#45;&gt;Node10</title>
<path fill="none" stroke="#9a32cd" stroke-dasharray="5,2" d="M361.813,-304.01C385.875,-301.704 411.414,-299.256 434.299,-297.063"/>
<polygon fill="#9a32cd" stroke="#9a32cd" points="361.224,-300.55 351.603,-304.988 361.892,-307.518 361.224,-300.55"/>
<text text-anchor="middle" x="392" y="-306.8" font-family="Helvetica,sans-Serif" font-size="14.00"> value</text>
</g>
<!-- Node12&#45;&gt;Node1 -->
<g id="edge15" class="edge"><title>Node12&#45;&gt;Node1</title>
<path fill="none" stroke="#9a32cd" stroke-dasharray="5,2" d="M1103.94,-65C1177.92,-65 1288.62,-65 1385,-65 1385,-65 1385,-65 1870,-65 1981.2,-65 2109.97,-65 2189.71,-65"/>
<polygon fill="#9a32cd" stroke="#9a32cd" points="1103.75,-61.5001 1093.75,-65 1103.75,-68.5001 1103.75,-61.5001"/>
<text text-anchor="middle" x="1574" y="-68.8" font-family="Helvetica,sans-Serif" font-size="14.00"> doubleSided</text>
</g>
<!-- Node13&#45;&gt;Node1 -->
<g id="edge17" class="edge"><title>Node13&#45;&gt;Node1</title>
<path fill="none" stroke="#9a32cd" stroke-dasharray="5,2" d="M1476.26,-19.5318C1622.12,-21.0978 1920.54,-27.2179 2172,-51 2177.83,-51.5515 2183.85,-52.2193 2189.9,-52.9604"/>
<polygon fill="#9a32cd" stroke="#9a32cd" points="1476.05,-16.0296 1466.02,-19.4267 1475.98,-23.0293 1476.05,-16.0296"/>
<text text-anchor="middle" x="1705" y="-28.8" font-family="Helvetica,sans-Serif" font-size="14.00"> name</text>
</g>
</g>
</svg>
