<?xml version="1.0" encoding="UTF-8" standalone="no"?>
<!DOCTYPE svg PUBLIC "-//W3C//DTD SVG 1.1//EN"
 "http://www.w3.org/Graphics/SVG/1.1/DTD/svg11.dtd">
<!-- Generated by graphviz version 2.30.1 (20200304.1809)
 -->
<!-- Title: glTF_Builder::struct_primitive Pages: 1 -->
<!--zoomable 118 -->
<svg id="main" version="1.1" xmlns="http://www.w3.org/2000/svg" xmlns:xlink="http://www.w3.org/1999/xlink" xml:space="preserve" onload="init(evt)">
<style type="text/css"><![CDATA[
.edge:hover path { stroke: red; }
.edge:hover polygon { stroke: red; fill: red; }
]]></style>
<script type="text/javascript"><![CDATA[
var edges = document.getElementsByTagName('g');
if (edges && edges.length) {
  for (var i=0;i<edges.length;i++) {
    if (edges[i].id.substr(0,4)=='edge') {
      edges[i].setAttribute('class','edge');
    }
  }
}
]]></script>
        <defs>
                <circle id="rim" cx="0" cy="0" r="7"/>
                <circle id="rim2" cx="0" cy="0" r="3.5"/>
                <g id="zoomPlus">
                        <use xlink:href="#rim" fill="#404040">
                                <set attributeName="fill" to="#808080" begin="zoomplus.mouseover" end="zoomplus.mouseout"/>
                        </use>
                        <path d="M-4,0h8M0,-4v8" fill="none" stroke="white" stroke-width="1.5" pointer-events="none"/>
                </g>
                <g id="zoomMin">
                        <use xlink:href="#rim" fill="#404040">
                                <set attributeName="fill" to="#808080" begin="zoomminus.mouseover" end="zoomminus.mouseout"/>
                        </use>
                        <path d="M-4,0h8" fill="none" stroke="white" stroke-width="1.5" pointer-events="none"/>
                </g>
                <g id="dirArrow">
                        <path fill="none" stroke="white" stroke-width="1.5" d="M0,-3.0v7 M-2.5,-0.5L0,-3.0L2.5,-0.5"/>
                </g>
               <g id="resetDef">
                       <use xlink:href="#rim2" fill="#404040">
                               <set attributeName="fill" to="#808080" begin="reset.mouseover" end="reset.mouseout"/>
                       </use>
               </g>
        </defs>

<script type="text/javascript">
var viewWidth = 1312;
var viewHeight = 118;
var sectionId = 'dynsection-0';
</script>
<script xlink:href="svgpan.js"/>
<svg id="graph" class="graph">
<g id="viewport">
<title>glTF_Builder::struct_primitive</title>
<polygon fill="white" stroke="white" points="-4,5 -4,-114 1309,-114 1309,5 -4,5"/>
<!-- Node1 -->
<g id="node1" class="node"><title>Node1</title>
<polygon fill="#bfbfbf" stroke="black" points="1150,-0 1150,-38 1304,-38 1304,-0 1150,-0"/>
<text text-anchor="start" x="1158" y="-22.8" font-family="Helvetica,sans-Serif" font-size="14.00">glTF_Builder::struct</text>
<text text-anchor="middle" x="1227" y="-7.8" font-family="Helvetica,sans-Serif" font-size="14.00">_primitive</text>
</g>
<!-- Node2 -->
<g id="node2" class="node"><title>Node2</title>
<g id="a_node2"><a xlink:href="structglTF__Builder_1_1node__type.html" target="_top" xlink:title="glTF_Builder::node\l_type\&lt; glTF_Builder\l::struct_attributes \&gt;">
<polygon fill="white" stroke="black" points="880,-35.5 880,-88.5 1040,-88.5 1040,-35.5 880,-35.5"/>
<text text-anchor="start" x="888" y="-73.3" font-family="Helvetica,sans-Serif" font-size="14.00">glTF_Builder::node</text>
<text text-anchor="start" x="888" y="-58.3" font-family="Helvetica,sans-Serif" font-size="14.00">_type&lt; glTF_Builder</text>
<text text-anchor="middle" x="960" y="-43.3" font-family="Helvetica,sans-Serif" font-size="14.00">::struct_attributes &gt;</text>
</a>
</g>
</g>
<!-- Node2&#45;&gt;Node1 -->
<g id="edge1" class="edge"><title>Node2&#45;&gt;Node1</title>
<path fill="none" stroke="#9a32cd" stroke-dasharray="5,2" d="M1050.07,-47.5463C1082.49,-42.2863 1118.81,-36.3937 1149.99,-31.3342"/>
<polygon fill="#9a32cd" stroke="#9a32cd" points="1049.46,-44.1002 1040.15,-49.1568 1050.58,-51.0099 1049.46,-44.1002"/>
<text text-anchor="middle" x="1095" y="-49.8" font-family="Helvetica,sans-Serif" font-size="14.00"> attributes</text>
</g>
<!-- Node3 -->
<g id="node3" class="node"><title>Node3</title>
<g id="a_node3"><a xlink:title="STL class. ">
<polygon fill="white" stroke="#bfbfbf" points="182,-77.5 182,-100.5 270,-100.5 270,-77.5 182,-77.5"/>
<text text-anchor="middle" x="226" y="-85.3" font-family="Helvetica,sans-Serif" font-size="14.00">std::string</text>
</a>
</g>
</g>
<!-- Node3&#45;&gt;Node2 -->
<g id="edge2" class="edge"><title>Node3&#45;&gt;Node2</title>
<path fill="none" stroke="#9a32cd" stroke-dasharray="5,2" d="M280.386,-91.0879C389.815,-94.7045 647.341,-99.8109 862,-78 867.858,-77.4048 873.899,-76.6794 879.967,-75.8697"/>
<polygon fill="#9a32cd" stroke="#9a32cd" points="280.378,-87.5857 270.265,-90.7435 280.14,-94.5816 280.378,-87.5857"/>
<text text-anchor="middle" x="557" y="-98.8" font-family="Helvetica,sans-Serif" font-size="14.00"> key</text>
</g>
<!-- Node6 -->
<g id="node6" class="node"><title>Node6</title>
<g id="a_node6"><a xlink:href="structglTF__Builder_1_1node__type.html" target="_top" xlink:title="glTF_Builder::node\l_type\&lt; unsigned \&gt;">
<polygon fill="white" stroke="black" points="336,-8 336,-46 490,-46 490,-8 336,-8"/>
<text text-anchor="start" x="344" y="-30.8" font-family="Helvetica,sans-Serif" font-size="14.00">glTF_Builder::node</text>
<text text-anchor="middle" x="413" y="-15.8" font-family="Helvetica,sans-Serif" font-size="14.00">_type&lt; unsigned &gt;</text>
</a>
</g>
</g>
<!-- Node3&#45;&gt;Node6 -->
<g id="edge6" class="edge"><title>Node3&#45;&gt;Node6</title>
<path fill="none" stroke="#9a32cd" stroke-dasharray="5,2" d="M271.029,-74.2442C296.26,-65.7887 328.195,-55.086 355.288,-46.0062"/>
<polygon fill="#9a32cd" stroke="#9a32cd" points="269.733,-70.9873 261.364,-77.4836 271.957,-77.6245 269.733,-70.9873"/>
<text text-anchor="middle" x="303" y="-71.8" font-family="Helvetica,sans-Serif" font-size="14.00"> key</text>
</g>
<!-- Node4 -->
<g id="node4" class="node"><title>Node4</title>
<polygon fill="white" stroke="#bfbfbf" points="0,-70 0,-108 144,-108 144,-70 0,-70"/>
<text text-anchor="start" x="8" y="-92.8" font-family="Helvetica,sans-Serif" font-size="14.00">std::basic_string&lt;</text>
<text text-anchor="middle" x="72" y="-77.8" font-family="Helvetica,sans-Serif" font-size="14.00"> char &gt;</text>
</g>
<!-- Node4&#45;&gt;Node3 -->
<g id="edge3" class="edge"><title>Node4&#45;&gt;Node3</title>
<path fill="none" stroke="midnightblue" d="M154.337,-89C163.753,-89 173.059,-89 181.673,-89"/>
<polygon fill="midnightblue" stroke="midnightblue" points="154.105,-85.5001 144.105,-89 154.105,-92.5001 154.105,-85.5001"/>
</g>
<!-- Node5 -->
<g id="node5" class="node"><title>Node5</title>
<g id="a_node5"><a xlink:href="structglTF__Builder_1_1struct__attributes.html" target="_top" xlink:title="glTF_Builder::struct\l_attributes">
<polygon fill="white" stroke="black" points="624,-33 624,-71 778,-71 778,-33 624,-33"/>
<text text-anchor="start" x="632" y="-55.8" font-family="Helvetica,sans-Serif" font-size="14.00">glTF_Builder::struct</text>
<text text-anchor="middle" x="701" y="-40.8" font-family="Helvetica,sans-Serif" font-size="14.00">_attributes</text>
</a>
</g>
</g>
<!-- Node5&#45;&gt;Node2 -->
<g id="edge4" class="edge"><title>Node5&#45;&gt;Node2</title>
<path fill="none" stroke="#9a32cd" stroke-dasharray="5,2" d="M788.344,-55.3597C817.829,-56.5069 850.644,-57.7838 879.559,-58.9089"/>
<polygon fill="#9a32cd" stroke="#9a32cd" points="788.194,-51.8513 778.065,-54.9597 787.922,-58.846 788.194,-51.8513"/>
<text text-anchor="middle" x="829" y="-62.8" font-family="Helvetica,sans-Serif" font-size="14.00"> value</text>
</g>
<!-- Node6&#45;&gt;Node5 -->
<g id="edge5" class="edge"><title>Node6&#45;&gt;Node5</title>
<path fill="none" stroke="#9a32cd" stroke-dasharray="5,2" d="M500.541,-22.971C533.652,-22.601 571.692,-23.5986 606,-28 615.105,-29.1681 624.593,-30.9265 633.889,-32.9711"/>
<polygon fill="#9a32cd" stroke="#9a32cd" points="500.378,-19.473 490.434,-23.1274 500.487,-26.4721 500.378,-19.473"/>
<text text-anchor="middle" x="557" y="-76.8" font-family="Helvetica,sans-Serif" font-size="14.00"> COLOR_0</text>
<text text-anchor="middle" x="557" y="-61.8" font-family="Helvetica,sans-Serif" font-size="14.00">POSITION</text>
<text text-anchor="middle" x="557" y="-46.8" font-family="Helvetica,sans-Serif" font-size="14.00">NORMAL</text>
<text text-anchor="middle" x="557" y="-31.8" font-family="Helvetica,sans-Serif" font-size="14.00">TEXCOORD_0</text>
</g>
<!-- Node6&#45;&gt;Node1 -->
<g id="edge7" class="edge"><title>Node6&#45;&gt;Node1</title>
<path fill="none" stroke="#9a32cd" stroke-dasharray="5,2" d="M500.284,-19.5105C502.885,-19.3316 505.461,-19.1608 508,-19 665.109,-9.0461 704.598,-4.40616 862,-7 961.414,-8.63824 1076.04,-12.7916 1149.68,-15.7521"/>
<polygon fill="#9a32cd" stroke="#9a32cd" points="499.887,-16.0299 490.164,-20.2371 500.389,-23.0119 499.887,-16.0299"/>
<text text-anchor="middle" x="829" y="-40.8" font-family="Helvetica,sans-Serif" font-size="14.00"> material</text>
<text text-anchor="middle" x="829" y="-25.8" font-family="Helvetica,sans-Serif" font-size="14.00">mode</text>
<text text-anchor="middle" x="829" y="-10.8" font-family="Helvetica,sans-Serif" font-size="14.00">indices</text>
</g>
</g>
</svg>
        <g id="navigator" transform="translate(0 0)" fill="#404254">
                <rect fill="#f2f5e9" fill-opacity="0.5" stroke="#606060" stroke-width=".5" x="0" y="0" width="60" height="60"/>
                <use id="zoomplus" xlink:href="#zoomPlus" x="17" y="9" onmousedown="handleZoom(evt,'in')"/>
                <use id="zoomminus" xlink:href="#zoomMin" x="42" y="9" onmousedown="handleZoom(evt,'out')"/>
                <use id="reset" xlink:href="#resetDef" x="30" y="36" onmousedown="handleReset()"/>
                <g id="arrowUp" xlink:href="#dirArrow" transform="translate(30 24)" onmousedown="handlePan(0,-1)">
                  <use xlink:href="#rim" fill="#404040">
                        <set attributeName="fill" to="#808080" begin="arrowUp.mouseover" end="arrowUp.mouseout"/>
                  </use>
                  <path fill="none" stroke="white" stroke-width="1.5" d="M0,-3.0v7 M-2.5,-0.5L0,-3.0L2.5,-0.5"/>
                </g>
                <g id="arrowRight" xlink:href="#dirArrow" transform="rotate(90) translate(36 -43)" onmousedown="handlePan(1,0)">
                  <use xlink:href="#rim" fill="#404040">
                        <set attributeName="fill" to="#808080" begin="arrowRight.mouseover" end="arrowRight.mouseout"/>
                  </use>
                  <path fill="none" stroke="white" stroke-width="1.5" d="M0,-3.0v7 M-2.5,-0.5L0,-3.0L2.5,-0.5"/>
                </g>
                <g id="arrowDown" xlink:href="#dirArrow" transform="rotate(180) translate(-30 -48)" onmousedown="handlePan(0,1)">
                  <use xlink:href="#rim" fill="#404040">
                        <set attributeName="fill" to="#808080" begin="arrowDown.mouseover" end="arrowDown.mouseout"/>
                  </use>
                  <path fill="none" stroke="white" stroke-width="1.5" d="M0,-3.0v7 M-2.5,-0.5L0,-3.0L2.5,-0.5"/>
                </g>
                <g id="arrowLeft" xlink:href="#dirArrow" transform="rotate(270) translate(-36 17)" onmousedown="handlePan(-1,0)">
                  <use xlink:href="#rim" fill="#404040">
                        <set attributeName="fill" to="#808080" begin="arrowLeft.mouseover" end="arrowLeft.mouseout"/>
                  </use>
                  <path fill="none" stroke="white" stroke-width="1.5" d="M0,-3.0v7 M-2.5,-0.5L0,-3.0L2.5,-0.5"/>
                </g>
        </g>
        <svg viewBox="0 0 15 15" width="100%" height="30px" preserveAspectRatio="xMaxYMin meet">
         <g id="arrow_out" transform="scale(0.3 0.3)">
          <a xlink:href="structglTF__Builder_1_1struct__primitive__coll__graph_org.svg" target="_base">
           <rect id="button" ry="5" rx="5" y="6" x="6" height="38" width="38"
                fill="#f2f5e9" fill-opacity="0.5" stroke="#606060" stroke-width="1.0"/>
           <path id="arrow"
             d="M 11.500037,31.436501 C 11.940474,20.09759 22.043105,11.32322 32.158766,21.979434 L 37.068811,17.246167 C 37.068811,17.246167 37.088388,32 37.088388,32 L 22.160133,31.978069 C 22.160133,31.978069 26.997745,27.140456 26.997745,27.140456 C 18.528582,18.264221 13.291696,25.230495 11.500037,31.436501 z"
             style="fill:#404040;"/>
          </a>
         </g>
        </svg>
</svg>
