<?xml version="1.0" encoding="UTF-8" standalone="no"?>
<!DOCTYPE svg PUBLIC "-//W3C//DTD SVG 1.1//EN"
 "http://www.w3.org/Graphics/SVG/1.1/DTD/svg11.dtd">
<!-- Generated by graphviz version 2.30.1 (20200304.1809)
 -->
<!-- Title: glTF_Builder::struct_mesh Pages: 1 -->
<svg width="866pt" height="103pt"
 viewBox="0.00 0.00 866.00 103.00" xmlns="http://www.w3.org/2000/svg" xmlns:xlink="http://www.w3.org/1999/xlink">
<g id="graph0" class="graph" transform="scale(1 1) rotate(0) translate(4 99)">
<title>glTF_Builder::struct_mesh</title>
<polygon fill="white" stroke="white" points="-4,5 -4,-99 863,-99 863,5 -4,5"/>
<!-- Node1 -->
<g id="node1" class="node"><title>Node1</title>
<polygon fill="#bfbfbf" stroke="black" points="656.5,-40.5 656.5,-63.5 857.5,-63.5 857.5,-40.5 656.5,-40.5"/>
<text text-anchor="middle" x="757" y="-48.3" font-family="Helvetica,sans-Serif" font-size="14.00">glTF_Builder::struct_mesh</text>
</g>
<!-- Node2 -->
<g id="node2" class="node"><title>Node2</title>
<polygon fill="white" stroke="#bfbfbf" points="346.5,-57 346.5,-95 543.5,-95 543.5,-57 346.5,-57"/>
<text text-anchor="start" x="354.5" y="-79.8" font-family="Helvetica,sans-Serif" font-size="14.00">std::vector&lt; glTF_Builder</text>
<text text-anchor="middle" x="445" y="-64.8" font-family="Helvetica,sans-Serif" font-size="14.00">::struct_primitive &gt;</text>
</g>
<!-- Node2&#45;&gt;Node1 -->
<g id="edge1" class="edge"><title>Node2&#45;&gt;Node1</title>
<path fill="none" stroke="#9a32cd" stroke-dasharray="5,2" d="M553.887,-67.6475C587.195,-65.0688 623.71,-62.2418 656.43,-59.7086"/>
<polygon fill="#9a32cd" stroke="#9a32cd" points="553.36,-64.1777 543.66,-68.4392 553.901,-71.1568 553.36,-64.1777"/>
<text text-anchor="middle" x="600" y="-69.8" font-family="Helvetica,sans-Serif" font-size="14.00"> primitives</text>
</g>
<!-- Node3 -->
<g id="node3" class="node"><title>Node3</title>
<polygon fill="white" stroke="#bfbfbf" points="365,-0 365,-38 525,-38 525,-0 365,-0"/>
<text text-anchor="start" x="373" y="-22.8" font-family="Helvetica,sans-Serif" font-size="14.00">glTF_Builder::node</text>
<text text-anchor="middle" x="445" y="-7.8" font-family="Helvetica,sans-Serif" font-size="14.00">_type&lt; std::string &gt;</text>
</g>
<!-- Node3&#45;&gt;Node1 -->
<g id="edge2" class="edge"><title>Node3&#45;&gt;Node1</title>
<path fill="none" stroke="#9a32cd" stroke-dasharray="5,2" d="M535.022,-28.4766C572.912,-32.51 617.268,-37.2317 656.257,-41.3822"/>
<polygon fill="#9a32cd" stroke="#9a32cd" points="535.343,-24.991 525.028,-27.4127 534.601,-31.9516 535.343,-24.991"/>
<text text-anchor="middle" x="600" y="-42.8" font-family="Helvetica,sans-Serif" font-size="14.00"> name</text>
</g>
<!-- Node4 -->
<g id="node4" class="node"><title>Node4</title>
<g id="a_node4"><a xlink:title="STL class. ">
<polygon fill="white" stroke="#bfbfbf" points="182,-7.5 182,-30.5 270,-30.5 270,-7.5 182,-7.5"/>
<text text-anchor="middle" x="226" y="-15.3" font-family="Helvetica,sans-Serif" font-size="14.00">std::string</text>
</a>
</g>
</g>
<!-- Node4&#45;&gt;Node3 -->
<g id="edge3" class="edge"><title>Node4&#45;&gt;Node3</title>
<path fill="none" stroke="#9a32cd" stroke-dasharray="5,2" d="M280.324,-19C305.798,-19 336.8,-19 364.944,-19"/>
<polygon fill="#9a32cd" stroke="#9a32cd" points="280.132,-15.5001 270.132,-19 280.132,-22.5001 280.132,-15.5001"/>
<text text-anchor="middle" x="308" y="-37.8" font-family="Helvetica,sans-Serif" font-size="14.00"> key</text>
<text text-anchor="middle" x="308" y="-22.8" font-family="Helvetica,sans-Serif" font-size="14.00">value</text>
</g>
<!-- Node5 -->
<g id="node5" class="node"><title>Node5</title>
<polygon fill="white" stroke="#bfbfbf" points="0,-0 0,-38 144,-38 144,-0 0,-0"/>
<text text-anchor="start" x="8" y="-22.8" font-family="Helvetica,sans-Serif" font-size="14.00">std::basic_string&lt;</text>
<text text-anchor="middle" x="72" y="-7.8" font-family="Helvetica,sans-Serif" font-size="14.00"> char &gt;</text>
</g>
<!-- Node5&#45;&gt;Node4 -->
<g id="edge4" class="edge"><title>Node5&#45;&gt;Node4</title>
<path fill="none" stroke="midnightblue" d="M154.337,-19C163.753,-19 173.059,-19 181.673,-19"/>
<polygon fill="midnightblue" stroke="midnightblue" points="154.105,-15.5001 144.105,-19 154.105,-22.5001 154.105,-15.5001"/>
</g>
</g>
</svg>
