<?xml version="1.0" encoding="UTF-8" standalone="no"?>
<!DOCTYPE svg PUBLIC "-//W3C//DTD SVG 1.1//EN"
 "http://www.w3.org/Graphics/SVG/1.1/DTD/svg11.dtd">
<!-- Generated by graphviz version 2.30.1 (20200304.1809)
 -->
<!-- Title: glTF_Builder::struct_accessor Pages: 1 -->
<!--zoomable 234 -->
<svg id="main" version="1.1" xmlns="http://www.w3.org/2000/svg" xmlns:xlink="http://www.w3.org/1999/xlink" xml:space="preserve" onload="init(evt)">
<style type="text/css"><![CDATA[
.edge:hover path { stroke: red; }
.edge:hover polygon { stroke: red; fill: red; }
]]></style>
<script type="text/javascript"><![CDATA[
var edges = document.getElementsByTagName('g');
if (edges && edges.length) {
  for (var i=0;i<edges.length;i++) {
    if (edges[i].id.substr(0,4)=='edge') {
      edges[i].setAttribute('class','edge');
    }
  }
}
]]></script>
        <defs>
                <circle id="rim" cx="0" cy="0" r="7"/>
                <circle id="rim2" cx="0" cy="0" r="3.5"/>
                <g id="zoomPlus">
                        <use xlink:href="#rim" fill="#404040">
                                <set attributeName="fill" to="#808080" begin="zoomplus.mouseover" end="zoomplus.mouseout"/>
                        </use>
                        <path d="M-4,0h8M0,-4v8" fill="none" stroke="white" stroke-width="1.5" pointer-events="none"/>
                </g>
                <g id="zoomMin">
                        <use xlink:href="#rim" fill="#404040">
                                <set attributeName="fill" to="#808080" begin="zoomminus.mouseover" end="zoomminus.mouseout"/>
                        </use>
                        <path d="M-4,0h8" fill="none" stroke="white" stroke-width="1.5" pointer-events="none"/>
                </g>
                <g id="dirArrow">
                        <path fill="none" stroke="white" stroke-width="1.5" d="M0,-3.0v7 M-2.5,-0.5L0,-3.0L2.5,-0.5"/>
                </g>
               <g id="resetDef">
                       <use xlink:href="#rim2" fill="#404040">
                               <set attributeName="fill" to="#808080" begin="reset.mouseover" end="reset.mouseout"/>
                       </use>
               </g>
        </defs>

<script type="text/javascript">
var viewWidth = 874;
var viewHeight = 234;
var sectionId = 'dynsection-0';
</script>
<script xlink:href="svgpan.js"/>
<svg id="graph" class="graph">
<g id="viewport">
<title>glTF_Builder::struct_accessor</title>
<polygon fill="white" stroke="white" points="-4,5 -4,-230 871,-230 871,5 -4,5"/>
<!-- Node1 -->
<g id="node1" class="node"><title>Node1</title>
<polygon fill="#bfbfbf" stroke="black" points="712,-74 712,-112 866,-112 866,-74 712,-74"/>
<text text-anchor="start" x="720" y="-96.8" font-family="Helvetica,sans-Serif" font-size="14.00">glTF_Builder::struct</text>
<text text-anchor="middle" x="789" y="-81.8" font-family="Helvetica,sans-Serif" font-size="14.00">_accessor</text>
</g>
<!-- Node2 -->
<g id="node2" class="node"><title>Node2</title>
<g id="a_node2"><a xlink:href="structglTF__Builder_1_1node__type.html" target="_top" xlink:title="glTF_Builder::node\l_type\&lt; vecnf \&gt;">
<polygon fill="white" stroke="black" points="401.5,-174 401.5,-212 550.5,-212 550.5,-174 401.5,-174"/>
<text text-anchor="start" x="409.5" y="-196.8" font-family="Helvetica,sans-Serif" font-size="14.00">glTF_Builder::node</text>
<text text-anchor="middle" x="476" y="-181.8" font-family="Helvetica,sans-Serif" font-size="14.00">_type&lt; vecnf &gt;</text>
</a>
</g>
</g>
<!-- Node2&#45;&gt;Node1 -->
<g id="edge1" class="edge"><title>Node2&#45;&gt;Node1</title>
<path fill="none" stroke="#9a32cd" stroke-dasharray="5,2" d="M560.611,-196.972C602.167,-196.079 652.285,-190.564 694,-173 725.798,-159.612 754.779,-131.422 771.91,-112.343"/>
<polygon fill="#9a32cd" stroke="#9a32cd" points="560.47,-193.473 550.516,-197.102 560.56,-200.473 560.47,-193.473"/>
<text text-anchor="middle" x="634" y="-214.8" font-family="Helvetica,sans-Serif" font-size="14.00"> min</text>
<text text-anchor="middle" x="634" y="-199.8" font-family="Helvetica,sans-Serif" font-size="14.00">max</text>
</g>
<!-- Node3 -->
<g id="node3" class="node"><title>Node3</title>
<g id="a_node3"><a xlink:title="STL class. ">
<polygon fill="white" stroke="#bfbfbf" points="205,-83.5 205,-106.5 293,-106.5 293,-83.5 205,-83.5"/>
<text text-anchor="middle" x="249" y="-91.3" font-family="Helvetica,sans-Serif" font-size="14.00">std::string</text>
</a>
</g>
</g>
<!-- Node3&#45;&gt;Node2 -->
<g id="edge2" class="edge"><title>Node3&#45;&gt;Node2</title>
<path fill="none" stroke="#9a32cd" stroke-dasharray="5,2" d="M284.085,-110.875C313.566,-124.493 357.403,-144.475 396,-161 405.93,-165.252 416.621,-169.681 426.831,-173.84"/>
<polygon fill="#9a32cd" stroke="#9a32cd" points="285.211,-107.539 274.666,-106.515 282.271,-113.892 285.211,-107.539"/>
<text text-anchor="middle" x="356" y="-155.8" font-family="Helvetica,sans-Serif" font-size="14.00"> key</text>
</g>
<!-- Node6 -->
<g id="node6" class="node"><title>Node6</title>
<g id="a_node6"><a xlink:href="structglTF__Builder_1_1node__type.html" target="_top" xlink:title="glTF_Builder::node\l_type\&lt; unsigned \&gt;">
<polygon fill="white" stroke="black" points="399,-114 399,-152 553,-152 553,-114 399,-114"/>
<text text-anchor="start" x="407" y="-136.8" font-family="Helvetica,sans-Serif" font-size="14.00">glTF_Builder::node</text>
<text text-anchor="middle" x="476" y="-121.8" font-family="Helvetica,sans-Serif" font-size="14.00">_type&lt; unsigned &gt;</text>
</a>
</g>
</g>
<!-- Node3&#45;&gt;Node6 -->
<g id="edge6" class="edge"><title>Node3&#45;&gt;Node6</title>
<path fill="none" stroke="#9a32cd" stroke-dasharray="5,2" d="M303.277,-103.998C331.783,-108.812 367.387,-114.825 398.773,-120.126"/>
<polygon fill="#9a32cd" stroke="#9a32cd" points="303.559,-100.496 293.116,-102.282 302.394,-107.398 303.559,-100.496"/>
<text text-anchor="middle" x="356" y="-120.8" font-family="Helvetica,sans-Serif" font-size="14.00"> key</text>
</g>
<!-- Node7 -->
<g id="node7" class="node"><title>Node7</title>
<g id="a_node7"><a xlink:href="structglTF__Builder_1_1node__type.html" target="_top" xlink:title="glTF_Builder::node\l_type\&lt; bool \&gt;">
<polygon fill="white" stroke="black" points="401.5,-57 401.5,-95 550.5,-95 550.5,-57 401.5,-57"/>
<text text-anchor="start" x="409.5" y="-79.8" font-family="Helvetica,sans-Serif" font-size="14.00">glTF_Builder::node</text>
<text text-anchor="middle" x="476" y="-64.8" font-family="Helvetica,sans-Serif" font-size="14.00">_type&lt; bool &gt;</text>
</a>
</g>
</g>
<!-- Node3&#45;&gt;Node7 -->
<g id="edge8" class="edge"><title>Node3&#45;&gt;Node7</title>
<path fill="none" stroke="#9a32cd" stroke-dasharray="5,2" d="M303.381,-84.2434C313.512,-82.5501 324.053,-81.0235 334,-80 355.803,-77.7566 379.594,-76.5929 401.32,-76.0282"/>
<polygon fill="#9a32cd" stroke="#9a32cd" points="302.674,-80.8137 293.424,-85.9797 303.877,-87.7096 302.674,-80.8137"/>
<text text-anchor="middle" x="356" y="-83.8" font-family="Helvetica,sans-Serif" font-size="14.00"> key</text>
</g>
<!-- Node8 -->
<g id="node8" class="node"><title>Node8</title>
<polygon fill="white" stroke="#bfbfbf" points="396,-0 396,-38 556,-38 556,-0 396,-0"/>
<text text-anchor="start" x="404" y="-22.8" font-family="Helvetica,sans-Serif" font-size="14.00">glTF_Builder::node</text>
<text text-anchor="middle" x="476" y="-7.8" font-family="Helvetica,sans-Serif" font-size="14.00">_type&lt; std::string &gt;</text>
</g>
<!-- Node3&#45;&gt;Node8 -->
<g id="edge10" class="edge"><title>Node3&#45;&gt;Node8</title>
<path fill="none" stroke="#9a32cd" stroke-dasharray="5,2" d="M273.142,-77.258C289.335,-65.7287 311.936,-51.3417 334,-43 353.394,-35.6677 375.138,-30.5653 395.634,-27.0182"/>
<polygon fill="#9a32cd" stroke="#9a32cd" points="270.862,-74.589 264.849,-83.3125 274.99,-80.2425 270.862,-74.589"/>
<text text-anchor="middle" x="356" y="-61.8" font-family="Helvetica,sans-Serif" font-size="14.00"> key</text>
<text text-anchor="middle" x="356" y="-46.8" font-family="Helvetica,sans-Serif" font-size="14.00">value</text>
</g>
<!-- Node4 -->
<g id="node4" class="node"><title>Node4</title>
<polygon fill="white" stroke="#bfbfbf" points="0,-76 0,-114 144,-114 144,-76 0,-76"/>
<text text-anchor="start" x="8" y="-98.8" font-family="Helvetica,sans-Serif" font-size="14.00">std::basic_string&lt;</text>
<text text-anchor="middle" x="72" y="-83.8" font-family="Helvetica,sans-Serif" font-size="14.00"> char &gt;</text>
</g>
<!-- Node4&#45;&gt;Node3 -->
<g id="edge3" class="edge"><title>Node4&#45;&gt;Node3</title>
<path fill="none" stroke="midnightblue" d="M154.365,-95C171.765,-95 189.49,-95 204.77,-95"/>
<polygon fill="midnightblue" stroke="midnightblue" points="154.179,-91.5001 144.179,-95 154.179,-98.5001 154.179,-91.5001"/>
</g>
<!-- Node5 -->
<g id="node5" class="node"><title>Node5</title>
<g id="a_node5"><a xlink:title="STL class. ">
<polygon fill="white" stroke="#bfbfbf" points="182,-181.5 182,-204.5 316,-204.5 316,-181.5 182,-181.5"/>
<text text-anchor="middle" x="249" y="-189.3" font-family="Helvetica,sans-Serif" font-size="14.00">std::vector&lt; T &gt;</text>
</a>
</g>
</g>
<!-- Node5&#45;&gt;Node2 -->
<g id="edge4" class="edge"><title>Node5&#45;&gt;Node2</title>
<path fill="none" stroke="#9a32cd" stroke-dasharray="5,2" d="M326.486,-193C350.666,-193 377.327,-193 401.307,-193"/>
<polygon fill="#9a32cd" stroke="#9a32cd" points="326.291,-189.5 316.29,-193 326.29,-196.5 326.291,-189.5"/>
<text text-anchor="middle" x="356" y="-196.8" font-family="Helvetica,sans-Serif" font-size="14.00"> value</text>
</g>
<!-- Node6&#45;&gt;Node1 -->
<g id="edge5" class="edge"><title>Node6&#45;&gt;Node1</title>
<path fill="none" stroke="#9a32cd" stroke-dasharray="5,2" d="M562.99,-114.752C566.704,-114.128 570.386,-113.54 574,-113 619.578,-106.193 670.985,-101.299 711.989,-98.0563"/>
<polygon fill="#9a32cd" stroke="#9a32cd" points="562.354,-111.31 553.107,-116.482 563.561,-118.205 562.354,-111.31"/>
<text text-anchor="middle" x="634" y="-161.8" font-family="Helvetica,sans-Serif" font-size="14.00"> componentType</text>
<text text-anchor="middle" x="634" y="-146.8" font-family="Helvetica,sans-Serif" font-size="14.00">bufferView</text>
<text text-anchor="middle" x="634" y="-131.8" font-family="Helvetica,sans-Serif" font-size="14.00">count</text>
<text text-anchor="middle" x="634" y="-116.8" font-family="Helvetica,sans-Serif" font-size="14.00">byteOffset</text>
</g>
<!-- Node7&#45;&gt;Node1 -->
<g id="edge7" class="edge"><title>Node7&#45;&gt;Node1</title>
<path fill="none" stroke="#9a32cd" stroke-dasharray="5,2" d="M561.038,-71.7428C601.342,-70.6885 650.262,-70.85 694,-75 699.872,-75.5572 705.924,-76.306 711.991,-77.1825"/>
<polygon fill="#9a32cd" stroke="#9a32cd" points="560.879,-68.2459 550.985,-72.0354 561.082,-75.2429 560.879,-68.2459"/>
<text text-anchor="middle" x="634" y="-78.8" font-family="Helvetica,sans-Serif" font-size="14.00"> normalized</text>
</g>
<!-- Node8&#45;&gt;Node1 -->
<g id="edge9" class="edge"><title>Node8&#45;&gt;Node1</title>
<path fill="none" stroke="#9a32cd" stroke-dasharray="5,2" d="M566.024,-27.9133C605.69,-33.1666 652.684,-41.1701 694,-53 712.585,-58.3214 732.385,-66.3629 748.996,-73.8434"/>
<polygon fill="#9a32cd" stroke="#9a32cd" points="566.471,-24.4419 556.106,-26.6363 565.577,-31.3846 566.471,-24.4419"/>
<text text-anchor="middle" x="634" y="-56.8" font-family="Helvetica,sans-Serif" font-size="14.00"> type</text>
</g>
</g>
</svg>
        <g id="navigator" transform="translate(0 0)" fill="#404254">
                <rect fill="#f2f5e9" fill-opacity="0.5" stroke="#606060" stroke-width=".5" x="0" y="0" width="60" height="60"/>
                <use id="zoomplus" xlink:href="#zoomPlus" x="17" y="9" onmousedown="handleZoom(evt,'in')"/>
                <use id="zoomminus" xlink:href="#zoomMin" x="42" y="9" onmousedown="handleZoom(evt,'out')"/>
                <use id="reset" xlink:href="#resetDef" x="30" y="36" onmousedown="handleReset()"/>
                <g id="arrowUp" xlink:href="#dirArrow" transform="translate(30 24)" onmousedown="handlePan(0,-1)">
                  <use xlink:href="#rim" fill="#404040">
                        <set attributeName="fill" to="#808080" begin="arrowUp.mouseover" end="arrowUp.mouseout"/>
                  </use>
                  <path fill="none" stroke="white" stroke-width="1.5" d="M0,-3.0v7 M-2.5,-0.5L0,-3.0L2.5,-0.5"/>
                </g>
                <g id="arrowRight" xlink:href="#dirArrow" transform="rotate(90) translate(36 -43)" onmousedown="handlePan(1,0)">
                  <use xlink:href="#rim" fill="#404040">
                        <set attributeName="fill" to="#808080" begin="arrowRight.mouseover" end="arrowRight.mouseout"/>
                  </use>
                  <path fill="none" stroke="white" stroke-width="1.5" d="M0,-3.0v7 M-2.5,-0.5L0,-3.0L2.5,-0.5"/>
                </g>
                <g id="arrowDown" xlink:href="#dirArrow" transform="rotate(180) translate(-30 -48)" onmousedown="handlePan(0,1)">
                  <use xlink:href="#rim" fill="#404040">
                        <set attributeName="fill" to="#808080" begin="arrowDown.mouseover" end="arrowDown.mouseout"/>
                  </use>
                  <path fill="none" stroke="white" stroke-width="1.5" d="M0,-3.0v7 M-2.5,-0.5L0,-3.0L2.5,-0.5"/>
                </g>
                <g id="arrowLeft" xlink:href="#dirArrow" transform="rotate(270) translate(-36 17)" onmousedown="handlePan(-1,0)">
                  <use xlink:href="#rim" fill="#404040">
                        <set attributeName="fill" to="#808080" begin="arrowLeft.mouseover" end="arrowLeft.mouseout"/>
                  </use>
                  <path fill="none" stroke="white" stroke-width="1.5" d="M0,-3.0v7 M-2.5,-0.5L0,-3.0L2.5,-0.5"/>
                </g>
        </g>
        <svg viewBox="0 0 15 15" width="100%" height="30px" preserveAspectRatio="xMaxYMin meet">
         <g id="arrow_out" transform="scale(0.3 0.3)">
          <a xlink:href="structglTF__Builder_1_1struct__accessor__coll__graph_org.svg" target="_base">
           <rect id="button" ry="5" rx="5" y="6" x="6" height="38" width="38"
                fill="#f2f5e9" fill-opacity="0.5" stroke="#606060" stroke-width="1.0"/>
           <path id="arrow"
             d="M 11.500037,31.436501 C 11.940474,20.09759 22.043105,11.32322 32.158766,21.979434 L 37.068811,17.246167 C 37.068811,17.246167 37.088388,32 37.088388,32 L 22.160133,31.978069 C 22.160133,31.978069 26.997745,27.140456 26.997745,27.140456 C 18.528582,18.264221 13.291696,25.230495 11.500037,31.436501 z"
             style="fill:#404040;"/>
          </a>
         </g>
        </svg>
</svg>
