<?xml version="1.0" encoding="UTF-8" standalone="no"?>
<!DOCTYPE svg PUBLIC "-//W3C//DTD SVG 1.1//EN"
 "http://www.w3.org/Graphics/SVG/1.1/DTD/svg11.dtd">
<!-- Generated by graphviz version 2.30.1 (20200304.1809)
 -->
<!-- Title: gl3::TextBuffer::Entry Pages: 1 -->
<svg width="174pt" height="186pt"
 viewBox="0.00 0.00 174.00 186.00" xmlns="http://www.w3.org/2000/svg" xmlns:xlink="http://www.w3.org/1999/xlink">
<g id="graph0" class="graph" transform="scale(1 1) rotate(0) translate(4 182)">
<title>gl3::TextBuffer::Entry</title>
<polygon fill="white" stroke="white" points="-4,5 -4,-182 171,-182 171,5 -4,5"/>
<!-- Node1 -->
<g id="node1" class="node"><title>Node1</title>
<polygon fill="#bfbfbf" stroke="black" points="-0.5,-0.5 -0.5,-23.5 166.5,-23.5 166.5,-0.5 -0.5,-0.5"/>
<text text-anchor="middle" x="83" y="-8.3" font-family="Helvetica,sans-Serif" font-size="14.00">gl3::TextBuffer::Entry</text>
</g>
<!-- Node2 -->
<g id="node2" class="node"><title>Node2</title>
<g id="a_node2"><a xlink:title="STL class. ">
<polygon fill="white" stroke="#bfbfbf" points="39,-76.5 39,-99.5 127,-99.5 127,-76.5 39,-76.5"/>
<text text-anchor="middle" x="83" y="-84.3" font-family="Helvetica,sans-Serif" font-size="14.00">std::string</text>
</a>
</g>
</g>
<!-- Node2&#45;&gt;Node1 -->
<g id="edge1" class="edge"><title>Node2&#45;&gt;Node1</title>
<path fill="none" stroke="#9a32cd" stroke-dasharray="5,2" d="M83,-66.2771C83,-52.3872 83,-34.675 83,-23.5827"/>
<polygon fill="#9a32cd" stroke="#9a32cd" points="79.5001,-66.3976 83,-76.3976 86.5001,-66.3976 79.5001,-66.3976"/>
<text text-anchor="middle" x="99.5" y="-46.3" font-family="Helvetica,sans-Serif" font-size="14.00"> text</text>
</g>
<!-- Node3 -->
<g id="node3" class="node"><title>Node3</title>
<polygon fill="white" stroke="#bfbfbf" points="11,-139 11,-177 155,-177 155,-139 11,-139"/>
<text text-anchor="start" x="19" y="-161.8" font-family="Helvetica,sans-Serif" font-size="14.00">std::basic_string&lt;</text>
<text text-anchor="middle" x="83" y="-146.8" font-family="Helvetica,sans-Serif" font-size="14.00"> char &gt;</text>
</g>
<!-- Node3&#45;&gt;Node2 -->
<g id="edge2" class="edge"><title>Node3&#45;&gt;Node2</title>
<path fill="none" stroke="midnightblue" d="M83,-128.599C83,-118.442 83,-107.6 83,-99.8335"/>
<polygon fill="midnightblue" stroke="midnightblue" points="79.5001,-128.777 83,-138.777 86.5001,-128.777 79.5001,-128.777"/>
</g>
</g>
</svg>
