<?xml version="1.0" encoding="UTF-8" standalone="no"?>
<!DOCTYPE svg PUBLIC "-//W3C//DTD SVG 1.1//EN"
 "http://www.w3.org/Graphics/SVG/1.1/DTD/svg11.dtd">
<!-- Generated by graphviz version 2.26.3 (20100126.1600)
 -->
<!-- Title: G Pages: 1 -->
<!--zoomable 140 -->
<svg id="main" version="1.1" xmlns="http://www.w3.org/2000/svg" xmlns:xlink="http://www.w3.org/1999/xlink" xml:space="preserve" onload="init(evt)">
        <defs>
                <circle id="rim" cx="0" cy="0" r="7"/>
                <circle id="rim2" cx="0" cy="0" r="3.5"/>
                <g id="zoomPlus">
                        <use xlink:href="#rim" fill="#404040">
                                <set attributeName="fill" to="#808080" begin="zoomplus.mouseover" end="zoomplus.mouseout"/>
                        </use>
                        <path d="M-4,0h8M0,-4v8" fill="none" stroke="white" stroke-width="1.5" pointer-events="none"/>
                </g>
                <g id="zoomMin">
                        <use xlink:href="#rim" fill="#404040">
                                <set attributeName="fill" to="#808080" begin="zoomminus.mouseover" end="zoomminus.mouseout"/>
                        </use>
                        <path d="M-4,0h8" fill="none" stroke="white" stroke-width="1.5" pointer-events="none"/>
                </g>
                <g id="dirArrow">
                        <path fill="none" stroke="white" stroke-width="1.5" d="M0,-3.0v7 M-2.5,-0.5L0,-3.0L2.5,-0.5"/>
                </g>
               <g id="resetDef">
                       <use xlink:href="#rim2" fill="#404040">
                               <set attributeName="fill" to="#808080" begin="reset.mouseover" end="reset.mouseout"/>
                       </use>
               </g>
        </defs>

<script type="text/javascript">
var viewWidth = 906;
var viewHeight = 140;
var sectionId = 'dynsection-0';
</script>
<script xlink:href="svgpan.js"/>
<svg id="graph" class="graph">
<g id="viewport">
<title>G</title>
<polygon fill="white" stroke="white" points="-4,5 -4,-136 903,-136 903,5 -4,5"/>
<!-- Node1 -->
<g id="node1" class="node"><title>Node1</title>
<polygon fill="#bfbfbf" stroke="black" points="439,-112.5 439,-131.5 501,-131.5 501,-112.5 439,-112.5"/>
<text text-anchor="middle" x="470" y="-118.5" font-family="FreeSans" font-size="10.00">visual.hpp</text>
</g>
<!-- Node2 -->
<g id="node3" class="node"><title>Node2</title>
<a xlink:href="material_8hpp.html" target="_top" xlink:title="material.hpp">
<polygon fill="white" stroke="black" points="116,-56.5 116,-75.5 188,-75.5 188,-56.5 116,-56.5"/>
<text text-anchor="middle" x="152" y="-62.5" font-family="FreeSans" font-size="10.00">material.hpp</text>
</a>
</g>
<!-- Node1&#45;&gt;Node2 -->
<g id="edge2" class="edge"><title>Node1&#45;&gt;Node2</title>
<path fill="none" stroke="midnightblue" d="M438.789,-117.279C389.714,-109.74 291.298,-94.1509 198.179,-76.1583"/>
<polygon fill="midnightblue" stroke="midnightblue" points="198.8,-72.7134 188.316,-74.2393 197.463,-79.5846 198.8,-72.7134"/>
</g>
<!-- Node3 -->
<g id="node5" class="node"><title>Node3</title>
<a xlink:href="aux__vis_8hpp.html" target="_top" xlink:title="aux_vis.hpp">
<polygon fill="white" stroke="black" points="205.5,-56.5 205.5,-75.5 274.5,-75.5 274.5,-56.5 205.5,-56.5"/>
<text text-anchor="middle" x="240" y="-62.5" font-family="FreeSans" font-size="10.00">aux_vis.hpp</text>
</a>
</g>
<!-- Node1&#45;&gt;Node3 -->
<g id="edge4" class="edge"><title>Node1&#45;&gt;Node3</title>
<path fill="none" stroke="midnightblue" d="M438.981,-114.448C399.197,-104.761 329.927,-87.8952 284.519,-76.8395"/>
<polygon fill="midnightblue" stroke="midnightblue" points="285.193,-73.4014 274.649,-74.4363 283.537,-80.2027 285.193,-73.4014"/>
</g>
<!-- Node9 -->
<g id="node17" class="node"><title>Node9</title>
<a xlink:href="openglvis_8hpp.html" target="_top" xlink:title="openglvis.hpp">
<polygon fill="white" stroke="black" points="340,-0.5 340,-19.5 418,-19.5 418,-0.5 340,-0.5"/>
<text text-anchor="middle" x="379" y="-6.5" font-family="FreeSans" font-size="10.00">openglvis.hpp</text>
</a>
</g>
<!-- Node1&#45;&gt;Node9 -->
<g id="edge18" class="edge"><title>Node1&#45;&gt;Node9</title>
<path fill="none" stroke="midnightblue" d="M438.822,-115.57C403.424,-107.563 349.013,-92.8657 337,-76 325.191,-59.4201 341.605,-39.6321 357.243,-26.075"/>
<polygon fill="midnightblue" stroke="midnightblue" points="359.648,-28.6298 365.196,-19.6035 355.23,-23.2001 359.648,-28.6298"/>
</g>
<!-- Node10 -->
<g id="node20" class="node"><title>Node10</title>
<a xlink:href="vsdata_8hpp.html" target="_top" xlink:title="vsdata.hpp">
<polygon fill="white" stroke="black" points="346,-56.5 346,-75.5 412,-75.5 412,-56.5 346,-56.5"/>
<text text-anchor="middle" x="379" y="-62.5" font-family="FreeSans" font-size="10.00">vsdata.hpp</text>
</a>
</g>
<!-- Node1&#45;&gt;Node10 -->
<g id="edge20" class="edge"><title>Node1&#45;&gt;Node10</title>
<path fill="none" stroke="midnightblue" d="M454.149,-112.246C440.187,-103.653 419.627,-91.0014 403.54,-81.1018"/>
<polygon fill="midnightblue" stroke="midnightblue" points="405.02,-77.9029 394.669,-75.6427 401.352,-83.8645 405.02,-77.9029"/>
</g>
<!-- Node12 -->
<g id="node25" class="node"><title>Node12</title>
<a xlink:href="vssolution_8hpp.html" target="_top" xlink:title="vssolution.hpp">
<polygon fill="white" stroke="black" points="429.5,-56.5 429.5,-75.5 510.5,-75.5 510.5,-56.5 429.5,-56.5"/>
<text text-anchor="middle" x="470" y="-62.5" font-family="FreeSans" font-size="10.00">vssolution.hpp</text>
</a>
</g>
<!-- Node1&#45;&gt;Node12 -->
<g id="edge26" class="edge"><title>Node1&#45;&gt;Node12</title>
<path fill="none" stroke="midnightblue" d="M470,-112.246C470,-104.938 470,-94.6944 470,-85.7046"/>
<polygon fill="midnightblue" stroke="midnightblue" points="473.5,-85.6426 470,-75.6427 466.5,-85.6427 473.5,-85.6426"/>
</g>
<!-- Node13 -->
<g id="node27" class="node"><title>Node13</title>
<a xlink:href="vssolution3d_8hpp.html" target="_top" xlink:title="vssolution3d.hpp">
<polygon fill="white" stroke="black" points="528,-56.5 528,-75.5 620,-75.5 620,-56.5 528,-56.5"/>
<text text-anchor="middle" x="574" y="-62.5" font-family="FreeSans" font-size="10.00">vssolution3d.hpp</text>
</a>
</g>
<!-- Node1&#45;&gt;Node13 -->
<g id="edge28" class="edge"><title>Node1&#45;&gt;Node13</title>
<path fill="none" stroke="midnightblue" d="M488.115,-112.246C504.445,-103.453 528.671,-90.4079 547.234,-80.4125"/>
<polygon fill="midnightblue" stroke="midnightblue" points="548.947,-83.4654 556.092,-75.6427 545.628,-77.3021 548.947,-83.4654"/>
</g>
<!-- Node14 -->
<g id="node29" class="node"><title>Node14</title>
<a xlink:href="vsvector_8hpp.html" target="_top" xlink:title="vsvector.hpp">
<polygon fill="white" stroke="black" points="637.5,-56.5 637.5,-75.5 710.5,-75.5 710.5,-56.5 637.5,-56.5"/>
<text text-anchor="middle" x="674" y="-62.5" font-family="FreeSans" font-size="10.00">vsvector.hpp</text>
</a>
</g>
<!-- Node1&#45;&gt;Node14 -->
<g id="edge30" class="edge"><title>Node1&#45;&gt;Node14</title>
<path fill="none" stroke="midnightblue" d="M501.428,-113.373C535.593,-103.994 590.476,-88.9281 629.161,-78.3089"/>
<polygon fill="midnightblue" stroke="midnightblue" points="630.4,-81.5982 639.117,-75.5758 628.547,-74.8479 630.4,-81.5982"/>
</g>
<!-- Node15 -->
<g id="node31" class="node"><title>Node15</title>
<a xlink:href="vsvector3d_8hpp.html" target="_top" xlink:title="vsvector3d.hpp">
<polygon fill="white" stroke="black" points="727.5,-56.5 727.5,-75.5 812.5,-75.5 812.5,-56.5 727.5,-56.5"/>
<text text-anchor="middle" x="770" y="-62.5" font-family="FreeSans" font-size="10.00">vsvector3d.hpp</text>
</a>
</g>
<!-- Node1&#45;&gt;Node15 -->
<g id="edge32" class="edge"><title>Node1&#45;&gt;Node15</title>
<path fill="none" stroke="midnightblue" d="M501.076,-116.372C546.423,-108.135 633.647,-92.1979 717.49,-76.2741"/>
<polygon fill="midnightblue" stroke="midnightblue" points="718.26,-79.6904 727.43,-74.3832 716.952,-72.8137 718.26,-79.6904"/>
</g>
<!-- Node16 -->
<g id="node33" class="node"><title>Node16</title>
<a xlink:href="threads_8hpp.html" target="_top" xlink:title="threads.hpp">
<polygon fill="white" stroke="black" points="829.5,-56.5 829.5,-75.5 898.5,-75.5 898.5,-56.5 829.5,-56.5"/>
<text text-anchor="middle" x="864" y="-62.5" font-family="FreeSans" font-size="10.00">threads.hpp</text>
</a>
</g>
<!-- Node1&#45;&gt;Node16 -->
<g id="edge34" class="edge"><title>Node1&#45;&gt;Node16</title>
<path fill="none" stroke="midnightblue" d="M501.148,-118.956C560.982,-112.887 696.3,-98.0839 819.358,-76.1677"/>
<polygon fill="midnightblue" stroke="midnightblue" points="820.106,-79.5893 829.327,-74.3715 818.865,-72.7002 820.106,-79.5893"/>
</g>
<!-- Node4 -->
<g id="node7" class="node"><title>Node4</title>
<polygon fill="white" stroke="#bfbfbf" points="-0.5,-0.5 -0.5,-19.5 48.5,-19.5 48.5,-0.5 -0.5,-0.5"/>
<text text-anchor="middle" x="24" y="-6.5" font-family="FreeSans" font-size="10.00">GL/gl.h</text>
</g>
<!-- Node3&#45;&gt;Node4 -->
<g id="edge6" class="edge"><title>Node3&#45;&gt;Node4</title>
<path fill="none" stroke="midnightblue" d="M205.468,-57.8426C170.596,-49.4897 114.965,-35.8513 58.6127,-20.3683"/>
<polygon fill="midnightblue" stroke="midnightblue" points="59.4002,-16.9548 48.8291,-17.6633 57.5348,-23.7016 59.4002,-16.9548"/>
</g>
<!-- Node5 -->
<g id="node9" class="node"><title>Node5</title>
<polygon fill="white" stroke="#bfbfbf" points="66,-0.5 66,-19.5 120,-19.5 120,-0.5 66,-0.5"/>
<text text-anchor="middle" x="93" y="-6.5" font-family="FreeSans" font-size="10.00">GL/glu.h</text>
</g>
<!-- Node3&#45;&gt;Node5 -->
<g id="edge8" class="edge"><title>Node3&#45;&gt;Node5</title>
<path fill="none" stroke="midnightblue" d="M214.73,-56.3733C190.603,-47.1822 154.064,-33.2624 127.312,-23.0713"/>
<polygon fill="midnightblue" stroke="midnightblue" points="128.531,-19.7904 117.94,-19.5011 126.039,-26.3318 128.531,-19.7904"/>
</g>
<!-- Node6 -->
<g id="node11" class="node"><title>Node6</title>
<polygon fill="white" stroke="#bfbfbf" points="137.5,-0.5 137.5,-19.5 190.5,-19.5 190.5,-0.5 137.5,-0.5"/>
<text text-anchor="middle" x="164" y="-6.5" font-family="FreeSans" font-size="10.00">GL/glx.h</text>
</g>
<!-- Node3&#45;&gt;Node6 -->
<g id="edge10" class="edge"><title>Node3&#45;&gt;Node6</title>
<path fill="none" stroke="midnightblue" d="M226.762,-56.2455C215.319,-47.814 198.57,-35.4729 185.253,-25.6598"/>
<polygon fill="midnightblue" stroke="midnightblue" points="187.213,-22.757 177.086,-19.6427 183.061,-28.3924 187.213,-22.757"/>
</g>
<!-- Node7 -->
<g id="node13" class="node"><title>Node7</title>
<polygon fill="white" stroke="#bfbfbf" points="207.5,-0.5 207.5,-19.5 240.5,-19.5 240.5,-0.5 207.5,-0.5"/>
<text text-anchor="middle" x="224" y="-6.5" font-family="FreeSans" font-size="10.00">tk.h</text>
</g>
<!-- Node3&#45;&gt;Node7 -->
<g id="edge12" class="edge"><title>Node3&#45;&gt;Node7</title>
<path fill="none" stroke="midnightblue" d="M237.213,-56.2455C235.102,-48.8579 232.134,-38.4689 229.545,-29.4087"/>
<polygon fill="midnightblue" stroke="midnightblue" points="232.868,-28.2964 226.755,-19.6427 226.137,-30.2195 232.868,-28.2964"/>
</g>
<!-- Node8 -->
<g id="node15" class="node"><title>Node8</title>
<polygon fill="white" stroke="#bfbfbf" points="257.5,-0.5 257.5,-19.5 322.5,-19.5 322.5,-0.5 257.5,-0.5"/>
<text text-anchor="middle" x="290" y="-6.5" font-family="FreeSans" font-size="10.00">aux_gl.hpp</text>
</g>
<!-- Node3&#45;&gt;Node8 -->
<g id="edge14" class="edge"><title>Node3&#45;&gt;Node8</title>
<path fill="none" stroke="midnightblue" d="M248.709,-56.2455C255.807,-48.2958 266.008,-36.8706 274.495,-27.3656"/>
<polygon fill="midnightblue" stroke="midnightblue" points="277.341,-29.4331 281.39,-19.6427 272.119,-24.771 277.341,-29.4331"/>
</g>
<!-- Node3&#45;&gt;Node9 -->
<g id="edge16" class="edge"><title>Node3&#45;&gt;Node9</title>
<path fill="none" stroke="midnightblue" d="M263.895,-56.3733C286.508,-47.2629 320.654,-33.5062 345.887,-23.3404"/>
<polygon fill="midnightblue" stroke="midnightblue" points="347.449,-26.4845 355.417,-19.5011 344.833,-19.9917 347.449,-26.4845"/>
</g>
<!-- Node10&#45;&gt;Node9 -->
<g id="edge22" class="edge"><title>Node10&#45;&gt;Node9</title>
<path fill="none" stroke="midnightblue" d="M379,-56.2455C379,-48.9382 379,-38.6944 379,-29.7046"/>
<polygon fill="midnightblue" stroke="midnightblue" points="382.5,-29.6426 379,-19.6427 375.5,-29.6427 382.5,-29.6426"/>
</g>
<!-- Node11 -->
<g id="node23" class="node"><title>Node11</title>
<polygon fill="white" stroke="#bfbfbf" points="435.5,-0.5 435.5,-19.5 496.5,-19.5 496.5,-0.5 435.5,-0.5"/>
<text text-anchor="middle" x="466" y="-6.5" font-family="FreeSans" font-size="10.00">mfem.hpp</text>
</g>
<!-- Node10&#45;&gt;Node11 -->
<g id="edge24" class="edge"><title>Node10&#45;&gt;Node11</title>
<path fill="none" stroke="midnightblue" d="M394.154,-56.2455C407.503,-47.6534 427.159,-35.0014 442.538,-25.1018"/>
<polygon fill="midnightblue" stroke="midnightblue" points="444.505,-27.9982 451.019,-19.6427 440.716,-22.1121 444.505,-27.9982"/>
</g>
<!-- Node17 -->
<g id="node35" class="node"><title>Node17</title>
<polygon fill="white" stroke="#bfbfbf" points="835,-0.5 835,-19.5 893,-19.5 893,-0.5 835,-0.5"/>
<text text-anchor="middle" x="864" y="-6.5" font-family="FreeSans" font-size="10.00">pthread.h</text>
</g>
<!-- Node16&#45;&gt;Node17 -->
<g id="edge36" class="edge"><title>Node16&#45;&gt;Node17</title>
<path fill="none" stroke="midnightblue" d="M864,-56.2455C864,-48.9382 864,-38.6944 864,-29.7046"/>
<polygon fill="midnightblue" stroke="midnightblue" points="867.5,-29.6426 864,-19.6427 860.5,-29.6427 867.5,-29.6426"/>
</g>
</g>
</svg>
        <g id="navigator" transform="translate(0 0)" fill="#404254">
                <rect fill="#f2f5e9" fill-opacity="0.5" stroke="#606060" stroke-width=".5" x="0" y="0" width="60" height="60"/>
                <use id="zoomplus" xlink:href="#zoomPlus" x="17" y="9" onmousedown="handleZoom(evt,'in')"/>
                <use id="zoomminus" xlink:href="#zoomMin" x="42" y="9" onmousedown="handleZoom(evt,'out')"/>
                <use id="reset" xlink:href="#resetDef" x="30" y="36" onmousedown="handleReset()"/>
                <g id="arrowUp" xlink:href="#dirArrow" transform="translate(30 24)" onmousedown="handlePan(0,-1)">
                  <use xlink:href="#rim" fill="#404040">
                        <set attributeName="fill" to="#808080" begin="arrowUp.mouseover" end="arrowUp.mouseout"/>
                  </use>
                  <path fill="none" stroke="white" stroke-width="1.5" d="M0,-3.0v7 M-2.5,-0.5L0,-3.0L2.5,-0.5"/>
                </g>
                <g id="arrowRight" xlink:href="#dirArrow" transform="rotate(90) translate(36 -43)" onmousedown="handlePan(1,0)">
                  <use xlink:href="#rim" fill="#404040">
                        <set attributeName="fill" to="#808080" begin="arrowRight.mouseover" end="arrowRight.mouseout"/>
                  </use>
                  <path fill="none" stroke="white" stroke-width="1.5" d="M0,-3.0v7 M-2.5,-0.5L0,-3.0L2.5,-0.5"/>
                </g>
                <g id="arrowDown" xlink:href="#dirArrow" transform="rotate(180) translate(-30 -48)" onmousedown="handlePan(0,1)">
                  <use xlink:href="#rim" fill="#404040">
                        <set attributeName="fill" to="#808080" begin="arrowDown.mouseover" end="arrowDown.mouseout"/>
                  </use>
                  <path fill="none" stroke="white" stroke-width="1.5" d="M0,-3.0v7 M-2.5,-0.5L0,-3.0L2.5,-0.5"/>
                </g>
                <g id="arrowLeft" xlink:href="#dirArrow" transform="rotate(270) translate(-36 17)" onmousedown="handlePan(-1,0)">
                  <use xlink:href="#rim" fill="#404040">
                        <set attributeName="fill" to="#808080" begin="arrowLeft.mouseover" end="arrowLeft.mouseout"/>
                  </use>
                  <path fill="none" stroke="white" stroke-width="1.5" d="M0,-3.0v7 M-2.5,-0.5L0,-3.0L2.5,-0.5"/>
                </g>
        </g>
</svg>
