<?xml version="1.0" encoding="UTF-8" standalone="no"?>
<!DOCTYPE svg PUBLIC "-//W3C//DTD SVG 1.1//EN"
 "http://www.w3.org/Graphics/SVG/1.1/DTD/svg11.dtd">
<!-- Generated by graphviz version 2.26.3 (20100126.1600)
 -->
<!-- Title: G Pages: 1 -->
<svg width="164pt" height="84pt"
 viewBox="0.00 0.00 164.00 84.00" xmlns="http://www.w3.org/2000/svg" xmlns:xlink="http://www.w3.org/1999/xlink">
<g id="graph1" class="graph" transform="scale(1 1) rotate(0) translate(4 80)">
<title>G</title>
<polygon fill="white" stroke="white" points="-4,5 -4,-80 161,-80 161,5 -4,5"/>
<!-- Node1 -->
<g id="node1" class="node"><title>Node1</title>
<polygon fill="#bfbfbf" stroke="black" points="49,-56.5 49,-75.5 115,-75.5 115,-56.5 49,-56.5"/>
<text text-anchor="middle" x="82" y="-62.5" font-family="FreeSans" font-size="10.00">vsdata.hpp</text>
</g>
<!-- Node2 -->
<g id="node3" class="node"><title>Node2</title>
<a xlink:href="openglvis_8hpp.html" target="_top" xlink:title="openglvis.hpp">
<polygon fill="white" stroke="black" points="0,-0.5 0,-19.5 78,-19.5 78,-0.5 0,-0.5"/>
<text text-anchor="middle" x="39" y="-6.5" font-family="FreeSans" font-size="10.00">openglvis.hpp</text>
</a>
</g>
<!-- Node1&#45;&gt;Node2 -->
<g id="edge2" class="edge"><title>Node1&#45;&gt;Node2</title>
<path fill="none" stroke="midnightblue" d="M74.51,-56.2455C68.4674,-48.3761 59.8097,-37.101 52.5559,-27.6542"/>
<polygon fill="midnightblue" stroke="midnightblue" points="55.2705,-25.4426 46.4042,-19.6427 49.7185,-29.7058 55.2705,-25.4426"/>
</g>
<!-- Node3 -->
<g id="node5" class="node"><title>Node3</title>
<polygon fill="white" stroke="#bfbfbf" points="95.5,-0.5 95.5,-19.5 156.5,-19.5 156.5,-0.5 95.5,-0.5"/>
<text text-anchor="middle" x="126" y="-6.5" font-family="FreeSans" font-size="10.00">mfem.hpp</text>
</g>
<!-- Node1&#45;&gt;Node3 -->
<g id="edge4" class="edge"><title>Node1&#45;&gt;Node3</title>
<path fill="none" stroke="midnightblue" d="M89.6642,-56.2455C95.8473,-48.3761 104.706,-37.101 112.129,-27.6542"/>
<polygon fill="midnightblue" stroke="midnightblue" points="114.997,-29.6683 118.424,-19.6427 109.493,-25.3435 114.997,-29.6683"/>
</g>
</g>
</svg>
