<?xml version="1.0" encoding="UTF-8" standalone="no"?>
<!DOCTYPE svg PUBLIC "-//W3C//DTD SVG 1.1//EN"
 "http://www.w3.org/Graphics/SVG/1.1/DTD/svg11.dtd">
<!-- Generated by graphviz version 2.26.3 (20100126.1600)
 -->
<!-- Title: G Pages: 1 -->
<!--zoomable 140 -->
<svg id="main" version="1.1" xmlns="http://www.w3.org/2000/svg" xmlns:xlink="http://www.w3.org/1999/xlink" xml:space="preserve" onload="init(evt)">
        <defs>
                <circle id="rim" cx="0" cy="0" r="7"/>
                <circle id="rim2" cx="0" cy="0" r="3.5"/>
                <g id="zoomPlus">
                        <use xlink:href="#rim" fill="#404040">
                                <set attributeName="fill" to="#808080" begin="zoomplus.mouseover" end="zoomplus.mouseout"/>
                        </use>
                        <path d="M-4,0h8M0,-4v8" fill="none" stroke="white" stroke-width="1.5" pointer-events="none"/>
                </g>
                <g id="zoomMin">
                        <use xlink:href="#rim" fill="#404040">
                                <set attributeName="fill" to="#808080" begin="zoomminus.mouseover" end="zoomminus.mouseout"/>
                        </use>
                        <path d="M-4,0h8" fill="none" stroke="white" stroke-width="1.5" pointer-events="none"/>
                </g>
                <g id="dirArrow">
                        <path fill="none" stroke="white" stroke-width="1.5" d="M0,-3.0v7 M-2.5,-0.5L0,-3.0L2.5,-0.5"/>
                </g>
               <g id="resetDef">
                       <use xlink:href="#rim2" fill="#404040">
                               <set attributeName="fill" to="#808080" begin="reset.mouseover" end="reset.mouseout"/>
                       </use>
               </g>
        </defs>

<script type="text/javascript">
var viewWidth = 751;
var viewHeight = 140;
var sectionId = 'dynsection-0';
</script>
<script xlink:href="svgpan.js"/>
<svg id="graph" class="graph">
<g id="viewport">
<title>G</title>
<polygon fill="white" stroke="white" points="-4,5 -4,-136 748,-136 748,5 -4,5"/>
<!-- Node1 -->
<g id="node1" class="node"><title>Node1</title>
<polygon fill="#bfbfbf" stroke="black" points="287,-112.5 287,-131.5 353,-131.5 353,-112.5 287,-112.5"/>
<text text-anchor="middle" x="320" y="-118.5" font-family="FreeSans" font-size="10.00">vsdata.cpp</text>
</g>
<!-- Node2 -->
<g id="node3" class="node"><title>Node2</title>
<polygon fill="white" stroke="#bfbfbf" points="0,-56.5 0,-75.5 48,-75.5 48,-56.5 0,-56.5"/>
<text text-anchor="middle" x="24" y="-62.5" font-family="FreeSans" font-size="10.00">stdlib.h</text>
</g>
<!-- Node1&#45;&gt;Node2 -->
<g id="edge2" class="edge"><title>Node1&#45;&gt;Node2</title>
<path fill="none" stroke="midnightblue" d="M286.937,-117.53C238.645,-110.717 145.862,-96.5545 57.9253,-75.997"/>
<polygon fill="midnightblue" stroke="midnightblue" points="58.5964,-72.5591 48.0587,-73.6581 56.9817,-79.3704 58.5964,-72.5591"/>
</g>
<!-- Node3 -->
<g id="node5" class="node"><title>Node3</title>
<polygon fill="white" stroke="#bfbfbf" points="65.5,-56.5 65.5,-75.5 112.5,-75.5 112.5,-56.5 65.5,-56.5"/>
<text text-anchor="middle" x="89" y="-62.5" font-family="FreeSans" font-size="10.00">math.h</text>
</g>
<!-- Node1&#45;&gt;Node3 -->
<g id="edge4" class="edge"><title>Node1&#45;&gt;Node3</title>
<path fill="none" stroke="midnightblue" d="M286.71,-115.112C248.972,-107.126 185.427,-93.1478 122.405,-76.2524"/>
<polygon fill="midnightblue" stroke="midnightblue" points="123.274,-72.8618 112.707,-73.6278 121.445,-79.6187 123.274,-72.8618"/>
</g>
<!-- Node4 -->
<g id="node7" class="node"><title>Node4</title>
<polygon fill="white" stroke="#bfbfbf" points="129.5,-56.5 129.5,-75.5 208.5,-75.5 208.5,-56.5 129.5,-56.5"/>
<text text-anchor="middle" x="169" y="-62.5" font-family="FreeSans" font-size="10.00">X11/keysym.h</text>
</g>
<!-- Node1&#45;&gt;Node4 -->
<g id="edge6" class="edge"><title>Node1&#45;&gt;Node4</title>
<path fill="none" stroke="midnightblue" d="M294.042,-112.373C269.259,-103.182 231.725,-89.2624 204.246,-79.0713"/>
<polygon fill="midnightblue" stroke="midnightblue" points="205.212,-75.6968 194.619,-75.5011 202.778,-82.26 205.212,-75.6968"/>
</g>
<!-- Node5 -->
<g id="node9" class="node"><title>Node5</title>
<polygon fill="white" stroke="#bfbfbf" points="225.5,-56.5 225.5,-75.5 276.5,-75.5 276.5,-56.5 225.5,-56.5"/>
<text text-anchor="middle" x="251" y="-62.5" font-family="FreeSans" font-size="10.00">iomanip</text>
</g>
<!-- Node1&#45;&gt;Node5 -->
<g id="edge8" class="edge"><title>Node1&#45;&gt;Node5</title>
<path fill="none" stroke="midnightblue" d="M307.981,-112.246C297.79,-103.975 282.964,-91.9416 270.989,-82.2232"/>
<polygon fill="midnightblue" stroke="midnightblue" points="272.851,-79.2268 262.881,-75.6427 268.44,-84.662 272.851,-79.2268"/>
</g>
<!-- Node6 -->
<g id="node11" class="node"><title>Node6</title>
<polygon fill="white" stroke="#bfbfbf" points="294,-56.5 294,-75.5 346,-75.5 346,-56.5 294,-56.5"/>
<text text-anchor="middle" x="320" y="-62.5" font-family="FreeSans" font-size="10.00">sstream</text>
</g>
<!-- Node1&#45;&gt;Node6 -->
<g id="edge10" class="edge"><title>Node1&#45;&gt;Node6</title>
<path fill="none" stroke="midnightblue" d="M320,-112.246C320,-104.938 320,-94.6944 320,-85.7046"/>
<polygon fill="midnightblue" stroke="midnightblue" points="323.5,-85.6426 320,-75.6427 316.5,-85.6427 323.5,-85.6426"/>
</g>
<!-- Node7 -->
<g id="node13" class="node"><title>Node7</title>
<a xlink:href="vsdata_8hpp.html" target="_top" xlink:title="vsdata.hpp">
<polygon fill="white" stroke="black" points="364,-56.5 364,-75.5 430,-75.5 430,-56.5 364,-56.5"/>
<text text-anchor="middle" x="397" y="-62.5" font-family="FreeSans" font-size="10.00">vsdata.hpp</text>
</a>
</g>
<!-- Node1&#45;&gt;Node7 -->
<g id="edge12" class="edge"><title>Node1&#45;&gt;Node7</title>
<path fill="none" stroke="midnightblue" d="M333.412,-112.246C345.006,-103.814 361.975,-91.4729 375.468,-81.6598"/>
<polygon fill="midnightblue" stroke="midnightblue" points="377.713,-84.355 383.741,-75.6427 373.595,-78.6938 377.713,-84.355"/>
</g>
<!-- Node10 -->
<g id="node19" class="node"><title>Node10</title>
<a xlink:href="aux__vis_8hpp.html" target="_top" xlink:title="aux_vis.hpp">
<polygon fill="white" stroke="black" points="447.5,-56.5 447.5,-75.5 516.5,-75.5 516.5,-56.5 447.5,-56.5"/>
<text text-anchor="middle" x="482" y="-62.5" font-family="FreeSans" font-size="10.00">aux_vis.hpp</text>
</a>
</g>
<!-- Node1&#45;&gt;Node10 -->
<g id="edge18" class="edge"><title>Node1&#45;&gt;Node10</title>
<path fill="none" stroke="midnightblue" d="M347.849,-112.373C374.67,-103.102 415.413,-89.0178 444.96,-78.804"/>
<polygon fill="midnightblue" stroke="midnightblue" points="446.207,-82.0762 454.515,-75.5011 443.92,-75.4603 446.207,-82.0762"/>
</g>
<!-- Node16 -->
<g id="node32" class="node"><title>Node16</title>
<a xlink:href="material_8hpp.html" target="_top" xlink:title="material.hpp">
<polygon fill="white" stroke="black" points="534,-56.5 534,-75.5 606,-75.5 606,-56.5 534,-56.5"/>
<text text-anchor="middle" x="570" y="-62.5" font-family="FreeSans" font-size="10.00">material.hpp</text>
</a>
</g>
<!-- Node1&#45;&gt;Node16 -->
<g id="edge32" class="edge"><title>Node1&#45;&gt;Node16</title>
<path fill="none" stroke="midnightblue" d="M353.198,-114.564C397.062,-104.738 474.54,-87.3831 524.019,-76.2998"/>
<polygon fill="midnightblue" stroke="midnightblue" points="524.833,-79.7042 533.826,-74.1029 523.303,-72.8735 524.833,-79.7042"/>
</g>
<!-- Node17 -->
<g id="node34" class="node"><title>Node17</title>
<polygon fill="white" stroke="#bfbfbf" points="624,-56.5 624,-75.5 672,-75.5 672,-56.5 624,-56.5"/>
<text text-anchor="middle" x="648" y="-62.5" font-family="FreeSans" font-size="10.00">gl2ps.h</text>
</g>
<!-- Node1&#45;&gt;Node17 -->
<g id="edge34" class="edge"><title>Node1&#45;&gt;Node17</title>
<path fill="none" stroke="midnightblue" d="M353.025,-118.376C406.102,-112.224 513.775,-98.3892 613.971,-75.9778"/>
<polygon fill="midnightblue" stroke="midnightblue" points="614.977,-79.3386 623.953,-73.7104 613.427,-72.5125 614.977,-79.3386"/>
</g>
<!-- Node8 -->
<g id="node15" class="node"><title>Node8</title>
<a xlink:href="openglvis_8hpp.html" target="_top" xlink:title="openglvis.hpp">
<polygon fill="white" stroke="black" points="325,-0.5 325,-19.5 403,-19.5 403,-0.5 325,-0.5"/>
<text text-anchor="middle" x="364" y="-6.5" font-family="FreeSans" font-size="10.00">openglvis.hpp</text>
</a>
</g>
<!-- Node7&#45;&gt;Node8 -->
<g id="edge14" class="edge"><title>Node7&#45;&gt;Node8</title>
<path fill="none" stroke="midnightblue" d="M391.252,-56.2455C386.756,-48.617 380.375,-37.7881 374.918,-28.5267"/>
<polygon fill="midnightblue" stroke="midnightblue" points="377.775,-26.4811 369.682,-19.6427 371.744,-30.035 377.775,-26.4811"/>
</g>
<!-- Node9 -->
<g id="node17" class="node"><title>Node9</title>
<polygon fill="white" stroke="#bfbfbf" points="246.5,-0.5 246.5,-19.5 307.5,-19.5 307.5,-0.5 246.5,-0.5"/>
<text text-anchor="middle" x="277" y="-6.5" font-family="FreeSans" font-size="10.00">mfem.hpp</text>
</g>
<!-- Node7&#45;&gt;Node9 -->
<g id="edge16" class="edge"><title>Node7&#45;&gt;Node9</title>
<path fill="none" stroke="midnightblue" d="M376.371,-56.3733C357.108,-47.3838 328.151,-33.8706 306.458,-23.7471"/>
<polygon fill="midnightblue" stroke="midnightblue" points="307.902,-20.5584 297.36,-19.5011 304.941,-26.9017 307.902,-20.5584"/>
</g>
<!-- Node10&#45;&gt;Node8 -->
<g id="edge30" class="edge"><title>Node10&#45;&gt;Node8</title>
<path fill="none" stroke="midnightblue" d="M461.715,-56.3733C442.858,-47.4241 414.554,-33.9917 393.255,-23.8835"/>
<polygon fill="midnightblue" stroke="midnightblue" points="394.555,-20.6266 384.02,-19.5011 391.554,-26.9506 394.555,-20.6266"/>
</g>
<!-- Node11 -->
<g id="node21" class="node"><title>Node11</title>
<polygon fill="white" stroke="#bfbfbf" points="420.5,-0.5 420.5,-19.5 469.5,-19.5 469.5,-0.5 420.5,-0.5"/>
<text text-anchor="middle" x="445" y="-6.5" font-family="FreeSans" font-size="10.00">GL/gl.h</text>
</g>
<!-- Node10&#45;&gt;Node11 -->
<g id="edge20" class="edge"><title>Node10&#45;&gt;Node11</title>
<path fill="none" stroke="midnightblue" d="M475.555,-56.2455C470.462,-48.5367 463.209,-37.5598 457.048,-28.2348"/>
<polygon fill="midnightblue" stroke="midnightblue" points="459.804,-26.0566 451.371,-19.6427 453.963,-29.9155 459.804,-26.0566"/>
</g>
<!-- Node12 -->
<g id="node23" class="node"><title>Node12</title>
<polygon fill="white" stroke="#bfbfbf" points="487,-0.5 487,-19.5 541,-19.5 541,-0.5 487,-0.5"/>
<text text-anchor="middle" x="514" y="-6.5" font-family="FreeSans" font-size="10.00">GL/glu.h</text>
</g>
<!-- Node10&#45;&gt;Node12 -->
<g id="edge22" class="edge"><title>Node10&#45;&gt;Node12</title>
<path fill="none" stroke="midnightblue" d="M487.574,-56.2455C491.933,-48.617 498.121,-37.7881 503.413,-28.5267"/>
<polygon fill="midnightblue" stroke="midnightblue" points="506.567,-30.0616 508.49,-19.6427 500.49,-26.5886 506.567,-30.0616"/>
</g>
<!-- Node13 -->
<g id="node25" class="node"><title>Node13</title>
<polygon fill="white" stroke="#bfbfbf" points="558.5,-0.5 558.5,-19.5 611.5,-19.5 611.5,-0.5 558.5,-0.5"/>
<text text-anchor="middle" x="585" y="-6.5" font-family="FreeSans" font-size="10.00">GL/glx.h</text>
</g>
<!-- Node10&#45;&gt;Node13 -->
<g id="edge24" class="edge"><title>Node10&#45;&gt;Node13</title>
<path fill="none" stroke="midnightblue" d="M499.941,-56.2455C516.04,-47.4928 539.888,-34.527 558.239,-24.5496"/>
<polygon fill="midnightblue" stroke="midnightblue" points="560.151,-27.4942 567.264,-19.6427 556.807,-21.3444 560.151,-27.4942"/>
</g>
<!-- Node14 -->
<g id="node27" class="node"><title>Node14</title>
<polygon fill="white" stroke="#bfbfbf" points="628.5,-0.5 628.5,-19.5 661.5,-19.5 661.5,-0.5 628.5,-0.5"/>
<text text-anchor="middle" x="645" y="-6.5" font-family="FreeSans" font-size="10.00">tk.h</text>
</g>
<!-- Node10&#45;&gt;Node14 -->
<g id="edge26" class="edge"><title>Node10&#45;&gt;Node14</title>
<path fill="none" stroke="midnightblue" d="M512.328,-56.4566C538.433,-48.1178 577.293,-35.411 618.896,-20.2807"/>
<polygon fill="midnightblue" stroke="midnightblue" points="620.192,-23.5334 628.377,-16.807 617.784,-16.9606 620.192,-23.5334"/>
</g>
<!-- Node15 -->
<g id="node29" class="node"><title>Node15</title>
<polygon fill="white" stroke="#bfbfbf" points="678.5,-0.5 678.5,-19.5 743.5,-19.5 743.5,-0.5 678.5,-0.5"/>
<text text-anchor="middle" x="711" y="-6.5" font-family="FreeSans" font-size="10.00">aux_gl.hpp</text>
</g>
<!-- Node10&#45;&gt;Node15 -->
<g id="edge28" class="edge"><title>Node10&#45;&gt;Node15</title>
<path fill="none" stroke="midnightblue" d="M516.78,-57.4948C557.524,-47.5313 625.004,-31.0297 668.73,-20.3368"/>
<polygon fill="midnightblue" stroke="midnightblue" points="669.61,-23.7249 678.492,-17.9496 667.947,-16.9253 669.61,-23.7249"/>
</g>
</g>
</svg>
        <g id="navigator" transform="translate(0 0)" fill="#404254">
                <rect fill="#f2f5e9" fill-opacity="0.5" stroke="#606060" stroke-width=".5" x="0" y="0" width="60" height="60"/>
                <use id="zoomplus" xlink:href="#zoomPlus" x="17" y="9" onmousedown="handleZoom(evt,'in')"/>
                <use id="zoomminus" xlink:href="#zoomMin" x="42" y="9" onmousedown="handleZoom(evt,'out')"/>
                <use id="reset" xlink:href="#resetDef" x="30" y="36" onmousedown="handleReset()"/>
                <g id="arrowUp" xlink:href="#dirArrow" transform="translate(30 24)" onmousedown="handlePan(0,-1)">
                  <use xlink:href="#rim" fill="#404040">
                        <set attributeName="fill" to="#808080" begin="arrowUp.mouseover" end="arrowUp.mouseout"/>
                  </use>
                  <path fill="none" stroke="white" stroke-width="1.5" d="M0,-3.0v7 M-2.5,-0.5L0,-3.0L2.5,-0.5"/>
                </g>
                <g id="arrowRight" xlink:href="#dirArrow" transform="rotate(90) translate(36 -43)" onmousedown="handlePan(1,0)">
                  <use xlink:href="#rim" fill="#404040">
                        <set attributeName="fill" to="#808080" begin="arrowRight.mouseover" end="arrowRight.mouseout"/>
                  </use>
                  <path fill="none" stroke="white" stroke-width="1.5" d="M0,-3.0v7 M-2.5,-0.5L0,-3.0L2.5,-0.5"/>
                </g>
                <g id="arrowDown" xlink:href="#dirArrow" transform="rotate(180) translate(-30 -48)" onmousedown="handlePan(0,1)">
                  <use xlink:href="#rim" fill="#404040">
                        <set attributeName="fill" to="#808080" begin="arrowDown.mouseover" end="arrowDown.mouseout"/>
                  </use>
                  <path fill="none" stroke="white" stroke-width="1.5" d="M0,-3.0v7 M-2.5,-0.5L0,-3.0L2.5,-0.5"/>
                </g>
                <g id="arrowLeft" xlink:href="#dirArrow" transform="rotate(270) translate(-36 17)" onmousedown="handlePan(-1,0)">
                  <use xlink:href="#rim" fill="#404040">
                        <set attributeName="fill" to="#808080" begin="arrowLeft.mouseover" end="arrowLeft.mouseout"/>
                  </use>
                  <path fill="none" stroke="white" stroke-width="1.5" d="M0,-3.0v7 M-2.5,-0.5L0,-3.0L2.5,-0.5"/>
                </g>
        </g>
</svg>
