<?xml version="1.0" encoding="UTF-8" standalone="no"?>
<!DOCTYPE svg PUBLIC "-//W3C//DTD SVG 1.1//EN"
 "http://www.w3.org/Graphics/SVG/1.1/DTD/svg11.dtd">
<!-- Generated by graphviz version 2.26.3 (20100126.1600)
 -->
<!-- Title: G Pages: 1 -->
<!--zoomable 140 -->
<svg id="main" version="1.1" xmlns="http://www.w3.org/2000/svg" xmlns:xlink="http://www.w3.org/1999/xlink" xml:space="preserve" onload="init(evt)">
        <defs>
                <circle id="rim" cx="0" cy="0" r="7"/>
                <circle id="rim2" cx="0" cy="0" r="3.5"/>
                <g id="zoomPlus">
                        <use xlink:href="#rim" fill="#404040">
                                <set attributeName="fill" to="#808080" begin="zoomplus.mouseover" end="zoomplus.mouseout"/>
                        </use>
                        <path d="M-4,0h8M0,-4v8" fill="none" stroke="white" stroke-width="1.5" pointer-events="none"/>
                </g>
                <g id="zoomMin">
                        <use xlink:href="#rim" fill="#404040">
                                <set attributeName="fill" to="#808080" begin="zoomminus.mouseover" end="zoomminus.mouseout"/>
                        </use>
                        <path d="M-4,0h8" fill="none" stroke="white" stroke-width="1.5" pointer-events="none"/>
                </g>
                <g id="dirArrow">
                        <path fill="none" stroke="white" stroke-width="1.5" d="M0,-3.0v7 M-2.5,-0.5L0,-3.0L2.5,-0.5"/>
                </g>
               <g id="resetDef">
                       <use xlink:href="#rim2" fill="#404040">
                               <set attributeName="fill" to="#808080" begin="reset.mouseover" end="reset.mouseout"/>
                       </use>
               </g>
        </defs>

<script type="text/javascript">
var viewWidth = 634;
var viewHeight = 140;
var sectionId = 'dynsection-0';
</script>
<script xlink:href="svgpan.js"/>
<svg id="graph" class="graph">
<g id="viewport">
<title>G</title>
<polygon fill="white" stroke="white" points="-4,5 -4,-136 631,-136 631,5 -4,5"/>
<!-- Node1 -->
<g id="node1" class="node"><title>Node1</title>
<polygon fill="#bfbfbf" stroke="black" points="243.5,-112.5 243.5,-131.5 324.5,-131.5 324.5,-112.5 243.5,-112.5"/>
<text text-anchor="middle" x="284" y="-118.5" font-family="FreeSans" font-size="10.00">vssolution.hpp</text>
</g>
<!-- Node2 -->
<g id="node3" class="node"><title>Node2</title>
<a xlink:href="visual_8hpp.html" target="_top" xlink:title="visual.hpp">
<polygon fill="white" stroke="black" points="253,-56.5 253,-75.5 315,-75.5 315,-56.5 253,-56.5"/>
<text text-anchor="middle" x="284" y="-62.5" font-family="FreeSans" font-size="10.00">visual.hpp</text>
</a>
</g>
<!-- Node1&#45;&gt;Node2 -->
<g id="edge2" class="edge"><title>Node1&#45;&gt;Node2</title>
<path fill="none" stroke="midnightblue" d="M284,-102.158C284,-93.155 284,-82.9199 284,-75.6427"/>
<polygon fill="midnightblue" stroke="midnightblue" points="280.5,-102.246 284,-112.246 287.5,-102.246 280.5,-102.246"/>
</g>
<!-- Node3 -->
<g id="node5" class="node"><title>Node3</title>
<a xlink:href="glvis_8cpp.html" target="_top" xlink:title="glvis.cpp">
<polygon fill="white" stroke="black" points="-0.5,-0.5 -0.5,-19.5 54.5,-19.5 54.5,-0.5 -0.5,-0.5"/>
<text text-anchor="middle" x="27" y="-6.5" font-family="FreeSans" font-size="10.00">glvis.cpp</text>
</a>
</g>
<!-- Node2&#45;&gt;Node3 -->
<g id="edge4" class="edge"><title>Node2&#45;&gt;Node3</title>
<path fill="none" stroke="midnightblue" d="M242.88,-58.2803C198.364,-49.7277 125.362,-35.1343 63,-20 60.3525,-19.3575 57.6046,-18.6566 54.8607,-17.9339"/>
<polygon fill="midnightblue" stroke="midnightblue" points="242.267,-61.7263 252.746,-60.1664 243.581,-54.8508 242.267,-61.7263"/>
</g>
<!-- Node4 -->
<g id="node7" class="node"><title>Node4</title>
<a xlink:href="aux__vis_8cpp.html" target="_top" xlink:title="aux_vis.cpp">
<polygon fill="white" stroke="black" points="71.5,-0.5 71.5,-19.5 140.5,-19.5 140.5,-0.5 71.5,-0.5"/>
<text text-anchor="middle" x="106" y="-6.5" font-family="FreeSans" font-size="10.00">aux_vis.cpp</text>
</a>
</g>
<!-- Node2&#45;&gt;Node4 -->
<g id="edge6" class="edge"><title>Node2&#45;&gt;Node4</title>
<path fill="none" stroke="midnightblue" d="M243.707,-53.3235C211.063,-43.0536 165.787,-28.8093 136.2,-19.5011"/>
<polygon fill="midnightblue" stroke="midnightblue" points="242.811,-56.7108 253.401,-56.3733 244.912,-50.0335 242.811,-56.7108"/>
</g>
<!-- Node5 -->
<g id="node9" class="node"><title>Node5</title>
<a xlink:href="threads_8cpp.html" target="_top" xlink:title="threads.cpp">
<polygon fill="white" stroke="black" points="157.5,-0.5 157.5,-19.5 226.5,-19.5 226.5,-0.5 157.5,-0.5"/>
<text text-anchor="middle" x="192" y="-6.5" font-family="FreeSans" font-size="10.00">threads.cpp</text>
</a>
</g>
<!-- Node2&#45;&gt;Node5 -->
<g id="edge8" class="edge"><title>Node2&#45;&gt;Node5</title>
<path fill="none" stroke="midnightblue" d="M258.978,-50.769C242.675,-40.8456 221.899,-28.1994 207.842,-19.6427"/>
<polygon fill="midnightblue" stroke="midnightblue" points="257.613,-54.0357 267.975,-56.2455 261.253,-48.0563 257.613,-54.0357"/>
</g>
<!-- Node6 -->
<g id="node11" class="node"><title>Node6</title>
<a xlink:href="vssolution_8cpp.html" target="_top" xlink:title="vssolution.cpp">
<polygon fill="white" stroke="black" points="243.5,-0.5 243.5,-19.5 324.5,-19.5 324.5,-0.5 243.5,-0.5"/>
<text text-anchor="middle" x="284" y="-6.5" font-family="FreeSans" font-size="10.00">vssolution.cpp</text>
</a>
</g>
<!-- Node2&#45;&gt;Node6 -->
<g id="edge10" class="edge"><title>Node2&#45;&gt;Node6</title>
<path fill="none" stroke="midnightblue" d="M284,-46.1575C284,-37.155 284,-26.9199 284,-19.6427"/>
<polygon fill="midnightblue" stroke="midnightblue" points="280.5,-46.2455 284,-56.2455 287.5,-46.2456 280.5,-46.2455"/>
</g>
<!-- Node7 -->
<g id="node13" class="node"><title>Node7</title>
<a xlink:href="vssolution3d_8cpp.html" target="_top" xlink:title="vssolution3d.cpp">
<polygon fill="white" stroke="black" points="342,-0.5 342,-19.5 434,-19.5 434,-0.5 342,-0.5"/>
<text text-anchor="middle" x="388" y="-6.5" font-family="FreeSans" font-size="10.00">vssolution3d.cpp</text>
</a>
</g>
<!-- Node2&#45;&gt;Node7 -->
<g id="edge12" class="edge"><title>Node2&#45;&gt;Node7</title>
<path fill="none" stroke="midnightblue" d="M311.003,-51.46C329.614,-41.4388 353.83,-28.3993 370.092,-19.6427"/>
<polygon fill="midnightblue" stroke="midnightblue" points="309.261,-48.4228 302.115,-56.2455 312.58,-54.5861 309.261,-48.4228"/>
</g>
<!-- Node8 -->
<g id="node15" class="node"><title>Node8</title>
<a xlink:href="vsvector_8cpp.html" target="_top" xlink:title="vsvector.cpp">
<polygon fill="white" stroke="black" points="451.5,-0.5 451.5,-19.5 524.5,-19.5 524.5,-0.5 451.5,-0.5"/>
<text text-anchor="middle" x="488" y="-6.5" font-family="FreeSans" font-size="10.00">vsvector.cpp</text>
</a>
</g>
<!-- Node2&#45;&gt;Node8 -->
<g id="edge14" class="edge"><title>Node2&#45;&gt;Node8</title>
<path fill="none" stroke="midnightblue" d="M325.538,-54.5975C363.097,-44.287 417.773,-29.2779 453.117,-19.5758"/>
<polygon fill="midnightblue" stroke="midnightblue" points="324.145,-51.3503 315.428,-57.3727 325.998,-58.1006 324.145,-51.3503"/>
</g>
<!-- Node9 -->
<g id="node17" class="node"><title>Node9</title>
<a xlink:href="vsvector3d_8cpp.html" target="_top" xlink:title="vsvector3d.cpp">
<polygon fill="white" stroke="black" points="542,-0.5 542,-19.5 626,-19.5 626,-0.5 542,-0.5"/>
<text text-anchor="middle" x="584" y="-6.5" font-family="FreeSans" font-size="10.00">vsvector3d.cpp</text>
</a>
</g>
<!-- Node2&#45;&gt;Node9 -->
<g id="edge16" class="edge"><title>Node2&#45;&gt;Node9</title>
<path fill="none" stroke="midnightblue" d="M325.049,-58.5588C374.428,-49.5746 459.824,-33.9328 533,-20 535.925,-19.4431 538.943,-18.8636 541.982,-18.2766"/>
<polygon fill="midnightblue" stroke="midnightblue" points="324.288,-55.1396 315.076,-60.3719 325.54,-62.0267 324.288,-55.1396"/>
</g>
</g>
</svg>
        <g id="navigator" transform="translate(0 0)" fill="#404254">
                <rect fill="#f2f5e9" fill-opacity="0.5" stroke="#606060" stroke-width=".5" x="0" y="0" width="60" height="60"/>
                <use id="zoomplus" xlink:href="#zoomPlus" x="17" y="9" onmousedown="handleZoom(evt,'in')"/>
                <use id="zoomminus" xlink:href="#zoomMin" x="42" y="9" onmousedown="handleZoom(evt,'out')"/>
                <use id="reset" xlink:href="#resetDef" x="30" y="36" onmousedown="handleReset()"/>
                <g id="arrowUp" xlink:href="#dirArrow" transform="translate(30 24)" onmousedown="handlePan(0,-1)">
                  <use xlink:href="#rim" fill="#404040">
                        <set attributeName="fill" to="#808080" begin="arrowUp.mouseover" end="arrowUp.mouseout"/>
                  </use>
                  <path fill="none" stroke="white" stroke-width="1.5" d="M0,-3.0v7 M-2.5,-0.5L0,-3.0L2.5,-0.5"/>
                </g>
                <g id="arrowRight" xlink:href="#dirArrow" transform="rotate(90) translate(36 -43)" onmousedown="handlePan(1,0)">
                  <use xlink:href="#rim" fill="#404040">
                        <set attributeName="fill" to="#808080" begin="arrowRight.mouseover" end="arrowRight.mouseout"/>
                  </use>
                  <path fill="none" stroke="white" stroke-width="1.5" d="M0,-3.0v7 M-2.5,-0.5L0,-3.0L2.5,-0.5"/>
                </g>
                <g id="arrowDown" xlink:href="#dirArrow" transform="rotate(180) translate(-30 -48)" onmousedown="handlePan(0,1)">
                  <use xlink:href="#rim" fill="#404040">
                        <set attributeName="fill" to="#808080" begin="arrowDown.mouseover" end="arrowDown.mouseout"/>
                  </use>
                  <path fill="none" stroke="white" stroke-width="1.5" d="M0,-3.0v7 M-2.5,-0.5L0,-3.0L2.5,-0.5"/>
                </g>
                <g id="arrowLeft" xlink:href="#dirArrow" transform="rotate(270) translate(-36 17)" onmousedown="handlePan(-1,0)">
                  <use xlink:href="#rim" fill="#404040">
                        <set attributeName="fill" to="#808080" begin="arrowLeft.mouseover" end="arrowLeft.mouseout"/>
                  </use>
                  <path fill="none" stroke="white" stroke-width="1.5" d="M0,-3.0v7 M-2.5,-0.5L0,-3.0L2.5,-0.5"/>
                </g>
        </g>
</svg>
