<?xml version="1.0" encoding="UTF-8" standalone="no"?>
<!DOCTYPE svg PUBLIC "-//W3C//DTD SVG 1.1//EN"
 "http://www.w3.org/Graphics/SVG/1.1/DTD/svg11.dtd">
<!-- Generated by graphviz version 2.26.3 (20100126.1600)
 -->
<!-- Title: G Pages: 1 -->
<!--zoomable 196 -->
<svg id="main" version="1.1" xmlns="http://www.w3.org/2000/svg" xmlns:xlink="http://www.w3.org/1999/xlink" xml:space="preserve" onload="init(evt)">
        <defs>
                <circle id="rim" cx="0" cy="0" r="7"/>
                <circle id="rim2" cx="0" cy="0" r="3.5"/>
                <g id="zoomPlus">
                        <use xlink:href="#rim" fill="#404040">
                                <set attributeName="fill" to="#808080" begin="zoomplus.mouseover" end="zoomplus.mouseout"/>
                        </use>
                        <path d="M-4,0h8M0,-4v8" fill="none" stroke="white" stroke-width="1.5" pointer-events="none"/>
                </g>
                <g id="zoomMin">
                        <use xlink:href="#rim" fill="#404040">
                                <set attributeName="fill" to="#808080" begin="zoomminus.mouseover" end="zoomminus.mouseout"/>
                        </use>
                        <path d="M-4,0h8" fill="none" stroke="white" stroke-width="1.5" pointer-events="none"/>
                </g>
                <g id="dirArrow">
                        <path fill="none" stroke="white" stroke-width="1.5" d="M0,-3.0v7 M-2.5,-0.5L0,-3.0L2.5,-0.5"/>
                </g>
               <g id="resetDef">
                       <use xlink:href="#rim2" fill="#404040">
                               <set attributeName="fill" to="#808080" begin="reset.mouseover" end="reset.mouseout"/>
                       </use>
               </g>
        </defs>

<script type="text/javascript">
var viewWidth = 1172;
var viewHeight = 196;
var sectionId = 'dynsection-0';
</script>
<script xlink:href="svgpan.js"/>
<svg id="graph" class="graph">
<g id="viewport">
<title>G</title>
<polygon fill="white" stroke="white" points="-4,5 -4,-192 1169,-192 1169,5 -4,5"/>
<!-- Node1 -->
<g id="node1" class="node"><title>Node1</title>
<polygon fill="#bfbfbf" stroke="black" points="176.5,-168.5 176.5,-187.5 257.5,-187.5 257.5,-168.5 176.5,-168.5"/>
<text text-anchor="middle" x="217" y="-174.5" font-family="FreeSans" font-size="10.00">vssolution.cpp</text>
</g>
<!-- Node2 -->
<g id="node3" class="node"><title>Node2</title>
<polygon fill="white" stroke="#bfbfbf" points="0,-112.5 0,-131.5 48,-131.5 48,-112.5 0,-112.5"/>
<text text-anchor="middle" x="24" y="-118.5" font-family="FreeSans" font-size="10.00">stdlib.h</text>
</g>
<!-- Node1&#45;&gt;Node2 -->
<g id="edge2" class="edge"><title>Node1&#45;&gt;Node2</title>
<path fill="none" stroke="midnightblue" d="M183.248,-168.448C152.864,-159.815 106.74,-146.628 57.9322,-132.249"/>
<polygon fill="midnightblue" stroke="midnightblue" points="58.7204,-128.832 48.1386,-129.358 56.7387,-135.546 58.7204,-128.832"/>
</g>
<!-- Node3 -->
<g id="node5" class="node"><title>Node3</title>
<polygon fill="white" stroke="#bfbfbf" points="65.5,-112.5 65.5,-131.5 120.5,-131.5 120.5,-112.5 65.5,-112.5"/>
<text text-anchor="middle" x="93" y="-118.5" font-family="FreeSans" font-size="10.00">iostream</text>
</g>
<!-- Node1&#45;&gt;Node3 -->
<g id="edge4" class="edge"><title>Node1&#45;&gt;Node3</title>
<path fill="none" stroke="midnightblue" d="M195.684,-168.373C175.778,-159.384 145.856,-145.871 123.44,-135.747"/>
<polygon fill="midnightblue" stroke="midnightblue" points="124.592,-132.427 114.038,-131.501 121.711,-138.807 124.592,-132.427"/>
</g>
<!-- Node4 -->
<g id="node7" class="node"><title>Node4</title>
<polygon fill="white" stroke="#bfbfbf" points="137.5,-112.5 137.5,-131.5 176.5,-131.5 176.5,-112.5 137.5,-112.5"/>
<text text-anchor="middle" x="157" y="-118.5" font-family="FreeSans" font-size="10.00">limits</text>
</g>
<!-- Node1&#45;&gt;Node4 -->
<g id="edge6" class="edge"><title>Node1&#45;&gt;Node4</title>
<path fill="none" stroke="midnightblue" d="M206.549,-168.246C197.773,-160.055 185.045,-148.175 174.686,-138.507"/>
<polygon fill="midnightblue" stroke="midnightblue" points="177.03,-135.907 167.331,-131.643 172.254,-141.025 177.03,-135.907"/>
</g>
<!-- Node5 -->
<g id="node9" class="node"><title>Node5</title>
<polygon fill="white" stroke="#bfbfbf" points="193.5,-112.5 193.5,-131.5 240.5,-131.5 240.5,-112.5 193.5,-112.5"/>
<text text-anchor="middle" x="217" y="-118.5" font-family="FreeSans" font-size="10.00">math.h</text>
</g>
<!-- Node1&#45;&gt;Node5 -->
<g id="edge8" class="edge"><title>Node1&#45;&gt;Node5</title>
<path fill="none" stroke="midnightblue" d="M217,-168.246C217,-160.938 217,-150.694 217,-141.705"/>
<polygon fill="midnightblue" stroke="midnightblue" points="220.5,-141.643 217,-131.643 213.5,-141.643 220.5,-141.643"/>
</g>
<!-- Node6 -->
<g id="node11" class="node"><title>Node6</title>
<polygon fill="white" stroke="#bfbfbf" points="257.5,-112.5 257.5,-131.5 336.5,-131.5 336.5,-112.5 257.5,-112.5"/>
<text text-anchor="middle" x="297" y="-118.5" font-family="FreeSans" font-size="10.00">X11/keysym.h</text>
</g>
<!-- Node1&#45;&gt;Node6 -->
<g id="edge10" class="edge"><title>Node1&#45;&gt;Node6</title>
<path fill="none" stroke="midnightblue" d="M230.935,-168.246C243.095,-159.734 260.946,-147.237 275.028,-137.38"/>
<polygon fill="midnightblue" stroke="midnightblue" points="277.04,-140.245 283.225,-131.643 273.025,-134.51 277.04,-140.245"/>
</g>
<!-- Node7 -->
<g id="node13" class="node"><title>Node7</title>
<polygon fill="white" stroke="#bfbfbf" points="320.5,-0.5 320.5,-19.5 381.5,-19.5 381.5,-0.5 320.5,-0.5"/>
<text text-anchor="middle" x="351" y="-6.5" font-family="FreeSans" font-size="10.00">mfem.hpp</text>
</g>
<!-- Node1&#45;&gt;Node7 -->
<g id="edge12" class="edge"><title>Node1&#45;&gt;Node7</title>
<path fill="none" stroke="midnightblue" d="M257.595,-168.618C290.913,-160.023 334.284,-146.469 345,-132 367.197,-102.028 361.727,-55.6563 356.128,-29.5645"/>
<polygon fill="midnightblue" stroke="midnightblue" points="359.51,-28.6561 353.801,-19.7309 352.698,-30.2682 359.51,-28.6561"/>
</g>
<!-- Node8 -->
<g id="node15" class="node"><title>Node8</title>
<a xlink:href="visual_8hpp.html" target="_top" xlink:title="visual.hpp">
<polygon fill="white" stroke="black" points="667,-112.5 667,-131.5 729,-131.5 729,-112.5 667,-112.5"/>
<text text-anchor="middle" x="698" y="-118.5" font-family="FreeSans" font-size="10.00">visual.hpp</text>
</a>
</g>
<!-- Node1&#45;&gt;Node8 -->
<g id="edge14" class="edge"><title>Node1&#45;&gt;Node8</title>
<path fill="none" stroke="midnightblue" d="M257.595,-173.274C348.209,-162.724 566.121,-137.354 657.058,-126.767"/>
<polygon fill="midnightblue" stroke="midnightblue" points="657.464,-130.243 666.992,-125.61 656.655,-123.29 657.464,-130.243"/>
</g>
<!-- Node9 -->
<g id="node17" class="node"><title>Node9</title>
<a xlink:href="material_8hpp.html" target="_top" xlink:title="material.hpp">
<polygon fill="white" stroke="black" points="1092,-56.5 1092,-75.5 1164,-75.5 1164,-56.5 1092,-56.5"/>
<text text-anchor="middle" x="1128" y="-62.5" font-family="FreeSans" font-size="10.00">material.hpp</text>
</a>
</g>
<!-- Node8&#45;&gt;Node9 -->
<g id="edge16" class="edge"><title>Node8&#45;&gt;Node9</title>
<path fill="none" stroke="midnightblue" d="M729.092,-119.346C793.151,-113.651 944.636,-99.0159 1081.47,-76.1241"/>
<polygon fill="midnightblue" stroke="midnightblue" points="1082.44,-79.5101 1091.71,-74.39 1081.27,-72.6083 1082.44,-79.5101"/>
</g>
<!-- Node10 -->
<g id="node19" class="node"><title>Node10</title>
<a xlink:href="aux__vis_8hpp.html" target="_top" xlink:title="aux_vis.hpp">
<polygon fill="white" stroke="black" points="519.5,-56.5 519.5,-75.5 588.5,-75.5 588.5,-56.5 519.5,-56.5"/>
<text text-anchor="middle" x="554" y="-62.5" font-family="FreeSans" font-size="10.00">aux_vis.hpp</text>
</a>
</g>
<!-- Node8&#45;&gt;Node10 -->
<g id="edge18" class="edge"><title>Node8&#45;&gt;Node10</title>
<path fill="none" stroke="midnightblue" d="M673.246,-112.373C649.715,-103.223 614.131,-89.3844 587.957,-79.2057"/>
<polygon fill="midnightblue" stroke="midnightblue" points="589.02,-75.8636 578.431,-75.5011 586.483,-82.3877 589.02,-75.8636"/>
</g>
<!-- Node16 -->
<g id="node31" class="node"><title>Node16</title>
<a xlink:href="openglvis_8hpp.html" target="_top" xlink:title="openglvis.hpp">
<polygon fill="white" stroke="black" points="399,-0.5 399,-19.5 477,-19.5 477,-0.5 399,-0.5"/>
<text text-anchor="middle" x="438" y="-6.5" font-family="FreeSans" font-size="10.00">openglvis.hpp</text>
</a>
</g>
<!-- Node8&#45;&gt;Node16 -->
<g id="edge32" class="edge"><title>Node8&#45;&gt;Node16</title>
<path fill="none" stroke="midnightblue" d="M666.88,-119.063C628.356,-114.397 561.641,-102.891 511,-76 487.827,-63.6953 466.188,-42.4042 452.58,-27.3353"/>
<polygon fill="midnightblue" stroke="midnightblue" points="455.112,-24.9135 445.888,-19.7005 449.848,-29.5276 455.112,-24.9135"/>
</g>
<!-- Node17 -->
<g id="node34" class="node"><title>Node17</title>
<a xlink:href="vsdata_8hpp.html" target="_top" xlink:title="vsdata.hpp">
<polygon fill="white" stroke="black" points="398,-56.5 398,-75.5 464,-75.5 464,-56.5 398,-56.5"/>
<text text-anchor="middle" x="431" y="-62.5" font-family="FreeSans" font-size="10.00">vsdata.hpp</text>
</a>
</g>
<!-- Node8&#45;&gt;Node17 -->
<g id="edge34" class="edge"><title>Node8&#45;&gt;Node17</title>
<path fill="none" stroke="midnightblue" d="M666.661,-115.484C623.983,-106.601 545.197,-90.1738 478,-76 476.737,-75.7337 475.456,-75.463 474.162,-75.1895"/>
<polygon fill="midnightblue" stroke="midnightblue" points="474.629,-71.7109 464.121,-73.0623 473.178,-78.5589 474.629,-71.7109"/>
</g>
<!-- Node18 -->
<g id="node38" class="node"><title>Node18</title>
<a xlink:href="vssolution_8hpp.html" target="_top" xlink:title="vssolution.hpp">
<polygon fill="white" stroke="black" points="605.5,-56.5 605.5,-75.5 686.5,-75.5 686.5,-56.5 605.5,-56.5"/>
<text text-anchor="middle" x="646" y="-62.5" font-family="FreeSans" font-size="10.00">vssolution.hpp</text>
</a>
</g>
<!-- Node8&#45;&gt;Node18 -->
<g id="edge40" class="edge"><title>Node8&#45;&gt;Node18</title>
<path fill="none" stroke="midnightblue" d="M688.942,-112.246C681.486,-104.216 670.737,-92.6394 661.858,-83.0781"/>
<polygon fill="midnightblue" stroke="midnightblue" points="664.323,-80.589 654.954,-75.6427 659.194,-85.3522 664.323,-80.589"/>
</g>
<!-- Node19 -->
<g id="node40" class="node"><title>Node19</title>
<a xlink:href="vssolution3d_8hpp.html" target="_top" xlink:title="vssolution3d.hpp">
<polygon fill="white" stroke="black" points="704,-56.5 704,-75.5 796,-75.5 796,-56.5 704,-56.5"/>
<text text-anchor="middle" x="750" y="-62.5" font-family="FreeSans" font-size="10.00">vssolution3d.hpp</text>
</a>
</g>
<!-- Node8&#45;&gt;Node19 -->
<g id="edge42" class="edge"><title>Node8&#45;&gt;Node19</title>
<path fill="none" stroke="midnightblue" d="M707.058,-112.246C714.514,-104.216 725.263,-92.6394 734.142,-83.0781"/>
<polygon fill="midnightblue" stroke="midnightblue" points="736.806,-85.3522 741.046,-75.6427 731.677,-80.589 736.806,-85.3522"/>
</g>
<!-- Node20 -->
<g id="node42" class="node"><title>Node20</title>
<a xlink:href="vsvector_8hpp.html" target="_top" xlink:title="vsvector.hpp">
<polygon fill="white" stroke="black" points="813.5,-56.5 813.5,-75.5 886.5,-75.5 886.5,-56.5 813.5,-56.5"/>
<text text-anchor="middle" x="850" y="-62.5" font-family="FreeSans" font-size="10.00">vsvector.hpp</text>
</a>
</g>
<!-- Node8&#45;&gt;Node20 -->
<g id="edge44" class="edge"><title>Node8&#45;&gt;Node20</title>
<path fill="none" stroke="midnightblue" d="M724.13,-112.373C749.077,-103.182 786.859,-89.2624 814.521,-79.0713"/>
<polygon fill="midnightblue" stroke="midnightblue" points="816.038,-82.2424 824.211,-75.5011 813.618,-75.674 816.038,-82.2424"/>
</g>
<!-- Node21 -->
<g id="node44" class="node"><title>Node21</title>
<a xlink:href="vsvector3d_8hpp.html" target="_top" xlink:title="vsvector3d.hpp">
<polygon fill="white" stroke="black" points="903.5,-56.5 903.5,-75.5 988.5,-75.5 988.5,-56.5 903.5,-56.5"/>
<text text-anchor="middle" x="946" y="-62.5" font-family="FreeSans" font-size="10.00">vsvector3d.hpp</text>
</a>
</g>
<!-- Node8&#45;&gt;Node21 -->
<g id="edge46" class="edge"><title>Node8&#45;&gt;Node21</title>
<path fill="none" stroke="midnightblue" d="M729.158,-114.964C770.417,-105.648 843.764,-89.0856 893.614,-77.829"/>
<polygon fill="midnightblue" stroke="midnightblue" points="894.581,-81.1988 903.565,-75.5821 893.04,-74.3708 894.581,-81.1988"/>
</g>
<!-- Node22 -->
<g id="node46" class="node"><title>Node22</title>
<a xlink:href="threads_8hpp.html" target="_top" xlink:title="threads.hpp">
<polygon fill="white" stroke="black" points="1005.5,-56.5 1005.5,-75.5 1074.5,-75.5 1074.5,-56.5 1005.5,-56.5"/>
<text text-anchor="middle" x="1040" y="-62.5" font-family="FreeSans" font-size="10.00">threads.hpp</text>
</a>
</g>
<!-- Node8&#45;&gt;Node22 -->
<g id="edge48" class="edge"><title>Node8&#45;&gt;Node22</title>
<path fill="none" stroke="midnightblue" d="M729.125,-118.004C781.923,-111.054 892.591,-95.749 995.393,-76.2085"/>
<polygon fill="midnightblue" stroke="midnightblue" points="996.153,-79.6265 1005.31,-74.3044 994.834,-72.7519 996.153,-79.6265"/>
</g>
<!-- Node11 -->
<g id="node21" class="node"><title>Node11</title>
<polygon fill="white" stroke="#bfbfbf" points="696.5,-0.5 696.5,-19.5 745.5,-19.5 745.5,-0.5 696.5,-0.5"/>
<text text-anchor="middle" x="721" y="-6.5" font-family="FreeSans" font-size="10.00">GL/gl.h</text>
</g>
<!-- Node10&#45;&gt;Node11 -->
<g id="edge20" class="edge"><title>Node10&#45;&gt;Node11</title>
<path fill="none" stroke="midnightblue" d="M582.708,-56.3733C611.531,-46.7083 655.947,-31.8142 686.629,-21.5256"/>
<polygon fill="midnightblue" stroke="midnightblue" points="688.097,-24.725 696.465,-18.2273 685.871,-18.0882 688.097,-24.725"/>
</g>
<!-- Node12 -->
<g id="node23" class="node"><title>Node12</title>
<polygon fill="white" stroke="#bfbfbf" points="763,-0.5 763,-19.5 817,-19.5 817,-0.5 763,-0.5"/>
<text text-anchor="middle" x="790" y="-6.5" font-family="FreeSans" font-size="10.00">GL/glu.h</text>
</g>
<!-- Node10&#45;&gt;Node12 -->
<g id="edge22" class="edge"><title>Node10&#45;&gt;Node12</title>
<path fill="none" stroke="midnightblue" d="M588.732,-57.9132C591.529,-57.2648 594.312,-56.6208 597,-56 663.756,-40.5842 682.975,-37.8085 753.14,-20.1402"/>
<polygon fill="midnightblue" stroke="midnightblue" points="754.073,-23.5146 762.908,-17.6678 752.355,-16.7286 754.073,-23.5146"/>
</g>
<!-- Node13 -->
<g id="node25" class="node"><title>Node13</title>
<polygon fill="white" stroke="#bfbfbf" points="494.5,-0.5 494.5,-19.5 547.5,-19.5 547.5,-0.5 494.5,-0.5"/>
<text text-anchor="middle" x="521" y="-6.5" font-family="FreeSans" font-size="10.00">GL/glx.h</text>
</g>
<!-- Node10&#45;&gt;Node13 -->
<g id="edge24" class="edge"><title>Node10&#45;&gt;Node13</title>
<path fill="none" stroke="midnightblue" d="M548.252,-56.2455C543.756,-48.617 537.375,-37.7881 531.918,-28.5267"/>
<polygon fill="midnightblue" stroke="midnightblue" points="534.775,-26.4811 526.682,-19.6427 528.744,-30.035 534.775,-26.4811"/>
</g>
<!-- Node14 -->
<g id="node27" class="node"><title>Node14</title>
<polygon fill="white" stroke="#bfbfbf" points="564.5,-0.5 564.5,-19.5 597.5,-19.5 597.5,-0.5 564.5,-0.5"/>
<text text-anchor="middle" x="581" y="-6.5" font-family="FreeSans" font-size="10.00">tk.h</text>
</g>
<!-- Node10&#45;&gt;Node14 -->
<g id="edge26" class="edge"><title>Node10&#45;&gt;Node14</title>
<path fill="none" stroke="midnightblue" d="M558.703,-56.2455C562.342,-48.6973 567.492,-38.0158 571.926,-28.8197"/>
<polygon fill="midnightblue" stroke="midnightblue" points="575.16,-30.1704 576.351,-19.6427 568.855,-27.1303 575.16,-30.1704"/>
</g>
<!-- Node15 -->
<g id="node29" class="node"><title>Node15</title>
<polygon fill="white" stroke="#bfbfbf" points="614.5,-0.5 614.5,-19.5 679.5,-19.5 679.5,-0.5 614.5,-0.5"/>
<text text-anchor="middle" x="647" y="-6.5" font-family="FreeSans" font-size="10.00">aux_gl.hpp</text>
</g>
<!-- Node10&#45;&gt;Node15 -->
<g id="edge28" class="edge"><title>Node10&#45;&gt;Node15</title>
<path fill="none" stroke="midnightblue" d="M570.199,-56.2455C584.602,-47.5731 605.873,-34.7645 622.38,-24.825"/>
<polygon fill="midnightblue" stroke="midnightblue" points="624.225,-27.7996 630.986,-19.6427 620.614,-21.8028 624.225,-27.7996"/>
</g>
<!-- Node10&#45;&gt;Node16 -->
<g id="edge30" class="edge"><title>Node10&#45;&gt;Node16</title>
<path fill="none" stroke="midnightblue" d="M534.059,-56.3733C515.521,-47.4241 487.697,-33.9917 466.759,-23.8835"/>
<polygon fill="midnightblue" stroke="midnightblue" points="468.208,-20.6967 457.681,-19.5011 465.165,-27.0006 468.208,-20.6967"/>
</g>
<!-- Node17&#45;&gt;Node7 -->
<g id="edge38" class="edge"><title>Node17&#45;&gt;Node7</title>
<path fill="none" stroke="midnightblue" d="M417.065,-56.2455C404.905,-47.7337 387.054,-35.2375 372.972,-25.3801"/>
<polygon fill="midnightblue" stroke="midnightblue" points="374.975,-22.51 364.775,-19.6427 370.96,-28.2447 374.975,-22.51"/>
</g>
<!-- Node17&#45;&gt;Node16 -->
<g id="edge36" class="edge"><title>Node17&#45;&gt;Node16</title>
<path fill="none" stroke="midnightblue" d="M432.219,-56.2455C433.133,-48.9382 434.413,-38.6944 435.537,-29.7046"/>
<polygon fill="midnightblue" stroke="midnightblue" points="439.027,-29.9996 436.795,-19.6427 432.081,-29.1313 439.027,-29.9996"/>
</g>
<!-- Node23 -->
<g id="node48" class="node"><title>Node23</title>
<polygon fill="white" stroke="#bfbfbf" points="1011,-0.5 1011,-19.5 1069,-19.5 1069,-0.5 1011,-0.5"/>
<text text-anchor="middle" x="1040" y="-6.5" font-family="FreeSans" font-size="10.00">pthread.h</text>
</g>
<!-- Node22&#45;&gt;Node23 -->
<g id="edge50" class="edge"><title>Node22&#45;&gt;Node23</title>
<path fill="none" stroke="midnightblue" d="M1040,-56.2455C1040,-48.9382 1040,-38.6944 1040,-29.7046"/>
<polygon fill="midnightblue" stroke="midnightblue" points="1043.5,-29.6426 1040,-19.6427 1036.5,-29.6427 1043.5,-29.6426"/>
</g>
</g>
</svg>
        <g id="navigator" transform="translate(0 0)" fill="#404254">
                <rect fill="#f2f5e9" fill-opacity="0.5" stroke="#606060" stroke-width=".5" x="0" y="0" width="60" height="60"/>
                <use id="zoomplus" xlink:href="#zoomPlus" x="17" y="9" onmousedown="handleZoom(evt,'in')"/>
                <use id="zoomminus" xlink:href="#zoomMin" x="42" y="9" onmousedown="handleZoom(evt,'out')"/>
                <use id="reset" xlink:href="#resetDef" x="30" y="36" onmousedown="handleReset()"/>
                <g id="arrowUp" xlink:href="#dirArrow" transform="translate(30 24)" onmousedown="handlePan(0,-1)">
                  <use xlink:href="#rim" fill="#404040">
                        <set attributeName="fill" to="#808080" begin="arrowUp.mouseover" end="arrowUp.mouseout"/>
                  </use>
                  <path fill="none" stroke="white" stroke-width="1.5" d="M0,-3.0v7 M-2.5,-0.5L0,-3.0L2.5,-0.5"/>
                </g>
                <g id="arrowRight" xlink:href="#dirArrow" transform="rotate(90) translate(36 -43)" onmousedown="handlePan(1,0)">
                  <use xlink:href="#rim" fill="#404040">
                        <set attributeName="fill" to="#808080" begin="arrowRight.mouseover" end="arrowRight.mouseout"/>
                  </use>
                  <path fill="none" stroke="white" stroke-width="1.5" d="M0,-3.0v7 M-2.5,-0.5L0,-3.0L2.5,-0.5"/>
                </g>
                <g id="arrowDown" xlink:href="#dirArrow" transform="rotate(180) translate(-30 -48)" onmousedown="handlePan(0,1)">
                  <use xlink:href="#rim" fill="#404040">
                        <set attributeName="fill" to="#808080" begin="arrowDown.mouseover" end="arrowDown.mouseout"/>
                  </use>
                  <path fill="none" stroke="white" stroke-width="1.5" d="M0,-3.0v7 M-2.5,-0.5L0,-3.0L2.5,-0.5"/>
                </g>
                <g id="arrowLeft" xlink:href="#dirArrow" transform="rotate(270) translate(-36 17)" onmousedown="handlePan(-1,0)">
                  <use xlink:href="#rim" fill="#404040">
                        <set attributeName="fill" to="#808080" begin="arrowLeft.mouseover" end="arrowLeft.mouseout"/>
                  </use>
                  <path fill="none" stroke="white" stroke-width="1.5" d="M0,-3.0v7 M-2.5,-0.5L0,-3.0L2.5,-0.5"/>
                </g>
        </g>
</svg>
