<?xml version="1.0" encoding="UTF-8" standalone="no"?>
<!DOCTYPE svg PUBLIC "-//W3C//DTD SVG 1.1//EN"
 "http://www.w3.org/Graphics/SVG/1.1/DTD/svg11.dtd">
<!-- Generated by graphviz version 2.26.3 (20100126.1600)
 -->
<!-- Title: G Pages: 1 -->
<!--zoomable 196 -->
<svg id="main" version="1.1" xmlns="http://www.w3.org/2000/svg" xmlns:xlink="http://www.w3.org/1999/xlink" xml:space="preserve" onload="init(evt)">
        <defs>
                <circle id="rim" cx="0" cy="0" r="7"/>
                <circle id="rim2" cx="0" cy="0" r="3.5"/>
                <g id="zoomPlus">
                        <use xlink:href="#rim" fill="#404040">
                                <set attributeName="fill" to="#808080" begin="zoomplus.mouseover" end="zoomplus.mouseout"/>
                        </use>
                        <path d="M-4,0h8M0,-4v8" fill="none" stroke="white" stroke-width="1.5" pointer-events="none"/>
                </g>
                <g id="zoomMin">
                        <use xlink:href="#rim" fill="#404040">
                                <set attributeName="fill" to="#808080" begin="zoomminus.mouseover" end="zoomminus.mouseout"/>
                        </use>
                        <path d="M-4,0h8" fill="none" stroke="white" stroke-width="1.5" pointer-events="none"/>
                </g>
                <g id="dirArrow">
                        <path fill="none" stroke="white" stroke-width="1.5" d="M0,-3.0v7 M-2.5,-0.5L0,-3.0L2.5,-0.5"/>
                </g>
               <g id="resetDef">
                       <use xlink:href="#rim2" fill="#404040">
                               <set attributeName="fill" to="#808080" begin="reset.mouseover" end="reset.mouseout"/>
                       </use>
               </g>
        </defs>

<script type="text/javascript">
var viewWidth = 1116;
var viewHeight = 196;
var sectionId = 'dynsection-0';
</script>
<script xlink:href="svgpan.js"/>
<svg id="graph" class="graph">
<g id="viewport">
<title>G</title>
<polygon fill="white" stroke="white" points="-4,5 -4,-192 1113,-192 1113,5 -4,5"/>
<!-- Node1 -->
<g id="node1" class="node"><title>Node1</title>
<polygon fill="#bfbfbf" stroke="black" points="155,-168.5 155,-187.5 247,-187.5 247,-168.5 155,-168.5"/>
<text text-anchor="middle" x="201" y="-174.5" font-family="FreeSans" font-size="10.00">vssolution3d.cpp</text>
</g>
<!-- Node2 -->
<g id="node3" class="node"><title>Node2</title>
<polygon fill="white" stroke="#bfbfbf" points="0,-112.5 0,-131.5 48,-131.5 48,-112.5 0,-112.5"/>
<text text-anchor="middle" x="24" y="-118.5" font-family="FreeSans" font-size="10.00">stdlib.h</text>
</g>
<!-- Node1&#45;&gt;Node2 -->
<g id="edge2" class="edge"><title>Node1&#45;&gt;Node2</title>
<path fill="none" stroke="midnightblue" d="M170.573,-168.373C139.132,-158.426 90.183,-142.939 57.6166,-132.636"/>
<polygon fill="midnightblue" stroke="midnightblue" points="58.6632,-129.296 48.0732,-129.616 56.5516,-135.97 58.6632,-129.296"/>
</g>
<!-- Node3 -->
<g id="node5" class="node"><title>Node3</title>
<polygon fill="white" stroke="#bfbfbf" points="65.5,-112.5 65.5,-131.5 120.5,-131.5 120.5,-112.5 65.5,-112.5"/>
<text text-anchor="middle" x="93" y="-118.5" font-family="FreeSans" font-size="10.00">iostream</text>
</g>
<!-- Node1&#45;&gt;Node3 -->
<g id="edge4" class="edge"><title>Node1&#45;&gt;Node3</title>
<path fill="none" stroke="midnightblue" d="M182.188,-168.246C165.153,-159.413 139.842,-146.289 120.532,-136.276"/>
<polygon fill="midnightblue" stroke="midnightblue" points="122.085,-133.139 111.597,-131.643 118.863,-139.353 122.085,-133.139"/>
</g>
<!-- Node4 -->
<g id="node7" class="node"><title>Node4</title>
<polygon fill="white" stroke="#bfbfbf" points="137.5,-112.5 137.5,-131.5 184.5,-131.5 184.5,-112.5 137.5,-112.5"/>
<text text-anchor="middle" x="161" y="-118.5" font-family="FreeSans" font-size="10.00">math.h</text>
</g>
<!-- Node1&#45;&gt;Node4 -->
<g id="edge6" class="edge"><title>Node1&#45;&gt;Node4</title>
<path fill="none" stroke="midnightblue" d="M194.033,-168.246C188.469,-160.456 180.522,-149.331 173.817,-139.944"/>
<polygon fill="midnightblue" stroke="midnightblue" points="176.548,-137.746 167.888,-131.643 170.852,-141.814 176.548,-137.746"/>
</g>
<!-- Node5 -->
<g id="node9" class="node"><title>Node5</title>
<polygon fill="white" stroke="#bfbfbf" points="201.5,-112.5 201.5,-131.5 280.5,-131.5 280.5,-112.5 201.5,-112.5"/>
<text text-anchor="middle" x="241" y="-118.5" font-family="FreeSans" font-size="10.00">X11/keysym.h</text>
</g>
<!-- Node1&#45;&gt;Node5 -->
<g id="edge8" class="edge"><title>Node1&#45;&gt;Node5</title>
<path fill="none" stroke="midnightblue" d="M207.967,-168.246C213.531,-160.456 221.478,-149.331 228.183,-139.944"/>
<polygon fill="midnightblue" stroke="midnightblue" points="231.148,-141.814 234.112,-131.643 225.452,-137.746 231.148,-141.814"/>
</g>
<!-- Node6 -->
<g id="node11" class="node"><title>Node6</title>
<polygon fill="white" stroke="#bfbfbf" points="264.5,-0.5 264.5,-19.5 325.5,-19.5 325.5,-0.5 264.5,-0.5"/>
<text text-anchor="middle" x="295" y="-6.5" font-family="FreeSans" font-size="10.00">mfem.hpp</text>
</g>
<!-- Node1&#45;&gt;Node6 -->
<g id="edge10" class="edge"><title>Node1&#45;&gt;Node6</title>
<path fill="none" stroke="midnightblue" d="M237.424,-168.451C256.134,-161.545 277.387,-150.152 289,-132 309.009,-100.723 304.455,-55.1603 299.577,-29.4839"/>
<polygon fill="midnightblue" stroke="midnightblue" points="302.96,-28.563 297.469,-19.5021 296.111,-30.0096 302.96,-28.563"/>
</g>
<!-- Node7 -->
<g id="node13" class="node"><title>Node7</title>
<a xlink:href="visual_8hpp.html" target="_top" xlink:title="visual.hpp">
<polygon fill="white" stroke="black" points="611,-112.5 611,-131.5 673,-131.5 673,-112.5 611,-112.5"/>
<text text-anchor="middle" x="642" y="-118.5" font-family="FreeSans" font-size="10.00">visual.hpp</text>
</a>
</g>
<!-- Node1&#45;&gt;Node7 -->
<g id="edge12" class="edge"><title>Node1&#45;&gt;Node7</title>
<path fill="none" stroke="midnightblue" d="M247.361,-172.113C333.887,-161.125 518.632,-137.666 600.95,-127.213"/>
<polygon fill="midnightblue" stroke="midnightblue" points="601.455,-130.677 610.935,-125.945 600.574,-123.732 601.455,-130.677"/>
</g>
<!-- Node8 -->
<g id="node15" class="node"><title>Node8</title>
<a xlink:href="material_8hpp.html" target="_top" xlink:title="material.hpp">
<polygon fill="white" stroke="black" points="1036,-56.5 1036,-75.5 1108,-75.5 1108,-56.5 1036,-56.5"/>
<text text-anchor="middle" x="1072" y="-62.5" font-family="FreeSans" font-size="10.00">material.hpp</text>
</a>
</g>
<!-- Node7&#45;&gt;Node8 -->
<g id="edge14" class="edge"><title>Node7&#45;&gt;Node8</title>
<path fill="none" stroke="midnightblue" d="M673.092,-119.346C737.151,-113.651 888.636,-99.0159 1025.47,-76.1241"/>
<polygon fill="midnightblue" stroke="midnightblue" points="1026.44,-79.5101 1035.71,-74.39 1025.27,-72.6083 1026.44,-79.5101"/>
</g>
<!-- Node9 -->
<g id="node17" class="node"><title>Node9</title>
<a xlink:href="aux__vis_8hpp.html" target="_top" xlink:title="aux_vis.hpp">
<polygon fill="white" stroke="black" points="463.5,-56.5 463.5,-75.5 532.5,-75.5 532.5,-56.5 463.5,-56.5"/>
<text text-anchor="middle" x="498" y="-62.5" font-family="FreeSans" font-size="10.00">aux_vis.hpp</text>
</a>
</g>
<!-- Node7&#45;&gt;Node9 -->
<g id="edge16" class="edge"><title>Node7&#45;&gt;Node9</title>
<path fill="none" stroke="midnightblue" d="M617.246,-112.373C593.715,-103.223 558.131,-89.3844 531.957,-79.2057"/>
<polygon fill="midnightblue" stroke="midnightblue" points="533.02,-75.8636 522.431,-75.5011 530.483,-82.3877 533.02,-75.8636"/>
</g>
<!-- Node15 -->
<g id="node29" class="node"><title>Node15</title>
<a xlink:href="openglvis_8hpp.html" target="_top" xlink:title="openglvis.hpp">
<polygon fill="white" stroke="black" points="343,-0.5 343,-19.5 421,-19.5 421,-0.5 343,-0.5"/>
<text text-anchor="middle" x="382" y="-6.5" font-family="FreeSans" font-size="10.00">openglvis.hpp</text>
</a>
</g>
<!-- Node7&#45;&gt;Node15 -->
<g id="edge30" class="edge"><title>Node7&#45;&gt;Node15</title>
<path fill="none" stroke="midnightblue" d="M610.88,-119.063C572.356,-114.397 505.641,-102.891 455,-76 431.827,-63.6953 410.188,-42.4042 396.58,-27.3353"/>
<polygon fill="midnightblue" stroke="midnightblue" points="399.112,-24.9135 389.888,-19.7005 393.848,-29.5276 399.112,-24.9135"/>
</g>
<!-- Node16 -->
<g id="node32" class="node"><title>Node16</title>
<a xlink:href="vsdata_8hpp.html" target="_top" xlink:title="vsdata.hpp">
<polygon fill="white" stroke="black" points="342,-56.5 342,-75.5 408,-75.5 408,-56.5 342,-56.5"/>
<text text-anchor="middle" x="375" y="-62.5" font-family="FreeSans" font-size="10.00">vsdata.hpp</text>
</a>
</g>
<!-- Node7&#45;&gt;Node16 -->
<g id="edge32" class="edge"><title>Node7&#45;&gt;Node16</title>
<path fill="none" stroke="midnightblue" d="M610.661,-115.484C567.983,-106.601 489.197,-90.1738 422,-76 420.737,-75.7337 419.456,-75.463 418.162,-75.1895"/>
<polygon fill="midnightblue" stroke="midnightblue" points="418.629,-71.7109 408.121,-73.0623 417.178,-78.5589 418.629,-71.7109"/>
</g>
<!-- Node17 -->
<g id="node36" class="node"><title>Node17</title>
<a xlink:href="vssolution_8hpp.html" target="_top" xlink:title="vssolution.hpp">
<polygon fill="white" stroke="black" points="549.5,-56.5 549.5,-75.5 630.5,-75.5 630.5,-56.5 549.5,-56.5"/>
<text text-anchor="middle" x="590" y="-62.5" font-family="FreeSans" font-size="10.00">vssolution.hpp</text>
</a>
</g>
<!-- Node7&#45;&gt;Node17 -->
<g id="edge38" class="edge"><title>Node7&#45;&gt;Node17</title>
<path fill="none" stroke="midnightblue" d="M632.942,-112.246C625.486,-104.216 614.737,-92.6394 605.858,-83.0781"/>
<polygon fill="midnightblue" stroke="midnightblue" points="608.323,-80.589 598.954,-75.6427 603.194,-85.3522 608.323,-80.589"/>
</g>
<!-- Node18 -->
<g id="node38" class="node"><title>Node18</title>
<a xlink:href="vssolution3d_8hpp.html" target="_top" xlink:title="vssolution3d.hpp">
<polygon fill="white" stroke="black" points="648,-56.5 648,-75.5 740,-75.5 740,-56.5 648,-56.5"/>
<text text-anchor="middle" x="694" y="-62.5" font-family="FreeSans" font-size="10.00">vssolution3d.hpp</text>
</a>
</g>
<!-- Node7&#45;&gt;Node18 -->
<g id="edge40" class="edge"><title>Node7&#45;&gt;Node18</title>
<path fill="none" stroke="midnightblue" d="M651.058,-112.246C658.514,-104.216 669.263,-92.6394 678.142,-83.0781"/>
<polygon fill="midnightblue" stroke="midnightblue" points="680.806,-85.3522 685.046,-75.6427 675.677,-80.589 680.806,-85.3522"/>
</g>
<!-- Node19 -->
<g id="node40" class="node"><title>Node19</title>
<a xlink:href="vsvector_8hpp.html" target="_top" xlink:title="vsvector.hpp">
<polygon fill="white" stroke="black" points="757.5,-56.5 757.5,-75.5 830.5,-75.5 830.5,-56.5 757.5,-56.5"/>
<text text-anchor="middle" x="794" y="-62.5" font-family="FreeSans" font-size="10.00">vsvector.hpp</text>
</a>
</g>
<!-- Node7&#45;&gt;Node19 -->
<g id="edge42" class="edge"><title>Node7&#45;&gt;Node19</title>
<path fill="none" stroke="midnightblue" d="M668.13,-112.373C693.077,-103.182 730.859,-89.2624 758.521,-79.0713"/>
<polygon fill="midnightblue" stroke="midnightblue" points="760.038,-82.2424 768.211,-75.5011 757.618,-75.674 760.038,-82.2424"/>
</g>
<!-- Node20 -->
<g id="node42" class="node"><title>Node20</title>
<a xlink:href="vsvector3d_8hpp.html" target="_top" xlink:title="vsvector3d.hpp">
<polygon fill="white" stroke="black" points="847.5,-56.5 847.5,-75.5 932.5,-75.5 932.5,-56.5 847.5,-56.5"/>
<text text-anchor="middle" x="890" y="-62.5" font-family="FreeSans" font-size="10.00">vsvector3d.hpp</text>
</a>
</g>
<!-- Node7&#45;&gt;Node20 -->
<g id="edge44" class="edge"><title>Node7&#45;&gt;Node20</title>
<path fill="none" stroke="midnightblue" d="M673.158,-114.964C714.417,-105.648 787.764,-89.0856 837.614,-77.829"/>
<polygon fill="midnightblue" stroke="midnightblue" points="838.581,-81.1988 847.565,-75.5821 837.04,-74.3708 838.581,-81.1988"/>
</g>
<!-- Node21 -->
<g id="node44" class="node"><title>Node21</title>
<a xlink:href="threads_8hpp.html" target="_top" xlink:title="threads.hpp">
<polygon fill="white" stroke="black" points="949.5,-56.5 949.5,-75.5 1018.5,-75.5 1018.5,-56.5 949.5,-56.5"/>
<text text-anchor="middle" x="984" y="-62.5" font-family="FreeSans" font-size="10.00">threads.hpp</text>
</a>
</g>
<!-- Node7&#45;&gt;Node21 -->
<g id="edge46" class="edge"><title>Node7&#45;&gt;Node21</title>
<path fill="none" stroke="midnightblue" d="M673.125,-118.004C725.923,-111.054 836.591,-95.749 939.393,-76.2085"/>
<polygon fill="midnightblue" stroke="midnightblue" points="940.153,-79.6265 949.314,-74.3044 938.834,-72.7519 940.153,-79.6265"/>
</g>
<!-- Node10 -->
<g id="node19" class="node"><title>Node10</title>
<polygon fill="white" stroke="#bfbfbf" points="640.5,-0.5 640.5,-19.5 689.5,-19.5 689.5,-0.5 640.5,-0.5"/>
<text text-anchor="middle" x="665" y="-6.5" font-family="FreeSans" font-size="10.00">GL/gl.h</text>
</g>
<!-- Node9&#45;&gt;Node10 -->
<g id="edge18" class="edge"><title>Node9&#45;&gt;Node10</title>
<path fill="none" stroke="midnightblue" d="M526.708,-56.3733C555.531,-46.7083 599.947,-31.8142 630.629,-21.5256"/>
<polygon fill="midnightblue" stroke="midnightblue" points="632.097,-24.725 640.465,-18.2273 629.871,-18.0882 632.097,-24.725"/>
</g>
<!-- Node11 -->
<g id="node21" class="node"><title>Node11</title>
<polygon fill="white" stroke="#bfbfbf" points="707,-0.5 707,-19.5 761,-19.5 761,-0.5 707,-0.5"/>
<text text-anchor="middle" x="734" y="-6.5" font-family="FreeSans" font-size="10.00">GL/glu.h</text>
</g>
<!-- Node9&#45;&gt;Node11 -->
<g id="edge20" class="edge"><title>Node9&#45;&gt;Node11</title>
<path fill="none" stroke="midnightblue" d="M532.732,-57.9132C535.529,-57.2648 538.312,-56.6208 541,-56 607.756,-40.5842 626.975,-37.8085 697.14,-20.1402"/>
<polygon fill="midnightblue" stroke="midnightblue" points="698.073,-23.5146 706.908,-17.6678 696.355,-16.7286 698.073,-23.5146"/>
</g>
<!-- Node12 -->
<g id="node23" class="node"><title>Node12</title>
<polygon fill="white" stroke="#bfbfbf" points="438.5,-0.5 438.5,-19.5 491.5,-19.5 491.5,-0.5 438.5,-0.5"/>
<text text-anchor="middle" x="465" y="-6.5" font-family="FreeSans" font-size="10.00">GL/glx.h</text>
</g>
<!-- Node9&#45;&gt;Node12 -->
<g id="edge22" class="edge"><title>Node9&#45;&gt;Node12</title>
<path fill="none" stroke="midnightblue" d="M492.252,-56.2455C487.756,-48.617 481.375,-37.7881 475.918,-28.5267"/>
<polygon fill="midnightblue" stroke="midnightblue" points="478.775,-26.4811 470.682,-19.6427 472.744,-30.035 478.775,-26.4811"/>
</g>
<!-- Node13 -->
<g id="node25" class="node"><title>Node13</title>
<polygon fill="white" stroke="#bfbfbf" points="508.5,-0.5 508.5,-19.5 541.5,-19.5 541.5,-0.5 508.5,-0.5"/>
<text text-anchor="middle" x="525" y="-6.5" font-family="FreeSans" font-size="10.00">tk.h</text>
</g>
<!-- Node9&#45;&gt;Node13 -->
<g id="edge24" class="edge"><title>Node9&#45;&gt;Node13</title>
<path fill="none" stroke="midnightblue" d="M502.703,-56.2455C506.342,-48.6973 511.492,-38.0158 515.926,-28.8197"/>
<polygon fill="midnightblue" stroke="midnightblue" points="519.16,-30.1704 520.351,-19.6427 512.855,-27.1303 519.16,-30.1704"/>
</g>
<!-- Node14 -->
<g id="node27" class="node"><title>Node14</title>
<polygon fill="white" stroke="#bfbfbf" points="558.5,-0.5 558.5,-19.5 623.5,-19.5 623.5,-0.5 558.5,-0.5"/>
<text text-anchor="middle" x="591" y="-6.5" font-family="FreeSans" font-size="10.00">aux_gl.hpp</text>
</g>
<!-- Node9&#45;&gt;Node14 -->
<g id="edge26" class="edge"><title>Node9&#45;&gt;Node14</title>
<path fill="none" stroke="midnightblue" d="M514.199,-56.2455C528.602,-47.5731 549.873,-34.7645 566.38,-24.825"/>
<polygon fill="midnightblue" stroke="midnightblue" points="568.225,-27.7996 574.986,-19.6427 564.614,-21.8028 568.225,-27.7996"/>
</g>
<!-- Node9&#45;&gt;Node15 -->
<g id="edge28" class="edge"><title>Node9&#45;&gt;Node15</title>
<path fill="none" stroke="midnightblue" d="M478.059,-56.3733C459.521,-47.4241 431.697,-33.9917 410.759,-23.8835"/>
<polygon fill="midnightblue" stroke="midnightblue" points="412.208,-20.6967 401.681,-19.5011 409.165,-27.0006 412.208,-20.6967"/>
</g>
<!-- Node16&#45;&gt;Node6 -->
<g id="edge36" class="edge"><title>Node16&#45;&gt;Node6</title>
<path fill="none" stroke="midnightblue" d="M361.065,-56.2455C348.905,-47.7337 331.054,-35.2375 316.972,-25.3801"/>
<polygon fill="midnightblue" stroke="midnightblue" points="318.975,-22.51 308.775,-19.6427 314.96,-28.2447 318.975,-22.51"/>
</g>
<!-- Node16&#45;&gt;Node15 -->
<g id="edge34" class="edge"><title>Node16&#45;&gt;Node15</title>
<path fill="none" stroke="midnightblue" d="M376.219,-56.2455C377.133,-48.9382 378.413,-38.6944 379.537,-29.7046"/>
<polygon fill="midnightblue" stroke="midnightblue" points="383.027,-29.9996 380.795,-19.6427 376.081,-29.1313 383.027,-29.9996"/>
</g>
<!-- Node22 -->
<g id="node46" class="node"><title>Node22</title>
<polygon fill="white" stroke="#bfbfbf" points="955,-0.5 955,-19.5 1013,-19.5 1013,-0.5 955,-0.5"/>
<text text-anchor="middle" x="984" y="-6.5" font-family="FreeSans" font-size="10.00">pthread.h</text>
</g>
<!-- Node21&#45;&gt;Node22 -->
<g id="edge48" class="edge"><title>Node21&#45;&gt;Node22</title>
<path fill="none" stroke="midnightblue" d="M984,-56.2455C984,-48.9382 984,-38.6944 984,-29.7046"/>
<polygon fill="midnightblue" stroke="midnightblue" points="987.5,-29.6426 984,-19.6427 980.5,-29.6427 987.5,-29.6426"/>
</g>
</g>
</svg>
        <g id="navigator" transform="translate(0 0)" fill="#404254">
                <rect fill="#f2f5e9" fill-opacity="0.5" stroke="#606060" stroke-width=".5" x="0" y="0" width="60" height="60"/>
                <use id="zoomplus" xlink:href="#zoomPlus" x="17" y="9" onmousedown="handleZoom(evt,'in')"/>
                <use id="zoomminus" xlink:href="#zoomMin" x="42" y="9" onmousedown="handleZoom(evt,'out')"/>
                <use id="reset" xlink:href="#resetDef" x="30" y="36" onmousedown="handleReset()"/>
                <g id="arrowUp" xlink:href="#dirArrow" transform="translate(30 24)" onmousedown="handlePan(0,-1)">
                  <use xlink:href="#rim" fill="#404040">
                        <set attributeName="fill" to="#808080" begin="arrowUp.mouseover" end="arrowUp.mouseout"/>
                  </use>
                  <path fill="none" stroke="white" stroke-width="1.5" d="M0,-3.0v7 M-2.5,-0.5L0,-3.0L2.5,-0.5"/>
                </g>
                <g id="arrowRight" xlink:href="#dirArrow" transform="rotate(90) translate(36 -43)" onmousedown="handlePan(1,0)">
                  <use xlink:href="#rim" fill="#404040">
                        <set attributeName="fill" to="#808080" begin="arrowRight.mouseover" end="arrowRight.mouseout"/>
                  </use>
                  <path fill="none" stroke="white" stroke-width="1.5" d="M0,-3.0v7 M-2.5,-0.5L0,-3.0L2.5,-0.5"/>
                </g>
                <g id="arrowDown" xlink:href="#dirArrow" transform="rotate(180) translate(-30 -48)" onmousedown="handlePan(0,1)">
                  <use xlink:href="#rim" fill="#404040">
                        <set attributeName="fill" to="#808080" begin="arrowDown.mouseover" end="arrowDown.mouseout"/>
                  </use>
                  <path fill="none" stroke="white" stroke-width="1.5" d="M0,-3.0v7 M-2.5,-0.5L0,-3.0L2.5,-0.5"/>
                </g>
                <g id="arrowLeft" xlink:href="#dirArrow" transform="rotate(270) translate(-36 17)" onmousedown="handlePan(-1,0)">
                  <use xlink:href="#rim" fill="#404040">
                        <set attributeName="fill" to="#808080" begin="arrowLeft.mouseover" end="arrowLeft.mouseout"/>
                  </use>
                  <path fill="none" stroke="white" stroke-width="1.5" d="M0,-3.0v7 M-2.5,-0.5L0,-3.0L2.5,-0.5"/>
                </g>
        </g>
</svg>
