<?xml version="1.0" encoding="UTF-8" standalone="no"?>
<!DOCTYPE svg PUBLIC "-//W3C//DTD SVG 1.1//EN"
 "http://www.w3.org/Graphics/SVG/1.1/DTD/svg11.dtd">
<!-- Generated by graphviz version 2.26.3 (20100126.1600)
 -->
<!-- Title: G Pages: 1 -->
<!--zoomable 196 -->
<svg id="main" version="1.1" xmlns="http://www.w3.org/2000/svg" xmlns:xlink="http://www.w3.org/1999/xlink" xml:space="preserve" onload="init(evt)">
        <defs>
                <circle id="rim" cx="0" cy="0" r="7"/>
                <circle id="rim2" cx="0" cy="0" r="3.5"/>
                <g id="zoomPlus">
                        <use xlink:href="#rim" fill="#404040">
                                <set attributeName="fill" to="#808080" begin="zoomplus.mouseover" end="zoomplus.mouseout"/>
                        </use>
                        <path d="M-4,0h8M0,-4v8" fill="none" stroke="white" stroke-width="1.5" pointer-events="none"/>
                </g>
                <g id="zoomMin">
                        <use xlink:href="#rim" fill="#404040">
                                <set attributeName="fill" to="#808080" begin="zoomminus.mouseover" end="zoomminus.mouseout"/>
                        </use>
                        <path d="M-4,0h8" fill="none" stroke="white" stroke-width="1.5" pointer-events="none"/>
                </g>
                <g id="dirArrow">
                        <path fill="none" stroke="white" stroke-width="1.5" d="M0,-3.0v7 M-2.5,-0.5L0,-3.0L2.5,-0.5"/>
                </g>
               <g id="resetDef">
                       <use xlink:href="#rim2" fill="#404040">
                               <set attributeName="fill" to="#808080" begin="reset.mouseover" end="reset.mouseout"/>
                       </use>
               </g>
        </defs>

<script type="text/javascript">
var viewWidth = 1076;
var viewHeight = 196;
var sectionId = 'dynsection-0';
</script>
<script xlink:href="svgpan.js"/>
<svg id="graph" class="graph">
<g id="viewport">
<title>G</title>
<polygon fill="white" stroke="white" points="-4,5 -4,-192 1073,-192 1073,5 -4,5"/>
<!-- Node1 -->
<g id="node1" class="node"><title>Node1</title>
<polygon fill="#bfbfbf" stroke="black" points="150.5,-168.5 150.5,-187.5 223.5,-187.5 223.5,-168.5 150.5,-168.5"/>
<text text-anchor="middle" x="187" y="-174.5" font-family="FreeSans" font-size="10.00">vsvector.cpp</text>
</g>
<!-- Node2 -->
<g id="node3" class="node"><title>Node2</title>
<polygon fill="white" stroke="#bfbfbf" points="0,-112.5 0,-131.5 48,-131.5 48,-112.5 0,-112.5"/>
<text text-anchor="middle" x="24" y="-118.5" font-family="FreeSans" font-size="10.00">stdlib.h</text>
</g>
<!-- Node1&#45;&gt;Node2 -->
<g id="edge2" class="edge"><title>Node1&#45;&gt;Node2</title>
<path fill="none" stroke="midnightblue" d="M158.979,-168.373C130.929,-158.736 87.7467,-143.901 57.8094,-133.615"/>
<polygon fill="midnightblue" stroke="midnightblue" points="58.8001,-130.255 48.2055,-130.316 56.5257,-136.875 58.8001,-130.255"/>
</g>
<!-- Node3 -->
<g id="node5" class="node"><title>Node3</title>
<polygon fill="white" stroke="#bfbfbf" points="65.5,-112.5 65.5,-131.5 120.5,-131.5 120.5,-112.5 65.5,-112.5"/>
<text text-anchor="middle" x="93" y="-118.5" font-family="FreeSans" font-size="10.00">iostream</text>
</g>
<!-- Node1&#45;&gt;Node3 -->
<g id="edge4" class="edge"><title>Node1&#45;&gt;Node3</title>
<path fill="none" stroke="midnightblue" d="M170.626,-168.246C156.069,-159.573 134.569,-146.765 117.885,-136.825"/>
<polygon fill="midnightblue" stroke="midnightblue" points="119.568,-133.754 109.186,-131.643 115.986,-139.768 119.568,-133.754"/>
</g>
<!-- Node4 -->
<g id="node7" class="node"><title>Node4</title>
<polygon fill="white" stroke="#bfbfbf" points="137.5,-112.5 137.5,-131.5 176.5,-131.5 176.5,-112.5 137.5,-112.5"/>
<text text-anchor="middle" x="157" y="-118.5" font-family="FreeSans" font-size="10.00">limits</text>
</g>
<!-- Node1&#45;&gt;Node4 -->
<g id="edge6" class="edge"><title>Node1&#45;&gt;Node4</title>
<path fill="none" stroke="midnightblue" d="M181.774,-168.246C177.688,-160.617 171.887,-149.788 166.925,-140.527"/>
<polygon fill="midnightblue" stroke="midnightblue" points="169.973,-138.805 162.166,-131.643 163.803,-142.11 169.973,-138.805"/>
</g>
<!-- Node5 -->
<g id="node9" class="node"><title>Node5</title>
<polygon fill="white" stroke="#bfbfbf" points="193.5,-112.5 193.5,-131.5 240.5,-131.5 240.5,-112.5 193.5,-112.5"/>
<text text-anchor="middle" x="217" y="-118.5" font-family="FreeSans" font-size="10.00">math.h</text>
</g>
<!-- Node1&#45;&gt;Node5 -->
<g id="edge8" class="edge"><title>Node1&#45;&gt;Node5</title>
<path fill="none" stroke="midnightblue" d="M192.226,-168.246C196.312,-160.617 202.113,-149.788 207.075,-140.527"/>
<polygon fill="midnightblue" stroke="midnightblue" points="210.197,-142.11 211.834,-131.643 204.027,-138.805 210.197,-142.11"/>
</g>
<!-- Node6 -->
<g id="node11" class="node"><title>Node6</title>
<polygon fill="white" stroke="#bfbfbf" points="224.5,-0.5 224.5,-19.5 285.5,-19.5 285.5,-0.5 224.5,-0.5"/>
<text text-anchor="middle" x="255" y="-6.5" font-family="FreeSans" font-size="10.00">mfem.hpp</text>
</g>
<!-- Node1&#45;&gt;Node6 -->
<g id="edge10" class="edge"><title>Node1&#45;&gt;Node6</title>
<path fill="none" stroke="midnightblue" d="M208.206,-168.419C222.442,-160.755 240.156,-148.549 249,-132 266.336,-99.5623 262.936,-55.0799 258.94,-29.7618"/>
<polygon fill="midnightblue" stroke="midnightblue" points="262.328,-28.8242 257.134,-19.5898 255.436,-30.0477 262.328,-28.8242"/>
</g>
<!-- Node7 -->
<g id="node13" class="node"><title>Node7</title>
<a xlink:href="visual_8hpp.html" target="_top" xlink:title="visual.hpp">
<polygon fill="white" stroke="black" points="571,-112.5 571,-131.5 633,-131.5 633,-112.5 571,-112.5"/>
<text text-anchor="middle" x="602" y="-118.5" font-family="FreeSans" font-size="10.00">visual.hpp</text>
</a>
</g>
<!-- Node1&#45;&gt;Node7 -->
<g id="edge12" class="edge"><title>Node1&#45;&gt;Node7</title>
<path fill="none" stroke="midnightblue" d="M223.828,-173.03C301.096,-162.604 479.671,-138.507 560.691,-127.574"/>
<polygon fill="midnightblue" stroke="midnightblue" points="561.554,-130.99 570.996,-126.184 560.618,-124.052 561.554,-130.99"/>
</g>
<!-- Node8 -->
<g id="node15" class="node"><title>Node8</title>
<a xlink:href="material_8hpp.html" target="_top" xlink:title="material.hpp">
<polygon fill="white" stroke="black" points="996,-56.5 996,-75.5 1068,-75.5 1068,-56.5 996,-56.5"/>
<text text-anchor="middle" x="1032" y="-62.5" font-family="FreeSans" font-size="10.00">material.hpp</text>
</a>
</g>
<!-- Node7&#45;&gt;Node8 -->
<g id="edge14" class="edge"><title>Node7&#45;&gt;Node8</title>
<path fill="none" stroke="midnightblue" d="M633.092,-119.346C697.151,-113.651 848.636,-99.0159 985.468,-76.1241"/>
<polygon fill="midnightblue" stroke="midnightblue" points="986.436,-79.5101 995.712,-74.39 985.268,-72.6083 986.436,-79.5101"/>
</g>
<!-- Node9 -->
<g id="node17" class="node"><title>Node9</title>
<a xlink:href="aux__vis_8hpp.html" target="_top" xlink:title="aux_vis.hpp">
<polygon fill="white" stroke="black" points="423.5,-56.5 423.5,-75.5 492.5,-75.5 492.5,-56.5 423.5,-56.5"/>
<text text-anchor="middle" x="458" y="-62.5" font-family="FreeSans" font-size="10.00">aux_vis.hpp</text>
</a>
</g>
<!-- Node7&#45;&gt;Node9 -->
<g id="edge16" class="edge"><title>Node7&#45;&gt;Node9</title>
<path fill="none" stroke="midnightblue" d="M577.246,-112.373C553.715,-103.223 518.131,-89.3844 491.957,-79.2057"/>
<polygon fill="midnightblue" stroke="midnightblue" points="493.02,-75.8636 482.431,-75.5011 490.483,-82.3877 493.02,-75.8636"/>
</g>
<!-- Node15 -->
<g id="node29" class="node"><title>Node15</title>
<a xlink:href="openglvis_8hpp.html" target="_top" xlink:title="openglvis.hpp">
<polygon fill="white" stroke="black" points="303,-0.5 303,-19.5 381,-19.5 381,-0.5 303,-0.5"/>
<text text-anchor="middle" x="342" y="-6.5" font-family="FreeSans" font-size="10.00">openglvis.hpp</text>
</a>
</g>
<!-- Node7&#45;&gt;Node15 -->
<g id="edge30" class="edge"><title>Node7&#45;&gt;Node15</title>
<path fill="none" stroke="midnightblue" d="M570.88,-119.063C532.356,-114.397 465.641,-102.891 415,-76 391.827,-63.6953 370.188,-42.4042 356.58,-27.3353"/>
<polygon fill="midnightblue" stroke="midnightblue" points="359.112,-24.9135 349.888,-19.7005 353.848,-29.5276 359.112,-24.9135"/>
</g>
<!-- Node16 -->
<g id="node32" class="node"><title>Node16</title>
<a xlink:href="vsdata_8hpp.html" target="_top" xlink:title="vsdata.hpp">
<polygon fill="white" stroke="black" points="302,-56.5 302,-75.5 368,-75.5 368,-56.5 302,-56.5"/>
<text text-anchor="middle" x="335" y="-62.5" font-family="FreeSans" font-size="10.00">vsdata.hpp</text>
</a>
</g>
<!-- Node7&#45;&gt;Node16 -->
<g id="edge32" class="edge"><title>Node7&#45;&gt;Node16</title>
<path fill="none" stroke="midnightblue" d="M570.661,-115.484C527.983,-106.601 449.197,-90.1738 382,-76 380.737,-75.7337 379.456,-75.463 378.162,-75.1895"/>
<polygon fill="midnightblue" stroke="midnightblue" points="378.629,-71.7109 368.121,-73.0623 377.178,-78.5589 378.629,-71.7109"/>
</g>
<!-- Node17 -->
<g id="node36" class="node"><title>Node17</title>
<a xlink:href="vssolution_8hpp.html" target="_top" xlink:title="vssolution.hpp">
<polygon fill="white" stroke="black" points="509.5,-56.5 509.5,-75.5 590.5,-75.5 590.5,-56.5 509.5,-56.5"/>
<text text-anchor="middle" x="550" y="-62.5" font-family="FreeSans" font-size="10.00">vssolution.hpp</text>
</a>
</g>
<!-- Node7&#45;&gt;Node17 -->
<g id="edge38" class="edge"><title>Node7&#45;&gt;Node17</title>
<path fill="none" stroke="midnightblue" d="M592.942,-112.246C585.486,-104.216 574.737,-92.6394 565.858,-83.0781"/>
<polygon fill="midnightblue" stroke="midnightblue" points="568.323,-80.589 558.954,-75.6427 563.194,-85.3522 568.323,-80.589"/>
</g>
<!-- Node18 -->
<g id="node38" class="node"><title>Node18</title>
<a xlink:href="vssolution3d_8hpp.html" target="_top" xlink:title="vssolution3d.hpp">
<polygon fill="white" stroke="black" points="608,-56.5 608,-75.5 700,-75.5 700,-56.5 608,-56.5"/>
<text text-anchor="middle" x="654" y="-62.5" font-family="FreeSans" font-size="10.00">vssolution3d.hpp</text>
</a>
</g>
<!-- Node7&#45;&gt;Node18 -->
<g id="edge40" class="edge"><title>Node7&#45;&gt;Node18</title>
<path fill="none" stroke="midnightblue" d="M611.058,-112.246C618.514,-104.216 629.263,-92.6394 638.142,-83.0781"/>
<polygon fill="midnightblue" stroke="midnightblue" points="640.806,-85.3522 645.046,-75.6427 635.677,-80.589 640.806,-85.3522"/>
</g>
<!-- Node19 -->
<g id="node40" class="node"><title>Node19</title>
<a xlink:href="vsvector_8hpp.html" target="_top" xlink:title="vsvector.hpp">
<polygon fill="white" stroke="black" points="717.5,-56.5 717.5,-75.5 790.5,-75.5 790.5,-56.5 717.5,-56.5"/>
<text text-anchor="middle" x="754" y="-62.5" font-family="FreeSans" font-size="10.00">vsvector.hpp</text>
</a>
</g>
<!-- Node7&#45;&gt;Node19 -->
<g id="edge42" class="edge"><title>Node7&#45;&gt;Node19</title>
<path fill="none" stroke="midnightblue" d="M628.13,-112.373C653.077,-103.182 690.859,-89.2624 718.521,-79.0713"/>
<polygon fill="midnightblue" stroke="midnightblue" points="720.038,-82.2424 728.211,-75.5011 717.618,-75.674 720.038,-82.2424"/>
</g>
<!-- Node20 -->
<g id="node42" class="node"><title>Node20</title>
<a xlink:href="vsvector3d_8hpp.html" target="_top" xlink:title="vsvector3d.hpp">
<polygon fill="white" stroke="black" points="807.5,-56.5 807.5,-75.5 892.5,-75.5 892.5,-56.5 807.5,-56.5"/>
<text text-anchor="middle" x="850" y="-62.5" font-family="FreeSans" font-size="10.00">vsvector3d.hpp</text>
</a>
</g>
<!-- Node7&#45;&gt;Node20 -->
<g id="edge44" class="edge"><title>Node7&#45;&gt;Node20</title>
<path fill="none" stroke="midnightblue" d="M633.158,-114.964C674.417,-105.648 747.764,-89.0856 797.614,-77.829"/>
<polygon fill="midnightblue" stroke="midnightblue" points="798.581,-81.1988 807.565,-75.5821 797.04,-74.3708 798.581,-81.1988"/>
</g>
<!-- Node21 -->
<g id="node44" class="node"><title>Node21</title>
<a xlink:href="threads_8hpp.html" target="_top" xlink:title="threads.hpp">
<polygon fill="white" stroke="black" points="909.5,-56.5 909.5,-75.5 978.5,-75.5 978.5,-56.5 909.5,-56.5"/>
<text text-anchor="middle" x="944" y="-62.5" font-family="FreeSans" font-size="10.00">threads.hpp</text>
</a>
</g>
<!-- Node7&#45;&gt;Node21 -->
<g id="edge46" class="edge"><title>Node7&#45;&gt;Node21</title>
<path fill="none" stroke="midnightblue" d="M633.125,-118.004C685.923,-111.054 796.591,-95.749 899.393,-76.2085"/>
<polygon fill="midnightblue" stroke="midnightblue" points="900.153,-79.6265 909.314,-74.3044 898.834,-72.7519 900.153,-79.6265"/>
</g>
<!-- Node10 -->
<g id="node19" class="node"><title>Node10</title>
<polygon fill="white" stroke="#bfbfbf" points="600.5,-0.5 600.5,-19.5 649.5,-19.5 649.5,-0.5 600.5,-0.5"/>
<text text-anchor="middle" x="625" y="-6.5" font-family="FreeSans" font-size="10.00">GL/gl.h</text>
</g>
<!-- Node9&#45;&gt;Node10 -->
<g id="edge18" class="edge"><title>Node9&#45;&gt;Node10</title>
<path fill="none" stroke="midnightblue" d="M486.708,-56.3733C515.531,-46.7083 559.947,-31.8142 590.629,-21.5256"/>
<polygon fill="midnightblue" stroke="midnightblue" points="592.097,-24.725 600.465,-18.2273 589.871,-18.0882 592.097,-24.725"/>
</g>
<!-- Node11 -->
<g id="node21" class="node"><title>Node11</title>
<polygon fill="white" stroke="#bfbfbf" points="667,-0.5 667,-19.5 721,-19.5 721,-0.5 667,-0.5"/>
<text text-anchor="middle" x="694" y="-6.5" font-family="FreeSans" font-size="10.00">GL/glu.h</text>
</g>
<!-- Node9&#45;&gt;Node11 -->
<g id="edge20" class="edge"><title>Node9&#45;&gt;Node11</title>
<path fill="none" stroke="midnightblue" d="M492.732,-57.9132C495.529,-57.2648 498.312,-56.6208 501,-56 567.756,-40.5842 586.975,-37.8085 657.14,-20.1402"/>
<polygon fill="midnightblue" stroke="midnightblue" points="658.073,-23.5146 666.908,-17.6678 656.355,-16.7286 658.073,-23.5146"/>
</g>
<!-- Node12 -->
<g id="node23" class="node"><title>Node12</title>
<polygon fill="white" stroke="#bfbfbf" points="398.5,-0.5 398.5,-19.5 451.5,-19.5 451.5,-0.5 398.5,-0.5"/>
<text text-anchor="middle" x="425" y="-6.5" font-family="FreeSans" font-size="10.00">GL/glx.h</text>
</g>
<!-- Node9&#45;&gt;Node12 -->
<g id="edge22" class="edge"><title>Node9&#45;&gt;Node12</title>
<path fill="none" stroke="midnightblue" d="M452.252,-56.2455C447.756,-48.617 441.375,-37.7881 435.918,-28.5267"/>
<polygon fill="midnightblue" stroke="midnightblue" points="438.775,-26.4811 430.682,-19.6427 432.744,-30.035 438.775,-26.4811"/>
</g>
<!-- Node13 -->
<g id="node25" class="node"><title>Node13</title>
<polygon fill="white" stroke="#bfbfbf" points="468.5,-0.5 468.5,-19.5 501.5,-19.5 501.5,-0.5 468.5,-0.5"/>
<text text-anchor="middle" x="485" y="-6.5" font-family="FreeSans" font-size="10.00">tk.h</text>
</g>
<!-- Node9&#45;&gt;Node13 -->
<g id="edge24" class="edge"><title>Node9&#45;&gt;Node13</title>
<path fill="none" stroke="midnightblue" d="M462.703,-56.2455C466.342,-48.6973 471.492,-38.0158 475.926,-28.8197"/>
<polygon fill="midnightblue" stroke="midnightblue" points="479.16,-30.1704 480.351,-19.6427 472.855,-27.1303 479.16,-30.1704"/>
</g>
<!-- Node14 -->
<g id="node27" class="node"><title>Node14</title>
<polygon fill="white" stroke="#bfbfbf" points="518.5,-0.5 518.5,-19.5 583.5,-19.5 583.5,-0.5 518.5,-0.5"/>
<text text-anchor="middle" x="551" y="-6.5" font-family="FreeSans" font-size="10.00">aux_gl.hpp</text>
</g>
<!-- Node9&#45;&gt;Node14 -->
<g id="edge26" class="edge"><title>Node9&#45;&gt;Node14</title>
<path fill="none" stroke="midnightblue" d="M474.199,-56.2455C488.602,-47.5731 509.873,-34.7645 526.38,-24.825"/>
<polygon fill="midnightblue" stroke="midnightblue" points="528.225,-27.7996 534.986,-19.6427 524.614,-21.8028 528.225,-27.7996"/>
</g>
<!-- Node9&#45;&gt;Node15 -->
<g id="edge28" class="edge"><title>Node9&#45;&gt;Node15</title>
<path fill="none" stroke="midnightblue" d="M438.059,-56.3733C419.521,-47.4241 391.697,-33.9917 370.759,-23.8835"/>
<polygon fill="midnightblue" stroke="midnightblue" points="372.208,-20.6967 361.681,-19.5011 369.165,-27.0006 372.208,-20.6967"/>
</g>
<!-- Node16&#45;&gt;Node6 -->
<g id="edge36" class="edge"><title>Node16&#45;&gt;Node6</title>
<path fill="none" stroke="midnightblue" d="M321.065,-56.2455C308.905,-47.7337 291.054,-35.2375 276.972,-25.3801"/>
<polygon fill="midnightblue" stroke="midnightblue" points="278.975,-22.51 268.775,-19.6427 274.96,-28.2447 278.975,-22.51"/>
</g>
<!-- Node16&#45;&gt;Node15 -->
<g id="edge34" class="edge"><title>Node16&#45;&gt;Node15</title>
<path fill="none" stroke="midnightblue" d="M336.219,-56.2455C337.133,-48.9382 338.413,-38.6944 339.537,-29.7046"/>
<polygon fill="midnightblue" stroke="midnightblue" points="343.027,-29.9996 340.795,-19.6427 336.081,-29.1313 343.027,-29.9996"/>
</g>
<!-- Node22 -->
<g id="node46" class="node"><title>Node22</title>
<polygon fill="white" stroke="#bfbfbf" points="915,-0.5 915,-19.5 973,-19.5 973,-0.5 915,-0.5"/>
<text text-anchor="middle" x="944" y="-6.5" font-family="FreeSans" font-size="10.00">pthread.h</text>
</g>
<!-- Node21&#45;&gt;Node22 -->
<g id="edge48" class="edge"><title>Node21&#45;&gt;Node22</title>
<path fill="none" stroke="midnightblue" d="M944,-56.2455C944,-48.9382 944,-38.6944 944,-29.7046"/>
<polygon fill="midnightblue" stroke="midnightblue" points="947.5,-29.6426 944,-19.6427 940.5,-29.6427 947.5,-29.6426"/>
</g>
</g>
</svg>
        <g id="navigator" transform="translate(0 0)" fill="#404254">
                <rect fill="#f2f5e9" fill-opacity="0.5" stroke="#606060" stroke-width=".5" x="0" y="0" width="60" height="60"/>
                <use id="zoomplus" xlink:href="#zoomPlus" x="17" y="9" onmousedown="handleZoom(evt,'in')"/>
                <use id="zoomminus" xlink:href="#zoomMin" x="42" y="9" onmousedown="handleZoom(evt,'out')"/>
                <use id="reset" xlink:href="#resetDef" x="30" y="36" onmousedown="handleReset()"/>
                <g id="arrowUp" xlink:href="#dirArrow" transform="translate(30 24)" onmousedown="handlePan(0,-1)">
                  <use xlink:href="#rim" fill="#404040">
                        <set attributeName="fill" to="#808080" begin="arrowUp.mouseover" end="arrowUp.mouseout"/>
                  </use>
                  <path fill="none" stroke="white" stroke-width="1.5" d="M0,-3.0v7 M-2.5,-0.5L0,-3.0L2.5,-0.5"/>
                </g>
                <g id="arrowRight" xlink:href="#dirArrow" transform="rotate(90) translate(36 -43)" onmousedown="handlePan(1,0)">
                  <use xlink:href="#rim" fill="#404040">
                        <set attributeName="fill" to="#808080" begin="arrowRight.mouseover" end="arrowRight.mouseout"/>
                  </use>
                  <path fill="none" stroke="white" stroke-width="1.5" d="M0,-3.0v7 M-2.5,-0.5L0,-3.0L2.5,-0.5"/>
                </g>
                <g id="arrowDown" xlink:href="#dirArrow" transform="rotate(180) translate(-30 -48)" onmousedown="handlePan(0,1)">
                  <use xlink:href="#rim" fill="#404040">
                        <set attributeName="fill" to="#808080" begin="arrowDown.mouseover" end="arrowDown.mouseout"/>
                  </use>
                  <path fill="none" stroke="white" stroke-width="1.5" d="M0,-3.0v7 M-2.5,-0.5L0,-3.0L2.5,-0.5"/>
                </g>
                <g id="arrowLeft" xlink:href="#dirArrow" transform="rotate(270) translate(-36 17)" onmousedown="handlePan(-1,0)">
                  <use xlink:href="#rim" fill="#404040">
                        <set attributeName="fill" to="#808080" begin="arrowLeft.mouseover" end="arrowLeft.mouseout"/>
                  </use>
                  <path fill="none" stroke="white" stroke-width="1.5" d="M0,-3.0v7 M-2.5,-0.5L0,-3.0L2.5,-0.5"/>
                </g>
        </g>
</svg>
