<?xml version="1.0" encoding="UTF-8" standalone="no"?>
<!DOCTYPE svg PUBLIC "-//W3C//DTD SVG 1.1//EN"
 "http://www.w3.org/Graphics/SVG/1.1/DTD/svg11.dtd">
<!-- Generated by graphviz version 2.26.3 (20100126.1600)
 -->
<!-- Title: G Pages: 1 -->
<!--zoomable 196 -->
<svg id="main" version="1.1" xmlns="http://www.w3.org/2000/svg" xmlns:xlink="http://www.w3.org/1999/xlink" xml:space="preserve" onload="init(evt)">
        <defs>
                <circle id="rim" cx="0" cy="0" r="7"/>
                <circle id="rim2" cx="0" cy="0" r="3.5"/>
                <g id="zoomPlus">
                        <use xlink:href="#rim" fill="#404040">
                                <set attributeName="fill" to="#808080" begin="zoomplus.mouseover" end="zoomplus.mouseout"/>
                        </use>
                        <path d="M-4,0h8M0,-4v8" fill="none" stroke="white" stroke-width="1.5" pointer-events="none"/>
                </g>
                <g id="zoomMin">
                        <use xlink:href="#rim" fill="#404040">
                                <set attributeName="fill" to="#808080" begin="zoomminus.mouseover" end="zoomminus.mouseout"/>
                        </use>
                        <path d="M-4,0h8" fill="none" stroke="white" stroke-width="1.5" pointer-events="none"/>
                </g>
                <g id="dirArrow">
                        <path fill="none" stroke="white" stroke-width="1.5" d="M0,-3.0v7 M-2.5,-0.5L0,-3.0L2.5,-0.5"/>
                </g>
               <g id="resetDef">
                       <use xlink:href="#rim2" fill="#404040">
                               <set attributeName="fill" to="#808080" begin="reset.mouseover" end="reset.mouseout"/>
                       </use>
               </g>
        </defs>

<script type="text/javascript">
var viewWidth = 1020;
var viewHeight = 196;
var sectionId = 'dynsection-0';
</script>
<script xlink:href="svgpan.js"/>
<svg id="graph" class="graph">
<g id="viewport">
<title>G</title>
<polygon fill="white" stroke="white" points="-4,5 -4,-192 1017,-192 1017,5 -4,5"/>
<!-- Node1 -->
<g id="node1" class="node"><title>Node1</title>
<polygon fill="#bfbfbf" stroke="black" points="119,-168.5 119,-187.5 203,-187.5 203,-168.5 119,-168.5"/>
<text text-anchor="middle" x="161" y="-174.5" font-family="FreeSans" font-size="10.00">vsvector3d.cpp</text>
</g>
<!-- Node2 -->
<g id="node3" class="node"><title>Node2</title>
<polygon fill="white" stroke="#bfbfbf" points="0,-112.5 0,-131.5 48,-131.5 48,-112.5 0,-112.5"/>
<text text-anchor="middle" x="24" y="-118.5" font-family="FreeSans" font-size="10.00">stdlib.h</text>
</g>
<!-- Node1&#45;&gt;Node2 -->
<g id="edge2" class="edge"><title>Node1&#45;&gt;Node2</title>
<path fill="none" stroke="midnightblue" d="M137.449,-168.373C115.161,-159.263 81.5063,-145.506 56.6363,-135.34"/>
<polygon fill="midnightblue" stroke="midnightblue" points="57.8247,-132.045 47.2438,-131.501 55.1761,-138.525 57.8247,-132.045"/>
</g>
<!-- Node3 -->
<g id="node5" class="node"><title>Node3</title>
<polygon fill="white" stroke="#bfbfbf" points="65.5,-112.5 65.5,-131.5 120.5,-131.5 120.5,-112.5 65.5,-112.5"/>
<text text-anchor="middle" x="93" y="-118.5" font-family="FreeSans" font-size="10.00">iostream</text>
</g>
<!-- Node1&#45;&gt;Node3 -->
<g id="edge4" class="edge"><title>Node1&#45;&gt;Node3</title>
<path fill="none" stroke="midnightblue" d="M149.155,-168.246C139.112,-159.975 124.501,-147.942 112.7,-138.223"/>
<polygon fill="midnightblue" stroke="midnightblue" points="114.653,-135.298 104.709,-131.643 110.203,-140.702 114.653,-135.298"/>
</g>
<!-- Node4 -->
<g id="node7" class="node"><title>Node4</title>
<polygon fill="white" stroke="#bfbfbf" points="137.5,-112.5 137.5,-131.5 184.5,-131.5 184.5,-112.5 137.5,-112.5"/>
<text text-anchor="middle" x="161" y="-118.5" font-family="FreeSans" font-size="10.00">math.h</text>
</g>
<!-- Node1&#45;&gt;Node4 -->
<g id="edge6" class="edge"><title>Node1&#45;&gt;Node4</title>
<path fill="none" stroke="midnightblue" d="M161,-168.246C161,-160.938 161,-150.694 161,-141.705"/>
<polygon fill="midnightblue" stroke="midnightblue" points="164.5,-141.643 161,-131.643 157.5,-141.643 164.5,-141.643"/>
</g>
<!-- Node5 -->
<g id="node9" class="node"><title>Node5</title>
<polygon fill="white" stroke="#bfbfbf" points="168.5,-0.5 168.5,-19.5 229.5,-19.5 229.5,-0.5 168.5,-0.5"/>
<text text-anchor="middle" x="199" y="-6.5" font-family="FreeSans" font-size="10.00">mfem.hpp</text>
</g>
<!-- Node1&#45;&gt;Node5 -->
<g id="edge8" class="edge"><title>Node1&#45;&gt;Node5</title>
<path fill="none" stroke="midnightblue" d="M170.191,-168.323C177.843,-159.589 188.23,-145.997 193,-132 204.752,-97.517 203.434,-54.3745 201.294,-29.7234"/>
<polygon fill="midnightblue" stroke="midnightblue" points="204.75,-29.1091 200.265,-19.5106 197.785,-29.8112 204.75,-29.1091"/>
</g>
<!-- Node6 -->
<g id="node11" class="node"><title>Node6</title>
<a xlink:href="visual_8hpp.html" target="_top" xlink:title="visual.hpp">
<polygon fill="white" stroke="black" points="515,-112.5 515,-131.5 577,-131.5 577,-112.5 515,-112.5"/>
<text text-anchor="middle" x="546" y="-118.5" font-family="FreeSans" font-size="10.00">visual.hpp</text>
</a>
</g>
<!-- Node1&#45;&gt;Node6 -->
<g id="edge10" class="edge"><title>Node1&#45;&gt;Node6</title>
<path fill="none" stroke="midnightblue" d="M203.303,-171.847C277.682,-161.028 430.971,-138.731 504.662,-128.013"/>
<polygon fill="midnightblue" stroke="midnightblue" points="505.546,-131.421 514.938,-126.518 504.538,-124.494 505.546,-131.421"/>
</g>
<!-- Node7 -->
<g id="node13" class="node"><title>Node7</title>
<a xlink:href="material_8hpp.html" target="_top" xlink:title="material.hpp">
<polygon fill="white" stroke="black" points="940,-56.5 940,-75.5 1012,-75.5 1012,-56.5 940,-56.5"/>
<text text-anchor="middle" x="976" y="-62.5" font-family="FreeSans" font-size="10.00">material.hpp</text>
</a>
</g>
<!-- Node6&#45;&gt;Node7 -->
<g id="edge12" class="edge"><title>Node6&#45;&gt;Node7</title>
<path fill="none" stroke="midnightblue" d="M577.092,-119.346C641.151,-113.651 792.636,-99.0159 929.468,-76.1241"/>
<polygon fill="midnightblue" stroke="midnightblue" points="930.436,-79.5101 939.712,-74.39 929.268,-72.6083 930.436,-79.5101"/>
</g>
<!-- Node8 -->
<g id="node15" class="node"><title>Node8</title>
<a xlink:href="aux__vis_8hpp.html" target="_top" xlink:title="aux_vis.hpp">
<polygon fill="white" stroke="black" points="367.5,-56.5 367.5,-75.5 436.5,-75.5 436.5,-56.5 367.5,-56.5"/>
<text text-anchor="middle" x="402" y="-62.5" font-family="FreeSans" font-size="10.00">aux_vis.hpp</text>
</a>
</g>
<!-- Node6&#45;&gt;Node8 -->
<g id="edge14" class="edge"><title>Node6&#45;&gt;Node8</title>
<path fill="none" stroke="midnightblue" d="M521.246,-112.373C497.715,-103.223 462.131,-89.3844 435.957,-79.2057"/>
<polygon fill="midnightblue" stroke="midnightblue" points="437.02,-75.8636 426.431,-75.5011 434.483,-82.3877 437.02,-75.8636"/>
</g>
<!-- Node14 -->
<g id="node27" class="node"><title>Node14</title>
<a xlink:href="openglvis_8hpp.html" target="_top" xlink:title="openglvis.hpp">
<polygon fill="white" stroke="black" points="247,-0.5 247,-19.5 325,-19.5 325,-0.5 247,-0.5"/>
<text text-anchor="middle" x="286" y="-6.5" font-family="FreeSans" font-size="10.00">openglvis.hpp</text>
</a>
</g>
<!-- Node6&#45;&gt;Node14 -->
<g id="edge28" class="edge"><title>Node6&#45;&gt;Node14</title>
<path fill="none" stroke="midnightblue" d="M514.88,-119.063C476.356,-114.397 409.641,-102.891 359,-76 335.827,-63.6953 314.188,-42.4042 300.58,-27.3353"/>
<polygon fill="midnightblue" stroke="midnightblue" points="303.112,-24.9135 293.888,-19.7005 297.848,-29.5276 303.112,-24.9135"/>
</g>
<!-- Node15 -->
<g id="node30" class="node"><title>Node15</title>
<a xlink:href="vsdata_8hpp.html" target="_top" xlink:title="vsdata.hpp">
<polygon fill="white" stroke="black" points="246,-56.5 246,-75.5 312,-75.5 312,-56.5 246,-56.5"/>
<text text-anchor="middle" x="279" y="-62.5" font-family="FreeSans" font-size="10.00">vsdata.hpp</text>
</a>
</g>
<!-- Node6&#45;&gt;Node15 -->
<g id="edge30" class="edge"><title>Node6&#45;&gt;Node15</title>
<path fill="none" stroke="midnightblue" d="M514.661,-115.484C471.983,-106.601 393.197,-90.1738 326,-76 324.737,-75.7337 323.456,-75.463 322.162,-75.1895"/>
<polygon fill="midnightblue" stroke="midnightblue" points="322.629,-71.7109 312.121,-73.0623 321.178,-78.5589 322.629,-71.7109"/>
</g>
<!-- Node16 -->
<g id="node34" class="node"><title>Node16</title>
<a xlink:href="vssolution_8hpp.html" target="_top" xlink:title="vssolution.hpp">
<polygon fill="white" stroke="black" points="453.5,-56.5 453.5,-75.5 534.5,-75.5 534.5,-56.5 453.5,-56.5"/>
<text text-anchor="middle" x="494" y="-62.5" font-family="FreeSans" font-size="10.00">vssolution.hpp</text>
</a>
</g>
<!-- Node6&#45;&gt;Node16 -->
<g id="edge36" class="edge"><title>Node6&#45;&gt;Node16</title>
<path fill="none" stroke="midnightblue" d="M536.942,-112.246C529.486,-104.216 518.737,-92.6394 509.858,-83.0781"/>
<polygon fill="midnightblue" stroke="midnightblue" points="512.323,-80.589 502.954,-75.6427 507.194,-85.3522 512.323,-80.589"/>
</g>
<!-- Node17 -->
<g id="node36" class="node"><title>Node17</title>
<a xlink:href="vssolution3d_8hpp.html" target="_top" xlink:title="vssolution3d.hpp">
<polygon fill="white" stroke="black" points="552,-56.5 552,-75.5 644,-75.5 644,-56.5 552,-56.5"/>
<text text-anchor="middle" x="598" y="-62.5" font-family="FreeSans" font-size="10.00">vssolution3d.hpp</text>
</a>
</g>
<!-- Node6&#45;&gt;Node17 -->
<g id="edge38" class="edge"><title>Node6&#45;&gt;Node17</title>
<path fill="none" stroke="midnightblue" d="M555.058,-112.246C562.514,-104.216 573.263,-92.6394 582.142,-83.0781"/>
<polygon fill="midnightblue" stroke="midnightblue" points="584.806,-85.3522 589.046,-75.6427 579.677,-80.589 584.806,-85.3522"/>
</g>
<!-- Node18 -->
<g id="node38" class="node"><title>Node18</title>
<a xlink:href="vsvector_8hpp.html" target="_top" xlink:title="vsvector.hpp">
<polygon fill="white" stroke="black" points="661.5,-56.5 661.5,-75.5 734.5,-75.5 734.5,-56.5 661.5,-56.5"/>
<text text-anchor="middle" x="698" y="-62.5" font-family="FreeSans" font-size="10.00">vsvector.hpp</text>
</a>
</g>
<!-- Node6&#45;&gt;Node18 -->
<g id="edge40" class="edge"><title>Node6&#45;&gt;Node18</title>
<path fill="none" stroke="midnightblue" d="M572.13,-112.373C597.077,-103.182 634.859,-89.2624 662.521,-79.0713"/>
<polygon fill="midnightblue" stroke="midnightblue" points="664.038,-82.2424 672.211,-75.5011 661.618,-75.674 664.038,-82.2424"/>
</g>
<!-- Node19 -->
<g id="node40" class="node"><title>Node19</title>
<a xlink:href="vsvector3d_8hpp.html" target="_top" xlink:title="vsvector3d.hpp">
<polygon fill="white" stroke="black" points="751.5,-56.5 751.5,-75.5 836.5,-75.5 836.5,-56.5 751.5,-56.5"/>
<text text-anchor="middle" x="794" y="-62.5" font-family="FreeSans" font-size="10.00">vsvector3d.hpp</text>
</a>
</g>
<!-- Node6&#45;&gt;Node19 -->
<g id="edge42" class="edge"><title>Node6&#45;&gt;Node19</title>
<path fill="none" stroke="midnightblue" d="M577.158,-114.964C618.417,-105.648 691.764,-89.0856 741.614,-77.829"/>
<polygon fill="midnightblue" stroke="midnightblue" points="742.581,-81.1988 751.565,-75.5821 741.04,-74.3708 742.581,-81.1988"/>
</g>
<!-- Node20 -->
<g id="node42" class="node"><title>Node20</title>
<a xlink:href="threads_8hpp.html" target="_top" xlink:title="threads.hpp">
<polygon fill="white" stroke="black" points="853.5,-56.5 853.5,-75.5 922.5,-75.5 922.5,-56.5 853.5,-56.5"/>
<text text-anchor="middle" x="888" y="-62.5" font-family="FreeSans" font-size="10.00">threads.hpp</text>
</a>
</g>
<!-- Node6&#45;&gt;Node20 -->
<g id="edge44" class="edge"><title>Node6&#45;&gt;Node20</title>
<path fill="none" stroke="midnightblue" d="M577.125,-118.004C629.923,-111.054 740.591,-95.749 843.393,-76.2085"/>
<polygon fill="midnightblue" stroke="midnightblue" points="844.153,-79.6265 853.314,-74.3044 842.834,-72.7519 844.153,-79.6265"/>
</g>
<!-- Node9 -->
<g id="node17" class="node"><title>Node9</title>
<polygon fill="white" stroke="#bfbfbf" points="544.5,-0.5 544.5,-19.5 593.5,-19.5 593.5,-0.5 544.5,-0.5"/>
<text text-anchor="middle" x="569" y="-6.5" font-family="FreeSans" font-size="10.00">GL/gl.h</text>
</g>
<!-- Node8&#45;&gt;Node9 -->
<g id="edge16" class="edge"><title>Node8&#45;&gt;Node9</title>
<path fill="none" stroke="midnightblue" d="M430.708,-56.3733C459.531,-46.7083 503.947,-31.8142 534.629,-21.5256"/>
<polygon fill="midnightblue" stroke="midnightblue" points="536.097,-24.725 544.465,-18.2273 533.871,-18.0882 536.097,-24.725"/>
</g>
<!-- Node10 -->
<g id="node19" class="node"><title>Node10</title>
<polygon fill="white" stroke="#bfbfbf" points="611,-0.5 611,-19.5 665,-19.5 665,-0.5 611,-0.5"/>
<text text-anchor="middle" x="638" y="-6.5" font-family="FreeSans" font-size="10.00">GL/glu.h</text>
</g>
<!-- Node8&#45;&gt;Node10 -->
<g id="edge18" class="edge"><title>Node8&#45;&gt;Node10</title>
<path fill="none" stroke="midnightblue" d="M436.732,-57.9132C439.529,-57.2648 442.312,-56.6208 445,-56 511.756,-40.5842 530.975,-37.8085 601.14,-20.1402"/>
<polygon fill="midnightblue" stroke="midnightblue" points="602.073,-23.5146 610.908,-17.6678 600.355,-16.7286 602.073,-23.5146"/>
</g>
<!-- Node11 -->
<g id="node21" class="node"><title>Node11</title>
<polygon fill="white" stroke="#bfbfbf" points="342.5,-0.5 342.5,-19.5 395.5,-19.5 395.5,-0.5 342.5,-0.5"/>
<text text-anchor="middle" x="369" y="-6.5" font-family="FreeSans" font-size="10.00">GL/glx.h</text>
</g>
<!-- Node8&#45;&gt;Node11 -->
<g id="edge20" class="edge"><title>Node8&#45;&gt;Node11</title>
<path fill="none" stroke="midnightblue" d="M396.252,-56.2455C391.756,-48.617 385.375,-37.7881 379.918,-28.5267"/>
<polygon fill="midnightblue" stroke="midnightblue" points="382.775,-26.4811 374.682,-19.6427 376.744,-30.035 382.775,-26.4811"/>
</g>
<!-- Node12 -->
<g id="node23" class="node"><title>Node12</title>
<polygon fill="white" stroke="#bfbfbf" points="412.5,-0.5 412.5,-19.5 445.5,-19.5 445.5,-0.5 412.5,-0.5"/>
<text text-anchor="middle" x="429" y="-6.5" font-family="FreeSans" font-size="10.00">tk.h</text>
</g>
<!-- Node8&#45;&gt;Node12 -->
<g id="edge22" class="edge"><title>Node8&#45;&gt;Node12</title>
<path fill="none" stroke="midnightblue" d="M406.703,-56.2455C410.342,-48.6973 415.492,-38.0158 419.926,-28.8197"/>
<polygon fill="midnightblue" stroke="midnightblue" points="423.16,-30.1704 424.351,-19.6427 416.855,-27.1303 423.16,-30.1704"/>
</g>
<!-- Node13 -->
<g id="node25" class="node"><title>Node13</title>
<polygon fill="white" stroke="#bfbfbf" points="462.5,-0.5 462.5,-19.5 527.5,-19.5 527.5,-0.5 462.5,-0.5"/>
<text text-anchor="middle" x="495" y="-6.5" font-family="FreeSans" font-size="10.00">aux_gl.hpp</text>
</g>
<!-- Node8&#45;&gt;Node13 -->
<g id="edge24" class="edge"><title>Node8&#45;&gt;Node13</title>
<path fill="none" stroke="midnightblue" d="M418.199,-56.2455C432.602,-47.5731 453.873,-34.7645 470.38,-24.825"/>
<polygon fill="midnightblue" stroke="midnightblue" points="472.225,-27.7996 478.986,-19.6427 468.614,-21.8028 472.225,-27.7996"/>
</g>
<!-- Node8&#45;&gt;Node14 -->
<g id="edge26" class="edge"><title>Node8&#45;&gt;Node14</title>
<path fill="none" stroke="midnightblue" d="M382.059,-56.3733C363.521,-47.4241 335.697,-33.9917 314.759,-23.8835"/>
<polygon fill="midnightblue" stroke="midnightblue" points="316.208,-20.6967 305.681,-19.5011 313.165,-27.0006 316.208,-20.6967"/>
</g>
<!-- Node15&#45;&gt;Node5 -->
<g id="edge34" class="edge"><title>Node15&#45;&gt;Node5</title>
<path fill="none" stroke="midnightblue" d="M265.065,-56.2455C252.905,-47.7337 235.054,-35.2375 220.972,-25.3801"/>
<polygon fill="midnightblue" stroke="midnightblue" points="222.975,-22.51 212.775,-19.6427 218.96,-28.2447 222.975,-22.51"/>
</g>
<!-- Node15&#45;&gt;Node14 -->
<g id="edge32" class="edge"><title>Node15&#45;&gt;Node14</title>
<path fill="none" stroke="midnightblue" d="M280.219,-56.2455C281.133,-48.9382 282.413,-38.6944 283.537,-29.7046"/>
<polygon fill="midnightblue" stroke="midnightblue" points="287.027,-29.9996 284.795,-19.6427 280.081,-29.1313 287.027,-29.9996"/>
</g>
<!-- Node21 -->
<g id="node44" class="node"><title>Node21</title>
<polygon fill="white" stroke="#bfbfbf" points="859,-0.5 859,-19.5 917,-19.5 917,-0.5 859,-0.5"/>
<text text-anchor="middle" x="888" y="-6.5" font-family="FreeSans" font-size="10.00">pthread.h</text>
</g>
<!-- Node20&#45;&gt;Node21 -->
<g id="edge46" class="edge"><title>Node20&#45;&gt;Node21</title>
<path fill="none" stroke="midnightblue" d="M888,-56.2455C888,-48.9382 888,-38.6944 888,-29.7046"/>
<polygon fill="midnightblue" stroke="midnightblue" points="891.5,-29.6426 888,-19.6427 884.5,-29.6427 891.5,-29.6426"/>
</g>
</g>
</svg>
        <g id="navigator" transform="translate(0 0)" fill="#404254">
                <rect fill="#f2f5e9" fill-opacity="0.5" stroke="#606060" stroke-width=".5" x="0" y="0" width="60" height="60"/>
                <use id="zoomplus" xlink:href="#zoomPlus" x="17" y="9" onmousedown="handleZoom(evt,'in')"/>
                <use id="zoomminus" xlink:href="#zoomMin" x="42" y="9" onmousedown="handleZoom(evt,'out')"/>
                <use id="reset" xlink:href="#resetDef" x="30" y="36" onmousedown="handleReset()"/>
                <g id="arrowUp" xlink:href="#dirArrow" transform="translate(30 24)" onmousedown="handlePan(0,-1)">
                  <use xlink:href="#rim" fill="#404040">
                        <set attributeName="fill" to="#808080" begin="arrowUp.mouseover" end="arrowUp.mouseout"/>
                  </use>
                  <path fill="none" stroke="white" stroke-width="1.5" d="M0,-3.0v7 M-2.5,-0.5L0,-3.0L2.5,-0.5"/>
                </g>
                <g id="arrowRight" xlink:href="#dirArrow" transform="rotate(90) translate(36 -43)" onmousedown="handlePan(1,0)">
                  <use xlink:href="#rim" fill="#404040">
                        <set attributeName="fill" to="#808080" begin="arrowRight.mouseover" end="arrowRight.mouseout"/>
                  </use>
                  <path fill="none" stroke="white" stroke-width="1.5" d="M0,-3.0v7 M-2.5,-0.5L0,-3.0L2.5,-0.5"/>
                </g>
                <g id="arrowDown" xlink:href="#dirArrow" transform="rotate(180) translate(-30 -48)" onmousedown="handlePan(0,1)">
                  <use xlink:href="#rim" fill="#404040">
                        <set attributeName="fill" to="#808080" begin="arrowDown.mouseover" end="arrowDown.mouseout"/>
                  </use>
                  <path fill="none" stroke="white" stroke-width="1.5" d="M0,-3.0v7 M-2.5,-0.5L0,-3.0L2.5,-0.5"/>
                </g>
                <g id="arrowLeft" xlink:href="#dirArrow" transform="rotate(270) translate(-36 17)" onmousedown="handlePan(-1,0)">
                  <use xlink:href="#rim" fill="#404040">
                        <set attributeName="fill" to="#808080" begin="arrowLeft.mouseover" end="arrowLeft.mouseout"/>
                  </use>
                  <path fill="none" stroke="white" stroke-width="1.5" d="M0,-3.0v7 M-2.5,-0.5L0,-3.0L2.5,-0.5"/>
                </g>
        </g>
</svg>
